<?xml version="1.0" encoding="utf-8"?>
<!-- Generator: Adobe Illustrator 21.0.0, SVG Export Plug-In . SVG Version: 6.00 Build 0)  -->
<svg version="1.1" id="Layer_1" xmlns="http://www.w3.org/2000/svg" xmlns:xlink="http://www.w3.org/1999/xlink" x="0px" y="0px"
	 viewBox="0 0 88.6 64.8" style="enable-background:new 0 0 88.6 64.8;" xml:space="preserve">
<path d="M88.4,17.7c-0.2-0.6-0.5-1.1-0.9-1.5s-1-0.7-1.5-0.9c-0.6-0.2-1.1-0.2-1.7-0.1s-1.2,0.2-1.7,0.5c-0.6,0.3-1.1,0.6-1.5,1.1
	L70.5,27.4L64.2,26c-2-9.9-8.7-18.6-18.3-23c-3.5-1.6-7.2-2.6-11-2.9c-0.2,0-0.3-0.1-0.5-0.1c-1.3,0-2.5,0-3.8,0
	c-1.2,0.2-2.4,0.3-3.6,0.5C17.9,2.2,10.8,7,5.5,14.6c-3,4.4-4.7,9.3-5.3,14.5C0.1,29.6,0.1,30,0,30.5c0,1.3,0,2.6,0,3.9
	c0.2,1.1,0.3,2.3,0.5,3.4C2.6,50.1,12,60.3,24,63.6c11.1,3,22-0.2,29.8-7.1v0.1c0.3,0.8,0.8,1.7,1.8,1.9c1.1,0.2,2-0.7,2.4-1.1
	l0.7-0.7c0.7-0.7,1.1-1.9,0.9-3.1l-0.3-3.4c0.5-0.5,0.9-0.9,1.3-1.4c2.1-2.1,4-4.1,6.2-5.9c2,3.9,3.9,7.8,5.8,12l0.4,0.8
	c0.1,0.2,0.2,0.5,0.4,0.8c1,2.2,1.8,3.9,3.1,4.1c0.1,0,0.2,0,0.4,0c0.5,0,1-0.2,1.4-0.6l1.8-1.8c0.9-0.9,1.2-2.3,0.8-4l-1.3-5.7
	l-1.8-8.2l-1.6-7.1l10.7-10.6c0.5-0.5,0.8-1,1.1-1.5c0.3-0.5,0.4-1.1,0.5-1.7C88.6,18.8,88.6,18.3,88.4,17.7z M27.9,4.1
	C29,3.3,30.2,2.8,31,2.8c0,4.6,0,9.3,0,14c-3.6-0.1-7-0.4-10.5-1.2C22.1,11.2,23.9,6.9,27.9,4.1z M24.5,3.7c-3,3.3-4.9,7.2-6.3,11.4
	c-2.7-0.7-5.3-1.6-7.8-3C14.3,7.9,19,5.1,24.5,3.7z M8.6,14.3c3,1.2,5.9,2.3,8.8,3.4c-1.1,4.3-1.7,8.8-1.8,13.4c-4.3,0-8.6,0-12.9,0
	C2.9,24.8,4.9,19.2,8.6,14.3z M8.6,50.5c-3.7-4.8-5.7-10.5-6-16.8c4.3,0,8.6,0,12.9,0c0.1,4.6,0.7,9.1,1.9,13.3
	C14.4,48.2,11.6,49.3,8.6,50.5z M10.4,52.7c2.5-1.3,5.1-2.2,7.8-3c1.4,4.2,3.3,8.1,6.3,11.4C19,59.7,14.3,56.9,10.4,52.7z
	 M18.2,33.7c4.3,0,8.6,0,12.9,0c0,3.9,0,7.7,0,11.5c-3.7,0.4-7.5,0.8-11.3,1.3C18.7,42.4,18.2,38.1,18.2,33.7z M31.1,62.2
	c-0.8-0.3-1.6-0.6-2.4-1c-1.9-1-3.3-2.6-4.5-4.4c-1.6-2.3-2.7-4.9-3.6-7.7c3.5-0.7,7-1.1,10.5-1.2C31.1,52.7,31.1,57.3,31.1,62.2z
	 M31.1,31.1c-4.3,0-8.6,0-12.9,0c0.1-4.4,0.6-8.6,1.6-12.8c3.8,0.4,7.5,0.9,11.3,1.3C31.1,23.3,31.1,27.2,31.1,31.1z M45,46.5
	c-3.8-0.4-7.5-0.9-11.3-1.3c0-3.7,0-7.6,0-11.5c4.3,0,8.6,0,12.9,0C46.5,38.1,46,42.4,45,46.5z M49.2,33.7c1.8,0,3.6,0,5.3,0
	c2,1,4,1.9,6,3c-1.1,1.2-2.2,2.3-3.2,3.4c-1.3,1.4-2.6,2.8-3.9,4.2L50,44c-0.1,0-0.3,0-0.4,0h-0.2c-0.5,0-0.9,0.1-1.4,0.3
	C48.7,40.8,49.1,37.3,49.2,33.7z M56.1,14.3c1.8,1.5,4.1,6.5,5.2,11l-6.4-1.4l0,0l-5.7-1.3c-0.3-0.1-0.6-0.1-0.9-0.1
	c-0.3-1.7-0.6-3.3-0.9-4.9C50.3,16.6,53.2,15.5,56.1,14.3z M54.4,12.1c-2.5,1.3-5.1,2.2-7.8,3c-1.4-4.2-3.3-8.1-6.3-11.4
	C45.8,5.1,50.4,7.9,54.4,12.1z M33.7,2.7c0.6,0.2,1.2,0.3,1.7,0.6c1.9,0.8,3.3,2.2,4.6,3.9c1.9,2.5,3.2,5.4,4.2,8.5
	c-3.5,0.7-7,1.1-10.5,1.2C33.7,12.1,33.7,7.5,33.7,2.7z M33.7,19.5c1.9-0.1,3.8-0.2,5.6-0.5c1.9-0.2,3.7-0.5,5.6-0.8
	c0.4,1.6,0.7,3.3,1,4.9c-0.2,0.1-0.4,0.3-0.6,0.4l-1.8,1.8c-0.5,0.5-0.7,1.1-0.6,1.7c0.2,1.3,1.6,2,3.6,2.9c0,0.4,0,0.7,0,1.1
	c-4.3,0-8.6,0-12.9,0C33.7,27.2,33.7,23.3,33.7,19.5z M37.5,60.2c-1.1,0.9-2.3,1.5-3.8,1.8c0-4.7,0-9.4,0-14.1
	c3.5,0.1,7,0.4,10.6,1.2c-0.6,1.5-1.1,2.9-1.8,4.3C41.3,56,39.7,58.4,37.5,60.2z M40.3,61.1c3-3.3,4.9-7.2,6.3-11.3
	c0.2,0,0.4,0.1,0.6,0.1l4.7,1.9l1,2.4C49.3,57.5,45.1,59.8,40.3,61.1z"/>
</svg>
