<?xml version="1.0" encoding="utf-8"?>
<!-- Generator: Adobe Illustrator 21.0.0, SVG Export Plug-In . SVG Version: 6.00 Build 0)  -->
<svg version="1.1" id="Camada_1" xmlns="http://www.w3.org/2000/svg" xmlns:xlink="http://www.w3.org/1999/xlink" x="0px" y="0px"
	 viewBox="0 0 458.7 535.7" style="enable-background:new 0 0 458.7 535.7;" xml:space="preserve">
<style type="text/css">
	
</style>
<g>
	<g>
		<path class="st0" d="M149.1,471.9c-14.6-2.1-28.6,5.8-34.3,19.3c-5.8,13.6-1.9,29.1,10,37.9c3.9,2.9,8.7,4.5,13.2,6.7
			c4.3,0,8.7,0,13,0c1.5-0.6,2.9-1.3,4.4-1.9c14.1-5.3,22.3-18.7,20.7-33.9C174.6,485.8,163.2,473.9,149.1,471.9z"/>
		<path class="st0" d="M341.1,471.9c-14.6-2.1-28.6,5.8-34.3,19.3c-5.8,13.6-1.9,29.1,10,37.9c3.9,2.9,8.7,4.5,13.2,6.7
			c4.3,0,8.7,0,13,0c1.5-0.6,2.9-1.3,4.4-1.9c14.1-5.3,22.3-18.7,20.7-33.9C366.6,485.8,355.2,473.9,341.1,471.9z"/>
		<g>
			<path class="st0" d="M425.7,107c-30.7,31.5-86,6.6-85-36c0.4-15.7,7.8-24.2,15-35c-12.4-12.3-23.1-26.2-38-36c-3.3,0-6.7,0-10,0
				c-20.6,15.4-36.8,35.2-55,53c2.2,8,10.1,12.6,6,20c-4.1,7.5-15.9,3.4-21-4c-42,39.1-84,82.5-126.4,125.3c-3.3,0-6.6,0-9.8,0
				c-5.4,0-7.2-1.6-7.6-6.8c-0.5-6.1-1.8-12.1-3-18.2c-1.7-9.1-7.8-14.2-15.8-17.7c-19.7,0-39.3,0-59,0c-8.1,3.5-13.7,9.3-16,18
				c0,2.3,0,4.7,0,7c4.4,13.6,14,18.9,27.9,18c6.6-0.4,13.3,0,20-0.1c2.9-0.1,3.9,0.9,4.3,3.9c8.2,50.3,16.6,100.7,25,151
				c4.6,27.4,9.1,54.7,13.9,82.1c2,11.7,10.9,19.1,22.7,19.1c77.3,0,154.6,0,232,0c11.7,0,20.8-7.5,22.3-18
				c1.6-11.3-4.6-21.1-15.4-24.1c-2.4-0.6-4.9-0.7-7.4-0.7c-69.5,0-139-0.1-208.5,0.1c-4.4,0-7.1-0.4-7.3-5.8
				c-0.2-4.9-1.5-9.8-2.5-15.4c2.2,0,4.1,0,6,0c77.2,0,154.3,0,231.5,0c16,0,23.4-6.7,25.6-22.4c5.5-38.5,11.1-77,16.7-115.5
				c1.3-9,2.8-18,4.2-27c0-3.7,0-7.3,0-11c-1-2.6-2.1-4.7-3.4-6.6c17.3-17.4,36.3-33.2,51.1-53.1c0-3.3,0-6.7,0-10
				C449.6,127.7,437.9,117.1,425.7,107z M288.7,115c-6.9,0.3-31.2-21.5-14-28c1.3-0.5,3.2-1.6,6-1c4.8,1,16.9,13.6,17,19
				C297.8,111.6,293.4,114.8,288.7,115z M326.7,153c-5.5,0.2-19.8-10.2-20-19c-0.2-6.9,4.2-9.4,9-10c0.9-0.1,0.4-0.5,2,0
				c5.8,1.8,17.8,12.1,18,19C335.8,149.3,331.8,152.8,326.7,153z M364.7,191c-5.2,0.3-19.8-10.9-20-19c-0.2-6.9,4.2-9.4,9-10
				c0.9-0.1,0.4-0.5,2,0c5.6,1.7,17.9,11.5,18,19C373.7,186.4,369.7,190.7,364.7,191z"/>
		</g>
	</g>
</g>
</svg>
