<?xml version="1.0" encoding="utf-8"?>
<!-- Generator: Adobe Illustrator 21.0.0, SVG Export Plug-In . SVG Version: 6.00 Build 0)  -->
<svg version="1.1" id="Layer_1" xmlns="http://www.w3.org/2000/svg" xmlns:xlink="http://www.w3.org/1999/xlink" x="0px" y="0px"
	 viewBox="0 0 30.3 30" style="enable-background:new 0 0 30.3 30;" xml:space="preserve">

<g>
	<g id="Ka3EzW.tif_1_">
		<g>
			<path class="st1" d="M27.4,15c-0.1,0.3-0.1,0.7-0.2,1c-0.3,1.2-0.8,2.2-1.6,3.1c-1.7,2-3.9,3.2-6.4,3.9c-1.5,0.4-3,0.5-4.5,0.5
				c-0.4,0-0.9-0.1-1.3-0.1c-0.2,0-0.3,0-0.5,0.2c-1,1.1-2.1,1.9-3.4,2.5c-0.5,0.2-1,0.4-1.6,0.4c-0.3,0-0.5-0.1-0.6-0.3
				c-0.1-0.2-0.1-0.5,0-0.7c0.3-0.6,0.7-1.2,1-1.8c0.2-0.4,0.3-0.9,0.4-1.4c0.1-0.2,0-0.3-0.2-0.4c-1.7-0.9-3.1-2.1-4-3.7
				c-0.5-0.9-0.8-1.8-1-2.9c-0.2-1.9,0.4-3.6,1.5-5.2C6.5,7.9,8.6,6.7,11,6c1.1-0.3,2.2-0.5,3.3-0.6c0.1,0,0.1,0,0.2,0
				c0.6,0,1.3,0,1.9,0c0,0,0.1,0,0.1,0c0.8,0.1,1.6,0.2,2.3,0.3c2.5,0.6,4.8,1.7,6.6,3.6c0.8,0.9,1.5,2,1.8,3.2
				c0.1,0.4,0.2,0.8,0.2,1.2C27.4,14.2,27.4,14.6,27.4,15z"/>
		</g>
	</g>
</g>
</svg>
