<?xml version="1.0" encoding="utf-8"?>
<!-- Generator: Adobe Illustrator 16.0.0, SVG Export Plug-In . SVG Version: 6.00 Build 0)  -->
<!DOCTYPE svg PUBLIC "-//W3C//DTD SVG 1.1//EN" "http://www.w3.org/Graphics/SVG/1.1/DTD/svg11.dtd">
<svg version="1.1" id="Layer_1" xmlns="http://www.w3.org/2000/svg" xmlns:xlink="http://www.w3.org/1999/xlink" x="0px" y="0px"
	 width="89.4px" height="66.3px" viewBox="6.1 21.5 89.4 66.3" enable-background="new 6.1 21.5 89.4 66.3" xml:space="preserve">
<g>
	<path fill="#263C70" d="M17.2,79.9v-9.5h-1.6l6.2-10.3l4,7.4h2.3V56.8l4.1-7.5l3.9,7.6v1.8h1.5l2.7-6.6L43,58h1.6v-8.1h-1l2.6-6.1
		l2.2,5.5h1.4l3.9-3.9V32.9h-0.9l4-8.2l4.6,8.2h-1.2v12.7h1.2V54l2.6,3.9h0.8v-3h-1l2.3-5.9l2.3,5.8h-0.8v3.7l1.6,2.9h0.9l3.1-7.5
		l2.9,9h1.1l1.8-3l6.7,10.8h-3.2v9.2H60.4c0,0-0.1-11.8-9.3-11.8c-9.2,0-10.3,7.4-10.2,11.8H17.2z"/>
	<polygon fill="#005ca9" points="54.2,22.4 56.8,21.5 56.8,23.3 	"/>
	<polygon fill="#005ca9" points="43.7,41.6 46.2,40.7 46.2,42.5 	"/>
	<polygon fill="#005ca9" points="29.8,47.3 32.4,46.4 32.4,48.2 	"/>
	<polygon fill="#005ca9" points="19.3,58.1 21.9,57.2 21.9,59 	"/>
	<g>
		<path fill="#005ca9" d="M95.4,79.9H94C94,56,74.6,36.6,50.7,36.6S7.5,56,7.5,79.9H6.1c0-24.6,20-44.7,44.7-44.7
			C75.4,35.2,95.4,55.2,95.4,79.9z"/>
	</g>
	<g>
		<path fill="#0087E5" d="M40.5,84.3c0-3.9,0-7.8,0-11.7c0-0.1,0.1-0.2,0.1-0.3c0.3-2.5,0.7-5.1,1-7.6c0.1-1,0.7-1.7,1.5-2.2
			c0.8-0.4,1.6-0.8,2.4-1c1.6-0.4,3.2-0.7,4.9-0.8c0.1,0,0.1-0.1,0.2-0.1c0.6,0,1.2,0,1.9,0c0.1,0,0.1,0.1,0.2,0.1
			c1.1,0.2,2.1,0.3,3.2,0.5c1.4,0.2,2.7,0.6,3.9,1.3c1,0.5,1.6,1.3,1.7,2.5c0.3,2,0.5,4,0.8,6c0.1,0.7,0.3,1.3,0.3,2
			c0,3.7,0,7.3,0,11c0,0.1,0,0.2,0,0.3c-0.1,0-0.2,0-0.3,0c-0.4,0-0.8,0-1.2,0c-0.3,0-0.3,0-0.3,0.4c0,0.5,0,1,0,1.4
			c0,0.2,0,0.3-0.1,0.5c-0.2,0.9-1.1,1.3-1.8,1.1c-0.8-0.2-1.3-0.7-1.3-1.6c0-0.5,0-1,0-1.5c0-0.2-0.1-0.3-0.3-0.3
			c-3.8,0-7.6,0-11.5,0c-0.1,0-0.2,0-0.3,0c0,0.1,0,0.3,0,0.4c0,0.5,0,1,0,1.5c0,0.9-0.7,1.5-1.5,1.6c-0.9,0-1.6-0.7-1.6-1.6
			c0-0.5,0-1,0-1.5c0-0.1,0-0.2,0-0.3C41.7,84.3,41.1,84.3,40.5,84.3z M51.6,73.9c2.7,0,5.4,0,8.2,0c0.7,0,1-0.3,1-1
			c0-0.1,0-0.2,0-0.3c-0.2-1.2-0.3-2.4-0.5-3.7c-0.1-0.8-0.2-1.7-0.4-2.5c-0.1-0.6-0.5-0.9-1.1-1c-0.1,0-0.2,0-0.3,0
			c-4.5,0-9,0-13.5,0c-0.1,0-0.2,0-0.4,0c-0.6,0-1,0.3-1.1,0.9c0,0.1-0.1,0.2-0.1,0.3c-0.2,1.5-0.4,3-0.6,4.5
			c-0.1,0.6-0.2,1.2-0.2,1.8c0,0.5,0.3,0.9,0.8,0.9c0.1,0,0.2,0,0.3,0C46.2,73.9,48.9,73.9,51.6,73.9z M51.5,64.1
			C51.5,64.1,51.5,64.1,51.5,64.1c1.5,0,2.9,0,4.4,0c0.1,0,0.2,0,0.3,0c0.3-0.1,0.5-0.3,0.5-0.7c0-0.3-0.2-0.6-0.6-0.7
			c-0.1,0-0.2,0-0.3,0c-2.9,0-5.8,0-8.7,0c-0.1,0-0.2,0-0.3,0c-0.4,0-0.6,0.3-0.6,0.7c0,0.5,0.3,0.7,0.8,0.7
			C48.6,64.1,50.1,64.1,51.5,64.1z"/>
		<path fill="#FFFFFF" d="M51.5,73.9c2.7,0,5.4,0,8.2,0c0.7,0,1-0.3,1-1c0-0.1,0-0.2,0-0.3c-0.2-1.2-0.3-2.4-0.5-3.7
			c-0.1-0.8-0.2-1.7-0.4-2.5c-0.1-0.6-0.5-0.9-1.1-1c-0.1,0-0.2,0-0.3,0c-4.5,0-9,0-13.5,0c-0.1,0-0.2,0-0.4,0c-0.6,0-1,0.3-1.1,0.9
			c0,0.1-0.1,0.2-0.1,0.3c-0.2,1.5-0.4,3-0.6,4.5c-0.1,0.6-0.2,1.2-0.2,1.8c0,0.5,0.3,0.9,0.8,0.9c0.1,0,0.2,0,0.3,0
			C46.2,73.9,48.9,73.9,51.5,73.9z"/>
		<path fill="#FDDB2B" d="M51.5,64.2L51.5,64.2c1.5,0,2.9,0,4.4,0c0.1,0,0.2,0,0.3,0c0.3-0.1,0.5-0.3,0.5-0.7c0-0.3-0.2-0.6-0.6-0.7
			c-0.1,0-0.2,0-0.3,0c-2.9,0-5.8,0-8.7,0c-0.1,0-0.2,0-0.3,0c-0.4,0-0.6,0.3-0.6,0.7c0,0.5,0.3,0.7,0.8,0.7
			C48.6,64.2,50,64.2,51.5,64.2z"/>
		<path fill="#FDDB2B" d="M43.9,81.2c0.9,0,1.6-0.6,1.6-1.5c0-0.9-0.7-1.6-1.6-1.6c-0.9,0-1.6,0.7-1.6,1.6
			C42.4,80.6,43,81.2,43.9,81.2z"/>
		<path fill="#FDDB2B" d="M59.2,81.2c0.9,0,1.6-0.7,1.6-1.6c0-0.9-0.7-1.5-1.6-1.5c-0.9,0-1.6,0.7-1.6,1.6
			C57.6,80.6,58.3,81.2,59.2,81.2z"/>
	</g>
</g>
</svg>
