<?xml version="1.0" encoding="utf-8"?>
<!-- Generator: Adobe Illustrator 21.0.0, SVG Export Plug-In . SVG Version: 6.00 Build 0)  -->
<svg version="1.1" id="图层_1" xmlns="http://www.w3.org/2000/svg" xmlns:xlink="http://www.w3.org/1999/xlink" x="0px" y="0px"
	 viewBox="0 0 167.4 154.8" style="enable-background:new 0 0 167.4 154.8;" xml:space="preserve">
<g id="g4i1Hu.tif">
	<g>
		<path d="M0,138.1c0-27.7,0-55.4,0-83c0.1-0.3,0.3-0.6,0.3-0.9c0.7-3.4,2.2-6.4,4.5-9c4.1-4.6,9.3-6.6,15.5-6.5c22,0.1,44,0,66,0
			c20.9,0,41.8,0,62.7,0.1c9.7,0,18.3,8.9,18.3,18.6c0,26,0,52.1,0,78.1c0,8.5-5.8,16.1-14.1,18.4c-1.6,0.4-3.3,0.6-4.9,1
			c-43.1,0-86.3,0-129.4,0c-0.4-0.1-0.7-0.3-1.1-0.3c-6.1-0.4-10.7-3.2-14.3-8C1.7,144,0.9,141.1,0,138.1z M48.2,108.4l23.8,0
			l0,23.5h25.1l0.1-23.6l22.3,0l0-25.6l-22.4,0l-0.1-22H71.9l0,22l-23.7,0L48.2,108.4z"/>
		<path d="M57.8,32.2c-4.2,0-8.3,0-12.5,0c-0.1-0.1-0.2-0.2-0.2-0.2c0.1-5.5-0.3-11.1,0.4-16.4c1.2-8.4,8.9-15.1,17.2-15.3
			C76,0,89.2,0,102.3,0c8.9,0,15.9,4.9,18.6,12.5c0.7,2,1.1,4.2,1.2,6.3c0.2,4.4,0.1,8.8,0.1,13.3c-4.2,0-8.5,0-12.8,0
			c0-2.1,0-4.2,0-6.2c0-1.7,0-3.5,0-5.2c-0.1-5.3-2.6-7.8-7.9-7.8c-10.6,0-21.2,0-31.9,0c-1.3,0-2.6,0-3.9,0c-5.2,0-7.7,2.5-7.8,7.7
			c-0.1,3.7,0,7.4,0,11.1C57.9,31.8,57.9,31.9,57.8,32.2z"/>
	</g>
</g>
</svg>
