<?xml version="1.0" encoding="utf-8"?>
<!-- Generator: Adobe Illustrator 20.0.0, SVG Export Plug-In . SVG Version: 6.00 Build 0)  -->
<svg version="1.1" id="Layer_1" xmlns="http://www.w3.org/2000/svg" xmlns:xlink="http://www.w3.org/1999/xlink" x="0px" y="0px"
	 viewBox="0 0 24 24" style="enable-background:new 0 0 24 24;" xml:space="preserve">
<style type="text/css">
	.st0{fill:#263C70;}
	.st1{fill:#FFDC2C;}
</style>
<g>
	<path class="st0" d="M23.7,3.1l-2.8-2.8c-0.4-0.4-1-0.4-1.4,0L0.3,19.5c-0.4,0.4-0.4,1,0,1.4l2.8,2.8c0.4,0.4,1,0.4,1.4,0L23.7,4.5
		C24.1,4.1,24.1,3.5,23.7,3.1z M19.1,7.4L16.7,5l3.5-3.5L22.5,4L19.1,7.4z"/>
	<polygon class="st1" points="12,6 12.8,3.8 15,3 12.8,2.2 12,0 11.2,2.2 9,3 11.2,3.8 	"/>
	<polygon class="st1" points="5,9 5.8,6.8 8,6 5.8,5.2 5,3 4.2,5.2 2,6 4.2,6.8 	"/>
	<polygon class="st1" points="21,12 20.2,14.2 18,15 20.2,15.8 21,18 21.8,15.8 24,15 21.8,14.2 	"/>
</g>
</svg>
