<?xml version="1.0" encoding="utf-8"?>
<!-- Generator: Adobe Illustrator 16.0.0, SVG Export Plug-In . SVG Version: 6.00 Build 0)  -->
<!DOCTYPE svg PUBLIC "-//W3C//DTD SVG 1.1//EN" "http://www.w3.org/Graphics/SVG/1.1/DTD/svg11.dtd">
<svg version="1.1" id="Layer_1" xmlns="http://www.w3.org/2000/svg" xmlns:xlink="http://www.w3.org/1999/xlink" x="0px" y="0px"
	 width="92.5px" height="32.8px" viewBox="3.9 30 92.5 32.8" enable-background="new 3.9 30 92.5 32.8" xml:space="preserve">
<g>
	<path fill="#FDDB2B" d="M96.4,59.1c0,0.9-0.7,1.6-1.6,1.6H5.5c-0.9,0-1.6-0.7-1.6-1.6V41.4c0-0.9,0.7-1.6,1.6-1.6h89.3
		c0.9,0,1.6,0.7,1.6,1.6V59.1z"/>
	<path fill="#005ca9" d="M39.2,30c0.2,0,0.5,0,0.7,0c0.1,0,0.3,0.1,0.4,0.1c4,0.5,6.5,3.7,5.7,7.7c0,0.3-0.1,0.6-0.1,1
		c2.8-1,5.6-0.9,8.4,0c-0.1-0.5-0.1-0.8-0.2-1.1c-0.6-3.3,1.1-6.4,4.2-7.4c0.4-0.1,0.8-0.2,1.2-0.4c0.7,0,1.4,0,2,0
		c0.1,0,0.3,0.1,0.4,0.1c3.7,0.8,6.2,3,7.4,6.6c1.6,4.9-2,9.3-7.1,8.7c-0.3,0-0.6-0.1-1-0.1c0.1,0.3,0.2,0.5,0.3,0.8
		c2.6,6.8-1.3,14.5-8.4,16.3c-0.7,0.2-1.4,0.3-2.1,0.5c-0.7,0-1.5,0-2.2,0c-0.2-0.1-0.4-0.1-0.6-0.2C41.8,61.8,37,55.6,37.9,49
		c0.2-1.2,0.5-2.3,0.8-3.5c-0.4,0-0.7,0.1-1.1,0.1c-3.9,0.4-7.2-2.5-7.2-6.5c0-3.6,2.7-7.2,6.4-8.4C37.6,30.4,38.4,30.2,39.2,30z"/>
	<circle fill="#0087E5" cx="82.1" cy="50.2" r="2.7"/>
	<circle fill="#0087E5" cx="90.2" cy="50.2" r="2.7"/>
	<circle fill="#0087E5" cx="10.3" cy="50.2" r="2.7"/>
</g>
</svg>
