<?xml version="1.0" encoding="utf-8"?>
<!-- Generator: Adobe Illustrator 16.0.0, SVG Export Plug-In . SVG Version: 6.00 Build 0)  -->
<!DOCTYPE svg PUBLIC "-//W3C//DTD SVG 1.1//EN" "http://www.w3.org/Graphics/SVG/1.1/DTD/svg11.dtd">
<svg version="1.1" id="Layer_1" xmlns="http://www.w3.org/2000/svg" xmlns:xlink="http://www.w3.org/1999/xlink" x="0px" y="0px"
	 width="94.9px" height="79px" viewBox="2.5 10.5 94.9 79" enable-background="new 2.5 10.5 94.9 79" xml:space="preserve">
<g>
	<path fill="#263C70" d="M23.7,10.5c0.6,0,1.2,0,1.8,0c0.3,0.1,0.6,0.3,1,0.3c9.7,1.1,15.5,9,13.8,18.6c-0.1,0.7-0.2,1.3-0.3,2.3
		c6.8-2.3,13.5-2.2,20.3,0c-0.2-1.1-0.3-1.8-0.5-2.5c-1.5-8,2.7-15.4,10.1-17.8c1-0.3,2-0.6,3-0.9c1.6,0,3.3,0,4.9,0
		c0.3,0.1,0.6,0.3,1,0.3c8.9,2,15,7.2,17.8,15.9c3.9,11.9-4.7,22.3-17.1,20.9c-0.7-0.1-1.5-0.2-2.4-0.3c0.3,0.8,0.5,1.3,0.7,1.8
		c6.2,16.4-3.2,34.8-20.2,39.2c-1.6,0.4-3.3,0.7-4.9,1.1c-1.8,0-3.5,0-5.3,0c-0.5-0.1-1-0.3-1.5-0.4c-15.9-2.2-27.3-17.1-25.2-33
		c0.4-2.8,1.2-5.5,1.9-8.5c-0.9,0.1-1.8,0.2-2.7,0.3c-9.5,1-17.2-6.1-17.2-15.6C2.6,23.7,9.1,15,17.8,12
		C19.7,11.3,21.7,11,23.7,10.5z M50,78.2c10.1,0.1,18.5-8.1,18.6-18.2c0.1-10.1-8-18.3-18.1-18.5c-10.1-0.2-18.5,8-18.6,18.1
		C31.7,69.7,39.8,78.1,50,78.2z"/>
	<g>
		<path fill="#FDDB2B" d="M61.3,62.4H55c-0.7-1.4-1.9-2.4-3.3-2.9V48.7c0-1.2-1-2.2-2.2-2.2c-1.2,0-2.2,1-2.2,2.2v11.2
			c-1.8,0.9-3.1,2.8-3.1,5c0,3.1,2.5,5.7,5.7,5.7c2.5,0,4.6-1.6,5.3-3.8h6.1c1.2,0,2.2-1,2.2-2.2C63.5,63.4,62.5,62.4,61.3,62.4z"/>
	</g>
	<g>
		<path fill="#FDDB2B" d="M50,81.7c-11.9,0-21.5-9.7-21.5-21.5c0-11.9,9.7-21.5,21.5-21.5c11.9,0,21.5,9.7,21.5,21.5
			C71.5,72.1,61.9,81.7,50,81.7z M50,42.9c-9.6,0-17.4,7.8-17.4,17.4S40.4,77.6,50,77.6c9.6,0,17.4-7.8,17.4-17.4S59.6,42.9,50,42.9
			z"/>
	</g>
</g>
</svg>
