<?xml version="1.0" encoding="utf-8"?>
<!-- Generator: Adobe Illustrator 21.0.0, SVG Export Plug-In . SVG Version: 6.00 Build 0)  -->
<svg version="1.1" id="Camada_1" xmlns="http://www.w3.org/2000/svg" xmlns:xlink="http://www.w3.org/1999/xlink" x="0px" y="0px"
	 viewBox="0 0 267.6 296.7" style="enable-background:new 0 0 267.6 296.7;" xml:space="preserve">
<g>
	<g>
		<path class="st0" d="M-1195.9,292c-14.6-2.1-28.6,5.8-34.3,19.3c-5.8,13.6-1.9,29.1,10,37.9c3.9,2.9,8.7,4.5,13.2,6.7
			c4.3,0,8.7,0,13,0c1.5-0.6,2.9-1.3,4.4-1.9c14.1-5.3,22.3-18.7,20.7-33.9C-1170.4,306-1181.9,294-1195.9,292z"/>
		<path class="st0" d="M-1003.9,292c-14.6-2.1-28.6,5.8-34.3,19.3c-5.8,13.6-1.9,29.1,10,37.9c3.9,2.9,8.7,4.5,13.2,6.7
			c4.3,0,8.7,0,13,0c1.5-0.6,2.9-1.3,4.4-1.9c14.1-5.3,22.3-18.7,20.7-33.9C-978.4,306-989.9,294-1003.9,292z"/>
		<g>
			<path class="st0" d="M-919.4-72.9c-30.7,31.5-86,6.6-85-36c0.4-15.7,7.8-24.2,15-35c-12.4-12.3-23.1-26.2-38-36
				c-3.3,0-6.7,0-10,0c-20.6,15.4-36.8,35.2-55,53c2.2,8,10.1,12.6,6,20c-4.1,7.5-15.9,3.4-21-4c-42,39.1-84,82.5-126.4,125.3
				c-3.3,0-6.6,0-9.8,0c-5.4,0-7.2-1.6-7.6-6.8c-0.5-6.1-1.8-12.1-3-18.2c-1.7-9.1-7.8-14.2-15.8-17.7c-19.7,0-39.3,0-59,0
				c-8.1,3.5-13.7,9.3-16,18c0,2.3,0,4.7,0,7c4.4,13.6,14,18.9,27.9,18c6.6-0.4,13.3,0,20-0.1c2.9-0.1,3.9,0.9,4.3,3.9
				c8.2,50.3,16.6,100.7,25,151c4.6,27.4,9.1,54.7,13.9,82.1c2,11.7,10.9,19.1,22.7,19.1c77.3,0,154.6,0,232,0
				c11.7,0,20.8-7.5,22.3-18c1.6-11.3-4.6-21.1-15.4-24.1c-2.4-0.6-4.9-0.7-7.4-0.7c-69.5,0-139-0.1-208.5,0.1
				c-4.4,0-7.1-0.4-7.3-5.8c-0.2-4.9-1.5-9.8-2.5-15.4c2.2,0,4.1,0,6,0c77.2,0,154.3,0,231.5,0c16,0,23.4-6.7,25.6-22.4
				c5.5-38.5,11.1-77,16.7-115.5c1.3-9,2.8-18,4.2-27c0-3.7,0-7.3,0-11c-1-2.6-2.1-4.7-3.4-6.6c17.3-17.4,36.3-33.2,51.1-53.1
				c0-3.3,0-6.7,0-10C-895.4-52.2-907.1-62.8-919.4-72.9z M-1056.4-64.9c-6.9,0.3-31.2-21.5-14-28c1.3-0.5,3.2-1.6,6-1
				c4.8,1,16.9,13.6,17,19C-1047.3-68.2-1051.7-65.1-1056.4-64.9z M-1018.4-26.9c-5.5,0.2-19.8-10.2-20-19c-0.2-6.9,4.2-9.4,9-10
				c0.9-0.1,0.4-0.5,2,0c5.8,1.8,17.8,12.1,18,19C-1009.3-30.5-1013.3-27.1-1018.4-26.9z M-980.4,11.1c-5.2,0.3-19.8-10.9-20-19
				c-0.2-6.9,4.2-9.4,9-10c0.9-0.1,0.4-0.5,2,0c5.6,1.7,17.9,11.5,18,19C-971.3,6.6-975.3,10.9-980.4,11.1z"/>
		</g>
	</g>
</g>
<g id="Ka3EzW.tif">
	<g>
		<path class="st1" d="M-345.7,137.1c-0.7,3.8-1.3,7.6-2.2,11.3c-3.1,13.5-9.3,25.4-18.1,36c-19.7,23.8-45.5,37.4-74.8,45.1
			c-17.4,4.6-35.2,6-53.1,5.4c-5.1-0.2-10.1-0.9-15.2-1.5c-2.3-0.3-4,0.1-5.8,2c-11.6,12.3-24.7,22.4-40.2,29.4
			c-5.9,2.6-11.9,4.8-18.4,5.2c-3.3,0.2-5.8-1.2-7.5-4c-1.7-2.9-1.3-5.7,0.3-8.5c3.8-6.9,8-13.6,11.2-20.8c2.3-5.2,3.3-11,4.8-16.6
			c0.6-2.1-0.2-3.6-2.4-4.7c-19.5-10.4-35.9-24.3-47.2-43.6c-6.1-10.3-9.8-21.4-11.1-33.4c-2.4-22.6,4.2-42.6,17.8-60.4
			c18.1-23.7,42.7-37.6,70.8-46c12.4-3.7,25.1-6,38.1-6.6c0.6,0,1.2-0.3,1.8-0.5c7.5,0,14.9,0,22.4,0c0.5,0.2,1,0.4,1.5,0.5
			c9,1.3,18.2,2,27,4C-416,36-389.8,49-369.2,71.9c9.8,10.8,17,23.2,20.7,37.3c1.2,4.5,1.9,9.1,2.8,13.7
			C-345.7,127.7-345.7,132.4-345.7,137.1z M-552.5,243.1c0.4,0,0.6,0.1,0.7,0.1c9.2-5.9,17.9-12.5,25-20.9c4.2-4.9,9.4-7.3,15.8-6.8
			c7.2,0.6,14.5,1.9,21.7,1.9c8.5,0,17.1-0.7,25.5-1.5c13.7-1.4,26.9-5,39.7-10.4c18.5-7.8,34.7-18.6,46.7-34.9
			c13.2-18,17.8-37.8,11-59.5c-5.8-18.6-18-32.3-33.6-43.2c-24.4-17.1-52.1-24.2-81.5-25.1c-8.8-0.3-17.6,0.7-26.4,1.5
			c-13.4,1.3-26.3,4.8-38.7,9.9c-18.8,7.8-35.4,18.7-47.7,35.4c-10.8,14.6-16.1,31-13.4,49.3c2.8,19,13,33.9,27.1,46.4
			c7.4,6.5,15.7,11.6,24.3,16.3c6,3.3,9.5,8.6,9,15.5c-0.4,5.7-1.5,11.4-2.6,17.1C-550.2,237.2-551.5,240.1-552.5,243.1z"/>
	</g>
</g>
<g id="EubgXd.tif">
	<g>
		<path class="st1" d="M-23.8,264.1c-0.3,0.9-0.6,1.8-0.8,2.7c-2.4,8.7-8.3,13.3-17.3,13.6c-0.6,0-1.3,0-1.9,0
			c-58.3,0-116.5,0-174.8,0c-12.9,0-20.3-7.4-20.3-20.3c0-20.5,0-41,0-61.4c0-1.9,0.1-3.8,0.6-5.7c1.5-5.6,5.2-10.9,15-10.4
			c6.2,0.3,11,4.5,12.2,11.1c0.3,1.9,0.5,3.8,0.5,5.7c0,16.7,0,33.3,0,50c0,1,0,2,0,3.1c53,0,105.8,0,158.7,0c0-69.9,0-139.9,0-210
			c-52.8,0-105.6,0-158.7,0c0,1,0,2,0,3c0,15.6,0,31.1,0,46.7c0,3.7-0.8,7.2-3,10.2c-3.9,5.3-9.4,5.9-15.2,4.7
			c-5.4-1.1-8.4-5-9.6-10.3c-0.4-1.9-0.6-4-0.6-5.9c0-19.1-0.1-38.2,0-57.3c0-5.4,1.1-10.7,5.8-14c2.8-2,6.2-3,9.4-4.5
			c0.6-0.3,1.2-0.4,1.8-0.6c60.6,0,121.3,0,181.9,0c0.5,0.2,0.9,0.4,1.4,0.5c7,1.5,12.1,5,14.1,12.2c0.3,1.2,0.6,2.4,0.9,3.6
			C-23.8,108.7-23.8,186.4-23.8,264.1z"/>
		<path class="st1" d="M-98.5,145c-22,21.1-44.1,40.6-68.6,57.3c-5.5,3.7-11.4,2.1-13.7-4c-1.2-3.2-1.8-6.7-1.9-10
			c-0.2-9.5-0.1-19.1-0.1-29c-1.2,0-2.3,0-3.3,0c-24.9,0-49.9,0-74.8,0c-7.4,0-13.2-3.7-14.6-9.4c-2.4-10.1,2.6-18.2,14.2-18.3
			c25-0.2,50.1-0.1,75.1-0.1c1,0,2,0,3.4,0c0-1,0-2,0-2.9c0-8.6,0-17.3,0-25.9c0-1.8,0.2-3.7,0.7-5.4c2-7.1,9.1-8.5,14.6-4.7
			c12.3,8.6,24.5,17.5,36.5,26.6c10.4,7.9,20.4,16.4,30.6,24.6C-99.9,144.2-99.2,144.5-98.5,145z"/>
	</g>
</g>
<g id="FGrJlL.tif">
	<g>
		<path class="st1" d="M135,0c5.4,1,11,1.3,16.1,3.1c23.2,7.9,37.5,24.1,42.3,48.1c1.4,6.9,0.8,14.1,1.1,21.5c15.6,0,31.4,0,47.5,0
			c8.6,74.8,17.1,149.3,25.6,224c-89.2,0-178.2,0-267.6,0c8.5-74.6,17-149,25.6-223.8c16,0,31.8,0,47.9,0c0-4.5,0-8.7,0-13
			c0.1-27.3,20.8-52,47.3-58.1c3.9-0.9,7.9-1.2,11.9-1.8C133.4,0,134.2,0,135,0z M36.2,84.7c-0.6,4.8-1.2,9.6-1.8,14.3
			c-1.1,9.5-2,18.9-3.1,28.4c-1.1,9.5-2.3,18.9-3.4,28.3c-1.1,9.5-2,18.9-3.1,28.4c-1.3,11.2-2.7,22.4-4,33.6
			c-1.3,11.2-2.4,22.4-3.7,33.6c-1.1,10-2.1,20.1-3.6,30.1c-0.5,3.4,0.7,3.6,3.4,3.6c77.8-0.1,155.5,0,233.3,0
			c0.8,0,1.7,0.2,2.3-0.1c0.6-0.2,1.4-1.1,1.4-1.6c-0.4-5.1-1-10.2-1.6-15.2c-0.9-7.8-1.8-15.6-2.7-23.4c-0.9-7.7-1.7-15.4-2.6-23.1
			c-0.9-8-1.8-16-2.8-24c-0.9-7.6-1.7-15.2-2.6-22.8c-0.9-7.8-1.8-15.6-2.7-23.4c-0.9-7.7-1.7-15.4-2.6-23.1
			c-1.1-9.5-2.2-19.1-3.3-28.6c-0.6-5-1.2-10-1.8-15C166.1,84.7,101.3,84.7,36.2,84.7z M182.3,72.7c-0.1-8.3,0.7-16.4-1.4-24.4
			c-6.6-25.6-30.5-39.6-55.7-35.2c-30.7,5.4-43.3,31.7-39.5,59.7C117.8,72.7,149.9,72.7,182.3,72.7z"/>
		<path class="st1" d="M67.5,109c0-6.8,5.5-12.1,12.2-12c6.4,0.1,11.6,5.7,11.6,12.4c0,6.5-5.7,12-12.1,11.9
			C72.5,121.1,67.4,115.8,67.5,109z"/>
		<path class="st1" d="M200.2,109.3c-0.1,6.7-5.5,12.1-12,11.9c-6.6-0.2-11.8-5.6-11.7-12.3c0-6.3,5.5-11.9,11.5-12
			C194.9,97,200.2,102.3,200.2,109.3z"/>
	</g>
</g>
</svg>
