<?xml version="1.0" encoding="utf-8"?>
<!-- Generator: Adobe Illustrator 21.0.0, SVG Export Plug-In . SVG Version: 6.00 Build 0)  -->
<svg version="1.1" id="Layer_1" xmlns="http://www.w3.org/2000/svg" xmlns:xlink="http://www.w3.org/1999/xlink" x="0px" y="0px"
	 viewBox="0 0 27.8 30" style="enable-background:new 0 0 27.8 30;" xml:space="preserve">

<g>
	<path class="st0" d="M22.3,10.5c-1.2,0-2.4,0-3.5,0c0-0.5,0-1.1-0.1-1.6c-0.4-1.8-1.4-3-3.1-3.5c-0.4-0.1-0.8-0.2-1.2-0.2
		c-0.1,0-0.1,0-0.2,0c-0.3,0-0.6,0.1-0.9,0.1c-1.9,0.4-3.5,2.3-3.5,4.3c0,0.3,0,0.6,0,1c-1.2,0-2.4,0-3.5,0C5.7,16,5.1,21.5,4.5,27
		c6.6,0,13.2,0,19.7,0C23.6,21.5,23,16,22.3,10.5z M13.9,6.9C15.3,6.6,16.6,7.4,17,9c0.1,0.5,0.1,1.5,0.1,1.5s-3.6,0-5.4,0
		C11.4,8.8,12.1,7.2,13.9,6.9z M10.3,13.9c-0.5,0-0.9-0.4-0.9-0.9c0-0.5,0.4-0.9,0.9-0.9c0.5,0,0.9,0.4,0.9,0.9
		C11.2,13.5,10.8,13.9,10.3,13.9z M18.4,13.9c-0.5,0-0.9-0.4-0.9-0.9c0-0.5,0.4-0.9,0.8-0.9c0.5,0,0.9,0.4,0.9,0.9
		C19.2,13.5,18.8,13.9,18.4,13.9z"/>
</g>
</svg>
