<?xml version="1.0" encoding="utf-8"?>
<!-- Generator: Adobe Illustrator 21.0.0, SVG Export Plug-In . SVG Version: 6.00 Build 0)  -->
<svg version="1.1" id="Camada_1" xmlns="http://www.w3.org/2000/svg" xmlns:xlink="http://www.w3.org/1999/xlink" x="0px" y="0px"
	 viewBox="0 0 81 81" style="enable-background:new 0 0 81 81;" xml:space="preserve">
<g id="GgtuCS.tif">
	<g>
		<path d="M35.5,0c3.3,0,6.7,0,10,0c0.4,0.2,0.7,0.4,1.1,0.5C61.9,3.1,72.4,11.8,78.3,26c1.3,3,1.8,6.3,2.7,9.5c0,3.3,0,6.7,0,10
			c-0.2,0.4-0.4,0.7-0.5,1.1C77.9,61.9,69.2,72.4,55,78.3c-3,1.3-6.3,1.8-9.5,2.7c-3.3,0-6.7,0-10,0c-0.4-0.2-0.7-0.4-1.1-0.5
			C19.1,77.9,8.6,69.2,2.7,55c-1.3-3-1.8-6.3-2.7-9.5c0-3.3,0-6.7,0-10c0.2-0.5,0.4-0.9,0.5-1.4c3.2-16.7,13-27.6,29.3-32.7
			C31.6,0.9,33.6,0.5,35.5,0z M75.7,40.6C75.8,21.1,60.1,5.4,40.6,5.3C21.1,5.3,5.5,20.7,5.3,40.2c-0.2,19.5,15.4,35.3,35,35.4
			C59.8,75.8,75.6,60.2,75.7,40.6z"/>
		<path d="M44,49.5c-3.2,0-6.1,0-9.2,0c0-4.2,0-8.2,0-12.4c2.4-0.4,4.8-0.6,7.2-1.2c3.8-1,5.9-3.4,6.1-6.7c0.4-6.1-3.9-9.5-10.6-8.1
			c-3,0.6-5.8,1.9-8.9,2.9c0-2.6-0.1-5.3,0.1-8c0-0.5,0.8-1.2,1.4-1.5c6.2-2.4,12.4-3,18.8-0.8c6.3,2.2,9.8,7.5,9.5,14
			c-0.3,7-4.6,12.4-11.7,13.9c-2.4,0.5-2.7,1.5-2.6,3.5C44,46.5,44,47.9,44,49.5z"/>
		<path d="M45.5,61.9c0,3.7-2.7,6.5-6.3,6.5c-3.7,0-6.5-2.8-6.5-6.5c0-3.6,3-6.5,6.6-6.5C42.7,55.6,45.5,58.4,45.5,61.9z"/>
	</g>
</g>
</svg>
