<?xml version="1.0" encoding="utf-8"?>
<!-- Generator: Adobe Illustrator 16.0.0, SVG Export Plug-In . SVG Version: 6.00 Build 0)  -->
<!DOCTYPE svg PUBLIC "-//W3C//DTD SVG 1.1//EN" "http://www.w3.org/Graphics/SVG/1.1/DTD/svg11.dtd">
<svg version="1.1" id="Layer_1" xmlns="http://www.w3.org/2000/svg" xmlns:xlink="http://www.w3.org/1999/xlink" x="0px" y="0px" viewBox="0 0 17.5 17.6" enable-background="new 0 0 17.5 17.6" xml:space="preserve">
<g>
	<path d="M8.7,0.5c0.3,0,0.5,0.2,0.7,0.4l2,4.2c0.1,0.2,0.3,0.3,0.5,0.4l4.5,0.8c0.3,0,0.5,0.2,0.6,0.5
		c0.1,0.3,0,0.6-0.2,0.7l-3.2,3.3c-0.2,0.2-0.2,0.4-0.2,0.6l0.8,4.8c0,0.2,0,0.4-0.2,0.6c-0.1,0.2-0.3,0.3-0.6,0.3
		c-0.1,0-0.2,0-0.3-0.1l-4-2.1c-0.1,0-0.2-0.1-0.2-0.1H8.7c-0.1,0-0.2,0-0.2,0.1l-4,2.1c-0.1,0.1-0.2,0.1-0.3,0.1
		c-0.2,0-0.4-0.1-0.6-0.3c-0.1-0.2-0.2-0.4-0.2-0.6l0.7-4.8c0-0.2,0-0.4-0.2-0.6L0.7,7.6C0.5,7.5,0.5,7.2,0.5,6.9
		c0.1-0.3,0.3-0.5,0.6-0.5l4.5-0.9c0.2,0,0.4-0.2,0.5-0.4l2-4.2C8.2,0.7,8.4,0.5,8.7,0.5 M8.7,0C8.2,0,7.8,0.3,7.6,0.7l-2,4.2
		C5.6,5,5.6,5,5.5,5L1,5.9C0.6,6,0.2,6.3,0.1,6.8C-0.1,7.2,0,7.7,0.4,8l3.2,3.2c0,0,0.1,0.1,0,0.1l-0.7,4.8c-0.1,0.4,0,0.7,0.3,1
		c0.2,0.3,0.6,0.4,0.9,0.4c0.2,0,0.4,0,0.6-0.1l4-2.1h0.2l4,2.1c0.2,0.1,0.4,0.1,0.6,0.1c0.4,0,0.7-0.2,0.9-0.4
		c0.2-0.3,0.3-0.6,0.3-1l-0.8-4.8c0-0.1,0-0.1,0-0.1L17.1,8c0.3-0.3,0.4-0.8,0.3-1.2c-0.1-0.4-0.5-0.8-1-0.9L12,5
		c-0.1,0-0.1,0-0.1-0.1l-2-4.2C9.6,0.3,9.2,0,8.7,0L8.7,0z"/>
</g>
</svg>
