<?xml version="1.0" encoding="utf-8"?>
<!-- Generator: Adobe Illustrator 21.0.0, SVG Export Plug-In . SVG Version: 6.00 Build 0)  -->
<svg version="1.1" id="Camada_1" xmlns="http://www.w3.org/2000/svg" xmlns:xlink="http://www.w3.org/1999/xlink" x="0px" y="0px"
	 viewBox="0 0 45.6 45.7" style="enable-background:new 0 0 45.6 45.7;" xml:space="preserve">
<style type="text/css">
	.st0{fill:none;stroke:#000000;stroke-miterlimit:10;}
</style>
<g id="_x34_yGgAM.tif">
	<g>
		<path d="M22.9,45.7c-1.3-0.1-2.7,0.1-3.9-0.3c-3.6-1.2-7.1-1.1-10.8-0.5c-3.4,0.5-4-0.3-4.5-3.5c-0.5-3.5-1.2-7.1-2.3-10.5
			C-1.5,21.8,0,13.8,6.5,7C13,0.3,21.1-1.6,29.9,1.3c8.8,2.9,14.1,9.2,15.4,18.5C47.3,33.6,36.7,45.6,22.9,45.7z M24.5,24
			c0.7-0.2,1.2-0.4,1.7-0.6c4.4-1.5,6.5-4.6,6.2-8.8C32,10.7,29.5,8,25.1,7.3c-1.8-0.3-3.7-0.2-5.5,0.1C15.6,8,15.1,9,16.4,13
			c6-2,9.3-1.6,10.1,1.3c0.3,1.2,0.4,3.2-0.2,3.7c-2,1.6-4.4,2.6-6.8,3.9c0,1.7,0,3.9,0,6c1.7,0,3,0,4.5,0
			C24.2,26.6,24.3,25.4,24.5,24z M21.6,31.6c-2.1,0.4-3.4,1.4-3.4,3.7c0,2.3,1.4,3.5,3.5,3.5c2.1,0,3.4-1.3,3.4-3.6
			C25.1,32.9,23.7,31.9,21.6,31.6z"/>
	</g>
</g>
</svg>
