<?xml version="1.0" encoding="utf-8"?>
<!-- Generator: Adobe Illustrator 21.0.0, SVG Export Plug-In . SVG Version: 6.00 Build 0)  -->
<svg version="1.1" id="Layer_1" xmlns="http://www.w3.org/2000/svg" xmlns:xlink="http://www.w3.org/1999/xlink" x="0px" y="0px"
	 viewBox="0 0 159.7 139.8" style="enable-background:new 0 0 159.7 139.8;" xml:space="preserve">
<style type="text/css">
	.st0{fill:#A7A9AB;}
	.st1{fill:#0066B2;}
	.st2{fill:#00ADEF;}
</style>
<g>
	<path fill="#A7A9AB" d="M61.5,58c0,1.5-0.8,2.6-1.8,2.6H23.2c-1,0-1.8-1.1-1.8-2.6l0,0c0-1.5,0.8-2.6,1.8-2.6h36.5
		C60.7,55.4,61.5,56.5,61.5,58L61.5,58z"/>
</g>
<g>
	<path fill="#A7A9AB" d="M61.5,71.3c0,1.5-0.8,2.6-1.8,2.6H23.2c-1,0-1.8-1.1-1.8-2.6l0,0c0-1.5,0.8-2.6,1.8-2.6h36.5
		C60.7,68.7,61.5,69.9,61.5,71.3L61.5,71.3z"/>
</g>
<g>
	<path fill="#A7A9AB" d="M61.5,83.2c0,1.5-0.8,2.6-1.8,2.6H23.2c-1,0-1.8-1.1-1.8-2.6l0,0c0-1.5,0.8-2.6,1.8-2.6h36.5
		C60.7,80.6,61.5,81.7,61.5,83.2L61.5,83.2z"/>
</g>
<g>
	<path fill="#A7A9AB" d="M105.2,58c0,1.5-0.8,2.6-1.8,2.6H66.9c-1,0-1.8-1.1-1.8-2.6l0,0c0-1.5,0.8-2.6,1.8-2.6h36.5
		C104.4,55.4,105.2,56.5,105.2,58L105.2,58z"/>
</g>
<g>
	<path fill="#A7A9AB" d="M105.2,71.3c0,1.5-0.8,2.6-1.8,2.6H66.9c-1,0-1.8-1.1-1.8-2.6l0,0c0-1.5,0.8-2.6,1.8-2.6h36.5
		C104.4,68.7,105.2,69.9,105.2,71.3L105.2,71.3z"/>
</g>
<g>
	<path fill="#A7A9AB" d="M105.2,83.2c0,1.5-0.8,2.6-1.8,2.6H66.9c-1,0-1.8-1.1-1.8-2.6l0,0c0-1.5,0.8-2.6,1.8-2.6h36.5
		C104.4,80.6,105.2,81.7,105.2,83.2L105.2,83.2z"/>
</g>
<path fill="#A7A9AB" d="M137.2,45.5c0,2.2-1.8,4-4,4H25.5c-2.2,0-4-1.8-4-4V16.4c0-2.2,1.8-4,4-4h107.7c2.2,0,4,1.8,4,4V45.5z"/>
<path fill="#0066B2" d="M137.2,81.8c0,2.2-1.8,4-4,4h-18.7c-2.2,0-4-1.8-4-4V59.4c0-2.2,1.8-4,4-4h18.7c2.2,0,4,1.8,4,4V81.8z"/>
<g id="Expanded">
	<g>
		<g>
			<path fill="#00ADEF" d="M146.4,126.5H13.3C6,126.5,0,120.2,0,112.6V13.9C0,6.2,6,0,13.3,0h133.1c7.3,0,13.3,6.2,13.3,13.9v98.7
				C159.7,120.2,153.8,126.5,146.4,126.5z M13.3,6.7c-3.7,0-6.7,3.3-6.7,7.2v98.7c0,4,3,7.2,6.7,7.2h133.1c3.7,0,6.7-3.2,6.7-7.2
				V13.9c0-4-3-7.2-6.7-7.2H13.3z"/>
		</g>
		<g>
			<path fill="#00ADEF" d="M126.5,139.8H33.3c-1.8,0-3.3-1.5-3.3-3.3c0-1.8,1.5-3.3,3.3-3.3h93.2c1.8,0,3.3,1.5,3.3,3.3
				C129.8,138.3,128.3,139.8,126.5,139.8z"/>
		</g>
		<g>
			<path fill="#00ADEF" d="M79.9,139.8c-1.8,0-3.3-1.5-3.3-3.3v-13.3c0-1.8,1.5-3.3,3.3-3.3c1.8,0,3.3,1.5,3.3,3.3v13.3
				C83.2,138.3,81.7,139.8,79.9,139.8z"/>
		</g>
		<path fill="#00ADEF" d="M3,95.4l3,26.7h147.5l3-26.7H3z M79.5,115c-3.7,0-6.7-3-6.7-6.7c0-3.7,3-6.7,6.7-6.7s6.7,3,6.7,6.7
			C86.1,112,83.2,115,79.5,115z"/>
	</g>
</g>
</svg>
