<?xml version="1.0" encoding="utf-8"?>
<!-- Generator: Adobe Illustrator 16.0.0, SVG Export Plug-In . SVG Version: 6.00 Build 0)  -->
<!DOCTYPE svg PUBLIC "-//W3C//DTD SVG 1.1//EN" "http://www.w3.org/Graphics/SVG/1.1/DTD/svg11.dtd">
<svg version="1.1" id="Layer_1" xmlns="http://www.w3.org/2000/svg" xmlns:xlink="http://www.w3.org/1999/xlink" viewBox="2 13.3 95.1 65.4" enable-background="new 2 13.3 95.1 65.4" xml:space="preserve">
<path fill="#CDCDCD" d="M13.9,71.9V61.9h-1.7l6.6-11l4.3,7.9h2.5V47.4l4.3-8l4.1,8.1v1.9h1.6l2.9-7l2.9,6.2h1.7v-8.6H42l2.8-6.5
	l2.4,5.8h1.5l4.1-4.1V22h-0.9l4.2-8.8l4.9,8.8h-1.3v13.5h1.3v8.9l2.8,4.2h0.8v-3.2h-1.1l2.5-6.3l2.4,6.2h-0.8v4l1.7,3h1l3.3-8
	l3.1,9.6h1.2l1.9-3.2l7.1,11.5h-3.4v9.8H59.8c0,0-0.1-12.6-9.9-12.6c-9.8,0-10.9,7.9-10.9,12.6H13.9L13.9,71.9z"/>
<polygon fill="#CDCDCD" points="42,31.2 44.8,30.3 44.8,32.2 "/>
<polygon fill="#CDCDCD" points="27.3,37.3 30,36.4 30,38.3 "/>
<polygon fill="#CDCDCD" points="16.1,48.8 18.8,47.9 18.8,49.8 "/>
<polygon fill="#CDCDCD" points="63,37 65.8,36.1 65.8,38 "/>
<polygon fill="#CDCDCD" points="70.8,42.6 73.5,41.6 73.5,43.6 "/>
<g>
	<path fill="#CDCDCD" d="M97.1,71.9h-1.5c0-25.4-20.7-46.1-46.1-46.1c-25.4,0-46.1,20.7-46.1,46.1H2c0-26.2,21.3-47.5,47.5-47.5
		S97.1,45.7,97.1,71.9z"/>
</g>
<path fill="#9A9A9A" d="M38.4,45.2c0.2,0,0.5,0,0.7,0c0.1,0,0.3,0.1,0.4,0.1c4.1,0.5,6.6,3.8,5.8,7.9c-0.1,0.3-0.1,0.6-0.1,1
	c2.9-1,5.7-0.9,8.6,0c-0.1-0.5-0.1-0.8-0.2-1.1c-0.6-3.4,1.1-6.5,4.3-7.5c0.4-0.1,0.8-0.3,1.3-0.4c0.7,0,1.4,0,2.1,0
	c0.1,0,0.3,0.1,0.4,0.1c3.8,0.8,6.3,3.1,7.5,6.7c1.6,5-2,9.4-7.2,8.9c-0.3,0-0.6-0.1-1-0.1c0.1,0.3,0.2,0.6,0.3,0.8
	c2.6,7-1.4,14.7-8.6,16.6c-0.7,0.2-1.4,0.3-2.1,0.5c-0.7,0-1.5,0-2.2,0c-0.2-0.1-0.4-0.1-0.6-0.2c-6.7-0.9-11.6-7.2-10.7-14
	c0.2-1.2,0.5-2.3,0.8-3.6c-0.4,0-0.8,0.1-1.1,0.1c-4,0.4-7.3-2.6-7.3-6.6c0-3.6,2.8-7.3,6.5-8.6C36.7,45.5,37.5,45.4,38.4,45.2z"/>
</svg>
