<?xml version="1.0" encoding="utf-8"?>
<!-- Generator: Adobe Illustrator 16.0.0, SVG Export Plug-In . SVG Version: 6.00 Build 0)  -->
<!DOCTYPE svg PUBLIC "-//W3C//DTD SVG 1.1//EN" "http://www.w3.org/Graphics/SVG/1.1/DTD/svg11.dtd">
<svg version="1.1" id="Camada_1" xmlns="http://www.w3.org/2000/svg" xmlns:xlink="http://www.w3.org/1999/xlink" viewBox="6.7 62.7 580.4 713.6" enable-background="new 6.7 62.7 580.4 713.6" xml:space="preserve">
<g>
	<g>
		<g>
			<path id="SVGID_1_" fill="#E8E9EC" d="M444.6,748.3c-2.7,8.5-13.6,32.9-125.6,27.2c-112-5.8-142.5-27.2-142.5-27.2l13.6-30.5
				v-10.2c0,0-29.5,1.4-30.5-3.4c-1-4.8,14.3-18.3,27.2-37.3c12.9-19,25.5-64.1,40.7-74.7c15.3-10.5,27.2-4.8,27.2,3.4
				c0,8.1,0,27.2,0,27.2l3.4,3.4c0,0,9.2-17.3,17-23.8s24.8-11.5,30.5-20.4c5.8-8.8,1-49.9-6.8-57.7c-7.8-7.8-60.7,17-135.8-6.8
				c-75-23.8-125.2-79.4-125.6-81.5c-0.3-2,3.1-10.2,3.4-13.6c0.3-3.4-35.6-28.5-33.9-33.9s17.3-16.6,44.1,0
				c26.8,16.6,31.9,29.5,37.3,30.5s74.7,5.1,91.6,0c17-5.1,30.5-15.3,30.5-23.8c0-8.5-19.3-37.7-13.6-74.7c5.8-37,17-44.1,17-44.1
				v-23.8c0,0-34.6-3.7-50.9-20.4c-16.3-16.6-24.1-42.4,0-57.7c24.1-15.3,98.4-33.9,98.4-33.9s69.2-77.4,112-78.1
				c42.8-0.7,64.5,33.9,64.5,33.9s44.8-0.3,81.5,23.8c36.7,24.1,67.9,57.7,67.9,57.7l-50.9-20.4c0,0,5.8,12.9,3.4,23.8
				c-2.4,10.9-10.2,27.2-10.2,27.2s-16.3-42.8-37.3-61.1c-21-18.3-54.3-27.2-54.3-27.2s5.8,25.8-3.4,44.1
				c-9.2,18.3-27.2,47.5-27.2,47.5l10.2,3.4l17-10.2l-10.2,17h17l10.2-3.4l-6.8,10.2v6.8l30.5,3.4l-17,6.8l-13.6,10.2
				c0,0,64.8,43.1,44.1,129c-20.7,85.9-73.3,92.3-84.8,115.4c-11.5,23.1-20.4,57.7-20.4,57.7s14.3,4.1,17,23.8
				c2.7,19.7-3.4,30.5-3.4,30.5S447.3,739.8,444.6,748.3L444.6,748.3z"/>
		</g>
	</g>
</g>
</svg>
