<?xml version="1.0" encoding="utf-8"?>
<!-- Generator: Adobe Illustrator 16.0.0, SVG Export Plug-In . SVG Version: 6.00 Build 0)  -->
<!DOCTYPE svg PUBLIC "-//W3C//DTD SVG 1.1//EN" "http://www.w3.org/Graphics/SVG/1.1/DTD/svg11.dtd">
<svg version="1.1" id="Camada_1" xmlns="http://www.w3.org/2000/svg" xmlns:xlink="http://www.w3.org/1999/xlink" viewBox="39.2 8.6 509.7 821.7" enable-background="new 39.2 8.6 509.7 821.7" xml:space="preserve">
<path fill="#E8E9EC" d="M508.5,656.3c-52.8-29.9-111.6,9.8-111.6,9.8l-16.4-9.8l23-46c0,0,41-10.5,46-19.7
	c5-9.2,15.1-88.6,6.6-124.7S403.6,397,403.6,397s23.3-3.6,36.1-16.4c12.8-12.8,13.1-32.8,13.1-32.8s34.1-13.8,36.1-42.7
	c0.9-15.7-4.3-32.8-26.3-32.8s-25.9,19.4-32.8,26.3s-13.1,3.3-13.1,3.3s12.5-48.9-3.3-95.2c-15.8-46.3-75.5-59.1-75.5-59.1
	S370.7,124,367.4,82c-2.3-30.2-28.9-59.4-52.5-68.9S227.6,4.2,223,65.6s52.5,82.1,52.5,82.1s-24,11.8-46,26.2S200,206.7,200,206.7
	s-11.1-44.9-32.8-65.6c-18.7-17.7-91.2-39.4-108.3,36.1c-17,75.5,44.7,112.3,78.8,114.9c34.1,2.6,52.5-26.3,52.5-26.3
	s4,57.1,26.3,85.3c22.3,28.2,65.6,39.4,65.6,39.4s-32.9,113.9-26.3,137.9c6.5,24,49.2,6.6,49.2,6.6l-55.8,121.4c0,0-7.2,2.3-23,6.6
	c-15.8,4.2-19.7,13.1-19.7,13.1h-49.2c0,0-20.7-11.5-32.8-32.8c-12.1-21.3-22-58.1-36.1-72.2c-14.1-14.1-49.2-16.4-49.2-16.4
	s24,7.9,39.4,19.7s22.6,31.5,32.8,59.1c10.2,27.6,32.8,42.7,32.8,42.7s-22.7-1.7-59.1,13.1c-66.3,26.9-39.4,141.4,85.3,141
	c93.6-0.3,131.3-59.1,131.3-59.1s65.6,25.7,98.5,26.3c32.9,0.6,115.9-14.5,134.6-46C553.5,720,561.3,686.2,508.5,656.3z
	 M334.6,653.1c-6.2,7.9-36.1,9.8-36.1,9.8s6.2-15.8,9.8-23c3.6-7.1,3.3-16.3,3.3-16.3H351C351,623.6,340.8,645.3,334.6,653.1z"/>
</svg>
