<?xml version="1.0" encoding="utf-8"?>
<!-- Generator: Adobe Illustrator 16.0.0, SVG Export Plug-In . SVG Version: 6.00 Build 0)  -->
<!DOCTYPE svg PUBLIC "-//W3C//DTD SVG 1.1//EN" "http://www.w3.org/Graphics/SVG/1.1/DTD/svg11.dtd">
<svg version="1.1" id="Camada_1" xmlns="http://www.w3.org/2000/svg" xmlns:xlink="http://www.w3.org/1999/xlink" viewBox="7.2 25.2 574.8 789.7" enable-background="new 7.2 25.2 574.8 789.7" xml:space="preserve">
<g>
	<g>
		<path id="SVGID_1_" fill="#E8E9EC" d="M178.8,178.3c0,0-13.3-15.4-7-35.1c6.3-19.6,10.5-23.8,21-24.5c10.5-0.7,14.7,4.9,14,24.5
			c-0.7,19.6,2.8,25.6,10.5,31.6s3.5,10.5,3.5,10.5s7.7,1.4,10.5,10.5c2.8,9.1,3.5,28,3.5,28s11.6,10.9,10.5,17.5
			c-1.1,6.7-14,24.5-14,24.5s5.6,3.2,10.5,7c1.1,0.7,7,17.5,7,17.5s-1.8-20.7,3.5-31.6c9.1-19.6,16.8-23.8,28-38.6
			c11.2-14.7,14.7-22.4,24.5-28c9.8-5.6,17.5,0,17.5,0s0-9.1,3.5-14c3.5-4.9,7-7,7-7s-2.1-7,3.5-14c5.6-7,15.1-11.2,17.5-17.5
			c2.5-6.3-3.5-11.9,0-17.5c3.5-5.6,10.5-14,10.5-14s-17.2-3.5-10.5-14c6.7-10.5,9.1-9.1,17.5-10.5c8.4-1.4,10.5,0,10.5,0
			s-2.1-3.5,0-10.5s3.5-10.5,3.5-10.5s-9.8-4.6-7-14c2.8-9.5,12.6-30.5,38.6-21c25.9,9.5,21,16.8,21,24.5s0,17.5,0,17.5
			s28.4,11.2,21,28c-7.4,16.8-42.1,14-42.1,14s15.1,11.6,10.5,21c-4.6,9.5-17.5,7-17.5,7s3.2,12.6,3.5,24.5c0.4,11.9-7,21-7,21
			s1.8,0,3.5,7c1.8,7,0,17.5,0,17.5s20.7-1.4,28,14c7.4,15.4-4.6,28.4-3.5,38.6c1.1,10.2,8.8,15.4,3.5,24.5
			c-5.3,9.1-10.5,28-10.5,28s15.1-24.2,28-35.1c13-10.9,12.3-21.7,24.5-28c12.3-6.3,16.8-5.6,24.5-14c7.7-8.4,12.6-37.2,28-42.1
			c15.4-4.9,27.3,24.9,17.5,38.6s-18.9,15.1-21,24.5c-2.1,9.5,0.3,13.7,7,24.5c6.7,10.9,38.9,67.3,42.1,80.6c3.2,13,3.5,21,3.5,21
			s-1.1,13-3.5,17.5c-2.5,4.6,0,13.7-7,14s-26.6-9.1-56.1-35.1c-29.4-25.9-37.2-34.4-42.1-38.6c-4.9-4.2-28,0-28,0s5.6,17.5,0,28
			c-5.6,10.5-31.6,24.5-31.6,24.5s-1.4,14.4-10.5,24.5s-17.5,17.5-17.5,17.5s5.6,8.4-3.5,10.5c-4.2,2.1-10.5-3.5-10.5-3.5
			s0.3,7.7-7,21c-7.4,13.3-17.5,28-17.5,28s55.7,37.2,84.1,63.1c28.4,25.9,64.9,49.1,59.6,77.1c-5.3,28-16.5,40.7-28,56.1
			c-11.6,15.4-27,31.6-38.6,35.1s-35.1,0-35.1,0v10.5c0,0,24.9,9.5,59.6,7c34.7-2.5,68.7-16.5,98.2-3.5c29.4,13,19.6,24.5,10.5,35.1
			s-53.3,33.7-108.7,28c-55.4-5.6-72.9-13.7-87.6-14c-14.7-0.4-67.3-1.8-66.6-21s12.3-23.8,21-31.6c8.8-7.7,9.1-10.2,17.5-10.5
			s17.5-7,17.5-7s14-16.5,21-31.6c7-15.1,15.8-21,14-31.6c-1.8-10.5-20-18.2-84.1-17.5c-64.2,0.7-95,16.8-98.2,35.1
			c-3.2,18.2,14,41,21,45.6c7,4.6,22.8,7.7,31.6,14c8.8,6.3,15.8,16.5,21,21s11.6,22.8-3.5,31.6c-15.1,8.8-41,15.1-73.6,17.5
			s-54.3,17.9-98.2,10.5s-75.4-22.1-84.1-31.6c-8.8-9.5-21-27,7-31.6c28-4.6,64.9,4.9,94.7,3.5s66.6-3.5,66.6-3.5v-10.5
			c0,0-17.2,2.8-24.5-3.5s-31.2-28-38.6-31.6c-7.4-3.5-33.7-35.8-31.6-52.6c2.1-16.8,24.2-56.8,66.6-105.2
			c42.4-48.4,59.6-66.6,59.6-66.6s1.4-11.6,3.5-14s10.5-7,10.5-7s-14-6.3-14-14s7-17.5,7-17.5s-16.1-13-17.5-21
			c-1.4-8.1,1.4-58.5-3.5-63.1c-4.9-4.6-10.9-25.9-10.5-31.6s10.5-21,10.5-21s8.1-7.7,3.5-10.5c-4.6-2.8-46.3,3.2-63.1,7
			s-45.9,9.8-56.1,10.5c-10.2,0.7-14-3.5-14-3.5s-15.4,7.4-21,0c-5.6-7.4,0-17.5,0-17.5s-9.1-7.7,7-21
			c16.1-13.3,49.4-35.8,73.6-45.6C157.4,200.1,178.8,178.3,178.8,178.3L178.8,178.3z"/>
	</g>
</g>
</svg>
