<?xml version="1.0" encoding="utf-8"?>
<!-- Generator: Adobe Illustrator 16.0.0, SVG Export Plug-In . SVG Version: 6.00 Build 0)  -->
<!DOCTYPE svg PUBLIC "-//W3C//DTD SVG 1.1//EN" "http://www.w3.org/Graphics/SVG/1.1/DTD/svg11.dtd">
<svg version="1.1" id="Camada_1" xmlns="http://www.w3.org/2000/svg" xmlns:xlink="http://www.w3.org/1999/xlink" x="0px" y="0px"
	 width="50px" height="50px" viewBox="10 0 50 50" enable-background="new 10 0 50 50" xml:space="preserve">
<g id="pakbjD.tif">
	<g>
		<path d="M10,26.5c0-1,0-2,0-2.9c0-0.2,0.1-0.3,0.1-0.5c0.2-1.1,0.2-2.2,0.5-3.2c1.3-6,4.4-11,9.3-14.7C26,0.5,33-1,40.6,0.7
			C46.3,1.9,51,5,54.6,9.5c2.6,3.3,4.3,7.1,5,11.2c0.2,0.9,0.3,1.9,0.4,2.8c0,1,0,2,0,2.9c0,0.1-0.1,0.3-0.1,0.4
			c-0.2,1.2-0.3,2.5-0.6,3.7c-1.3,5.7-4.3,10.3-8.8,14c-3.3,2.7-7.1,4.4-11.3,5.1c-0.9,0.2-1.9,0.3-2.8,0.4c-1,0-2,0-2.9,0
			c-0.1,0-0.3-0.1-0.4-0.1c-1.2-0.2-2.5-0.3-3.7-0.6C23.7,48,19,45,15.4,40.5c-2.6-3.3-4.3-7.1-5-11.2C10.2,28.3,10.1,27.4,10,26.5z
			 M42,22.1c0,0,0.1,0,0.2,0c1.9-0.2,3.8,0.1,5.5,0.9c0.4,0.2,0.6,0.1,0.8-0.1c2-1.9,2.9-4.2,2.6-7c-0.4-4.1-4-7.2-8.1-7.2
			c-3.7,0-7.1,2.7-7.9,6.3c-0.2,0.8-0.2,1.6-0.3,2.4c-1,0.2-1.9,0.4-2.9,0.6c-0.2-1.9,0.1-3.8,0.9-5.7c0.2-0.3,0.1-0.5-0.1-0.8
			c-2.1-2.2-4.6-3.1-7.6-2.6c-4.2,0.7-7.2,4.8-6.5,9c0.6,3.5,2.6,5.8,6,6.8c0.9,0.2,1.8,0.3,2.7,0.4c0.2,0.9,0.4,1.9,0.6,2.9
			c-0.1,0-0.1,0-0.2,0c-1.9,0.2-3.8-0.1-5.5-0.9c-0.4-0.2-0.6-0.1-0.9,0.2c-1.7,1.7-2.7,3.7-2.7,6.1c0,4.2,3.3,7.6,7.4,8
			c3.9,0.4,7.6-2.2,8.5-6c0.2-0.9,0.3-1.8,0.4-2.7c0.9-0.2,1.9-0.4,2.9-0.6c0,0,0,0,0,0.1c0,0.1,0,0.2,0,0.2c0.2,1.9-0.2,3.8-1,5.5
			c-0.1,0.2-0.1,0.4,0.1,0.7c2.1,2.2,4.6,3.2,7.6,2.7c3.6-0.6,6.3-3.4,6.7-7.3c0.3-2.9-1.3-6.5-4.7-8.1c-1.3-0.6-2.6-0.8-3.9-0.8
			C42.4,24,42.2,23.1,42,22.1z"/>
		<path d="M35.2,20.5c2.6,0.2,4.5,2.3,4.3,4.7c-0.2,2.6-2.3,4.5-4.8,4.3c-2.6-0.2-4.5-2.3-4.3-4.8C30.7,22.2,32.8,20.3,35.2,20.5z"
			/>
	</g>
</g>
</svg>
