<?xml version="1.0" encoding="utf-8"?>
<!-- Generator: Adobe Illustrator 16.0.0, SVG Export Plug-In . SVG Version: 6.00 Build 0)  -->
<!DOCTYPE svg PUBLIC "-//W3C//DTD SVG 1.1//EN" "http://www.w3.org/Graphics/SVG/1.1/DTD/svg11.dtd">
<svg version="1.1" id="Layer_1" xmlns="http://www.w3.org/2000/svg" xmlns:xlink="http://www.w3.org/1999/xlink" x="0px" y="0px"
	 width="74.9px" height="35.2px" viewBox="0 0 74.9 35.2" enable-background="new 0 0 74.9 35.2" xml:space="preserve">
<g>
	<g>
		<path fill="#0079A9" d="M75.5,26.9c0,1.9-1.2,2.8-3.3,2.8h-4.1v-1.9h4.1c0.4,0,0.7-0.1,0.8-0.2c0.1-0.1,0.3-0.3,0.3-0.6
			c0-0.3-0.1-0.5-0.3-0.6c-0.1-0.1-0.4-0.2-0.8-0.2c-1.9-0.1-4.4,0.1-4.4-2.7c0-1.3,0.8-2.6,3-2.6H75v1.9h-3.9c-0.4,0-0.7,0-0.8,0.1
			c-0.2,0.2-0.3,0.4-0.3,0.7c0,0.3,0.2,0.5,0.4,0.6c0.3,0.1,0.5,0.1,0.8,0.1h1.1c1.2,0,1.9,0.3,2.5,0.7C75.2,25.5,75.5,26,75.5,26.9
			 M66.6,25c-0.5-0.4-1.3-0.7-2.5-0.7H63c-0.3,0-0.6-0.1-0.8-0.1c-0.2-0.1-0.4-0.3-0.4-0.6c0-0.3,0.1-0.5,0.3-0.7
			c0.2-0.1,0.4-0.1,0.8-0.1h3.9v-1.9h-4.2c-2.3,0-3,1.4-3,2.6c0,2.8,2.5,2.7,4.4,2.7c0.4,0,0.6,0.1,0.8,0.2c0.1,0.1,0.3,0.4,0.3,0.6
			c0,0.2-0.1,0.4-0.3,0.6c-0.2,0.1-0.4,0.2-0.8,0.2h-4.1v1.9h4.1c2.1,0,3.3-0.9,3.3-2.8C67.2,26,67,25.5,66.6,25 M58.6,27.9h-5v-1.8
			h4.9v-1.8h-4.9v-1.6h5v-1.8h-7v8.8h7V27.9z M49.3,21.3c-0.7-0.4-1.5-0.4-2.6-0.4h-4.8v8.8H44v-3.2h2.3c0.8,0,1.2,0.1,1.5,0.4
			c0.4,0.4,0.4,1.2,0.4,1.8v1.1h2.1V28c0-0.8-0.1-1.2-0.3-1.6c-0.2-0.3-0.6-0.6-1.1-0.8c0.6-0.2,1.5-1,1.5-2.3
			C50.3,22.2,50,21.7,49.3,21.3 M37.3,20.9h-6.7l-2.7,2.9l-2.6-2.9h-8.5v8.8h8.4l2.7-2.9l2.6,2.9h4.1v-3h2.7c1.8,0,3.6-0.5,3.6-3
			C40.8,21.4,39,20.9,37.3,20.9 M47.6,24.5c-0.3,0.1-0.6,0.1-1,0.1L44,24.7v-2h2.6c0.4,0,0.8,0,1,0.2c0.3,0.1,0.4,0.4,0.4,0.8
			C48,24,47.8,24.3,47.6,24.5 M37.3,24.9h-2.8v-2.2h2.8c0.8,0,1.2,0.3,1.2,1.1S38.1,24.9,37.3,24.9 M29.2,25.3l3.2-3.5v7.1
			L29.2,25.3z M24.1,27.9h-5.2v-1.8h4.7v-1.8h-4.7v-1.6h5.3l2.3,2.6L24.1,27.9z M69.6,14.5h-3l-4-6.6v6.6h-4.3l-0.8-1.9h-4.4
			l-0.8,1.9h-2.5c-1,0-2.3-0.2-3.1-1c-0.7-0.8-1.1-1.8-1.1-3.4c0-1.3,0.2-2.5,1.1-3.5c0.6-0.7,1.8-1,3.2-1h2v1.9h-2
			c-0.8,0-1.2,0.1-1.6,0.5c-0.4,0.4-0.6,1.1-0.6,2c0,1,0.2,1.6,0.6,2.1c0.3,0.3,0.9,0.4,1.4,0.4h1l3-6.9H57l3.5,8.3V5.7h3.2l3.7,6.1
			V5.7h2.2L69.6,14.5L69.6,14.5z M44.7,5.7h-2.1v8.8h2.1V5.7z M40.2,6.1c-0.7-0.4-1.4-0.4-2.5-0.4h-4.8v8.8h2.1v-3.2h2.3
			c0.8,0,1.2,0.1,1.6,0.4c0.4,0.5,0.3,1.2,0.3,1.7v1.1h2.2v-1.7c0-0.8-0.1-1.1-0.4-1.6c-0.2-0.3-0.6-0.6-1-0.8
			c0.6-0.3,1.5-1,1.5-2.3C41.3,7.1,40.9,6.5,40.2,6.1 M31.4,12.7h-4.9v-1.8h4.9V9.1h-4.9V7.5h4.9V5.7h-7.1v8.8h7.1V12.7z M22.7,5.7
			h-3.4l-2.6,6l-2.8-6h-3.4V14L7,5.7H3.8l-3.8,8.8h2.3l0.8-1.9h4.4l0.8,1.9h4.3V7.6l3.1,6.9h1.8l3.1-6.9v6.9h2.1L22.7,5.7L22.7,5.7z
			 M56.8,10.7l-1.4-3.5l-1.4,3.5L56.8,10.7L56.8,10.7z M38.6,9.3c-0.3,0.2-0.6,0.2-1.1,0.2h-2.6V7.5h2.6c0.4,0,0.8,0,1.1,0.1
			C38.8,7.8,39,8.1,39,8.5C39,8.8,38.8,9.2,38.6,9.3 M3.9,10.7l1.5-3.5l1.4,3.5L3.9,10.7L3.9,10.7z M74.9,0H0v9.8l2.6-5.9H8l0.8,1.4
			V3.9h6.4l1.4,3.1L18,3.9h20.4c1,0,1.8,0.2,2.4,0.7V3.9h5.6v0.7c0.9-0.5,2.1-0.7,3.5-0.7h8.1l0.8,1.4V3.9h6l0.9,1.4V3.9h5.8v12.3
			h-5.9l-1.1-1.9v1.9h-7.3l-0.8-2h-1.8l-0.8,2h-3.8c-1.5,0-2.6-0.4-3.4-0.8v0.8h-9.1v-2.8c0-0.4-0.1-0.5-0.3-0.5h-0.3v3.3H19.1v-1.6
			l-0.6,1.6h-3.7l-0.6-1.5v1.5H7l-0.8-2H4.5l-0.8,2H0v19h74.9v-4.3c-0.8,0.4-1.9,0.6-3.1,0.6h-5.5v-0.8c-0.6,0.5-1.8,0.8-2.8,0.8
			H46.4v-2.8c0-0.4-0.1-0.4-0.4-0.4h-0.3v3.2H40v-3.4c-1,0.5-2,0.5-3,0.5h-0.6v2.9h-6.9l-1.6-1.9l-1.8,1.9H15V19.1h11.3l1.6,1.9
			l1.8-1.9h7.6c0.9,0,2.3,0.1,3,0.8v-0.8H47c0.7,0,2,0.1,2.9,0.8v-0.8h10.2v0.8c0.6-0.5,1.6-0.8,2.6-0.8h5.7v0.8
			c0.6-0.4,1.5-0.8,2.7-0.8h3.9L74.9,0L74.9,0z"/>
	</g>
	<path fill="#F2F2F2" d="M2,34.5H1.7c0-0.1,0-0.3,0-0.4c0-0.1,0-0.2-0.2-0.2H1.1v0.6H1v-1.3h0.6c0.2,0,0.4,0.1,0.4,0.3
		c0,0.2-0.1,0.3-0.1,0.3c0.1,0.1,0.1,0.1,0.1,0.3v0.2c0,0.1,0,0.1,0.1,0.1V34.5z M1.7,33.5c0-0.2-0.1-0.2-0.2-0.2H1.1v0.4h0.4
		C1.6,33.7,1.7,33.6,1.7,33.5 M2.8,33.8c0-0.8-0.6-1.4-1.4-1.4C0.6,32.4,0,33,0,33.8c0,0.8,0.6,1.4,1.4,1.4
		C2.2,35.2,2.8,34.6,2.8,33.8 M2.6,33.8c0,0.7-0.6,1.2-1.2,1.2s-1.2-0.5-1.2-1.2c0-0.6,0.5-1.2,1.2-1.2C2.1,32.6,2.6,33.2,2.6,33.8"
		/>
</g>
</svg>
