<?xml version="1.0" encoding="utf-8"?>
<!-- Generator: Adobe Illustrator 16.0.0, SVG Export Plug-In . SVG Version: 6.00 Build 0)  -->
<!DOCTYPE svg PUBLIC "-//W3C//DTD SVG 1.1//EN" "http://www.w3.org/Graphics/SVG/1.1/DTD/svg11.dtd">
<svg version="1.1" id="Layer_1" xmlns="http://www.w3.org/2000/svg" xmlns:xlink="http://www.w3.org/1999/xlink" x="0px" y="0px"
	 width="56.1px" height="42px" viewBox="0 0 56.1 42" enable-background="new 0 0 56.1 42" xml:space="preserve">
<rect y="9" fill="#FFFFFF" width="56" height="25"/>
<g>
	<path fill="#0079A9" d="M56.1,28.2c0,1.4-0.9,2.1-2.5,2.1h-3v-1.4h3c0.3,0,0.5,0,0.6-0.1c0.1-0.1,0.2-0.2,0.2-0.4
		c0-0.2-0.1-0.4-0.2-0.5c-0.1-0.1-0.3-0.1-0.6-0.1c-1.4-0.1-3.3,0-3.3-2c0-0.9,0.6-2,2.2-2h3.1v1.4h-2.9c-0.3,0-0.5,0-0.6,0.1
		c-0.1,0.1-0.2,0.3-0.2,0.5c0,0.2,0.1,0.4,0.3,0.5c0.2,0,0.4,0.1,0.6,0.1h0.9c0.9,0,1.4,0.2,1.8,0.5C55.9,27.1,56.1,27.5,56.1,28.2
		 M49.5,26.8c-0.4-0.3-1-0.5-1.8-0.5h-0.9c-0.2,0-0.4,0-0.6-0.1c-0.2-0.1-0.3-0.2-0.3-0.5c0-0.2,0.1-0.4,0.2-0.5
		c0.1-0.1,0.3-0.1,0.6-0.1h2.9v-1.4h-3.1c-1.7,0-2.2,1-2.2,2c0,2.1,1.8,2,3.3,2c0.3,0,0.5,0,0.6,0.1c0.1,0.1,0.2,0.3,0.2,0.5
		c0,0.2-0.1,0.3-0.2,0.4c-0.1,0.1-0.3,0.1-0.6,0.1h-3v1.4h3c1.6,0,2.5-0.7,2.5-2.1C50,27.5,49.8,27.1,49.5,26.8 M43.5,28.9h-3.7
		v-1.3h3.6v-1.3h-3.6V25h3.7v-1.4h-5.2v6.5h5.2V28.9z M36.6,24c-0.5-0.3-1.1-0.3-1.9-0.3h-3.6v6.5h1.6v-2.4h1.7c0.6,0,0.9,0,1.1,0.3
		c0.3,0.3,0.3,0.9,0.3,1.3v0.8h1.6V29c0-0.6,0-0.9-0.2-1.2c-0.1-0.2-0.4-0.4-0.8-0.6c0.4-0.1,1.1-0.7,1.1-1.7
		C37.4,24.7,37.1,24.3,36.6,24 M27.7,23.7h-5l-2,2.1l-1.9-2.1h-6.3v6.5h6.2l2-2.1l1.9,2.1h3V28h2c1.3,0,2.7-0.4,2.7-2.2
		C30.3,24,28.9,23.7,27.7,23.7 M35.3,26.4c-0.2,0.1-0.5,0.1-0.8,0.1l-1.9,0.1V25h1.9c0.3,0,0.6,0,0.8,0.1c0.2,0.1,0.3,0.3,0.3,0.6
		C35.6,26,35.5,26.2,35.3,26.4 M27.7,26.7h-2.1V25h2.1c0.6,0,0.9,0.2,0.9,0.8S28.3,26.7,27.7,26.7 M21.7,27l2.4-2.6v5.3L21.7,27z
		 M17.9,28.9H14v-1.3h3.5v-1.3H14V25H18l1.7,1.9L17.9,28.9z M51.7,18.9h-2.2L46.5,14v4.9h-3.2l-0.6-1.4h-3.3l-0.6,1.4h-1.8
		c-0.8,0-1.7-0.2-2.3-0.7c-0.5-0.6-0.8-1.3-0.8-2.5c0-1,0.1-1.9,0.9-2.6c0.5-0.5,1.3-0.8,2.4-0.8h1.5v1.4h-1.5
		c-0.6,0-0.9,0.1-1.2,0.4c-0.3,0.3-0.4,0.8-0.4,1.5c0,0.7,0.1,1.2,0.4,1.6c0.2,0.2,0.7,0.3,1.1,0.3h0.7l2.2-5.2h2.3l2.6,6.2v-6.2
		h2.4l2.8,4.5v-4.5h1.6V18.9L51.7,18.9z M33.2,12.4h-1.6v6.5h1.6V12.4z M29.9,12.7c-0.5-0.3-1.1-0.3-1.9-0.3h-3.6v6.5H26v-2.4h1.7
		c0.6,0,0.9,0,1.2,0.3c0.3,0.3,0.2,0.9,0.2,1.3v0.8h1.6v-1.3c0-0.6,0-0.9-0.3-1.2c-0.1-0.2-0.4-0.4-0.8-0.6c0.4-0.2,1.1-0.7,1.1-1.7
		C30.7,13.4,30.4,13,29.9,12.7 M23.3,17.6h-3.7v-1.3h3.6v-1.3h-3.6v-1.2h3.7v-1.4h-5.2v6.5h5.2V17.6z M16.9,12.4h-2.6l-1.9,4.4
		l-2-4.4H7.8v6.2l-2.7-6.2H2.9L0,18.9h1.7l0.6-1.4h3.3l0.6,1.4h3.2v-5.1l2.3,5.1H13l2.3-5.1v5.1h1.6L16.9,12.4L16.9,12.4z
		 M42.2,16.1l-1.1-2.6l-1.1,2.6H42.2z M28.7,15.1c-0.2,0.1-0.5,0.1-0.8,0.1H26v-1.4h1.9c0.3,0,0.6,0,0.8,0.1
		c0.2,0.1,0.3,0.3,0.3,0.6C28.9,14.7,28.8,15,28.7,15.1 M2.9,16.1L4,13.5L5,16.1H2.9z M56,0H0v15.5l1.9-4.3H6l0.6,1.1v-1.1h4.8
		l1.1,2.3l1-2.3h15.2c0.7,0,1.3,0.1,1.8,0.5v-0.5h4.2v0.5c0.7-0.4,1.6-0.5,2.6-0.5h6l0.6,1.1v-1.1h4.4l0.7,1.1v-1.1h4.3v9.2h-4.4
		l-0.9-1.4v1.4h-5.5l-0.6-1.5h-1.3l-0.6,1.5H37c-1.1,0-1.9-0.3-2.5-0.6v0.6h-6.8v-2.1c0-0.3,0-0.3-0.2-0.3h-0.2v2.4H14.2v-1.2
		l-0.5,1.2H11l-0.5-1.1v1.1H5.2l-0.6-1.5H3.3l-0.6,1.5H0V42h56V31.1c-0.6,0.3-1.8,0.4-2.6,0.4h-4.1V31c-0.5,0.4-1.3,0.6-2.1,0.6
		H34.5v-2.1c0-0.3-0.1-0.3-0.3-0.3h-0.2v2.4h-4.2v-2.5c-0.7,0.3-1.5,0.3-2.2,0.3h-0.5v2.1h-5.1l-1.2-1.4l-1.3,1.4h-8.3v-9.2h8.4
		l1.2,1.4l1.3-1.4h5.7c0.7,0,1.7,0.1,2.2,0.6v-0.6h5c0.5,0,1.5,0.1,2.1,0.6v-0.6h7.6v0.6c0.4-0.4,1.2-0.6,1.9-0.6h4.2v0.6
		c0.5-0.3,1.1-0.6,2-0.6H56V0z"/>
</g>
</svg>
