<?xml version="1.0" encoding="utf-8"?>
<!-- Generator: Adobe Illustrator 16.0.0, SVG Export Plug-In . SVG Version: 6.00 Build 0)  -->
<!DOCTYPE svg PUBLIC "-//W3C//DTD SVG 1.1//EN" "http://www.w3.org/Graphics/SVG/1.1/DTD/svg11.dtd">
<svg version="1.1" id="Camada_1" xmlns="http://www.w3.org/2000/svg" xmlns:xlink="http://www.w3.org/1999/xlink" x="0px" y="0px"
	 width="49.7px" height="50px" viewBox="10.1 0 49.7 50" enable-background="new 10.1 0 49.7 50" xml:space="preserve">
<g id="FXVA9Y.tif">
	<g>
		<path d="M40.1,0c0.1,0.3,0.1,0.6,0.2,0.8c6.4,16,12.8,32.1,19.2,48.1c0.1,0.3,0.2,0.6,0.4,1c-0.3,0-0.6,0.1-0.8,0.1c-3,0-6,0-9,0
			c-0.7,0-1-0.2-1.2-0.9c-1.2-3.2-2.5-6.4-3.7-9.7c-0.2-0.6-0.5-0.8-1.2-0.8c-6.1,0-12.3,0-18.4,0c-0.7,0-1,0.2-1.2,0.9
			c-1.1,3.2-2.3,6.4-3.5,9.6c-0.2,0.6-0.5,0.8-1.2,0.8c-2.9,0-5.8,0-8.6,0c-0.3,0-0.6,0-1,0c0.8-2,1.5-3.9,2.3-5.8
			C18,29.7,23.6,15.3,29.2,0.9c0.1-0.3,0.2-0.6,0.3-0.9C33,0,36.6,0,40.1,0z M41.7,30.3C39.3,24,37,17.9,34.7,11.7
			c-0.1,0-0.2,0-0.2,0c-2.2,6.2-4.5,12.3-6.8,18.6C32.4,30.3,36.9,30.3,41.7,30.3z"/>
	</g>
</g>
</svg>
