<?xml version="1.0" encoding="utf-8"?>
<!-- Generator: Adobe Illustrator 18.1.1, SVG Export Plug-In . SVG Version: 6.00 Build 0)  -->
<!DOCTYPE svg PUBLIC "-//W3C//DTD SVG 1.0//EN" "http://www.w3.org/TR/2001/REC-SVG-20010904/DTD/svg10.dtd">
<svg version="1.0" id="Camada_1" xmlns="http://www.w3.org/2000/svg" xmlns:xlink="http://www.w3.org/1999/xlink" x="0px" y="0px"
	 viewBox="0 0 393.434 507.223" enable-background="new 0 0 393.434 507.223" xml:space="preserve">
<g id="hTwAJD.tif">
	<g>
		<path d="M275.742,231.73c1.593,0,34.861-0.35,49.641,0.563c22.808,1.409,42.911,8.964,56.38,28.916
			c8.189,12.131,10.449,25.977,11.488,40.209c1.622,22.21-7.76,40.847-19.318,58.548c-17.142,26.253-39.557,46.694-68.975,58.468
			c-9.325,3.732-19.231,6.012-29.742,9.223c0,0.895,0,2.668,0,4.441c0,17.498,0.008,34.995-0.003,52.493
			c-0.009,14.592-7.916,22.574-22.519,22.578c-72.157,0.023-226.805,0.116-231.968-0.014c-12.662-0.321-20.672-8.16-20.68-20.695
			C-0.016,388.64-0.015,290.82,0.047,193c0.007-11.767,6.608-18.816,18.324-20.24c1.483-0.18,157.445-0.286,233.926-0.251
			c15.37,0.007,22.904,7.7,22.919,23.093c0.012,11.498,0.033,22.996,0.065,34.494C275.283,230.414,275.454,230.732,275.742,231.73z
			 M275.418,271.372c0,38.332,0,76.762,0,115.662c2.035-0.55,3.785-0.964,5.498-1.495c33.011-10.225,54.579-32.97,69.363-63.231
			c4.124-8.441,4.77-17.166,3.219-26.226c-2.622-15.32-8.359-22.271-23.683-23.681c-17.673-1.626-35.54-1.152-53.324-1.567
			C276.202,270.827,275.905,271.118,275.418,271.372z"/>
		<path d="M123.994,152.117c-15.204,0-30.125,0-46.256,0c0.939-9.236,1.424-18.461,2.89-27.526
			c3.425-21.182,15.624-36.012,34.104-46.412c11.408-6.42,22.997-12.828,33.334-20.768c16.856-12.946,25.544-31.455,31.122-51.543
			c0.425-1.531,0.882-3.053,1.698-5.868c2.46,21.479,2.014,41.308-7.977,59.473c-3.941,7.167-9.644,13.467-15.101,19.673
			c-7.455,8.479-16.047,16.01-23.047,24.824c-8.699,10.954-11.066,24.248-10.778,38.039
			C124.052,145.293,123.994,148.579,123.994,152.117z"/>
		<path d="M197.869,152.102c-13.343,0-26.739,0-40.359,0c0.088-16.079,3.72-30.452,15.822-41.648
			c2.932-2.712,5.643-5.676,8.688-8.249c12.391-10.467,18.693-23.842,19.486-39.942c0.057-1.16,0.262-2.314,0.436-3.465
			c0.048-0.315,0.231-0.61,0.727-1.857c6.142,15.4,11.35,29.98,3.879,45.75c-1.065,2.247-2.078,4.546-3.404,6.638
			c-7.967,12.567-9.46,25.952-5.307,40.105c0.139,0.475,0.253,0.969,0.287,1.461C198.149,151.206,198,151.53,197.869,152.102z"/>
	</g>
</g>
</svg>
