<?xml version="1.0" encoding="utf-8"?>
<!-- Generator: Adobe Illustrator 16.0.0, SVG Export Plug-In . SVG Version: 6.00 Build 0)  -->
<!DOCTYPE svg PUBLIC "-//W3C//DTD SVG 1.1//EN" "http://www.w3.org/Graphics/SVG/1.1/DTD/svg11.dtd">
<svg version="1.1" id="Layer_1" xmlns="http://www.w3.org/2000/svg" xmlns:xlink="http://www.w3.org/1999/xlink" x="0px" y="0px"
	 width="12.9px" height="9.4px" viewBox="0 0 12.9 9.4" enable-background="new 0 0 12.9 9.4" xml:space="preserve">
<g id="QHjUvx.tif">
	<g>
		<path d="M12.9,2.3c0,2,0,3.9,0,5.9c0,0,0,0.1,0,0.1c0,0.5-0.3,0.8-0.8,1c-0.1,0-0.3,0.1-0.4,0.1c-3.5,0-7,0-10.5,0
			c0,0-0.1,0-0.1,0C0.4,9.2,0,8.9,0,8.1c0-1.9,0-3.8,0-5.8C0,2,0.1,1.7,0.3,1.5c0.2-0.2,0.5-0.3,0.9-0.3c0.7,0,1.4,0,2.1,0
			c0.1,0,0.1,0,0.2-0.1c0.1-0.3,0.3-0.5,0.5-0.8C4,0.1,4.2,0,4.4,0c1.3,0,2.6,0,4,0c0.2,0,0.4,0.1,0.6,0.3c0.1,0.3,0.3,0.5,0.4,0.8
			c0,0.1,0.1,0.1,0.2,0.1c0.6,0,1.3,0,1.9,0c0.1,0,0.2,0,0.4,0c0.4,0.1,0.8,0.3,0.9,0.7C12.8,2.1,12.8,2.2,12.9,2.3z M9.1,5
			c0-1.5-1.2-2.6-2.6-2.6C5,2.3,3.8,3.5,3.8,5c0,1.5,1.2,2.6,2.6,2.6S9.1,6.4,9.1,5z M9.9,3.5c0.3,0,0.6-0.2,0.6-0.6
			c0-0.3-0.2-0.6-0.6-0.6c-0.3,0-0.6,0.2-0.6,0.6C9.3,3.2,9.6,3.5,9.9,3.5z"/>
		<path d="M8.5,5c0,1.1-0.9,2-2.1,2c-1.1,0-2-0.9-2-2c0-1.1,0.9-2,2.1-2C7.6,2.9,8.5,3.9,8.5,5z"/>
		<path d="M2.8,0.3H1.9c-0.1,0-0.1,0-0.1,0.1v0.3c0,0.1,0,0.1,0.1,0.1h0.9c0.1,0,0.1,0,0.1-0.1V0.4C2.9,0.3,2.9,0.3,2.8,0.3z"/>
	</g>
</g>
</svg>
