<?xml version="1.0" encoding="utf-8"?>
<!-- Generator: Adobe Illustrator 16.0.0, SVG Export Plug-In . SVG Version: 6.00 Build 0)  -->
<!DOCTYPE svg PUBLIC "-//W3C//DTD SVG 1.1//EN" "http://www.w3.org/Graphics/SVG/1.1/DTD/svg11.dtd">
<svg version="1.1" id="Camada_1" xmlns="http://www.w3.org/2000/svg" xmlns:xlink="http://www.w3.org/1999/xlink" x="0px" y="0px"
	 width="62.4px" height="50px" viewBox="3.8 0 62.4 50" enable-background="new 3.8 0 62.4 50" xml:space="preserve">
<g>
	<g>
		<path d="M31.9,0C34,0,36,0,38.1,0c5.7,0.6,11.3-0.1,14.4,2.8c1.4,1.4,2.7,3.9,3.6,5.8c1,2.1,1.8,4.6,2.3,7.1
			c1.2-0.6,0.3-2.3,1.6-3.1c1.3-0.8,6.3-0.4,6.2,1.3c0,1.1,0,2.2,0,3.2c-0.3,2.4-4,1.5-6.6,1.7c2,2.1,4.2,5.4,4.5,9.7
			c0.2,2.6-0.1,5.7-0.5,8.3c-0.4,2.5-1.1,4.9-2.1,6.6c-0.5,0.3-1,0.4-1.6,0.6c0,2.5,0.5,5.6-1.8,5.8c-1.6,0-3.3,0-4.9,0
			c-2-0.2-1.9-2.5-1.8-4.8C41,46,29.2,46,18.7,45.2c-0.2,2,0.2,4.6-1.9,4.8c-1.6,0-3.3,0-4.9,0c-2.3-0.2-1.8-3.2-1.8-5.7
			c-0.3-0.4-1.1-0.4-1.6-0.8C6.6,39.9,5.5,34,5.9,28.8c0.3-4.4,2.4-7.7,4.7-9.8c-2.6-0.2-6.4,0.8-6.7-1.7c0-1,0-2.1,0-3.1
			c0.2-0.6,0.5-1.3,1.4-1.6c1-0.3,3.9-0.5,4.8,0.1c1.2,0.8,0.4,2.5,1.6,3.1c0.5-2.6,1.4-5.1,2.5-7.4c1-2.1,2.2-4.6,4-6
			C21.2,0,26.4,0.5,31.9,0z M19.7,6c-2,3.4-3.7,7.1-4.7,11.5c12.3-1.2,27.8-1.4,39.9,0.1C54.1,13,52.3,9.4,50.3,6
			C41.8,3.8,28.2,3.8,19.7,6z M10.4,26.3c-0.4,0.9-0.3,3.6,0.4,4.3c0.8,0.8,3.9,0.5,5.8,0.5c2,0,5.1,0.5,5.7-0.6
			c1.1-2.1-1.9-5-3.6-5.3c-1.6-0.3-6-0.2-7,0.1C11.3,25.4,10.6,25.6,10.4,26.3z M47.7,30.4c0.6,1.1,3.4,0.6,5.2,0.6
			c1.7,0,4.7,0.3,5.7-0.1c1.4-0.6,2-4.9,0-5.7c-0.9-0.4-5.9-0.3-7.3,0C49.5,25.6,46.6,28.3,47.7,30.4z M24.8,36.3
			c0.2,1.3,2.5,1,4.5,1c4.6,0,6.9,0,11.4,0c2,0,4.4,0.3,4.5-1.2c0.1-0.9-1-2.2-2.5-2.6c-2-0.6-5.1-0.1-7.4-0.1c-2.7,0-6-0.2-7.6,0.1
			C26.7,33.7,24.5,34.7,24.8,36.3z"/>
	</g>
</g>
</svg>
