<?xml version="1.0" encoding="utf-8"?>
<!-- Generator: Adobe Illustrator 16.0.0, SVG Export Plug-In . SVG Version: 6.00 Build 0)  -->
<!DOCTYPE svg PUBLIC "-//W3C//DTD SVG 1.1//EN" "http://www.w3.org/Graphics/SVG/1.1/DTD/svg11.dtd">
<svg version="1.1" id="Camada_1" xmlns="http://www.w3.org/2000/svg" xmlns:xlink="http://www.w3.org/1999/xlink" x="0px" y="0px"
	 width="50px" height="50px" viewBox="10 0 50 50" enable-background="new 10 0 50 50" xml:space="preserve">
<g display="none">
	<path display="inline" d="M35,50c-13.8,0-25-11.2-25-25C10,11.2,21.2,0,35,0c13.8,0,25,11.2,25,25
		C60,38.8,48.8,50,35,50z M35,2.7c-12.3,0-22.3,10-22.3,22.3c0,12.3,10,22.3,22.3,22.3c12.3,0,22.3-10,22.3-22.3
		C57.3,12.7,47.3,2.7,35,2.7z"/>
	<path display="inline" d="M35.1,40.5c-0.1,0-0.2,0-0.3,0c-9-0.3-14.9-12.1-15.2-12.6l2.4-1.2
		c0.1,0.1,5.5,10.9,12.8,11.2c4.4,0.1,8.9-3.6,13.1-11.2l2.3,1.3C45.6,36.2,40.5,40.5,35.1,40.5z"/>
	<g display="inline">
		<rect x="27.6" y="15.2" width="2.9" height="6.7"/>
		<rect x="39.5" y="15.2" width="2.9" height="6.7"/>
	</g>
</g>
<circle stroke-width="2.5" stroke-linecap="round" stroke-linejoin="round" stroke-miterlimit="10" cx="35" cy="25" r="23.5"/>
<line fill="none" stroke-width="2.5" stroke-miterlimit="10" x1="29.4" y1="15.2" x2="29.4" y2="21.9"/>
<line fill="none" stroke-width="2.5" stroke-miterlimit="10" x1="40.9" y1="15.2" x2="40.9" y2="21.9"/>
<path fill="none" stroke-width="2.5" stroke-miterlimit="10" d="M20.9,27.2c0,0,13.2,26.6,28.2,0"/>
</svg>
