<?xml version="1.0" encoding="utf-8"?>
<!-- Generator: Adobe Illustrator 16.0.0, SVG Export Plug-In . SVG Version: 6.00 Build 0)  -->
<!DOCTYPE svg PUBLIC "-//W3C//DTD SVG 1.1//EN" "http://www.w3.org/Graphics/SVG/1.1/DTD/svg11.dtd">
<svg version="1.1" id="Camada_1" xmlns="http://www.w3.org/2000/svg" xmlns:xlink="http://www.w3.org/1999/xlink" x="0px" y="0px"
	 width="34.1px" height="50px" viewBox="18 0 34.1 50" enable-background="new 18 0 34.1 50" xml:space="preserve">
<g id="n6UkPd.tif">
	<g>
		<path d="M49.7,34.7c0,0.2,0,0.3,0,0.5c0,4.5,0,9,0,13.5c0,1-0.3,1.3-1.3,1.3c-8.9,0-17.8,0-26.7,0c-1,0-1.3-0.3-1.3-1.3
			c0-4.5,0-8.9,0-13.4c0-0.2,0-0.4,0-0.7c-0.4,0-0.9,0-1.3,0c-0.8,0-1.1-0.3-1.1-1.1c0-0.4,0-0.8,0-1.3c0-0.8,0.3-1.2,1.2-1.2
			c2.2,0,4.4,0,6.5,0c8.3,0,16.7,0,25,0c1.1,0,1.4,0.3,1.4,1.4c0,0.4,0,0.8,0,1.2c0,0.6-0.4,1-1,1c-0.4,0-0.8,0-1.2,0
			C49.8,34.6,49.8,34.6,49.7,34.7z M35,48.7c4,0,7.2-3.2,7.2-7.2c0-3.9-3.2-7.1-7-7.2c-3.8-0.1-7.4,3-7.4,7.3
			C27.8,45.5,31,48.7,35,48.7z"/>
		<path d="M42.7,8c-0.1,0.8-0.2,1.8-0.2,2.9c0,0.2,0,0.5,0,0.7c0.3,1.2-0.3,2.5-1.4,3c-0.2,0.1-0.3,0.3-0.4,0.5
			c-0.4,1.5-1.1,2.8-2.2,3.9c-2.4,2.2-6.1,1.8-8-1c-0.6-0.9-0.9-1.9-1.4-2.9c-0.1-0.2-0.2-0.4-0.4-0.5c-1.1-0.5-1.8-1.8-1.4-2.9
			c0.3-0.8,0.1-1.6,0.1-2.4c-0.2-2.1,0-4.2,1.1-6.1c1-1.8,2.7-2.7,4.7-3c1.2-0.2,2.5-0.2,3.7,0.1c0.9,0.2,1.6,0.6,2.3,1.3
			c0.1,0.1,0.3,0.3,0.5,0.3C41,2,41.6,2.7,42,3.7C42.6,5,42.6,6.3,42.7,8z"/>
		<path d="M36.6,24.5c0.3,0.8,0.6,1.6,1,2.4c0.8-0.9,1.5-1.8,2.2-2.7c0.6-0.7,1.2-1.5,1.8-2.2c0.1-0.1,0.3-0.2,0.4-0.2
			c1.8,0.5,3.5,1.1,5,2.2c0.8,0.6,1.2,1.3,1.2,2.3c-0.1,1.2,0,2.5,0,3.7c-8.7,0-17.4,0-26.2,0c0-0.7,0-1.4,0-2.2c0-0.6,0-1.1,0-1.7
			c-0.1-0.9,0.3-1.5,0.9-2c1.5-1.2,3.4-1.8,5.2-2.4c0.1,0,0.3,0.1,0.4,0.2c1.3,1.6,2.6,3.1,3.8,4.7c0,0,0.1,0.1,0.2,0.2
			c0.3-0.8,0.6-1.6,1-2.4c-0.6-0.5-1-1.5-0.6-2.2c0.1-0.3,0.5-0.5,0.8-0.5c0.9-0.1,1.9,0,2.8,0c0.5,0,0.8,0.3,0.9,0.9
			c0,0.2,0,0.4,0,0.6C37.3,23.7,37.2,24.2,36.6,24.5z"/>
		<path d="M34,42.3c-0.4,0-0.7,0-1,0c-0.5,0-0.7-0.2-0.7-0.7c-0.1-1.3,0-1.4,1.3-1.4c0.6,0,1.1,0,1.7,0c0.6,0,0.9,0.2,0.9,0.8
			c0,1.9,0,3.9,0,5.8c0,0.5-0.2,0.7-0.7,0.7c-1.8,0-1.5,0.2-1.5-1.5c0-1.1,0-2.1,0-3.2C34,42.7,34,42.5,34,42.3z"/>
		<path d="M34.8,39.1c-0.2,0-0.5,0-0.7-0.1c-0.7-0.2-0.6-0.6-0.6-1.8c0-0.5,0.3-0.7,0.9-0.7c0.3,0,0.6,0,1,0c0.1,0,0.3,0,0.4,0.1
			c0.4,0.2,0.6,0.9,0.4,1.7c-0.1,0.5-0.5,0.7-0.9,0.7C35.1,39.1,34.9,39.1,34.8,39.1C34.8,39.1,34.8,39.1,34.8,39.1z"/>
	</g>
</g>
</svg>
