<?xml version="1.0" encoding="utf-8"?>
<!-- Generator: Adobe Illustrator 16.0.0, SVG Export Plug-In . SVG Version: 6.00 Build 0)  -->
<!DOCTYPE svg PUBLIC "-//W3C//DTD SVG 1.1//EN" "http://www.w3.org/Graphics/SVG/1.1/DTD/svg11.dtd">
<svg version="1.1" id="Layer_1" xmlns="http://www.w3.org/2000/svg" xmlns:xlink="http://www.w3.org/1999/xlink" x="0px" y="0px"
	 width="84.5px" height="86.2px" viewBox="7.9 10.2 84.5 86.2" enable-background="new 7.9 10.2 84.5 86.2" xml:space="preserve">
<g>
	<path d="M92.4,38.6c-0.1-1.2-0.5-2.4-0.9-3.6c-0.3-1-0.8-1.5-1.8-1.3c-1.6,0.3-2.7-0.6-3.8-1.4c-0.9-0.7-1.7-1.6-2.6-2.3
		c-1.1-0.8-2.2-1.8-3.7-1.5c-1.7,0.3-3.3,0-4.9-0.7c-0.4-0.2-0.8-0.6-1.4-0.1c-0.8,0.5-1.7,0.8-2.6,1.2c0.1-0.2,0-0.7,0.2-0.9
		c0.5-0.6,0.3-1,0-1.5c-0.5-0.9-1.2-1.2-1.6-0.7c-0.4-0.3-0.7-0.6-1.1-0.8c-0.6-0.3-1.3-0.4-1.8-0.8c-0.9-0.6-1.8-0.8-2.8-0.6
		c-0.3,0.1-0.7,0-0.8,0.6c-0.1,0.5-0.4,1.2-0.8,1.3c-1.1,0.4-1.7,1.1-2,2.2c0,0.1-0.1,0.3-0.2,0.4c0-0.5,0.2-0.9,0.3-1.3
		c0-0.2-0.1-0.5-0.2-0.5c-0.7,0.1-1.3,0.2-2.2,0.3C57.2,26,57.2,25,57.1,24c-2.6,1.7-2.6,1.7-3.7,1.4c0.2-0.1,0.3-0.2,0.5-0.2
		c0.9-0.1,1.2-0.7,1.4-1.4c0.2-0.6,0.6-1.2,1-1.6c0.8-0.9,1.7-1.7,2.6-2.6c0.6-0.6,0.4-1.5-0.5-1.8c-0.3-0.1-0.6-0.3-0.7-0.6
		c-0.4-0.9-0.7-1.8-1.1-2.7c-2.1,0.5-4.1,1-6.2,1.5c-0.2,0.1-0.4,0.4-0.5,0.5c-0.9,0.1-1.9,0.3-2.8,0.4c0.3,0.5,0.4,0.8,0.6,1.2
		c-1-0.1-1.8-0.2-2.6-0.3c-0.2,0-0.5,0-0.7,0.1c-1,0.5-1.9,1.1-2.8,1.5c-0.6,0.3-1-0.2-1.4-0.5c-0.8-0.4-0.8-1.3-1.2-2
		c-0.6-1.1-0.2-2.1,0.2-3c0.5-1.1,0.4-1.7-0.7-2.2c0.4-1.5,0.2-1.6-1.2-1.4c-0.1,0.3,0,0.7-0.2,0.8c-1,0.6-2.1,1.2-3.2,1.7
		C33.6,13,33,12.9,32.7,13c-0.1,0.5-0.2,0.8-0.2,1.1c-0.1,0-0.2,0-0.2,0.1c-0.4-1-1.3-1-2.1-0.9c-0.1,0-0.3,0-0.3,0
		c-0.3-0.8-0.9-0.4-1.6-0.5c0.2,0.3,0.2,0.4,0.4,0.5c0.6,0.4,0.8,0.9,0.8,1.7c0.1,1.3,0.7,1.8,1.7,1.9c0,0,0.1,0.1,0.2,0.2
		c-1.6,1.2-3.2,2.4-4.8,3.6c0.1-0.6-0.3-0.8-0.8-0.4c-0.6,0.5-1,0.3-1.5-0.1c-0.3-0.3-0.7-0.5-1.1-0.8c0,0,0-0.2,0-0.3
		c-0.2-0.5-0.5-1-0.7-1.5c-0.3,0.2-0.7,0.5-1,0.7c-0.1,0-0.2,0.1-0.2,0.1c-0.2-0.2-0.4-0.3-0.5-0.4c-1.2,0.9-1.8,0-3.8,0.5
		c0,0.5,0,1,0,1.4c0,0.3,1.6-0.3,1.4,0.8c-0.7,0.1-1.3,0.3-1.9,0.4c-0.1,1.1-0.1,1.8,0.8,2.5c0.4,0.3,0.7,1.3,0.6,1.9
		c-0.3,2.3-0.8,4.5-1.2,6.8c-0.1,0-0.1,0.1-0.2,0.1c-0.8-0.4-1.4-0.2-2.3,0.1c-1.2,0.4-2.4,0.6-3.4,1.5c-0.4,0.4-1.3,2.3-1.2,2.8
		s0.1,0.7-0.4,0.9c-1.1,0.3-0.7,1.6-1.3,2.2V40c0.5,0.9,1,1.8,1.6,2.5c0.4,0.6,0.8,1,0,1.7c1.2,0,2.2,0.1,2.4,1.3
		c1.4,0.5,2.4-0.2,3.3-1c0,0.9,0,1.8,0,2.7c0,0.6,0.5,0.8,1.1,0.8c1-0.1,2,0,3,0c0.3,0,0.6,0.1,0.9-0.1c0.7-0.4,1.3-0.9,2-1.3
		c0.8-0.5,1.7-1,2.6-1.4c0.6-0.3,1.4-0.2,2.2-0.3c0,1,0.1,2.1,0,3.1c-0.1,1.3,1.7,3.4,3,3.4c0.4,0,0.8,0.2,1.3,0.2
		c0.9,0,1.3,1,2.1,1.1c0.2,0,0.6,0.1,0.7,0.2c0.4,0.9,1.2,0.7,2,0.8c0.6,0.1,1.3,0.5,1.7,1c0.3,0.4,0.3,1.1,0.3,1.7
		c0,0.4-0.2,1.3-0.2,1.6c0.2,0.8,0.4,0.1,0.6,3.1c1.2,0,2.5,0,3.9,0c-0.1,0-0.1-0.1-0.2,0.1c-0.4,0.8-0.1,1.4,0.7,1.8
		c0.7,0.3,1.2,1.2,1,1.9c-0.3,0.9-0.6,1.7-0.9,2.6c-0.1,0.4,0,0.7,0,1.1c-0.1,0.4-0.1,0.7-0.1,1c0.1,0.8,0.5,1.5,0.2,2.4
		c-0.4,1.2-0.2,1.5,1.1,1.7c0.7,0.1,1.5,0,2.2,0c1.6,0,1.7,1.4,1.9,2.6c0.1,0.5,0.2,0.7,0.3,1.7c0.5,0,0.9,0,1.3,0
		c0,3-0.1,4.3,0,6.5c0,1.2-0.3,1.8-1.3,2.6c-1.8,1.5-3.3,3.3-4.9,5c0,0.1,0.1,0.2,0.1,0.3c0.3-0.1,0.6-0.2,1-0.3
		c0.2-0.1,0.5-0.2,0.6-0.1c0.7,0.7,1.8,1,1.9,2.3c0.3-0.2,0.6-0.4,0.9-0.6c0.3,0.3,0.5,0.8,0.8,0.9c0.9,0.2,0.9,0.8,0.9,1.5
		c0.8,0.1,1.6,0.2,2.3,0.3c2-0.9,3.5-2.3,3.9-4.4c0.4,0,0.9,0.1,1.3,0.1c-0.1,0.4-0.2,0.8-0.3,1.3c0.1,0,0.2,0.1,0.4,0.1
		c0.3-0.6,0.7-1.1,0.9-1.7c0.5-1.3,1.2-2.5,2.4-3.2c0.8-0.5,1-1.2,1.1-1.9c0.1-0.8,0.1-1.7-0.1-2.5c-0.2-0.9,0-1.7,0.3-2.6
		c0.2-0.6,0.2-1.1,0.9-1.1c0.1,0,0.2-0.2,0.3-0.4c0.3-0.3,0.6-0.7,0.9-0.9c0.3-0.3,0.7-0.4,1-0.7c1-0.8,1.9-1.6,3.3-1.4
		c0.1,0,0.2,0,0.2,0c0.6-0.4,1.2-0.9,1.8-1.3c0,0-0.1-0.2-0.2-0.3c0.7-0.1,1.3-0.3,1.9-0.3c1.2,0,2.4,0,3.7,0c0.2,0,0.5-0.3,0.5-0.4
		c-0.1-0.8,0.5-1,1-1.2c0.4-0.2,0.8-0.4,1.2-0.6c-0.4-1,0-1.9,0.5-2.7c0.4-0.6,0.8-1.3,1.3-1.9c0.2-0.2,0.3-0.6,0.5-0.7
		c0.5-0.4,0.5-0.9,0.5-1.5c0-0.8,0.1-1.8,0.5-2.4c0.4-0.6,0.7-1,0.6-1.8c0-0.2,0-0.4,0.1-0.6c1-2.2,0.2-4.6,0.4-6.9
		c0.1-1.1,0.3-2.1,0.6-3.4c0.3,0.4,0.5,0.6,0.7,0.9c0.3-0.4,0.6-0.7,0.9-1.1c0.6-1,1.1-2.1,1.8-3.1c0.6-0.8,1.5-1.5,2.2-2.3
		c0.4-0.4,0.7-0.9,1.1-1.3C92,42.6,92.5,40.6,92.4,38.6z M87.2,47c-0.4,0.4-0.7,0.8-0.9,1.3c-0.5,1-0.9,2-1.4,3
		c-0.1-0.1-0.1-0.2-0.2-0.3c-0.4,0-0.9,0-1.3,0c-0.1,0-0.3,0.3-0.3,0.5c0.1,1.2-0.6,1.9-1.5,2.5c-8.4,5.2-16.9,10.5-25.3,15.7
		c-0.6,0.4-1,0.4-1.6,0c-3.4-2.2-6.9-4.3-10.3-6.4c-0.5-0.3-1.1-0.6-1.5-1.1c-0.3-0.3-0.4-1.3-0.3-1.7c0.2-0.9,0.2-1.4-0.7-1.4
		c-1,0-2,0-3.2,0c-0.1-1-0.1-1.5-0.2-2.4c-0.1-0.9-0.2-1.6-0.4-2.5c-0.1-0.5-1.7-1.2-2.3-1.1c-0.6,0.1-1.1,0.1-1.4-0.5
		c-0.1-0.2-0.4-0.2-0.6-0.3c-0.4-0.2-0.9-0.4-1.3-0.6c-0.7-0.3-1.3-0.9-2-0.8c-1.3,0.1-1.8-0.7-2.5-1.4c-0.9-0.9-0.8-2.1-0.6-3.3
		c0.1-0.4,0.1-0.8,0-1.1c-0.1-0.4-0.3-0.7-0.9-0.5c-0.5,0.2-1.1,0-1.5,0.2c-1,0.4-1.9,0.9-2.8,1.5c-0.7,0.4-1.3,0.9-2,1.3
		c-0.3,0.1-0.7,0-1.4,0c0.4-0.3,0.5-0.4,0.7-0.5c11-6.8,22-13.6,32.9-20.5c0.5-0.3,0.9-0.7,1.6-0.3c0.3,0.1,0.8-0.2,1.2-0.2
		c0.3,0.6-0.2,1.5,0.9,1.7c0.1-0.3,0.1-0.6,0.2-1c0.1,0.8,0.1,1.4,1.1,1.5c-0.3-1.3,1-0.9,1.4-1.4c0.3,0.2,0.6,0.4,1,0.6
		c-0.1,0.3-0.2,0.6-0.4,1c0.7,0.6,0.9,0,1.3-0.4C70.1,34,79.5,39.8,89,45.7C88.4,46,87.7,46.5,87.2,47z"/>
	<path d="M70.5,51.8c-2.3-2-4.8-3.7-7.4-5.1c-5.2-2.8-10.9-4.2-16.8-4.3c-2,0-3.9,0.2-5.9,0.3c-0.6,0-1.1,0.2-1.1,1
		c0,1.9-0.4,3.9-0.1,5.8c1.2,8.2,8,14,16.2,14.1c0.9-0.1,1.8-0.1,2.6-0.3c6.1-1.1,10.3-4.6,12.7-10.3C71,52.5,71,52.2,70.5,51.8z"/>
	<path d="M40.6,40.3c11.6-1.2,22,1.8,31.1,9.4c1.3-6.8-2.4-15.4-11.1-18.2C51.5,28.5,43.1,33.8,40.6,40.3z"/>
</g>
</svg>
