<?xml version="1.0" encoding="utf-8"?>
<!-- Generator: Adobe Illustrator 16.0.0, SVG Export Plug-In . SVG Version: 6.00 Build 0)  -->
<!DOCTYPE svg PUBLIC "-//W3C//DTD SVG 1.1//EN" "http://www.w3.org/Graphics/SVG/1.1/DTD/svg11.dtd">
<svg version="1.1" id="Layer_1" xmlns="http://www.w3.org/2000/svg" xmlns:xlink="http://www.w3.org/1999/xlink" x="0px" y="0px"
	 width="75.5px" height="95.2px" viewBox="13.4 2.4 75.5 95.2" enable-background="new 13.4 2.4 75.5 95.2" xml:space="preserve">
<g>
	<path d="M29.4,35.9c6.4-0.6,5.1-8.8,6.9-13.9c7.8-2.9,21.6-3,29.1,0.2c0.1,1.8,0.8,3.7,1.2,5.7
		c0.4,2.1,0.5,4.4,1.4,5.7c1,1.5,2.6,1.4,4.2,2.4c1.1,5,2.3,10,3.2,15.3c1.9,0.7,3.5,1.7,5.4,2.6c-0.9-4.6-2.4-10.9-3.4-15.7
		c-0.4-1.9-0.5-4-1.2-5.2c-0.9-1.4-2.9-1.5-4.4-2.2c-0.2-2.1-0.8-3.9-1.2-5.9c-0.4-2-0.4-4.5-1.4-5.9c-1-1.5-3.7-1.7-5.6-2.2
		l-6.3-1.3V6.4c0-0.6-0.1-1.1-0.3-1.6C57,4,56.6,3.4,56,3c-0.2-0.1-0.6-0.3-1.1-0.3c-0.4-0.2-0.9-0.2-1.4-0.2h-1.1
		c-1.3-0.1-2.6-0.1-3.8,0h-0.3c-0.3,0-0.6,0-0.9,0.1c-0.2,0-0.4,0.1-0.6,0.1c-1.3,0.3-1.9,1.1-2.2,2.2c-0.2,0.5-0.3,1-0.3,1.6v9.4
		L38,16.9c-1.9,0.5-4.5,0.7-5.6,2.2c-1,1.4-1,4-1.4,5.9c-0.4,2.1-0.9,4.1-1.4,6.1c-1.2,0.5-3,0.5-4,1.6c-0.8,0.9-1,3.5-1.4,5.2
		c-1.1,5.2-2.6,11.9-3.2,16.1c1.6-1,3.3-1.8,5.2-2.6C27.1,46.1,28.4,41.1,29.4,35.9z"/>
	<path d="M61.6,30.4c-0.1-1.7-0.5-3-0.8-4.6c-5.6-1.4-14.2-1.4-19.8,0c-0.3,1.5-0.7,2.9-0.8,4.6
		C46.2,28.6,55.5,28.6,61.6,30.4z"/>
	<path d="M57.3,37.7c-4-0.3-8.9-0.3-12.7,0c0,1.5,0,2.9,0,4.4c4.2-0.2,8.5-0.2,12.7,0C57.3,40.6,57.3,39.2,57.3,37.7
		z"/>
	<path d="M41.4,38.1c0,0-6.1,1.1-8.4,2.2c0,0-0.8,4.4-0.8,4.6c2.8-1,5.8-1.8,9.1-2.4L41.4,38.1L41.4,38.1z"/>
	<path d="M68.7,40.3c-2.4-1.1-5.3-1.7-8.3-2.2c0,1.5,0,3,0,4.6c3.4,0.1,9.1,2,9.1,2L68.7,40.3z"/>
	<path d="M50.1,47c-6.9,1.9-12.9,4.2-20,7.5c-2.7,1.3-5.5,2.8-8.7,4.6c-1.4,0.8-7.8,3.9-7.9,5.6
		c-0.1,1,1.9,3.2,2.6,4.2c2.1,3.1,3.5,5.6,4.8,9.1c0.7,1.9,0.9,3.9,2,5c1.5,1.5,4.7,2.1,7.3,3.2c5.7,2.2,9.9,4.3,14.3,7.1
		c2.2,1.4,4.1,3.1,6.3,4.4"/>
	<path d="M88.9,64.5c-0.1-0.8-2.4-2.2-3.8-3c-10-6.1-21.7-11.3-33.3-14.5c-0.5,16.5-0.1,33.8-0.2,50.6
		c2.3-1.1,4-2.9,6.1-4.4c4.4-2.9,8.8-5,14.3-7.1c2.7-1.1,6-1.6,7.5-3.2c1-1,1.3-3.1,2-5c1.3-3.7,2.7-6.1,4.8-9.1
		C86.9,68.1,89.1,65.5,88.9,64.5z"/>
</g>
</svg>
