<?xml version="1.0" encoding="utf-8"?>
<!-- Generator: Adobe Illustrator 16.0.0, SVG Export Plug-In . SVG Version: 6.00 Build 0)  -->
<!DOCTYPE svg PUBLIC "-//W3C//DTD SVG 1.1//EN" "http://www.w3.org/Graphics/SVG/1.1/DTD/svg11.dtd">
<svg version="1.1" id="Layer_1" xmlns="http://www.w3.org/2000/svg" xmlns:xlink="http://www.w3.org/1999/xlink" x="0px" y="0px"
	 width="304px" height="154px" viewBox="0 0 304 154" enable-background="new 0 0 304 154" xml:space="preserve">
<polygon fill="#D08C23" enable-background="new    " points="241.2,59.5 243.1,89 195.3,86.3 "/>
<path fill="#FCB914" enable-background="new    " d="M195.6,86l4.7,42.3l103.6-6.2l-18.1-27.8L299.2,64L195.6,86z"/>
<polygon fill="#FCB914" enable-background="new    " points="4.2,84.2 240.6,59.3 241.6,75.1 4.9,88.9 "/>
<path fill="#273C71" enable-background="new    " d="M230.9,114.1c-0.1,1.1-0.3,2.2-0.6,3.2c-0.3,1-0.8,1.9-1.5,2.6
	c-0.6,0.7-1.5,1.3-2.5,1.8c-1.1,0.5-2.3,0.8-3.7,0.9c-1.5,0.2-2.9,0.1-4.1-0.2c-1.2-0.3-2.2-0.8-3-1.4c-0.8-0.6-1.5-1.5-2.1-2.5
	c-0.6-1-1-2.1-1.3-3.3c-0.3-1.2-0.5-2.5-0.7-3.9l-1.3-13.1c-0.2-1.6-0.2-3-0.1-4.2c0.1-1.2,0.3-2.4,0.6-3.5c0.4-1.1,0.9-2,1.5-2.8
	c0.7-0.8,1.6-1.4,2.7-1.9c1.1-0.5,2.4-0.8,4-1c3.3-0.3,5.8,0.3,7.5,2c1.6,1.7,2.6,4.2,3,7.7l0.3,3l-4.9,0.5l-0.3-2.6
	c-0.1-0.6-0.1-1-0.1-1.3c0-0.3-0.1-0.7-0.2-1.2c-0.1-0.5-0.1-0.8-0.2-1.1c-0.1-0.3-0.2-0.6-0.3-0.9c-0.1-0.3-0.3-0.6-0.5-0.8
	c-0.2-0.2-0.4-0.4-0.6-0.6c-0.2-0.2-0.5-0.4-0.8-0.4s-0.6-0.1-1-0.2c-0.4,0-0.8,0-1.3,0c-0.7,0.1-1.3,0.2-1.9,0.4
	c-0.5,0.2-0.9,0.5-1.2,0.9c-0.3,0.4-0.6,0.8-0.7,1.2c-0.2,0.4-0.3,1-0.3,1.6c0,0.6-0.1,1.3,0,1.9c0,0.6,0.1,1.3,0.2,2.2l1.5,14.7
	c0.3,2.8,0.8,4.7,1.6,5.7c0.8,1,2.1,1.4,3.9,1.3c0.7-0.1,1.3-0.2,1.8-0.4c0.5-0.2,0.9-0.5,1.2-0.9c0.3-0.4,0.5-0.8,0.7-1.2
	c0.2-0.4,0.2-0.9,0.3-1.6c0-0.6,0-1.2,0-1.8c0-0.5-0.1-1.2-0.2-2.1l-0.3-2.7l4.9-0.5l0.3,2.8C230.9,111.7,231,113,230.9,114.1
	L230.9,114.1z M247.4,119.8l-4.5,0.5l-12-36.3l4.8-0.5l8.6,26.7l2.8-27.9l4.7-0.5L247.4,119.8L247.4,119.8z M276.5,109.5
	c-0.1,1.1-0.3,2.2-0.6,3.2c-0.3,1-0.8,1.9-1.5,2.6c-0.6,0.7-1.5,1.3-2.5,1.8c-1.1,0.5-2.3,0.8-3.7,0.9c-1.5,0.2-2.9,0.1-4.1-0.2
	c-1.2-0.3-2.2-0.8-3-1.4c-0.8-0.6-1.5-1.5-2.1-2.5c-0.6-1-1-2.1-1.3-3.3c-0.3-1.2-0.5-2.5-0.7-3.9l-1.3-13.1c-0.2-1.6-0.2-3-0.1-4.2
	c0.1-1.2,0.3-2.4,0.6-3.5c0.4-1.1,0.9-2,1.5-2.8c0.7-0.8,1.6-1.4,2.7-1.9c1.1-0.5,2.4-0.8,4-1c3.3-0.3,5.8,0.3,7.5,2
	c1.6,1.7,2.6,4.2,3,7.7l0.3,3l-4.9,0.5l-0.3-2.6c-0.1-0.6-0.1-1-0.1-1.3c0-0.3-0.1-0.7-0.2-1.2c-0.1-0.5-0.2-0.8-0.2-1.1
	c-0.1-0.3-0.2-0.6-0.3-0.9c-0.1-0.3-0.3-0.6-0.5-0.8c-0.2-0.2-0.4-0.4-0.6-0.6c-0.2-0.2-0.5-0.4-0.8-0.4s-0.6-0.1-1-0.2
	c-0.4,0-0.8,0-1.3,0c-0.7,0.1-1.3,0.2-1.9,0.4c-0.5,0.2-0.9,0.5-1.2,0.9c-0.3,0.4-0.6,0.8-0.7,1.2c-0.2,0.4-0.3,1-0.3,1.6
	c0,0.6,0,1.3,0,1.9c0,0.6,0.1,1.3,0.2,2.2l1.5,14.7c0.3,2.8,0.8,4.7,1.6,5.7c0.8,1,2.1,1.4,3.9,1.3c0.7-0.1,1.3-0.2,1.8-0.4
	c0.5-0.2,0.9-0.5,1.2-0.9s0.5-0.8,0.7-1.2c0.2-0.4,0.2-0.9,0.3-1.6c0-0.6,0-1.2,0-1.8c0-0.5-0.1-1.2-0.2-2.1l-0.3-2.7l4.9-0.5
	l0.3,2.8C276.6,107.1,276.6,108.4,276.5,109.5L276.5,109.5z"/>
<path fill="#273C71" enable-background="new    " d="M30.2,153.2l-6.8,0.7L5.3,99.2l7.3-0.7l13,40.3l4.3-42.1l7.1-0.7L30.2,153.2
	L30.2,153.2z M48.3,151.4l-5.7-56l7.7-0.8l5.7,56L48.3,151.4L48.3,151.4z M85.2,147.6l-4-13.8l-11.4,1.2l-1.2,14.4l-7.4,0.7
	l6.3-57.2l7.5-0.8l17.6,54.7L85.2,147.6L85.2,147.6z M72.4,103.5l-2.1,25.7l9.3-0.9L72.4,103.5L72.4,103.5z M117,122l-7.1,0.7
	l-0.6-5.5l14.2-1.4l2.8,27.7l-5,0.5l-1.4-6.4c-1.2,4.9-4.3,7.6-9.2,8.1c-5.1,0.5-8.9-0.7-11.5-3.7c-2.6-3-4.2-7.6-4.8-13.9
	l-1.9-18.7c-0.3-2.6-0.3-4.8-0.3-6.8c0.1-2,0.4-3.8,0.9-5.5c0.5-1.7,1.3-3.1,2.3-4.3c1-1.1,2.4-2.1,4-2.8c1.7-0.7,3.7-1.2,6-1.5
	c5.2-0.5,9,0.4,11.6,2.8c2.5,2.4,4.1,6.4,4.7,12.1l0.2,2.1l-7.3,0.7l-0.2-1.8c-0.2-1.6-0.3-2.9-0.5-3.9c-0.2-1-0.5-2-0.9-2.9
	c-0.4-0.9-0.9-1.6-1.4-2c-0.6-0.5-1.3-0.8-2.2-1c-0.9-0.2-2-0.2-3.2-0.1c-1,0.1-1.8,0.3-2.5,0.6c-0.7,0.3-1.3,0.6-1.8,1
	c-0.5,0.4-0.9,0.9-1.2,1.6c-0.3,0.7-0.5,1.3-0.6,1.9c-0.1,0.6-0.2,1.4-0.2,2.3s0,1.8,0.1,2.6c0.1,0.8,0.1,1.7,0.3,2.9l2.1,20.7
	c0.4,4.3,1.3,7.3,2.5,9.1c1.2,1.8,3.3,2.5,6.2,2.2c2.9-0.3,4.8-1.5,5.7-3.6c0.9-2.1,1.1-5.4,0.6-9.9L117,122L117,122z M155,134.9
	l0.6,5.6l-21.8,2.2l-5.7-56l21.7-2.2l0.6,5.8l-13.9,1.4l1.9,18.5l11.3-1.1l0.6,5.6l-11.3,1.1l2.1,20.5L155,134.9L155,134.9z
	 M191.9,136.8l-4.7-40.6l-5.4,41.6l-4.4,0.4l-13.5-39.7l3.5,40.7l-6.4,0.6l-4.6-56.1l7.6-0.8l14.5,44.4l5.4-46.4l7.6-0.8l6.7,55.8
	L191.9,136.8L191.9,136.8z"/>
<path fill="#273C71" d="M31.3,71.9c-2.2,3.3-6.1,5.2-11.8,5.8L6.8,79L1.1,23l12.1-1.2c6.1-0.6,10.5,0.3,13.2,2.8
	c2.8,2.5,4.4,6.7,5,12.6l2.1,20.6C34.3,63.9,33.5,68.6,31.3,71.9L31.3,71.9z M26,60.7c-0.1-0.8-0.2-2.1-0.3-3.7l-1.8-18.2
	c-0.1-1.3-0.3-2.5-0.4-3.4c-0.1-0.9-0.3-1.8-0.6-2.7c-0.2-0.9-0.5-1.6-0.8-2.2c-0.3-0.6-0.7-1.1-1.2-1.6c-0.5-0.5-1.1-0.8-1.7-1.1
	c-0.7-0.2-1.4-0.4-2.3-0.4c-0.9-0.1-1.9,0-3,0.1L9.5,28L14,72.6l4.4-0.4c1.2-0.1,2.2-0.3,3.1-0.7c0.9-0.3,1.6-0.7,2.2-1.1
	c0.6-0.4,1-1,1.4-1.7c0.3-0.8,0.6-1.5,0.7-2.1c0.2-0.6,0.2-1.5,0.2-2.7C26.1,62.6,26,61.6,26,60.7L26,60.7z M42.9,75.3l-5.7-56
	l7.7-0.8l5.7,56L42.9,75.3L42.9,75.3z M85.5,60c-0.1,1.7-0.4,3.3-0.9,4.9c-0.5,1.5-1.2,2.8-2.2,3.9c-1,1.1-2.2,2-3.8,2.7
	c-1.6,0.7-3.5,1.2-5.6,1.4c-2.3,0.2-4.4,0.1-6.2-0.3c-1.8-0.4-3.3-1.2-4.6-2.1c-1.2-1-2.3-2.2-3.1-3.8c-0.9-1.5-1.5-3.2-2-4.9
	c-0.4-1.8-0.8-3.7-1-5.9l-2-19.8c-0.2-2.4-0.3-4.5-0.2-6.4c0.1-1.9,0.4-3.6,0.9-5.3c0.5-1.7,1.3-3.1,2.3-4.2c1-1.1,2.4-2.1,4.1-2.9
	c1.7-0.8,3.7-1.3,6-1.5c5-0.5,8.8,0.5,11.2,3c2.5,2.5,4,6.4,4.5,11.7l0.5,4.5L76,35.6l-0.4-3.9c-0.1-0.9-0.2-1.5-0.2-2
	c-0.1-0.5-0.1-1.1-0.3-1.8c-0.1-0.7-0.2-1.3-0.4-1.7c-0.1-0.4-0.3-0.9-0.5-1.4c-0.2-0.5-0.4-0.9-0.7-1.2c-0.3-0.3-0.6-0.6-0.9-0.9
	c-0.4-0.3-0.8-0.5-1.2-0.7c-0.4-0.1-1-0.2-1.6-0.3c-0.6-0.1-1.3,0-2,0c-1.1,0.1-2,0.3-2.8,0.6c-0.8,0.3-1.4,0.8-1.9,1.3
	c-0.5,0.6-0.8,1.2-1.1,1.8c-0.3,0.6-0.4,1.4-0.5,2.4c-0.1,1-0.1,1.9,0,2.8c0,0.9,0.1,2,0.2,3.3l2.2,22.1c0.4,4.2,1.3,7.1,2.5,8.6
	c1.2,1.5,3.2,2.2,5.9,1.9c1-0.1,1.9-0.3,2.7-0.6c0.7-0.3,1.3-0.7,1.7-1.3c0.4-0.6,0.8-1.1,1-1.7c0.2-0.6,0.4-1.4,0.4-2.3
	c0-1,0-1.9,0-2.7c0-0.8-0.1-1.9-0.3-3.2l-0.4-4.1l7.4-0.7l0.4,4.2C85.6,56.3,85.6,58.3,85.5,60L85.5,60z M114.7,68l-4-13.8
	l-11.4,1.2l-1.2,14.4l-7.4,0.8L97,13.3l7.5-0.8l17.6,54.7L114.7,68L114.7,68z M101.9,23.9l-2.1,25.7l9.3-0.9L101.9,23.9L101.9,23.9z
	 M149.7,61.5c-2.2,2.6-5.3,4.2-9.3,4.6c-4.7,0.5-8.4-0.6-11.2-3.3c-2.8-2.7-4.5-6.5-5.3-11.5l6.8-2.6c1.3,8,4.4,11.7,9.1,11.2
	c2-0.2,3.5-0.9,4.4-2.1c0.9-1.2,1.3-2.9,1.1-5.1c-0.1-1.2-0.4-2.3-0.8-3.2c-0.4-1-0.9-1.9-1.7-2.7c-0.7-0.8-1.4-1.5-2-2.1
	c-0.6-0.5-1.5-1.2-2.7-2.1l-10.2-7.4c-2.1-1.5-3.6-3.2-4.7-5c-1.1-1.8-1.7-4.1-2-6.8c-0.4-4,0.4-7.3,2.6-9.8c2.1-2.5,5.2-4,9.3-4.4
	c4.5-0.5,7.9,0.3,10.4,2.4c2.5,2.1,4.2,5.7,5.1,10.6l-6.4,2.5c-0.2-1.2-0.4-2.3-0.7-3.2c-0.3-0.9-0.6-1.9-1.1-2.8
	c-0.5-0.9-1-1.7-1.6-2.2c-0.6-0.5-1.3-0.9-2.2-1.2c-0.9-0.3-1.9-0.3-3-0.1c-4.1,0.7-5.9,3-5.6,6.8c0.2,1.6,0.6,3,1.3,4
	c0.7,1,1.7,2.1,3.2,3.2l10.3,7.4c2.7,2,4.9,4.1,6.6,6.5c1.7,2.4,2.7,5.2,3,8.4C152.8,55.5,151.9,58.8,149.7,61.5L149.7,61.5z
	 M198.8,54.9c-2.2,3.3-6.1,5.2-11.8,5.8L174.2,62l-5.7-56l12.1-1.2c6.1-0.6,10.5,0.3,13.2,2.8c2.8,2.5,4.4,6.7,5,12.6l2.1,20.6
	C201.7,46.9,200.9,51.7,198.8,54.9L198.8,54.9z M193.4,43.8c-0.1-0.8-0.2-2.1-0.3-3.7l-1.8-18.2c-0.1-1.4-0.3-2.5-0.4-3.4
	c-0.1-0.9-0.3-1.8-0.5-2.7c-0.2-0.9-0.5-1.6-0.8-2.2c-0.3-0.6-0.7-1.1-1.2-1.6c-0.5-0.5-1.1-0.8-1.7-1.1c-0.7-0.2-1.4-0.4-2.3-0.4
	c-0.9-0.1-1.9,0-3,0.1l-4.2,0.4l4.5,44.6l4.4-0.4c1.2-0.1,2.2-0.3,3.1-0.7c0.9-0.3,1.6-0.7,2.2-1.1c0.6-0.4,1-1,1.4-1.7
	c0.3-0.8,0.6-1.5,0.7-2.1c0.2-0.6,0.2-1.5,0.2-2.7C193.5,45.7,193.4,44.6,193.4,43.8L193.4,43.8z M231.2,50.6l0.6,5.6l-21.8,2.2
	l-5.7-55.9l21.7-2.2l0.6,5.8l-13.9,1.4l1.9,18.5l11.3-1.1l0.6,5.6l-11.3,1.1l2.1,20.5L231.2,50.6L231.2,50.6z"/>
</svg>
