<?xml version="1.0" encoding="utf-8"?>
<!-- Generator: Adobe Illustrator 16.0.0, SVG Export Plug-In . SVG Version: 6.00 Build 0)  -->
<!DOCTYPE svg PUBLIC "-//W3C//DTD SVG 1.0//EN" "http://www.w3.org/TR/2001/REC-SVG-20010904/DTD/svg10.dtd">
<svg version="1.0" id="Layer_1" xmlns="http://www.w3.org/2000/svg" xmlns:xlink="http://www.w3.org/1999/xlink" x="0px" y="0px"
	 width="100px" height="100px" viewBox="0 0 100 100" enable-background="new 0 0 100 100" xml:space="preserve">
<g>
	<path fill="#0B4E91" d="M93.386,74.832c-0.389,0.343-1.833,0.586-8.237,0.746c-0.955-4.99-5.347-8.774-10.61-8.774
		c-5.35,0-9.791,3.908-10.649,9.017c-9.15,0.025-19.037-0.021-27.931-0.117c-0.907-5.052-5.324-8.899-10.632-8.899
		c-5.166,0-9.491,3.645-10.555,8.497c-4.163-0.139-6.789-0.297-7.083-0.469c-3.462-2.015-2.804-21.22,0-23.245
		c2.803-2.024,19.526-14.493,20.557-15.261c0.577-0.431,6.749-0.379,12.07-0.25c0.087-5.111,0.371-8.739,0.986-9.094
		c2.291-1.319,50.481-1.532,52.084,0C94.989,28.514,95.198,73.234,93.386,74.832z M36.071,41.622h-6.074l-10.303,7.649l-2.675,1.985
		v0.214h19.052V41.622z M83.607,35.306c-10.819-0.324-21.639-0.324-32.459,0c-0.54,6.493-0.54,12.984,0,19.477
		c10.82,0.324,21.64,0.324,32.459,0C84.148,48.29,84.148,41.798,83.607,35.306z"/>
	<circle fill="#3680C3" cx="74.606" cy="79.268" r="7.279"/>
	<circle fill="#3680C3" cx="25.395" cy="79.268" r="7.28"/>
	<path fill="#FDDA2B" d="M54.075,37.982c-0.199,4.428-0.199,8.855,0,13.283c8.834,0.142,17.67,0.142,26.504,0
		c0.199-4.428,0.199-8.855,0-13.283C71.745,37.84,62.909,37.84,54.075,37.982z"/>
</g>
</svg>
