<?xml version="1.0" encoding="utf-8"?>
<!-- Generator: Adobe Illustrator 16.0.0, SVG Export Plug-In . SVG Version: 6.00 Build 0)  -->
<!DOCTYPE svg PUBLIC "-//W3C//DTD SVG 1.1//EN" "http://www.w3.org/Graphics/SVG/1.1/DTD/svg11.dtd">
<svg version="1.1" id="Layer_1" xmlns="http://www.w3.org/2000/svg" xmlns:xlink="http://www.w3.org/1999/xlink" x="0px" y="0px"
	 width="56px" height="42px" viewBox="0 0 56 42" enable-background="new 0 0 56 42" xml:space="preserve">
<g>
	<path fill="#0064A7" d="M0,42V0h56v42H0z"/>
	<g>
		<path fill="#FFFFFF" d="M30.1,22.9c5,0,9.5-4.1,9.5-9c0-5.4-4.5-9.2-9.5-9.2h-4.3c-5,0-9.2,3.8-9.2,9.2c0,5,4.1,9.1,9.2,9H30.1z"
			/>
		<path fill="#0064A7" d="M27.7,18.7V8.9c2,0.8,3.4,2.7,3.4,4.9C31.1,16.1,29.7,18,27.7,18.7 M20.5,13.8c0-2.3,1.4-4.2,3.4-4.9v9.9
			C21.9,18,20.5,16,20.5,13.8 M25.8,5.5c-4.6,0-8.3,3.7-8.3,8.3c0,4.6,3.7,8.3,8.3,8.3c4.6,0,8.3-3.7,8.3-8.3
			C34.1,9.2,30.4,5.5,25.8,5.5"/>
		<path fill="#FFFFFF" d="M7.3,29.1c0,0.7,0.5,0.8,1,0.8c2.1,0,2.8-1.6,2.8-3c0-1.8-1.2-3.1-3-3.1c-0.4,0-0.6,0-0.8,0V29.1z
			 M6.3,24.6c0-0.9-0.5-0.8-0.9-0.8v-0.3c0.4,0,0.8,0,1.1,0c0.4,0,1,0,1.7,0c2.5,0,3.9,1.7,3.9,3.4c0,1-0.6,3.4-4,3.4
			c-0.5,0-0.9,0-1.4,0c-0.4,0-0.9,0-1.3,0V30C6,30,6.3,29.9,6.3,29.3L6.3,24.6L6.3,24.6z"/>
		<path fill="#FFFFFF" d="M13.5,24.4c-0.3,0-0.5-0.2-0.5-0.5c0-0.2,0.2-0.5,0.5-0.5c0.3,0,0.5,0.2,0.5,0.5S13.7,24.4,13.5,24.4
			 M12.4,30h0.2c0.3,0,0.5,0,0.5-0.3v-2.6c0-0.4-0.1-0.5-0.5-0.7v-0.2c0.5-0.1,1-0.3,1-0.3c0.1,0,0.1,0,0.2,0c0,0,0.1,0.1,0.1,0.1
			v3.7c0,0.3,0.2,0.3,0.5,0.3h0.2v0.3c-0.3,0-0.7,0-1,0c-0.3,0-0.7,0-1,0L12.4,30L12.4,30z"/>
		<path fill="#FFFFFF" d="M15.4,27.2c0-0.4-0.1-0.5-0.6-0.6v-0.2c0.4-0.1,0.8-0.3,1.3-0.5c0,0,0.1,0,0.1,0.1v0.6
			c0.6-0.4,1-0.7,1.7-0.7c0.8,0,1.1,0.6,1.1,1.3v2.5c0,0.3,0.2,0.3,0.5,0.3h0.2v0.3c-0.3,0-0.7,0-1,0c-0.3,0-0.7,0-1,0V30h0.2
			c0.3,0,0.5,0,0.5-0.3v-2.5c0-0.5-0.3-0.8-0.9-0.8c-0.3,0-0.8,0.3-1.1,0.5v2.9c0,0.3,0.2,0.3,0.5,0.3h0.2v0.3c-0.3,0-0.7,0-1,0
			c-0.3,0-0.7,0-1,0V30h0.2c0.3,0,0.5,0,0.5-0.3L15.4,27.2L15.4,27.2z"/>
		<path fill="#FFFFFF" d="M22,27.3c0.2,0,0.3-0.1,0.3-0.2c0-0.5-0.3-0.9-0.8-0.9c-0.6,0-1,0.4-1.1,1.1H22z M20.3,27.6
			c0,0.1,0,0.2,0,0.6c0.1,0.9,0.6,1.7,1.4,1.7c0.5,0,0.9-0.3,1.3-0.6l0.1,0.1c-0.4,0.6-1,1.1-1.8,1.1c-1.5,0-1.8-1.5-1.8-2.1
			c0-1.9,1.3-2.4,1.9-2.4c0.8,0,1.6,0.5,1.6,1.5c0,0.1,0,0.1,0,0.2L23,27.6L20.3,27.6L20.3,27.6z"/>
		<path fill="#FFFFFF" d="M23.4,30h0.3c0.3,0,0.5,0,0.5-0.3V27c0-0.3-0.4-0.4-0.5-0.4v-0.1c0.7-0.3,1.1-0.5,1.2-0.5
			c0.1,0,0.1,0,0.1,0.1v0.9h0c0.2-0.4,0.6-1,1.2-1c0.2,0,0.5,0.2,0.5,0.5c0,0.3-0.2,0.5-0.5,0.5c-0.3,0-0.3-0.2-0.6-0.2
			c-0.2,0-0.7,0.2-0.7,0.8v2.3c0,0.3,0.2,0.3,0.5,0.3h0.5v0.3c-0.5,0-0.9,0-1.3,0c-0.4,0-0.8,0-1.1,0V30L23.4,30z"/>
		<path fill="#FFFFFF" d="M27.1,28.9c0.1,0.6,0.5,1.2,1.2,1.2c0.6,0,0.8-0.3,0.8-0.7c0-1.1-2.1-0.8-2.1-2.3c0-0.5,0.4-1.2,1.5-1.2
			c0.3,0,0.7,0.1,1.1,0.3l0.1,1h-0.2c-0.1-0.6-0.4-1-1.1-1c-0.4,0-0.8,0.2-0.8,0.6c0,1.1,2.2,0.8,2.2,2.3c0,0.6-0.5,1.3-1.7,1.3
			c-0.4,0-0.8-0.1-1.2-0.3L26.9,29L27.1,28.9z"/>
		<path fill="#FFFFFF" d="M38.5,25.3h-0.2c-0.2-1.1-1-1.6-2.1-1.6c-1.1,0-2.7,0.7-2.7,3.1c0,1.9,1.4,3.3,2.9,3.3
			c1,0,1.7-0.7,1.9-1.7l0.2,0.1l-0.2,1.4c-0.4,0.3-1.5,0.5-2.1,0.5c-2.3,0-3.7-1.5-3.7-3.6c0-2,1.8-3.4,3.6-3.4
			c0.8,0,1.5,0.3,2.3,0.5L38.5,25.3z"/>
		<path fill="#FFFFFF" d="M38.9,30h0.2c0.3,0,0.5,0,0.5-0.3v-5.4c0-0.6-0.1-0.6-0.5-0.8v-0.2c0.4-0.1,0.8-0.3,1-0.4
			c0.1-0.1,0.2-0.1,0.2-0.1c0.1,0,0.1,0.1,0.1,0.1v6.7c0,0.3,0.2,0.3,0.5,0.3h0.2v0.3c-0.3,0-0.7,0-1,0s-0.7,0-1,0L38.9,30L38.9,30z
			"/>
		<path fill="#FFFFFF" d="M45.1,29.7c0,0.2,0.1,0.2,0.3,0.2c0.1,0,0.3,0,0.4,0v0.2c-0.4,0-1.2,0.2-1.4,0.3l0,0v-0.8
			c-0.6,0.5-1,0.8-1.7,0.8c-0.5,0-1.1-0.3-1.1-1.1v-2.5c0-0.3,0-0.5-0.6-0.5v-0.2c0.3,0,1.1-0.1,1.2-0.1c0.1,0,0.1,0.1,0.1,0.3v2.5
			c0,0.3,0,1.1,0.8,1.1c0.3,0,0.8-0.3,1.2-0.6v-2.6c0-0.2-0.5-0.3-0.8-0.4v-0.2c0.9-0.1,1.4-0.1,1.5-0.1c0.1,0,0.1,0.1,0.1,0.2V29.7
			L45.1,29.7z"/>
		<path fill="#FFFFFF" d="M47,29.2c0,0.4,0.3,1,1,1c1,0,1.5-1,1.5-1.9c0-1-0.8-1.9-1.5-1.9c-0.4,0-0.7,0.2-0.9,0.5V29.2z M47,26.6
			c0.4-0.3,0.9-0.7,1.4-0.7c1.1,0,1.8,1,1.8,2c0,1.3-0.9,2.5-2.3,2.5c-0.7,0-1.1-0.2-1.3-0.3l-0.3,0.2l-0.2-0.1
			c0.1-0.6,0.1-1.1,0.1-1.7v-4.1c0-0.6-0.1-0.6-0.5-0.8v-0.2c0.4-0.1,0.8-0.3,1-0.4c0.1-0.1,0.2-0.1,0.2-0.1c0.1,0,0.1,0.1,0.1,0.1
			V26.6L47,26.6z"/>
		<path fill="#FFFFFF" d="M5.4,35.9L5.4,35.9c0.3,0,0.5,0,0.5-0.3v-2.7c0-0.3-0.2-0.3-0.4-0.3H5.4v-0.2c0.2,0,0.5,0,0.8,0
			c0.3,0,0.6,0,0.8,0v0.2H6.9c-0.2,0-0.4,0-0.4,0.3v2.7c0,0.3,0.2,0.3,0.4,0.3H7V36c-0.3,0-0.6,0-0.8,0c-0.3,0-0.6,0-0.8,0V35.9z"/>
		<path fill="#FFFFFF" d="M7,36v-0.1H6.9c-0.2,0-0.4,0-0.4-0.3v-2.7c0-0.3,0.2-0.3,0.4-0.3H7v-0.1c-0.2,0-0.5,0-0.8,0
			c-0.2,0-0.5,0-0.8,0v0.1h0c0.2,0,0.4,0,0.4,0.3v2.7c0,0.3-0.2,0.3-0.4,0.3h0V36c0.2,0,0.5,0,0.7,0C6.4,36,6.8,36,7,36 M7,36.1
			c-0.3,0-0.6,0-0.8,0c-0.3,0-0.6,0-0.8,0h0v0v-0.2v0h0h0.1c0.2,0,0.4,0,0.4-0.3v-2.7c0-0.3-0.2-0.3-0.4-0.3H5.4v0v-0.2h0
			c0.2,0,0.5,0,0.8,0c0.3,0,0.6,0,0.8,0h0v0v0.2h0H6.9c-0.2,0-0.4,0-0.4,0.3v2.7c0,0.3,0.2,0.3,0.4,0.3H7v0L7,36.1L7,36.1L7,36.1z"
			/>
		<path fill="#FFFFFF" d="M10.6,35L10.6,35l0-2c0-0.4-0.3-0.5-0.5-0.5h-0.1v-0.2c0.2,0,0.5,0,0.7,0c0.2,0,0.4,0,0.6,0v0.2h-0.1
			c-0.2,0-0.5,0-0.5,0.7v2.4c0,0.2,0,0.4,0,0.5h-0.2l-2.7-3v2.2c0,0.5,0.1,0.6,0.5,0.6h0.1V36c-0.2,0-0.4,0-0.7,0
			c-0.2,0-0.5,0-0.7,0v-0.2h0.1c0.4,0,0.5-0.2,0.5-0.7V33c0-0.3-0.2-0.5-0.5-0.5H7.2v-0.2c0.2,0,0.4,0,0.6,0c0.2,0,0.3,0,0.5,0
			L10.6,35z"/>
		<path fill="#FFFFFF" d="M10.6,35L10.6,35L10.6,35L10.6,35z M10.6,35L10.6,35L10.6,35z M10.7,36.1h0.2c0-0.2,0-0.3,0-0.5v-2.4
			c0-0.6,0.3-0.7,0.5-0.7h0.1v-0.1c-0.2,0-0.4,0-0.6,0c-0.2,0-0.5,0-0.7,0l0,0.1h0.1c0.2,0,0.5,0.1,0.5,0.5l0,2l0,0l0,0l-2.3-2.6
			c-0.2,0-0.3,0-0.5,0c-0.2,0-0.4,0-0.6,0v0.1h0c0.2,0,0.5,0.2,0.5,0.5v2.2c0,0.4-0.1,0.7-0.5,0.7l-0.1,0V36c0.2,0,0.5,0,0.7,0
			c0.2,0,0.4,0,0.7,0v-0.1H8.5c-0.4,0-0.5-0.2-0.5-0.6V33L10.7,36.1z M10.9,36.1l-0.2,0l-2.7-3v2.1c0,0.5,0.1,0.6,0.5,0.6h0.1v0v0.2
			h0c-0.2,0-0.5,0-0.7,0c-0.2,0-0.5,0-0.7,0h0v0v-0.2h0h0.1c0.3,0,0.4-0.2,0.4-0.6V33c0-0.3-0.2-0.4-0.5-0.4H7.2v0v-0.2h0
			c0.2,0,0.4,0,0.6,0c0.2,0,0.3,0,0.5,0l2.3,2.6V33c0-0.4-0.3-0.5-0.4-0.5H10v0v-0.2h0c0.2,0,0.5,0,0.7,0c0.2,0,0.4,0,0.6,0h0v0v0.2
			h0h-0.1c-0.2,0-0.4,0-0.4,0.6v2.4C10.9,35.8,10.9,35.9,10.9,36.1L10.9,36.1L10.9,36.1L10.9,36.1z"/>
		<path fill="#FFFFFF" d="M12.2,32.6c-0.4,0-0.4,0.1-0.5,0.5h-0.2c0-0.1,0-0.3,0.1-0.4c0-0.1,0-0.3,0-0.4h0.1c0,0.2,0.2,0.2,0.3,0.2
			h2.7c0.1,0,0.3,0,0.3-0.2l0.1,0c0,0.1,0,0.3-0.1,0.4c0,0.1,0,0.3,0,0.4L15,33.1c0-0.2,0-0.5-0.4-0.5h-0.9v2.8
			c0,0.4,0.2,0.4,0.4,0.4h0.1V36c-0.2,0-0.6,0-0.9,0c-0.3,0-0.7,0-0.9,0v-0.2h0.1c0.3,0,0.4,0,0.4-0.4v-2.8L12.2,32.6L12.2,32.6z"/>
		<path fill="#FFFFFF" d="M14.3,36.1c-0.2,0-0.6,0-0.9,0c-0.3,0-0.7,0-0.9,0h0v0v-0.2h0h0.1c0.3,0,0.4,0,0.4-0.4v-2.8h-0.8v0v0h0.9
			v2.8c0,0.4-0.2,0.5-0.5,0.5h-0.1V36c0.2,0,0.6,0,0.9,0C13.7,36,14.1,36,14.3,36.1l0-0.2h-0.1c-0.3,0-0.5-0.1-0.5-0.5v-2.8h0.9
			c0.4,0,0.4,0.3,0.4,0.5l0.1,0c0-0.1,0-0.3,0-0.4c0-0.1,0-0.3,0.1-0.4l-0.1,0c0,0.2-0.2,0.2-0.3,0.2h-2.7h0c-0.1,0-0.3,0-0.3-0.2
			h-0.1c0,0.1,0,0.3,0,0.4c0,0.1,0,0.3-0.1,0.4h0.1c0.1-0.4,0.1-0.5,0.5-0.5v0v0c-0.4,0-0.4,0.1-0.5,0.5l0,0h0h-0.2l0,0
			c0-0.1,0-0.3,0.1-0.4c0-0.1,0-0.3,0-0.4v0h0h0.1l0,0c0,0.1,0.1,0.1,0.3,0.1h0h2.7c0.1,0,0.3,0,0.3-0.1l0,0l0,0l0.1,0l0,0
			c0,0.1,0,0.3-0.1,0.4c0,0.1,0,0.3,0,0.4v0l0,0L15,33.2l0,0c0-0.2,0-0.5-0.4-0.5h-0.8v2.8c0,0.4,0.2,0.4,0.4,0.4h0.1v0L14.3,36.1
			L14.3,36.1L14.3,36.1z"/>
		<path fill="#FFFFFF" d="M15.4,35.9L15.4,35.9c0.3,0,0.5,0,0.5-0.3v-2.7c0-0.3-0.2-0.3-0.4-0.3h-0.1v-0.2c0.3,0,0.9,0,1.3,0
			c0.4,0,1,0,1.3,0c0,0.2,0,0.6,0,0.8l-0.2,0c0-0.3-0.1-0.6-0.6-0.6h-0.7V34h0.6c0.3,0,0.4-0.2,0.4-0.5h0.2c0,0.2,0,0.4,0,0.6
			c0,0.2,0,0.4,0,0.6l-0.2,0c0-0.3,0-0.5-0.4-0.5h-0.6v1.2c0,0.3,0.3,0.3,0.6,0.3c0.6,0,0.9,0,1.1-0.6l0.1,0
			c-0.1,0.3-0.1,0.6-0.2,0.8c-0.3,0-0.9,0-1.4,0c-0.5,0-1.1,0-1.4,0L15.4,35.9L15.4,35.9z"/>
		<path fill="#FFFFFF" d="M18.2,36c0-0.3,0.1-0.5,0.2-0.8l-0.1,0c-0.2,0.6-0.5,0.6-1.1,0.6c-0.3,0-0.7,0-0.7-0.4v-1.2h0.7
			c0.4,0,0.4,0.2,0.4,0.5l0.1,0c0-0.2,0-0.4,0-0.6c0-0.2,0-0.4,0-0.6h-0.1c0,0.3-0.1,0.5-0.4,0.5h-0.6v-1.4h0.8
			c0.5,0,0.6,0.3,0.7,0.6l0.1,0c0-0.1,0-0.3,0-0.5c0-0.1,0-0.2,0-0.3c-0.4,0-0.9,0-1.3,0c-0.4,0-1,0-1.3,0v0.1h0.1
			c0.2,0,0.4,0,0.4,0.3v2.7c0,0.3-0.2,0.3-0.4,0.3h-0.1V36c0.3,0,0.9,0,1.4,0C17.2,36,17.8,36,18.2,36 M18.2,36.1
			c-0.3,0-0.9,0-1.4,0c-0.5,0-1.1,0-1.4,0h0v0v-0.2v0h0h0.1c0.2,0,0.4,0,0.4-0.3v-2.7c0-0.3-0.2-0.3-0.4-0.3h-0.1v0v-0.2h0
			c0.3,0,0.9,0,1.3,0c0.4,0,1,0,1.3,0h0l0,0c0,0.1,0,0.2,0,0.3c0,0.2,0,0.4,0,0.5l0,0l0,0l-0.2,0l0,0c0-0.3-0.1-0.6-0.6-0.6h-0.7V34
			h0.6c0.3,0,0.4-0.2,0.4-0.4l0,0h0h0.2l0,0c0,0.2,0,0.4,0,0.6c0,0.2,0,0.4,0,0.6l0,0l0,0l-0.2,0l0,0c0-0.3,0-0.5-0.4-0.5h-0.6v1.2
			c0,0.3,0.3,0.3,0.6,0.3c0.6,0,0.9,0,1-0.6l0,0l0,0l0.2,0l0,0C18.3,35.5,18.3,35.8,18.2,36.1L18.2,36.1L18.2,36.1z"/>
		<path fill="#FFFFFF" d="M19.8,34.1H20c0.5,0,0.8-0.2,0.8-0.8c0-0.5-0.3-0.8-0.8-0.8c-0.2,0-0.2,0-0.3,0V34.1z M19.1,32.9
			c0-0.4-0.2-0.4-0.4-0.4h-0.1v-0.2c0.2,0,0.5,0,0.8,0c0.3,0,0.6,0,0.8,0c0.7,0,1.2,0.2,1.2,0.9c0,0.5-0.3,0.8-0.7,0.9l0.9,1.3
			c0.1,0.2,0.3,0.3,0.5,0.3V36c-0.2,0-0.3,0-0.5,0c-0.2,0-0.3,0-0.5,0c-0.4-0.5-0.8-1.1-1.1-1.7h-0.3v1.1c0,0.4,0.2,0.4,0.4,0.4h0.1
			V36c-0.3,0-0.6,0-0.9,0c-0.3,0-0.5,0-0.8,0v-0.2h0.1c0.2,0,0.4-0.1,0.4-0.3V32.9z"/>
		<path fill="#FFFFFF" d="M20,34.1c0.5,0,0.8-0.2,0.8-0.8c0-0.5-0.3-0.7-0.7-0.7c-0.1,0-0.2,0-0.3,0v1.5L20,34.1L20,34.1z
			 M19.8,34.2L19.8,34.2l0-1.6l0,0c0.1,0,0.1,0,0.3,0c0.5,0,0.8,0.3,0.8,0.8c0,0.6-0.3,0.8-0.8,0.8H19.8z M19.8,34.3h0.4l0,0
			c0.3,0.6,0.7,1.2,1.1,1.7c0.2,0,0.3,0,0.5,0c0.2,0,0.3,0,0.5,0v-0.1c-0.2,0-0.4-0.1-0.5-0.3l-0.9-1.4l0,0c0.4-0.2,0.7-0.4,0.7-0.9
			c0-0.7-0.6-0.9-1.2-0.9c-0.3,0-0.5,0-0.8,0c-0.3,0-0.6,0-0.8,0v0.1h0.1c0.2,0,0.4,0,0.4,0.4v2.7c0,0.2-0.2,0.3-0.4,0.3h-0.1V36
			c0.3,0,0.5,0,0.7,0c0.3,0,0.6,0,0.9,0v-0.1h-0.1c-0.2,0-0.5,0-0.5-0.4L19.8,34.3L19.8,34.3L19.8,34.3z M22.2,36.1
			c-0.2,0-0.3,0-0.5,0c-0.2,0-0.3,0-0.5,0c-0.4-0.5-0.7-1.1-1.1-1.7h-0.3v1.1c0,0.4,0.2,0.4,0.4,0.4h0.1v0v0.2h0c-0.3,0-0.6,0-0.9,0
			c-0.3,0-0.5,0-0.8,0h0v0v-0.2h0h0.1c0.2,0,0.3-0.1,0.3-0.3v-2.7c0-0.4-0.2-0.4-0.3-0.4h-0.1v0v-0.2h0c0.2,0,0.5,0,0.8,0
			c0.3,0,0.6,0,0.8,0c0.7,0,1.3,0.2,1.3,0.9c0,0.5-0.3,0.8-0.7,0.9l0.9,1.3c0.1,0.2,0.2,0.3,0.5,0.3l0,0v0L22.2,36.1L22.2,36.1
			L22.2,36.1z"/>
		<path fill="#FFFFFF" d="M25.8,35L25.8,35l0-2c0-0.4-0.3-0.5-0.5-0.5h-0.1v-0.2c0.2,0,0.5,0,0.7,0c0.2,0,0.4,0,0.6,0v0.2h-0.1
			c-0.2,0-0.5,0-0.5,0.7v2.4c0,0.2,0,0.4,0,0.5h-0.2l-2.7-3v2.2c0,0.5,0.1,0.6,0.5,0.6h0.1V36c-0.2,0-0.5,0-0.7,0
			c-0.2,0-0.5,0-0.7,0v-0.2h0.1c0.4,0,0.5-0.2,0.5-0.7V33c0-0.3-0.2-0.5-0.5-0.5h-0.1v-0.2c0.2,0,0.4,0,0.6,0c0.2,0,0.3,0,0.5,0
			L25.8,35z"/>
		<path fill="#FFFFFF" d="M25.7,35L25.7,35L25.7,35L25.7,35z M25.8,35L25.8,35L25.8,35z M25.9,36.1H26c0-0.2,0-0.3,0-0.5v-2.4
			c0-0.6,0.3-0.7,0.5-0.7h0.1v-0.1c-0.2,0-0.4,0-0.6,0c-0.2,0-0.5,0-0.7,0v0.1h0.1c0.2,0,0.5,0.1,0.5,0.5l0,2l0,0l0,0l-2.3-2.6
			c-0.2,0-0.3,0-0.5,0c-0.2,0-0.4,0-0.6,0v0.1h0c0.2,0,0.5,0.2,0.5,0.5v2.2c0,0.4-0.1,0.7-0.5,0.7l-0.1,0V36c0.2,0,0.5,0,0.7,0
			c0.2,0,0.4,0,0.7,0v-0.1h-0.1c-0.4,0-0.5-0.2-0.5-0.6V33L25.9,36.1z M26.1,36.1l-0.2,0l-2.7-3v2.1c0,0.5,0.1,0.6,0.5,0.6h0.1v0
			v0.2h0c-0.2,0-0.5,0-0.7,0c-0.2,0-0.5,0-0.7,0h0v0v-0.2h0h0.1c0.3,0,0.4-0.2,0.4-0.6V33c0-0.3-0.2-0.4-0.5-0.4h-0.1v0v-0.2h0
			c0.2,0,0.4,0,0.6,0c0.2,0,0.3,0,0.5,0l2.3,2.6V33c0-0.4-0.3-0.5-0.4-0.5h-0.1v0v-0.2h0c0.2,0,0.5,0,0.7,0c0.2,0,0.4,0,0.6,0h0v0
			v0.2h0h-0.1c-0.2,0-0.4,0-0.4,0.6v2.4C26,35.8,26,35.9,26.1,36.1L26.1,36.1L26.1,36.1z"/>
		<path fill="#FFFFFF" d="M28.2,33L28.2,33l-0.5,1.5h1L28.2,33z M27.4,35.3c-0.1,0.2-0.1,0.3-0.1,0.4c0,0.2,0.2,0.2,0.4,0.2h0.1V36
			c-0.2,0-0.4,0-0.6,0c-0.2,0-0.4,0-0.6,0v-0.2h0c0.2,0,0.4-0.1,0.5-0.3l0.8-2.4c0.1-0.2,0.2-0.5,0.2-0.6c0.2-0.1,0.4-0.2,0.5-0.2
			c0,0,0,0,0,0s0,0,0,0c0,0,0,0.1,0,0.1l1,2.7c0.1,0.2,0.1,0.4,0.2,0.5c0.1,0.1,0.2,0.2,0.3,0.2h0V36c-0.2,0-0.5,0-0.7,0
			c-0.3,0-0.5,0-0.8,0v-0.2h0.1c0.1,0,0.3,0,0.3-0.2c0-0.1,0-0.2-0.1-0.4l-0.2-0.6h-1.2L27.4,35.3z"/>
		<path fill="#FFFFFF" d="M28.2,33L28.2,33L28.2,33z M27.7,34.4h0.9L28.2,33L27.7,34.4z M27.6,34.5l0.5-1.5h0h0v0l0,0l0,0v0h0
			l0.5,1.5H27.6z M28.7,36c0.3,0,0.5,0,0.8,0c0.2,0,0.5,0,0.7,0v-0.1h0c-0.2,0-0.3-0.1-0.4-0.2c-0.1-0.2-0.1-0.4-0.2-0.5l-1-2.7
			c0,0,0-0.1,0-0.1c0,0,0,0,0,0h0c0,0,0,0,0,0c-0.1,0.1-0.3,0.2-0.5,0.2c0,0.2-0.1,0.5-0.2,0.7l-0.8,2.4c-0.1,0.2-0.3,0.4-0.5,0.4h0
			V36c0.2,0,0.4,0,0.5,0c0.2,0,0.4,0,0.6,0v-0.1h0c-0.2,0-0.4,0-0.4-0.2c0-0.1,0.1-0.2,0.1-0.4l0,0l0,0l0.2-0.6h1.2l0.2,0.6
			c0.1,0.2,0.1,0.3,0.1,0.4c0,0.2-0.2,0.2-0.3,0.2h0L28.7,36L28.7,36z M30.2,36.1c-0.2,0-0.5,0-0.7,0c-0.3,0-0.5,0-0.8,0l0,0v0v-0.2
			h0h0.1c0.1,0,0.3,0,0.3-0.1c0-0.1,0-0.2-0.1-0.4l-0.2-0.6h-1.2l-0.2,0.5c-0.1,0.2-0.1,0.3-0.1,0.4c0,0.1,0.2,0.2,0.4,0.2h0.1v0
			v0.2h0c-0.2,0-0.4,0-0.6,0c-0.2,0-0.4,0-0.6,0h0v0v-0.2h0h0c0.2,0,0.4-0.1,0.4-0.3l0.8-2.4c0.1-0.2,0.2-0.5,0.2-0.7
			c0.2-0.1,0.4-0.2,0.5-0.2c0,0,0,0,0,0c0,0,0,0,0.1,0c0,0,0,0.1,0,0.1l1,2.7c0.1,0.2,0.1,0.4,0.2,0.5c0.1,0.1,0.2,0.2,0.3,0.2h0.1
			v0L30.2,36.1L30.2,36.1z"/>
		<path fill="#FFFFFF" d="M30.4,32.6c-0.4,0-0.4,0.1-0.5,0.5h-0.2c0-0.1,0-0.3,0.1-0.4c0-0.1,0-0.3,0-0.4H30c0,0.2,0.2,0.2,0.3,0.2
			H33c0.1,0,0.3,0,0.3-0.2l0.1,0c0,0.1,0,0.3-0.1,0.4c0,0.1,0,0.3,0,0.4l-0.2,0.1c0-0.2,0-0.5-0.4-0.5H32v2.8c0,0.4,0.2,0.4,0.4,0.4
			h0.1V36c-0.2,0-0.6,0-0.9,0c-0.3,0-0.7,0-0.9,0v-0.2h0.1c0.3,0,0.4,0,0.4-0.4v-2.8L30.4,32.6L30.4,32.6z"/>
		<path fill="#FFFFFF" d="M32.5,36.1c-0.2,0-0.6,0-0.9,0c-0.3,0-0.7,0-0.9,0h0v0v-0.2h0h0.1c0.3,0,0.4,0,0.4-0.4v-2.8h-0.8v0v0h0.9
			v2.8c0,0.4-0.2,0.5-0.5,0.5h-0.1V36c0.2,0,0.6,0,0.9,0C31.9,36,32.3,36,32.5,36.1l0-0.2h-0.1c-0.3,0-0.5-0.1-0.5-0.5v-2.8h0.9
			c0.4,0,0.4,0.3,0.4,0.5l0.1,0c0-0.1,0-0.3,0-0.4c0-0.1,0-0.3,0.1-0.4l-0.1,0c0,0.2-0.2,0.2-0.3,0.2h-2.7h0c-0.1,0-0.3,0-0.3-0.2
			h-0.1c0,0.1,0,0.3,0,0.4c0,0.1,0,0.3-0.1,0.4h0.1c0.1-0.4,0.1-0.5,0.5-0.5v0v0c-0.4,0-0.4,0.1-0.5,0.5l0,0h0h-0.2l0,0
			c0-0.1,0-0.3,0.1-0.4c0-0.1,0-0.3,0-0.4v0h0H30l0,0c0,0.1,0.1,0.1,0.3,0.1c0,0,0,0,0,0H33c0.1,0,0.3,0,0.3-0.1l0,0l0,0l0.1,0l0,0
			c0,0.1,0,0.3-0.1,0.4c0,0.1,0,0.3,0,0.4v0l0,0l-0.2,0.1v0c0-0.2,0-0.5-0.4-0.5H32v2.8c0,0.4,0.2,0.4,0.4,0.4h0.1v0L32.5,36.1
			L32.5,36.1L32.5,36.1z"/>
		<path fill="#FFFFFF" d="M33.6,35.9L33.6,35.9c0.3,0,0.5,0,0.5-0.3v-2.7c0-0.3-0.2-0.3-0.4-0.3h-0.1v-0.2c0.2,0,0.5,0,0.8,0
			c0.3,0,0.6,0,0.8,0v0.2h-0.1c-0.2,0-0.4,0-0.4,0.3v2.7c0,0.3,0.2,0.3,0.4,0.3h0.1V36c-0.3,0-0.6,0-0.8,0c-0.3,0-0.6,0-0.8,0
			L33.6,35.9L33.6,35.9z"/>
		<path fill="#FFFFFF" d="M35.2,36v-0.1h0c-0.2,0-0.4,0-0.4-0.3v-2.7c0-0.3,0.2-0.3,0.4-0.3h0v-0.1c-0.2,0-0.5,0-0.8,0
			c-0.2,0-0.5,0-0.8,0v0.1h0.1c0.2,0,0.4,0,0.4,0.3v2.7c0,0.3-0.2,0.3-0.4,0.3h-0.1V36c0.2,0,0.5,0,0.7,0C34.7,36,35,36,35.2,36
			 M35.2,36.1c-0.3,0-0.6,0-0.8,0c-0.3,0-0.6,0-0.8,0h0v0v-0.2v0h0h0.1c0.2,0,0.4,0,0.4-0.3v-2.7c0-0.3-0.2-0.3-0.4-0.3h-0.1v0v-0.2
			h0c0.2,0,0.5,0,0.8,0c0.3,0,0.6,0,0.8,0h0v0v0.2h0h-0.1c-0.2,0-0.4,0-0.4,0.3v2.7c0,0.3,0.2,0.3,0.4,0.3h0.1v0L35.2,36.1
			L35.2,36.1L35.2,36.1z"/>
		<path fill="#FFFFFF" d="M37.4,35.9c1,0,1.2-0.9,1.2-1.7c0-0.8-0.4-1.7-1.3-1.7c-0.9,0-1.2,0.8-1.2,1.5
			C36.1,35,36.5,35.9,37.4,35.9 M37.3,32.3c1.1,0,2,0.7,2,1.8c0,1.2-0.9,2-2,2c-1.1,0-2-0.8-2-1.9C35.4,33.1,36.2,32.3,37.3,32.3"/>
		<path fill="#FFFFFF" d="M36.1,34c0-0.7,0.3-1.5,1.2-1.5c0.9,0,1.3,0.9,1.3,1.7c0,0.8-0.2,1.7-1.2,1.7v0v0c1,0,1.2-0.9,1.2-1.6
			c0-0.8-0.4-1.7-1.3-1.7C36.4,32.6,36.1,33.3,36.1,34c0,0.9,0.5,1.8,1.3,1.8v0v0C36.5,35.9,36.1,35,36.1,34 M35.4,34.2
			c0-1.1,0.9-2,2-2v0v0C36.2,32.3,35.4,33.2,35.4,34.2c0,1.1,0.9,1.9,2,1.9c1.1,0,2-0.8,2-2c0-1.1-0.9-1.8-2-1.8v0v0
			c1.1,0,2,0.7,2,1.8c0,1.2-0.9,2-2,2C36.2,36.1,35.4,35.4,35.4,34.2"/>
		<path fill="#FFFFFF" d="M42.9,35L42.9,35l0-2c0-0.4-0.3-0.5-0.5-0.5h-0.1v-0.2c0.2,0,0.5,0,0.7,0c0.2,0,0.4,0,0.6,0v0.2h-0.1
			c-0.2,0-0.5,0-0.5,0.7v2.4c0,0.2,0,0.4,0,0.5H43l-2.7-3v2.2c0,0.5,0.1,0.6,0.5,0.6h0.1V36c-0.2,0-0.4,0-0.7,0c-0.2,0-0.5,0-0.7,0
			v-0.2h0.1c0.4,0,0.5-0.2,0.5-0.7V33c0-0.3-0.2-0.5-0.5-0.5h-0.1v-0.2c0.2,0,0.4,0,0.6,0c0.2,0,0.3,0,0.5,0L42.9,35z"/>
		<path fill="#FFFFFF" d="M42.8,35L42.8,35L42.8,35L42.8,35z M42.9,35L42.9,35L42.9,35z M43,36.1h0.2c0-0.2,0-0.3,0-0.5v-2.4
			c0-0.6,0.3-0.7,0.5-0.7h0.1v-0.1c-0.2,0-0.4,0-0.6,0c-0.2,0-0.5,0-0.7,0v0.1h0.1c0.2,0,0.5,0.1,0.5,0.5l0,2l0,0l0,0l-2.3-2.6
			c-0.2,0-0.3,0-0.5,0c-0.2,0-0.4,0-0.6,0v0.1h0c0.2,0,0.5,0.2,0.5,0.5v2.2c0,0.4-0.1,0.7-0.5,0.7l-0.1,0V36c0.2,0,0.5,0,0.7,0
			c0.2,0,0.4,0,0.7,0v-0.1h-0.1c-0.4,0-0.5-0.2-0.5-0.6V33L43,36.1z M43.2,36.1l-0.2,0l-2.7-3v2.1c0,0.5,0.1,0.6,0.5,0.6h0.1v0v0.2
			h0c-0.2,0-0.5,0-0.7,0c-0.2,0-0.5,0-0.7,0h0v0v-0.2h0h0.1c0.3,0,0.4-0.2,0.4-0.6V33c0-0.3-0.2-0.4-0.5-0.4h-0.1v0v-0.2h0
			c0.2,0,0.4,0,0.6,0c0.2,0,0.3,0,0.5,0l2.3,2.6V33c0-0.4-0.3-0.5-0.4-0.5h-0.1v0v-0.2h0c0.2,0,0.5,0,0.7,0c0.2,0,0.4,0,0.6,0h0v0
			v0.2h0h-0.1c-0.2,0-0.4,0-0.4,0.6v2.4C43.2,35.8,43.2,35.9,43.2,36.1L43.2,36.1L43.2,36.1z"/>
		<path fill="#FFFFFF" d="M45.3,33L45.3,33l-0.5,1.5h1L45.3,33z M44.5,35.3c-0.1,0.2-0.1,0.3-0.1,0.4c0,0.2,0.2,0.2,0.4,0.2h0.1V36
			c-0.2,0-0.4,0-0.6,0c-0.2,0-0.4,0-0.6,0v-0.2h0c0.2,0,0.4-0.1,0.5-0.3l0.8-2.4c0.1-0.2,0.2-0.5,0.2-0.6c0.2-0.1,0.4-0.2,0.5-0.2
			c0,0,0,0,0,0c0,0,0,0,0,0c0,0,0,0.1,0,0.1l1,2.7c0.1,0.2,0.1,0.4,0.2,0.5c0.1,0.1,0.2,0.2,0.3,0.2h0V36c-0.2,0-0.5,0-0.7,0
			c-0.3,0-0.5,0-0.8,0v-0.2h0.1c0.1,0,0.3,0,0.3-0.2c0-0.1,0-0.2-0.1-0.4l-0.2-0.6h-1.2L44.5,35.3z"/>
		<path fill="#FFFFFF" d="M45.3,33L45.3,33L45.3,33z M44.8,34.4h0.9L45.3,33L44.8,34.4z M44.8,34.5l0.5-1.5h0h0v0l0,0l0,0v0h0
			l0.5,1.5H44.8z M45.8,36c0.3,0,0.5,0,0.8,0c0.2,0,0.5,0,0.7,0l0-0.1h0c-0.2,0-0.3-0.1-0.4-0.2c-0.1-0.2-0.1-0.4-0.2-0.5l-1-2.7
			c0,0,0-0.1,0-0.1c0,0,0,0,0,0h0c0,0,0,0,0,0c-0.1,0.1-0.3,0.2-0.5,0.2c0,0.2-0.1,0.5-0.2,0.7l-0.8,2.4c-0.1,0.2-0.3,0.4-0.5,0.4h0
			V36c0.2,0,0.4,0,0.5,0c0.2,0,0.4,0,0.6,0v-0.1h0c-0.2,0-0.4,0-0.4-0.2c0-0.1,0.1-0.2,0.1-0.4l0,0l0,0l0.2-0.6h1.2l0.2,0.6
			c0.1,0.2,0.1,0.3,0.1,0.4c0,0.2-0.2,0.2-0.3,0.2h0L45.8,36L45.8,36z M47.3,36.1c-0.2,0-0.5,0-0.7,0c-0.3,0-0.5,0-0.8,0l0,0v0v-0.2
			h0h0.1c0.1,0,0.3,0,0.3-0.1c0-0.1,0-0.2-0.1-0.4l-0.2-0.6h-1.2l-0.2,0.5c-0.1,0.2-0.1,0.3-0.1,0.4c0,0.1,0.2,0.2,0.4,0.2h0.1v0
			v0.2h0c-0.2,0-0.4,0-0.6,0c-0.2,0-0.4,0-0.6,0h0v0v-0.2h0h0c0.2,0,0.4-0.1,0.4-0.3l0.8-2.4c0.1-0.2,0.2-0.5,0.2-0.7
			c0.2-0.1,0.4-0.2,0.5-0.2c0,0,0,0,0,0c0,0,0,0,0.1,0c0,0,0,0.1,0,0.1l1,2.7c0.1,0.2,0.1,0.4,0.2,0.5c0.1,0.1,0.2,0.2,0.3,0.2h0.1
			v0L47.3,36.1L47.3,36.1z"/>
		<path fill="#FFFFFF" d="M48.6,35.5c0,0.2,0.1,0.3,0.3,0.3c0.2,0,0.4,0,0.7,0c0.2,0,0.4-0.2,0.5-0.3c0.1-0.1,0.1-0.3,0.2-0.4h0.2
			c-0.1,0.3-0.1,0.6-0.2,0.9c-0.5,0-0.9,0-1.4,0c-0.5,0-0.9,0-1.4,0v-0.2h0.1c0.2,0,0.4,0,0.4-0.4v-2.7c0-0.3-0.2-0.3-0.4-0.3h-0.1
			v-0.2c0.3,0,0.5,0,0.8,0c0.3,0,0.5,0,0.8,0v0.2H49c-0.2,0-0.4,0-0.4,0.3L48.6,35.5L48.6,35.5z"/>
		<path fill="#FFFFFF" d="M50.2,36c0.1-0.3,0.1-0.6,0.2-0.8h-0.1c0,0.1-0.1,0.3-0.2,0.4c-0.1,0.1-0.3,0.3-0.5,0.3
			c-0.1,0-0.3,0-0.4,0c-0.1,0-0.2,0-0.3,0c-0.2,0-0.3-0.1-0.3-0.3v-2.7c0-0.3,0.2-0.3,0.4-0.3h0.1v-0.1c-0.3,0-0.5,0-0.8,0
			c-0.3,0-0.5,0-0.8,0v0.1h0.1c0.2,0,0.4,0,0.4,0.3v2.7c0,0.3-0.2,0.4-0.4,0.4h-0.1V36c0.5,0,0.9,0,1.4,0C49.3,36,49.8,36,50.2,36
			 M50.3,36.1c-0.5,0-0.9,0-1.4,0c-0.5,0-0.9,0-1.4,0h0v0v-0.2h0h0.1c0.2,0,0.4,0,0.4-0.3v-2.7c0-0.3-0.2-0.3-0.4-0.3h-0.1v0v-0.2h0
			c0.3,0,0.6,0,0.8,0c0.3,0,0.5,0,0.8,0h0v0v0.2h0H49c-0.2,0-0.3,0-0.3,0.3v2.7c0,0.2,0.1,0.2,0.3,0.3c0.1,0,0.2,0,0.3,0
			c0.1,0,0.3,0,0.4,0c0.2,0,0.4-0.1,0.5-0.3c0.1-0.1,0.1-0.3,0.2-0.4l0,0h0h0.2l0,0C50.4,35.4,50.3,35.7,50.3,36.1L50.3,36.1
			L50.3,36.1L50.3,36.1z"/>
		<path fill="#FFFFFF" d="M50.3,32.8L50.3,32.8c0.1,0,0.2-0.1,0.2-0.1c0-0.1-0.1-0.1-0.1-0.1h-0.1L50.3,32.8L50.3,32.8z M50.1,33.1
			L50.1,33.1C50.2,33,50.2,33,50.1,33.1l0.1-0.5c0-0.1,0-0.1-0.1-0.1v0h0.3c0.1,0,0.2,0,0.2,0.1c0,0.1-0.1,0.1-0.1,0.2l0.1,0.1
			c0,0.1,0.1,0.1,0.1,0.1v0h-0.1c-0.1,0-0.1-0.1-0.2-0.3h-0.1V33c0,0,0,0,0.1,0v0H50.1z M50.4,33.2c0.2,0,0.4-0.2,0.4-0.4
			c0-0.2-0.2-0.4-0.4-0.4c-0.2,0-0.4,0.2-0.4,0.4C50,33,50.1,33.2,50.4,33.2 M50.4,32.2c0.3,0,0.6,0.2,0.6,0.6s-0.2,0.6-0.6,0.6
			c-0.3,0-0.6-0.2-0.6-0.6S50.1,32.2,50.4,32.2"/>
	</g>
</g>
</svg>
