<?xml version="1.0" encoding="utf-8"?>
<!-- Generator: Adobe Illustrator 16.0.0, SVG Export Plug-In . SVG Version: 6.00 Build 0)  -->
<!DOCTYPE svg PUBLIC "-//W3C//DTD SVG 1.1//EN" "http://www.w3.org/Graphics/SVG/1.1/DTD/svg11.dtd">
<svg version="1.1" id="Layer_1" xmlns="http://www.w3.org/2000/svg" xmlns:xlink="http://www.w3.org/1999/xlink" x="0px" y="0px"
	 width="105.4px" height="27.3px" viewBox="0 0 105.4 27.3" enable-background="new 0 0 105.4 27.3" xml:space="preserve">
<g>
	<path fill="#0064A7" d="M20.2,27.3c7.5,0,14.3-6.1,14.3-13.5C34.5,5.6,27.7,0,20.2,0h-6.4C6.2,0,0,5.6,0,13.8
		c0,7.4,6.2,13.6,13.8,13.5H20.2z"/>
	<path fill="#FFFFFF" d="M16.6,21V6.2c3,1.1,5.1,4,5.1,7.4C21.7,17,19.6,19.9,16.6,21 M5.9,13.6c0-3.4,2.1-6.2,5.1-7.4V21
		C8,19.9,5.9,17,5.9,13.6 M13.8,1.1C6.9,1.1,1.3,6.7,1.3,13.6c0,6.9,5.6,12.5,12.5,12.5c6.9,0,12.5-5.6,12.5-12.5
		C26.3,6.7,20.7,1.1,13.8,1.1"/>
	<path fill="#0064A7" d="M20.2,27.3c7.5,0,14.3-6.1,14.3-13.5C34.5,5.6,27.7,0,20.2,0h-6.4C6.2,0,0,5.6,0,13.8
		c0,7.4,6.2,13.6,13.8,13.5H20.2z"/>
	<path fill="#FFFFFF" d="M16.6,21V6.2c3,1.1,5.1,4,5.1,7.4C21.7,17,19.6,19.9,16.6,21 M5.9,13.6c0-3.4,2.1-6.2,5.1-7.4V21
		C8,19.9,5.9,17,5.9,13.6 M13.8,1.1C6.9,1.1,1.3,6.7,1.3,13.6c0,6.9,5.6,12.5,12.5,12.5c6.9,0,12.5-5.6,12.5-12.5
		C26.3,6.7,20.7,1.1,13.8,1.1"/>
	<g>
		<path d="M40.2,12.6c0,1.1,0.8,1.2,1.5,1.2c3.1,0,4.1-2.3,4.1-4.5c0-2.7-1.7-4.6-4.5-4.6c-0.6,0-0.9,0-1.1,0.1V12.6z M38.8,5.9
			c0-1.3-0.7-1.2-1.3-1.2V4.3c0.6,0,1.1,0,1.7,0c0.6,0,1.4,0,2.5,0c3.7,0,5.7,2.5,5.7,5c0,1.4-0.8,5-5.9,5c-0.7,0-1.4,0-2.1,0
			c-0.6,0-1.3,0-1.9,0v-0.4c0.9-0.1,1.3-0.1,1.3-1.1L38.8,5.9L38.8,5.9z"/>
		<path d="M49.5,5.5c-0.4,0-0.7-0.3-0.7-0.7c0-0.4,0.3-0.7,0.7-0.7c0.4,0,0.7,0.3,0.7,0.7C50.2,5.2,49.9,5.5,49.5,5.5 M47.9,13.9
			h0.3c0.4,0,0.7,0,0.7-0.5V9.6c0-0.6-0.2-0.7-0.7-1V8.3c0.7-0.2,1.5-0.5,1.5-0.5c0.1-0.1,0.2-0.1,0.3-0.1c0.1,0,0.1,0.1,0.1,0.2
			v5.5c0,0.5,0.3,0.5,0.7,0.5H51v0.4c-0.5,0-1,0-1.5,0c-0.5,0-1,0-1.6,0L47.9,13.9L47.9,13.9z"/>
		<path d="M52.4,9.6c0-0.5-0.2-0.7-0.8-0.9V8.4c0.6-0.2,1.2-0.4,1.9-0.7c0,0,0.1,0,0.1,0.1v0.9c0.8-0.6,1.5-1.1,2.5-1.1
			c1.2,0,1.7,0.9,1.7,2v3.7c0,0.5,0.3,0.5,0.7,0.5h0.3v0.4c-0.5,0-1,0-1.5,0c-0.5,0-1,0-1.6,0v-0.4h0.3c0.4,0,0.7,0,0.7-0.5V9.7
			c0-0.8-0.5-1.2-1.3-1.2c-0.5,0-1.2,0.4-1.7,0.7v4.2c0,0.5,0.3,0.5,0.7,0.5h0.3v0.4c-0.5,0-1,0-1.5,0c-0.5,0-1,0-1.6,0v-0.4h0.3
			c0.4,0,0.7,0,0.7-0.5L52.4,9.6L52.4,9.6z"/>
		<path d="M62.3,9.9c0.4,0,0.4-0.2,0.4-0.4c0-0.7-0.4-1.3-1.2-1.3c-0.9,0-1.5,0.6-1.7,1.7L62.3,9.9L62.3,9.9z M59.7,10.3
			c0,0.1,0,0.3,0,0.8c0.1,1.4,1,2.5,2.1,2.5c0.8,0,1.4-0.4,1.9-1l0.2,0.2c-0.7,0.9-1.5,1.6-2.7,1.6c-2.3,0-2.7-2.2-2.7-3.1
			c0-2.8,1.9-3.6,2.9-3.6c1.2,0,2.4,0.7,2.4,2.3c0,0.1,0,0.2,0,0.3l-0.1,0.1H59.7z"/>
		<path d="M64.2,13.9h0.4c0.4,0,0.7,0,0.7-0.5v-4c0-0.4-0.5-0.5-0.7-0.6V8.6c1-0.4,1.6-0.8,1.8-0.8c0.1,0,0.1,0,0.1,0.2v1.3h0
			c0.4-0.6,1-1.5,1.8-1.5c0.4,0,0.8,0.2,0.8,0.8c0,0.4-0.3,0.7-0.7,0.7c-0.4,0-0.4-0.3-0.9-0.3c-0.2,0-1,0.3-1,1.2v3.4
			c0,0.5,0.3,0.5,0.7,0.5H68v0.4c-0.8,0-1.4,0-2,0c-0.6,0-1.2,0-1.7,0L64.2,13.9L64.2,13.9z"/>
		<path d="M69.8,12.3c0.2,0.9,0.8,1.8,1.8,1.8c0.8,0,1.2-0.5,1.2-1c0-1.7-3.1-1.1-3.1-3.5c0-0.8,0.6-1.8,2.2-1.8
			c0.5,0,1.1,0.1,1.6,0.4l0.1,1.5h-0.3c-0.1-0.9-0.6-1.4-1.6-1.4c-0.6,0-1.1,0.3-1.1,0.9c0,1.7,3.3,1.2,3.3,3.4c0,0.9-0.8,2-2.5,2
			c-0.6,0-1.3-0.2-1.8-0.5l-0.2-1.7L69.8,12.3z"/>
		<path d="M86.9,6.9h-0.4c-0.3-1.7-1.5-2.4-3.1-2.4c-1.7,0-4.1,1.1-4.1,4.6c0,2.9,2.1,5,4.3,5c1.4,0,2.6-1,2.9-2.5l0.3,0.1l-0.3,2.1
			c-0.6,0.4-2.2,0.8-3.2,0.8c-3.4,0-5.5-2.2-5.5-5.4c0-2.9,2.6-5.1,5.4-5.1c1.2,0,2.3,0.4,3.4,0.8L86.9,6.9z"/>
		<path d="M87.4,13.9h0.3c0.4,0,0.7,0,0.7-0.5v-8c0-0.9-0.2-1-0.8-1.1V4.1c0.6-0.2,1.2-0.4,1.5-0.6c0.2-0.1,0.3-0.2,0.3-0.2
			c0.1,0,0.1,0.1,0.1,0.2v9.9c0,0.5,0.3,0.5,0.7,0.5h0.2v0.4c-0.5,0-1,0-1.5,0s-1,0-1.6,0L87.4,13.9L87.4,13.9z"/>
		<path d="M96.6,13.5c0,0.3,0.2,0.3,0.4,0.3c0.2,0,0.4,0,0.6,0v0.3c-0.6,0.1-1.8,0.4-2.1,0.4l-0.1,0v-1.2c-0.9,0.7-1.5,1.2-2.5,1.2
			c-0.8,0-1.6-0.5-1.6-1.7V9.1c0-0.4-0.1-0.7-0.9-0.8V8.1C91,8,92.1,8,92.3,8c0.2,0,0.2,0.1,0.2,0.4v3.7c0,0.4,0,1.7,1.2,1.7
			c0.5,0,1.1-0.4,1.7-0.9V9c0-0.3-0.7-0.4-1.2-0.6V8.2C95.5,8.1,96.3,8,96.5,8c0.1,0,0.1,0.1,0.1,0.3V13.5z"/>
		<path d="M99.5,12.7c0,0.5,0.5,1.5,1.5,1.5c1.5,0,2.2-1.5,2.2-2.8c0-1.5-1.2-2.8-2.3-2.8c-0.5,0-1,0.3-1.4,0.7L99.5,12.7L99.5,12.7
			z M99.5,8.8c0.6-0.5,1.3-1,2.1-1c1.7,0,2.7,1.4,2.7,3c0,1.9-1.4,3.8-3.4,3.8c-1.1,0-1.6-0.3-2-0.5l-0.4,0.3l-0.3-0.2
			c0.1-0.8,0.2-1.7,0.2-2.6V5.5c0-0.9-0.2-1-0.8-1.1V4.1c0.6-0.2,1.2-0.4,1.5-0.6c0.2-0.1,0.3-0.2,0.3-0.2c0.1,0,0.1,0.1,0.1,0.2
			L99.5,8.8L99.5,8.8z"/>
		<path d="M37.5,22.7h0.1c0.3,0,0.6,0,0.6-0.4v-4.1c0-0.4-0.3-0.4-0.6-0.4h-0.1v-0.2c0.3,0,0.8,0,1.2,0c0.4,0,0.9,0,1.2,0v0.2h-0.1
			c-0.3,0-0.6,0-0.6,0.4v4.1c0,0.4,0.3,0.4,0.6,0.4h0.1v0.2c-0.4,0-0.8,0-1.2,0c-0.4,0-0.8,0-1.2,0L37.5,22.7L37.5,22.7z"/>
		<path d="M39.9,22.9v-0.2h-0.1c-0.3,0-0.6,0-0.6-0.5v-4.1c0-0.4,0.3-0.5,0.6-0.5h0.1v-0.2c-0.4,0-0.8,0-1.2,0c-0.4,0-0.8,0-1.1,0
			v0.2h0.1c0.3,0,0.6,0,0.6,0.5v4.1c0,0.4-0.3,0.5-0.6,0.5h-0.1v0.2c0.3,0,0.7,0,1.1,0C39,22.8,39.5,22.9,39.9,22.9 M39.9,22.9
			c-0.4,0-0.8,0-1.2,0c-0.4,0-0.8,0-1.1,0h0v0v-0.2v0h0h0.1c0.3,0,0.5,0,0.5-0.4v-4.1c0-0.4-0.3-0.4-0.5-0.4h-0.1v0v-0.3h0
			c0.3,0,0.8,0,1.2,0c0.4,0,0.9,0,1.2,0h0v0v0.3h0h-0.1c-0.3,0-0.5,0-0.5,0.4v4.1c0,0.4,0.3,0.4,0.5,0.4h0.1v0L39.9,22.9L39.9,22.9z
			"/>
		<path d="M45.3,21.3L45.3,21.3l0-2.9c0-0.6-0.4-0.7-0.7-0.7h-0.2v-0.2c0.4,0,0.7,0,1.1,0c0.3,0,0.6,0,1,0v0.2h-0.1
			c-0.3,0-0.7,0.1-0.7,1v3.6c0,0.3,0,0.5,0,0.8h-0.3l-4-4.5v3.2c0,0.7,0.1,0.9,0.7,0.9h0.1v0.2c-0.3,0-0.7,0-1,0c-0.4,0-0.7,0-1.1,0
			v-0.2h0.1c0.5,0,0.7-0.4,0.7-1v-3.3c0-0.4-0.4-0.7-0.7-0.7h-0.1v-0.2c0.3,0,0.6,0,0.9,0c0.2,0,0.5,0,0.7,0L45.3,21.3z"/>
		<path d="M45.2,21.3L45.2,21.3L45.2,21.3L45.2,21.3z M45.3,21.3L45.3,21.3L45.3,21.3z M45.4,23h0.3c0-0.2,0-0.5,0-0.8v-3.6
			c0-0.9,0.4-1,0.7-1h0.1v-0.2c-0.3,0-0.6,0-0.9,0c-0.4,0-0.7,0-1.1,0l0,0.2h0.1c0.2,0,0.7,0.1,0.7,0.8l0,3l0,0l0,0l-3.5-3.9
			c-0.2,0-0.5,0-0.7,0c-0.3,0-0.6,0-0.9,0l0,0.2h0.1c0.4,0,0.7,0.3,0.7,0.7v3.3c0,0.6-0.2,1-0.7,1l-0.1,0v0.2c0.3,0,0.7,0,1,0
			c0.3,0,0.6,0,1,0v-0.2h-0.1c-0.6,0-0.8-0.3-0.8-0.9v-3.3L45.4,23z M45.7,23l-0.3,0l-4-4.4v3.1c0,0.7,0.1,0.9,0.7,0.9h0.2v0v0.3h0
			c-0.3,0-0.7,0-1,0c-0.4,0-0.7,0-1.1,0h0v0v-0.3h0h0.1c0.5,0,0.7-0.3,0.7-1v-3.3c0-0.4-0.3-0.7-0.7-0.7h-0.1v0v-0.3h0
			c0.3,0,0.6,0,0.9,0c0.2,0,0.5,0,0.7,0l3.4,3.9v-2.9c0-0.6-0.4-0.7-0.6-0.7h-0.2v0v-0.3h0c0.4,0,0.7,0,1.1,0c0.3,0,0.6,0,1,0h0v0
			v0.3h0h-0.1c-0.3,0-0.7,0-0.7,1v3.6C45.7,22.5,45.7,22.8,45.7,23L45.7,23L45.7,23z"/>
		<path d="M47.6,17.8c-0.6,0-0.6,0.1-0.7,0.7h-0.2c0-0.2,0.1-0.4,0.1-0.7c0-0.2,0-0.4,0-0.7H47c0.1,0.2,0.3,0.2,0.5,0.2h4
			c0.2,0,0.4,0,0.4-0.2l0.2,0c0,0.2-0.1,0.4-0.1,0.6c0,0.2,0,0.4,0,0.6l-0.2,0.1c0-0.3-0.1-0.8-0.6-0.8h-1.3V22
			c0,0.6,0.3,0.7,0.6,0.7h0.1v0.2c-0.3,0-0.9,0-1.3,0c-0.5,0-1,0-1.3,0v-0.2h0.1c0.4,0,0.6,0,0.6-0.7v-4.2H47.6L47.6,17.8z"/>
		<path d="M50.7,22.9c-0.3,0-0.9,0-1.3,0c-0.5,0-1,0-1.3,0h0v0v-0.3h0h0.1c0.4,0,0.6,0,0.6-0.6v-4.1h-1.2v0v0H49V22
			c0,0.6-0.3,0.7-0.7,0.7h-0.1v0.2c0.3,0,0.8,0,1.3,0C49.9,22.8,50.4,22.8,50.7,22.9l0-0.2h-0.1c-0.4,0-0.7-0.1-0.7-0.7v-4.2h1.3
			c0.5,0,0.6,0.4,0.6,0.7l0.2-0.1c0-0.2,0-0.4,0-0.6c0-0.2,0.1-0.4,0.1-0.6l-0.1,0c0,0.2-0.3,0.2-0.5,0.2h-4h0c-0.2,0-0.4,0-0.5-0.2
			h-0.1c0,0.2,0,0.4,0,0.6c0,0.2-0.1,0.4-0.1,0.6h0.2c0.1-0.5,0.2-0.7,0.8-0.7v0v0c-0.6,0-0.6,0.1-0.7,0.7l0,0h0h-0.3l0,0
			c0-0.2,0.1-0.4,0.1-0.7c0-0.2,0-0.4,0-0.7v0h0H47l0,0c0.1,0.2,0.2,0.2,0.4,0.2h0h4c0.2,0,0.4,0,0.4-0.2l0,0l0,0l0.2,0l0,0
			c0,0.2-0.1,0.4-0.1,0.6c0,0.2,0,0.4,0,0.6v0l0,0l-0.3,0.1l0,0c0-0.3-0.1-0.7-0.5-0.7H50V22c0,0.6,0.2,0.6,0.6,0.6h0.2v0L50.7,22.9
			L50.7,22.9L50.7,22.9z"/>
		<path d="M52.4,22.7h0.1c0.3,0,0.6,0,0.6-0.4v-4.1c0-0.4-0.3-0.4-0.6-0.4h-0.1v-0.2c0.5,0,1.3,0,1.9,0c0.7,0,1.5,0,2,0
			c0,0.3,0,0.9,0,1.2l-0.2,0.1c0-0.5-0.1-0.9-1-0.9h-1.1v2H55c0.5,0,0.6-0.3,0.6-0.7h0.2c0,0.3,0,0.6,0,0.9c0,0.3,0,0.6,0,0.9
			l-0.2,0c0-0.5-0.1-0.8-0.6-0.8h-0.9V22c0,0.5,0.4,0.5,0.9,0.5c0.9,0,1.4-0.1,1.6-1l0.2,0.1c-0.1,0.4-0.2,0.8-0.3,1.2
			c-0.5,0-1.4,0-2.1,0c-0.7,0-1.6,0-2.1,0V22.7z"/>
		<path d="M56.5,22.9c0.1-0.4,0.2-0.8,0.3-1.2l-0.2,0c-0.2,0.9-0.7,1-1.6,0.9c-0.5,0-1,0-1-0.5v-1.9h1c0.5,0,0.6,0.3,0.6,0.8l0.2,0
			c0-0.3,0-0.6,0-0.9c0-0.3,0-0.6,0-0.9h-0.2c0,0.4-0.2,0.7-0.6,0.7h-1v-2.1h1.1c0.8,0,0.9,0.4,1,0.9l0.2,0c0-0.2,0-0.5,0-0.8
			c0-0.1,0-0.3,0-0.4c-0.5,0-1.3,0-2,0s-1.4,0-1.9,0v0.2h0.1c0.3,0,0.6,0,0.6,0.5v4.1c0,0.4-0.3,0.5-0.6,0.5h-0.1v0.2
			c0.5,0,1.4,0,2,0C55.1,22.8,56,22.9,56.5,22.9 M56.6,22.9c-0.5,0-1.4,0-2.1,0c-0.7,0-1.6,0-2.1,0h0v0v-0.2v0h0h0.1
			c0.3,0,0.5,0,0.5-0.4v-4.1c0-0.4-0.3-0.4-0.5-0.4h-0.1v0v-0.3h0c0.5,0,1.3,0,1.9,0c0.7,0,1.5,0,2,0h0v0c0,0.1,0,0.3,0,0.4
			c0,0.3,0,0.6,0,0.8v0l0,0l-0.3,0.1l0,0c0-0.5-0.1-0.9-0.9-0.9h-1.1v2H55c0.5,0,0.5-0.2,0.6-0.7l0,0h0h0.3v0c0,0.3,0,0.6,0,0.9
			c0,0.3,0,0.6,0,0.9v0l0,0L55.6,21l0,0c-0.1-0.5-0.1-0.7-0.6-0.7h-0.9V22c0,0.5,0.4,0.5,0.9,0.5c0.9,0,1.3-0.1,1.6-0.9l0,0l0,0
			l0.3,0.1l0,0C56.8,22.1,56.7,22.5,56.6,22.9L56.6,22.9L56.6,22.9z"/>
		<path d="M58.9,20.1h0.4c0.8,0,1.2-0.3,1.2-1.2c0-0.7-0.4-1.1-1.1-1.1c-0.2,0-0.3,0-0.4,0V20.1z M57.9,18.3c0-0.6-0.3-0.6-0.6-0.6
			h-0.1v-0.2c0.3,0,0.7,0,1.2,0c0.5,0,0.8,0,1.3,0c1,0,1.9,0.3,1.9,1.4c0,0.7-0.5,1.1-1.1,1.4l1.3,2c0.2,0.3,0.4,0.4,0.8,0.5v0.2
			c-0.3,0-0.5,0-0.8,0c-0.2,0-0.5,0-0.7,0c-0.6-0.8-1.1-1.6-1.6-2.5h-0.5V22c0,0.6,0.3,0.6,0.6,0.6h0.1v0.2c-0.4,0-0.9,0-1.3,0
			c-0.4,0-0.7,0-1.1,0v-0.2h0.1c0.3,0,0.6-0.1,0.6-0.4V18.3z"/>
		<path d="M59.3,20c0.8,0,1.2-0.3,1.2-1.2c0-0.7-0.4-1.1-1.1-1.1c-0.2,0-0.3,0-0.4,0V20H59.3z M58.9,20.1L58.9,20.1l0-2.4l0,0
			c0.1,0,0.2,0,0.4,0c0.7,0,1.2,0.5,1.2,1.2c0,0.9-0.5,1.3-1.2,1.3H58.9z M58.9,20.3h0.5l0,0c0.5,0.9,1,1.7,1.6,2.5
			c0.2,0,0.5,0,0.7,0c0.3,0,0.5,0,0.7,0v-0.2c-0.4,0-0.5-0.2-0.8-0.5l-1.4-2l0,0c0.6-0.2,1.1-0.7,1.1-1.3c0-1.1-0.8-1.3-1.8-1.3
			c-0.4,0-0.8,0-1.3,0c-0.5,0-0.9,0-1.2,0v0.2h0.1c0.2,0,0.6,0,0.6,0.6v4c0,0.3-0.3,0.5-0.6,0.5h-0.1v0.2c0.4,0,0.7,0,1.1,0
			c0.4,0,0.9,0,1.3,0v-0.2h-0.1c-0.4,0-0.7,0-0.7-0.7L58.9,20.3L58.9,20.3z M62.5,22.9c-0.3,0-0.5,0-0.8,0c-0.2,0-0.5,0-0.8,0
			c-0.6-0.8-1.1-1.6-1.6-2.5h-0.5V22c0,0.6,0.2,0.6,0.6,0.6h0.2v0v0.3h0c-0.4,0-0.9,0-1.3,0c-0.4,0-0.7,0-1.1,0h0v0v-0.3h0h0.1
			c0.3,0,0.5-0.1,0.5-0.4v-4c0-0.6-0.3-0.6-0.5-0.6h-0.2v0v-0.3h0c0.3,0,0.7,0,1.2,0c0.5,0,0.8,0,1.3,0c1,0,1.9,0.3,1.9,1.4
			c0,0.7-0.5,1.1-1.1,1.4l1.3,2c0.2,0.3,0.4,0.4,0.7,0.5l0,0v0L62.5,22.9L62.5,22.9z"/>
		<path d="M67.8,21.3L67.8,21.3l0-2.9c0-0.6-0.4-0.7-0.7-0.7H67v-0.2c0.4,0,0.7,0,1.1,0c0.3,0,0.6,0,1,0v0.2h-0.1
			c-0.3,0-0.7,0.1-0.7,1v3.6c0,0.3,0,0.5,0,0.8H68l-4-4.5v3.2c0,0.7,0.1,0.9,0.7,0.9h0.1v0.2c-0.3,0-0.7,0-1,0c-0.4,0-0.7,0-1.1,0
			v-0.2h0.1c0.5,0,0.7-0.4,0.7-1v-3.3c0-0.4-0.4-0.7-0.7-0.7h-0.1v-0.2c0.3,0,0.6,0,0.9,0c0.2,0,0.5,0,0.7,0L67.8,21.3z"/>
		<path d="M67.8,21.3L67.8,21.3L67.8,21.3L67.8,21.3z M67.8,21.3L67.8,21.3L67.8,21.3z M68,23h0.3c0-0.2,0-0.5,0-0.8v-3.6
			c0-0.9,0.4-1,0.7-1H69v-0.2c-0.3,0-0.6,0-0.9,0c-0.4,0-0.7,0-1.1,0v0.2h0.1c0.2,0,0.7,0.1,0.7,0.8l0,3l0,0l0,0l-3.5-3.9
			c-0.2,0-0.5,0-0.7,0c-0.3,0-0.6,0-0.9,0v0.2h0.1c0.4,0,0.7,0.3,0.7,0.7v3.3c0,0.6-0.2,1-0.7,1h-0.1v0.2c0.3,0,0.7,0,1,0
			c0.3,0,0.7,0,1,0v-0.2h-0.1c-0.6,0-0.8-0.3-0.8-0.9v-3.3L68,23z M68.3,23l-0.3,0l-4-4.4v3.1c0,0.7,0.1,0.9,0.7,0.9h0.2v0v0.3h0
			c-0.3,0-0.7,0-1,0c-0.3,0-0.7,0-1.1,0h0v0v-0.3h0h0.1c0.5,0,0.7-0.3,0.7-1v-3.3c0-0.4-0.3-0.7-0.7-0.7h-0.1v0v-0.3h0
			c0.3,0,0.6,0,0.9,0c0.2,0,0.5,0,0.7,0l3.4,3.9v-2.9c0-0.6-0.4-0.7-0.6-0.7h-0.2v0v-0.3h0c0.4,0,0.7,0,1.1,0c0.3,0,0.6,0,1,0h0v0
			v0.3h0h-0.1c-0.3,0-0.7,0-0.7,1v3.6C68.3,22.5,68.3,22.8,68.3,23L68.3,23L68.3,23z"/>
		<path d="M71.4,18.3L71.4,18.3l-0.7,2.2h1.5L71.4,18.3z M70.3,21.8c-0.1,0.3-0.2,0.5-0.2,0.6c0,0.2,0.3,0.3,0.6,0.3h0.1v0.2
			c-0.3,0-0.6,0-0.9,0c-0.3,0-0.6,0-0.8,0v-0.2h0c0.3,0,0.6-0.2,0.7-0.5l1.3-3.6c0.1-0.3,0.2-0.7,0.3-1c0.2-0.1,0.6-0.2,0.7-0.3
			c0,0,0,0,0.1,0s0,0,0.1,0c0,0.1,0,0.1,0.1,0.2l1.4,4.1c0.1,0.3,0.2,0.6,0.3,0.8c0.1,0.2,0.3,0.3,0.5,0.3h0v0.2c-0.4,0-0.7,0-1.1,0
			c-0.4,0-0.8,0-1.2,0v-0.2h0.1c0.2,0,0.5,0,0.5-0.2c0-0.1-0.1-0.3-0.2-0.6L72.3,21h-1.8L70.3,21.8z"/>
		<path d="M71.4,18.3L71.4,18.3L71.4,18.3z M70.7,20.5h1.4l-0.7-2.1L70.7,20.5z M70.6,20.6l0.7-2.3h0h0v0l0,0l0,0v0h0l0.7,2.3H70.6z
			 M72.2,22.8c0.4,0,0.8,0,1.1,0c0.4,0,0.7,0,1,0v-0.2h0c-0.3,0-0.5-0.1-0.5-0.3c-0.1-0.2-0.2-0.5-0.3-0.8l-1.4-4.1
			c0-0.1,0-0.1-0.1-0.2c0,0,0,0,0,0h0c0,0,0,0,0,0c-0.2,0.1-0.5,0.3-0.7,0.3c0,0.3-0.2,0.7-0.3,1l-1.3,3.6c-0.1,0.3-0.4,0.5-0.7,0.5
			h0v0.2c0.3,0,0.5,0,0.8,0c0.3,0,0.6,0,0.9,0v-0.2h0c-0.3,0-0.6,0-0.6-0.3c0-0.2,0.1-0.4,0.2-0.6l0,0l0,0l0.3-0.8h1.8l0.3,0.9
			c0.1,0.3,0.2,0.5,0.2,0.6c0,0.2-0.3,0.3-0.5,0.3h-0.1V22.8L72.2,22.8z M74.5,22.9c-0.4,0-0.7,0-1.1,0c-0.4,0-0.8,0-1.2,0l0,0v0
			v-0.3h0h0.1c0.2,0,0.5,0,0.5-0.2c0-0.1-0.1-0.3-0.2-0.6L72.3,21h-1.7l-0.2,0.8c-0.1,0.3-0.2,0.5-0.2,0.6c0,0.2,0.3,0.2,0.6,0.2
			h0.1v0v0.3l0,0c-0.3,0-0.6,0-0.9,0c-0.3,0-0.6,0-0.8,0l0,0v0v-0.3h0h0c0.3,0,0.5-0.2,0.6-0.5l1.3-3.6c0.1-0.3,0.2-0.7,0.3-1
			c0.2-0.1,0.6-0.2,0.7-0.3c0,0,0,0,0.1,0c0,0,0.1,0,0.1,0c0,0.1,0,0.1,0.1,0.2l1.4,4.1c0.1,0.3,0.2,0.6,0.3,0.8
			c0.1,0.2,0.2,0.3,0.5,0.3h0.1v0L74.5,22.9L74.5,22.9z"/>
		<path d="M74.8,17.8c-0.6,0-0.6,0.1-0.7,0.7h-0.2c0-0.2,0.1-0.4,0.1-0.7c0-0.2,0-0.4,0-0.7h0.2c0.1,0.2,0.3,0.2,0.5,0.2h4
			c0.2,0,0.4,0,0.4-0.2l0.2,0c0,0.2-0.1,0.4-0.1,0.6c0,0.2,0,0.4,0,0.6l-0.2,0.1c0-0.3-0.1-0.8-0.6-0.8h-1.3V22
			c0,0.6,0.3,0.7,0.6,0.7h0.1v0.2c-0.3,0-0.9,0-1.3,0c-0.5,0-1,0-1.3,0v-0.2h0.1c0.4,0,0.6,0,0.6-0.7v-4.2H74.8L74.8,17.8z"/>
		<path d="M77.9,22.9c-0.3,0-0.9,0-1.3,0c-0.5,0-1,0-1.3,0h0v0v-0.3h0h0.1c0.4,0,0.6,0,0.6-0.6l0-4.1h-1.2v0v0h1.3V22
			c0,0.6-0.3,0.7-0.7,0.7h-0.1v0.2c0.3,0,0.8,0,1.3,0C77,22.8,77.5,22.8,77.9,22.9l0-0.2h-0.1c-0.4,0-0.7-0.1-0.7-0.7v-4.2h1.3
			c0.5,0,0.6,0.4,0.6,0.7l0.2-0.1c0-0.2,0-0.4,0-0.6c0-0.2,0.1-0.4,0.1-0.6l-0.1,0c0,0.2-0.3,0.2-0.5,0.2h-4h0c-0.2,0-0.4,0-0.5-0.2
			H74c0,0.2,0,0.4,0,0.6c0,0.2-0.1,0.4-0.1,0.6H74c0.1-0.5,0.2-0.7,0.8-0.7v0v0c-0.6,0-0.6,0.1-0.7,0.7l0,0h0h-0.3l0,0
			c0-0.2,0.1-0.4,0.1-0.7c0-0.2,0-0.4,0-0.7v0h0h0.2l0,0c0.1,0.2,0.2,0.2,0.4,0.2c0,0,0,0,0,0h4c0.2,0,0.4,0,0.4-0.2l0,0l0,0l0.2,0
			l0,0c0,0.2-0.1,0.4-0.1,0.6c0,0.2,0,0.4,0,0.6v0l0,0l-0.3,0.1l0,0c0-0.3-0.1-0.7-0.5-0.7h-1.2V22c0,0.6,0.2,0.6,0.6,0.6h0.2v0
			L77.9,22.9L77.9,22.9L77.9,22.9z"/>
		<path d="M79.6,22.7h0.1c0.3,0,0.6,0,0.6-0.4v-4.1c0-0.4-0.3-0.4-0.6-0.4h-0.1v-0.2c0.3,0,0.8,0,1.2,0c0.4,0,0.9,0,1.2,0v0.2h-0.1
			c-0.3,0-0.6,0-0.6,0.4v4.1c0,0.4,0.3,0.4,0.6,0.4h0.1v0.2c-0.4,0-0.8,0-1.2,0c-0.4,0-0.8,0-1.2,0V22.7L79.6,22.7z"/>
		<path d="M81.9,22.9v-0.2h-0.1c-0.3,0-0.6,0-0.6-0.5v-4.1c0-0.4,0.3-0.5,0.6-0.5h0.1v-0.2c-0.4,0-0.8,0-1.2,0c-0.4,0-0.8,0-1.1,0
			v0.2h0.1c0.3,0,0.6,0,0.6,0.5v4.1c0,0.4-0.3,0.5-0.6,0.5h-0.1v0.2c0.3,0,0.7,0,1.1,0C81.1,22.8,81.5,22.8,81.9,22.9 M81.9,22.9
			c-0.4,0-0.8,0-1.2,0c-0.4,0-0.8,0-1.2,0h0v0v-0.2v0h0h0.1c0.3,0,0.5,0,0.5-0.4v-4.1c0-0.4-0.3-0.4-0.5-0.4h-0.1v0v-0.3h0
			c0.3,0,0.8,0,1.2,0c0.4,0,0.9,0,1.2,0h0v0v0.3h0h-0.1c-0.3,0-0.5,0-0.5,0.4v4.1c0,0.4,0.3,0.4,0.5,0.4H82v0L81.9,22.9L81.9,22.9z"
			/>
		<path d="M85.2,22.7c1.5,0,1.8-1.3,1.8-2.5c0-1.1-0.6-2.5-1.9-2.5c-1.4,0-1.8,1.2-1.8,2.3C83.3,21.3,83.9,22.7,85.2,22.7
			 M85.1,17.3c1.7,0,3,1,3,2.7c0,1.8-1.3,3-3,3c-1.7,0-2.9-1.1-2.9-2.8C82.2,18.6,83.4,17.3,85.1,17.3"/>
		<path d="M83.2,19.9c0-1,0.4-2.3,1.8-2.3c1.3,0,1.9,1.4,1.9,2.6c0,1.1-0.3,2.5-1.8,2.5v0v0c1.5,0,1.7-1.3,1.7-2.4
			c0-1.1-0.6-2.5-1.9-2.5C83.7,17.7,83.3,18.9,83.2,19.9c0.1,1.4,0.7,2.7,1.9,2.7v0v0C83.9,22.7,83.2,21.3,83.2,19.9 M82.1,20.2
			c0-1.6,1.3-2.9,2.9-2.9v0v0C83.5,17.3,82.2,18.6,82.1,20.2c0.1,1.7,1.3,2.8,3,2.8c1.6,0,2.9-1.2,2.9-3c0-1.6-1.3-2.7-3-2.7v0v0
			c1.7,0,3,1,3,2.7c0,1.8-1.3,3-3,3C83.4,23,82.1,21.9,82.1,20.2"/>
		<path d="M93.3,21.3L93.3,21.3l0-2.9c0-0.6-0.4-0.7-0.7-0.7h-0.2v-0.2c0.4,0,0.7,0,1.1,0c0.3,0,0.6,0,1,0v0.2h-0.1
			c-0.3,0-0.7,0.1-0.7,1v3.6c0,0.3,0,0.5,0,0.8h-0.3l-4-4.5v3.2c0,0.7,0.1,0.9,0.7,0.9h0.1v0.2c-0.3,0-0.7,0-1,0c-0.4,0-0.7,0-1.1,0
			v-0.2h0.1c0.5,0,0.7-0.4,0.7-1v-3.3c0-0.4-0.4-0.7-0.7-0.7h-0.1v-0.2c0.3,0,0.6,0,0.9,0c0.2,0,0.5,0,0.7,0L93.3,21.3z"/>
		<path d="M93.3,21.3L93.3,21.3L93.3,21.3L93.3,21.3z M93.3,21.3L93.3,21.3L93.3,21.3z M93.5,23h0.3c0-0.2,0-0.5,0-0.8v-3.6
			c0-0.9,0.4-1,0.7-1h0.1v-0.2c-0.3,0-0.6,0-0.9,0c-0.4,0-0.7,0-1.1,0v0.2h0.1c0.2,0,0.7,0.1,0.7,0.8l0,3l0,0l0,0l-3.5-3.9
			c-0.2,0-0.5,0-0.7,0c-0.3,0-0.6,0-0.9,0v0.2h0.1c0.4,0,0.7,0.3,0.7,0.7v3.3c0,0.6-0.2,1-0.7,1h-0.1v0.2c0.3,0,0.7,0,1,0
			c0.3,0,0.6,0,1,0v-0.2h-0.1c-0.6,0-0.8-0.3-0.8-0.9v-3.3L93.5,23z M93.8,23l-0.3,0l-4-4.4v3.1c0,0.7,0.1,0.9,0.7,0.9h0.2v0v0.3h0
			c-0.3,0-0.7,0-1,0c-0.3,0-0.7,0-1.1,0h0v0v-0.3h0h0.1c0.5,0,0.7-0.3,0.7-1v-3.3c0-0.4-0.3-0.7-0.7-0.7h-0.1v0v-0.3h0
			c0.3,0,0.6,0,0.9,0c0.2,0,0.5,0,0.7,0l3.4,3.9v-2.9c0-0.6-0.4-0.7-0.6-0.7h-0.2v0v-0.3h0c0.4,0,0.7,0,1.1,0c0.3,0,0.6,0,1,0h0v0
			v0.3h0h-0.1c-0.3,0-0.7,0-0.7,1v3.6C93.8,22.5,93.8,22.8,93.8,23L93.8,23L93.8,23z"/>
		<path d="M96.9,18.3L96.9,18.3l-0.7,2.2h1.5L96.9,18.3z M95.8,21.8c-0.1,0.3-0.2,0.5-0.2,0.6c0,0.2,0.3,0.3,0.6,0.3h0.1v0.2
			c-0.3,0-0.6,0-0.9,0c-0.3,0-0.6,0-0.8,0v-0.2h0c0.3,0,0.6-0.2,0.7-0.5l1.3-3.6c0.1-0.3,0.2-0.7,0.3-1c0.3-0.1,0.6-0.2,0.7-0.3
			c0,0,0,0,0.1,0c0,0,0,0,0.1,0c0,0.1,0,0.1,0.1,0.2l1.4,4.1c0.1,0.3,0.2,0.6,0.3,0.8c0.1,0.2,0.3,0.3,0.5,0.3h0v0.2
			c-0.4,0-0.7,0-1.1,0c-0.4,0-0.8,0-1.2,0v-0.2h0.1c0.2,0,0.5,0,0.5-0.2c0-0.1-0.1-0.3-0.2-0.6L97.8,21H96L95.8,21.8z"/>
		<path d="M96.9,18.3L96.9,18.3L96.9,18.3z M96.2,20.5h1.4l-0.7-2.1L96.2,20.5z M96.1,20.6l0.7-2.3h0h0v0l0,0l0,0v0h0l0.7,2.3H96.1z
			 M97.7,22.9c0.4,0,0.8,0,1.1,0c0.4,0,0.7,0,1,0v-0.2h0c-0.3,0-0.4-0.1-0.5-0.3c-0.1-0.2-0.2-0.5-0.3-0.8l-1.4-4.1
			c0-0.1,0-0.1-0.1-0.2c0,0,0,0,0,0h0c0,0,0,0,0,0c-0.2,0.1-0.5,0.3-0.7,0.3c0,0.3-0.2,0.7-0.3,1l-1.3,3.6c-0.1,0.3-0.4,0.5-0.7,0.5
			h0v0.2c0.3,0,0.5,0,0.8,0c0.3,0,0.6,0,0.9,0v-0.2h-0.1c-0.3,0-0.6,0-0.6-0.3c0-0.2,0.1-0.4,0.2-0.6l0,0l0,0l0.3-0.8h1.8l0.3,0.9
			c0.1,0.3,0.2,0.5,0.2,0.6c0,0.2-0.3,0.3-0.5,0.3h-0.1L97.7,22.9L97.7,22.9z M100,22.9c-0.4,0-0.7,0-1.1,0c-0.4,0-0.8,0-1.2,0l0,0
			v0v-0.3h0h0.1c0.2,0,0.5,0,0.5-0.2c0-0.1-0.1-0.3-0.2-0.6L97.8,21h-1.7l-0.2,0.8c-0.1,0.3-0.2,0.5-0.2,0.6c0,0.2,0.3,0.2,0.6,0.2
			h0.1v0v0.3l0,0c-0.3,0-0.6,0-0.9,0c-0.3,0-0.6,0-0.8,0l0,0v0v-0.3h0h0c0.3,0,0.5-0.2,0.6-0.5l1.3-3.6c0.1-0.3,0.2-0.7,0.3-1
			c0.2-0.1,0.6-0.2,0.7-0.3c0,0,0,0,0.1,0c0,0,0.1,0,0.1,0c0,0.1,0,0.1,0.1,0.2l1.4,4.1c0.1,0.3,0.2,0.6,0.3,0.8
			c0.1,0.2,0.2,0.3,0.5,0.3h0.1v0L100,22.9L100,22.9z"/>
		<path d="M101.9,22.1c0,0.3,0.2,0.4,0.5,0.4c0.3,0,0.7,0,1,0c0.3,0,0.6-0.2,0.7-0.4c0.1-0.2,0.2-0.4,0.2-0.6h0.2
			c-0.1,0.4-0.2,0.9-0.3,1.3c-0.7,0-1.4,0-2.1,0c-0.7,0-1.4,0-2.1,0v-0.2h0.1c0.3,0,0.6,0,0.6-0.5v-4c0-0.4-0.3-0.4-0.6-0.4h-0.1
			v-0.2c0.4,0,0.8,0,1.2,0c0.4,0,0.8,0,1.2,0v0.2h-0.2c-0.3,0-0.5,0-0.5,0.4V22.1z"/>
		<path d="M104.3,22.9c0.1-0.4,0.2-0.8,0.3-1.3h-0.2c0,0.2-0.1,0.4-0.2,0.5c-0.1,0.2-0.4,0.4-0.8,0.4c-0.2,0-0.4,0-0.6,0
			c-0.2,0-0.3,0-0.4,0c-0.3,0-0.5-0.1-0.5-0.5v-4c0-0.4,0.3-0.5,0.6-0.5h0.2v-0.2c-0.4,0-0.8,0-1.2,0c-0.4,0-0.8,0-1.2,0v0.2h0.1
			c0.3,0,0.6,0,0.6,0.5v4c0,0.5-0.3,0.6-0.6,0.6h-0.1v0.2c0.7,0,1.4,0,2,0C103,22.8,103.7,22.9,104.3,22.9 M104.4,22.9
			c-0.7,0-1.4,0-2.1,0c-0.7,0-1.4,0-2.1,0h0v0v-0.3h0h0.1c0.3,0,0.6,0,0.6-0.5v-4c0-0.4-0.3-0.4-0.6-0.4h-0.1v0v-0.3h0
			c0.4,0,0.8,0,1.2,0c0.4,0,0.8,0,1.2,0h0v0v0.3h0h-0.2c-0.3,0-0.5,0-0.5,0.4v4c0,0.3,0.2,0.4,0.4,0.4c0.1,0,0.3,0,0.4,0
			c0.2,0,0.4,0,0.6,0c0.3,0,0.6-0.2,0.7-0.4c0.1-0.2,0.2-0.4,0.2-0.6l0,0h0h0.3l0,0C104.6,22,104.5,22.4,104.4,22.9L104.4,22.9
			L104.4,22.9z"/>
		<path d="M104.4,18L104.4,18c0.2,0,0.3-0.1,0.3-0.2c0-0.1-0.1-0.2-0.2-0.2h-0.1V18z M104.1,18.5L104.1,18.5
			c0.1-0.1,0.1-0.1,0.1-0.1v-0.6c0-0.1,0-0.1-0.1-0.1v0h0.4c0.1,0,0.3,0.1,0.3,0.2c0,0.1-0.1,0.2-0.2,0.2l0.1,0.2
			c0.1,0.1,0.1,0.2,0.2,0.2v0h-0.2c-0.1,0-0.1-0.2-0.3-0.4h-0.1v0.3c0,0.1,0,0.1,0.1,0.1v0H104.1z M104.6,18.7
			c0.4,0,0.7-0.3,0.7-0.7s-0.3-0.7-0.7-0.7c-0.4,0-0.7,0.3-0.7,0.7C103.9,18.4,104.2,18.7,104.6,18.7 M104.6,17.2
			c0.5,0,0.8,0.4,0.8,0.8s-0.4,0.8-0.8,0.8c-0.5,0-0.8-0.4-0.8-0.8S104.1,17.2,104.6,17.2"/>
		<path d="M40.2,12.6c0,1.1,0.8,1.2,1.5,1.2c3.1,0,4.1-2.3,4.1-4.5c0-2.7-1.7-4.6-4.5-4.6c-0.6,0-0.9,0-1.1,0.1V12.6z M38.8,5.9
			c0-1.3-0.7-1.2-1.3-1.2V4.3c0.6,0,1.1,0,1.7,0c0.6,0,1.4,0,2.5,0c3.7,0,5.7,2.5,5.7,5c0,1.4-0.8,5-5.9,5c-0.7,0-1.4,0-2.1,0
			c-0.6,0-1.3,0-1.9,0v-0.4c0.9-0.1,1.3-0.1,1.3-1.1L38.8,5.9L38.8,5.9z"/>
		<path d="M49.5,5.5c-0.4,0-0.7-0.3-0.7-0.7c0-0.4,0.3-0.7,0.7-0.7c0.4,0,0.7,0.3,0.7,0.7C50.2,5.2,49.9,5.5,49.5,5.5 M47.9,13.9
			h0.3c0.4,0,0.7,0,0.7-0.5V9.6c0-0.6-0.2-0.7-0.7-1V8.3c0.7-0.2,1.5-0.5,1.5-0.5c0.1-0.1,0.2-0.1,0.3-0.1c0.1,0,0.1,0.1,0.1,0.2
			v5.5c0,0.5,0.3,0.5,0.7,0.5H51v0.4c-0.5,0-1,0-1.5,0c-0.5,0-1,0-1.6,0L47.9,13.9L47.9,13.9z"/>
		<path d="M52.4,9.6c0-0.5-0.2-0.7-0.8-0.9V8.4c0.6-0.2,1.2-0.4,1.9-0.7c0,0,0.1,0,0.1,0.1v0.9c0.8-0.6,1.5-1.1,2.5-1.1
			c1.2,0,1.7,0.9,1.7,2v3.7c0,0.5,0.3,0.5,0.7,0.5h0.3v0.4c-0.5,0-1,0-1.5,0c-0.5,0-1,0-1.6,0v-0.4h0.3c0.4,0,0.7,0,0.7-0.5V9.7
			c0-0.8-0.5-1.2-1.3-1.2c-0.5,0-1.2,0.4-1.7,0.7v4.2c0,0.5,0.3,0.5,0.7,0.5h0.3v0.4c-0.5,0-1,0-1.5,0c-0.5,0-1,0-1.6,0v-0.4h0.3
			c0.4,0,0.7,0,0.7-0.5L52.4,9.6L52.4,9.6z"/>
		<path d="M62.3,9.9c0.4,0,0.4-0.2,0.4-0.4c0-0.7-0.4-1.3-1.2-1.3c-0.9,0-1.5,0.6-1.7,1.7L62.3,9.9L62.3,9.9z M59.7,10.3
			c0,0.1,0,0.3,0,0.8c0.1,1.4,1,2.5,2.1,2.5c0.8,0,1.4-0.4,1.9-1l0.2,0.2c-0.7,0.9-1.5,1.6-2.7,1.6c-2.3,0-2.7-2.2-2.7-3.1
			c0-2.8,1.9-3.6,2.9-3.6c1.2,0,2.4,0.7,2.4,2.3c0,0.1,0,0.2,0,0.3l-0.1,0.1H59.7z"/>
		<path d="M64.2,13.9h0.4c0.4,0,0.7,0,0.7-0.5v-4c0-0.4-0.5-0.5-0.7-0.6V8.6c1-0.4,1.6-0.8,1.8-0.8c0.1,0,0.1,0,0.1,0.2v1.3h0
			c0.4-0.6,1-1.5,1.8-1.5c0.4,0,0.8,0.2,0.8,0.8c0,0.4-0.3,0.7-0.7,0.7c-0.4,0-0.4-0.3-0.9-0.3c-0.2,0-1,0.3-1,1.2v3.4
			c0,0.5,0.3,0.5,0.7,0.5H68v0.4c-0.8,0-1.4,0-2,0c-0.6,0-1.2,0-1.7,0L64.2,13.9L64.2,13.9z"/>
		<path d="M69.8,12.3c0.2,0.9,0.8,1.8,1.8,1.8c0.8,0,1.2-0.5,1.2-1c0-1.7-3.1-1.1-3.1-3.5c0-0.8,0.6-1.8,2.2-1.8
			c0.5,0,1.1,0.1,1.6,0.4l0.1,1.5h-0.3c-0.1-0.9-0.6-1.4-1.6-1.4c-0.6,0-1.1,0.3-1.1,0.9c0,1.7,3.3,1.2,3.3,3.4c0,0.9-0.8,2-2.5,2
			c-0.6,0-1.3-0.2-1.8-0.5l-0.2-1.7L69.8,12.3z"/>
		<path d="M86.9,6.9h-0.4c-0.3-1.7-1.5-2.4-3.1-2.4c-1.7,0-4.1,1.1-4.1,4.6c0,2.9,2.1,5,4.3,5c1.4,0,2.6-1,2.9-2.5l0.3,0.1l-0.3,2.1
			c-0.6,0.4-2.2,0.8-3.2,0.8c-3.4,0-5.5-2.2-5.5-5.4c0-2.9,2.6-5.1,5.4-5.1c1.2,0,2.3,0.4,3.4,0.8L86.9,6.9z"/>
		<path d="M87.4,13.9h0.3c0.4,0,0.7,0,0.7-0.5v-8c0-0.9-0.2-1-0.8-1.1V4.1c0.6-0.2,1.2-0.4,1.5-0.6c0.2-0.1,0.3-0.2,0.3-0.2
			c0.1,0,0.1,0.1,0.1,0.2v9.9c0,0.5,0.3,0.5,0.7,0.5h0.2v0.4c-0.5,0-1,0-1.5,0s-1,0-1.6,0L87.4,13.9L87.4,13.9z"/>
		<path d="M96.6,13.5c0,0.3,0.2,0.3,0.4,0.3c0.2,0,0.4,0,0.6,0v0.3c-0.6,0.1-1.8,0.4-2.1,0.4l-0.1,0v-1.2c-0.9,0.7-1.5,1.2-2.5,1.2
			c-0.8,0-1.6-0.5-1.6-1.7V9.1c0-0.4-0.1-0.7-0.9-0.8V8.1C91,8,92.1,8,92.3,8c0.2,0,0.2,0.1,0.2,0.4v3.7c0,0.4,0,1.7,1.2,1.7
			c0.5,0,1.1-0.4,1.7-0.9V9c0-0.3-0.7-0.4-1.2-0.6V8.2C95.5,8.1,96.3,8,96.5,8c0.1,0,0.1,0.1,0.1,0.3V13.5z"/>
		<path d="M99.5,12.7c0,0.5,0.5,1.5,1.5,1.5c1.5,0,2.2-1.5,2.2-2.8c0-1.5-1.2-2.8-2.3-2.8c-0.5,0-1,0.3-1.4,0.7L99.5,12.7L99.5,12.7
			z M99.5,8.8c0.6-0.5,1.3-1,2.1-1c1.7,0,2.7,1.4,2.7,3c0,1.9-1.4,3.8-3.4,3.8c-1.1,0-1.6-0.3-2-0.5l-0.4,0.3l-0.3-0.2
			c0.1-0.8,0.2-1.7,0.2-2.6V5.5c0-0.9-0.2-1-0.8-1.1V4.1c0.6-0.2,1.2-0.4,1.5-0.6c0.2-0.1,0.3-0.2,0.3-0.2c0.1,0,0.1,0.1,0.1,0.2
			L99.5,8.8L99.5,8.8z"/>
		<path d="M37.5,22.7h0.1c0.3,0,0.6,0,0.6-0.4v-4.1c0-0.4-0.3-0.4-0.6-0.4h-0.1v-0.2c0.3,0,0.8,0,1.2,0c0.4,0,0.9,0,1.2,0v0.2h-0.1
			c-0.3,0-0.6,0-0.6,0.4v4.1c0,0.4,0.3,0.4,0.6,0.4h0.1v0.2c-0.4,0-0.8,0-1.2,0c-0.4,0-0.8,0-1.2,0L37.5,22.7L37.5,22.7z"/>
		<path d="M39.9,22.9v-0.2h-0.1c-0.3,0-0.6,0-0.6-0.5v-4.1c0-0.4,0.3-0.5,0.6-0.5h0.1v-0.2c-0.4,0-0.8,0-1.2,0c-0.4,0-0.8,0-1.1,0
			v0.2h0.1c0.3,0,0.6,0,0.6,0.5v4.1c0,0.4-0.3,0.5-0.6,0.5h-0.1v0.2c0.3,0,0.7,0,1.1,0C39,22.8,39.5,22.9,39.9,22.9 M39.9,22.9
			c-0.4,0-0.8,0-1.2,0c-0.4,0-0.8,0-1.1,0h0v0v-0.2v0h0h0.1c0.3,0,0.5,0,0.5-0.4v-4.1c0-0.4-0.3-0.4-0.5-0.4h-0.1v0v-0.3h0
			c0.3,0,0.8,0,1.2,0c0.4,0,0.9,0,1.2,0h0v0v0.3h0h-0.1c-0.3,0-0.5,0-0.5,0.4v4.1c0,0.4,0.3,0.4,0.5,0.4h0.1v0L39.9,22.9L39.9,22.9z
			"/>
		<path d="M45.3,21.3L45.3,21.3l0-2.9c0-0.6-0.4-0.7-0.7-0.7h-0.2v-0.2c0.4,0,0.7,0,1.1,0c0.3,0,0.6,0,1,0v0.2h-0.1
			c-0.3,0-0.7,0.1-0.7,1v3.6c0,0.3,0,0.5,0,0.8h-0.3l-4-4.5v3.2c0,0.7,0.1,0.9,0.7,0.9h0.1v0.2c-0.3,0-0.7,0-1,0c-0.4,0-0.7,0-1.1,0
			v-0.2h0.1c0.5,0,0.7-0.4,0.7-1v-3.3c0-0.4-0.4-0.7-0.7-0.7h-0.1v-0.2c0.3,0,0.6,0,0.9,0c0.2,0,0.5,0,0.7,0L45.3,21.3z"/>
		<path d="M45.2,21.3L45.2,21.3L45.2,21.3L45.2,21.3z M45.3,21.3L45.3,21.3L45.3,21.3z M45.4,23h0.3c0-0.2,0-0.5,0-0.8v-3.6
			c0-0.9,0.4-1,0.7-1h0.1v-0.2c-0.3,0-0.6,0-0.9,0c-0.4,0-0.7,0-1.1,0l0,0.2h0.1c0.2,0,0.7,0.1,0.7,0.8l0,3l0,0l0,0l-3.5-3.9
			c-0.2,0-0.5,0-0.7,0c-0.3,0-0.6,0-0.9,0l0,0.2h0.1c0.4,0,0.7,0.3,0.7,0.7v3.3c0,0.6-0.2,1-0.7,1l-0.1,0v0.2c0.3,0,0.7,0,1,0
			c0.3,0,0.6,0,1,0v-0.2h-0.1c-0.6,0-0.8-0.3-0.8-0.9v-3.3L45.4,23z M45.7,23l-0.3,0l-4-4.4v3.1c0,0.7,0.1,0.9,0.7,0.9h0.2v0v0.3h0
			c-0.3,0-0.7,0-1,0c-0.4,0-0.7,0-1.1,0h0v0v-0.3h0h0.1c0.5,0,0.7-0.3,0.7-1v-3.3c0-0.4-0.3-0.7-0.7-0.7h-0.1v0v-0.3h0
			c0.3,0,0.6,0,0.9,0c0.2,0,0.5,0,0.7,0l3.4,3.9v-2.9c0-0.6-0.4-0.7-0.6-0.7h-0.2v0v-0.3h0c0.4,0,0.7,0,1.1,0c0.3,0,0.6,0,1,0h0v0
			v0.3h0h-0.1c-0.3,0-0.7,0-0.7,1v3.6C45.7,22.5,45.7,22.8,45.7,23L45.7,23L45.7,23z"/>
		<path d="M47.6,17.8c-0.6,0-0.6,0.1-0.7,0.7h-0.2c0-0.2,0.1-0.4,0.1-0.7c0-0.2,0-0.4,0-0.7H47c0.1,0.2,0.3,0.2,0.5,0.2h4
			c0.2,0,0.4,0,0.4-0.2l0.2,0c0,0.2-0.1,0.4-0.1,0.6c0,0.2,0,0.4,0,0.6l-0.2,0.1c0-0.3-0.1-0.8-0.6-0.8h-1.3V22
			c0,0.6,0.3,0.7,0.6,0.7h0.1v0.2c-0.3,0-0.9,0-1.3,0c-0.5,0-1,0-1.3,0v-0.2h0.1c0.4,0,0.6,0,0.6-0.7v-4.2H47.6L47.6,17.8z"/>
		<path d="M50.7,22.9c-0.3,0-0.9,0-1.3,0c-0.5,0-1,0-1.3,0h0v0v-0.3h0h0.1c0.4,0,0.6,0,0.6-0.6v-4.1h-1.2v0v0H49V22
			c0,0.6-0.3,0.7-0.7,0.7h-0.1v0.2c0.3,0,0.8,0,1.3,0C49.9,22.8,50.4,22.8,50.7,22.9l0-0.2h-0.1c-0.4,0-0.7-0.1-0.7-0.7v-4.2h1.3
			c0.5,0,0.6,0.4,0.6,0.7l0.2-0.1c0-0.2,0-0.4,0-0.6c0-0.2,0.1-0.4,0.1-0.6l-0.1,0c0,0.2-0.3,0.2-0.5,0.2h-4h0c-0.2,0-0.4,0-0.5-0.2
			h-0.1c0,0.2,0,0.4,0,0.6c0,0.2-0.1,0.4-0.1,0.6h0.2c0.1-0.5,0.2-0.7,0.8-0.7v0v0c-0.6,0-0.6,0.1-0.7,0.7l0,0h0h-0.3l0,0
			c0-0.2,0.1-0.4,0.1-0.7c0-0.2,0-0.4,0-0.7v0h0H47l0,0c0.1,0.2,0.2,0.2,0.4,0.2h0h4c0.2,0,0.4,0,0.4-0.2l0,0l0,0l0.2,0l0,0
			c0,0.2-0.1,0.4-0.1,0.6c0,0.2,0,0.4,0,0.6v0l0,0l-0.3,0.1l0,0c0-0.3-0.1-0.7-0.5-0.7H50V22c0,0.6,0.2,0.6,0.6,0.6h0.2v0L50.7,22.9
			L50.7,22.9L50.7,22.9z"/>
		<path d="M52.4,22.7h0.1c0.3,0,0.6,0,0.6-0.4v-4.1c0-0.4-0.3-0.4-0.6-0.4h-0.1v-0.2c0.5,0,1.3,0,1.9,0c0.7,0,1.5,0,2,0
			c0,0.3,0,0.9,0,1.2l-0.2,0.1c0-0.5-0.1-0.9-1-0.9h-1.1v2H55c0.5,0,0.6-0.3,0.6-0.7h0.2c0,0.3,0,0.6,0,0.9c0,0.3,0,0.6,0,0.9
			l-0.2,0c0-0.5-0.1-0.8-0.6-0.8h-0.9V22c0,0.5,0.4,0.5,0.9,0.5c0.9,0,1.4-0.1,1.6-1l0.2,0.1c-0.1,0.4-0.2,0.8-0.3,1.2
			c-0.5,0-1.4,0-2.1,0c-0.7,0-1.6,0-2.1,0V22.7z"/>
		<path d="M56.5,22.9c0.1-0.4,0.2-0.8,0.3-1.2l-0.2,0c-0.2,0.9-0.7,1-1.6,0.9c-0.5,0-1,0-1-0.5v-1.9h1c0.5,0,0.6,0.3,0.6,0.8l0.2,0
			c0-0.3,0-0.6,0-0.9c0-0.3,0-0.6,0-0.9h-0.2c0,0.4-0.2,0.7-0.6,0.7h-1v-2.1h1.1c0.8,0,0.9,0.4,1,0.9l0.2,0c0-0.2,0-0.5,0-0.8
			c0-0.1,0-0.3,0-0.4c-0.5,0-1.3,0-2,0s-1.4,0-1.9,0v0.2h0.1c0.3,0,0.6,0,0.6,0.5v4.1c0,0.4-0.3,0.5-0.6,0.5h-0.1v0.2
			c0.5,0,1.4,0,2,0C55.1,22.8,56,22.9,56.5,22.9 M56.6,22.9c-0.5,0-1.4,0-2.1,0c-0.7,0-1.6,0-2.1,0h0v0v-0.2v0h0h0.1
			c0.3,0,0.5,0,0.5-0.4v-4.1c0-0.4-0.3-0.4-0.5-0.4h-0.1v0v-0.3h0c0.5,0,1.3,0,1.9,0c0.7,0,1.5,0,2,0h0v0c0,0.1,0,0.3,0,0.4
			c0,0.3,0,0.6,0,0.8v0l0,0l-0.3,0.1l0,0c0-0.5-0.1-0.9-0.9-0.9h-1.1v2H55c0.5,0,0.5-0.2,0.6-0.7l0,0h0h0.3v0c0,0.3,0,0.6,0,0.9
			c0,0.3,0,0.6,0,0.9v0l0,0L55.6,21l0,0c-0.1-0.5-0.1-0.7-0.6-0.7h-0.9V22c0,0.5,0.4,0.5,0.9,0.5c0.9,0,1.3-0.1,1.6-0.9l0,0l0,0
			l0.3,0.1l0,0C56.8,22.1,56.7,22.5,56.6,22.9L56.6,22.9L56.6,22.9z"/>
		<path d="M58.9,20.1h0.4c0.8,0,1.2-0.3,1.2-1.2c0-0.7-0.4-1.1-1.1-1.1c-0.2,0-0.3,0-0.4,0V20.1z M57.9,18.3c0-0.6-0.3-0.6-0.6-0.6
			h-0.1v-0.2c0.3,0,0.7,0,1.2,0c0.5,0,0.8,0,1.3,0c1,0,1.9,0.3,1.9,1.4c0,0.7-0.5,1.1-1.1,1.4l1.3,2c0.2,0.3,0.4,0.4,0.8,0.5v0.2
			c-0.3,0-0.5,0-0.8,0c-0.2,0-0.5,0-0.7,0c-0.6-0.8-1.1-1.6-1.6-2.5h-0.5V22c0,0.6,0.3,0.6,0.6,0.6h0.1v0.2c-0.4,0-0.9,0-1.3,0
			c-0.4,0-0.7,0-1.1,0v-0.2h0.1c0.3,0,0.6-0.1,0.6-0.4V18.3z"/>
		<path d="M59.3,20c0.8,0,1.2-0.3,1.2-1.2c0-0.7-0.4-1.1-1.1-1.1c-0.2,0-0.3,0-0.4,0V20H59.3z M58.9,20.1L58.9,20.1l0-2.4l0,0
			c0.1,0,0.2,0,0.4,0c0.7,0,1.2,0.5,1.2,1.2c0,0.9-0.5,1.3-1.2,1.3H58.9z M58.9,20.3h0.5l0,0c0.5,0.9,1,1.7,1.6,2.5
			c0.2,0,0.5,0,0.7,0c0.3,0,0.5,0,0.7,0v-0.2c-0.4,0-0.5-0.2-0.8-0.5l-1.4-2l0,0c0.6-0.2,1.1-0.7,1.1-1.3c0-1.1-0.8-1.3-1.8-1.3
			c-0.4,0-0.8,0-1.3,0c-0.5,0-0.9,0-1.2,0v0.2h0.1c0.2,0,0.6,0,0.6,0.6v4c0,0.3-0.3,0.5-0.6,0.5h-0.1v0.2c0.4,0,0.7,0,1.1,0
			c0.4,0,0.9,0,1.3,0v-0.2h-0.1c-0.4,0-0.7,0-0.7-0.7L58.9,20.3L58.9,20.3z M62.5,22.9c-0.3,0-0.5,0-0.8,0c-0.2,0-0.5,0-0.8,0
			c-0.6-0.8-1.1-1.6-1.6-2.5h-0.5V22c0,0.6,0.2,0.6,0.6,0.6h0.2v0v0.3h0c-0.4,0-0.9,0-1.3,0c-0.4,0-0.7,0-1.1,0h0v0v-0.3h0h0.1
			c0.3,0,0.5-0.1,0.5-0.4v-4c0-0.6-0.3-0.6-0.5-0.6h-0.2v0v-0.3h0c0.3,0,0.7,0,1.2,0c0.5,0,0.8,0,1.3,0c1,0,1.9,0.3,1.9,1.4
			c0,0.7-0.5,1.1-1.1,1.4l1.3,2c0.2,0.3,0.4,0.4,0.7,0.5l0,0v0L62.5,22.9L62.5,22.9z"/>
		<path d="M67.8,21.3L67.8,21.3l0-2.9c0-0.6-0.4-0.7-0.7-0.7H67v-0.2c0.4,0,0.7,0,1.1,0c0.3,0,0.6,0,1,0v0.2h-0.1
			c-0.3,0-0.7,0.1-0.7,1v3.6c0,0.3,0,0.5,0,0.8H68l-4-4.5v3.2c0,0.7,0.1,0.9,0.7,0.9h0.1v0.2c-0.3,0-0.7,0-1,0c-0.4,0-0.7,0-1.1,0
			v-0.2h0.1c0.5,0,0.7-0.4,0.7-1v-3.3c0-0.4-0.4-0.7-0.7-0.7h-0.1v-0.2c0.3,0,0.6,0,0.9,0c0.2,0,0.5,0,0.7,0L67.8,21.3z"/>
		<path d="M67.8,21.3L67.8,21.3L67.8,21.3L67.8,21.3z M67.8,21.3L67.8,21.3L67.8,21.3z M68,23h0.3c0-0.2,0-0.5,0-0.8v-3.6
			c0-0.9,0.4-1,0.7-1H69v-0.2c-0.3,0-0.6,0-0.9,0c-0.4,0-0.7,0-1.1,0v0.2h0.1c0.2,0,0.7,0.1,0.7,0.8l0,3l0,0l0,0l-3.5-3.9
			c-0.2,0-0.5,0-0.7,0c-0.3,0-0.6,0-0.9,0v0.2h0.1c0.4,0,0.7,0.3,0.7,0.7v3.3c0,0.6-0.2,1-0.7,1h-0.1v0.2c0.3,0,0.7,0,1,0
			c0.3,0,0.7,0,1,0v-0.2h-0.1c-0.6,0-0.8-0.3-0.8-0.9v-3.3L68,23z M68.3,23l-0.3,0l-4-4.4v3.1c0,0.7,0.1,0.9,0.7,0.9h0.2v0v0.3h0
			c-0.3,0-0.7,0-1,0c-0.3,0-0.7,0-1.1,0h0v0v-0.3h0h0.1c0.5,0,0.7-0.3,0.7-1v-3.3c0-0.4-0.3-0.7-0.7-0.7h-0.1v0v-0.3h0
			c0.3,0,0.6,0,0.9,0c0.2,0,0.5,0,0.7,0l3.4,3.9v-2.9c0-0.6-0.4-0.7-0.6-0.7h-0.2v0v-0.3h0c0.4,0,0.7,0,1.1,0c0.3,0,0.6,0,1,0h0v0
			v0.3h0h-0.1c-0.3,0-0.7,0-0.7,1v3.6C68.3,22.5,68.3,22.8,68.3,23L68.3,23L68.3,23z"/>
		<path d="M71.4,18.3L71.4,18.3l-0.7,2.2h1.5L71.4,18.3z M70.3,21.8c-0.1,0.3-0.2,0.5-0.2,0.6c0,0.2,0.3,0.3,0.6,0.3h0.1v0.2
			c-0.3,0-0.6,0-0.9,0c-0.3,0-0.6,0-0.8,0v-0.2h0c0.3,0,0.6-0.2,0.7-0.5l1.3-3.6c0.1-0.3,0.2-0.7,0.3-1c0.2-0.1,0.6-0.2,0.7-0.3
			c0,0,0,0,0.1,0s0,0,0.1,0c0,0.1,0,0.1,0.1,0.2l1.4,4.1c0.1,0.3,0.2,0.6,0.3,0.8c0.1,0.2,0.3,0.3,0.5,0.3h0v0.2c-0.4,0-0.7,0-1.1,0
			c-0.4,0-0.8,0-1.2,0v-0.2h0.1c0.2,0,0.5,0,0.5-0.2c0-0.1-0.1-0.3-0.2-0.6L72.3,21h-1.8L70.3,21.8z"/>
		<path d="M71.4,18.3L71.4,18.3L71.4,18.3z M70.7,20.5h1.4l-0.7-2.1L70.7,20.5z M70.6,20.6l0.7-2.3h0h0v0l0,0l0,0v0h0l0.7,2.3H70.6z
			 M72.2,22.8c0.4,0,0.8,0,1.1,0c0.4,0,0.7,0,1,0v-0.2h0c-0.3,0-0.5-0.1-0.5-0.3c-0.1-0.2-0.2-0.5-0.3-0.8l-1.4-4.1
			c0-0.1,0-0.1-0.1-0.2c0,0,0,0,0,0h0c0,0,0,0,0,0c-0.2,0.1-0.5,0.3-0.7,0.3c0,0.3-0.2,0.7-0.3,1l-1.3,3.6c-0.1,0.3-0.4,0.5-0.7,0.5
			h0v0.2c0.3,0,0.5,0,0.8,0c0.3,0,0.6,0,0.9,0v-0.2h0c-0.3,0-0.6,0-0.6-0.3c0-0.2,0.1-0.4,0.2-0.6l0,0l0,0l0.3-0.8h1.8l0.3,0.9
			c0.1,0.3,0.2,0.5,0.2,0.6c0,0.2-0.3,0.3-0.5,0.3h-0.1V22.8L72.2,22.8z M74.5,22.9c-0.4,0-0.7,0-1.1,0c-0.4,0-0.8,0-1.2,0l0,0v0
			v-0.3h0h0.1c0.2,0,0.5,0,0.5-0.2c0-0.1-0.1-0.3-0.2-0.6L72.3,21h-1.7l-0.2,0.8c-0.1,0.3-0.2,0.5-0.2,0.6c0,0.2,0.3,0.2,0.6,0.2
			h0.1v0v0.3l0,0c-0.3,0-0.6,0-0.9,0c-0.3,0-0.6,0-0.8,0l0,0v0v-0.3h0h0c0.3,0,0.5-0.2,0.6-0.5l1.3-3.6c0.1-0.3,0.2-0.7,0.3-1
			c0.2-0.1,0.6-0.2,0.7-0.3c0,0,0,0,0.1,0c0,0,0.1,0,0.1,0c0,0.1,0,0.1,0.1,0.2l1.4,4.1c0.1,0.3,0.2,0.6,0.3,0.8
			c0.1,0.2,0.2,0.3,0.5,0.3h0.1v0L74.5,22.9L74.5,22.9z"/>
		<path d="M74.8,17.8c-0.6,0-0.6,0.1-0.7,0.7h-0.2c0-0.2,0.1-0.4,0.1-0.7c0-0.2,0-0.4,0-0.7h0.2c0.1,0.2,0.3,0.2,0.5,0.2h4
			c0.2,0,0.4,0,0.4-0.2l0.2,0c0,0.2-0.1,0.4-0.1,0.6c0,0.2,0,0.4,0,0.6l-0.2,0.1c0-0.3-0.1-0.8-0.6-0.8h-1.3V22
			c0,0.6,0.3,0.7,0.6,0.7h0.1v0.2c-0.3,0-0.9,0-1.3,0c-0.5,0-1,0-1.3,0v-0.2h0.1c0.4,0,0.6,0,0.6-0.7v-4.2H74.8L74.8,17.8z"/>
		<path d="M77.9,22.9c-0.3,0-0.9,0-1.3,0c-0.5,0-1,0-1.3,0h0v0v-0.3h0h0.1c0.4,0,0.6,0,0.6-0.6l0-4.1h-1.2v0v0h1.3V22
			c0,0.6-0.3,0.7-0.7,0.7h-0.1v0.2c0.3,0,0.8,0,1.3,0C77,22.8,77.5,22.8,77.9,22.9l0-0.2h-0.1c-0.4,0-0.7-0.1-0.7-0.7v-4.2h1.3
			c0.5,0,0.6,0.4,0.6,0.7l0.2-0.1c0-0.2,0-0.4,0-0.6c0-0.2,0.1-0.4,0.1-0.6l-0.1,0c0,0.2-0.3,0.2-0.5,0.2h-4h0c-0.2,0-0.4,0-0.5-0.2
			H74c0,0.2,0,0.4,0,0.6c0,0.2-0.1,0.4-0.1,0.6H74c0.1-0.5,0.2-0.7,0.8-0.7v0v0c-0.6,0-0.6,0.1-0.7,0.7l0,0h0h-0.3l0,0
			c0-0.2,0.1-0.4,0.1-0.7c0-0.2,0-0.4,0-0.7v0h0h0.2l0,0c0.1,0.2,0.2,0.2,0.4,0.2c0,0,0,0,0,0h4c0.2,0,0.4,0,0.4-0.2l0,0l0,0l0.2,0
			l0,0c0,0.2-0.1,0.4-0.1,0.6c0,0.2,0,0.4,0,0.6v0l0,0l-0.3,0.1l0,0c0-0.3-0.1-0.7-0.5-0.7h-1.2V22c0,0.6,0.2,0.6,0.6,0.6h0.2v0
			L77.9,22.9L77.9,22.9L77.9,22.9z"/>
		<path d="M79.6,22.7h0.1c0.3,0,0.6,0,0.6-0.4v-4.1c0-0.4-0.3-0.4-0.6-0.4h-0.1v-0.2c0.3,0,0.8,0,1.2,0c0.4,0,0.9,0,1.2,0v0.2h-0.1
			c-0.3,0-0.6,0-0.6,0.4v4.1c0,0.4,0.3,0.4,0.6,0.4h0.1v0.2c-0.4,0-0.8,0-1.2,0c-0.4,0-0.8,0-1.2,0V22.7L79.6,22.7z"/>
		<path d="M81.9,22.9v-0.2h-0.1c-0.3,0-0.6,0-0.6-0.5v-4.1c0-0.4,0.3-0.5,0.6-0.5h0.1v-0.2c-0.4,0-0.8,0-1.2,0c-0.4,0-0.8,0-1.1,0
			v0.2h0.1c0.3,0,0.6,0,0.6,0.5v4.1c0,0.4-0.3,0.5-0.6,0.5h-0.1v0.2c0.3,0,0.7,0,1.1,0C81.1,22.8,81.5,22.8,81.9,22.9 M81.9,22.9
			c-0.4,0-0.8,0-1.2,0c-0.4,0-0.8,0-1.2,0h0v0v-0.2v0h0h0.1c0.3,0,0.5,0,0.5-0.4v-4.1c0-0.4-0.3-0.4-0.5-0.4h-0.1v0v-0.3h0
			c0.3,0,0.8,0,1.2,0c0.4,0,0.9,0,1.2,0h0v0v0.3h0h-0.1c-0.3,0-0.5,0-0.5,0.4v4.1c0,0.4,0.3,0.4,0.5,0.4H82v0L81.9,22.9L81.9,22.9z"
			/>
		<path d="M85.2,22.7c1.5,0,1.8-1.3,1.8-2.5c0-1.1-0.6-2.5-1.9-2.5c-1.4,0-1.8,1.2-1.8,2.3C83.3,21.3,83.9,22.7,85.2,22.7
			 M85.1,17.3c1.7,0,3,1,3,2.7c0,1.8-1.3,3-3,3c-1.7,0-2.9-1.1-2.9-2.8C82.2,18.6,83.4,17.3,85.1,17.3"/>
		<path d="M83.2,19.9c0-1,0.4-2.3,1.8-2.3c1.3,0,1.9,1.4,1.9,2.6c0,1.1-0.3,2.5-1.8,2.5v0v0c1.5,0,1.7-1.3,1.7-2.4
			c0-1.1-0.6-2.5-1.9-2.5C83.7,17.7,83.3,18.9,83.2,19.9c0.1,1.4,0.7,2.7,1.9,2.7v0v0C83.9,22.7,83.2,21.3,83.2,19.9 M82.1,20.2
			c0-1.6,1.3-2.9,2.9-2.9v0v0C83.5,17.3,82.2,18.6,82.1,20.2c0.1,1.7,1.3,2.8,3,2.8c1.6,0,2.9-1.2,2.9-3c0-1.6-1.3-2.7-3-2.7v0v0
			c1.7,0,3,1,3,2.7c0,1.8-1.3,3-3,3C83.4,23,82.1,21.9,82.1,20.2"/>
		<path d="M93.3,21.3L93.3,21.3l0-2.9c0-0.6-0.4-0.7-0.7-0.7h-0.2v-0.2c0.4,0,0.7,0,1.1,0c0.3,0,0.6,0,1,0v0.2h-0.1
			c-0.3,0-0.7,0.1-0.7,1v3.6c0,0.3,0,0.5,0,0.8h-0.3l-4-4.5v3.2c0,0.7,0.1,0.9,0.7,0.9h0.1v0.2c-0.3,0-0.7,0-1,0c-0.4,0-0.7,0-1.1,0
			v-0.2h0.1c0.5,0,0.7-0.4,0.7-1v-3.3c0-0.4-0.4-0.7-0.7-0.7h-0.1v-0.2c0.3,0,0.6,0,0.9,0c0.2,0,0.5,0,0.7,0L93.3,21.3z"/>
		<path d="M93.3,21.3L93.3,21.3L93.3,21.3L93.3,21.3z M93.3,21.3L93.3,21.3L93.3,21.3z M93.5,23h0.3c0-0.2,0-0.5,0-0.8v-3.6
			c0-0.9,0.4-1,0.7-1h0.1v-0.2c-0.3,0-0.6,0-0.9,0c-0.4,0-0.7,0-1.1,0v0.2h0.1c0.2,0,0.7,0.1,0.7,0.8l0,3l0,0l0,0l-3.5-3.9
			c-0.2,0-0.5,0-0.7,0c-0.3,0-0.6,0-0.9,0v0.2h0.1c0.4,0,0.7,0.3,0.7,0.7v3.3c0,0.6-0.2,1-0.7,1h-0.1v0.2c0.3,0,0.7,0,1,0
			c0.3,0,0.6,0,1,0v-0.2h-0.1c-0.6,0-0.8-0.3-0.8-0.9v-3.3L93.5,23z M93.8,23l-0.3,0l-4-4.4v3.1c0,0.7,0.1,0.9,0.7,0.9h0.2v0v0.3h0
			c-0.3,0-0.7,0-1,0c-0.3,0-0.7,0-1.1,0h0v0v-0.3h0h0.1c0.5,0,0.7-0.3,0.7-1v-3.3c0-0.4-0.3-0.7-0.7-0.7h-0.1v0v-0.3h0
			c0.3,0,0.6,0,0.9,0c0.2,0,0.5,0,0.7,0l3.4,3.9v-2.9c0-0.6-0.4-0.7-0.6-0.7h-0.2v0v-0.3h0c0.4,0,0.7,0,1.1,0c0.3,0,0.6,0,1,0h0v0
			v0.3h0h-0.1c-0.3,0-0.7,0-0.7,1v3.6C93.8,22.5,93.8,22.8,93.8,23L93.8,23L93.8,23z"/>
		<path d="M96.9,18.3L96.9,18.3l-0.7,2.2h1.5L96.9,18.3z M95.8,21.8c-0.1,0.3-0.2,0.5-0.2,0.6c0,0.2,0.3,0.3,0.6,0.3h0.1v0.2
			c-0.3,0-0.6,0-0.9,0c-0.3,0-0.6,0-0.8,0v-0.2h0c0.3,0,0.6-0.2,0.7-0.5l1.3-3.6c0.1-0.3,0.2-0.7,0.3-1c0.3-0.1,0.6-0.2,0.7-0.3
			c0,0,0,0,0.1,0c0,0,0,0,0.1,0c0,0.1,0,0.1,0.1,0.2l1.4,4.1c0.1,0.3,0.2,0.6,0.3,0.8c0.1,0.2,0.3,0.3,0.5,0.3h0v0.2
			c-0.4,0-0.7,0-1.1,0c-0.4,0-0.8,0-1.2,0v-0.2h0.1c0.2,0,0.5,0,0.5-0.2c0-0.1-0.1-0.3-0.2-0.6L97.8,21H96L95.8,21.8z"/>
		<path d="M96.9,18.3L96.9,18.3L96.9,18.3z M96.2,20.5h1.4l-0.7-2.1L96.2,20.5z M96.1,20.6l0.7-2.3h0h0v0l0,0l0,0v0h0l0.7,2.3H96.1z
			 M97.7,22.9c0.4,0,0.8,0,1.1,0c0.4,0,0.7,0,1,0v-0.2h0c-0.3,0-0.4-0.1-0.5-0.3c-0.1-0.2-0.2-0.5-0.3-0.8l-1.4-4.1
			c0-0.1,0-0.1-0.1-0.2c0,0,0,0,0,0h0c0,0,0,0,0,0c-0.2,0.1-0.5,0.3-0.7,0.3c0,0.3-0.2,0.7-0.3,1l-1.3,3.6c-0.1,0.3-0.4,0.5-0.7,0.5
			h0v0.2c0.3,0,0.5,0,0.8,0c0.3,0,0.6,0,0.9,0v-0.2h-0.1c-0.3,0-0.6,0-0.6-0.3c0-0.2,0.1-0.4,0.2-0.6l0,0l0,0l0.3-0.8h1.8l0.3,0.9
			c0.1,0.3,0.2,0.5,0.2,0.6c0,0.2-0.3,0.3-0.5,0.3h-0.1L97.7,22.9L97.7,22.9z M100,22.9c-0.4,0-0.7,0-1.1,0c-0.4,0-0.8,0-1.2,0l0,0
			v0v-0.3h0h0.1c0.2,0,0.5,0,0.5-0.2c0-0.1-0.1-0.3-0.2-0.6L97.8,21h-1.7l-0.2,0.8c-0.1,0.3-0.2,0.5-0.2,0.6c0,0.2,0.3,0.2,0.6,0.2
			h0.1v0v0.3l0,0c-0.3,0-0.6,0-0.9,0c-0.3,0-0.6,0-0.8,0l0,0v0v-0.3h0h0c0.3,0,0.5-0.2,0.6-0.5l1.3-3.6c0.1-0.3,0.2-0.7,0.3-1
			c0.2-0.1,0.6-0.2,0.7-0.3c0,0,0,0,0.1,0c0,0,0.1,0,0.1,0c0,0.1,0,0.1,0.1,0.2l1.4,4.1c0.1,0.3,0.2,0.6,0.3,0.8
			c0.1,0.2,0.2,0.3,0.5,0.3h0.1v0L100,22.9L100,22.9z"/>
		<path d="M101.9,22.1c0,0.3,0.2,0.4,0.5,0.4c0.3,0,0.7,0,1,0c0.3,0,0.6-0.2,0.7-0.4c0.1-0.2,0.2-0.4,0.2-0.6h0.2
			c-0.1,0.4-0.2,0.9-0.3,1.3c-0.7,0-1.4,0-2.1,0c-0.7,0-1.4,0-2.1,0v-0.2h0.1c0.3,0,0.6,0,0.6-0.5v-4c0-0.4-0.3-0.4-0.6-0.4h-0.1
			v-0.2c0.4,0,0.8,0,1.2,0c0.4,0,0.8,0,1.2,0v0.2h-0.2c-0.3,0-0.5,0-0.5,0.4V22.1z"/>
		<path d="M104.3,22.9c0.1-0.4,0.2-0.8,0.3-1.3h-0.2c0,0.2-0.1,0.4-0.2,0.5c-0.1,0.2-0.4,0.4-0.8,0.4c-0.2,0-0.4,0-0.6,0
			c-0.2,0-0.3,0-0.4,0c-0.3,0-0.5-0.1-0.5-0.5v-4c0-0.4,0.3-0.5,0.6-0.5h0.2v-0.2c-0.4,0-0.8,0-1.2,0c-0.4,0-0.8,0-1.2,0v0.2h0.1
			c0.3,0,0.6,0,0.6,0.5v4c0,0.5-0.3,0.6-0.6,0.6h-0.1v0.2c0.7,0,1.4,0,2,0C103,22.8,103.7,22.9,104.3,22.9 M104.4,22.9
			c-0.7,0-1.4,0-2.1,0c-0.7,0-1.4,0-2.1,0h0v0v-0.3h0h0.1c0.3,0,0.6,0,0.6-0.5v-4c0-0.4-0.3-0.4-0.6-0.4h-0.1v0v-0.3h0
			c0.4,0,0.8,0,1.2,0c0.4,0,0.8,0,1.2,0h0v0v0.3h0h-0.2c-0.3,0-0.5,0-0.5,0.4v4c0,0.3,0.2,0.4,0.4,0.4c0.1,0,0.3,0,0.4,0
			c0.2,0,0.4,0,0.6,0c0.3,0,0.6-0.2,0.7-0.4c0.1-0.2,0.2-0.4,0.2-0.6l0,0h0h0.3l0,0C104.6,22,104.5,22.4,104.4,22.9L104.4,22.9
			L104.4,22.9z"/>
		<path d="M104.4,18L104.4,18c0.2,0,0.3-0.1,0.3-0.2c0-0.1-0.1-0.2-0.2-0.2h-0.1V18z M104.1,18.5L104.1,18.5
			c0.1-0.1,0.1-0.1,0.1-0.1v-0.6c0-0.1,0-0.1-0.1-0.1v0h0.4c0.1,0,0.3,0.1,0.3,0.2c0,0.1-0.1,0.2-0.2,0.2l0.1,0.2
			c0.1,0.1,0.1,0.2,0.2,0.2v0h-0.2c-0.1,0-0.1-0.2-0.3-0.4h-0.1v0.3c0,0.1,0,0.1,0.1,0.1v0H104.1z M104.6,18.7
			c0.4,0,0.7-0.3,0.7-0.7s-0.3-0.7-0.7-0.7c-0.4,0-0.7,0.3-0.7,0.7C103.9,18.4,104.2,18.7,104.6,18.7 M104.6,17.2
			c0.5,0,0.8,0.4,0.8,0.8s-0.4,0.8-0.8,0.8c-0.5,0-0.8-0.4-0.8-0.8S104.1,17.2,104.6,17.2"/>
	</g>
</g>
</svg>
