<?xml version="1.0" encoding="utf-8"?>
<!-- Generator: Adobe Illustrator 16.0.0, SVG Export Plug-In . SVG Version: 6.00 Build 0)  -->
<!DOCTYPE svg PUBLIC "-//W3C//DTD SVG 1.1//EN" "http://www.w3.org/Graphics/SVG/1.1/DTD/svg11.dtd">
<svg version="1.1" id="Camada_1" xmlns="http://www.w3.org/2000/svg" xmlns:xlink="http://www.w3.org/1999/xlink" x="0px" y="0px"
	 width="59.3px" height="50px" viewBox="5.3 0 59.3 50" enable-background="new 5.3 0 59.3 50" xml:space="preserve">
<g id="ujwLOx.tif">
	<g>
		<path d="M5.3,50c0-16.7,0-33.3,0-50c0.3,0,0.5,0,0.8,0c8,0,16,0,24,0c0.4,0,0.7,0.1,1,0.5c11,16.3,22.1,32.6,33.1,48.9
			c0.1,0.2,0.2,0.3,0.4,0.6C44.9,50,25.2,50,5.3,50z M8.1,47.7c17.2,0,34.2,0,51.4,0c-0.1-0.2-0.2-0.4-0.3-0.5
			c-4.3-6.3-8.7-12.6-13-18.9c-0.3-0.4-0.6-0.5-1-0.5c-7.3,0-14.5,0-21.8,0c-0.3,0-0.5,0-0.8,0c0,1.4,0,2.6,0,4c0.6,0,1.1,0,1.8,0
			c-1.2,1.6-2.4,3.2-3.6,4.7c-1.2-1.6-2.4-3.1-3.6-4.8c0.7,0,1.3,0,1.9,0c0-1.1,0-2.1,0-3.2c0-0.6-0.1-0.8-0.8-0.8
			c-3.2,0-6.5,0-9.7,0c-0.2,0-0.4,0-0.6,0C8.1,34.5,8.1,41,8.1,47.7z M44.1,25.4c-0.2-0.3-0.2-0.4-0.3-0.5c-5-7.3-10.1-14.7-15.1-22
			c-0.3-0.4-0.6-0.5-1-0.5c-6.4,0-12.8,0-19.2,0c-0.3,0-0.5,0-0.8,0c0,1.5,0,2.9,0,4.4c0.3,0,0.6,0,0.9,0c5.7,0,11.3,0,17,0
			c0.6,0,1,0.2,1.3,0.7C31,13.3,35.1,19,39.2,24.8c0.2,0.3,0.5,0.6,0.7,0.6C41.3,25.4,42.6,25.4,44.1,25.4z M20.8,16.1
			c-1.3,1.7-2.4,3.2-3.7,4.9c0.4,0,0.6,0,0.8,0c1.3,0,1.1-0.2,1.2,1.2c0,1.4,0,2.7,0,4.1c1.2,0,2.4,0,3.6,0c0-1.8,0-3.5,0-5.3
			c0.6,0,1.2,0,1.9,0C23.2,19.3,22.1,17.7,20.8,16.1z"/>
		<path fill="#FFFFFF" d="M8.1,47.7c0-6.6,0-13.2,0-19.8c0.2,0,0.4,0,0.6,0c3.2,0,6.5,0,9.7,0c0.6,0,0.8,0.2,0.8,0.8
			c0,1,0,2.1,0,3.2c-0.6,0-1.2,0-1.9,0c1.2,1.7,2.4,3.2,3.6,4.8c1.2-1.6,2.4-3.1,3.6-4.7c-0.7,0-1.2,0-1.8,0c0-1.3,0-2.6,0-4
			c0.2,0,0.5,0,0.8,0c7.3,0,14.5,0,21.8,0c0.4,0,0.8,0.1,1,0.5c4.3,6.3,8.6,12.6,13,18.9c0.1,0.1,0.2,0.3,0.3,0.5
			C42.3,47.7,25.3,47.7,8.1,47.7z"/>
		<path fill="#FFFFFF" d="M44.1,25.4c-1.5,0-2.9,0-4.3,0c-0.3,0-0.5-0.4-0.7-0.6C35.1,19,31,13.3,26.9,7.5c-0.3-0.5-0.7-0.7-1.3-0.7
			c-5.7,0-11.3,0-17,0c-0.3,0-0.6,0-0.9,0c0-1.5,0-2.9,0-4.4c0.3,0,0.5,0,0.8,0c6.4,0,12.8,0,19.2,0c0.4,0,0.8,0.1,1,0.5
			c5,7.3,10.1,14.7,15.1,22C43.9,25,44,25.1,44.1,25.4z"/>
		<path fill="#FFFFFF" d="M20.8,16.1c1.3,1.7,2.4,3.2,3.7,4.9c-0.7,0-1.3,0-1.9,0c0,1.8,0,3.5,0,5.3c-1.2,0-2.4,0-3.6,0
			c0-1.4,0-2.8,0-4.1c0-1.4,0.1-1.2-1.2-1.2c-0.2,0-0.4,0-0.8,0C18.4,19.3,19.5,17.7,20.8,16.1z"/>
	</g>
</g>
</svg>
