<?xml version="1.0" encoding="utf-8"?>
<!-- Generator: Adobe Illustrator 16.0.0, SVG Export Plug-In . SVG Version: 6.00 Build 0)  -->
<!DOCTYPE svg PUBLIC "-//W3C//DTD SVG 1.1//EN" "http://www.w3.org/Graphics/SVG/1.1/DTD/svg11.dtd">
<svg version="1.1" id="Layer_1" xmlns="http://www.w3.org/2000/svg" xmlns:xlink="http://www.w3.org/1999/xlink" x="0px" y="0px"
	 width="56px" height="42px" viewBox="0 0 56 42" enable-background="new 0 0 56 42" xml:space="preserve">
<path fill="#231F20" d="M0,42V0h56v42H0z"/>
<path fill="#FFF100" d="M12.9,17.7c0.5-0.2,1-0.2,1.5-0.2c2.3,0,4.1,1.6,4.6,3.7l3.2-0.7c-0.7-3.6-3.9-6.3-7.8-6.3
	c-0.9,0-1.7,0.1-2.5,0.4L12.9,17.7z"/>
<path fill="#00A3DF" d="M9.1,28.1l2.2-2.4c-1-0.9-1.6-2.1-1.6-3.5c0-1.4,0.6-2.6,1.6-3.5l-2.2-2.4c-1.6,1.5-2.7,3.6-2.7,5.9
	C6.5,24.5,7.5,26.6,9.1,28.1"/>
<path fill="#EE4023" d="M18.9,23.1c-0.4,2.1-2.3,3.7-4.6,3.7c-0.5,0-1-0.1-1.5-0.2l-1,3.1c0.8,0.3,1.6,0.4,2.5,0.4
	c3.8,0,7-2.7,7.8-6.3L18.9,23.1z"/>
<path fill="#FFFFFF" d="M32.8,25.2c-0.5,0.5-1.2,0.8-2,0.8c-0.5,0-1-0.2-1.5-0.4l-1.1,1.7c0.7,0.5,1.6,0.7,2.5,0.7
	c1.3,0,2.6-0.5,3.5-1.4L32.8,25.2z"/>
<path fill="#FFFFFF" d="M30.9,18.4c-2.7,0-4.9,2.1-4.9,4.8c0,1,0.3,1.9,0.8,2.7l8.8-3.7C35,20,33.1,18.4,30.9,18.4 M28,23.5
	c0-0.1,0-0.2,0-0.3c0-1.6,1.3-2.8,2.9-2.8c0.9,0,1.6,0.4,2.1,1L28,23.5z"/>
<path fill="#FFFFFF" d="M38.2,16.2v9.3l1.6,0.7L39.1,28l-1.6-0.7c-0.4-0.2-0.6-0.4-0.8-0.7c-0.2-0.3-0.3-0.7-0.3-1.2v-9.4L38.2,16.2
	L38.2,16.2z"/>
<path fill="#FFFFFF" d="M44.1,20.5c0.3-0.1,0.6-0.1,0.9-0.1c1.4,0,2.5,1,2.8,2.3l2-0.4c-0.4-2.2-2.4-3.9-4.7-3.9
	c-0.5,0-1.1,0.1-1.5,0.2L44.1,20.5z"/>
<path fill="#FFFFFF" d="M41.8,26.8l1.3-1.5c-0.6-0.5-1-1.3-1-2.1s0.4-1.6,1-2.1l-1.3-1.5c-1,0.9-1.6,2.2-1.6,3.6
	S40.8,25.9,41.8,26.8"/>
<path fill="#FFFFFF" d="M47.8,23.8c-0.3,1.3-1.4,2.3-2.8,2.3c-0.3,0-0.6-0.1-0.9-0.1l-0.6,1.9c0.5,0.2,1,0.2,1.5,0.2
	c2.3,0,4.3-1.7,4.7-3.9L47.8,23.8z"/>
</svg>
