<?xml version="1.0" encoding="utf-8"?>
<!-- Generator: Adobe Illustrator 16.0.0, SVG Export Plug-In . SVG Version: 6.00 Build 0)  -->
<!DOCTYPE svg PUBLIC "-//W3C//DTD SVG 1.1//EN" "http://www.w3.org/Graphics/SVG/1.1/DTD/svg11.dtd">
<svg version="1.1" id="Layer_1" xmlns="http://www.w3.org/2000/svg" xmlns:xlink="http://www.w3.org/1999/xlink" x="0px" y="0px"
	 width="58.1px" height="58.1px" viewBox="0 0 58.1 58.1" enable-background="new 0 0 58.1 58.1" xml:space="preserve">
<circle fill="#231F20" cx="29.1" cy="29.1" r="29.1"/>
<g>
	<path fill="#FFFFFF" d="M20.4,34.5c-0.9,0.9-2.2,1.5-3.6,1.4c-1,0-1.8-0.3-2.6-0.8l-1.9,3c1.3,0.8,2.8,1.3,4.4,1.3
		c2.4,0,4.5-0.9,6.1-2.4L20.4,34.5z"/>
	<path fill="#FFFFFF" d="M17,22.5c-4.7-0.1-8.5,3.7-8.6,8.4c0,1.8,0.5,3.4,1.4,4.8L25.2,29C24.3,25.3,21,22.6,17,22.5 M11.9,31.5
		c0-0.2,0-0.4,0-0.6c0-2.8,2.3-5,5.1-4.9c1.5,0,2.8,0.7,3.7,1.8L11.9,31.5z"/>
	<path fill="#FFFFFF" d="M30,18.7v16.4l2.8,1.2l-1.3,3.2l-2.8-1.2c-0.6-0.3-1.1-0.7-1.4-1.2c-0.3-0.5-0.5-1.1-0.5-2V18.7H30z"/>
	<path fill="#FFF100" d="M40.2,26.2c0.5-0.2,1-0.3,1.6-0.3c2.4,0,4.4,1.7,4.9,4l3.4-0.7c-0.8-3.9-4.2-6.8-8.3-6.8
		c-0.9,0-1.8,0.2-2.7,0.4L40.2,26.2z"/>
	<path fill="#00A3DF" d="M36.2,37.3l2.3-2.6c-1-0.9-1.7-2.3-1.7-3.7c0-1.5,0.7-2.8,1.7-3.7l-2.3-2.6c-1.8,1.6-2.9,3.8-2.9,6.4
		C33.3,33.5,34.4,35.8,36.2,37.3"/>
	<path fill="#EE4023" d="M46.7,32c-0.5,2.3-2.5,4-4.9,4c-0.6,0-1.1-0.1-1.6-0.3L39.1,39c0.8,0.3,1.8,0.4,2.7,0.4
		c4.1,0,7.5-2.9,8.3-6.8L46.7,32z"/>
</g>
</svg>
