<?xml version="1.0" encoding="utf-8"?>
<!-- Generator: Adobe Illustrator 21.0.0, SVG Export Plug-In . SVG Version: 6.00 Build 0)  -->
<svg version="1.1" id="Layer_1" xmlns="http://www.w3.org/2000/svg" xmlns:xlink="http://www.w3.org/1999/xlink" x="0px" y="0px"
	 viewBox="0 0 97.8 70" style="enable-background:new 0 0 97.8 70;" xml:space="preserve">
<style type="text/css">
	.st0{fill:#263C70;}
	.st1{fill:#0087E5;}
	.st2{fill:#FDDA2B;}
</style>
<path d="M79.2,32.3V43H60.1L39.6,24.9H27.3L0,48.1L2.8,51l4-3.2V70h14.5V52.1c0-0.8,0.4-1.3,1.1-1.3H32c0.8,0,1.4,0.5,1.4,1.3V70
	h57.5V47.7l4,3.2l2.9-2.9L79.2,32.3z M50.5,60.5h-8v-8h8V60.5z M67.2,60.5h-8v-8h8V60.5z M83.3,60.5h-8v-8h8V60.5z"/>
<path d="M42.7,18.9v3.8l18.7,16.9h14.4V18.9l3,2.7l2.2-2.3l-5.2-4.6V1.4c0-0.7-0.7-1.4-1.4-1.4h-4.9c-0.7,0-1.3,0.7-1.3,1.4V8
	l-9.1-8L37.2,19.2l2.3,2.4L42.7,18.9z M55.1,15.8h8v8h-8V15.8z"/>
</svg>
