<?xml version="1.0" encoding="utf-8"?>
<!-- Generator: Adobe Illustrator 16.0.0, SVG Export Plug-In . SVG Version: 6.00 Build 0)  -->
<!DOCTYPE svg PUBLIC "-//W3C//DTD SVG 1.1//EN" "http://www.w3.org/Graphics/SVG/1.1/DTD/svg11.dtd">
<svg version="1.1" id="Layer_1" xmlns="http://www.w3.org/2000/svg" xmlns:xlink="http://www.w3.org/1999/xlink" x="0px" y="0px"
	 width="20px" height="17px" viewBox="5.5 6.5 20 17" enable-background="new 5.5 6.5 20 17" xml:space="preserve">
<g>
	<g>
		<path fill="#00ADEF" d="M25.1,20.7h-6.4c0,0,0,0,0,0c-0.2-1.2-1.2-2.1-2.5-2.1s-2.3,0.9-2.5,2.1c0,0,0,0,0,0H5.9
			c-0.2,0-0.4,0.2-0.4,0.4c0,0.2,0.2,0.4,0.4,0.4h7.9c0,0,0,0,0,0c0.2,1.2,1.2,2.1,2.5,2.1c1.3,0,2.3-0.9,2.5-2.1c0,0,0,0,0,0h6.4
			c0.2,0,0.4-0.2,0.4-0.4C25.5,20.8,25.3,20.7,25.1,20.7z M16.2,22.8c-1,0-1.8-0.8-1.8-1.8c0-1,0.8-1.8,1.8-1.8c1,0,1.8,0.8,1.8,1.8
			C18,22,17.2,22.8,16.2,22.8z M25.1,14.3h-1.8c0,0,0,0,0,0c-0.2-1.2-1.2-2.1-2.5-2.1s-2.3,0.9-2.5,2.1c0,0,0,0,0,0H5.9
			c-0.2,0-0.4,0.2-0.4,0.4c0,0.2,0.2,0.4,0.4,0.4h12.5c0,0,0,0,0,0c0.2,1.2,1.2,2.1,2.5,2.1c1.3,0,2.3-0.9,2.5-2.1c0,0,0,0,0,0h1.8
			c0.2,0,0.4-0.2,0.4-0.4C25.5,14.5,25.3,14.3,25.1,14.3z M20.9,16.4c-1,0-1.8-0.8-1.8-1.8c0-1,0.8-1.8,1.8-1.8c1,0,1.8,0.8,1.8,1.8
			S21.8,16.4,20.9,16.4z M5.9,9.3h2.5c0,0,0,0,0,0c0.2,1.2,1.2,2.1,2.5,2.1c1.3,0,2.3-0.9,2.5-2.1c0,0,0,0,0,0h11.8
			c0.2,0,0.4-0.2,0.4-0.4s-0.2-0.4-0.4-0.4H13.4c0,0,0,0,0,0c-0.2-1.2-1.2-2.1-2.5-2.1c-1.3,0-2.3,0.9-2.5,2.1c0,0,0,0,0,0H5.9
			C5.7,8.6,5.5,8.8,5.5,9S5.7,9.3,5.9,9.3z M10.9,7.2c1,0,1.8,0.8,1.8,1.8c0,1-0.8,1.8-1.8,1.8S9.1,10,9.1,9C9.1,8,9.9,7.2,10.9,7.2
			z"/>
	</g>
</g>
</svg>
