<?xml version="1.0" encoding="utf-8"?>
<!-- Generator: Adobe Illustrator 16.0.0, SVG Export Plug-In . SVG Version: 6.00 Build 0)  -->
<!DOCTYPE svg PUBLIC "-//W3C//DTD SVG 1.1//EN" "http://www.w3.org/Graphics/SVG/1.1/DTD/svg11.dtd">
<svg version="1.1" id="Camada_1" xmlns="http://www.w3.org/2000/svg" xmlns:xlink="http://www.w3.org/1999/xlink" x="0px" y="0px"
	 width="66.4px" height="50px" viewBox="1.8 0 66.4 50" enable-background="new 1.8 0 66.4 50" xml:space="preserve">
<g>
	<path d="M3.7,10.2H27c0.9,3.5,4.1,6.3,8,6.3s7.1-2.7,8-6.3h23.3c1.1,0,2-0.9,2-2c0-1.1-0.9-2-2-2H43C42.1,2.6,38.9,0,35,0
		s-7.1,2.6-8,6.3H3.7c-1.1,0-2,0.9-2,2C1.8,9.3,2.7,10.2,3.7,10.2z"/>
	<path d="M66.3,39.7H17.9c-0.9-3.6-4.1-6.2-7.9-6.2c-4.4,0-8.1,3.5-8.2,7.9c0,0,0,0.1,0,0.1c0,0,0,0,0,0c0,0,0,0.1,0,0.1
		c0,4.5,3.7,8.2,8.2,8.2c3.9,0,7.2-2.7,8-6.4h48.3c1.1,0,2-0.9,2-2C68.2,40.6,67.3,39.7,66.3,39.7z"/>
	<path d="M60,16.8c-3.9,0-7.1,2.6-8,6.3H3.7c-1.1,0-2,0.9-2,2c0,1.1,0.9,2,2,2H52c0.9,3.5,4.1,6.2,8,6.2c4.5,0,8.2-3.7,8.2-8.2
		S64.5,16.8,60,16.8z"/>
</g>
</svg>
