<?xml version="1.0" encoding="utf-8"?>
<!-- Generator: Adobe Illustrator 16.0.0, SVG Export Plug-In . SVG Version: 6.00 Build 0)  -->
<!DOCTYPE svg PUBLIC "-//W3C//DTD SVG 1.1//EN" "http://www.w3.org/Graphics/SVG/1.1/DTD/svg11.dtd">
<svg version="1.1" id="Camada_1" xmlns="http://www.w3.org/2000/svg" xmlns:xlink="http://www.w3.org/1999/xlink" x="0px" y="0px"
	 width="594.4px" height="595.3px" viewBox="0 0 594.4 595.3" enable-background="new 0 0 594.4 595.3" xml:space="preserve">
<g>
	<g>
		<path d="M343.4,344.9c-31.4,24.3-91.5,75.8-91.5,75.8v124.4l-41.5,27.2l-60.1-125.9L23,385l27.2-41.5h123c0,0,55.3-64.9,77.2-90.1
			c-76.3-47-142.9-83.1-223.1-128.7c-8.8-5-26.2-15.1-27.2-22.9c-1.2-8.8,10-22.9,14.3-30c5.9-9.8,10.8-21.1,20-24.3
			c12.2-4.3,31.8,2,44.3,4.3c98.5,18.4,184.2,32.6,283.2,51.5c8.4,1.6,16.4,5.1,21.5,4.3c10.8-1.8,28.3-23.9,37.2-31.5
			c25.9-21.9,50.5-40.8,80.1-57.2c14.2-7.9,64.4-31.4,85.8-10c12.8,12.8,7.8,43,0,62.9c-18.9,48.5-48.8,79.9-81.5,117.3
			c-6,6.8-16.3,17.5-17.2,21.5c-1.7,8.1,5,32.7,7.2,44.3c16.2,87.8,32.3,170.5,48.6,260.3c2.7,15,7.7,29.9,4.3,42.9
			c-2.9,11.1-12.1,16.4-22.9,22.9c-6.5,3.9-22.1,14.9-30,14.3c-9.2-0.7-18.9-17.7-24.3-27.2C426,489.6,388.8,423.1,343.4,344.9z"/>
	</g>
</g>
</svg>
