<?xml version="1.0" encoding="utf-8"?>
<!-- Generator: Adobe Illustrator 16.0.0, SVG Export Plug-In . SVG Version: 6.00 Build 0)  -->
<!DOCTYPE svg PUBLIC "-//W3C//DTD SVG 1.1//EN" "http://www.w3.org/Graphics/SVG/1.1/DTD/svg11.dtd">
<svg version="1.1" id="Layer_1" xmlns="http://www.w3.org/2000/svg" xmlns:xlink="http://www.w3.org/1999/xlink" x="0px" y="0px"
	 width="87px" height="90.8px" viewBox="6.6 5.2 87 90.8" enable-background="new 6.6 5.2 87 90.8" xml:space="preserve">
<g>
	<path d="M82.8,96c-2-0.9-4-1.7-6-2.6c-1.9-0.8-3.8-1.7-5.8-2.5c-0.4-0.2-1-0.3-1.3-0.1c-3.2,1.6-6.4,3.2-9.6,4.8
		c-0.2,0.1-0.4,0.3-0.5,0.4c-3.9-1.7-7.8-3.4-11.7-5c-0.6-0.2-0.8-0.5-0.8-1.2c0-13.1,0-26.2,0-39.3c0-0.2,0-0.4,0-0.8
		c2.5,1.1,5,2.1,7.4,3.2c1.4,0.6,2.7,1.2,4.1,1.7c0.5,0.2,1.2,0.1,1.7-0.1c1.1-0.4,2.1-1,3.2-1.6c-0.4,1.4-0.7,2.7-1.1,4
		c-0.3,0.9-2.7,1.6-4,1.2c-0.8-0.3-1.6-0.6-2.4-1c-1.8-0.8-3.6-1.5-5.5-2.4c0,0.5-0.1,0.8-0.1,1.1c0,4.6,0,9.2,0,13.9
		c0,0.8,0.2,1.1,1.1,1.2c2.8,0.3,5.4,1.2,7.5,3.2c0.2,0.2,0.6,0.4,1,0.4c1.5,0.2,2.7,1.1,3.4,2.4c0.5,0.8,0.9,1.7,1.3,2.5
		c1.2,2.1,2.5,2.6,4.9,2c2.5-0.7,6.5,0.8,8.2,3.3c1,1.6,1.7,3.5,2.3,5.3c0.5,1.4,2,2.2,3.4,1.5c1.9-1,3.8-1.9,5.7-2.9
		c0.4-0.2,0.7-0.7,0.7-1.1c0-10.6,0-21.2,0-31.7c0-0.2,0-0.3-0.1-0.8c-1.6,0.8-3.1,1.5-4.6,2.3c-0.3-1-0.5-2-0.7-3
		c0-0.2,0.2-0.5,0.4-0.6c2.8-1.5,5.7-2.9,8.7-4.4c0,0.5,0,0.9,0,1.3c0,12.9,0,25.8,0,38.7c0,0.8-0.3,1.1-0.9,1.4
		c-3.1,1.5-6.1,3-9.1,4.5C83.2,95.6,83,95.8,82.8,96z"/>
	<path d="M37.2,39C27,39,16.8,39,6.6,39c0-10.2,0-20.3,0-30.5c10.2,0,20.3,0,30.5,0C37.2,18.7,37.2,28.8,37.2,39z M34.2,36.1
		c0-8.1,0-16.2,0-24.2c-8.1,0-16.1,0-24.2,0c0,8.1,0,16.2,0,24.2C18.2,36.1,26.2,36.1,34.2,36.1z"/>
	<path d="M37.2,58.1c0,10.2,0,20.3,0,30.5c-10.2,0-20.3,0-30.5,0c0-10.1,0-20.3,0-30.5C16.8,58.1,26.9,58.1,37.2,58.1z M34.2,85.5
		c0-8.1,0-16.1,0-24.2c-8.1,0-16.1,0-24.2,0c0,8.1,0,16.1,0,24.2C18.1,85.5,26.1,85.5,34.2,85.5z"/>
	<path d="M71.9,50.1c-5.6,1.1-8,7.2-6.1,11c1.3,2.7,2.6,5.3,3.9,7.9c1.3,2.7,2.7,5.3,3,8.4c0,0.2,0.4,0.4,0.6,0.5
		c0.4,0.1,0.9,0,1.1,0c0.7-2.3,1.2-4.4,2-6.2c1.3-2.9,2.9-5.7,4.2-8.6c0.7-1.5,1.5-3.1,1.5-4.7C82.2,53,77.1,49,71.9,50.1z
		 M73.6,62.2c-2.1-0.1-3.8-1.8-3.7-3.9c0-2.2,1.8-3.9,4-3.8c2.1,0,3.8,1.8,3.7,4C77.5,60.6,75.7,62.3,73.6,62.2z"/>
	<path d="M15.2,21c0.5,0.3,0.9,0.5,1.1,0.7c0.7,0.6,1.3,1.3,2,2c1.1,1.1,1.4,1.1,2.5,0c2-2,4-4,6-6c1.1-1.1,1.3-1.1,2.5,0
		c1.9,1.8,1.9,1.8,0,3.7c-2.9,2.9-5.8,5.8-8.7,8.7c-0.9,0.9-1.2,0.9-2.1,0c-1.7-1.7-3.5-3.5-5.2-5.2c-0.9-0.9-0.9-1.3,0-2.2
		C13.9,22.1,14.5,21.6,15.2,21z"/>
	<path d="M15.3,71.2c0.4,0.2,0.7,0.4,1,0.7c0.8,0.7,1.5,1.5,2.2,2.2s1.3,0.7,2,0c2.1-2.1,4.2-4.2,6.4-6.4c1-1,1.3-1,2.2,0
		c1.9,2,2.4,1.7,0,4c-2.9,2.8-5.7,5.7-8.5,8.5c-1,1-1.2,1-2.3,0c-1.7-1.7-3.4-3.4-5.1-5.1c-1-1-1-1.3,0-2.3c0.4-0.4,0.7-0.7,1.1-1.1
		C14.6,71.5,14.9,71.4,15.3,71.2z"/>
	<path d="M89.2,7.7c-1.3-0.1-2.5,0-3.8,0c-0.2,0-0.5,0.4-0.5,0.6c0,0.8,0,1.5,0,2.3c0,1.2-0.8,2-2,2c-1.2,0-2.1-0.7-2.1-2
		c0-0.8,0.1-1.5,0-2.3c0-0.2-0.3-0.6-0.4-0.6c-1.4,0-2.8,0-4.2,0c0,1,0,1.8,0,2.6c0,1.5-0.7,2.3-2,2.3s-2.1-0.8-2.1-2.3
		c0-0.8,0-1.7,0-2.6c-1.4,0-2.6-0.1-3.9,0c-0.2,0-0.5,0.5-0.5,0.7c0,0.8,0,1.5,0,2.3c0,1.2-0.9,1.9-2.1,1.9c-1.2,0-2-0.8-2-2
		c0-0.9,0-1.8,0-2.9c-1.5,0-2.8,0-4.3,0.2c-0.2,0-0.5,0.4-0.5,0.6c0,0.8,0,1.5,0,2.3c0,1.2-0.8,2-2.1,2c-1.2,0-2-0.8-2-2
		c0-0.7,0-1.5,0-2.2c0-0.5-0.2-0.7-0.7-0.7c-1,0-2.1,0-3.2,0c-2.1,0.1-3.2,1.2-3.2,3.3c0,9.1,0,18.3,0,27.4c0,2.5,1.4,3.9,3.9,3.9
		c9.3,0,18.7,0,28,0c1.1,0,2-0.3,2.9-1c2.5-2,5.1-3.9,7.7-5.7c1.4-1,1.9-2.1,1.9-3.7c0-4.3,0-8.5,0-12.8c0-2.8,0-5.6,0-8.4
		C92,9,91.2,7.9,89.2,7.7z M82,39c0-1.1-0.1-1.9,0-2.8c0-0.3,0-0.6,0-0.9c0-0.3,0.6-0.8,1-0.8c1.6-0.1,3.2,0,4.7,0
		c0.1,0.2,0.1,0.2,0.1,0.3C86,36.1,84.1,37.5,82,39z M89.9,32.4c-0.7,0-1.4,0-2.1,0c-1.4,0-2.8,0-4.2,0c-2.5,0-3.8,1.3-3.8,3.7
		c0,1.3,0,2.6,0,4c-0.5,0-0.8,0-1,0.1c-9,0-18,0-27.1,0c-1.4,0-1.7-0.3-1.7-1.7c0-7.1,0-14.1,0-21.2c0-0.3,0-0.6,0-1
		c13.3,0,26.6,0,39.9,0C89.9,21.7,89.9,27,89.9,32.4z"/>
	<g>
		<path d="M51.9,22.2c2,0,3.8,0,5.8,0c0-1.2,0-2.4,0-3.5c-2,0-3.8,0-5.8,0C51.9,19.9,51.9,21,51.9,22.2z"/>
		<path d="M51.9,29.9c1.9,0,3.8,0,5.8,0c0-1.2,0-2.3,0-3.4c-2,0-3.8,0-5.8,0C51.9,27.7,51.9,28.8,51.9,29.9z"/>
		<path d="M67.7,18.7c-1.9,0-3.8,0-5.7,0c0,1.2,0,2.4,0,3.5c1.9,0,3.8,0,5.7,0C67.7,21,67.7,19.8,67.7,18.7z"/>
		<path d="M67.7,26.5c-2,0-3.8,0-5.8,0c0,1.2,0,2.3,0,3.4c2,0,3.9,0,5.8,0C67.7,28.8,67.7,27.7,67.7,26.5z"/>
		<path d="M51.9,37.5c1.9,0,3.8,0,5.7,0c0-1.2,0-2.3,0-3.4c-2,0-3.8,0-5.7,0C51.9,35.2,51.9,36.3,51.9,37.5z"/>
		<path d="M72,37.5c2,0,3.9,0,5.8,0c0-1.2,0-2.3,0-3.4c-2,0-3.8,0-5.8,0C72,35.2,72,36.3,72,37.5z"/>
		<path d="M82,29.9c2,0,3.9,0,5.8,0c0-1.2,0-2.3,0-3.4c-2,0-3.9,0-5.8,0C82,27.7,82,28.8,82,29.9z"/>
		<path d="M82,18.7c0,1.2,0,2.3,0,3.5c2,0,3.9,0,5.8,0c0-1.2,0-2.3,0-3.5C85.9,18.7,84,18.7,82,18.7z"/>
		<path d="M72,29.9c2,0,3.9,0,5.8,0c0-1.1,0-2.2,0-3.4c-2,0-3.9,0-5.8,0C72,27.7,72,28.8,72,29.9z"/>
		<path d="M65,32.1c-1.9,0-3.6,1.6-3.6,3.5c-0.1,2,1.5,3.6,3.4,3.6c1.9,0,3.5-1.5,3.6-3.5C68.4,33.8,66.9,32.2,65,32.1z M67.2,35
			l-2.5,2.7c0.1,0,0,0.1-0.1,0.1c-0.1,0-0.1,0-0.2-0.1l-1.9-1.3c-0.1-0.1-0.2-0.3-0.1-0.4c0.1-0.1,0.3-0.2,0.4-0.1l1.6,1.1l2.3-2.5
			c0.1-0.1,0.3-0.1,0.5,0C67.3,34.6,67.3,34.8,67.2,35z"/>
	</g>
	<path d="M82,22.2c0-1.2,0-2.3,0-3.5c1.9,0,3.8,0,5.8,0c0,1.2,0,2.3,0,3.5C85.9,22.2,84,22.2,82,22.2z"/>
	<path d="M67.7,22.2c-1.9,0-3.7,0-5.7,0c0-1.1,0-2.3,0-3.5c1.9,0,3.7,0,5.7,0C67.7,19.8,67.7,21,67.7,22.2z"/>
	<path d="M57.7,22.2c-1.9,0-3.8,0-5.8,0c0-1.2,0-2.3,0-3.5c1.9,0,3.8,0,5.8,0C57.7,19.8,57.7,21,57.7,22.2z"/>
	<path d="M51.9,26.5c1.9,0,3.8,0,5.8,0c0,1.2,0,2.3,0,3.4c-1.9,0-3.8,0-5.8,0C51.9,28.8,51.9,27.7,51.9,26.5z"/>
	<path d="M67.7,26.5c0,1.2,0,2.3,0,3.4c-1.9,0-3.8,0-5.8,0c0-1.1,0-2.3,0-3.4C63.9,26.5,65.7,26.5,67.7,26.5z"/>
	<path d="M77.8,26.5c0,1.2,0,2.3,0,3.4c-1.9,0-3.8,0-5.8,0c0-1.1,0-2.3,0-3.4C73.9,26.5,75.8,26.5,77.8,26.5z"/>
	<path d="M82,29.9c0-1.1,0-2.2,0-3.4c1.9,0,3.8,0,5.8,0c0,1.1,0,2.2,0,3.4C85.9,29.9,84.1,29.9,82,29.9z"/>
	<path d="M51.9,37.5c0-1.1,0-2.2,0-3.4c1.9,0,3.8,0,5.7,0c0,1.1,0,2.2,0,3.4C55.8,37.5,53.9,37.5,51.9,37.5z"/>
	<path d="M72,37.5c0-1.1,0-2.2,0-3.4c1.9,0,3.8,0,5.8,0c0,1.1,0,2.2,0,3.4C75.8,37.5,73.9,37.5,72,37.5z"/>
	<path d="M75,17c-1.9,0-3.6,1.7-3.5,3.5c0,1.9,1.6,3.5,3.5,3.5s3.6-1.6,3.6-3.5C78.5,18.6,76.9,17,75,17z M77.1,19.3L74.6,22
		c0.1,0.2,0,0.2-0.1,0.2s-0.1,0-0.2-0.1l-1.9-1.3c-0.1-0.1-0.2-0.3-0.1-0.4c0.1-0.1,0.3-0.2,0.4-0.1l1.6,1.1l2.3-2.5
		c0.1-0.1,0.3-0.1,0.5,0C77.2,19,77.2,19.2,77.1,19.3z"/>
	<path d="M57.7,10.6c0,0.4-0.3,0.6-0.6,0.6H57c-0.4,0-0.6-0.3-0.6-0.6V5.8c0-0.4,0.3-0.6,0.6-0.6l0,0c0.4,0,0.6,0.3,0.6,0.6v4.8
		H57.7z"/>
	<path d="M66.4,10.9c0,0.4-0.3,0.6-0.6,0.6h-0.1c-0.4,0-0.6-0.3-0.6-0.6V6.2c0-0.4,0.3-0.6,0.6-0.6h0.1c0.4,0,0.6,0.3,0.6,0.6V10.9z
		"/>
	<path d="M75,10.9c0,0.4-0.3,0.6-0.6,0.6h-0.1c-0.4,0-0.6-0.3-0.6-0.6V6.2c0-0.4,0.3-0.6,0.6-0.6h0.1c0.4,0,0.6,0.3,0.6,0.6V10.9z"
		/>
	<path d="M83.8,10.9c0,0.4-0.3,0.6-0.6,0.6H83c-0.4,0-0.6-0.3-0.6-0.6V6.2c0-0.4,0.3-0.6,0.6-0.6h0.1c0.4,0,0.6,0.3,0.6,0.6
		L83.8,10.9L83.8,10.9z"/>
</g>
</svg>
