<?xml version="1.0" encoding="utf-8"?>
<!-- Generator: Adobe Illustrator 16.0.0, SVG Export Plug-In . SVG Version: 6.00 Build 0)  -->
<!DOCTYPE svg PUBLIC "-//W3C//DTD SVG 1.1//EN" "http://www.w3.org/Graphics/SVG/1.1/DTD/svg11.dtd">
<svg version="1.1" id="Layer_1" xmlns="http://www.w3.org/2000/svg" xmlns:xlink="http://www.w3.org/1999/xlink" x="0px" y="0px"
	 width="56px" height="42px" viewBox="0 0 56 42" enable-background="new 0 0 56 42" xml:space="preserve">
<path fill="#991915" d="M0,42V0h56v42H0z"/>
<path id="hipercard_1_" fill="#FFFFFF" d="M15,18.5c0.2-0.2,0.6-1,0.2-1.3c-0.1-0.1-0.3-0.1-0.6-0.1c-0.3,0-0.4,0.1-0.5,0.3
	c-0.2,0.2-0.3,0.9-0.1,1.1C14.3,18.7,14.9,18.6,15,18.5z M11.5,17.2c-0.2,1.2-0.4,2.3-0.6,3.4c-1.3,0-2.6,0.1-3.9,0
	c0.2-1.1,0.4-2.3,0.6-3.4H6.3c-0.5,2.8-1,5.7-1.5,8.5h1.4c0.2-1.4,0.4-2.9,0.7-4.2c1.2,0,2.7-0.1,3.8,0c-0.2,1.4-0.5,2.8-0.8,4.2
	h1.4c0.5-2.9,0.9-5.7,1.5-8.5H11.5z M31.7,19.6c-1.1-0.4-2,0.3-2.4,1c0.1-0.3,0.1-0.7,0.2-1h-1.1c-0.3,2.1-0.7,4.1-1,6.1h1.3
	c0.2-1.2,0.3-2.8,0.6-3.9c0.3-0.9,1.1-1.7,2.3-1.3C31.5,20.2,31.6,19.9,31.7,19.6z M32.4,24.3c-0.1-0.3-0.1-0.8-0.1-1.2
	c0.1-0.8,0.4-1.9,0.8-2.3c0.7-0.6,1.9-0.5,3-0.2c0-0.3,0.1-0.7,0.1-1c-1.7-0.3-3.3-0.1-4.1,0.8c-0.8,0.9-1.4,2.9-1,4.1
	c0.4,1.5,2.5,1.6,4.1,1c0.1-0.3,0.1-0.6,0.2-0.9C34.5,25,32.8,25.3,32.4,24.3z M46.4,19.7c-1.1-0.6-2,0.4-2.4,0.9
	c0.1-0.3,0.1-0.7,0.2-1h-1.1c-0.3,2.1-0.7,4.1-1.1,6.1h1.3c0-0.8,0.2-1.4,0.3-2.2c0.3-1.7,0.7-3.5,2.6-3
	C46.3,20.2,46.3,19.9,46.4,19.7z M13.7,19.6C13.7,19.6,13.7,19.7,13.7,19.6c-0.3,2.2-0.7,4.1-1.1,6.1h1.3c0.3-2.1,0.6-4.1,1.1-6.1
	H13.7z M24.8,19.5c-0.9,0.1-1.7,0.3-2.2,0.9c-0.7,0.7-1.2,2.3-1,3.7c0.2,2,2.7,1.9,4.7,1.5c0-0.4,0.1-0.7,0.2-1
	c-0.8,0.3-2.3,0.7-3.1,0.2c-0.6-0.4-0.6-1.4-0.4-2.3c1.4,0,2.8,0,4.1,0c0.1-0.6,0.3-1.3,0.1-2C26.8,19.6,25.8,19.4,24.8,19.5z
	 M25.9,21.7H23c0.1-0.7,0.7-1.4,1.7-1.5C25.6,20.2,26.2,20.6,25.9,21.7z M20,19.6c-1.1-0.4-2.4,0.1-2.9,0.5c0,0,0,0,0,0c0,0,0,0,0,0
	c0,0,0,0,0,0c0-0.2,0.1-0.3,0.1-0.5h-1.1c-0.4,3-1,5.9-1.5,8.8h1.3c0.2-1.1,0.3-2.3,0.6-3.3c0.3,1.1,2.2,0.9,2.9,0.5
	C20.9,24.6,22.2,20.4,20,19.6z M19,24.5c-0.7,0.7-2.3,0.7-2.4-0.5c-0.1-0.5,0.1-1.1,0.2-1.6c0.1-0.5,0.2-1.1,0.3-1.5
	c0.7-0.8,2.6-0.9,2.8,0.4C20,22.5,19.6,24,19,24.5z M51.1,17c-0.1,0.9-0.3,1.8-0.4,2.7c-3.1-1-5,1.3-4.9,4.1c0,0.5,0.1,1.1,0.4,1.5
	c0.6,0.7,2.2,0.8,3.1,0.3c0.2-0.1,0.3-0.3,0.4-0.4c0.1-0.1,0.2-0.4,0.2-0.3c0,0.3-0.1,0.6-0.1,0.9h1.1c0.2-3.1,0.9-5.8,1.4-8.7
	L51.1,17L51.1,17z M48.3,25c-0.8,0-1.3-0.5-1.3-1.4c0-1.5,0.6-3.2,2-3.4c0.6-0.1,1.1,0.1,1.5,0.2C50.1,22.2,50.3,25,48.3,25z
	 M37.5,19.6c-0.1,0.3-0.2,0.7-0.2,1c0.7-0.2,3-0.8,3.3,0.2c0.1,0.3-0.1,0.7-0.1,0.9c-2.1-0.2-3.8,0.1-4.2,1.6c-0.3,1,0,2,0.7,2.2
	c1.2,0.5,2.7-0.1,3.2-0.9C40,25,39.9,25.3,40,25.7H41c0-1,0.2-1.9,0.3-2.8c0.1-0.8,0.4-1.6,0.3-2.3C41.6,19,39,19.6,37.5,19.6z
	 M39.5,24.5c-0.6,0.6-2.5,0.8-2.3-0.7c0.2-1.3,1.5-1.5,3-1.3C40.1,23.2,40,24,39.5,24.5z"/>
</svg>
