<?xml version="1.0" encoding="utf-8"?>
<!-- Generator: Adobe Illustrator 16.0.0, SVG Export Plug-In . SVG Version: 6.00 Build 0)  -->
<!DOCTYPE svg PUBLIC "-//W3C//DTD SVG 1.1//EN" "http://www.w3.org/Graphics/SVG/1.1/DTD/svg11.dtd">
<svg version="1.1" id="Layer_1" xmlns="http://www.w3.org/2000/svg" xmlns:xlink="http://www.w3.org/1999/xlink" x="0px" y="0px"
	 width="82.3px" height="35.8px" viewBox="0 0 82.3 35.8" enable-background="new 0 0 82.3 35.8" xml:space="preserve">
<path id="fundo" fill="#991915" d="M22.6,0c-2.8,0-8.5,0-8.5,0c-3.8,0.2-6.9,1.7-7.7,4.8C5.9,6.5,5.6,8.3,5.2,9.9
	C3.4,18.6,1.8,27.4,0,35.8h66.4c5.1,0,8.7-1.1,9.6-5.2c0.4-1.9,0.9-4,1.3-6.1c1.7-8.1,3.3-16.2,5-24.6H22.6z"/>
<path id="hipercard_2_" fill="#FFFFFF" d="M21.9,12.7c0.4-0.2,0.8-1.4,0.3-1.8c-0.2-0.1-0.4-0.2-0.8-0.1c-0.4,0.1-0.6,0.2-0.7,0.4
	c-0.2,0.3-0.4,1.2-0.1,1.6C20.9,13.1,21.7,12.9,21.9,12.7z M16.9,10.9c-0.3,1.7-0.5,3.3-0.8,4.9c-1.9,0-3.7,0.1-5.5,0
	c0.3-1.6,0.6-3.3,0.9-4.9h-2C8.7,15,8,19.1,7.2,23.1h2c0.3-2,0.6-4.1,1-6c1.7,0,3.8-0.1,5.5,0c-0.3,2-0.8,4-1.1,6h2
	c0.7-4.1,1.3-8.2,2.2-12.2L16.9,10.9L16.9,10.9z M45.7,14.4c-1.6-0.6-2.8,0.4-3.4,1.5c0.1-0.5,0.2-1,0.3-1.5H41
	c-0.4,3-1,5.8-1.5,8.7h1.8c0.3-1.7,0.4-4,0.9-5.6c0.4-1.3,1.6-2.4,3.3-1.8C45.5,15.2,45.6,14.9,45.7,14.4z M46.7,21
	c-0.2-0.4-0.2-1.1-0.2-1.7c0.1-1.2,0.5-2.7,1.2-3.3c0.9-0.9,2.8-0.8,4.2-0.3c0-0.5,0.1-0.9,0.2-1.4c-2.4-0.4-4.7-0.1-5.9,1.1
	c-1.2,1.2-2,4.1-1.4,5.9c0.6,2.1,3.5,2.2,5.9,1.4c0.1-0.4,0.2-0.9,0.3-1.3C49.7,22.1,47.3,22.5,46.7,21z M66.8,14.4
	c-1.6-0.8-2.9,0.5-3.4,1.3c0.1-0.4,0.2-1,0.3-1.4h-1.6c-0.4,3-0.9,5.9-1.5,8.7h1.8c0-1.1,0.2-2,0.4-3.1c0.4-2.4,0.9-5,3.7-4.2
	C66.6,15.3,66.7,14.8,66.8,14.4z M20.1,14.4c0,0,0,0.1,0,0.1c-0.4,2.9-0.9,5.8-1.5,8.5h1.8c0.4-3,0.9-5.9,1.5-8.7H20.1z M35.8,14.2
	c-1.3,0.1-2.4,0.5-3.2,1.3c-1,1-1.7,3.2-1.5,5.2c0.3,2.9,3.9,2.8,6.8,2.1c0-0.5,0.2-0.9,0.3-1.4c-1.2,0.4-3.2,1.1-4.5,0.3
	c-0.9-0.6-0.9-2.1-0.6-3.3c1.9-0.1,3.9,0,5.9,0c0.1-0.9,0.5-1.9,0.2-2.8C38.8,14.4,37.3,14.1,35.8,14.2z M37.5,17.4h-4.2
	c0.1-1,1-2,2.4-2.1C37,15.3,37.9,15.8,37.5,17.4z M29,14.4c-1.5-0.6-3.4,0.1-4.2,0.8c0,0,0,0,0,0c0,0,0,0,0,0c0,0,0,0,0,0
	c0-0.3,0.1-0.5,0.1-0.7h-1.5c-0.6,4.3-1.4,8.4-2.2,12.5h1.8c0.3-1.6,0.4-3.3,0.8-4.8c0.4,1.6,3.1,1.3,4.2,0.7
	C30.4,21.6,32.2,15.6,29,14.4z M27.6,21.4c-1,1-3.3,1-3.5-0.7c-0.1-0.7,0.2-1.5,0.3-2.3c0.1-0.8,0.2-1.5,0.4-2.2
	c0.9-1.1,3.7-1.3,4,0.6C29.1,18.5,28.4,20.6,27.6,21.4z M73.5,10.7c-0.2,1.3-0.4,2.6-0.6,3.9c-4.4-1.4-7.1,1.8-7,5.8
	c0,0.8,0.1,1.5,0.6,2.1c0.8,0.9,3.2,1.2,4.4,0.4c0.2-0.2,0.5-0.4,0.6-0.6c0.1-0.1,0.3-0.5,0.3-0.4c-0.1,0.4-0.2,0.8-0.2,1.3h1.6
	c0.3-4.5,1.3-8.3,2-12.4H73.5z M69.5,22.1c-1.2,0-1.8-0.7-1.8-2c0-2.2,0.9-4.6,2.8-4.8c0.9-0.1,1.5,0.1,2.2,0.3
	C72.1,18.1,72.3,22,69.5,22.1z M54,14.4c-0.1,0.5-0.2,0.9-0.3,1.4c1.1-0.3,4.3-1.1,4.7,0.3c0.1,0.5-0.1,1-0.2,1.3
	c-3-0.3-5.4,0.2-6,2.3c-0.4,1.4,0,2.8,1,3.2c1.8,0.8,3.9-0.1,4.6-1.3c-0.1,0.4-0.1,0.8-0.1,1.3h1.5c0-1.5,0.2-2.7,0.5-4
	c0.2-1.1,0.6-2.2,0.5-3.2C59.9,13.5,56.1,14.3,54,14.4z M56.9,21.4c-0.9,0.9-3.5,1.2-3.2-1c0.2-1.8,2.2-2.2,4.3-1.9
	C57.8,19.5,57.6,20.7,56.9,21.4z"/>
</svg>
