<?xml version="1.0" encoding="utf-8"?>
<!-- Generator: Adobe Illustrator 16.0.0, SVG Export Plug-In . SVG Version: 6.00 Build 0)  -->
<!DOCTYPE svg PUBLIC "-//W3C//DTD SVG 1.1//EN" "http://www.w3.org/Graphics/SVG/1.1/DTD/svg11.dtd">
<svg version="1.1" id="Layer_1" xmlns="http://www.w3.org/2000/svg" xmlns:xlink="http://www.w3.org/1999/xlink" x="0px" y="0px"
	 width="95.7px" height="55.7px" viewBox="2.1 21.7 95.7 55.7" enable-background="new 2.1 21.7 95.7 55.7" xml:space="preserve">
<g>
	<g>
		<path fill="#263C70" d="M22.9,43.1c3.8-0.3,6.6-3.4,7.1-6.4c1-5.8-3.7-10.3-9.3-9.3c-3,0.5-4.6,2-5.6,3.9
			C11.9,37.2,16.9,43.6,22.9,43.1z"/>
		<path fill="#263C70" d="M15.2,51.2h18.3c0.1,0,0.3,0,0.4,0v0h63.9V32.9c0-2.1-1.7-3.7-3.7-3.7H33.9v16.1c-0.1,0-0.2,0-0.4,0H15.2
			c-1.7,0-3,1.3-3,3C12.2,49.9,13.6,51.2,15.2,51.2z"/>
	</g>
	<path fill="#0087E5" d="M10.2,53.2c0-10.5,0-21,0-31.5c-2.6,0-5.4,0-8,0c0,18.5,0,37,0,55.7c2.6,0,5.4,0,8,0c0-5.4,0-10.7,0-16
		c26.6,0.1,53.5-0.2,79.7,0.2c0,5.2,0,10.6,0,15.8c2.6,0,5.4,0,8,0c0-8,0-16,0-24C68.7,53.3,39,53.7,10.2,53.2z"/>
</g>
</svg>
