<?xml version="1.0" encoding="utf-8"?>
<!-- Generator: Adobe Illustrator 16.0.0, SVG Export Plug-In . SVG Version: 6.00 Build 0)  -->
<!DOCTYPE svg PUBLIC "-//W3C//DTD SVG 1.1//EN" "http://www.w3.org/Graphics/SVG/1.1/DTD/svg11.dtd">
<svg version="1.1" id="Camada_1" xmlns="http://www.w3.org/2000/svg" xmlns:xlink="http://www.w3.org/1999/xlink" x="0px" y="0px"
	 width="70px" height="40.7px" viewBox="0 4.6 70 40.7" enable-background="new 0 4.6 70 40.7" xml:space="preserve">
<g>
	<path d="M5.9,27.7c0-7.7,0-15.4,0-23c-1.9,0-4,0-5.9,0c0,13.5,0,27.1,0,40.7c1.9,0,4,0,5.9,0c0-4,0-7.8,0-11.7
		c19.4,0.1,39.1-0.2,58.2,0.1c0,3.8,0,7.7,0,11.5c1.9,0,4,0,5.9,0c0-5.9,0-11.7,0-17.6C48.7,27.7,26.9,28,5.9,27.7z"/>
	<path d="M15.2,20.3c2.8-0.2,4.8-2.5,5.2-4.6c0.7-4.3-2.7-7.5-6.8-6.8c-2.2,0.4-3.4,1.5-4.1,2.9C7.2,16,10.8,20.6,15.2,20.3z"/>
	<path d="M9.6,26.2H23c0.1,0,0.2,0,0.3,0v0H70V12.8c0-1.5-1.2-2.7-2.7-2.7h-44v11.8c-0.1,0-0.2,0-0.3,0H9.6c-1.2,0-2.2,1-2.2,2.2
		S8.4,26.2,9.6,26.2z"/>
</g>
</svg>
