<?xml version="1.0" encoding="utf-8"?>
<!-- Generator: Adobe Illustrator 16.0.0, SVG Export Plug-In . SVG Version: 6.00 Build 0)  -->
<!DOCTYPE svg PUBLIC "-//W3C//DTD SVG 1.1//EN" "http://www.w3.org/Graphics/SVG/1.1/DTD/svg11.dtd">
<svg version="1.1" id="Layer_1" xmlns="http://www.w3.org/2000/svg" xmlns:xlink="http://www.w3.org/1999/xlink" x="0px" y="0px"
	 width="8.8px" height="8.8px" viewBox="0 0 8.8 8.8" enable-background="new 0 0 8.8 8.8" xml:space="preserve">
<path d="M8.2,2.3L8.1,2.1L7.5,2.7l0.1,0.1c0.3,0.5,0.4,1,0.4,1.6c0,1.9-1.6,3.5-3.5,3.5c-1.9,0-3.5-1.6-3.5-3.5
	C0.9,3.9,1,3.4,1.1,3l0.1-0.2l-0.3,0L0.4,2.5L0.4,2.6C0.1,3.2,0,3.8,0,4.4c0,2.4,2,4.4,4.4,4.4s4.4-2,4.4-4.4
	C8.8,3.6,8.6,2.9,8.2,2.3z"/>
</svg>
