<?xml version="1.0" encoding="utf-8"?>
<!-- Generator: Adobe Illustrator 16.0.0, SVG Export Plug-In . SVG Version: 6.00 Build 0)  -->
<!DOCTYPE svg PUBLIC "-//W3C//DTD SVG 1.1//EN" "http://www.w3.org/Graphics/SVG/1.1/DTD/svg11.dtd">
<svg version="1.1" id="Layer_1" xmlns="http://www.w3.org/2000/svg" xmlns:xlink="http://www.w3.org/1999/xlink" x="0px" y="0px"
	 width="73px" height="44px" viewBox="0 0 73 44" enable-background="new 0 0 73 44" xml:space="preserve">
<g>
	<path fill="#FAB31E" d="M36.5,38.3c3.9,3.5,9,5.7,14.7,5.7C63.2,44,73,34.1,73,22C73,9.8,63.2,0,51.2,0c-5.6,0-10.8,2.2-14.7,5.7
		c-4.4,4-7.2,9.8-7.2,16.3C29.3,28.4,32.1,34.2,36.5,38.3L36.5,38.3z"/>
	<path fill="#FAB31E" d="M70.1,34.2c0-0.4,0.3-0.7,0.7-0.7c0.4,0,0.7,0.3,0.7,0.7c0,0.4-0.3,0.7-0.7,0.7
		C70.4,34.9,70.1,34.6,70.1,34.2L70.1,34.2z M70.8,34.8c0.3,0,0.5-0.2,0.5-0.5c0-0.3-0.2-0.5-0.5-0.5c-0.3,0-0.5,0.2-0.5,0.5
		C70.3,34.5,70.5,34.8,70.8,34.8L70.8,34.8z M70.7,34.5h-0.1v-0.6h0.3c0.1,0,0.1,0,0.2,0c0.1,0,0.1,0.1,0.1,0.2c0,0.1,0,0.1-0.1,0.2
		l0.1,0.3h-0.2l-0.1-0.2h-0.1V34.5v-0.4h0.1c0,0,0.1,0,0.1,0c0,0,0,0,0-0.1c0,0,0-0.1,0-0.1c0,0-0.1,0-0.1,0h-0.1v0.2V34.5
		L70.7,34.5z"/>
	<path fill="#E40520" d="M43.6,19.6c-0.1-0.8-0.2-1.6-0.4-2.3H29.8c0.2-0.8,0.4-1.6,0.6-2.3h12.1c-0.3-0.8-0.6-1.6-0.9-2.3H31.4
		c0.4-0.8,0.8-1.6,1.3-2.3h7.7c-0.5-0.8-1.1-1.6-1.7-2.3h-4.4c0.7-0.8,1.4-1.6,2.2-2.3C32.6,2.2,27.5,0,21.8,0C9.8,0,0,9.8,0,22
		c0,12.1,9.8,22,21.8,22c5.6,0,10.8-2.2,14.7-5.7l0,0l0,0c0.8-0.7,1.5-1.5,2.2-2.3h-4.4c-0.6-0.7-1.2-1.5-1.7-2.3h7.7
		c0.5-0.7,0.9-1.5,1.3-2.3H31.4c-0.4-0.8-0.7-1.5-0.9-2.3h12.1c0.3-0.8,0.5-1.5,0.6-2.3c0.2-0.8,0.3-1.5,0.4-2.3
		c0.1-0.8,0.1-1.5,0.1-2.3C43.7,21.2,43.6,20.4,43.6,19.6L43.6,19.6z"/>
	<path fill="#FFFFFF" d="M70.1,27.1c0-0.4,0.3-0.7,0.7-0.7c0.4,0,0.7,0.3,0.7,0.7s-0.3,0.7-0.7,0.7C70.4,27.8,70.1,27.5,70.1,27.1
		L70.1,27.1z M70.8,27.6c0.3,0,0.5-0.2,0.5-0.5c0-0.3-0.2-0.5-0.5-0.5c-0.3,0-0.5,0.2-0.5,0.5C70.3,27.4,70.5,27.6,70.8,27.6
		L70.8,27.6z M70.7,27.4h-0.1v-0.6h0.3c0.1,0,0.1,0,0.2,0c0.1,0,0.1,0.1,0.1,0.2c0,0.1,0,0.1-0.1,0.2l0.1,0.3h-0.2l-0.1-0.2h-0.1
		V27.4V27h0.1c0,0,0.1,0,0.1,0c0,0,0,0,0-0.1c0,0,0-0.1,0-0.1c0,0-0.1,0-0.1,0h-0.1V27V27.4L70.7,27.4z"/>
	<path fill="#06326E" d="M29.1,28.3c-0.7,0.2-1.2,0.3-1.8,0.3c-1.1,0-1.8-0.7-1.8-2c0-0.3,0-0.5,0.1-0.8l0.1-0.9l0.1-0.7l1-6.2h2.3
		l-0.3,1.3h1.4L30,21.7h-1.4l-0.6,3.7c0,0.2,0,0.3,0,0.4c0,0.5,0.2,0.7,0.8,0.7c0.3,0,0.5,0,0.7-0.1L29.1,28.3L29.1,28.3z"/>
	<path fill="#06326E" d="M36.4,28.2c-0.8,0.3-1.6,0.4-2.4,0.4c-2.5,0-4-1.4-4-4.1c0-3.1,1.8-5.4,4.1-5.4c2,0,3.2,1.3,3.2,3.3
		c0,0.7-0.1,1.3-0.3,2.2h-4.7c0,0.1,0,0.2,0,0.3c0,1.1,0.7,1.6,2.1,1.6c0.8,0,1.6-0.2,2.5-0.6L36.4,28.2L36.4,28.2z M35,22.8
		c0-0.2,0-0.3,0-0.5c0-0.7-0.4-1.2-1.1-1.2c-0.8,0-1.3,0.6-1.5,1.6L35,22.8L35,22.8z"/>
	<polygon fill="#06326E" points="11,28.4 8.6,28.4 10,19.9 6.9,28.4 5.3,28.4 5.1,19.9 3.7,28.4 1.4,28.4 3.2,17.3 6.7,17.3 
		6.8,24.2 9.1,17.3 12.8,17.3 	"/>
	<path fill="#06326E" d="M16.7,24.4c-0.2,0-0.3,0-0.5,0c-1.3,0-2,0.5-2,1.4c0,0.6,0.3,0.9,0.9,0.9C16.2,26.7,16.6,25.7,16.7,24.4
		L16.7,24.4z M18.6,28.4h-2.1l0-0.9c-0.5,0.7-1.2,1.1-2.5,1.1c-1.1,0-2.1-1-2.1-2.5c0-0.4,0.1-0.8,0.2-1.2c0.4-1.4,1.8-2.3,3.9-2.3
		c0.3,0,0.7,0,1,0c0.1-0.3,0.1-0.4,0.1-0.6c0-0.6-0.5-0.8-1.6-0.8c-0.7,0-1.4,0.1-2,0.3l-0.3,0.1l-0.1,0l0.3-2
		c1.1-0.3,1.9-0.5,2.8-0.5c2,0,3.1,0.9,3.1,2.7c0,0.4,0,0.8-0.1,1.8l-0.5,3.2l-0.1,0.6l-0.1,0.5l0,0.3L18.6,28.4L18.6,28.4z"/>
	<path fill="#06326E" d="M47.8,19.5c0.7,0,1.3,0.2,2.1,0.6l0.4-2.4c-0.2-0.1-0.3-0.1-0.6-0.2l-1-0.2c-0.3-0.1-0.7-0.1-1.1-0.1
		c-1.2,0-1.9,0-2.6,0.4c-0.4,0.2-0.9,0.6-1.4,1.2l-0.3-0.1L41,20.3l0.1-1h-2.5l-1.4,9.1h2.4l0.9-4.9c0,0,0.3-0.7,0.5-0.9
		c0.4-0.6,0.8-0.6,1.3-0.6c0.1,0,0.1,0,0.2,0c-0.1,0.5-0.1,1.1-0.1,1.7c0,3,1.7,4.8,4.2,4.8c0.7,0,1.2-0.1,2.1-0.3l0.4-2.5
		c-0.8,0.4-1.4,0.6-2,0.6c-1.4,0-2.2-1-2.2-2.7C44.8,21.2,46,19.5,47.8,19.5L47.8,19.5z"/>
	<path fill="#06326E" d="M67.8,17.3l-0.5,3.2c-0.6-0.9-1.3-1.3-2.2-1.3c-1.2,0-2.4,0.7-3.1,2.1l0,0l-1.5-0.9l0.1-1h-2.5l-1.4,9.1
		h2.4l0.8-4.9c0,0,0.6-0.7,0.8-0.9c0.3-0.5,0.7-0.5,1.1-0.6c-0.3,0.8-0.4,1.7-0.4,2.7c0,2.3,1.2,3.8,2.9,3.8c0.9,0,1.5-0.3,2.2-1
		l-0.1,0.9h2.2l1.8-11.1L67.8,17.3L67.8,17.3z M65,26.3c-0.8,0-1.2-0.6-1.2-1.8c0-1.8,0.8-3,1.8-3c0.8,0,1.3,0.6,1.3,1.8
		C66.8,25,66.1,26.3,65,26.3L65,26.3z"/>
	<path fill="#06326E" d="M54,24.4c-0.2,0-0.3,0-0.5,0c-1.3,0-2,0.5-2,1.4c0,0.6,0.3,0.9,0.8,0.9C53.5,26.7,54,25.7,54,24.4L54,24.4z
		 M55.9,28.4h-2.1l0-0.9c-0.5,0.7-1.2,1.1-2.5,1.1c-1.1,0-2.2-1-2.2-2.5c0-2.2,1.6-3.5,4.2-3.5c0.3,0,0.7,0,1,0
		c0.1-0.3,0.1-0.4,0.1-0.6c0-0.6-0.5-0.8-1.6-0.8c-0.7,0-1.4,0.1-2,0.3l-0.3,0.1l-0.1,0l0.3-2c1.1-0.3,1.9-0.5,2.8-0.5
		c2,0,3.1,0.9,3.1,2.7c0,0.4,0,0.8-0.1,1.8l-0.5,3.2L56,27.4L56,27.9l0,0.3L55.9,28.4L55.9,28.4z"/>
	<path fill="#06326E" d="M23.5,21.3c0.5,0,1.1,0,1.8,0.1l0.3-2.1c-0.7-0.1-1.6-0.2-2.1-0.2c-2.6,0-3.5,1.4-3.5,3.1
		c0,1.1,0.5,1.9,1.8,2.5c1,0.5,1.1,0.5,1.1,0.9c0,0.6-0.5,0.9-1.4,0.9c-0.7,0-1.4-0.1-2.1-0.4L19,28.3l0.1,0l0.4,0.1
		c0.1,0,0.4,0.1,0.6,0.1c0.6,0.1,1,0.1,1.3,0.1c2.6,0,3.7-1,3.7-3c0-1.2-0.6-2-1.8-2.5c-1-0.5-1.1-0.5-1.1-0.9
		C22.3,21.7,22.8,21.3,23.5,21.3L23.5,21.3z"/>
	<path fill="#FFFFFF" d="M51,16.9l-0.4,2.4c-0.8-0.4-1.5-0.6-2.1-0.6c-1.8,0-3,1.7-3,4.2c0,1.7,0.8,2.7,2.2,2.7c0.6,0,1.2-0.2,2-0.6
		l-0.4,2.5c-0.9,0.2-1.4,0.3-2.1,0.3c-2.6,0-4.1-1.8-4.1-4.8c0-4,2.2-6.8,5.3-6.8c0.4,0,0.8,0,1.1,0.1l1,0.2
		C50.7,16.8,50.7,16.8,51,16.9L51,16.9z"/>
	<path fill="#FFFFFF" d="M43.3,18.6c-0.1,0-0.2,0-0.2,0c-0.8,0-1.2,0.4-1.9,1.5l0.2-1.4h-2.1l-1.4,9.1h2.4c0.8-5.5,1.1-6.5,2.2-6.5
		c0.1,0,0.1,0,0.2,0C42.7,20.2,43,19.3,43.3,18.6L43.3,18.6L43.3,18.6z"/>
	<path fill="#FFFFFF" d="M29.7,27.6c-0.6,0.2-1.2,0.3-1.7,0.3c-1.2,0-1.9-0.7-1.9-2c0-0.3,0-0.5,0.1-0.8l0.1-0.9l0.1-0.7l1-6.2h2.4
		l-0.3,1.3h1.2l-0.3,2.2h-1.2l-0.6,3.8c0,0.2,0,0.3,0,0.4c0,0.5,0.2,0.7,0.8,0.7c0.3,0,0.5,0,0.6-0.1L29.7,27.6L29.7,27.6z"/>
	<path fill="#FFFFFF" d="M20.6,21.5c0,1.1,0.6,1.9,1.8,2.5c1,0.5,1.1,0.6,1.1,1c0,0.6-0.4,0.8-1.4,0.8c-0.7,0-1.4-0.1-2.1-0.4
		l-0.3,2.1l0.1,0l0.4,0.1c0.1,0,0.3,0.1,0.6,0.1c0.6,0.1,1,0.1,1.3,0.1c2.5,0,3.7-1,3.7-3c0-1.2-0.5-2-1.7-2.5c-1-0.5-1.1-0.6-1.1-1
		c0-0.5,0.4-0.7,1.2-0.7c0.5,0,1.1,0.1,1.7,0.1l0.3-2.1c-0.6-0.1-1.5-0.2-2.1-0.2C21.5,18.5,20.6,19.9,20.6,21.5L20.6,21.5z"/>
	<path fill="#FFFFFF" d="M69.1,27.7h-2.2l0.1-0.9c-0.6,0.7-1.3,1-2.2,1c-1.7,0-2.9-1.5-2.9-3.8c0-3,1.8-5.6,3.9-5.6
		c0.9,0,1.6,0.4,2.3,1.2l0.5-3.2h2.3L69.1,27.7L69.1,27.7z M65.6,25.6c1.1,0,1.9-1.3,1.9-3.1c0-1.2-0.4-1.8-1.3-1.8
		c-1.1,0-1.8,1.3-1.8,3C64.3,25,64.8,25.6,65.6,25.6L65.6,25.6z"/>
	<path fill="#FFFFFF" d="M36.9,27.5c-0.8,0.2-1.6,0.4-2.4,0.4c-2.6,0-4-1.4-4-4.1c0-3.1,1.8-5.4,4.1-5.4c2,0,3.2,1.3,3.2,3.3
		c0,0.7-0.1,1.3-0.3,2.2h-4.7c0,0.1,0,0.2,0,0.3c0,1.1,0.7,1.6,2.1,1.6c0.8,0,1.6-0.2,2.5-0.6L36.9,27.5L36.9,27.5z M35.6,22.1
		c0-0.2,0-0.3,0-0.5c0-0.7-0.4-1.2-1.1-1.2c-0.8,0-1.3,0.6-1.5,1.6L35.6,22.1L35.6,22.1z"/>
	<polygon fill="#FFFFFF" points="11.6,27.7 9.2,27.7 10.6,19.2 7.5,27.7 5.9,27.7 5.7,19.2 4.3,27.7 2.1,27.7 3.9,16.6 7.3,16.6 
		7.4,23.5 9.7,16.6 13.4,16.6 	"/>
	<path fill="#FFFFFF" d="M17.4,23.7c-0.2,0-0.4,0-0.5,0c-1.3,0-2,0.5-2,1.4c0,0.6,0.3,0.9,0.8,0.9C16.7,26,17.4,25,17.4,23.7
		L17.4,23.7z M19.1,27.7h-2l0-0.9c-0.6,0.7-1.4,1.1-2.5,1.1c-1.3,0-2.2-1-2.2-2.5c0-2.2,1.5-3.5,4.2-3.5c0.3,0,0.6,0,1,0.1
		c0.1-0.3,0.1-0.4,0.1-0.6c0-0.6-0.4-0.8-1.5-0.8c-0.7,0-1.4,0.1-2,0.3L14,20.9L13.8,21l0.3-2c1.2-0.3,2-0.5,2.8-0.5
		c2,0,3.1,0.9,3.1,2.7c0,0.4,0,0.8-0.2,1.8l-0.5,3.2l-0.1,0.6l-0.1,0.5l0,0.3L19.1,27.7L19.1,27.7z"/>
	<path fill="#FFFFFF" d="M54.8,23.7c-0.2,0-0.4,0-0.5,0c-1.3,0-2,0.5-2,1.4c0,0.6,0.3,0.9,0.9,0.9C54,26,54.7,25,54.8,23.7
		L54.8,23.7z M56.5,27.7h-2l0-0.9c-0.6,0.7-1.4,1.1-2.5,1.1c-1.3,0-2.2-1-2.2-2.5c0-2.2,1.5-3.5,4.2-3.5c0.3,0,0.6,0,1,0.1
		c0.1-0.3,0.1-0.4,0.1-0.6c0-0.6-0.4-0.8-1.5-0.8c-0.7,0-1.4,0.1-2,0.3l-0.3,0.1L51.1,21l0.3-2c1.2-0.3,2-0.5,2.8-0.5
		c2,0,3.1,0.9,3.1,2.7c0,0.4,0,0.8-0.2,1.8l-0.5,3.2l-0.1,0.6l-0.1,0.5l0,0.3L56.5,27.7L56.5,27.7z"/>
	<path fill="#FFFFFF" d="M62.9,18.6c-0.1,0-0.2,0-0.2,0c-0.8,0-1.2,0.4-1.9,1.5l0.2-1.4h-2.1l-1.4,9.1h2.4c0.8-5.5,1.1-6.5,2.2-6.5
		c0.1,0,0.1,0,0.2,0C62.3,20.1,62.5,19.3,62.9,18.6L62.9,18.6L62.9,18.6z"/>
</g>
</svg>
