<?xml version="1.0" encoding="utf-8"?>
<!-- Generator: Adobe Illustrator 16.0.0, SVG Export Plug-In . SVG Version: 6.00 Build 0)  -->
<!DOCTYPE svg PUBLIC "-//W3C//DTD SVG 1.1//EN" "http://www.w3.org/Graphics/SVG/1.1/DTD/svg11.dtd">
<svg version="1.1" id="Layer_1" xmlns="http://www.w3.org/2000/svg" xmlns:xlink="http://www.w3.org/1999/xlink" x="0px" y="0px"
	 width="56px" height="42px" viewBox="0 0 56 42" enable-background="new 0 0 56 42" xml:space="preserve">
<path fill="#05326E" d="M0,42V0h56v42H0z"/>
<g>
	<path fill="#FAB31E" d="M27.9,31c2.4,2.2,5.6,3.5,9.1,3.5c7.5,0,13.6-6.1,13.6-13.7c0-7.5-6.1-13.7-13.6-13.7
		c-3.5,0-6.7,1.3-9.1,3.5c-2.7,2.5-4.5,6.1-4.5,10.1C23.4,24.8,25.2,28.5,27.9,31L27.9,31z"/>
	<path fill="#FAB31E" d="M48.8,28.4c0-0.2,0.2-0.4,0.4-0.4c0.2,0,0.4,0.2,0.4,0.4c0,0.2-0.2,0.4-0.4,0.4S48.8,28.7,48.8,28.4
		L48.8,28.4z M49.2,28.8c0.2,0,0.3-0.1,0.3-0.3c0-0.2-0.1-0.3-0.3-0.3c-0.2,0-0.3,0.1-0.3,0.3C48.9,28.6,49,28.8,49.2,28.8
		L49.2,28.8z M49.2,28.6L49.2,28.6l-0.1-0.4h0.2c0,0,0.1,0,0.1,0c0,0,0,0.1,0,0.1c0,0,0,0.1-0.1,0.1l0.1,0.2h-0.1l-0.1-0.2h-0.1
		V28.6v-0.2h0.1c0,0,0,0,0.1,0c0,0,0,0,0,0c0,0,0,0,0,0c0,0,0,0-0.1,0h0v0.1V28.6L49.2,28.6z"/>
	<path fill="#E40520" d="M32.3,19.4c-0.1-0.5-0.1-1-0.2-1.4h-8.3c0.1-0.5,0.2-1,0.4-1.4h7.5c-0.2-0.5-0.4-1-0.6-1.4h-6.4
		c0.2-0.5,0.5-1,0.8-1.4h4.8c-0.3-0.5-0.7-1-1-1.4h-2.7c0.4-0.5,0.9-1,1.4-1.4c-2.4-2.2-5.6-3.5-9.1-3.5c-7.5,0-13.6,6.1-13.6,13.7
		c0,7.5,6.1,13.7,13.6,13.7c3.5,0,6.7-1.3,9.1-3.5l0,0l0,0c0.5-0.4,0.9-0.9,1.4-1.4h-2.7c-0.4-0.5-0.7-0.9-1-1.4h4.8
		c0.3-0.5,0.6-0.9,0.8-1.4h-6.4c-0.2-0.5-0.4-1-0.6-1.4h7.5c0.2-0.5,0.3-1,0.4-1.4c0.1-0.5,0.2-1,0.2-1.4c0-0.5,0.1-1,0.1-1.4
		C32.4,20.4,32.3,19.9,32.3,19.4L32.3,19.4z"/>
	<path fill="#FFFFFF" d="M48.8,24c0-0.2,0.2-0.4,0.4-0.4c0.2,0,0.4,0.2,0.4,0.4c0,0.2-0.2,0.4-0.4,0.4S48.8,24.2,48.8,24L48.8,24z
		 M49.2,24.3c0.2,0,0.3-0.1,0.3-0.3s-0.1-0.3-0.3-0.3c-0.2,0-0.3,0.1-0.3,0.3S49,24.3,49.2,24.3L49.2,24.3z M49.2,24.2L49.2,24.2
		l-0.1-0.4h0.2c0,0,0.1,0,0.1,0c0,0,0,0.1,0,0.1c0,0,0,0.1-0.1,0.1l0.1,0.2h-0.1L49.2,24h-0.1V24.2V24h0.1c0,0,0,0,0.1,0
		c0,0,0,0,0,0c0,0,0,0,0,0c0,0,0,0-0.1,0h0V24V24.2L49.2,24.2z"/>
	<path fill="#06326E" d="M23.3,24.8c-0.5,0.1-0.8,0.2-1.1,0.2c-0.7,0-1.1-0.4-1.1-1.2c0-0.2,0-0.3,0-0.5l0.1-0.6l0.1-0.4l0.6-3.8
		h1.4l-0.2,0.8H24l-0.2,1.4h-0.9l-0.4,2.3c0,0.1,0,0.2,0,0.2c0,0.3,0.2,0.4,0.5,0.4c0.2,0,0.3,0,0.4-0.1L23.3,24.8L23.3,24.8z"/>
	<path fill="#06326E" d="M27.8,24.7c-0.5,0.2-1,0.2-1.5,0.2c-1.6,0-2.5-0.9-2.5-2.5c0-1.9,1.1-3.4,2.6-3.4c1.2,0,2,0.8,2,2
		c0,0.4-0.1,0.8-0.2,1.4h-2.9c0,0.1,0,0.1,0,0.2c0,0.7,0.4,1,1.3,1c0.5,0,1-0.1,1.5-0.4L27.8,24.7L27.8,24.7z M27,21.4
		c0-0.1,0-0.2,0-0.3c0-0.5-0.3-0.7-0.7-0.7c-0.5,0-0.8,0.4-0.9,1L27,21.4L27,21.4z"/>
	<polygon fill="#06326E" points="12,24.8 10.6,24.8 11.4,19.5 9.5,24.8 8.5,24.8 8.4,19.6 7.5,24.8 6.1,24.8 7.2,17.9 9.4,17.9 
		9.4,22.2 10.8,17.9 13.2,17.9 	"/>
	<path fill="#06326E" d="M15.6,22.3c-0.2,0-0.2,0-0.3,0c-0.8,0-1.3,0.3-1.3,0.9c0,0.4,0.2,0.6,0.5,0.6
		C15.3,23.7,15.6,23.2,15.6,22.3L15.6,22.3z M16.7,24.8h-1.3l0-0.6c-0.3,0.4-0.8,0.7-1.5,0.7c-0.7,0-1.3-0.6-1.3-1.5
		c0-0.3,0-0.5,0.1-0.7c0.2-0.9,1.1-1.4,2.4-1.4c0.2,0,0.4,0,0.6,0c0-0.2,0.1-0.3,0.1-0.4c0-0.4-0.3-0.5-1-0.5
		c-0.4,0-0.9,0.1-1.2,0.2l-0.2,0.1l-0.1,0l0.2-1.3c0.7-0.2,1.2-0.3,1.7-0.3c1.3,0,1.9,0.6,1.9,1.7c0,0.3,0,0.5-0.1,1.1l-0.3,2
		l-0.1,0.4l0,0.3l0,0.2L16.7,24.8L16.7,24.8z"/>
	<path fill="#06326E" d="M34.9,19.3c0.4,0,0.8,0.1,1.3,0.4l0.2-1.5c-0.1-0.1-0.2-0.1-0.4-0.1l-0.6-0.2c-0.2,0-0.4-0.1-0.7-0.1
		c-0.7,0-1.2,0-1.6,0.3c-0.2,0.1-0.5,0.4-0.9,0.7l-0.2-0.1l-1.5,1.1l0.1-0.6h-1.6l-0.9,5.6h1.5l0.5-3c0,0,0.2-0.4,0.3-0.5
		c0.3-0.4,0.5-0.4,0.8-0.4c0,0,0.1,0,0.1,0c0,0.3-0.1,0.7-0.1,1.1c0,1.8,1,3,2.6,3c0.4,0,0.8-0.1,1.3-0.2l0.3-1.6
		c-0.5,0.2-0.9,0.4-1.3,0.4c-0.9,0-1.4-0.6-1.4-1.7C33.1,20.3,33.8,19.3,34.9,19.3L34.9,19.3z"/>
	<path fill="#06326E" d="M47.4,17.9l-0.3,2c-0.4-0.5-0.8-0.8-1.3-0.8c-0.8,0-1.5,0.4-1.9,1.3l0,0l-0.9-0.6l0.1-0.6h-1.6l-0.9,5.6
		h1.5l0.5-3c0,0,0.4-0.4,0.5-0.6c0.2-0.3,0.5-0.3,0.7-0.4c-0.2,0.5-0.3,1-0.3,1.7c0,1.4,0.7,2.3,1.8,2.3c0.5,0,1-0.2,1.4-0.6
		l-0.1,0.6h1.4l1.1-6.9H47.4L47.4,17.9z M45.6,23.5c-0.5,0-0.8-0.4-0.8-1.1c0-1.1,0.5-1.9,1.1-1.9c0.5,0,0.8,0.4,0.8,1.1
		C46.7,22.7,46.3,23.5,45.6,23.5L45.6,23.5z"/>
	<path fill="#06326E" d="M38.8,22.3c-0.2,0-0.2,0-0.3,0c-0.8,0-1.3,0.3-1.3,0.9c0,0.4,0.2,0.6,0.5,0.6
		C38.5,23.7,38.8,23.2,38.8,22.3L38.8,22.3z M40,24.8h-1.3l0-0.6c-0.3,0.4-0.8,0.7-1.5,0.7c-0.7,0-1.4-0.6-1.4-1.5
		c0-1.3,1-2.2,2.6-2.2c0.2,0,0.4,0,0.6,0c0-0.2,0.1-0.3,0.1-0.4c0-0.4-0.3-0.5-1-0.5c-0.4,0-0.9,0.1-1.2,0.2l-0.2,0.1l-0.1,0
		l0.2-1.3c0.7-0.2,1.2-0.3,1.7-0.3c1.3,0,1.9,0.6,1.9,1.7c0,0.3,0,0.5-0.1,1.1l-0.3,2L40,24.2l0,0.3l0,0.2L40,24.8L40,24.8z"/>
	<path fill="#06326E" d="M19.8,20.4c0.3,0,0.7,0,1.1,0.1l0.2-1.3c-0.4-0.1-1-0.1-1.3-0.1c-1.6,0-2.2,0.9-2.2,1.9
		c0,0.7,0.3,1.2,1.1,1.5c0.6,0.3,0.7,0.3,0.7,0.6c0,0.4-0.3,0.6-0.9,0.6c-0.4,0-0.8-0.1-1.3-0.2l-0.2,1.3l0,0l0.3,0.1
		c0.1,0,0.2,0,0.4,0.1c0.4,0,0.6,0.1,0.8,0.1c1.6,0,2.3-0.6,2.3-1.9c0-0.8-0.4-1.2-1.1-1.6c-0.6-0.3-0.7-0.3-0.7-0.6
		C19.1,20.6,19.4,20.4,19.8,20.4L19.8,20.4z"/>
	<path fill="#FFFFFF" d="M36.9,17.7l-0.2,1.5c-0.5-0.3-0.9-0.4-1.3-0.4c-1.1,0-1.9,1.1-1.9,2.6c0,1.1,0.5,1.7,1.4,1.7
		c0.4,0,0.8-0.1,1.3-0.4l-0.3,1.6c-0.5,0.1-0.9,0.2-1.3,0.2c-1.6,0-2.6-1.1-2.6-3c0-2.5,1.4-4.2,3.3-4.2c0.3,0,0.5,0,0.7,0.1
		l0.6,0.2C36.7,17.6,36.7,17.6,36.9,17.7L36.9,17.7z"/>
	<path fill="#FFFFFF" d="M32.2,18.7c0,0-0.1,0-0.1,0c-0.5,0-0.8,0.2-1.2,0.9l0.1-0.9h-1.3l-0.9,5.6h1.5c0.5-3.4,0.7-4,1.4-4
		c0,0,0,0,0.1,0C31.8,19.7,32,19.2,32.2,18.7L32.2,18.7L32.2,18.7z"/>
	<path fill="#FFFFFF" d="M23.7,24.3c-0.4,0.1-0.7,0.2-1.1,0.2c-0.8,0-1.2-0.4-1.2-1.2c0-0.2,0-0.3,0-0.5l0.1-0.6l0.1-0.4l0.6-3.8
		h1.5l-0.2,0.8h0.8l-0.2,1.4h-0.8L23,22.5c0,0.1,0,0.2,0,0.2c0,0.3,0.2,0.4,0.5,0.4c0.2,0,0.3,0,0.4-0.1L23.7,24.3L23.7,24.3z"/>
	<path fill="#FFFFFF" d="M18,20.6c0,0.7,0.3,1.2,1.1,1.6c0.6,0.3,0.7,0.4,0.7,0.6c0,0.4-0.3,0.5-0.8,0.5c-0.4,0-0.8-0.1-1.3-0.2
		l-0.2,1.3l0.1,0l0.3,0.1c0.1,0,0.2,0,0.4,0c0.4,0,0.6,0,0.8,0c1.6,0,2.3-0.6,2.3-1.9c0-0.8-0.3-1.2-1-1.6c-0.6-0.3-0.7-0.3-0.7-0.6
		c0-0.3,0.2-0.5,0.7-0.5c0.3,0,0.7,0,1.1,0.1l0.2-1.3c-0.4-0.1-1-0.1-1.3-0.1C18.6,18.7,18,19.5,18,20.6L18,20.6z"/>
	<path fill="#FFFFFF" d="M48.1,24.4h-1.4l0.1-0.6c-0.4,0.4-0.8,0.6-1.4,0.6c-1.1,0-1.8-0.9-1.8-2.3c0-1.9,1.1-3.5,2.4-3.5
		c0.6,0,1,0.2,1.4,0.8l0.3-2h1.5L48.1,24.4L48.1,24.4z M46,23.1c0.7,0,1.2-0.8,1.2-1.9c0-0.7-0.3-1.1-0.8-1.1
		c-0.7,0-1.1,0.8-1.1,1.9C45.2,22.7,45.5,23.1,46,23.1L46,23.1z"/>
	<path fill="#FFFFFF" d="M28.2,24.3c-0.5,0.2-1,0.2-1.5,0.2c-1.6,0-2.5-0.9-2.5-2.5c0-1.9,1.1-3.4,2.6-3.4c1.2,0,2,0.8,2,2
		c0,0.4-0.1,0.8-0.2,1.4h-2.9c0,0.1,0,0.1,0,0.2c0,0.7,0.4,1,1.3,1c0.5,0,1-0.1,1.5-0.4L28.2,24.3L28.2,24.3z M27.3,20.9
		c0-0.1,0-0.2,0-0.3c0-0.5-0.3-0.7-0.7-0.7c-0.5,0-0.8,0.4-0.9,1L27.3,20.9L27.3,20.9z"/>
	<polygon fill="#FFFFFF" points="12.4,24.4 10.9,24.4 11.8,19.1 9.9,24.4 8.9,24.4 8.8,19.1 7.9,24.4 6.5,24.4 7.7,17.5 9.8,17.5 
		9.8,21.8 11.3,17.5 13.6,17.5 	"/>
	<path fill="#FFFFFF" d="M16,21.9c-0.2,0-0.2,0-0.3,0c-0.8,0-1.3,0.3-1.3,0.9c0,0.3,0.2,0.6,0.5,0.6C15.6,23.3,16,22.7,16,21.9
		L16,21.9z M17.1,24.4h-1.2l0-0.6c-0.4,0.5-0.9,0.7-1.5,0.7c-0.8,0-1.3-0.6-1.3-1.5c0-1.4,1-2.2,2.6-2.2c0.2,0,0.4,0,0.6,0
		c0-0.2,0.1-0.3,0.1-0.4c0-0.4-0.3-0.5-0.9-0.5c-0.4,0-0.9,0.1-1.2,0.2l-0.2,0.1l-0.1,0L14,19c0.7-0.2,1.2-0.3,1.8-0.3
		c1.3,0,1.9,0.6,1.9,1.7c0,0.3,0,0.5-0.1,1.1l-0.3,2l-0.1,0.4l0,0.3l0,0.2L17.1,24.4L17.1,24.4z"/>
	<path fill="#FFFFFF" d="M39.3,21.9c-0.2,0-0.2,0-0.3,0c-0.8,0-1.3,0.3-1.3,0.9c0,0.3,0.2,0.6,0.5,0.6
		C38.8,23.3,39.2,22.7,39.3,21.9L39.3,21.9z M40.3,24.4h-1.2l0-0.6c-0.4,0.5-0.9,0.7-1.5,0.7c-0.8,0-1.3-0.6-1.3-1.5
		c0-1.4,1-2.2,2.6-2.2c0.2,0,0.4,0,0.6,0c0-0.2,0.1-0.3,0.1-0.4c0-0.4-0.3-0.5-0.9-0.5c-0.4,0-0.9,0.1-1.2,0.2l-0.2,0.1l-0.1,0
		l0.2-1.3c0.7-0.2,1.2-0.3,1.8-0.3c1.3,0,1.9,0.6,1.9,1.7c0,0.3,0,0.5-0.1,1.1l-0.3,2l-0.1,0.4l0,0.3l0,0.2L40.3,24.4L40.3,24.4z"/>
	<path fill="#FFFFFF" d="M44.3,18.7c0,0-0.1,0-0.1,0c-0.5,0-0.8,0.2-1.2,0.9l0.1-0.9h-1.3l-0.9,5.6h1.5c0.5-3.4,0.7-4,1.4-4
		c0,0,0,0,0.1,0C43.9,19.7,44.1,19.2,44.3,18.7L44.3,18.7L44.3,18.7z"/>
</g>
</svg>
