<?xml version="1.0" encoding="utf-8"?>
<!-- Generator: Adobe Illustrator 16.0.0, SVG Export Plug-In . SVG Version: 6.00 Build 0)  -->
<!DOCTYPE svg PUBLIC "-//W3C//DTD SVG 1.0//EN" "http://www.w3.org/TR/2001/REC-SVG-20010904/DTD/svg10.dtd">
<svg version="1.0" id="Layer_1" xmlns="http://www.w3.org/2000/svg" xmlns:xlink="http://www.w3.org/1999/xlink" x="0px" y="0px"
	 width="100px" height="100px" viewBox="0 0 100 100" enable-background="new 0 0 100 100" xml:space="preserve">
<g>
	<path d="M0.924,43.107c0-1.633,0-3.265,0-4.898c0.245-1.605,0.413-3.228,0.748-4.814
		c1.487-7.042,4.762-13,10.749-17.229c4.733-3.343,10.093-4.604,15.81-4.433c8.498,0.254,15.329,3.717,20.245,10.747
		c0.987,1.41,1.832,1.41,2.837-0.039c3.522-5.079,8.24-8.491,14.261-9.931c2.171-0.52,4.438-0.641,6.66-0.945
		c0.522,0,1.045,0,1.567,0c0.405,0.071,0.808,0.176,1.216,0.207c5.005,0.384,9.586,1.955,13.541,5.073
		c5.708,4.501,8.757,10.573,9.968,17.62c1.397,8.132,0.168,15.828-4.073,22.979c-1.828,3.08-3.85,6.023-6.262,8.676
		c-4.139,4.551-8.844,8.48-13.809,12.072c-4.219,3.049-8.643,5.816-12.955,8.736c-3.661,2.48-7.294,5.002-10.938,7.504
		c-0.196,0-0.393,0-0.588,0c-1.424-0.959-2.836-1.938-4.274-2.875c-5.591-3.65-11.239-7.215-16.774-10.949
		c-6.994-4.719-13.55-9.973-18.906-16.57C5.844,58.99,2.779,53.416,1.55,46.95C1.308,45.676,1.131,44.389,0.924,43.107z"/>
</g>
</svg>
