<?xml version="1.0" encoding="utf-8"?>
<!-- Generator: Adobe Illustrator 16.0.0, SVG Export Plug-In . SVG Version: 6.00 Build 0)  -->
<!DOCTYPE svg PUBLIC "-//W3C//DTD SVG 1.0//EN" "http://www.w3.org/TR/2001/REC-SVG-20010904/DTD/svg10.dtd">
<svg version="1.0" id="Layer_1" xmlns="http://www.w3.org/2000/svg" xmlns:xlink="http://www.w3.org/1999/xlink" x="0px" y="0px"
	 width="100px" height="100px" viewBox="0 0 100 100" enable-background="new 0 0 100 100" xml:space="preserve">
<g>
	<path fill-rule="evenodd" clip-rule="evenodd" d="M95.075,92.832c-30.507,0-60.931,0-91.405,0
		c-0.011-0.186-0.03-0.358-0.03-0.531c0.005-4.435,0.007-8.868,0.023-13.302c0.002-0.669,0.016-1.345,0.113-2.004
		c0.15-1.016,0.774-1.777,1.523-2.428c0.324-0.281,0.692-0.532,1.077-0.722c7.741-3.802,15.408-7.755,23.347-11.142
		c1.576-0.671,3.161-1.323,4.735-1.998c0.413-0.178,0.817-0.384,1.201-0.617c1.898-1.154,2.564-2.611,1.9-4.73
		c-0.548-1.746-1.31-3.429-2.048-5.109c-0.797-1.816-1.721-3.577-2.508-5.398c-0.977-2.262-1.271-4.689-1.544-7.114
		c-0.228-2.028-0.51-4.05-0.702-6.082c-0.367-3.865-0.345-7.721,1.183-11.368c2.026-4.834,5.709-7.997,10.593-9.685
		c5.584-1.929,11.067-1.634,16.23,1.419c3.35,1.981,5.565,5.002,7.225,8.453c1.975,4.104,2.83,8.435,2.498,12.986
		c-0.261,3.562-1.213,6.955-2.535,10.254c-1.263,3.146-2.547,6.284-3.776,9.441c-0.352,0.901-0.658,1.847-0.795,2.799
		c-0.258,1.796,0.503,3.219,2.057,4.089c1.188,0.665,2.485,1.14,3.748,1.664c6.893,2.869,13.79,5.725,20.684,8.589
		c1.166,0.485,2.336,0.961,3.48,1.492c1.914,0.89,3.378,2.221,3.688,4.414c0.151,1.08,0.068,2.196,0.06,3.295
		c-0.022,2.424-0.084,4.848-0.093,7.272c-0.006,1.81,0.045,3.619,0.07,5.43C95.078,92.396,95.075,92.592,95.075,92.832z"/>
</g>
</svg>
