<svg id="Camada_1" data-name="Camada 1" xmlns="http://www.w3.org/2000/svg" viewBox="0 0 116.84 84.98"><defs><style>.cls-1{fill:#263c6f;}</style></defs><title>minhas-viagens_Camera</title><g id="QHjUvx.tif"><path class="cls-1" d="M116.84,289.38v53.24c-.07.4-.18.8-.21,1.2a9.23,9.23,0,0,1-7,8.76c-1.13.34-2.33.5-3.49.74H10.6a4.6,4.6,0,0,0-.71-.19c-6.52-.76-9.83-4.26-9.85-10.8C0,324.88,0,307.42,0,290c0-3.06.6-5.92,3-8.11A11.48,11.48,0,0,1,10.87,279c6.3-.07,12.61,0,18.91,0a1.54,1.54,0,0,0,1.56-.89c1.33-2.33,2.76-4.61,4.13-6.92a5.3,5.3,0,0,1,4.91-2.79q18,0,35.94,0a5.37,5.37,0,0,1,5,2.86c1.33,2.29,2.75,4.52,4.06,6.82A1.63,1.63,0,0,0,87,279q8.83-.05,17.66,0a19,19,0,0,1,3.33.25c4,.74,7,2.74,8.21,6.79A30.64,30.64,0,0,1,116.84,289.38ZM82.25,313.47a23.88,23.88,0,1,0-23.93,23.89A23.86,23.86,0,0,0,82.25,313.47ZM90,300.16a5.32,5.32,0,1,0-5.15-5.43A5.27,5.27,0,0,0,90,300.16Z" transform="translate(0 -268.34)"/><path class="cls-1" d="M76.88,313.48a18.52,18.52,0,1,1-18.3-18.63A18.43,18.43,0,0,1,76.88,313.48Z" transform="translate(0 -268.34)"/><path class="cls-1" d="M25.54,271H17a1,1,0,0,0-1,1v3.09a1,1,0,0,0,1,1h8.49a1,1,0,0,0,1-1V272A1,1,0,0,0,25.54,271Z" transform="translate(0 -268.34)"/></g></svg>