<?xml version="1.0" encoding="utf-8"?>
<!-- Generator: Adobe Illustrator 16.0.0, SVG Export Plug-In . SVG Version: 6.00 Build 0)  -->
<!DOCTYPE svg PUBLIC "-//W3C//DTD SVG 1.0//EN" "http://www.w3.org/TR/2001/REC-SVG-20010904/DTD/svg10.dtd">
<svg version="1.0" id="Layer_1" xmlns="http://www.w3.org/2000/svg" xmlns:xlink="http://www.w3.org/1999/xlink" x="0px" y="0px"
	 width="100px" height="100px" viewBox="0 0 100 100" enable-background="new 0 0 100 100" xml:space="preserve">
<g>
	<path fill-rule="evenodd" clip-rule="evenodd" d="M49.146,95.767c-11.026,0-22.054,0.005-33.08-0.001
		c-3.368-0.002-6.075-1.809-6.854-4.839c-0.328-1.281-0.25-2.716-0.114-4.057c0.383-3.797,0.886-7.582,1.351-11.371
		c0.444-3.622,0.91-7.242,1.347-10.865c0.438-3.624,0.84-7.253,1.273-10.877c0.435-3.624,0.892-7.246,1.336-10.869
		c0.351-2.858,0.654-5.723,1.053-8.574c0.556-3.971,3.192-6.244,7.198-6.248c10.726-0.01,21.448-0.003,32.174-0.003
		c6.958,0,13.917-0.005,20.877,0.003c3.223,0.003,5.927,1.749,6.773,4.565c0.419,1.395,0.522,2.891,0.706,4.35
		c0.475,3.754,0.918,7.511,1.364,11.268c0.432,3.624,0.842,7.252,1.278,10.876c0.439,3.657,0.91,7.312,1.35,10.969
		c0.435,3.624,0.845,7.251,1.271,10.876c0.286,2.428,0.526,4.863,0.885,7.281c0.488,3.294-1.97,6.754-5.312,7.309
		c-0.79,0.132-1.601,0.197-2.401,0.199C70.798,95.771,59.973,95.767,49.146,95.767z M67.329,40.952
		c0.01-1.959-1.683-3.669-3.644-3.683c-1.965-0.013-3.666,1.668-3.682,3.639c-0.016,1.955,1.677,3.669,3.64,3.686
		C65.593,44.61,67.319,42.904,67.329,40.952z M34.633,37.27c-1.953-0.011-3.665,1.682-3.682,3.641
		c-0.016,1.954,1.667,3.654,3.641,3.679c1.941,0.024,3.677-1.69,3.68-3.637C38.274,38.989,36.587,37.281,34.633,37.27z"/>
	<path fill-rule="evenodd" clip-rule="evenodd" d="M37.799,24.698c-2.186,0-4.225,0-6.267,0
		c-0.68-7.738,0.821-14.604,7.612-19.292c10.57-7.297,25.007-1.295,27.302,11.375c0.461,2.551,0.385,5.199,0.562,7.891
		c-2.276,0-4.338,0-6.526,0c0-1.505-0.068-3.01,0.013-4.506c0.262-4.792-3.165-10.577-9.76-11.482
		c-7.5-1.03-12.885,4.888-12.935,10.906C37.787,21.266,37.799,22.941,37.799,24.698z"/>
</g>
</svg>
