<?xml version="1.0" encoding="utf-8"?>
<!-- Generator: Adobe Illustrator 16.0.0, SVG Export Plug-In . SVG Version: 6.00 Build 0)  -->
<!DOCTYPE svg PUBLIC "-//W3C//DTD SVG 1.0//EN" "http://www.w3.org/TR/2001/REC-SVG-20010904/DTD/svg10.dtd">
<svg version="1.0" id="Layer_1" xmlns="http://www.w3.org/2000/svg" xmlns:xlink="http://www.w3.org/1999/xlink" x="0px" y="0px"
	 width="100px" height="100px" viewBox="0 0 100 100" enable-background="new 0 0 100 100" xml:space="preserve">
<g>
	<g>
		<path fill="#263C70" d="M48.242,6.909c1.066,0,2.132,0,3.198,0c0.437,0.077,0.872,0.161,1.31,0.231
			c2.727,0.437,5.51,0.657,8.171,1.345c9.164,2.369,16.688,7.366,22.602,14.741c5.15,6.423,8.18,13.751,9.096,21.943
			c0.13,1.162,0.266,2.323,0.399,3.485c0,1.009,0,2.02,0,3.029c-0.071,0.296-0.172,0.589-0.211,0.889
			c-0.236,1.856-0.35,3.736-0.704,5.568c-2.047,10.588-7.406,19.188-15.863,25.821c-6.38,5.005-13.649,7.924-21.736,8.759
			c-0.967,0.1-1.929,0.246-2.894,0.371c-1.123,0-2.245,0-3.367,0c-0.379-0.076-0.756-0.167-1.138-0.228
			c-2.727-0.44-5.51-0.656-8.172-1.346c-9.616-2.489-17.4-7.83-23.383-15.727c-4.696-6.199-7.482-13.204-8.322-20.96
			c-0.113-1.052-0.261-2.1-0.394-3.148c0-1.122,0-2.245,0-3.367c0.076-0.38,0.201-0.758,0.22-1.141
			c0.188-3.886,0.984-7.654,2.267-11.314c2.898-8.271,7.89-15.042,14.881-20.295c6.193-4.654,13.168-7.433,20.895-8.265
			C46.147,7.189,47.194,7.041,48.242,6.909z"/>
	</g>
	<path fill="#0087E5" d="M67.616,39.609c1.619,0.363,2.344,1.227,2.402,3.073c0.086,2.653-0.754,5.004-2.562,6.988
		c-0.295,0.323-0.575,0.686-0.76,1.078c-1.51,3.205-3.193,6.308-5.603,8.938c-0.959,1.047-2.105,1.92-3.141,2.9
		c-0.176,0.166-0.363,0.548-0.289,0.714c1.167,2.613,2.688,4.964,5.013,6.73c1.48,1.126,3.243,1.285,4.96,1.655
		c2.153,0.463,4.292,0.988,6.464,1.656c-5.859,4.794-12.57,7.492-20.03,8.215c-10.479,1.016-19.954-1.631-28.319-7.999
		c0.007-0.114,0.015-0.229,0.022-0.344c1.617-0.4,3.227-0.825,4.851-1.193c1.199-0.271,2.416-0.463,3.623-0.695
		c2.347-0.453,4.044-1.912,5.408-3.734c0.95-1.27,1.681-2.706,2.461-4.095c0.115-0.204,0.074-0.712-0.08-0.822
		c-4.052-2.922-6.465-7.066-8.622-11.416c-0.316-0.637-0.736-1.237-1.186-1.792c-1.776-2.189-2.663-4.634-2.249-7.471
		c0.187-1.281,0.792-2.207,2.263-2.351c-0.16-1.589-0.353-3.136-0.464-4.689c-0.316-4.398,0.077-8.661,2.957-12.265
		c2.433-3.044,5.687-4.869,9.449-5.738c5.426-1.253,10.745-0.979,15.784,1.582c4.58,2.326,7.359,6.005,8.034,11.171
		c0.374,2.859,0.135,5.699-0.229,8.538C67.717,38.684,67.671,39.126,67.616,39.609z"/>
	<g id="QHjUvx.tif">
		<g>
			<path fill="#FFFFFF" d="M64.507,45.623c0,4.457,0,8.915,0,13.372c-0.018,0.101-0.044,0.2-0.052,0.301
				c-0.083,1.116-0.682,1.875-1.758,2.199c-0.285,0.086-0.585,0.126-0.877,0.187c-7.998,0-15.996,0-23.994,0
				c-0.06-0.017-0.118-0.041-0.179-0.048c-1.638-0.19-2.469-1.071-2.475-2.712c-0.014-4.384-0.006-8.768-0.003-13.151
				c0-0.769,0.151-1.487,0.757-2.036c0.559-0.506,1.235-0.722,1.968-0.73c1.583-0.018,3.166-0.008,4.749-0.002
				c0.19,0.001,0.295-0.056,0.391-0.224c0.335-0.586,0.693-1.158,1.036-1.739c0.278-0.473,0.684-0.701,1.233-0.701
				c3.009,0.003,6.019,0.003,9.027,0c0.561,0,0.973,0.232,1.255,0.718c0.333,0.574,0.69,1.135,1.019,1.712
				c0.104,0.181,0.217,0.236,0.418,0.235c1.479-0.009,2.957-0.008,4.436-0.003c0.279,0.001,0.563,0.012,0.837,0.062
				c0.997,0.187,1.754,0.687,2.061,1.706C64.437,45.043,64.457,45.337,64.507,45.623z M55.82,51.674
				c0.002-3.329-2.66-6.004-5.985-6.017c-3.313-0.012-6.008,2.675-6.01,5.991c-0.001,3.322,2.679,6.021,5.984,6.025
				C53.117,57.68,55.82,54.982,55.82,51.674z M57.775,48.331c0.734,0.03,1.338-0.528,1.378-1.274
				c0.04-0.744-0.532-1.363-1.289-1.397c-0.739-0.033-1.358,0.553-1.382,1.308C56.459,47.697,57.031,48.3,57.775,48.331z"/>
			<path fill="#FFFFFF" d="M54.473,51.677c-0.014,2.614-2.086,4.649-4.721,4.636c-2.528-0.014-4.586-2.102-4.583-4.652
				c0.002-2.596,2.102-4.675,4.708-4.663C52.409,47.009,54.487,49.125,54.473,51.677z"/>
			<path fill="#FFFFFF" d="M41.579,41.018h-2.133c-0.137,0-0.25,0.113-0.25,0.25v0.777c0,0.137,0.113,0.25,0.25,0.25h2.133
				c0.138,0,0.25-0.113,0.25-0.25v-0.777C41.829,41.131,41.716,41.018,41.579,41.018z"/>
		</g>
	</g>
</g>
</svg>
