<?xml version="1.0" encoding="utf-8"?>
<!-- Generator: Adobe Illustrator 16.0.0, SVG Export Plug-In . SVG Version: 6.00 Build 0)  -->
<!DOCTYPE svg PUBLIC "-//W3C//DTD SVG 1.0//EN" "http://www.w3.org/TR/2001/REC-SVG-20010904/DTD/svg10.dtd">
<svg version="1.0" id="Layer_1" xmlns="http://www.w3.org/2000/svg" xmlns:xlink="http://www.w3.org/1999/xlink" x="0px" y="0px"
	 width="100px" height="100px" viewBox="0 0 100 100" enable-background="new 0 0 100 100" xml:space="preserve">
<path fill-rule="evenodd" clip-rule="evenodd" d="M49.594,19.153c2.468-2.361,4.609-4.402,6.741-6.454
	c1.47-1.413,2.855-2.921,4.399-4.245c8.102-6.948,19.892-1.023,21.385,7.332c1.209,6.769-2.048,13.186-8.428,15.575
	c-0.5,0.187-1.083,0.207-1.628,0.208c-4.079,0.016-8.157,0.006-12.236,0.006c-2.062,0-2.064,0.001-2.065,2.018
	c-0.001,15.064,0,30.128-0.001,45.193c0,2.781-0.062,5.564,0.028,8.343c0.041,1.256-0.383,1.553-1.585,1.531
	c-4.123-0.07-8.25-0.078-12.374,0.007c-1.299,0.026-1.628-0.384-1.625-1.638c0.036-17.659,0.026-35.319,0.023-52.979
	c0-2.914,0.123-2.457-2.443-2.47c-4.079-0.021-8.157,0.02-12.236-0.029c-0.705-0.008-1.471-0.205-2.099-0.528
	c-7.982-4.11-9.154-11.495-6.681-17.822c2.433-6.224,12.89-11.495,20.562-4.668c3.316,2.951,6.307,6.271,9.427,9.44
	C49.111,18.332,49.35,18.803,49.594,19.153z M65.244,25.643c1.25,0,2.5,0.024,3.749-0.004c3.187-0.075,5.79-2.057,6.592-4.988
	c0.819-2.996-0.385-6.009-3.062-7.665c-2.76-1.707-5.825-1.424-8.281,0.898c-2.185,2.065-4.274,4.231-6.402,6.356
	c-1.015,1.013-1.657,2.253-1.103,3.628c0.512,1.27,1.819,1.689,3.104,1.75C61.639,25.702,63.442,25.639,65.244,25.643z
	 M34.75,25.797c0.003-0.056,0.007-0.112,0.01-0.168c1.94,0,3.906,0.185,5.811-0.078c0.963-0.132,2.093-0.887,2.642-1.701
	c0.63-0.935,0.27-2.192-0.582-3.057c-2.402-2.439-4.771-4.92-7.295-7.229c-2.157-1.973-5.081-2.146-7.627-0.748
	c-2.205,1.211-3.826,4.146-3.578,6.472c0.32,2.988,2.234,5.425,5.115,6.044C31.031,25.716,32.912,25.657,34.75,25.797z"/>
<path fill-rule="evenodd" clip-rule="evenodd" d="M12.226,54.857c0.682,0,1.136,0,1.592,0
	c7.596,0,15.191,0.014,22.787-0.02c0.974-0.004,1.396,0.181,1.393,1.283c-0.038,10.467-0.022,20.936-0.027,31.402
	c0,0.314-0.057,0.628-0.105,1.129c-0.59,0-1.129,0-1.669,0c-6.16,0-12.32,0.006-18.48-0.002c-3.495-0.004-5.485-2.011-5.487-5.527
	c-0.005-8.846-0.002-17.693-0.002-26.539C12.226,56.08,12.226,55.578,12.226,54.857z"/>
<path fill-rule="evenodd" clip-rule="evenodd" d="M62.109,88.57c0-11.239,0-22.384,0-33.623
	c8.545,0,17.001,0,25.582,0c0.027,0.555,0.071,1.049,0.072,1.543c0.003,8.902,0.006,17.805,0,26.707
	c-0.003,3.436-1.999,5.444-5.438,5.451c-6.26,0.014-12.519,0.007-18.778,0.002C63.096,88.65,62.643,88.602,62.109,88.57z"/>
<path fill-rule="evenodd" clip-rule="evenodd" d="M62.029,36.502c4.476-0.521,8.707-0.926,12.909-1.535
	c2.356-0.342,4.321-1.62,5.885-3.431c0.789-0.915,1.704-1.264,2.922-1.207c1.988,0.094,3.983,0.013,5.976,0.029
	c2.997,0.025,5.04,1.937,5.085,4.891c0.059,3.89,0.063,7.783-0.004,11.673c-0.048,2.789-1.986,4.747-4.753,4.761
	c-8.94,0.046-17.882,0.03-26.822-0.009c-0.399-0.002-1.143-0.465-1.146-0.721C62.012,46.053,62.029,41.152,62.029,36.502z"/>
<path fill-rule="evenodd" clip-rule="evenodd" d="M37.891,35.924c0.023,0.356,0.079,0.806,0.079,1.255
	c0.007,4.357-0.02,8.715,0.023,13.072c0.01,1.021-0.199,1.486-1.363,1.48c-8.808-0.043-17.615-0.004-26.423-0.039
	c-3.104-0.014-5.001-1.953-5.03-5.063c-0.036-3.708-0.038-7.417,0-11.125c0.032-3.206,2.029-5.128,5.269-5.146
	c2.086-0.012,4.177-0.077,6.256,0.036c0.757,0.041,1.747,0.312,2.192,0.845c3.199,3.831,7.492,4.669,12.128,4.684
	C33.275,35.93,35.53,35.924,37.891,35.924z"/>
</svg>
