<?xml version="1.0" encoding="utf-8"?>
<!-- Generator: Adobe Illustrator 16.0.0, SVG Export Plug-In . SVG Version: 6.00 Build 0)  -->
<!DOCTYPE svg PUBLIC "-//W3C//DTD SVG 1.1//EN" "http://www.w3.org/Graphics/SVG/1.1/DTD/svg11.dtd">
<svg version="1.1" id="Layer_1" xmlns="http://www.w3.org/2000/svg" xmlns:xlink="http://www.w3.org/1999/xlink" x="0px" y="0px"
	 width="98.8px" height="59.3px" viewBox="0 0 98.8 59.3" enable-background="new 0 0 98.8 59.3" xml:space="preserve">
<g id="Flag_1_">
	<path d="M0,0v59.3h98.8V0H0z M49.5,51.9l-35-22.2L49.4,7.4l35,22.3L49.5,51.9z"/>
	<g>
		<path d="M35.7,24.3L35.7,24.3L35.7,24.3z"/>
		<path d="M63.9,32.5c0.2-0.9,0.3-1.8,0.3-2.8c0-8.1-6.6-14.7-14.7-14.7c-6.1,0-10.3,2.6-13.1,8c0.2-0.4-0.2,0.4,0,0
			C46.1,21.9,56.8,26,63.9,32.5z M53.8,24.8l0.1-0.4l0.1,0.4h0.5l-0.4,0.3l0.1,0.4L54,25.2l-0.4,0.3l0.1-0.4l-0.4-0.3H53.8z"/>
		<path d="M35.4,25.2c-0.5,1.4-0.7,3-0.7,4.6c0,8.1,6.6,14.7,14.7,14.7c6.4,0,11.8-4,13.8-9.7C55.8,27.6,45.7,24.1,35.4,25.2z
			 M36.9,34.7l-0.2-0.2l-0.2,0.2l0.1-0.3l-0.3-0.1h0.3l0.1-0.3l0.1,0.3h0.3l-0.2,0.2V34.7z M37.6,27.6l-0.4-0.3l-0.4,0.3l0.1-0.4
			l-0.4-0.3H37l0.1-0.4l0.1,0.4h0.5l-0.4,0.3L37.6,27.6z M49.6,41l-0.1-0.1L49.4,41v-0.1l-0.1-0.1h0.2v-0.1v0.1h0.1l-0.1,0.1
			L49.6,41z M57.3,40.7L57,40.5l-0.2,0.2l0.1-0.3l-0.3-0.2h0.3l0.1-0.3l0.1,0.3h0.3l-0.3,0.2L57.3,40.7z M61.5,34.5l0.1-0.3l0.1,0.3
			H62l-0.2,0.2l0.1,0.3l-0.3-0.2L61.4,35l0.1-0.3l-0.2-0.2H61.5z M60.2,36.4l-0.3-0.2l-0.3,0.2l0.1-0.4l-0.3-0.2h0.4l0.1-0.4
			l0.1,0.4h0.4L60.1,36L60.2,36.4z M59.6,34.6l0.1-0.4l0.1,0.4h0.5l-0.4,0.3l0.1,0.4L59.6,35l-0.3,0.3l0.1-0.4L59,34.6H59.6
			L59.6,34.6z M59.3,36.9l0.1-0.4l0.1,0.4h0.4l-0.3,0.2l0.1,0.4l-0.3-0.2l-0.3,0.2l0.1-0.4l-0.3-0.2H59.3z M58.1,37.4l0.1-0.3
			l0.1,0.3h0.3l-0.2,0.2l0.1,0.3l-0.2-0.2L58,37.9l0.1-0.3l-0.3-0.2H58.1z M56.9,37.4l0.1-0.3l0.1,0.3h0.3l-0.2,0.2l0.1,0.3L57,37.7
			l-0.2,0.2l0.1-0.3l-0.3-0.2H56.9z M56.9,39l0.1-0.4l0.1,0.4h0.4l-0.3,0.2l0.1,0.4L57,39.3l-0.3,0.2L56.9,39l-0.4-0.1h0.4V39z
			 M54.8,37.4l0.1-0.3l0.1,0.3h0.3L55,37.6l0.1,0.3l-0.2-0.2l-0.2,0.2l0.1-0.3l-0.3-0.2H54.8z M53.8,39.6l0.1,0.4h0.4L54,40.2
			l0.1,0.4l-0.3-0.3l-0.3,0.2l0.1-0.4l-0.3-0.2h0.4L53.8,39.6z M53.1,28.9l0.1-0.3l0.1,0.3h0.3l-0.2,0.2l0.1,0.3l-0.2-0.2L53,29.4
			l0.1-0.3l-0.2-0.2H53.1L53.1,28.9z M52.6,37.4l0.1-0.3l0.1,0.3h0.3l-0.2,0.2l0.1,0.3l-0.3-0.2l-0.2,0.2l0.1-0.3l-0.2-0.2H52.6z
			 M50.9,33l0.1-0.4l0.1,0.4h0.4l-0.3,0.2l0.1,0.4L51,33.4l-0.3,0.2l0.1-0.4L50.5,33H50.9z M50.1,36.6l-0.4-0.3l-0.4,0.3l0.1-0.4
			L49,35.9h0.5l0.1-0.4l0.1,0.4h0.5l-0.4,0.3L50.1,36.6z M49.3,31.4l0.1-0.4l0.1,0.4h0.4l-0.3,0.2l0.1,0.4l-0.3-0.2L49.1,32l0.1-0.4
			l-0.3-0.2H49.3z M49.1,34.3l0.1-0.2l0.1,0.2h0.2l-0.2,0.1l0.1,0.2l-0.2-0.1L49,34.7l0.1-0.2l-0.2-0.2H49.1z M48,33l0.1-0.3
			l0.1,0.3h0.3l-0.2,0.2l0.1,0.3L48,33.3l-0.2,0.2l0.1-0.3L47.6,33H48L48,33z M43.9,30l0.1-0.4l0.1,0.4h0.4l-0.3,0.2l0.1,0.4
			L44,30.4l-0.3,0.2l0.1-0.4L43.5,30H43.9z M43.8,37.3l0.1-0.4l0.1,0.4h0.5l-0.4,0.3l0.1,0.4L44,37.7L43.6,38l0.1-0.4l-0.3-0.3H43.8
			L43.8,37.3z M41.4,34.3l0.1-0.4l0.1,0.4H42l-0.3,0.2l0.1,0.4l-0.3-0.2l-0.3,0.2l0.1-0.4l-0.2-0.2H41.4z M40.9,35.9l0.1-0.4
			l0.1,0.4h0.4l-0.3,0.2l0.1,0.4L41,36.3l-0.3,0.2l0.1-0.4l-0.3-0.2H40.9z M40.2,32.2l0.1-0.2l0.1,0.2h0.2l-0.2,0.1l0.1,0.2
			l-0.2-0.1L40,32.6l0.1-0.2l-0.2-0.1L40.2,32.2L40.2,32.2z M39.3,32.9l-0.4,0.3l0.1,0.4l-0.3-0.3l-0.4,0.3l0.1-0.4L38,32.9h0.5
			l0.1-0.4l0.1,0.4H39.3L39.3,32.9z"/>
		<path d="M63.9,32.5L63.9,32.5L63.9,32.5C63.8,32.6,63.9,32.5,63.9,32.5z"/>
	</g>
</g>
</svg>
