<?xml version="1.0" encoding="utf-8"?>
<!-- Generator: Adobe Illustrator 16.0.0, SVG Export Plug-In . SVG Version: 6.00 Build 0)  -->
<!DOCTYPE svg PUBLIC "-//W3C//DTD SVG 1.0//EN" "http://www.w3.org/TR/2001/REC-SVG-20010904/DTD/svg10.dtd">
<svg version="1.0" id="Layer_1" xmlns="http://www.w3.org/2000/svg" xmlns:xlink="http://www.w3.org/1999/xlink" x="0px" y="0px"
	 width="100px" height="100px" viewBox="0 0 100 100" enable-background="new 0 0 100 100" xml:space="preserve">
<g>
	<g>
		<path fill="#0087E5" d="M52.769,24.599h-1.411V13.31c0-3.117-2.527-5.645-5.646-5.645H20.311c-3.116,0-5.645,2.527-5.645,5.645
			v11.289h-1.41c-3.898,0-7.057,3.159-7.057,7.057v53.624c0,3.897,3.158,7.056,7.057,7.056h39.513c3.896,0,7.056-3.158,7.056-7.056
			V31.655C59.824,27.758,56.665,24.599,52.769,24.599z M20.311,14.486c0-0.65,0.529-1.177,1.177-1.177h23.048
			c0.647,0,1.177,0.526,1.177,1.177v18.58H20.311V14.486z M51.357,51.83c0,0.549-0.443,0.992-0.992,0.992H15.659
			c-0.549,0-0.993-0.443-0.993-0.992v-9.305c0-0.549,0.444-0.992,0.993-0.992h34.706c0.549,0,0.992,0.443,0.992,0.992V51.83z
			 M23.133,68.919c0,0.463-0.374,0.838-0.837,0.838h-6.792c-0.463,0-0.838-0.375-0.838-0.838v-6.792
			c0-0.462,0.375-0.837,0.838-0.837h6.792c0.463,0,0.837,0.375,0.837,0.837V68.919z M37.245,68.919c0,0.463-0.374,0.838-0.837,0.838
			h-6.792c-0.463,0-0.839-0.375-0.839-0.838v-6.792c0-0.462,0.376-0.837,0.839-0.837h6.792c0.463,0,0.837,0.375,0.837,0.837V68.919z
			 M51.357,68.919c0,0.463-0.375,0.838-0.839,0.838h-6.79c-0.465,0-0.839-0.375-0.839-0.838v-6.792c0-0.462,0.374-0.837,0.839-0.837
			h6.79c0.464,0,0.839,0.375,0.839,0.837V68.919z M51.357,83.03c0,0.463-0.375,0.838-0.839,0.838h-6.79
			c-0.465,0-0.839-0.375-0.839-0.838v-6.791c0-0.463,0.374-0.838,0.839-0.838h6.79c0.464,0,0.839,0.375,0.839,0.838V83.03z
			 M37.245,83.03c0,0.463-0.374,0.838-0.837,0.838h-6.792c-0.463,0-0.839-0.375-0.839-0.838v-6.791c0-0.463,0.376-0.838,0.839-0.838
			h6.792c0.463,0,0.837,0.375,0.837,0.838V83.03z M23.133,83.03c0,0.463-0.374,0.838-0.837,0.838h-6.792
			c-0.463,0-0.838-0.375-0.838-0.838v-6.791c0-0.463,0.375-0.838,0.838-0.838h6.792c0.463,0,0.837,0.375,0.837,0.838V83.03z"/>
	</g>
	<g>
		<path fill="#263C70" d="M85.021,34.948H62.443v5.646h8.467v39.513h-8.467v5.645h22.577c3.115,0,5.646-2.527,5.646-5.645V40.594
			C90.666,37.476,88.136,34.948,85.021,34.948z M85.021,78.431c0,0.926-0.749,1.676-1.676,1.676h-3.968V40.594h3.968
			c0.927,0,1.676,0.749,1.676,1.675V78.431z"/>
	</g>
	<g>
		<path fill="#FDDA2B" d="M42.89,19.55v1.632c0,0.328-0.265,0.595-0.595,0.595H23.729c-0.33,0-0.596-0.267-0.596-0.595V19.55
			c0-0.328,0.266-0.596,0.596-0.596h18.566C42.625,18.954,42.89,19.222,42.89,19.55z"/>
	</g>
	<g>
		<path fill="#FDDA2B" d="M42.89,25.194v1.632c0,0.328-0.265,0.595-0.595,0.595H23.729c-0.33,0-0.596-0.267-0.596-0.595v-1.632
			c0-0.328,0.266-0.596,0.596-0.596h18.566C42.625,24.599,42.89,24.866,42.89,25.194z"/>
	</g>
</g>
</svg>
