<?xml version="1.0" encoding="utf-8"?>
<!-- Generator: Adobe Illustrator 18.1.1, SVG Export Plug-In . SVG Version: 6.00 Build 0)  -->
<!DOCTYPE svg PUBLIC "-//W3C//DTD SVG 1.0//EN" "http://www.w3.org/TR/2001/REC-SVG-20010904/DTD/svg10.dtd">
<svg version="1.0" id="Camada_1" xmlns="http://www.w3.org/2000/svg" xmlns:xlink="http://www.w3.org/1999/xlink" x="0px" y="0px"
	 viewBox="0 0 426.255 426.175" enable-background="new 0 0 426.255 426.175" xml:space="preserve">
<g id="_x39_zKvKO.tif">
	<g>
		<path d="M213.117,0.001C330.73-0.391,426.604,95.58,426.254,213.451c-0.35,117.933-95.428,212.86-213.37,212.724
			C94.926,426.039,0.116,330.9,0,212.964C-0.116,95.374,95.694-0.399,213.117,0.001z M191.986,191.893c0,42.76,0,85.141,0,127.78
			c14.237,0,28.127,0,42.262,0c0-42.708,0-85.095,0-127.78C220.146,191.893,206.378,191.893,191.986,191.893z M191.876,148.666
			c14.418,0,28.423,0,42.275,0c0-14.308,0-28.189,0-42.095c-14.308,0-28.175,0-42.275,0
			C191.876,120.734,191.876,134.511,191.876,148.666z"/>
	</g>
</g>
</svg>
