<?xml version="1.0" encoding="utf-8"?>
<!-- Generator: Adobe Illustrator 16.0.0, SVG Export Plug-In . SVG Version: 6.00 Build 0)  -->
<!DOCTYPE svg PUBLIC "-//W3C//DTD SVG 1.1//EN" "http://www.w3.org/Graphics/SVG/1.1/DTD/svg11.dtd">
<svg version="1.1" id="Camada_1" xmlns="http://www.w3.org/2000/svg" xmlns:xlink="http://www.w3.org/1999/xlink" x="0px" y="0px"
	 width="50.1px" height="50px" viewBox="10 0 50.1 50" enable-background="new 10 0 50.1 50" xml:space="preserve">
<g>
	<path d="M59.8,22c-0.5-4.5-2.2-8.6-5-12.2c-3.9-5-9-8.2-15.3-9.4C27.6-1.8,16.1,4.7,11.7,16c-1.3,3.2-1.8,6.6-1.7,10
		c0.5,11.7,8.8,21.1,19.9,23.4c13.4,2.8,26.3-5.5,29.5-18.9c0.3-1.4,0.4-2.8,0.6-4.2c0-0.2,0.1-0.3,0.1-0.5c0-0.6,0-1.1,0-1.7
		C59.9,23.4,59.9,22.7,59.8,22z M24.2,11.4c6.8,0,13.6,0,20.4,0c0,1,0,1.9,0,2.9c-6.8,0-13.6,0-20.4,0
		C24.2,13.3,24.2,12.4,24.2,11.4z M44.6,17.2c0,1,0,1.9,0,2.9c-6.8,0-13.6,0-20.4,0c0-1,0-1.9,0-2.9C31,17.2,37.8,17.2,44.6,17.2z
		 M24.2,23c6.8,0,13.6,0,20.4,0c0,1,0,1.9,0,2.9c-6.8,0-13.6,0-20.4,0C24.2,25,24.2,24,24.2,23z M19.9,11.4c0.8,0,1.5,0.7,1.4,1.5
		c0,0.8-0.7,1.4-1.5,1.4c-0.8,0-1.4-0.7-1.4-1.5C18.4,12,19.1,11.4,19.9,11.4z M19.9,17.2c0.8,0,1.5,0.7,1.5,1.5
		c0,0.8-0.7,1.5-1.5,1.5c-0.8,0-1.4-0.7-1.4-1.5C18.4,17.8,19,17.2,19.9,17.2z M21.3,24.5c0,0.8-0.7,1.4-1.5,1.4
		c-0.8,0-1.5-0.6-1.5-1.5c0-0.8,0.7-1.4,1.5-1.4C20.7,23,21.3,23.7,21.3,24.5z M19.8,31.8c-0.8,0-1.4-0.6-1.4-1.5
		c0-0.8,0.6-1.5,1.5-1.5c0.8,0,1.5,0.7,1.5,1.4C21.3,31.1,20.7,31.8,19.8,31.8z M38.8,31.8c-4.9,0-9.7,0-14.6,0c0-1,0-1.9,0-2.9
		c4.9,0,9.7,0,14.6,0C38.8,29.8,38.8,30.8,38.8,31.8z M53.3,36.1c-0.7,0-1.4,0-2,0c-0.8,0-1.6,0-2.3,0c0,1.5,0,2.9,0,4.3
		c-0.4,0-0.7,0-1,0c-0.6,0-1.1,0-1.7,0c-0.2,0-0.2-0.2-0.2-0.3c0-1.2,0-2.4,0-3.6c0-0.1,0-0.2,0-0.4c-1.5,0-2.9,0-4.4,0
		c0-1,0-1.9,0-2.9c1.5,0,2.8,0,4.4,0c0-1.5,0-2.9,0-4.4c1,0,1.9,0,2.9,0c0,1.5,0,2.9,0,4.3c0.2,0,0.3,0,0.4,0c1.2,0,2.5,0,3.8,0
		c0.1,0,0.1,0,0.2,0C53.3,34.2,53.3,35.2,53.3,36.1z"/>
	<path fill="#FFFFFF" d="M49.4,33.2c-0.1,0-0.3,0-0.4,0c0-1.5,0-2.9,0-4.3c-1,0-1.9,0-2.9,0c0,1.5,0,2.9,0,4.4c-1.6,0-2.9,0-4.4,0
		c0,1,0,1.9,0,2.9c1.5,0,2.9,0,4.4,0c0,0.2,0,0.3,0,0.4c0,1.2,0,2.4,0,3.6c0,0.2,0,0.3,0.2,0.3c0.6,0,1.1,0,1.7,0c0.3,0,0.7,0,1,0
		c0-1.4,0-2.9,0-4.3c0.8,0,1.6,0,2.3,0c0.7,0,1.4,0,2,0c0-1,0-1.9,0-2.9c-0.1,0-0.1,0-0.2,0C51.9,33.2,50.7,33.2,49.4,33.2z"/>
	<path fill="#FFFFFF" d="M44.6,20.1c0-1,0-1.9,0-2.9c-6.8,0-13.6,0-20.4,0c0,1,0,1.9,0,2.9C31,20.1,37.8,20.1,44.6,20.1z"/>
	<path fill="#FFFFFF" d="M44.6,23c-6.8,0-13.6,0-20.4,0c0,1,0,1.9,0,2.9c6.8,0,13.6,0,20.4,0C44.6,25,44.6,24,44.6,23z"/>
	<path fill="#FFFFFF" d="M44.6,11.4c-6.8,0-13.6,0-20.4,0c0,1,0,1.9,0,2.9c6.8,0,13.6,0,20.4,0C44.6,13.3,44.6,12.4,44.6,11.4z"/>
	<path fill="#FFFFFF" d="M24.2,31.8c4.9,0,9.7,0,14.6,0c0-1,0-1.9,0-2.9c-4.9,0-9.7,0-14.6,0C24.2,29.8,24.2,30.8,24.2,31.8z"/>
	<path fill="#FFFFFF" d="M19.9,23c-0.8,0-1.5,0.6-1.5,1.4c0,0.9,0.6,1.5,1.5,1.5c0.8,0,1.5-0.6,1.5-1.4C21.3,23.7,20.7,23,19.9,23z"
		/>
	<path fill="#FFFFFF" d="M19.9,20.1c0.8,0,1.5-0.7,1.5-1.5c0-0.8-0.7-1.5-1.5-1.5c-0.8,0-1.5,0.6-1.5,1.4
		C18.4,19.5,19,20.1,19.9,20.1z"/>
	<path fill="#FFFFFF" d="M19.9,28.8c-0.8,0-1.5,0.7-1.5,1.5c0,0.8,0.6,1.5,1.4,1.5c0.8,0,1.5-0.7,1.5-1.5
		C21.3,29.5,20.6,28.8,19.9,28.8z"/>
	<path fill="#FFFFFF" d="M19.8,14.3c0.8,0,1.5-0.6,1.5-1.4c0-0.8-0.6-1.5-1.4-1.5c-0.8,0-1.5,0.6-1.5,1.4
		C18.4,13.6,19,14.3,19.8,14.3z"/>
</g>
</svg>
