<?xml version="1.0" encoding="utf-8"?>
<!-- Generator: Adobe Illustrator 16.0.0, SVG Export Plug-In . SVG Version: 6.00 Build 0)  -->
<!DOCTYPE svg PUBLIC "-//W3C//DTD SVG 1.1//EN" "http://www.w3.org/Graphics/SVG/1.1/DTD/svg11.dtd">
<svg version="1.1" id="Layer_1" xmlns="http://www.w3.org/2000/svg" xmlns:xlink="http://www.w3.org/1999/xlink" x="0px" y="0px"
	 width="98px" height="49px" viewBox="1 22 98 49" enable-background="new 1 22 98 49" xml:space="preserve">
<g>
	<path fill="#263C70" d="M71,71H6c-2.8,0-5-2.2-5-5V27.4C1,24.6,3.2,22,6,22h65V71z"/>
	<path fill="#FDDA2B" d="M32,47c0,0.5-0.4,1-1,1H6c-0.5,0-1-0.4-1-1v0c0-0.5,0.4-1,1-1h25C31.6,46,32,46.4,32,47L32,47z"/>
	<path fill="#FDDA2B" d="M53,52c0,0.5-0.4,1-1,1H6c-0.5,0-1-0.4-1-1v0c0-0.5,0.4-1,1-1h46C52.6,51,53,51.4,53,52L53,52z"/>
	<path fill="#FDDA2B" d="M53,57c0,0.5-0.4,1-1,1H6c-0.5,0-1-0.4-1-1v0c0-0.5,0.4-1,1-1h46C52.6,56,53,56.4,53,57L53,57z"/>
	<path fill="#FDDA2B" d="M53,62c0,0.5-0.4,1-1,1H6c-0.5,0-1-0.4-1-1v0c0-0.5,0.4-1,1-1h46C52.6,61,53,61.4,53,62L53,62z"/>
	<path fill="#3680C3" d="M94.3,22H72v49h22.3c2.8,0,4.7-2.2,4.7-5V27.4C99,24.6,97.1,22,94.3,22z M92,67H76v-1h16V67z M92,65H76v-1
		h16V65z M92,62H76v-1h16V62z M92,59H76v-1h16V59z M92,57H76v-1h16V57z M92,55H76v-2h16V55z M92,52H76v-1h16V52z M92,50H76v-1h16V50
		z M92,48H76v-1h16V48z M92,44H76v-1h16V44z M92,42H76v-1h16V42z M92,40H76v-1h16V40z M92,38H76v-1h16V38z M92,35H76v-1h16V35z
		 M92,32H76v-1h16V32z M92,30H76v-1h16V30z M92,27H76v-1h16V27z"/>
</g>
</svg>
