<?xml version="1.0" encoding="utf-8"?>
<!-- Generator: Adobe Illustrator 16.0.0, SVG Export Plug-In . SVG Version: 6.00 Build 0)  -->
<!DOCTYPE svg PUBLIC "-//W3C//DTD SVG 1.1//EN" "http://www.w3.org/Graphics/SVG/1.1/DTD/svg11.dtd">
<svg version="1.1" id="Camada_1" xmlns="http://www.w3.org/2000/svg" xmlns:xlink="http://www.w3.org/1999/xlink" x="0px" y="0px"
	 width="50px" height="50px" viewBox="10 0 50 50" enable-background="new 10 0 50 50" xml:space="preserve">
<g>
	<path fill="none" d="M33.4,42C33.4,42,33.4,42,33.4,42l0,1.1c0,0,0-0.1,0-0.1c0-0.1,0-0.3,0-0.4C33.4,42.4,33.4,42.2,33.4,42z"/>
	<path fill="none" d="M27.7,41.4h0.5C28,41.3,27.8,41.3,27.7,41.4z"/>
	<path fill="none" d="M36.6,42.6v-0.2C36.6,42.5,36.6,42.5,36.6,42.6z"/>
	<path fill="none" d="M15.5,42.2c0,0.1,0,0.2,0,0.3c0,0.2,0,0.4,0,0.6c0,0,0,0,0,0v-1.2C15.5,42.1,15.5,42.2,15.5,42.2z"/>
	<path fill="none" d="M19.4,42c0-0.1,0-0.2,0-0.2c0,0,0,0,0,0v1.6c0,0,0,0,0,0c0-0.1,0-0.2,0-0.4c0-0.1,0-0.3,0-0.4
		C19.4,42.4,19.4,42.2,19.4,42z"/>
	<path fill="none" d="M24.8,43.1v-0.3C24.8,42.9,24.8,43,24.8,43.1z"/>
	<path fill="none" d="M21.7,41.8v1.4c0,0,0-0.1,0-0.1C21.7,42.6,21.8,42.1,21.7,41.8z"/>
	<path fill="none" d="M20.6,41.4h0.6C21,41.3,20.8,41.3,20.6,41.4z"/>
	<path fill="none" d="M21.2,43.8h-0.6C20.8,43.8,21,43.8,21.2,43.8z"/>
	<path fill="none" d="M16,41.4h0.6C16.3,41.3,16.1,41.3,16,41.4z"/>
	<path fill="none" d="M49.8,41.9v0.6C49.8,42.3,49.9,42.1,49.8,41.9z"/>
	<path fill="none" d="M49.3,22.8c-0.2,0.2-0.4,0.2-0.6,0c-1-0.8-2.2-1.1-3.5-0.9c-3,0.4-4.8,3.7-3.6,6.5c1.2,2.8,4.8,3.9,7.4,1.7
		c1,0.8,2,1.2,3.3,1.2c2.7,0,4.9-2.7,4.5-5.3C56.3,22.3,52.3,20.7,49.3,22.8z"/>
	<path fill="none" d="M49.4,43.8h-0.6C48.9,43.8,49.1,43.8,49.4,43.8z"/>
	<path fill="none" d="M48.8,41.4h0.6C49.1,41.3,48.9,41.3,48.8,41.4z"/>
	<path fill="none" d="M45.2,42.2c0,0,0-0.1,0-0.1v1C45.2,42.8,45.2,42.5,45.2,42.2z"/>
	<path d="M60,22.5c0-2.2-1.7-3.8-3.9-3.8c-14.1,0-28.1,0-42.2,0c-2.2,0-3.7,1.6-3.9,3.2c0,0-0.1,0.1-0.1,0.1c0,8.2,0,16.4,0,24.6
		c0.2,0.9,0.6,1.8,1.4,2.5c0.6,0.5,1.3,0.7,2,0.9c14.4,0,28.8,0,43.2,0c0.8-0.2,1.5-0.4,2.1-0.9c0.9-0.8,1.3-1.7,1.3-2.9
		C60,38.3,60,30.4,60,22.5z M14.8,43.5c0,0.2-0.2,0.4-0.4,0.4h-0.9c-0.2,0-0.4-0.2-0.4-0.4v-1.7c0-0.2,0.2-0.4,0.4-0.4h0.9
		c0.2,0,0.4,0.2,0.4,0.4V43.5z M17.1,43.4c0,0.2-0.2,0.4-0.4,0.4h-0.8c-0.2,0-0.4-0.2-0.4-0.4v-1.6c0-0.2,0.2-0.4,0.4-0.4h0.8
		c0.2,0,0.4,0.1,0.4,0.4V43.4z M19.3,43.4c0,0.2-0.2,0.4-0.4,0.4h-0.8c-0.2,0-0.4-0.2-0.4-0.4v-1.6c0-0.2,0.2-0.4,0.4-0.4h0.8
		c0.2,0,0.4,0.1,0.4,0.4C19.4,41.8,19.4,43.3,19.3,43.4z M21.7,43.4c0,0.2-0.2,0.4-0.4,0.4h-0.8c-0.2,0-0.4-0.2-0.4-0.4v-1.6
		c0-0.2,0.2-0.4,0.4-0.4h0.8c0.2,0,0.4,0.1,0.4,0.4V43.4z M26.4,43.4c0,0.2-0.1,0.4-0.3,0.4h-0.8c-0.2,0-0.4-0.2-0.4-0.4v-1.6
		c0-0.2,0.2-0.4,0.4-0.4h0.8c0.2,0,0.3,0.1,0.3,0.4V43.4z M28.8,43.4c0,0.2-0.2,0.4-0.4,0.4h-0.8c-0.2,0-0.4-0.2-0.4-0.4v0
		c0-0.1,0-1.6,0-1.6c0-0.2,0.2-0.4,0.4-0.4h0.8c0.2,0,0.4,0.1,0.4,0.4V43.4z M31.1,43.4c0,0.2-0.2,0.4-0.4,0.4h-0.8
		c-0.2,0-0.4-0.2-0.4-0.4v-1.6c0-0.2,0.2-0.4,0.4-0.4h0.8c0.2,0,0.4,0.1,0.4,0.4V43.4z M33.4,43.4c0,0.2-0.2,0.4-0.4,0.4h-0.8
		c-0.2,0-0.4-0.2-0.4-0.4v-1.6c0-0.2,0.2-0.4,0.4-0.4H33c0.2,0,0.4,0.1,0.4,0.4V43.4z M38.1,43.4c0,0.2-0.1,0.4-0.3,0.4h-0.8
		c-0.2,0-0.4-0.2-0.4-0.4v-1.6c0-0.2,0.2-0.4,0.4-0.4h0.8c0.2,0,0.3,0.1,0.3,0.4V43.4z M40.6,43.4c0,0.2-0.2,0.4-0.4,0.4h-0.8
		c-0.2,0-0.4-0.2-0.4-0.4v0c0-0.1,0-1.6,0-1.6c0-0.2,0.2-0.4,0.4-0.4h0.8c0.2,0,0.4,0.1,0.4,0.4V43.4z M42.8,43.4
		c0,0.2-0.2,0.4-0.4,0.4h-0.8c-0.2,0-0.4-0.2-0.4-0.4v-1.6c0-0.2,0.2-0.4,0.4-0.4h0.8c0.2,0,0.4,0.1,0.4,0.4V43.4z M45.2,43.4
		c0,0.2-0.2,0.4-0.4,0.4h-0.8c-0.2,0-0.4-0.2-0.4-0.4v-1.6c0-0.2,0.2-0.4,0.4-0.4h0.8c0.2,0,0.4,0.1,0.4,0.4V43.4z M49.8,43.4
		c0,0.2-0.2,0.4-0.4,0.4h-0.8c-0.2,0-0.4-0.2-0.4-0.4v-1.6c0-0.2,0.1-0.4,0.4-0.4h0.8c0.2,0,0.4,0.1,0.4,0.4V43.4z M52.3,43.4
		c0,0.2-0.2,0.4-0.4,0.4H51c-0.2,0-0.4-0.2-0.4-0.4v-1.6c0-0.2,0.2-0.4,0.4-0.4h0.8c0.2,0,0.4,0.1,0.4,0.4V43.4z M54.5,43.4
		c0,0.2-0.2,0.4-0.4,0.4h-0.8c-0.2,0-0.4-0.2-0.4-0.4v-1.6c0-0.2,0.2-0.4,0.4-0.4h0.8c0.2,0,0.4,0.1,0.4,0.4
		C54.5,41.8,54.6,43.3,54.5,43.4z M56.9,43.4c0,0.2-0.2,0.4-0.4,0.4h-0.8c-0.2,0-0.4-0.2-0.4-0.4v-1.6c0-0.2,0.2-0.4,0.4-0.4h0.8
		c0.2,0,0.4,0.1,0.4,0.4V43.4z M52.3,31.3c-1.2,0-2.3-0.4-3.3-1.2c-2.7,2.2-6.3,1.1-7.4-1.7c-1.2-2.8,0.6-6.1,3.6-6.5
		c1.3-0.2,2.5,0.1,3.5,0.9c0.2,0.2,0.4,0.2,0.6,0c2.9-2.2,6.9-0.5,7.5,3.1C57.3,28.6,55,31.2,52.3,31.3z"/>
	<path d="M29,17.2c0.4,0,0.6-0.1,0.9-0.4c4.5-4.5,9.1-9.1,13.6-13.6c0.1-0.1,0.2-0.2,0.4-0.4c-0.5-0.5-1.1-1-1.6-1.5
		c-1.7-1.7-3.9-1.7-5.6,0c-5.2,5.2-10.4,10.4-15.6,15.6c-0.1,0.1-0.2,0.2-0.3,0.4c0.2,0,0.4,0,0.6,0C23.9,17.2,26.4,17.2,29,17.2z"
		/>
	<path d="M58,17.2c-3.5-3.5-7-7-10.5-10.5c-3.5,3.5-7,7-10.5,10.5C44,17.2,51,17.2,58,17.2z"/>
</g>
</svg>
