<?xml version="1.0" encoding="utf-8"?>
<!-- Generator: Adobe Illustrator 16.0.0, SVG Export Plug-In . SVG Version: 6.00 Build 0)  -->
<!DOCTYPE svg PUBLIC "-//W3C//DTD SVG 1.1//EN" "http://www.w3.org/Graphics/SVG/1.1/DTD/svg11.dtd">
<svg version="1.1" id="Camada_1" xmlns="http://www.w3.org/2000/svg" xmlns:xlink="http://www.w3.org/1999/xlink" x="0px" y="0px"
	 width="50.1px" height="50px" viewBox="9.9 0.8 50.1 50" enable-background="new 9.9 0.8 50.1 50" xml:space="preserve">
<g id="aFXCiL.tif_1_">
	<g>
		<path d="M60.1,25c0,0.6,0,1.1,0,1.7c0,0.2-0.1,0.3-0.1,0.5c-0.2,1.4-0.3,2.9-0.6,4.2c-3.2,13.4-16.1,21.7-29.5,18.9
			C18.8,48,10.5,38.5,10,26.8c-0.2-3.4,0.4-6.8,1.7-10c4.4-11.2,16-17.7,27.8-15.6c6.3,1.1,11.4,4.3,15.3,9.4
			c2.8,3.6,4.5,7.7,5,12.2C59.9,23.5,60,24.2,60.1,25z"/>
		<g>
			<path fill="#FFFFFF" d="M34.1,36C34.1,36,34,36,34.1,36l0,0.6c0,0,0,0,0-0.1c0-0.1,0-0.2,0-0.2C34.1,36.2,34.1,36.1,34.1,36z"/>
			<path fill="#FFFFFF" d="M30.6,35.6H31C30.9,35.5,30.7,35.5,30.6,35.6z"/>
			<path fill="#FFFFFF" d="M35.9,36.3L35.9,36.3C35.9,36.3,35.9,36.3,35.9,36.3z"/>
			<path fill="#FFFFFF" d="M23.3,36.1c0,0.1,0,0.1,0,0.2c0,0.1-0.1,0.3-0.1,0.4c0,0-0.1,0-0.1,0L23.3,36.1
				C23.2,36,23.3,36.1,23.3,36.1z"/>
			<path fill="#FFFFFF" d="M25.7,36c0-0.1,0-0.1,0-0.1c0,0,0,0,0,0v1c0,0,0,0,0,0c0-0.1,0-0.1,0-0.2c0-0.1,0-0.2,0-0.2
				C25.7,36.2,25.7,36.1,25.7,36z"/>
			<path fill="#FFFFFF" d="M29,36.6v-0.2C29,36.5,29,36.5,29,36.6z"/>
			<path fill="#FFFFFF" d="M27,35.8v0.8c0,0,0,0,0-0.1C27,36.3,27.1,36.1,27,35.8z"/>
			<path fill="#FFFFFF" d="M26.4,35.6h0.3C26.7,35.5,26.5,35.5,26.4,35.6z"/>
			<path fill="#FFFFFF" d="M26.8,37.1h-0.4C26.5,37.1,26.7,37.1,26.8,37.1z"/>
			<path fill="#FFFFFF" d="M23.7,35.6H24C23.9,35.5,23.7,35.5,23.7,35.6z"/>
			<path fill="#FFFFFF" d="M43.8,35.9v0.4C43.8,36.2,43.9,36,43.8,35.9z"/>
			<path fill="#FFFFFF" d="M43.6,37.1h-0.4C43.3,37.1,43.5,37.1,43.6,37.1z"/>
			<path fill="#FFFFFF" d="M43.3,35.6h0.3C43.5,35.5,43.4,35.5,43.3,35.6z"/>
			<path fill="#FFFFFF" d="M41.1,36.1C41.1,36.1,41.1,36,41.1,36.1l0,0.5C41.1,36.5,41.1,36.3,41.1,36.1z"/>
			<path fill="#FFFFFF" d="M50,24.3c0-1.3-1-2.3-2.3-2.3c-8.4,0-16.8,0-25.2,0c-1.3,0-2.3,1-2.4,1.9c0,0-0.1,0-0.1,0.1
				c0,4.9,0,9.8,0,14.7c0.1,0.6,0.4,1.1,0.9,1.5c0.4,0.3,0.8,0.4,1.2,0.5c8.6,0,17.2,0,25.8,0c0.5-0.1,0.9-0.3,1.3-0.6
				c0.5-0.5,0.8-1.1,0.8-1.7C50,33.8,50,29.1,50,24.3z M22.8,36.9c0,0.1-0.1,0.2-0.2,0.2h-0.5c-0.1,0-0.2-0.1-0.2-0.2v-1
				c0-0.1,0.1-0.2,0.2-0.2h0.5c0.1,0,0.2,0.1,0.2,0.2V36.9z M24.2,36.8c0,0.1,0,0.3-0.2,0.3h-0.4c-0.1,0-0.4-0.2-0.4-0.3v-0.9
				c0-0.1,0.2-0.2,0.4-0.2H24c0.1,0,0.2,0.1,0.2,0.2V36.8z M25.7,36.8c0,0.1-0.1,0.3-0.2,0.3h-0.5c-0.1,0-0.3-0.2-0.3-0.3v-1
				c0-0.1,0.1-0.2,0.3-0.2h0.5c0.1,0,0.2,0.1,0.2,0.2C25.7,35.9,25.7,36.8,25.7,36.8z M27,36.8c0,0.1-0.1,0.3-0.2,0.3h-0.5
				c-0.1,0-0.3-0.2-0.3-0.3v-0.9c0-0.1,0.2-0.2,0.3-0.2h0.5c0.1,0,0.2,0.1,0.2,0.2V36.8z M29.7,37.1h-0.5c-0.1,0-0.2-0.2-0.2-0.3
				v-0.9c0-0.1,0.1-0.2,0.2-0.2h0.5c0.1,0,0.1,0.1,0.1,0.2v0.9C29.8,36.9,29.9,37.1,29.7,37.1z M31.3,36.8c0,0.1-0.1,0.3-0.2,0.3
				h-0.5c-0.1,0-0.3-0.2-0.3-0.3v0c0,0,0-1,0-1c0-0.1,0.1-0.2,0.3-0.2h0.5c0.1,0,0.2,0.1,0.2,0.2V36.8z M32.6,36.8
				c0,0.1,0,0.3-0.2,0.3h-0.5c-0.1,0-0.3-0.2-0.3-0.3v-0.9c0-0.1,0.2-0.2,0.3-0.2h0.5c0.1,0,0.2,0.1,0.2,0.2V36.8z M33.9,36.8
				c0,0.1,0,0.3-0.1,0.3h-0.5c-0.1,0-0.2-0.2-0.2-0.3v-0.9c0-0.1,0.1-0.2,0.2-0.2h0.5c0.1,0,0.1,0.1,0.1,0.2V36.8z M36.9,36.8
				c0,0.1,0,0.3-0.2,0.3h-0.5c-0.1,0-0.3-0.2-0.3-0.3v-0.9c0-0.1,0.2-0.2,0.3-0.2h0.5c0.1,0,0.2,0.1,0.2,0.2V36.8z M38.3,36.8
				c0,0.1-0.1,0.3-0.2,0.3h-0.5c-0.1,0-0.4-0.2-0.4-0.3v0c0,0,0-1,0-1c0-0.1,0.3-0.2,0.4-0.2h0.5c0.1,0,0.2,0.1,0.2,0.2V36.8z
				 M39.7,36.8c0,0.1-0.1,0.3-0.2,0.3H39c-0.1,0-0.3-0.2-0.3-0.3v-0.9c0-0.1,0.1-0.2,0.3-0.2h0.5c0.1,0,0.2,0.1,0.2,0.2V36.8z
				 M41.1,36.8c0,0.1-0.1,0.3-0.2,0.3h-0.5c-0.1,0-0.3-0.2-0.3-0.3v-0.9c0-0.1,0.2-0.2,0.3-0.2h0.5c0.1,0,0.2,0.1,0.2,0.2V36.8z
				 M43.9,36.8c0,0.1,0,0.3-0.1,0.3h-0.5c-0.1,0-0.3-0.2-0.3-0.3v-0.9c0-0.1,0.2-0.2,0.3-0.2h0.5c0.1,0,0.1,0.1,0.1,0.2V36.8z
				 M45.4,36.8c0,0.1-0.1,0.3-0.2,0.3h-0.4c-0.1,0-0.3-0.2-0.3-0.3v-0.9c0-0.1,0.1-0.2,0.3-0.2h0.4c0.1,0,0.2,0.1,0.2,0.2V36.8z
				 M46.7,36.8c0,0.1-0.1,0.3-0.3,0.3H46c-0.1,0-0.3-0.2-0.3-0.3v-1c0-0.1,0.2-0.2,0.3-0.2h0.5c0.1,0,0.3,0.1,0.3,0.2
				C46.7,35.9,46.7,36.8,46.7,36.8z M47.9,36.8c0,0.1,0,0.3-0.1,0.3h-0.5c-0.1,0-0.2-0.2-0.2-0.3v-0.9c0-0.1,0.1-0.2,0.2-0.2h0.5
				c0.1,0,0.1,0.1,0.1,0.2V36.8z M48,27.4c0,0.1,0,0.2-0.1,0.2c-0.1,0.3-0.2,0.5-0.4,0.8c-0.5,0.7-1.3,1.1-2.1,1.1
				c-0.1,0-0.2,0-0.3,0c-0.4,0-0.8-0.1-1.2-0.3c-0.2-0.1-0.4-0.2-0.5-0.4c-0.1,0.1-0.2,0.2-0.3,0.2c-0.2,0.1-0.4,0.2-0.6,0.3
				c-0.1,0-0.2,0.1-0.3,0.1c-0.3,0.1-0.6,0.1-1,0c0,0,0,0,0,0c-0.9-0.1-1.8-0.8-2.2-1.7c-0.2-0.4-0.2-0.8-0.2-1.1c0-0.1,0-0.2,0-0.3
				c0.1-1,0.8-1.9,1.7-2.3c0.2-0.1,0.3-0.1,0.5-0.1c0.1,0,0.1,0,0.2,0c0.2,0,0.4,0,0.6,0c0,0,0.1,0,0.1,0c0.1,0,0.2,0,0.3,0
				c0.2,0,0.5,0.1,0.7,0.2c0.2,0.1,0.3,0.2,0.4,0.3c0.1,0.1,0.2,0.1,0.3,0.1c0,0,0,0,0.1,0c0.4-0.3,0.9-0.5,1.4-0.6
				c0.1,0,0.1,0,0.2,0c0.1,0,0.1,0,0.2,0c1.3,0,2.5,0.9,2.7,2.4c0,0.2,0,0.3,0,0.4C48.1,27,48.1,27.2,48,27.4z"/>
			<path fill="#FFFFFF" d="M31.4,21.2c0.2,0,0.4-0.1,0.5-0.2c2.7-2.7,5.4-5.4,8.1-8.1c0.1-0.1,0.1-0.1,0.2-0.3
				c-0.3-0.3-0.6-0.6-1-0.9c-1-1-2.4-1-3.4,0c-3.1,3.1-6.2,6.3-9.3,9.4c-0.1,0.1-0.1,0.1-0.2,0.3c0.1,0,0.2,0,0.3,0
				C28.4,21.2,29.9,21.2,31.4,21.2z"/>
			<path fill="#FFFFFF" d="M48.8,21.2c-2.1-2.2-4.2-4.2-6.3-6.3c-2.1,2.1-4.2,4.1-6.3,6.3C40.4,21.2,44.6,21.2,48.8,21.2z"/>
		</g>
	</g>
</g>
</svg>
