<?xml version="1.0" encoding="utf-8"?>
<!-- Generator: Adobe Illustrator 16.0.0, SVG Export Plug-In . SVG Version: 6.00 Build 0)  -->
<!DOCTYPE svg PUBLIC "-//W3C//DTD SVG 1.1//EN" "http://www.w3.org/Graphics/SVG/1.1/DTD/svg11.dtd">
<svg version="1.1" id="Camada_1" xmlns="http://www.w3.org/2000/svg" xmlns:xlink="http://www.w3.org/1999/xlink" x="0px" y="0px"
	 width="54.9px" height="50px" viewBox="7.5 0 54.9 50" enable-background="new 7.5 0 54.9 50" xml:space="preserve">
<g id="F9s7mA.tif">
	<g>
		<path d="M62.4,50C44,50,26.1,50,7.6,50c0-3.3-0.1-6.4,0.1-9.4c0-0.7,0.8-1.6,1.5-2c5.5-2.7,10.9-5.5,16.5-7.7
			c2.6-1,2.8-2.3,1.9-4.4c-1.1-2.9-2.8-5.2-3.2-8.2c-0.4-3.6-1.2-7.4-0.2-10.9C25.5,3,30.1,0,34.9,0c4.9,0,8.2,2.6,10.2,6.9
			c1.9,4.2,1.8,8.5,0.2,12.7c-0.8,2.2-1.6,4.3-2.5,6.4c-1,2.4-0.8,3.9,2.1,5c5.1,1.8,10,4.1,14.9,6.2c1.9,0.8,2.9,1.9,2.7,4.2
			C62.2,44.2,62.4,47,62.4,50z"/>
	</g>
</g>
</svg>
