<?xml version="1.0" encoding="utf-8"?>
<!-- Generator: Adobe Illustrator 16.0.0, SVG Export Plug-In . SVG Version: 6.00 Build 0)  -->
<!DOCTYPE svg PUBLIC "-//W3C//DTD SVG 1.1//EN" "http://www.w3.org/Graphics/SVG/1.1/DTD/svg11.dtd">
<svg version="1.1" id="Camada_1" xmlns="http://www.w3.org/2000/svg" xmlns:xlink="http://www.w3.org/1999/xlink" x="0px" y="0px"
	 width="50px" height="50px" viewBox="10 0 50 50" enable-background="new 10 0 50 50" xml:space="preserve">
<path d="M57.1,19.6H40.4V3c0-1.7-1.1-3-2.5-3h-5.6c-1.4,0-2.6,1.3-2.6,3v16.7H13.1c-1.7,0-3.1,1.1-3.1,2.6v5.6
	c0,1.4,1.4,2.6,3.1,2.6h16.5V47c0,1.7,1.2,3,2.6,3h5.6c1.4,0,2.5-1.4,2.5-3V30.4h16.7c1.7,0,2.9-1.1,2.9-2.6v-5.6
	C60,20.8,58.8,19.6,57.1,19.6z"/>
</svg>
