<?xml version="1.0" encoding="utf-8"?>
<!-- Generator: Adobe Illustrator 16.0.0, SVG Export Plug-In . SVG Version: 6.00 Build 0)  -->
<!DOCTYPE svg PUBLIC "-//W3C//DTD SVG 1.0//EN" "http://www.w3.org/TR/2001/REC-SVG-20010904/DTD/svg10.dtd">
<svg version="1.0" id="Layer_1" xmlns="http://www.w3.org/2000/svg" xmlns:xlink="http://www.w3.org/1999/xlink" x="0px" y="0px"
	 width="100px" height="100px" viewBox="0 0 100 100" enable-background="new 0 0 100 100" xml:space="preserve">
<g>
	<path fill-rule="evenodd" clip-rule="evenodd" fill="#263C70" d="M98.097,65.588c-0.568,0.953-1.023,2.004-1.734,2.834
		c-0.84,0.98-2.075,1.424-3.366,1.438c-3.538,0.037-7.076,0.012-10.615,0.006c-0.086,0-0.172-0.049-0.348-0.102
		c0-6.145,0-12.301,0-18.543c-21.364,0-42.635,0-64.034,0c0,6.176,0,12.354,0,18.592c-0.392,0.027-0.661,0.062-0.931,0.062
		c-3.194,0.004-6.389,0.008-9.582,0c-3.345-0.01-5.583-2.26-5.583-5.598c-0.001-6.262-0.002-12.525,0-18.79
		c0.002-7.723,6.06-14.659,13.711-15.57c2.01-0.238,4.06-0.146,6.092-0.202c0.368-0.011,0.736-0.001,1.213-0.001
		c0-0.467,0-0.832,0-1.199c0.001-4.885-0.006-9.77,0.004-14.655c0.008-3.269,2.285-5.542,5.56-5.543
		c11.618-0.006,23.236-0.002,34.854,0c1.578,0,2.927,0.562,4.046,1.68c2.325,2.324,4.644,4.655,6.984,6.965
		c1.387,1.368,2.105,2.977,2.073,4.949c-0.043,2.562-0.011,5.123-0.011,7.807c0.509,0,0.937-0.003,1.363,0.001
		c2.849,0.025,5.714-0.137,8.541,0.122c5.28,0.482,8.663,3.572,10.48,8.425c0.521,1.391,0.739,2.896,1.099,4.35
		c0.052,0.206,0.122,0.407,0.184,0.611C98.097,50.679,98.097,58.133,98.097,65.588z M71.023,29.677c0-2.734,0.012-5.358-0.019-7.982
		c-0.003-0.264-0.209-0.576-0.408-0.779c-2.222-2.249-4.448-4.492-6.708-6.702c-0.272-0.266-0.748-0.457-1.129-0.458
		c-11.111-0.025-22.222-0.022-33.333-0.024c-0.334,0-0.668,0-1.027,0c0,5.393,0,10.658,0,15.945
		C42.615,29.677,56.753,29.677,71.023,29.677z M82.034,45.714c2.93,0.016,5.335-2.354,5.344-5.266
		c0.01-2.916-2.362-5.305-5.291-5.328c-2.92-0.023-5.337,2.369-5.328,5.275C76.769,43.368,79.079,45.697,82.034,45.714z"/>
	<path fill-rule="evenodd" clip-rule="evenodd" fill="#263C70" d="M76.326,56.52c0.02,0.316,0.053,0.592,0.053,0.869
		c0.002,10.238,0.015,20.477-0.006,30.717c-0.007,3.598-2.233,5.797-5.81,5.797c-13.966,0.008-27.932,0.006-41.896,0
		c-3.53-0.002-5.735-2.234-5.734-5.746c0.003-10.178,0-20.354-0.001-30.529c0-0.344,0-0.686,0-1.107
		C40.746,56.52,58.505,56.52,76.326,56.52z M49.679,69.824c6.009,0,12.017,0.002,18.025-0.002c0.374,0,0.753-0.012,1.121-0.074
		c1.781-0.303,2.719-2.201,1.885-3.799c-0.574-1.102-1.541-1.473-2.723-1.473c-7.886,0.002-15.772-0.002-23.658-0.002
		c-4.35-0.002-8.7-0.01-13.05,0.004c-1.785,0.006-2.975,1.1-2.985,2.68c-0.01,1.59,1.211,2.662,3.078,2.664
		C37.475,69.828,43.576,69.824,49.679,69.824z M49.715,80.494c4.287,0,8.575,0.002,12.862,0c1.972,0,3.943,0.025,5.914-0.021
		c1.362-0.031,2.414-1.088,2.538-2.428c0.112-1.213-0.72-2.395-1.973-2.73c-0.415-0.111-0.863-0.139-1.296-0.139
		c-8.199-0.008-16.398-0.006-24.598-0.006c-4.006,0.002-8.012-0.01-12.018,0.012c-1.93,0.01-3.14,1.459-2.779,3.258
		c0.261,1.299,1.325,2.053,2.947,2.055C37.447,80.498,43.581,80.496,49.715,80.494z"/>
	<path fill-rule="evenodd" clip-rule="evenodd" fill="#263C70" d="M82.034,45.714c-2.955-0.018-5.266-2.347-5.275-5.318
		c-0.009-2.906,2.408-5.299,5.328-5.275c2.929,0.023,5.301,2.412,5.291,5.328C87.369,43.361,84.964,45.73,82.034,45.714z"/>
</g>
</svg>
