<?xml version="1.0" encoding="utf-8"?>
<!-- Generator: Adobe Illustrator 18.1.1, SVG Export Plug-In . SVG Version: 6.00 Build 0)  -->
<!DOCTYPE svg PUBLIC "-//W3C//DTD SVG 1.0//EN" "http://www.w3.org/TR/2001/REC-SVG-20010904/DTD/svg10.dtd">
<svg version="1.0" id="Camada_1" xmlns="http://www.w3.org/2000/svg" xmlns:xlink="http://www.w3.org/1999/xlink" x="0px" y="0px"
	 viewBox="0 0 508.618 508.82" enable-background="new 0 0 508.618 508.82" xml:space="preserve">
<g id="pQzWRy.tif">
	<g>
		<path d="M312.494,82.559c0.526,8.94,1.001,17.701,1.582,26.454c0.154,2.313,0.518,4.627,0.981,6.901
			c2.009,9.853,1.193,18.858-2.369,28.822c-7.994,22.361,6.164,45.907,29.402,52.251c21.745,5.937,45.075-8.087,50.545-30.812
			c3.481-14.461,0.087-27.721-10.547-38.081c-4.667-4.547-7.024-9.079-7.556-15.288c-0.717-8.372-1.909-16.703-3.011-26.02
			c8.003,0.926,14.867,1.663,21.713,2.536c3.292,0.42,6.552,1.089,9.824,1.656c9.339,1.618,13.664,5.475,14.893,14.762
			c2.289,17.296,4.375,34.629,6.05,51.995c1.837,19.044,3.76,38.119,4.451,57.224c0.666,18.432,0.111,36.931-0.625,55.372
			c-0.154,3.85-2.601,8.412-5.41,11.234c-71.484,71.82-143.141,143.468-214.811,215.103c-16.302,16.295-36.469,16.175-52.851-0.195
			c-47.509-47.476-95.004-94.966-142.477-142.479c-16.358-16.372-16.379-36.456-0.03-52.814
			c71.514-71.553,143.034-143.101,214.698-214.503c2.357-2.349,6.274-4.377,9.492-4.42c24.971-0.327,49.948-0.132,74.924-0.074
			C311.818,82.184,312.271,82.481,312.494,82.559z M262.689,234.626c-11.075-7.073-21.609-11.298-33.685-11.811
			c-22.552-0.958-43.97,18.062-44.8,40.586c-0.451,12.244,3.651,23.463,8.328,34.546c3.731,8.841,7.387,17.733,10.55,26.786
			c2.482,7.103,0.869,13.703-5.471,18.171c-6.054,4.267-12.349,2.568-18.291-0.749c-8.054-4.496-14.283-11.082-18.948-18.814
			c-5.352-8.872-9.8-18.29-14.779-27.731c-7.839,4.628-16.329,9.515-24.63,14.705c-0.972,0.608-1.672,3.22-1.187,4.328
			c2.788,6.366,5.537,12.823,9.137,18.739c3.936,6.469,8.781,12.384,13.89,19.454c-6.027,5.541-12.116,11.138-17.678,16.251
			c6.618,6.56,12.709,12.597,19.187,19.018c4.456-4.569,9.558-9.377,14.136-14.64c3.071-3.531,5.387-3.929,9.495-1.267
			c11.317,7.333,23.7,10.543,37.42,8.99c18.697-2.117,37.708-20.622,39.684-39.377c1.259-11.947-1.951-23.011-6.383-33.892
			c-4.189-10.283-8.739-20.465-12.129-31.014c-3.079-9.582,0.767-17.14,9.021-18.276c3.894-0.536,9.124,0.52,12.075,2.917
			c6.499,5.279,12.629,11.353,17.606,18.068c4.76,6.423,7.869,14.069,11.847,21.445c8.621-5.007,17.473-10.149,26.417-15.344
			c-4.44-13.334-12.267-23.962-21.909-34.954c5.892-5.557,11.419-10.768,16.329-15.399c-6.101-6.175-12.035-12.182-18.372-18.595
			C274.119,222.521,268.439,228.537,262.689,234.626z"/>
		<path d="M508.618,113.458c-0.624,30.649-6.6,59.894-20.062,87.504c-5.016,10.288-9.546,20.815-14.676,31.043
			c-2.725,5.431-7.546,8.326-13.816,8.156c-6.075-0.165-10.392-3.229-12.966-8.614c-2.344-4.904-1.463-9.847,0.996-14.365
			c14.037-25.797,22.91-53.369,27.348-82.264c3.104-20.216,5.505-40.689-0.436-60.876c-8.552-29.061-31.429-45.191-61.71-43.906
			c-26.956,1.145-52.144,24.978-55.348,51.694c-1.783,14.864,1.6,29.134,3.652,43.564c1.33,9.351,3.522,18.578,5.244,27.876
			c1.429,7.713-3.929,16.228-11.06,17.758c-8.719,1.87-17.008-3.533-18.55-13.087c-3.516-21.786-8.054-43.564-9.353-65.512
			c-1.677-28.341,9.918-52.266,31.489-70.789c36.445-31.294,90.51-28.265,123.517,6.591c13.284,14.028,19.017,31.526,22.022,49.984
			C506.804,89.857,507.425,101.704,508.618,113.458z"/>
	</g>
</g>
</svg>
