<?xml version="1.0" encoding="utf-8"?>
<!-- Generator: Adobe Illustrator 16.0.0, SVG Export Plug-In . SVG Version: 6.00 Build 0)  -->
<!DOCTYPE svg PUBLIC "-//W3C//DTD SVG 1.1//EN" "http://www.w3.org/Graphics/SVG/1.1/DTD/svg11.dtd">
<svg version="1.1" id="Camada_1" xmlns="http://www.w3.org/2000/svg" xmlns:xlink="http://www.w3.org/1999/xlink" x="0px" y="0px"
	 width="100px" height="107.3px" viewBox="0 0 100 107.3" enable-background="new 0 0 100 107.3" xml:space="preserve">
<g>
	<path d="M30.9,39.9c0.7,0.5,0.5,1.3,0.8,2.1c1.2,3.7,3.3,7.1,5.3,10.1v4.1c0,2.1-0.2,4.1-1.1,5.8l14.2,15.6l13.6-15.6
		c-0.9-1.8-1.7-3.8-1.7-5.9v-4c3-3.3,5.1-7.2,6.3-11.3c0.1-0.7,1-1,1.4-1.5c2.4-2.4,2.9-6.4,1.1-9.3c-0.2-0.4-0.6-0.8-0.6-1.4
		c0-3.7,0-7.3,0-11c-0.1-4.4-1.3-9-4.5-12.3c-2.5-2.6-5.9-4.2-9.5-4.9c-4.5-0.9-9.2-0.8-13.6,0.3c-3.8,1-7.5,3.2-9.7,6.6
		c-2,2.9-2.8,6.4-3,9.9c-0.1,3.7,0,7.5,0,11.2c0.1,0.7-0.6,1.3-0.8,1.9C27.5,33.5,28.2,37.7,30.9,39.9z"/>
	<path d="M81.4,68.3h-6.3c-0.6,0-1.3,0.2-1.9,0.1l-8.9,15.1l-4.8-11.1l-9.3,8.6l-9.7-8.6l-5,11.2l-8.8-15.1
		c-0.5,0.1-1.1-0.1-1.6-0.1h-6.3c0,0-11.4,3.6-18.9,19.2V101c0,3.5,2.9,6.3,6.4,6.3h87.5c3.5,0,6.1-2.9,6.1-6.3V87.5
		C92.8,71.9,81.4,68.3,81.4,68.3z M61.9,98L61.9,98l-0.1,0.2l-0.1,0.1l-0.1,0.1l-0.1,0.1l-0.1,0.1l-0.1,0.1l-0.1,0.1l-0.1,0.1
		l-0.1,0l-0.1,0l-0.1,0.1l-0.1,0.1l-0.1,0.1L60.5,99l-0.1,0l-0.1,0l-0.1,0l-0.1,0l-0.1,0l-0.1,0l-0.1,0l-0.1,0l-0.1,0l-0.1,0l-0.1,0
		l-0.1,0l-0.2,0l-0.2,0l-0.2,0l-0.2,0l-0.2,0l-0.2,0l-0.2,0l-0.2,0L57.3,99L57.2,99L57,98.9l-0.1-0.1l-0.1-0.1l-0.1-0.1l-0.1-0.1
		l-0.1-0.1l-0.1-0.1l-0.1-0.1L56,98.2l-0.1-0.1L55.8,98l-0.1-0.1l-0.1-0.1l-0.1-0.1l-0.1-0.1l-0.1-0.1l-0.1-0.2l0-0.2l0-0.2l0-0.2
		l0-0.2l0-0.2l0-0.2l0-0.2l0-0.2l0-0.2l0.1-0.2l0.1-0.2l0.1-0.2l0.1-0.2l0.1-0.2l0.1-0.2l0.1-0.2l0.1-0.2l0.1-0.2l0.1-0.2l0.2-0.1
		l0.2-0.1l0.2-0.1l0.2-0.1l0.2-0.1l0.2-0.1l0.2-0.1l0.2-0.1l0.2-0.1l0.2-0.1l0.2-0.1l0.2-0.1l0.2-0.1l0.2,0l0.2,0l0.2,0l0.2,0l0.2,0
		l0.1,0l0.1,0l0.1,0l0.1,0l0.1,0l0.1,0l0.1,0l0.1,0l0.1,0l0.1,0l0.1,0l0.1,0l0.1,0.1l0.1,0.1l0.1,0.1l0.1,0.1l0.1,0l0.1,0l0.1,0
		l0.1,0l0.1,0l0.1,0l0.1,0l0.1,0l0,0l0,0l0,0l0,0l0,0l0,0l0,0v0l-0.1,0.6l0,0.1l0,0.1l0,0.1l0,0.1l-0.1,0.1l-0.1,0.1l-0.1,0.1
		l-0.2,0l-0.1,0l-0.1,0l-0.1-0.1l-0.1-0.1l0-0.1l0-0.1l-0.1-0.1l0-0.1l0-0.1l0-0.1l0-0.1l0-0.1l0-0.1l0-0.1l0-0.1l0-0.1l0-0.1l0-0.1
		l0-0.1l0-0.1l0-0.1l-0.1-0.1l-0.1-0.1L61,93.2l-0.1,0l-0.1,0l-0.1,0l-0.1,0l-0.1,0l-0.1,0l-0.1,0l-0.1,0l-0.1,0l-0.1,0l-0.1,0
		l-0.1,0.2L60,93.3h-0.1l-0.2-0.2L59.6,93l-0.2,0l-0.1,0l-0.1,0L59,93.1l-0.1,0.1l-0.1,0.1l-0.1,0.1l-0.1,0.1l-0.1,0.1l-0.1,0.1
		l-0.1,0.1l-0.1,0.1L58,94l-0.1,0.1l-0.1,0.1l-0.1,0.1l-0.1,0.1l-0.1,0.1l-0.1,0.1l-0.1,0.1l0,0.1l0,0.1l0,0.1l0,0.1l0,0.1l0,0.1
		l0,0.1l0,0.1l0,0.1l0,0.1v0.1l0,0.1l0,0.1l0,0.1l0,0.1l0,0.1l0,0.1l0,0.1l0,0.1l0,0.1l0,0.1l0,0.1l0,0.1l0,0.1l0,0.1l0.1,0.1
		l0.1,0.1l0.1,0.1l0.1,0.1l0.1,0.1l0.1,0.1l0.1,0.1l0.1,0.1l0.1,0l0.1,0l0.1,0l0.1,0l0.1,0l0.1,0l0.1,0l0.1,0l0.1,0l0.2,0l0.2,0
		l0.2,0l0.1,0l0.1,0l0.1,0l0.1-0.1l0.1-0.1l0.1-0.1l0.1-0.1l0.1-0.1l0.1-0.1l0.1-0.1l0.1-0.1l0.1-0.1l0.1-0.1l0,0l0.1-0.1l0,0l0,0
		l0,0l0,0l0,0l0.1,0l0.1,0l0.1,0l0.1,0l0,0.1l0,0.1l0,0.1l0,0.1l0,0.1l0,0.1l0,0.1L61.9,98L61.9,98z M63.8,99.2h-1.6
		c-0.1,0-0.2,0-0.2-0.1s0.1-0.1,0.2-0.1h1.6c0.1,0,0.2,0,0.2,0.1S63.9,99.2,63.8,99.2z M66.6,98.7l-0.2,0.2l0,0.1l0,0.1l0,0l0,0
		l-0.1,0l-0.1,0l-0.1,0l-0.1,0l-0.1,0l-0.1,0l-0.1,0l-0.1,0l-0.1,0l-0.1,0l-0.1,0l-0.1,0l-0.1,0l-0.1,0l-0.1,0l-0.1,0l-0.1,0l0,0
		l0-0.1l0-0.1l0-0.1l0-0.1l0-0.1l0-0.1l0-0.1l-0.1-0.1l-0.1-0.1l-0.1-0.1l-0.1-0.1l-0.1-0.1l0-0.1l-0.1-0.3l0-0.1l0-0.1l0-0.1l0-0.1
		L64,96.7l0-0.1l0-0.1l-0.1-0.3l0-0.1l-0.1-0.3l-0.1-0.3l-0.1-0.3l0-0.3l0-0.1l0-0.3l0-0.2l-0.1-0.6l0-0.2l0-0.1l0-0.1l0-0.1l0-0.1
		l0-0.1l-0.1-0.1l0,0l0,0l0,0l0,0l0,0l0,0l0,0l0-0.1l0-0.1l0-0.1l0.1-0.1l0.1,0l0.1,0l0.1,0l0.1,0l0.1,0h1.7l0.1,0l0.1,0l0.1,0
		l0.1,0l0.1,0l0.1,0.1l0,0.1l0,0.1l0,0.1l-0.1,0.1l-0.1,0.1L65.6,93L65.4,93l-0.1,0.1l-0.1,0.2l0,0.2l0,0.1l0,0.1l0,0.1l0,0.1l0,0.1
		l0,0.1l0,0.1l0,0.1l0,0.1l0,0.1l0,0.1l0,0.1l0,0.1l0.1,0.3l0,0.1l0,0.1l0.1,0.3l0,0.1l0,0.1l0,0.1l0,0.1l0,0.1l0,0.1l0,0.1l0.1,0.1
		l0.1,0.1l0.1,0.1l0.1,0.1l0.1,0.1l0.1,0.1l1.3-2l0.2-0.4l0.1-0.2l0.1-0.2l0.2-0.4l0.1-0.2l0.1-0.2l0.1-0.2l0.1-0.2l0.1-0.2l0.1-0.1
		l0-0.1l0-0.1l0-0.1l0-0.1l0-0.1l0,0l0,0l0,0l-0.1,0l-0.1,0l-0.1,0l-0.1-0.1l0,0l0,0l0,0l0,0l0,0l0-0.1l0-0.1l0-0.1l0.1-0.1l0.1-0.1
		l0.1,0l0.1,0l0.1-0.1l0.1,0h1.2l0.1,0l0.1,0l0.1,0l0.1,0l0.1,0l0,0.1l0,0.1l0,0.1l0,0.1l0,0.1l0,0l0,0l0,0l0,0l-0.1,0l-0.1,0
		L70,93.1l0,0l0,0l0,0l0,0l0,0l-0.3,0.6l-1.8,3.3L66.6,98.7z M76.9,94l0,0.1l0,0.1l0,0.1l-0.1,0.1l-0.1,0.1l-0.1,0.1l-0.2,0l-0.1,0
		l-0.1,0l-0.1-0.1l0-0.1l0-0.1l0-0.1l-0.1-0.1l0-0.1l0-0.1l0-0.1l0-0.1l0-0.1l0-0.1l0-0.1l0-0.1l0-0.1l0-0.1l0-0.1l0-0.1l0-0.1
		l0-0.1l-0.1-0.1l-0.1-0.1l-0.1-0.1l-0.1,0l-0.1,0l-0.1,0l-0.1,0l-0.1,0l-0.1,0l-0.1,0l-0.1,0l-0.1,0l-0.1,0l-0.1,0l-0.1,0.2
		l-0.1,0.2h-0.1L74,93.1L73.9,93l-0.2,0l-0.1,0l-0.1,0l-0.1,0.1l-0.1,0.1L73,93.2l-0.1,0.1l-0.1,0.1l-0.1,0.1l-0.1,0.1l-0.1,0.1
		l-0.1,0.1L72.3,94l-0.1,0.1l-0.1,0.1L72,94.3l-0.1,0.1l-0.1,0.1l-0.1,0.1l-0.1,0.1l0,0.1l0,0.1l0,0.1l0,0.1l0,0.1l0,0.1l0,0.1
		l0,0.1l0,0.1l0,0.1l0,0.1l0,0.1l0,0.1l0,0.1l0,0.1l0,0.1l0,0.1l0,0.1l0,0.1l0,0.1l0,0.1l0,0.1l0,0.1l0,0.1l0,0.1l0.1,0.2l0.1,0.1
		l0.1,0.1l0.1,0.1l0.1,0.1l0.1,0.1l0.1,0.1l0.1,0l0.1,0l0.1,0l0.1,0l0.1,0l0.1,0l0.1,0l0.1,0l0.1,0l0.2,0l0.2,0l0.2,0l0.1,0l0.1,0
		l0.1,0l0.1-0.1l0.1-0.1l0.1-0.1l0.1-0.1l0.1-0.1l0.1-0.1l0.1-0.1l0.1-0.1l0.1-0.1l0.1-0.1l0,0l0.1-0.1l0,0l0,0l0,0l0,0l0.1,0l0.1,0
		l0.1,0l0.1,0l0,0.1l0,0.1l0,0.1l0,0.1l0,0.1l0,0.1l0,0.1l0,0.1L76.2,98l-0.1,0.1L76,98.2L76,98.3l-0.1,0.1l-0.1,0.1l-0.1,0.1
		l-0.1,0.1l-0.1,0.1l-0.1,0l-0.1,0l-0.1,0l-0.1,0.1l-0.1,0.1L75,98.9L74.8,99l-0.1,0l-0.1,0l-0.1,0l-0.1,0l-0.1,0l-0.1,0l-0.1,0
		l-0.1,0l-0.1,0l-0.1,0l-0.1,0l-0.1,0l-0.2,0l-0.2,0l-0.2,0l-0.2,0l-0.2,0l-0.2,0l-0.2,0l-0.2,0L71.6,99L71.5,99l-0.2-0.1l-0.1-0.1
		L71,98.8l-0.1-0.1l-0.1-0.1l-0.1-0.1l-0.1-0.1l-0.1-0.1l-0.1-0.1l-0.1-0.1L70.1,98L70,97.8l-0.1-0.1l-0.1-0.1l-0.1-0.1l-0.1-0.1
		l-0.1-0.2l0-0.2l0-0.2l0-0.2l0-0.2l0-0.2l0-0.2l0-0.2l0-0.2l0-0.2l0.1-0.2l0.1-0.2l0.1-0.2l0.1-0.2l0.1-0.2l0.1-0.2l0.1-0.2
		l0.1-0.2l0.1-0.2l0.1-0.2l0.2-0.1l0.2-0.1l0.2-0.1l0.2-0.1l0.2-0.1l0.2-0.1l0.2-0.1l0.2-0.1l0.2-0.1l0.2-0.1l0.2-0.1l0.2-0.1
		l0.2-0.1l0.2,0l0.2,0l0.2,0l0.2,0l0.2,0l0.1,0l0.1,0l0.1,0l0.1,0l0.1,0l0.1,0l0.1,0l0.1,0l0.1,0l0.1,0l0.1,0l0.1,0l0.1,0.1l0.1,0.1
		l0.1,0.1l0.1,0.1l0.1,0l0.1,0l0.1,0l0.1,0l0.1,0l0.1,0l0.1,0l0,0l0,0l0,0l0,0l0,0l0,0l0.1,0l0.1,0v0L76.9,94z"/>
</g>
</svg>
