<?xml version="1.0" encoding="utf-8"?>
<!-- Generator: Adobe Illustrator 21.0.0, SVG Export Plug-In . SVG Version: 6.00 Build 0)  -->
<svg version="1.1" id="Layer_1" xmlns="http://www.w3.org/2000/svg" xmlns:xlink="http://www.w3.org/1999/xlink" x="0px" y="0px"
	 viewBox="0 0 93 69.6" style="enable-background:new 0 0 93 69.6;" xml:space="preserve">
<style type="text/css">
	.st0{fill:#0087E5;}
	.st1{fill:#263C70;}
	.st2{fill:#FDDA2B;}
</style>
<path d="M6.5,70h5.5V53.5c0-0.7,0.6-1.3,1.3-1.3h7.1c0.7,0,1.3,0.6,1.3,1.3V70h32.3V53.5c0-0.7,0.5-1.3,1.2-1.3h7.1
	c0.7,0,1.3,0.6,1.3,1.3V70h22.7V41.5H6.5V70z M75.9,52.5h5.7v9.9h-5.7V52.5z M68,52.5h5.7v9.9H68V52.5z M34,52.5h5.7v9.9H34V52.5z
	 M26.2,52.5h5.7v9.9h-5.7V52.5z"/>
<path d="M78.7,0H14.5L0,12.6l2.7,2.7l3.8-3.1v25.4h5.5V21.1c0-0.7,0.6-1.4,1.3-1.4h7.1c0.7,0,1.3,0.7,1.3,1.4v16.6h32.3V21.1
	c0-0.7,0.5-1.4,1.2-1.4h7.1c0.7,0,1.3,0.7,1.3,1.4v16.6h22.7V12.2l3.8,3.1l2.7-2.7L78.7,0z M32.1,29.7h-5.7v-9.9h5.7V29.7z
	 M39.9,29.7h-5.7v-9.9h5.7V29.7z M73.9,29.7h-5.7v-9.9h5.7V29.7z M81.7,29.7H76v-9.9h5.7V29.7z"/>
</svg>
