<?xml version="1.0" encoding="utf-8"?>
<!-- Generator: Adobe Illustrator 18.1.1, SVG Export Plug-In . SVG Version: 6.00 Build 0)  -->
<!DOCTYPE svg PUBLIC "-//W3C//DTD SVG 1.0//EN" "http://www.w3.org/TR/2001/REC-SVG-20010904/DTD/svg10.dtd">
<svg version="1.0" id="Camada_1" xmlns="http://www.w3.org/2000/svg" xmlns:xlink="http://www.w3.org/1999/xlink" x="0px" y="0px"
	 viewBox="0 0 469.596 341.572" enable-background="new 0 0 469.596 341.572" xml:space="preserve">
<g id="QHjUvx.tif">
	<g>
		<path d="M469.596,84.572c0,71.333,0,142.667,0,214c-0.278,1.605-0.692,3.201-0.814,4.818
			c-1.341,17.859-10.915,30.006-28.148,35.195c-4.565,1.375-9.353,2.012-14.038,2.987c-128,0-256,0-384,0
			c-0.954-0.263-1.892-0.658-2.864-0.77c-26.214-3.042-39.517-17.144-39.602-43.408C-0.095,227.238,0.03,157.079,0.076,86.922
			C0.084,74.619,2.5,63.121,12.184,54.344c8.952-8.114,19.77-11.559,31.508-11.688c25.327-0.28,50.66-0.137,75.989-0.02
			c3.038,0.014,4.726-0.9,6.261-3.587c5.356-9.374,11.087-18.533,16.575-27.833c4.456-7.552,10.949-11.22,19.732-11.212
			C210.41,0.047,258.57,0.05,306.731,0c8.973-0.009,15.556,3.711,20.077,11.486c5.344,9.191,11.065,18.164,16.314,27.407
			c1.637,2.883,3.451,3.771,6.673,3.751c23.663-0.14,47.327-0.125,70.99-0.032c4.471,0.018,9.019,0.176,13.395,0.996
			c15.963,2.991,28.071,10.988,32.977,27.301C468.481,75.31,468.811,80.01,469.596,84.572z M330.586,181.428
			c0.008-53.288-42.58-96.097-95.797-96.296c-53.018-0.198-96.159,42.811-96.186,95.889c-0.027,53.156,42.871,96.347,95.782,96.436
			C287.309,277.546,330.579,234.353,330.586,181.428z M361.871,127.917c11.757,0.491,21.412-8.443,22.049-20.4
			c0.634-11.901-8.51-21.809-20.63-22.351c-11.828-0.529-21.745,8.854-22.121,20.93C340.805,117.771,349.959,127.42,361.871,127.917
			z"/>
		<path d="M309.024,181.46c-0.224,41.835-33.405,74.412-75.565,74.189c-40.471-0.214-73.4-33.631-73.356-74.443
			c0.045-41.559,33.64-74.836,75.351-74.637C275.988,106.763,309.243,140.614,309.024,181.46z"/>
		<path d="M102.648,10.886H68.512c-2.2,0-4,1.8-4,4v12.428c0,2.2,1.8,4,4,4h34.136c2.2,0,4-1.8,4-4V14.886
			C106.648,12.686,104.848,10.886,102.648,10.886z"/>
	</g>
</g>
</svg>
