<?xml version="1.0" encoding="utf-8"?>
<!-- Generator: Adobe Illustrator 16.0.0, SVG Export Plug-In . SVG Version: 6.00 Build 0)  -->
<!DOCTYPE svg PUBLIC "-//W3C//DTD SVG 1.1//EN" "http://www.w3.org/Graphics/SVG/1.1/DTD/svg11.dtd">
<svg version="1.1" id="Camada_1" xmlns="http://www.w3.org/2000/svg" xmlns:xlink="http://www.w3.org/1999/xlink" x="0px" y="0px"
	 width="50.1px" height="50px" viewBox="9.9 0 50.1 50" enable-background="new 9.9 0 50.1 50" xml:space="preserve">
<g>
	<path d="M59.8,22c-0.5-4.5-2.2-8.6-5-12.2c-3.9-5-9-8.2-15.3-9.4C27.6-1.8,16.1,4.7,11.6,16c-1.3,3.2-1.8,6.6-1.7,10
		c0.5,11.7,8.8,21.1,19.9,23.4c13.4,2.8,26.3-5.5,29.5-18.9c0.3-1.4,0.4-2.8,0.6-4.2c0-0.2,0.1-0.3,0.1-0.5c0-0.6,0-1.1,0-1.7
		C59.9,23.4,59.9,22.7,59.8,22z M22.1,18.3c0.4-0.7,1-1.3,2.1-1.5c2.1-0.4,3.8,1.3,3.5,3.5c-0.2,1.1-1.2,2.2-2.6,2.3
		C22.8,22.8,20.9,20.4,22.1,18.3z M52.7,35.3c-1,0-2.1,0-3,0c0-1.8,0-3.9,0-5.8c-9.7-0.2-19.7,0-29.6-0.1c0,2,0,3.9,0,5.9
		c-0.9,0-1.8,0-3,0c0-6.9,0-13.7,0-20.6c1.1,0,2.1,0,3,0c0,3.9,0,7.7,0,11.6c10.7,0.2,21.8,0,32.5,0.1
		C52.7,29.4,52.7,32.2,52.7,35.3z M52.7,25.7H29v-0.1c0,0-0.1,0.1-0.1,0.1h-6.8c-0.6,0-1.1-0.5-1.1-1.1c0-0.6,0.5-1.1,1.1-1.1h6.8
		c0,0,0.1,0,0.1,0v-5.9h22.3c0.8,0,1.4,0.5,1.4,1.3V25.7L52.7,25.7z"/>
	<path fill="#FFFFFF" d="M20.2,26.4c0-3.9,0-7.7,0-11.6c-0.9,0-1.8,0-3,0c0,6.9,0,13.7,0,20.6c1.1,0,2.1,0,3,0c0-2,0-3.9,0-5.9
		c9.9,0,19.8-0.1,29.6,0.1c0,1.9,0,4,0,5.8c0.9,0,2,0,3,0c0-3.1,0-5.9,0-8.9C42,26.4,30.9,26.5,20.2,26.4z"/>
	<path fill="#FFFFFF" d="M25,22.6c1.4-0.1,2.4-1.2,2.6-2.3c0.4-2.2-1.4-3.8-3.5-3.5c-1.1,0.2-1.7,0.8-2.1,1.5
		C20.9,20.4,22.8,22.8,25,22.6z"/>
	<path fill="#FFFFFF" d="M51.3,17.6H29v5.9c0,0-0.1,0-0.1,0h-6.8c-0.6,0-1.1,0.5-1.1,1.1c0,0.6,0.5,1.1,1.1,1.1h6.8
		c0,0,0.1-0.1,0.1-0.1v0.1h23.6v-6.8C52.7,18.1,52.1,17.6,51.3,17.6z"/>
</g>
</svg>
