<?xml version="1.0" encoding="utf-8"?>
<!-- Generator: Adobe Illustrator 16.0.0, SVG Export Plug-In . SVG Version: 6.00 Build 0)  -->
<!DOCTYPE svg PUBLIC "-//W3C//DTD SVG 1.1//EN" "http://www.w3.org/Graphics/SVG/1.1/DTD/svg11.dtd">
<svg version="1.1" id="Layer_1" xmlns="http://www.w3.org/2000/svg" xmlns:xlink="http://www.w3.org/1999/xlink" x="0px" y="0px"
	 width="93.9px" height="71.6px" viewBox="2.9 13.9 93.9 71.6" enable-background="new 2.9 13.9 93.9 71.6" xml:space="preserve">
<g>
	<g>
		<rect x="4.7" y="48" width="38.2" height="37.5"/>
	</g>
	<g>
		<rect x="2.9" y="35.8" width="57.5" height="11"/>
	</g>
	<g>
		<rect x="44.3" y="47.8" width="40.9" height="7.4"/>
	</g>
	<g>
		<defs>
			<rect id="SVGID_1_" x="44.4" y="56.5" width="40.9" height="29"/>
		</defs>
		<clipPath id="SVGID_2_">
			<use xlink:href="#SVGID_1_"  overflow="visible"/>
		</clipPath>
		<g clip-path="url(#SVGID_2_)">
			<polygon points="70.7,85.5 75.6,85.5 85.3,57 85.3,56.5 80.6,56.5 			"/>
			<polygon points="84.4,85.5 85.3,85.5 85.3,82.7 			"/>
			<polygon points="71.9,56.5 66.9,56.5 57.1,85.5 62,85.5 			"/>
			<polygon points="82.5,85.5 85.3,77.1 85.3,62.6 77.5,85.5 			"/>
			<polygon points="50.3,85.5 55.2,85.5 65,56.5 60.1,56.5 			"/>
			<polygon points="78.7,56.5 73.8,56.5 63.9,85.5 68.8,85.5 			"/>
			<polygon points="58.2,56.5 53.4,56.5 44.4,83.1 44.4,85.5 48.4,85.5 			"/>
			<polygon points="44.7,56.5 44.4,56.5 44.4,57.4 			"/>
			<polygon points="44.4,63 44.4,77.5 51.5,56.5 46.6,56.5 			"/>
		</g>
	</g>
	<g>
		<rect x="23.8" y="26.9" width="33.8" height="6.7"/>
	</g>
	<g>
		<path d="M56.1,26.1h-1.6c0-2.6-3.7-4.8-8-4.8s-8,2.2-8,4.8h-1.6c0-3.6,4.2-6.4,9.6-6.4C51.9,19.7,56.1,22.5,56.1,26.1z"/>
	</g>
	<g>
		<g>
			<circle fill="#FFFFFF" cx="75.7" cy="35" r="19.8"/>
			<path d="M75.7,56c-11.6,0-21-9.4-21-21c0-11.6,9.4-21.1,21.1-21.1c11.7,0,21,9.5,21,21.1C96.8,46.6,87.4,56,75.7,56z M75.7,16.4
				c-10.3,0-18.6,8.3-18.6,18.6s8.3,18.6,18.6,18.6S94.3,45.3,94.3,35S86,16.4,75.7,16.4z"/>
		</g>
		<g>
			<path d="M83.2,31.1h-15c-0.8,0-1.5,0.7-1.5,1.5v12.6c0,0.8,0.7,1.5,1.5,1.5h15c0.8,0,1.5-0.7,1.5-1.5V32.6
				C84.7,31.7,84,31.1,83.2,31.1z M76.5,37.5v2.1c0,0.4-0.3,0.7-0.7,0.7c-0.4,0-0.7-0.3-0.7-0.7v-2.1c-0.6-0.3-1-0.9-1-1.6
				c0-1,0.8-1.7,1.7-1.7c1,0,1.7,0.8,1.7,1.7C77.5,36.7,77.1,37.2,76.5,37.5z"/>
		</g>
		<g>
			<path d="M70.6,30.5c0.6,0,1-0.5,1-1c0-2.2,1.8-4.1,4.1-4.1s4.1,1.8,4.1,4.1c0,0.6,0.5,1,1,1c0.6,0,1-0.5,1-1
				c0-3.4-2.8-6.2-6.2-6.2c-3.4,0-6.2,2.8-6.2,6.2C69.6,30,70,30.5,70.6,30.5z"/>
		</g>
	</g>
</g>
</svg>
