<?xml version="1.0" encoding="utf-8"?>
<!-- Generator: Adobe Illustrator 16.0.4, SVG Export Plug-In . SVG Version: 6.00 Build 0)  -->
<!DOCTYPE svg PUBLIC "-//W3C//DTD SVG 1.0//EN" "http://www.w3.org/TR/2001/REC-SVG-20010904/DTD/svg10.dtd">
<svg version="1.0" id="Layer_1" xmlns="http://www.w3.org/2000/svg" xmlns:xlink="http://www.w3.org/1999/xlink" x="0px" y="0px"
	 width="501.879px" height="251.885px" viewBox="0 0 501.879 251.885" enable-background="new 0 0 501.879 251.885"
	 xml:space="preserve">
<g>
	<path d="M501.853,193.753c-0.336-9.909-0.256-20.03-0.178-29.817c0.026-3.354,0.053-6.708,0.063-10.062l0.027-17.093
		c0.007-10.966,0.015-21.933-0.019-32.898c-0.033-11.042-5.276-18.463-15.585-22.056l-6.504-2.269
		c-18.398-6.417-37.424-13.053-56.212-19.381c-3.99-1.343-8.498-2.088-13.035-2.153c-2.246-0.033-3.19-0.457-4.395-1.974
		c-13.851-17.449-28.937-29.884-46.119-38.015C335.57,6.522,309.822,3.093,287.845,1.256C277.869,0.422,267.666,0,257.519,0
		c-24.07,0-49.091,2.385-74.367,7.091c-20.278,3.774-34.466,10.404-46.001,21.497c-6.467,6.218-13.221,12.384-19.752,18.347
		c-8.723,7.964-17.742,16.198-26.25,24.711c-6.041,6.043-12.35,9.235-21.094,10.673c-13.836,2.274-31.811,6.141-48.134,15.935
		c-14.928,8.956-22.298,21.866-21.906,38.371c0.208,8.765,0.16,17.704,0.113,26.35c-0.036,6.582-0.073,13.389,0.003,20.094
		c0.172,15.133,12.209,27.301,27.404,27.7c4.005,0.104,7.34,0.153,10.496,0.153c3.284,0,6.289-0.054,9.186-0.164
		c0.175-0.007,0.345-0.011,0.509-0.011c1.815,0,2.322,0.21,3.095,2.772c7.021,23.244,27.224,38.367,51.47,38.367h0.348
		c23.458,0,43.756-15.762,50.508-38.783c0.607-2.074,0.878-2.217,2.813-2.217h0.159c5.416,0,11.286,0.04,18.475,0.04
		c4.199,0,8.399-0.012,12.6-0.021c3.98-0.008,7.962-0.02,11.942-0.02h35.86c29.616,0,58.64-0.024,88.127-0.098
		c2.104,0,2.966,0.512,4.658,2.84c3.73,5.137,7.958,10.955,13.592,14.439c25.724,15.908,48.079,23.315,70.354,23.314
		c9.054,0,18.209-1.282,27.212-3.81c16.035-4.501,32.885-9.847,47.173-21.211C497.149,217.583,502.299,206.917,501.853,193.753z
		 M335.743,161.569l0.004-11.215l-0.004-7.108c-0.008-12.782-0.015-25.564,0-38.347c0.008-6.822,1.559-9.026,7.897-11.229
		c5.216-1.813,10.429-3.636,15.641-5.458c15.834-5.536,32.207-11.26,48.385-16.627c1.354-0.45,2.951-0.687,4.617-0.687
		c1.65,0,3.23,0.234,4.569,0.676c15.973,5.279,32.138,10.91,47.771,16.354c5.427,1.89,10.854,3.78,16.284,5.66
		c6.106,2.114,8.068,4.846,8.074,11.244c0.02,22.948,0.011,45.896,0.003,68.844l-0.007,22.572c-0.002,7.844-3.6,14.332-11.32,20.418
		c-9.226,7.273-19.973,11.125-31.351,15.203l-3.206,1.393c-10.018,3.623-19.894,5.624-30.194,5.624c-0.001,0-0.002,0-0.002,0
		c-18.454,0-37.685-5.979-60.521-18.298c-8.989-4.85-14.215-11.113-15.976-18.904c-0.419-1.855-0.62-4.063-0.632-6.819
		C335.731,183.788,335.737,172.463,335.743,161.569z M322.97,123.868c0.11,4.518,0.224,9.147,0.118,13.693
		c-0.241,10.349-0.231,20.832-0.171,30.992c0.026,4.513,0.002,9.005,0.002,13.517v15.815h-167.62
		c-0.691-18-8.117-32.329-22.102-42.657c-10.577-7.812-22.903-11.225-36.431-10.021c-11.555,1.028-23.082,6.241-31.626,14.332
		c-10.056,9.522-15.842,22.689-16.829,38.23c-1.717,0.027-3.429,0.07-5.104,0.115c-2.574,0.069-5.234,0.14-7.825,0.14
		c-3.744,0-6.803-0.15-9.625-0.473c-7.49-0.854-12.781-7.312-12.866-15.704c-0.175-17.353-0.159-33.188,0.049-48.41
		c0.13-9.603,4.791-17.204,14.248-23.237c11.245-7.174,24.095-10.576,36.293-13.446c3.475-0.818,7.091-1.47,10.588-2.102
		c3.581-0.646,7.283-1.314,10.919-2.17c3.085-0.728,5.796-2.81,7.526-4.428c3.805-3.56,7.625-7.105,11.444-10.65
		c11.993-11.132,24.395-22.643,36.152-34.443c13.193-13.242,29.649-21.009,51.787-24.443c23.983-3.72,45.834-5.529,66.801-5.529
		c8.306,0,16.576,0.294,24.582,0.875c23.044,1.67,49.866,5.042,74.088,17.38c13.524,6.89,25.356,16.833,36.99,31.127
		c-0.206,0.075-0.412,0.15-0.618,0.225c-4.025,1.465-7.838,2.852-11.668,4.033c-0.315-0.146-0.798-0.457-1.078-0.754
		c-24.98-26.554-57.738-39.653-103.091-41.224c-0.34-0.012-0.674-0.021-0.998-0.021c-1.539,0-3.498,0.193-4.991,1.696
		c-1.134,1.142-1.702,2.779-1.688,4.867c0.091,13.538,0.117,27.306,0.142,40.622c0.013,6.445,0.024,12.891,0.044,19.328
		c0,0.883,0.314,1.518,0.566,2.028c0.089,0.18,0.204,0.5,0.343,0.818l0.782,1.896h51.912
		C322.519,104.885,322.748,114.725,322.97,123.868z M101.905,157.885h0.247c10.694,0,20.743,4.255,28.295,11.908
		c7.648,7.752,11.818,18.008,11.739,28.936c-0.158,22.148-18.254,40.152-40.338,40.151l-0.455-0.011
		c-22.166-0.246-40.022-18.659-39.805-41.116C61.803,175.738,79.889,157.885,101.905,157.885z M283.449,51.609
		c-0.005-4.671-0.011-9.343-0.003-14.015c37.019,2.923,63.432,13.498,84.631,33.96c-4.127,1.3-8.112,2.669-12.002,4.098
		c-10.262,3.769-19.954,7.233-30.52,7.233c-0.001,0-0.003,0-0.003,0c-1.227,0-2.461,0.045-3.669-0.051
		c-4.264-0.34-8.779-0.45-14.212-0.45c-4.22,0-8.5,0.164-12.64,0.257c-3.239,0.074-6.588,0.244-9.866,0.244h-0.161
		c-0.931,0-1.358-0.122-1.539-0.174c-0.047-0.16-0.119-0.542-0.11-1.229C283.474,71.526,283.462,61.391,283.449,51.609z"/>
	<path d="M248.064,24.092c-21.324,0-40.34,1.642-58.134,5.019c-14.076,2.672-24.832,8.143-33.848,17.217
		c-9.767,9.829-20.165,19.404-30.222,28.663c-4.501,4.144-9.155,8.429-13.697,12.686c-0.69,0.646-1.203,1.333-1.698,1.997
		c-0.189,0.254-0.384,0.292-0.594,0.554l-3.923,4.658h151.97v-70.7l-3.138-0.044C252.595,24.108,250.236,24.092,248.064,24.092z
		 M245.071,81.144c0.007,0.92-0.062,1.362-0.113,1.561c-0.149,0.036-0.437,0.083-0.93,0.083c-24.96-0.047-49.919-0.051-74.879-0.056
		c-10.926-0.002-21.852-0.004-32.727-0.007c3.165-2.973,6.087-5.716,9.014-8.455c1.836-1.718,3.771-3.433,5.641-5.091
		c4.205-3.728,8.553-7.583,12.333-11.935c8.124-9.352,18.925-14.54,33.989-16.327c9.486-1.125,19.206-1.896,28.604-2.642
		c5.566-0.441,11.322-0.898,16.985-1.424c0.309-0.029,0.596-0.044,0.863-0.044c0.697,0,0.967,0.105,0.972,0.096
		c0.044,0.072,0.29,0.555,0.267,2.239C244.895,52.923,244.97,66.874,245.071,81.144z"/>
	<rect x="405.919" y="83.885" width="13" height="141"/>
</g>
</svg>
