<?xml version="1.0" encoding="utf-8"?>
<!-- Generator: Adobe Illustrator 16.0.0, SVG Export Plug-In . SVG Version: 6.00 Build 0)  -->
<!DOCTYPE svg PUBLIC "-//W3C//DTD SVG 1.0//EN" "http://www.w3.org/TR/2001/REC-SVG-20010904/DTD/svg10.dtd">
<svg version="1.0" id="Layer_1" xmlns="http://www.w3.org/2000/svg" xmlns:xlink="http://www.w3.org/1999/xlink" x="0px" y="0px"
	 width="100px" height="100px" viewBox="0 0 100 100" enable-background="new 0 0 100 100" xml:space="preserve">
<g>
	<g>
		<path fill="#0087E5" d="M40.499,57.225c-2.891,0-11.561,0-11.561-7.226s8.67-7.226,11.561-7.226c8.67,0,14.45,0,16.412,0
			c-4.733-2.89-7.02-7.828-7.742-11.56c-0.248,2.218-5.145,6.863-8.716,8.67h-14.32c0.081-1.456,0.236-2.647,0.527-3.201
			c1.544-2.932,9.747-14.14,15.007-19.646c1.784-1.868,5.238-3.163,7.705-3.163s14.491,4.284,16.523,5.094
			c6.051,2.413,14.021,5.823,22.979,6.597c2.066,0.177,3.646,1.901,3.646,3.977v20.487c0,1.141-0.491,2.232-1.344,2.989
			c-4.147,3.681-14.878,7.099-23.588,7.099c-6.82,0-10.116-2.891-14.085-2.891H40.499z"/>
	</g>
	<g>
		<path fill="#263C70" d="M58.562,65.896v0.056L9.43,65.896V51.444h13.683c0.264-2.543,1.203-4.414,2.527-5.78H9.43
			c-3.192,0-5.78,2.597-5.78,5.8v28.862c0,3.203,2.588,5.8,5.78,5.8h49.132c3.192,0,5.781-2.597,5.781-5.8v-13.57
			C62.102,66.663,60.205,66.333,58.562,65.896z M58.562,80.346H9.43v-5.78h49.132V80.346z"/>
	</g>
</g>
</svg>
