<?xml version="1.0" encoding="utf-8"?>
<!-- Generator: Adobe Illustrator 16.0.0, SVG Export Plug-In . SVG Version: 6.00 Build 0)  -->
<!DOCTYPE svg PUBLIC "-//W3C//DTD SVG 1.1//EN" "http://www.w3.org/Graphics/SVG/1.1/DTD/svg11.dtd">
<svg version="1.1" id="Layer_1" xmlns="http://www.w3.org/2000/svg" xmlns:xlink="http://www.w3.org/1999/xlink" x="0px" y="0px"
	 width="96.3px" height="78.4px" viewBox="1.4 6.6 96.3 78.4" enable-background="new 1.4 6.6 96.3 78.4" xml:space="preserve">
<path fill="#0087E5" d="M32.3,19.8h5.3v-4.9c0,0,0.6-2.3,2.6-2.3c2.1,0,18.7,0,18.7,0s2.4,0.2,2.5,2.4c0,2.1,0,4.9,0,4.9l5.4,0
	l0-5.6c0,0-0.5-6.1-7.6-7.2c-7.1-1-19.1,0-19.1,0s-5.9,0-7.7,7.1L32.3,19.8L32.3,19.8z"/>
<g id="J8ygtd.tif">
	<g>
		<path fill="#263C70" d="M73.5,85c-16,0-32,0-47.9,0c0-0.3,0-65,0-65.4c2.3,0,6.8,0,6.8,0l34.4,0c0,0,4.5,0,6.8,0
			C73.5,20.1,73.5,80.8,73.5,85z"/>
		<path fill="#263C70" d="M8.8,85c-1.5-0.4-2.9-0.7-4.1-1.7c-2.1-1.7-3.2-3.9-3.2-6.6c0-16.3,0-32.5,0-48.8c0-4.6,3.4-8.2,8.1-8.3
			c3.3-0.1,6.8,0,10.2,0c0,0.3-0.1,43.8-0.1,65.4C15.9,85,12.3,85,8.8,85z"/>
		<path fill="#263C70" d="M79.5,85c0-18.9,0-64.9,0-65.4c1.1,0,7.8,0,10.2,0c4.5,0.1,8,3.7,8,8.2c0,14.6,0,29.2,0,43.9
			c0,2.2,0.1,4.3-0.2,6.5c-0.4,3.4-7,6.7-7.2,6.8C86.7,85,83.1,85,79.5,85z"/>
	</g>
</g>
</svg>
