<?xml version="1.0" encoding="utf-8"?>
<!-- Generator: Adobe Illustrator 16.0.0, SVG Export Plug-In . SVG Version: 6.00 Build 0)  -->
<!DOCTYPE svg PUBLIC "-//W3C//DTD SVG 1.1//EN" "http://www.w3.org/Graphics/SVG/1.1/DTD/svg11.dtd">
<svg version="1.1" id="Camada_1" xmlns="http://www.w3.org/2000/svg" xmlns:xlink="http://www.w3.org/1999/xlink" x="0px" y="0px"
	 width="61.6px" height="50px" viewBox="4.2 0 61.6 50" enable-background="new 4.2 0 61.6 50" xml:space="preserve">
<g id="J8ygtd.tif">
	<g>
		<path d="M50.3,50c-10.2,0-20.4,0-30.7,0c0-0.2,0-41.5,0-41.8c1.4,0,2.9,0,4.3,0c0-1,0-1.9,0-2.8c-0.1-2.6,2-5.3,5.3-5.4
			c3.8,0,7.6,0,11.5,0c1.9,0,3.4,0.8,4.4,2.4C45.8,3.3,46,4.3,46,5.3c0,0.9,0,1.9,0,2.9c1.5,0,2.9,0,4.4,0
			C50.4,8.5,50.3,47.3,50.3,50z M35,8.2c2.3,0,4.7,0,7,0c0.4,0,0.6-0.1,0.6-0.6c0-0.8,0-1.5,0-2.3c0-1.1-0.8-1.8-1.9-1.8
			c-3.8,0-7.6,0-11.3,0c-1.2,0-1.9,0.7-1.9,1.9c0,0.7,0,1.3,0,2c0,0.6,0.1,0.8,0.7,0.7C30.4,8.2,32.7,8.2,35,8.2z"/>
		<path d="M8.9,50c-0.9-0.2-1.8-0.5-2.6-1.1c-1.4-1.1-2.1-2.5-2.1-4.2c0-10.4,0-20.8,0-31.2c0-3,2.2-5.2,5.2-5.3c2.1,0,4.3,0,6.5,0
			c0,0.2-0.1,28-0.1,41.8C13.5,50,11.2,50,8.9,50z"/>
		<path d="M54.2,50c0-12.1,0-41.5,0-41.8c0.7,0,5,0,6.5,0c2.9,0.1,5.1,2.4,5.1,5.2c0,9.4,0,18.7,0,28.1c0,1.4,0,2.8-0.1,4.2
			c-0.3,2.2-4.5,4.3-4.6,4.3C58.8,50,56.5,50,54.2,50z"/>
	</g>
</g>
</svg>
