<?xml version="1.0" encoding="utf-8"?>
<!-- Generator: Adobe Illustrator 18.1.1, SVG Export Plug-In . SVG Version: 6.00 Build 0)  -->
<!DOCTYPE svg PUBLIC "-//W3C//DTD SVG 1.0//EN" "http://www.w3.org/TR/2001/REC-SVG-20010904/DTD/svg10.dtd">
<svg version="1.0" id="Camada_1" xmlns="http://www.w3.org/2000/svg" xmlns:xlink="http://www.w3.org/1999/xlink" x="0px" y="0px"
	 viewBox="0 0 386 386" enable-background="new 0 0 386 386" xml:space="preserve">
<g>
	<g>
		<path fill-rule="evenodd" clip-rule="evenodd" d="M235,0c3.333,0,6.667,0,10,0c14.851,9.816,25.584,23.749,38,36
			c-7.177,10.78-14.621,19.312-15,35c-1.029,42.632,54.327,67.476,85,36c12.28,10.054,23.974,20.692,33,34c0,3.333,0,6.667,0,10
			c-15.366,20.635-35.165,36.835-53,55c-6.18-0.34-8.63-7.291-14-7c-4.098,0.223-8.065,4.207-9,9c-1.091,5.598,2.996,7.089,6,13
			c-4.241,9.309-13.133,15.133-20,22c-33.545,33.545-68.691,68.691-103,103c-13.645,13.645-25.892,28.84-42,40
			c-3.333,0-6.667,0-10,0c-13.464-8.536-22.955-21.045-34-32c7.465-11.514,14.672-21.217,15-35c1.003-42.153-55.459-68.193-85-36
			c-13.578-11.422-26.691-23.309-37-38c0-3.333,0-6.667,0-10c3.636-8.004,12.092-14.092,20-22c48.738-48.738,96.906-99.191,145-144
			c5.092,7.369,16.905,11.478,21,4c4.065-7.424-3.781-12.007-6-20C198.165,35.165,214.365,15.366,235,0z M216,115
			c4.715-0.211,9.145-3.365,9-10c-0.119-5.416-12.196-18.019-17-19c-2.816-0.575-4.712,0.514-6,1
			C184.818,93.495,209.107,115.309,216,115z M234,134c0.193,8.84,14.483,19.246,20,19c5.14-0.23,9.139-3.693,9-10
			c-0.152-6.937-12.248-17.214-18-19c-1.631-0.506-1.064-0.11-2,0C238.208,124.565,233.848,127.077,234,134z M272,172
			c0.179,8.132,14.751,19.285,20,19c5.089-0.276,9.065-4.585,9-10c-0.091-7.517-12.405-17.263-18-19c-1.631-0.506-1.064-0.11-2,0
			C276.208,162.565,271.848,165.077,272,172z"/>
	</g>
</g>
</svg>
