<?xml version="1.0" encoding="utf-8"?>
<!-- Generator: Adobe Illustrator 16.0.0, SVG Export Plug-In . SVG Version: 6.00 Build 0)  -->
<!DOCTYPE svg PUBLIC "-//W3C//DTD SVG 1.0//EN" "http://www.w3.org/TR/2001/REC-SVG-20010904/DTD/svg10.dtd">
<svg version="1.0" id="Layer_1" xmlns="http://www.w3.org/2000/svg" xmlns:xlink="http://www.w3.org/1999/xlink" x="0px" y="0px"
	 width="100px" height="100px" viewBox="0 0 100 100" enable-background="new 0 0 100 100" xml:space="preserve">
<g>
	<path fill-rule="evenodd" clip-rule="evenodd" fill="#263C70" d="M75.146,10.722c0.816,0.562,1.092,1.305,1.09,2.321
		c-0.032,14.53-0.025,29.059-0.011,43.589c0.001,0.692-0.034,1.13-0.911,1.202c-0.901,0.075-1.783,0.381-2.767,0.606
		c0-14.714,0-29.333,0-43.993c-14.181,0-28.283,0-42.462,0c0,0.31,0,0.585,0,0.86c0,4.177,0,8.354-0.001,12.531
		c0,1.467-0.467,1.942-1.912,1.942c-4.177,0.001-8.354,0-12.53,0c-0.278,0-0.556,0-0.883,0c0,18.668,0,37.281,0,55.94
		c19.241,0,38.469,0,57.756,0c0-3.373,0-6.721,0-10.094c1.237-0.264,2.424-0.518,3.699-0.791c0,0.312,0,0.562,0,0.812
		c0,3.971,0.001,7.943-0.002,11.915c0,1.226-0.658,1.876-1.898,1.876c-20.448,0.002-40.897-0.006-61.347,0.025
		c-0.948,0.002-1.418-0.512-1.94-1.092c0-20.4,0-40.799,0-61.198c0.524-0.545,1.041-1.099,1.575-1.635
		c1.624-1.632,3.251-3.261,4.884-4.885c3.329-3.312,6.662-6.622,9.993-9.932C43.367,10.722,59.257,10.722,75.146,10.722z
		 M17.807,25.992c0.253,0.012,0.479,0.032,0.704,0.033c2.33,0.002,4.66-0.028,6.988,0.02c0.738,0.016,0.926-0.259,0.919-0.926
		c-0.021-2.381-0.007-4.763-0.012-7.144c0-0.181-0.048-0.361-0.069-0.512C23.483,20.316,20.667,23.131,17.807,25.992z"/>
	<path fill-rule="evenodd" clip-rule="evenodd" fill="#263c70" d="M79.667,62.612c0.626,2.733,1.232,5.38,1.863,8.13
		c-1.439,0.297-2.775,0.574-4.111,0.85c-4.014,0.824-8.029,1.638-12.039,2.477c-4.383,0.918-8.762,1.855-13.142,2.791
		c-3.883,0.828-7.763,1.674-11.647,2.492c-0.531,0.111-1.004,0.255-1.154-0.67c-0.362-2.23-0.899-4.436-1.409-6.641
		c-0.112-0.484,0.005-0.631,0.458-0.725c4.108-0.861,8.213-1.742,12.319-2.613c3.882-0.822,7.765-1.641,11.646-2.462
		c3.884-0.821,7.769-1.638,11.649-2.471c1.668-0.358,3.326-0.757,4.99-1.129C79.258,62.604,79.438,62.623,79.667,62.612z"/>
	<path fill-rule="evenodd" clip-rule="evenodd" fill="#263c70" d="M79.085,60.053c0.16,0.664,0.297,1.229,0.445,1.843
		c-1.361,0.304-2.688,0.616-4.023,0.896c-1.512,0.316-3.018,0.73-4.549,0.873c-2.104,0.197-4.236,0.083-6.34,0.283
		c-1.922,0.182-3.871,0.428-5.715,0.965c-2.509,0.731-4.931,1.761-7.385,2.676c-0.354,0.133-0.664,0.418-1.024,0.494
		c-0.37,0.08-0.854,0.116-1.144-0.062c-0.25-0.153-0.462-0.676-0.392-0.962c0.078-0.317,0.448-0.665,0.774-0.8
		c2.02-0.837,4.045-1.666,6.104-2.403c2.104-0.753,4.236-1.47,6.491-1.604c2.391-0.145,4.794-0.132,7.177-0.346
		c1.59-0.143,3.156-0.553,4.73-0.861C75.826,60.73,77.413,60.395,79.085,60.053z"/>
	<path fill-rule="evenodd" clip-rule="evenodd" fill="#7a1d2f" d="M82.55,69.34c-0.438-2.098-0.855-4.104-1.285-6.165
		c1.811-0.368,3.532-0.81,5.281-1.047c1.726-0.234,3.012,0.767,3.189,2.257c0.254,2.133-0.674,3.635-2.439,3.986
		c-1.297,0.258-2.587,0.546-3.881,0.817C83.169,69.24,82.919,69.275,82.55,69.34z"/>
	<path fill-rule="evenodd" clip-rule="evenodd" fill="#7a1d2f" d="M37.128,71.611c0.576,2.685,1.135,5.285,1.73,8.059
		c-1.076-0.153-2.045-0.291-3.014-0.43c-2.139-0.309-4.281-0.594-6.412-0.949c-0.363-0.061-0.676-0.419-1.013-0.64
		c0.216-0.312,0.362-0.727,0.655-0.922c2.227-1.481,4.48-2.923,6.73-4.368C36.206,72.105,36.633,71.891,37.128,71.611z"/>
	<path fill-rule="evenodd" clip-rule="evenodd" fill="#7a1d2f" d="M63,33.083C63,34.142,62.142,35,61.083,35H47.917
		C46.858,35,46,34.142,46,33.083v-0.167C46,31.858,46.858,31,47.917,31h13.166C62.142,31,63,31.858,63,32.917V33.083z"/>
	<path fill-rule="evenodd" clip-rule="evenodd" fill="#7a1d2f" d="M41,63.084C41,64.143,40.142,65,39.083,65H25.917
		C24.858,65,24,64.143,24,63.084v-0.168C24,61.857,24.858,61,25.917,61h13.166C40.142,61,41,61.857,41,62.916V63.084z"/>
	<path fill-rule="evenodd" clip-rule="evenodd" fill="#7a1d2f" d="M63,55c0,1.104-0.896,2-2,2H26c-1.104,0-2-0.896-2-2l0,0
		c0-1.104,0.896-2,2-2h35C62.104,53,63,53.896,63,55L63,55z"/>
	<path fill-rule="evenodd" clip-rule="evenodd" fill="#7a1d2f" d="M63,48c0,1.104-0.896,2-2,2H26c-1.104,0-2-0.896-2-2l0,0
		c0-1.104,0.896-2,2-2h35C62.104,46,63,46.896,63,48L63,48z"/>
	<path fill-rule="evenodd" clip-rule="evenodd" fill="#7a1d2f" d="M63,41c0,1.104-0.896,2-2,2H26c-1.104,0-2-0.896-2-2l0,0
		c0-1.104,0.896-2,2-2h35C62.104,39,63,39.896,63,41L63,41z"/>
</g>
</svg>
