<?xml version="1.0" encoding="utf-8"?>
<!-- Generator: Adobe Illustrator 16.0.0, SVG Export Plug-In . SVG Version: 6.00 Build 0)  -->
<!DOCTYPE svg PUBLIC "-//W3C//DTD SVG 1.0//EN" "http://www.w3.org/TR/2001/REC-SVG-20010904/DTD/svg10.dtd">
<svg version="1.0" id="Layer_1" xmlns="http://www.w3.org/2000/svg" xmlns:xlink="http://www.w3.org/1999/xlink" x="0px" y="0px"
	 width="100px" height="100px" viewBox="0 0 100 100" enable-background="new 0 0 100 100" xml:space="preserve">
<g>
	<g>
		<path fill="#263C70" d="M72.155,13.015C65.303,6.162,56.191,2.388,46.499,2.388c-9.69,0-18.802,3.773-25.654,10.627
			c-6.853,6.853-10.627,15.963-10.627,25.655c0,9.691,3.774,18.802,10.627,25.655c6.853,6.852,15.964,10.626,25.654,10.626
			c9.692,0,18.804-3.774,25.656-10.626C79.008,57.472,82.78,48.361,82.78,38.67C82.78,28.979,79.008,19.868,72.155,13.015z
			 M48.358,28.352c3.564-0.125,7.136-0.673,10.676-1.641c1.104,3.184,1.813,6.373,2.129,9.544H48.358V28.352z M48.358,24.057V8.809
			c2.115,2.357,6.086,7.275,9.076,13.889C54.42,23.487,51.386,23.94,48.358,24.057z M44.822,24.043
			c-0.989-0.047-1.979-0.132-2.965-0.252c-1.994-0.245-3.98-0.641-5.955-1.185c2.861-6.478,6.697-11.376,8.92-13.907V24.043z
			 M41.456,28.061c1.119,0.135,2.242,0.226,3.366,0.275v7.919h-12.52c0.278-3.201,0.958-6.419,2.039-9.634
			C36.694,27.293,39.067,27.774,41.456,28.061z M32.694,45.892c-0.324-1.899-0.5-3.814-0.531-5.737h12.659v9.028
			c-2.744,0.256-5.486,0.759-8.212,1.514c-0.871,0.241-1.711,0.5-2.522,0.773C33.48,49.622,33.015,47.762,32.694,45.892z
			 M27.999,36.255h-12.08c0.445-5.687,2.447-10.942,5.58-15.341c2.876,1.755,5.806,3.206,8.777,4.347
			C29.044,28.924,28.283,32.598,27.999,36.255z M27.874,40.154c0.03,2.129,0.223,4.25,0.577,6.359
			c0.367,2.181,0.912,4.346,1.628,6.492c-3.516,1.52-6.218,3.153-7.923,4.305c-3.687-4.803-5.986-10.723-6.295-17.155H27.874z
			 M31.628,57.013c1.679,3.818,3.914,7.565,6.698,11.225c-5.079-1.407-9.634-4.09-13.296-7.681
			C26.546,59.569,28.792,58.254,31.628,57.013z M35.637,55.475c0.736-0.244,1.498-0.477,2.285-0.691
			c2.293-0.626,4.597-1.057,6.9-1.293v15.809c-0.026-0.003-0.054-0.005-0.08-0.006C40.778,64.811,37.736,60.189,35.637,55.475z
			 M48.358,53.28c1.871-0.03,3.737,0.065,5.594,0.292c1.531,0.188,3.059,0.466,4.578,0.831c-2.021,5.059-5.123,10.016-9.275,14.816
			c-0.298,0.025-0.597,0.049-0.896,0.067V53.28z M54.353,49.303c-1.99-0.24-3.99-0.34-5.994-0.311v-8.838h12.994
			c-0.007,2.085-0.184,4.16-0.536,6.219c-0.227,1.324-0.526,2.642-0.897,3.955C58.074,49.869,56.219,49.525,54.353,49.303z
			 M65.061,46.994c0.382-2.267,0.574-4.549,0.582-6.84h11.494c-0.266,5.548-2.012,10.716-4.853,15.113
			c-2.712-1.507-5.467-2.747-8.256-3.716C64.457,50.041,64.803,48.521,65.061,46.994z M65.471,36.255
			c-0.322-3.612-1.107-7.237-2.352-10.853c3.572-1.315,6.497-2.848,8.628-4.133c2.99,4.325,4.899,9.451,5.332,14.986H65.471z
			 M69.035,17.882c-1.906,1.114-4.441,2.407-7.479,3.523c-2.302-5.241-5.161-9.491-7.483-12.464
			C59.904,10.429,65.072,13.59,69.035,17.882z M39.099,8.9c-2.305,3.012-5.072,7.218-7.288,12.357
			c-2.55-0.979-5.071-2.209-7.555-3.688C28.218,13.395,33.34,10.332,39.099,8.9z M55.795,67.903
			c2.943-3.999,5.238-8.103,6.867-12.286c2.366,0.823,4.709,1.864,7.022,3.115C66.027,62.954,61.238,66.168,55.795,67.903z"/>
	</g>
	<g>
		<path fill="#7a1d2f" d="M92.533,33.632c-1.726-2.074-4.507-3.125-8.269-3.125v5.112c1.492,0,3.456,0.223,4.34,1.283
			c1.276,1.533,0.626,5.049,0.239,7.15c-0.422,2.287-4.21,6.443-7.096,9.013c-3.201-2.847-6.482-3.468-8.833-3.428
			c-3.019,0.05-5.151,1.177-5.384,1.306c-0.157,0.086-0.306,0.189-0.439,0.306L52.413,63.947c-1.03,0.892-1.18,2.434-0.342,3.508
			l2.841,3.637c-0.041,0.231-0.063,0.473-0.063,0.716c0,2.249,1.823,4.073,4.071,4.073c2.249,0,4.071-1.824,4.071-4.073
			c0-2.248-1.822-4.072-4.071-4.072c-0.046,0-0.092,0.004-0.139,0.005l-1.185-1.517l12.578-10.883
			c0.445-0.19,1.58-0.606,3.021-0.593c2.388,0.023,4.569,1.209,6.485,3.526c2.219,2.685,3.357,4.986,3.382,6.837
			c0.019,1.344-0.57,2.298-1.14,3.223c-0.762,1.238-6.074,7.446-10.18,12.149l-0.611-0.591c-0.03-2.222-1.84-4.012-4.069-4.012
			c-2.248,0-4.071,1.821-4.071,4.071c0,2.247,1.823,4.071,4.071,4.071c0.305,0,0.601-0.035,0.885-0.1l2.173,2.102
			c0.478,0.461,1.114,0.718,1.777,0.718c0.033,0,0.067-0.001,0.103-0.002c0.698-0.029,1.354-0.342,1.814-0.866
			c1.843-2.093,11.099-12.644,12.464-14.861c1.352-2.196,4.052-6.587-1.192-14.079c0.771-0.692,2.131-1.957,3.549-3.485
			c3.085-3.329,4.798-6.099,5.236-8.469C94.421,41.998,95.343,37.006,92.533,33.632z"/>
		<path fill="#FFFFFF" d="M71.897,87.379c-0.833,0-1.621-0.318-2.22-0.897l-1.937-1.872c-0.226,0.032-0.453,0.05-0.679,0.05
			c-2.596,0-4.708-2.112-4.708-4.707c0-2.597,2.112-4.709,4.708-4.709c2.434,0,4.461,1.881,4.686,4.267
			c4.403-5.055,8.979-10.442,9.634-11.509c0.546-0.888,1.062-1.723,1.045-2.88c-0.021-1.703-1.112-3.87-3.236-6.442
			c-1.79-2.165-3.808-3.273-6.001-3.295h-0.062c-1.209,0-2.178,0.328-2.612,0.504L58.471,66.309l0.62,0.796
			c2.517,0.09,4.536,2.166,4.536,4.703c0,2.596-2.111,4.709-4.707,4.709s-4.708-2.113-4.708-4.709c0-0.178,0.012-0.358,0.032-0.539
			l-2.674-3.422c-1.048-1.342-0.859-3.266,0.427-4.379l14.678-12.7c0.168-0.146,0.354-0.275,0.549-0.382
			c0.247-0.136,2.509-1.332,5.682-1.385c0.071-0.001,0.142-0.002,0.215-0.002c2.188,0,5.42,0.57,8.616,3.22
			c2.963-2.713,6.138-6.414,6.481-8.282c0.344-1.862,0.983-5.324-0.103-6.628c-0.566-0.68-1.933-1.054-3.851-1.054h-0.636v-6.384
			h0.636c3.959,0,6.906,1.128,8.758,3.354c3,3.604,2.045,8.778,1.474,11.871c-0.46,2.493-2.225,5.367-5.396,8.786
			c-1.186,1.279-2.326,2.373-3.178,3.152c5.054,7.556,2.256,12.105,0.896,14.313c-1.354,2.199-9.93,11.999-12.526,14.949
			c-0.573,0.65-1.399,1.045-2.267,1.079C71.98,87.378,71.938,87.379,71.897,87.379z M68.145,83.23l2.417,2.337
			c0.38,0.366,0.884,0.56,1.415,0.539c0.521-0.022,1.018-0.259,1.362-0.651c1.835-2.086,11.062-12.607,12.397-14.774
			c1.34-2.178,3.833-6.23-1.172-13.381l-0.324-0.463l0.42-0.376c0.697-0.625,2.079-1.903,3.509-3.444
			c3-3.237,4.661-5.903,5.076-8.152c0.531-2.873,1.418-7.681-1.201-10.826c-1.501-1.806-3.903-2.775-7.143-2.885v3.842
			c2.024,0.085,3.434,0.588,4.191,1.5c1.466,1.761,0.81,5.318,0.376,7.671c-0.214,1.155-1.142,2.733-2.759,4.69
			c-1.274,1.542-2.929,3.248-4.539,4.684l-0.423,0.376l-0.423-0.376c-3.037-2.703-6.139-3.27-8.205-3.27
			c-0.065,0-0.13,0.001-0.193,0.002c-2.867,0.048-4.87,1.107-5.09,1.227c-0.117,0.064-0.229,0.143-0.33,0.23L52.829,64.43
			c-0.774,0.669-0.888,1.826-0.256,2.633l3.015,3.861l-0.049,0.279c-0.037,0.202-0.055,0.407-0.055,0.604
			c0,1.896,1.541,3.436,3.436,3.436c1.894,0,3.435-1.54,3.435-3.436c0-1.895-1.541-3.436-3.435-3.436
			c-0.028,0-0.057,0.002-0.084,0.003l-0.356,0.01l-1.757-2.247l13.111-11.342l0.09-0.039c0.452-0.194,1.667-0.645,3.203-0.645h0.075
			c2.585,0.025,4.928,1.288,6.968,3.757c2.314,2.801,3.502,5.235,3.528,7.233c0.021,1.528-0.645,2.61-1.233,3.564
			c-0.989,1.609-8.705,10.474-10.243,12.235l-0.439,0.504l-1.281-1.239l-0.005-0.266c-0.025-1.866-1.566-3.385-3.434-3.385
			c-1.895,0-3.436,1.539-3.436,3.436c0,1.894,1.541,3.436,3.436,3.436c0.25,0,0.501-0.029,0.748-0.084L68.145,83.23z"/>
	</g>
	<g>
		<circle fill="#FFFFFF" cx="36.192" cy="38.955" r="7.793"/>
		<path fill="#FFFFFF" d="M36.192,46.838c-4.348,0-7.884-3.536-7.884-7.883c0-4.347,3.536-7.883,7.884-7.883
			c4.347,0,7.883,3.537,7.883,7.883C44.075,43.302,40.539,46.838,36.192,46.838z M36.192,31.254c-4.247,0-7.702,3.455-7.702,7.701
			s3.455,7.702,7.702,7.702c4.246,0,7.701-3.456,7.701-7.702S40.438,31.254,36.192,31.254z"/>
	</g>
	<g>
		<g>
			<path fill="#7a1d2f" d="M36.448,27.642c-6.179,0-11.205,5.027-11.205,11.205c0,3.212,1.36,6.111,3.533,8.155L14.47,58.747
				c-0.958,0.646-5.297,3.814-5.687,8.459c-0.284,3.398,1.69,5.97,3.399,7.527l0.06,0.054c1.37,1.172,4.063,2.604,7.244,2.604
				c1.948,0,4.077-0.537,6.197-1.994l-2.896-4.214c-3.559,2.446-6.722,0.12-7.205-0.269c-1.83-1.689-1.736-2.879-1.704-3.271
				c0.164-2.062,2.648-4.131,3.498-4.688l0.122-0.078l16.076-13.199c0.918,0.244,1.881,0.375,2.874,0.375
				c6.18,0,11.205-5.027,11.205-11.206C47.653,32.669,42.628,27.642,36.448,27.642z M36.448,44.94c-3.359,0-6.092-2.733-6.092-6.093
				s2.732-6.092,6.092-6.092c3.36,0,6.093,2.732,6.093,6.092S39.809,44.94,36.448,44.94z"/>
			<path fill="#FFFFFF" d="M19.486,78.026L19.486,78.026c-3.273,0-6.102-1.425-7.658-2.756l-0.066-0.061
				c-1.821-1.66-3.918-4.399-3.611-8.057c0.411-4.913,4.959-8.252,5.938-8.916L27.83,46.956c-2.056-2.188-3.223-5.104-3.223-8.109
				c0-6.529,5.312-11.841,11.841-11.841S48.29,32.318,48.29,38.847s-5.312,11.841-11.842,11.841c-0.914,0-1.827-0.106-2.718-0.317
				L17.873,63.391l-0.153,0.098c-0.986,0.647-3.074,2.53-3.208,4.206c-0.025,0.312-0.102,1.266,1.484,2.737
				c0.294,0.233,1.648,1.221,3.432,1.221c1.032,0,2.043-0.334,3-0.992l0.523-0.36l3.617,5.26l-0.523,0.36
				C24.013,77.316,21.807,78.026,19.486,78.026z M36.448,28.278c-5.827,0-10.569,4.741-10.569,10.569
				c0,2.938,1.184,5.669,3.333,7.692l0.527,0.496l-14.915,12.24c-0.838,0.564-5.039,3.605-5.407,7.984
				c-0.263,3.142,1.592,5.542,3.193,7.005l0.053,0.046c1.313,1.124,3.894,2.443,6.823,2.443c1.859,0,3.64-0.517,5.304-1.536
				l-2.181-3.171c-1.016,0.581-2.082,0.877-3.182,0.877c-2.189,0-3.802-1.158-4.245-1.513l-0.032-0.029
				c-2.058-1.9-1.944-3.322-1.907-3.79c0.187-2.328,2.794-4.52,3.782-5.169l0.099-0.062l16.299-13.381l0.315,0.083
				c0.884,0.235,1.796,0.354,2.71,0.354c5.828,0,10.569-4.741,10.569-10.569S42.276,28.278,36.448,28.278z M36.448,45.576
				c-3.71,0-6.729-3.018-6.729-6.729c0-3.71,3.019-6.729,6.729-6.729c3.711,0,6.729,3.019,6.729,6.729
				C43.177,42.558,40.159,45.576,36.448,45.576z M36.448,33.391c-3.008,0-5.456,2.448-5.456,5.457c0,3.009,2.448,5.457,5.456,5.457
				c3.009,0,5.457-2.448,5.457-5.457C41.905,35.838,39.457,33.391,36.448,33.391z"/>
		</g>
		<g>
			<circle fill="#7a1d2f" cx="36.192" cy="38.956" r="2.721"/>
			<path fill="#FFFFFF" d="M36.192,42.312c-1.852,0-3.356-1.506-3.356-3.357s1.505-3.356,3.356-3.356
				c1.851,0,3.357,1.505,3.357,3.356S38.043,42.312,36.192,42.312z M36.192,36.87c-1.149,0-2.085,0.936-2.085,2.085
				c0,1.15,0.936,2.085,2.085,2.085s2.085-0.935,2.085-2.085C38.277,37.806,37.342,36.87,36.192,36.87z"/>
		</g>
	</g>
</g>
</svg>
