<?xml version="1.0" encoding="utf-8"?>
<!-- Generator: Adobe Illustrator 16.0.0, SVG Export Plug-In . SVG Version: 6.00 Build 0)  -->
<!DOCTYPE svg PUBLIC "-//W3C//DTD SVG 1.1//EN" "http://www.w3.org/Graphics/SVG/1.1/DTD/svg11.dtd">
<svg version="1.1" id="Layer_1" xmlns="http://www.w3.org/2000/svg" xmlns:xlink="http://www.w3.org/1999/xlink" x="0px" y="0px"
	 width="92px" height="87.5px" viewBox="4 6.3 92 87.5" enable-background="new 4 6.3 92 87.5" xml:space="preserve">
<g>
	<g>
		<path fill="#263C70" d="M47,91.3C31.1,80.6,17.8,67.3,6.7,51.8c-8.7-12.2,6.6-23.6,8.9-20.6l12.7,16c0.3,0.3-2.3,6.2-2.8,7
			c-1,1.5,17.2,19.3,18.7,18.3c0.8-0.5,6.5-3.2,6.9-3l16.3,12.3C70.4,84.2,59.3,99.6,47,91.3L47,91.3z"/>
	</g>
	<g>
		<path fill="#7a1d2f" d="M68.4,6.3c-15.2,0-27.6,10.1-27.6,22.5c0,4.5,1.6,8.6,4.3,12.1l-7.3,8.7l12-4.1c4.9,3.6,11.4,5.8,18.5,5.8
			C83.6,51.3,96,41.2,96,28.8C96,16.3,83.6,6.3,68.4,6.3z"/>
	</g>
	<g>
		<path fill="#fff" d="M82.9,21.6c0,1.1-0.9,2-2,2H56c-1.1,0-2-0.9-2-2l0,0c0-1.1,0.9-2,2-2h24.9C82,19.6,82.9,20.5,82.9,21.6
			L82.9,21.6z"/>
	</g>
	<g>
		<path fill="#fff" d="M82.9,28.8c0,1.1-0.9,2-2,2H56c-1.1,0-2-0.9-2-2l0,0c0-1.1,0.9-2,2-2h24.9C82,26.8,82.9,27.7,82.9,28.8
			L82.9,28.8z"/>
	</g>
	<g>
		<path fill="#fff" d="M82.9,35.9c0,1.1-0.9,2-2,2H56c-1.1,0-2-0.9-2-2l0,0c0-1.1,0.9-2,2-2h24.9C82,33.9,82.9,34.8,82.9,35.9
			L82.9,35.9z"/>
	</g>
</g>
</svg>
