<?xml version="1.0" encoding="utf-8"?>
<!-- Generator: Adobe Illustrator 16.0.0, SVG Export Plug-In . SVG Version: 6.00 Build 0)  -->
<!DOCTYPE svg PUBLIC "-//W3C//DTD SVG 1.0//EN" "http://www.w3.org/TR/2001/REC-SVG-20010904/DTD/svg10.dtd">
<svg version="1.0" id="Layer_1" xmlns="http://www.w3.org/2000/svg" xmlns:xlink="http://www.w3.org/1999/xlink" x="0px" y="0px"
	 width="100px" height="100px" viewBox="0 0 100 100" enable-background="new 0 0 100 100" xml:space="preserve">
<g>
	<path fill="#263C70" d="M38.616,72.651c-7.207,7.208-19.212,6.888-26.814-0.714l0,0c-7.603-7.603-7.922-19.608-0.715-26.815
		l30.646-30.646c7.207-7.208,19.213-6.887,26.814,0.715l0,0c7.603,7.602,7.923,19.607,0.715,26.814L38.616,72.651z"/>
	<path fill="#fff" d="M29.259,32.648l16.373-16.373c5.124-5.124,14.165-4.391,20.194,1.638l0,0
		c6.028,6.028,6.762,15.069,1.638,20.194L51.09,54.479L29.259,32.648z"/>
	
		<rect x="19.873" y="33.017" transform="matrix(0.7072 0.707 -0.707 0.7072 36.751 -2.9599)" fill="#fff" width="4.152" height="19.752"/>
</g>
<g>
	<path fill="#7a1d2f" d="M81.968,49.586c-2.564-2.564-5.685-4.231-8.972-5.005L57.206,60.37l30.111,0.081
		C86.802,56.479,85.02,52.639,81.968,49.586z"/>
	<path fill="#7a1d2f" d="M87.353,65.028l-34.71-0.094l-2.275,2.275c0.773,3.287,2.441,6.407,5.005,8.972
		c7.345,7.343,19.251,7.344,26.596,0C85.094,73.056,86.887,69.104,87.353,65.028z"/>
</g>
</svg>
