<?xml version="1.0" encoding="utf-8"?>
<!-- Generator: Adobe Illustrator 16.0.0, SVG Export Plug-In . SVG Version: 6.00 Build 0)  -->
<!DOCTYPE svg PUBLIC "-//W3C//DTD SVG 1.1//EN" "http://www.w3.org/Graphics/SVG/1.1/DTD/svg11.dtd">
<svg version="1.1" id="Camada_1" xmlns="http://www.w3.org/2000/svg" xmlns:xlink="http://www.w3.org/1999/xlink" x="0px" y="0px"
	 width="22.1px" height="22px" viewBox="10 0 22.1 22" enable-background="new 10 0 22.1 22" xml:space="preserve">
<g>
	<path d="M31.9,9.7c-0.2-2-1-3.8-2.2-5.4c-1.7-2.2-4-3.6-6.7-4.1c-5.2-1-10.3,1.9-12.3,6.9c-0.6,1.4-0.8,2.9-0.7,4.4
		c0.2,5.2,3.9,9.3,8.8,10.3c5.9,1.2,11.6-2.4,13-8.3c0.1-0.6,0.2-1.2,0.2-1.9c0-0.1,0-0.1,0-0.2c0-0.3,0-0.5,0-0.8
		C32,10.3,32,10,31.9,9.7z"/>
	<g id="f0gSYu.tif">
		<g>
			<path fill="#FFFFFF" d="M13.7,16.2c0-2.3,0-4.7,0-7c0,0,0-0.1,0-0.1c0.1-0.8,0.8-1.5,1.7-1.5c3.8,0,7.5,0,11.3,0
				c0.1,0,0.2,0,0.4,0c0.8,0.2,1.3,0.8,1.3,1.7c0,2.2,0,4.5,0,6.7c0,1.1-0.9,1.7-1.7,1.7c-3.7,0-7.5,0-11.2,0
				c-0.8,0-1.4-0.5-1.6-1.3C13.7,16.4,13.7,16.3,13.7,16.2z M22.1,13.8c0.1,0,0.1,0,0.2,0c0.6,0,1.2,0,1.7,0c0.1,0,0.2,0,0.2-0.2
				c0-0.6,0-1.2,0-1.8c0-0.1,0-0.2-0.2-0.2c-0.6,0-1.2,0-1.7,0c-0.1,0-0.1,0-0.2,0c0-0.7,0-1.4,0-2.1c-0.7,0-1.4,0-2.1,0
				c0,0.1,0,0.1,0,0.2c0,0.6,0,1.2,0,1.7c0,0.1,0,0.2-0.2,0.2c-0.6,0-1.2,0-1.8,0c-0.1,0-0.2,0-0.2,0.2c0,0.6,0,1.2,0,1.8
				c0,0.1,0,0.2,0.2,0.2c0.6,0,1.2,0,1.7,0c0.1,0,0.1,0,0.2,0c0,0.1,0,0.1,0,0.2c0,0.6,0,1.2,0,1.7c0,0.2,0,0.2,0.2,0.2
				c0.6,0,1.2,0,1.7,0c0.2,0,0.2,0,0.2-0.2C22.1,15,22.1,14.4,22.1,13.8z"/>
			<path fill="#FFFFFF" d="M17.7,7c0-0.5,0-0.9,0-1.4c0.1-0.7,0.7-1.3,1.4-1.4c0.2,0,0.3,0,0.5,0c1,0,2.1,0,3.1,0
				c0.8,0,1.5,0.5,1.7,1.3c0,0.2,0,0.4,0,0.6c0,0.3,0,0.6,0,0.8c-0.4,0-0.7,0-1.1,0c0-0.3,0-0.7,0-1c0-0.1,0-0.2,0-0.3
				c-0.1-0.3-0.3-0.4-0.5-0.4c-1.1,0-2.3,0-3.4,0c-0.3,0-0.6,0.2-0.6,0.6c0,0.3,0,0.6,0,0.9c0,0.1,0,0.1,0,0.2C18.4,7,18,7,17.7,7z"
				/>
		</g>
	</g>
</g>
</svg>
