<?xml version="1.0" encoding="utf-8"?>
<!-- Generator: Adobe Illustrator 16.0.0, SVG Export Plug-In . SVG Version: 6.00 Build 0)  -->
<!DOCTYPE svg PUBLIC "-//W3C//DTD SVG 1.1//EN" "http://www.w3.org/Graphics/SVG/1.1/DTD/svg11.dtd">
<svg version="1.1" id="Camada_1" xmlns="http://www.w3.org/2000/svg" xmlns:xlink="http://www.w3.org/1999/xlink" x="0px" y="0px"
	 width="54.2px" height="50px" viewBox="7.9 0 54.2 50" enable-background="new 7.9 0 54.2 50" xml:space="preserve">
<g id="f0gSYu.tif">
	<g>
		<path d="M7.9,44.2c0-8.6,0-17.2,0-25.8c0-0.1,0.1-0.3,0.1-0.4c0.4-3.1,3-5.4,6.1-5.4c13.9,0,27.8,0,41.7,0c0.5,0,0.9,0.1,1.4,0.2
			c2.9,0.7,4.9,3.1,4.9,6.2c0,8.3,0,16.6,0,24.8c0,3.9-3.2,6.3-6.4,6.3c-13.9,0-27.7,0-41.6,0c-2.9,0-5.3-2-6-4.7
			C8,44.9,8,44.5,7.9,44.2z M38.9,35.2c0.3,0,0.4,0,0.6,0c2.2,0,4.3,0,6.5,0c0.4,0,0.6-0.1,0.6-0.6c0-2.2,0-4.5,0-6.7
			c0-0.4-0.1-0.6-0.6-0.6c-2.2,0-4.3,0-6.5,0c-0.2,0-0.4,0-0.7,0c0-2.6,0-5.1,0-7.6c-2.7,0-5.2,0-7.9,0c0,0.2,0,0.4,0,0.6
			c0,2.2,0,4.3,0,6.5c0,0.4-0.1,0.6-0.6,0.6c-2.2,0-4.4,0-6.6,0c-0.4,0-0.6,0.1-0.6,0.6c0,2.3,0,4.5,0,6.8c0,0.4,0.1,0.6,0.6,0.6
			c2.2,0,4.3,0,6.5,0c0.2,0,0.4,0,0.7,0c0,0.2,0,0.4,0,0.6c0,2.1,0,4.3,0,6.4c0,0.7,0,0.7,0.8,0.7c2.1,0,4.3,0,6.4,0
			c0.7,0,0.7,0,0.7-0.7C38.9,39.8,38.9,37.6,38.9,35.2z"/>
		<path d="M22.6,10.3c0-1.8-0.2-3.5,0-5.2c0.3-2.6,2.5-4.7,5.1-5C28.3,0,28.9,0,29.5,0c3.9,0,7.7,0,11.6,0c3.1,0,5.5,1.9,6.2,4.9
			c0.2,0.8,0.2,1.6,0.2,2.4c0,1,0,2,0,3.1c-1.4,0-2.7,0-4.1,0c0-1.2,0-2.5,0-3.7c0-0.3,0-0.6-0.1-0.9c-0.2-1-1-1.6-2-1.6
			c-4.2,0-8.4,0-12.5,0c-1.2,0-2.1,0.9-2.1,2.1c0,1.2,0,2.3,0,3.5c0,0.2,0,0.4,0,0.6C25.2,10.3,23.9,10.3,22.6,10.3z"/>
	</g>
</g>
</svg>
