<?xml version="1.0" encoding="utf-8"?>
<!-- Generator: Adobe Illustrator 21.0.0, SVG Export Plug-In . SVG Version: 6.00 Build 0)  -->
<svg version="1.1" id="图层_1" xmlns="http://www.w3.org/2000/svg" xmlns:xlink="http://www.w3.org/1999/xlink" x="0px" y="0px"
	 viewBox="0 0 403.1 212.6" style="enable-background:new 0 0 403.1 212.6;" xml:space="preserve">
<g>
	<path class="st0" d="M213.1,6.7c-0.6-0.2-1.6-0.6-2.2-0.4c-0.1,0-0.1,0-0.2,0.1c0.1,0.1,0.2,0.1,0.4,0.2c-0.4,0.1-0.5-0.1-0.8-0.1
		c0.2,0.3,0.2,0.2,0,0.5c0,0,0,0.1,0.1,0.1c0.8,0.2,1.6,0.5,2.8,0.4V7.3C212.9,7,212.3,7,212,6.8c0,0-0.1,0-0.1,0c0,0,0,0,0-0.1
		c0.8,0.1,1.4,0.5,1.9,0.8c0.1-0.1,0.2-0.1,0.2-0.2c-0.2,0.3-0.4,0.4-0.3,0.7c-1.2-0.2-2.1-0.6-2.6,0.7c0.1,0.1,0.3,0.2,0.4,0.4
		c-0.1,0-0.2,0.1-0.3,0.1c0,0.1-0.1,0.2-0.1,0.3c0.5,0.5,0.8,0.7,1.4,0.9l0.1,0.7c0.2,0.1,0.2,0.1,0.4,0.1c0.3,0.3,0.1,0.5,0.2,0.6
		c0.3,0.4,1.6,1.1,1.9,1.5c0.1,0.1,0,0.4,0.2,0.5c0.5,0.3,1,0.5,1.4,0.8c0.2,0.1,0,0,0,0.2c0.9,0.4,2.3,0.4,3.1,0.8
		c0.1,0.1,0.1,0.1,0,0.3c0.8,0.2,1.6,0.4,2.4,0.7c0.1,0,0.1,0,0.2-0.1c0-0.2,0-0.2-0.1-0.4c0.5-0.3,0.6-0.8,0.9-1.2
		c-0.2-0.3-0.2-0.3-0.2-0.7c0.7-0.1,0.9-0.5,1.4-0.6c-0.1-0.3,0-0.4-0.3-0.5c0.2-0.1,0.1-0.1,0.4,0c0.1-0.1,0.1-0.1,0.2-0.2
		c-0.2-0.2-0.3-0.3-0.5-0.5c0,0-0.1,0-0.1,0v-0.1c0.3,0.1,0.6,0.2,1,0.1c0,0,0.1,0,0.1-0.1c-0.1-0.1-0.2-0.2-0.2-0.3
		c0,0,0-0.1,0.1-0.1c0.4,0.2,0.7,0.3,1.4,0.3c0-0.1,0.1-0.3,0.1-0.5c0.1,0,0.2,0,0.3,0c-0.1,0.1-0.2,0.3-0.3,0.4c0,0,0,0.1,0.1,0.1
		c1.4,0.3,2.3-0.2,3.6-0.4c0-0.1,0-0.2,0-0.4c1.6-0.4,3.8,0.5,5.3,0.4c0.5,0-5.6-3.9-11.9-5.4C218.6,5.5,213,6.5,213.1,6.7
		 M224.1,12.6c-0.2-0.1-0.1,0-0.2-0.1C224.1,12.6,224,12.5,224.1,12.6 M159.8,141.3c1.3,0.9,2.5,1.8,3.2,3.2
		c0.6,0.6,1.1,1.1,1.7,1.7c0,0.3-0.1,0.5-0.1,0.8c0.1,0.8,0.5,1.9,0.3,2.7c-0.1,0.4-0.2,0.9-0.2,1.3c0.1,0.3,0.1,0.5,0.2,0.8
		c-0.1,0.8-0.5,1.6-0.5,2.6c-0.2,0.1-0.1,0-0.4,0c0,0.3,0,0.6-0.1,0.8c0.1,0,0.2,0,0.3,0c-0.1,0.5-0.1,1.1-0.2,1.6
		c0.1,0.5,0.1,1,0.2,1.6c-0.1,0.2-0.4,0.3-0.5,0.6c0,0.2,0.1,0.4,0.1,0.6c-0.1,1.1-0.3,2-0.6,2.6c-0.3,0.7,0,1.3-0.6,1.7
		c0.1,0.8,0.4,1.3,0.3,2.1c-0.2,0.1-0.1,0.1-0.4,0.1c-0.1,2,0.8,3,0.2,4.5c0.1,0.1,0.3,0.6,0.2,0.8c-0.5,1.3-1.1,2.5-1.2,4.1
		c-0.1-0.1-0.1-0.1-0.2-0.1c0,0.3,0,0.5,0,0.8c-0.2-0.1-0.4-0.1-0.5-0.2c0,0,0,0-0.1,0.1c0.1,1.1,0.6,2.2,1.1,3.1
		c0,1.2-0.8,1.6,0.1,3c0,0.1,0,0.2,0,0.2l-0.3-0.2c-0.2,0.6,0.1,1.2,0,1.8c0.2,0.2,0.4,0.3,0.8,0.4c0.1,0,0.1,0,0.2-0.1
		c0.1-0.6,0.1-1.4-0.3-1.8c0.1,0,0.1-0.1,0.1-0.1c0.1,0.1,0.3,0.1,0.4,0.2h0.1c0-0.3,0.1-0.2-0.1-0.2c0-0.1,0.1-0.2,0.1-0.2l0.3,0.4
		c-0.1,0.1-0.1,0.2-0.2,0.2c0.3,0.2,0.4,0.9,0.1,1l0.3,0.2c-0.2,1,0,1.7,0,2.8h-0.1c-0.1-0.3-0.3-1.2-0.2-1.3
		c-0.2-0.3-0.4-0.5-0.8-0.7c-0.2,0.3-0.3,0.7-0.3,1.1c0.2,0.2,0.3,0.3,0.5,0.5c0,0.3,0,0.6,0,0.8h-0.4v0.1l0.2,0.4
		c-0.2,0.1-0.3,0.2-0.5,0.4c0,0.1,0,0.2,0,0.2c0.1,0.1,0.3,0.2,0.4,0.2l0.2-0.2c0.3,0.2,0.8,0.3,1.1,0.6c-0.1,0-0.2-0.1-0.2-0.1
		c0.1,0.2,0.1,0.1,0.2,0.2c-0.1,0.2-0.1,0.4-0.2,0.6c-0.2-0.1-0.2-0.2-0.6-0.2v0.1c0.1,0.1,0.1,0.1,0.2,0.2
		c-0.1,0.1-0.2,0.1-0.3,0.2c0.3,0.6,0.4,1.4,0.8,1.9c0.3,0.1,0.5,0.3,0.8,0.4c-0.2,0-0.3-0.1-0.5-0.1c0,0,0,0,0,0.1l0.2,0.7
		c0.1,0,0.2,0.1,0.3,0.1c0.1-0.2,0.1-0.4,0.2-0.5c0.1,0.1,0.1,0.3,0.2,0.4h-0.2c0,0,0,0-0.1,0.1c0.2,0.4,0.3,0.5,0.3,1
		c0.2-0.1,0.5-0.2,0.7-0.2c0.1,0.1,0.1,0.2,0.3,0.2c0,0.1-0.1,0.2-0.1,0.2c-0.2-0.1-0.4-0.1-0.6-0.2c0,0.1,0,0.1-0.1,0.1
		c0.2,0.4,0.5,0.6,0.9,0.8c0-0.1-0.1-0.2-0.1-0.2c0.3,0.3,0.7,0.5,1,0.8c0,0,0,0,0,0.1c-0.3-0.1-0.6-0.3-0.9-0.4
		c0.4,0.5,0.7,0.7,1.2,0.8c0,0.2,0,0-0.1,0.2c0.5,0.4,2.3,1.7,2.9,1.6c0,0.2,0,0.1-0.1,0.2c0.6,0.5,2.3,1.2,3.2,1.4v-0.1
		c-0.1-0.1-0.3-0.3-0.4-0.4c0.4,0.1,0.8,0.1,1,0.2c0,0,0,0,0,0l0,0c0.1,0.1,0.2,0.1,0.4,0.2c0-0.1,0-0.2,0-0.2
		c0.3,0,0.5,0.1,0.8,0.1h0.1c0-0.1,0-0.1,0.1-0.1c0-0.1,0-0.1,0-0.2c-1.6-0.2-2.1-1.6-3.4-1.9c0.1-0.1,0.1-0.2,0.2-0.2
		c-0.4-0.4-0.8-0.4-1.2-0.8c0,0-0.1,0-0.1-0.1l0.2-0.1c0.3,0.1,0.6,0.2,0.9,0.4c0,0,0,0,0-0.1c-0.5-0.6-1.2-1-1.3-2
		c0-0.1,0-0.1,0-0.1c0.3-0.1,0.5-0.1,0.8-0.2c0.2-0.2,0.1-0.5,0.1-0.9c0.4-0.3,1.1-0.4,1.4-0.8c0.1-0.2,0.1-0.5,0.1-0.9
		c-1-0.6-2.4-0.8-2-2.2c0.4-0.3,1-0.5,1.6-0.2h0.2c-0.1-0.2,0-0.1-0.2-0.2c0.1-0.2,0.2-0.2,0.4-0.3c0.1-0.4-0.1-0.7-0.2-1
		c0.2-0.4,0.5-0.5,1-0.5c-0.1-0.3-0.5-0.3-0.7-0.5c0,0-0.1,0-0.1-0.1c0.1-0.1,0.3-0.1,0.4-0.2c0.3,0.2,0.4,0.4,0.6,0.7
		c0.2,0,0.3,0,0.5,0.1c0.1-0.1,0.1-0.1,0.2-0.2c0-0.4,0-0.5-0.2-0.7c0-0.1-0.1-0.1-0.1-0.2c-0.2,0-0.4,0.1-0.7,0.1
		c0.1,0.1,0.2,0.2,0.3,0.2v0.1c-0.1,0-0.3-0.1-0.4-0.1c-0.2-0.2-0.2-0.3-0.6-0.4c-0.2-0.3-0.2-1-0.4-1.5c0.4-0.5,1.4,0.6,2,0.7
		l1.4-0.1c0.1-0.2,0.2-0.4,0.3-0.7c-0.1,0.1-0.1,0.1-0.2,0.1c-0.1-0.1-0.2-0.2-0.2-0.2c0.3-0.4,0.7-0.9,0.5-1.4
		c0.1,0,0.2,0.1,0.2,0.1h0.1c0-0.1-0.1-0.2-0.1-0.4c0.8,0.3,4.5,0.9,5.6,0.3c0.2-0.1,1.1-1.2,1.4-1.5c0-0.3,0-0.6,0-0.8
		c-0.5-0.2-0.7-0.2-0.8-0.8c0.1-0.2,0.3-0.3,0.5-0.4c-0.2-1-1.3-1.1-1.8-2c0.1-0.1,0.2-0.2,0.2-0.3c0.1,0,0.1,0,0.2-0.1
		c0.2,0.2,0.3,0.3,0.4,0.6c0.4,0.1,0.7,0.2,1.1,0.2c0.3,0.2,0.7,0.9,1.2,1c0.4,0.1,0.6-0.2,1,0c0.3,0.1,0.5,0.5,0.9,0.4
		c1.2-0.1,1.4-0.7,2.1-1.2c0.4-0.2,0.8-0.4,1.2-0.5c0.3-0.4,0.6-0.8,0.9-1.2c0.8-0.3,1.5-0.7,2.3-1c0.9-0.6,1.4-1.7,2.3-2.4
		c1.1-0.8,2.4-1,2.8-2.5c-0.1,0-0.2,0-0.2-0.1c0.2-0.6,0.2-1.3,0.5-2.1c0.2-0.7,4.3-2.7,5.4-2.4c0.2,0.2,0.5,0.4,0.7,0.5
		c0-0.1,0.1-0.3,0.1-0.4c-0.1,0-0.2-0.1-0.2-0.1v-0.1c0.5-0.1,1-0.9,1.6-0.7c0.2-0.2,0.2-0.1,0-0.3c0-0.1,0-0.1,0-0.2
		c1.1,0,3.2,0.4,4.2,0.9c0.1-0.2,0.1-0.2,0.3-0.2c-0.1-0.9,1.1-0.6,1.7-0.9c0.4-0.4,0.5-1.4,1.2-1.8c1.1-0.5,1-0.9,1.8-1.4
		c0.3-0.2,0.7-0.2,0.9-0.5c0.8-1.2,0.2-1.8,1.9-2.4c0.3-0.9,0.5-1.5,1-2.2c0.3-0.3,0.5-0.6,0.8-0.9c0.3-0.8,0.1-1.4,0.4-2.1
		c0.3-0.8,1-1.2,1-2.2c0.7-0.4,1.4-0.2,2-0.7c1-0.9,2-1.7,3-2.6c0.4-0.1,0.7-0.1,1.1-0.2c0.4-0.3,0.9-0.7,1.3-1c1.6-1,2.9-2,3.6-4
		c0-0.2,0-0.5,0-0.7C198.7,140,159.8,141.3,159.8,141.3 M168.1,195.2c0,0-0.1-0.1-0.1-0.1c0,0,0.1,0,0.1-0.1c0.1,0,0.1,0.1,0.2,0.1
		C168.3,195.2,168.2,195.2,168.1,195.2 M168.6,195.8c0.1-0.1,0.2-0.2,0.4-0.2c0.1,0,0.1,0,0.2,0.1h0.1
		C169.1,195.9,169,195.8,168.6,195.8 M170.2,197.5c0-0.1,0-0.1-0.1-0.1h0.1C170.2,197.4,170.2,197.5,170.2,197.5 M171,196.5
		L171,196.5c-0.2,0.1-0.3,0.1-0.5,0.2v0.1c0.1,0.1,0.2,0.3,0.3,0.4c-0.3-0.1-0.4-0.4-0.5-0.6c-0.1,0-0.1,0-0.1-0.1
		c-0.1,0.1-0.1,0.3-0.2,0.4c-0.1,0-0.1,0-0.2-0.1c0-0.3-0.1-0.7-0.2-1.2c0.4,0.1,0.4,0.3,0.4,0.7C170.4,196.4,170.6,196.4,171,196.5
		 M170.5,195.6l0.1,0.1c-0.1,0-0.2,0.1-0.2,0.1c-0.1-0.1-0.1-0.1-0.2-0.2c0,0-0.1,0-0.1-0.1l0.2-0.1L170.5,195.6z M176,181.4
		c0.3,0.1,0.2,0.2,0.3,0.4v0.1C176,181.8,176.1,181.7,176,181.4 M192.5,174.2c0,0.1,0,0.2,0,0.3c-0.3,0.2-0.7,0.5-1.3,0.5
		c-0.1-0.1-0.2-0.1-0.3-0.1c0,0,0,0,0-0.1c0.6-0.4,1.3-0.8,1.6-1.5c0.3,0,0.5-0.1,0.8-0.1c0,0.2,0,0.4,0,0.5
		C193.1,174,192.9,174.2,192.5,174.2 M197.5,170.2c0-0.1,0-0.1,0.1-0.2c0,0,0,0,0.1,0.1C197.6,170.1,197.6,170.2,197.5,170.2
		 M197.7,169.9c0-0.1,0-0.1,0.1-0.2h0C197.7,169.9,197.8,169.8,197.7,169.9 M208.4,164c0.1,0,0.1,0,0.2,0c-0.1,0.1-0.2,0.2-0.3,0.2
		C208.4,164.1,208.4,164,208.4,164 M160.1,59.3c0.3,0.5,1.4,0.2,1.6,0.2c0-0.7,0.9-1.5,1.2-2.2c0.4-0.9,0-2.1,0-3.3
		c0.1,0,0.2-0.1,0.4-0.1c-0.1-0.8-0.3-1.7-0.4-2.5c0.3-3.2,2.8-4,5.4-4.7c1.2-0.4,0.8-1.4,2.9-0.9c0.5-1.1,2.4-0.8,3.5-1.1
		c0,0,0.1-0.1,0.1-0.1c-0.2-0.2-0.2-0.1-0.3-0.4c0,0,0,0,0-0.1c0.3-0.2,1.2-0.4,1.5-0.4c0.1-0.2,0.2-0.3,0.3-0.5
		c-0.2-0.3-0.6-0.4-1-0.5v-0.1c0.4,0.1,0.7,0.1,1.1,0.2c0,0.1,0,0.3,0,0.5c0,0,0.2-1.2,0.2-1.8c-0.1,0-0.2-0.1-0.4-0.1
		c-0.2-0.1-0.1,0-0.1-0.3c0-0.2,0.4-0.8,0.6-1.1c-0.2-0.1,0-1.1,0-1.4c0.3-0.2,0.6-0.5,0.8-0.7c-0.7,0.9-0.3,0.9-0.6,2.1
		c0.2,0.1,0.4,0.1,0.5,0.2c-0.3,0.3-0.7,0.4-0.9,0.9c0,0-0.1,0.1-0.1,0.1c0.1,0.1,0.1,0.1,0.3,0.1c0.3-0.7,1.7-1.2,2.3-2.2
		c-0.4-0.4-0.2-0.6-0.4-1.1c0.3,0.2,0.4,0.5,0.8,0.6c-0.1,0.1-0.2,0.2-0.2,0.3c0,0,0,0,0,0.1c0.9,0.1,2.1-1.1,2.5-1.7
		c-0.1-0.2,0-0.1-0.2-0.2c0,0,0-0.1-0.1-0.1c1.1-0.1,2.6,0.2,3.7,0c-0.1-0.1-0.2-0.2-0.3-0.3c-0.9,0.1-1.7-0.2-2.5,0
		c1-0.8,4.2,0.3,5.6-0.2c0.2,0.4,0.5,0.4,1.2,0.4c0.1-0.1,0.2-0.2,0.2-0.3c-0.1-0.1-0.1-0.2-0.2-0.3c-0.2,0.3,0,0.3-0.4,0.3
		c-0.2,0-0.3,0-0.5-0.1c-0.1-0.4,0.1-0.8-0.6-0.9c0,0,0-0.1,0-0.1c0.3-0.1,0.6-0.1,0.8-0.2c-0.1-0.1-0.1-0.2-0.2-0.4
		c0.4-0.5,1.2-0.8,1.6-1.1c0.9,0.2,1.5,0.2,2.4-0.4c0.1,0.2,0.1,0.1,0.1,0.4c1.2-0.1,2.2,0,3.4-0.3c-0.1-0.1-0.1-0.2-0.2-0.4
		c0.1,0,0.7,0.2,0.9,0.3c0.9,0.2,2.6,0,3.4-0.2c0,0,0.1,0.1,0.1,0.1c-0.3,0.1-0.6,0.1-0.8,0.2c0,0,0,0.1-0.1,0.1
		c0.3,0.1,0.6,0.1,0.9,0.2c-1.1,0.2-2.2,0.4-3.4,0.5c0,0-0.1,0.1-0.1,0.1c0.1,0,0.3-0.1,0.4-0.1c-0.1,0-0.2,0.1-0.2,0.1
		c-0.3,0.4-0.4,0.4-0.4,1c0.1,0,0.2,0,0.4,0c0.2,0.3,0.1,0.5,0.5,0.5c0.8,0.1,1.6-0.5,2.5-0.5c0.1-0.2,0-0.3,0.3-0.4
		c0,0.1,0.1,0.1,0.1,0.2c0.1-0.1,0.2-0.1,0.2-0.2c0.1,0.4,0.3,0.4,0.6,0.5c0.5-0.5,3.6,0.1,4.5-0.1c0,0,0.1,0,0.1,0
		c-0.2-0.2-0.4-0.2-0.7-0.2c0.2-0.1,0.2-0.1,0.3-0.2c0.7,0.2,1.5,0.1,2.5,0.1c0-0.1,0-0.1,0-0.2c0-0.4-0.5-0.6-0.9-0.7V34
		c0.2-0.2,0.3-0.4,0.5-0.6c-0.1-0.2-0.1-0.1-0.1-0.3c-0.1,0-0.2-0.1-0.4-0.1c-0.6,0.3-1.9,0.6-2,1.4c-0.4,0.1-0.6,0.1-0.6-0.4
		c-1.4,0.1-1.9-0.5-3-0.7c-0.1-0.1-0.2-0.2-0.2-0.3c0.1,0,0.2,0,0.2,0c0,0,0-0.1,0.1-0.1l-1.1-0.4c-0.2-0.1-0.4-0.7-0.5-0.9
		c0.1-0.1,0.2-0.1,0.3-0.2c-0.2-0.1-0.3-0.2-0.6-0.2c0,0,0-0.1,0-0.1c0.6-0.1,0.9-0.4,1.5-0.6c0-0.1,0.1-0.2,0.1-0.2v-0.1
		c-0.6,0.2-1.1,0.1-2,0.1c-0.1-0.4-0.4-0.6-0.9-0.7c0,0,0-0.1-0.1-0.1c0.8,0.1,1.1,0.4,1.8,0.5c0.6-0.1,1.2-0.1,1.8-0.2
		c0-0.1,0-0.1,0-0.2c0.2-0.1,0-0.1-0.1-0.3c0.1,0,0.2,0.1,0.2,0.1v-0.1c-1.4-1.9-6.5-1.2-8.6-0.9c-0.9,0.2-1.5,1-2.7,1
		c0.5-0.5,3.6-1.7,4.6-1.9c0,0,1.9,0.1,2,0.1c0.2-0.2,0.4-0.4,0.5-0.6c0.8-0.4,2-0.3,3,0c1.4,0.4,2.6,0.5,4,1
		c0.8,0.3,3.4,1.3,4.2,1.2c0.7-0.1,1.3-0.3,1.9-0.6c1.4-0.6,4.3,0.9,5.2-0.2c0.1-0.2,0,0-0.1-0.3c0,0,0.1,0,0.1,0.1
		c0.2-0.3,0-1.2,0.2-1.5c-0.3-0.1-0.7-0.2-1-0.4c0-0.2,0-0.1,0.1-0.2c-0.6,0-0.6-0.2-1-0.1c-0.1-0.7-0.7-0.9-1.5-1c0,0,0,0,0-0.1
		c0.5,0.1,1,0.1,1.5,0.2c-0.3-0.4-0.9-0.5-1-0.8c-0.5-0.1-0.9,0-1.3-0.3c-0.2-0.1-0.2-0.2-0.2-0.4c-0.2-0.2-0.9-0.1-1.1-0.3
		c-0.3-0.2-0.3-0.4-0.7-0.6c-0.1-0.2-0.1-0.1,0.1-0.3c-0.1-0.1-1.1-0.9-1.5-0.9c0.2-0.2,0.1-0.1,0.3-0.1c0-0.1,0-0.5,0.1-0.9
		c-0.1-0.1-0.3-0.1-0.4-0.2c0,0,0.1-0.3,0.1-0.7c-0.5-0.2-1.1-0.4-1-1c-0.1,0-0.2,0-0.3,0c-0.3-0.5-1.7-2.2-1.7-2.8
		c-1.4,0.4-3.3,2.7-5.2,1.1c-0.3,0-0.5-0.5-1.2-0.6c0-0.2,0-0.3-0.1-0.5c-0.1,0-0.3,0-0.4-0.1c0.2-0.5,0.4-0.5,0.3-1.2
		c0.2-0.1,0.4-0.2,0.6-0.3c-0.1-0.1-0.1-0.2-0.2-0.3c-0.2,0.1-0.4,0.1-0.5,0.2c-0.4-0.4-1.2-0.6-1.9-0.8c0,0,0-0.1-0.1-0.1V13
		c0.1-0.1,0.1-0.1,0.3-0.1c0,0,0,0,0-0.1c-0.4-0.4-1.4-1.1-2-1.3c-0.5,0-1,0-1.5,0.1c-1.2-0.4-2.4-0.9-3.6-0.9
		c-0.1,0.1-0.2,0.2-0.4,0.3c0,0.1-0.1,0.1-0.1,0.2c0.1,0.1,0.1,0.1,0.3,0.2c-0.2,0.3-0.6,0.5-1.1,0.5c0.5,0.5,0.1,0.6,0.4,0.9
		c-0.2,0.2-1.6,0.8-2.1,0.8c-0.1,0.1-0.1,0.2-0.2,0.3c0.7,0.2,1.4,0.8,1.4,1.7c-0.6,1.4-2,1.6-3.7,1.9c-0.6,0-1.2,0-1.8,0h-0.1
		c0.1,0.3,0,0.6,0.3,0.7c-0.3,0.6-1,1.3-0.5,2c-0.3,0.2-0.7,0.5-1.1,0.5c0,0.2,0,0.3,0,0.5l-0.2,0.1c0-0.2-0.1-0.2-0.2-0.5
		c-0.5,0.1-0.7,0.3-1.1,0.5l-0.6-0.3c-0.2-0.9-0.8-1.5-1.2-2.3c0.3-0.3,0.6-0.5,0.8-0.8c0-0.1,0-0.3-0.1-0.4c0.3-0.4,0.7-0.5,1-0.9
		c-1.2-0.1-4.7-1.2-5.4-1.8c-0.2-0.2-0.3-0.8-0.7-1c-0.5-0.2-1.1-0.5-1.6-0.7c-0.6,0-1.2,0-1.8,0c0,0-0.1,0-0.1,0
		c0.4-0.4,0.7-1.1,1-1.6c-0.3-0.2-0.7-0.2-1.2-0.2c0-0.1,0-0.2,0-0.3c1.1-1.3,4.8-2.7,6.4-2.6c-0.1-0.1-0.2-0.2-0.2-0.3
		c0.6,0,1.2,0.1,1.8,0c0.2-0.3,0.2-0.3-0.1-0.5c0,0-0.1,0-0.1,0c0,0,0,0,0-0.1c0.9,0.3,4,0.2,5.4-0.5c0.2-0.1,0.1-0.1,0-0.2
		c0.6-0.1,1.2-0.3,1.8-0.4c0,0,0.1,0,0.1,0c0,0,0-0.1,0-0.1c-0.1-0.1-0.2-0.1-0.4-0.2l-0.1-0.1c0.4,0,0.8,0.1,1.2,0.1
		c0,0.3,0.9,0.9,1.2,1c0.1-0.1,0,0,0.1-0.2c0,0,0,0,0.1-0.1c-0.2,0-0.1,0-0.2,0.1c-0.1-0.2-0.1-0.2-0.4-0.4c0,0,0,0,0-0.1
		c0.2,0.1,0.4,0.2,0.6,0.3c0-0.2,0-0.3,0-0.5c0.2,0.2,0.5,0.3,0.7,0.5c0-0.1,0-0.1,0-0.2c1-0.2,1.9-0.2,2.7-0.4
		c-0.2-0.2-0.3-0.3-0.5-0.5c0,0-5.4-3.1-11.8-3c-4.1,0.1-18.9,5.2-30.6,11.1c-8.9,4.5-15.8,10.1-16.2,10.5c-3.6,3.1-7,6.9-8.8,11.5
		c-0.2,0.2-0.4,0.5-0.6,0.7c-0.2,0.3-1.2,3-1.2,3.1c0.2,0,0.3,0,0.5,0.1c-0.1,0.8,0.4,0.8,0.2,1.8c-0.3,1.4-1.3,3.1-1.7,4.7
		c-0.1,0.3-0.4,1.1-0.3,1.5c0.1,0.5,0.3,1.2,0.1,1.9c-0.2,0.4-0.4,0.8-0.7,1.1c-0.3,0-0.4,0.1-0.7,0l0,0c-0.1,0.8,0.2,1.2,0.2,1.9
		c0.2,0,0.1,0,0.3-0.1c0.5,1.2,0.3,2.5-0.7,3.4c0.3,1.2,0.9,1.8,0.6,3.5v0.1c0,0,0.1,0,0.1,0c1-1.1,0.8-0.9,0.9-2.3
		c0-0.1-0.1-0.3-0.1-0.4c-0.1,0.1-0.2,0.2-0.3,0.3c0,0,0,0-0.1,0c-0.1-0.9,0.8-3.1,0.9-4.1c0.1-0.6-0.2-1.7,0-2.4
		c0.4-1.7,0.6-5.5,2-6.6c0.1,0.1,0.1,0.3,0.2,0.4c0.1-0.1,0.2-0.1,0.2-0.1c0.3,1-1,2.5-0.8,3.8c-0.3,0.3-0.5,0.4-0.7,0.7
		c0.1,0.1,0.1,0.1,0.2,0.2c0.1-0.1,0.2-0.2,0.3-0.3c0,0.3-0.2,1.4,0.2,1.8c0.1,0.2,0,0.1,0.2,0c0,0,0.1,0.1,0.1,0.1
		c-0.2,0.4-0.4,0.6-0.3,1.2c0.1,0.1,0.1,0.1,0.3,0.1c0,0.2-0.1,0.5-0.2,0.7c0.1,0,0.2,0,0.3,0c0,0.8-0.3,1-0.7,1.5
		c0.1,0.7,0.4,0.9,0.7,1.4c-0.2,0.2-0.2,0.4-0.3,0.7c0.6,0.8,1.3,5.9,0.2,6.6c0,0-0.1,0.1-0.1,0.1c0,0,5.5-0.2,10.2-0.5
		c0.1,0,0-0.1,0.1-0.2c-0.6-1.2,0.3-2.5,0.8-3.6c0.4-1,0.8-2,1.2-2.9c0.4-0.4,1.1-0.3,1.3-1.2c0.1-0.5-0.1-1.1,0.2-1.8
		c0.3-0.6,0.9-0.8,0.9-1.6c0.4,0,1-0.2,1.1-0.6c0.1-0.1,0.1-0.2,0.2-0.3c0,0.2,0,0.2-0.1,0.4c0.3-0.1,0.2-0.2,0.3-0.1
		c0.1-0.1,0.1-0.2,0.2-0.3c-0.1-0.1-0.1-0.2-0.2-0.3c1,0.1,1.7-0.3,2.6-0.8c0.5,0.2,0.3-0.2,0.3-0.5c0.1-0.2,0.3-0.2,0.5-0.3
		c0,0,0,0,0.1,0.1c-0.1,0.1-0.2,0.2-0.2,0.3c0.1,0,0.2,0.1,0.2,0.1c0.2,0.2,1.2-0.3,1.7-0.2c0.5,0.1,1.7,0.5,2.1,0.7
		c0.1,0,0.1,0,0.2,0v-0.2l-0.4,0c0-0.1,0-0.1-0.1-0.2c0.2-0.1,0.3-0.1,0.5-0.1c0.1,0.2,0.4,0.5,0.6,0.8c0,0-0.1,0-0.1,0.1
		c0,0.1-0.1,0.1-0.1,0.2c0.2,0.2,0.4,0.3,0.6,0.4l0.8-0.3c0,0.1,0.1,0.3,0.1,0.4c0.4-0.1,0.4-0.3,0.7-0.6c0.2,0.3,0.4,0.6,0.7,0.8
		l0.2,0.1c0,0,0,0,0.1,0c0.1-0.1,0.2-0.2,0.2-0.3l-0.6-0.5c0,0-0.1-0.1-0.1-0.1c0.2-0.2,0.3-0.3,0.6-0.3c0.1-0.2,0.1-0.2,0.1-0.5
		c-0.2,0.1-0.3,0.2-0.5,0.2c0,0,0,0-0.1,0l-0.1-0.2c0.9-0.6,2-0.4,2.9-0.3c0.1-0.1,0.1-0.3,0.2-0.4c0.1,0,0.1-0.1,0.2-0.1
		c0,0.2,0,0.5,0,0.7c1.3,0.2,2.3-0.4,3.2,0.7c0.2,0.2,0.2,0.7,0.4,0.8c0.4,0.4,1.7-0.4,2.2-0.4c0.3,0.4,0.8,1.7,1.2,1.8
		c0.5,1.1-0.9,1.7-0.7,2.5c0,0,0.1,0,0.1,0.1c0.2-0.2,0.2-0.2,0.1-0.5c0,0,0.1,0,0.1-0.1c0.1,0.3,0,0.2,0.3,0.3
		c-0.2,0.2-0.4,0.3-0.7,0.5c-0.1,0.2,0.1,0.8,0.1,1.3c0.1,0,0.2,0.1,0.3,0.1c0-0.1,0.1-0.2,0.1-0.2c0,0,0,0.1,0.1,0.1
		c-0.2,0.3-0.2,0.4-0.4,0.7c0.1,0,0.1,0,0.2-0.1c0.1,0.2,0.2,0.3,0.1,0.6C159.6,58.4,160.5,58.4,160.1,59.3 M184.8,36.9
		c0,0,0.1,0,0.1-0.1c0.1,0,0.1,0,0.2,0C185,36.9,184.9,36.9,184.8,36.9C184.8,36.9,184.8,36.9,184.8,36.9 M206.8,34.2
		c0,0,0.1,0,0.1,0c0.1,0.2,0,0.1-0.2,0.1C206.8,34.3,206.8,34.3,206.8,34.2 M206.4,34.4c0.1,0,0.2,0,0.3,0c0,0.1,0,0.1,0.1,0.2v0.1
		c-0.2,0-0.5,0-0.7,0C206.2,34.5,206.3,34.5,206.4,34.4 M201.8,34c-0.4,0.1-0.7,0.1-1.1,0.1c-0.1,0-0.1-0.1-0.2-0.1
		c0-0.1,0-0.1,0.1-0.2C201,33.9,201.4,33.9,201.8,34 M214.5,25.8c0.1,0,0.2,0.1,0.2,0.1c0,0,0,0,0,0.1c-0.1,0-0.1,0.1-0.2,0.1
		C214.5,25.9,214.5,26,214.5,25.8 M210.3,24.7l0.4-0.1c0.6,0.1,1.1,0.2,1.7,0.2c-0.7,0.1-1.5,0.2-2.3,0.2
		C210.2,24.8,210.2,25.1,210.3,24.7 M187.1,36.3c0,0.1,0,0.1-0.1,0.2C187,36.4,187.1,36.4,187.1,36.3 M122.7,43.4
		c0-0.1,0.1-0.1,0.1-0.2C122.8,43.3,122.9,43.3,122.7,43.4 M123.2,42.9C123.2,42.9,123.2,42.9,123.2,42.9c0-0.6,0.3-1,0.5-1.7
		C124.1,42,123.5,42.5,123.2,42.9 M143.8,48.8c0-0.1,0.1-0.1,0.1-0.2C143.9,48.7,143.9,48.7,143.8,48.8 M149.8,49c-0.3,0-0.6,0-1,0
		c0.1-0.3,0.3-0.3,0.5-0.5C149.5,48.6,149.6,48.8,149.8,49C149.8,48.9,149.8,49,149.8,49 M194.6,9.6c0.7,0.1,1.7,0.2,2.5,0.6
		c0.8,0.4,1,0.9,1.9,1c-0.2,0.1-0.3,0.1-0.6,0c0.2,0.3,0.4,0.5,0.9,0.6c-0.1,0-0.2,0.1-0.2,0.1c0.2,0.2,0.4,0.4,0.7,0.5
		c0.1,0,0.2,0,0.2,0c-0.1-0.2,0-0.2-0.2-0.3v-0.1c1.7,0.5,3.2,1.7,5.2,2c0.1-0.3,0-0.1,0.2-0.2c0,0,0,0,0-0.1
		c-0.6-0.8-1.9-1.6-2.8-2l-0.1-0.2c0.4,0.2,0.7,0.4,1.1,0.6c0-0.1,0-0.2,0-0.2c1,0.6,2.2,1.4,3.3,2c0.1,0,0.2,0,0.3-0.1
		c0,0,0.1,0,0.1,0v-0.1c-0.4-0.2-0.6-0.2-0.8-0.6c0.2,0.1,0.3,0.1,0.5,0.2c0,0,0,0,0.1,0c0-0.2,0-0.2-0.2-0.4c0,0,0-0.1,0.1-0.1
		c0.1,0.1,0.1,0.1,0.2,0.2c0.4,0,0.3-0.1,0.4-0.3c0.1,0.2,0.1,0.2,0.3,0.3c0,0,0.1,0,0.1,0c0-0.1-0.1-0.1-0.1-0.2c0.1,0,0.3,0,0.4,0
		c0,0,0-0.1,0-0.1c-0.4-0.2-0.7-0.5-1.1-0.6c0,0,0-0.1-0.1-0.1c0.1,0,0.2,0,0.4-0.1c0,0,0,0,0-0.1c-0.3-0.3-1.3-1.1-2.1-1
		c0-0.3-0.2-0.8-0.6-0.9c0.2,0,0.3,0,0.5,0c0,0,0-0.1,0.1-0.1c-0.1-0.1-0.1-0.2-0.2-0.2c0.8,0.1,1.4,0.7,2.1,0.7
		c-0.2,0.8,1.3,1,1.8,1.4c0.4-0.1,0.4-0.2,0.7-0.2c-0.1,0-0.1-0.1-0.2-0.1c0.1-0.2,0-0.1,0.2-0.2c0.3,0.1,0.6,0.2,0.9,0.1
		c0,0.1,0,0.2,0,0.2c0.1,0,0.3,0,0.4,0c-0.1-0.1-0.1-0.2-0.2-0.2c0.2-0.1,0-0.1,0.2,0c0.1,0,0.1,0,0.2-0.1c-0.1-0.1-0.2-0.2-0.2-0.3
		c0.5,0.1,0.7,0.1,1.2,0c-0.2-0.5-0.8-0.7-1.4-0.7c-0.1-0.2,0-0.1,0.2-0.2c-0.2,0-0.4,0-0.6,0c-0.2-0.1-0.4-0.4-1-0.5
		c0.1-0.1,0-0.1,0.2-0.1c-0.2-0.2-0.8-0.5-1.1-0.5c0,0-0.1-0.1-0.1-0.1c0.1,0,0.2-0.1,0.2-0.1c-0.6-0.1-0.8-0.3-1.2-0.1
		c-0.4-0.3-0.3-0.4-0.9-0.5c0-0.1,0.1-0.1,0.1-0.2c-0.5-0.1-0.9-0.2-1.4-0.4c0,0,0,0,0-0.1c0.1,0,0.2,0,0.4-0.1c0-0.2,0-0.1,0-0.3
		c0.4,0.1,0.8,0.2,1.3,0.4c0.1,0,0.1-0.1,0.1-0.1c-0.3-0.3-0.6-0.4-1-0.4c0-0.1,0-0.1,0.1-0.2c0.2,0.1,0.4,0.1,0.6,0.2
		c0,0,0.1,0,0.1-0.1c0-0.1,0-0.1,0-0.2c-0.5-0.4-0.6-0.4-1.5-0.4c0.2-0.2,0.3-0.2,0.6-0.2c0,0,0,0,0-0.1c-0.6-0.4-1.5-0.2-2.1-0.6
		c0,0-0.5-0.6-0.6-0.7c-0.4-0.2-1.9-0.6-2.2-0.6c0-0.1,0.1-0.1,0.1-0.2c-0.6-0.2-1.1-0.4-1.7-0.7c0,0-0.1,0-0.1,0h0.1
		c0.2,0,0.3,0,0.5,0c0,0,0,0,0-0.1c-0.3-0.4-2.9,0.7-3.4,1.3c-0.2-0.1,1.1,1,0.7,0.9c0,0.1-0.1,0.1-0.1,0.2c0,0-0.1,0-0.1,0
		c0.2,0.3,1.4,0.2,1.7,0.2c0,0,0,0.1,0.1,0.1c-0.2,0.1-0.3-0.1-0.6,0c0,0-0.1,0-0.1,0c0.2,0.4,0.6,0.3,0.9,0.2l0.2,0.4
		c-0.3-0.1-0.4-0.1-0.8-0.1c0.1,0.4,0.8,0.5,1.3,0.5c0-0.1,0-0.2,0.1-0.2c-0.2,0-0.4-0.1-0.6-0.1c0-0.1,0-0.2,0.1-0.3
		c0.4,0.1,0.5,0.3,1,0.4c0.1,0.3,0.2,0.6,0.3,0.9c-0.9,0.1-1.8,0.2-2.7,0.3c0,0-0.1,0.1-0.1,0.1c0.2,0.2,0.4,0.4,0.6,0.6
		c0,0,0,0,0,0.1c-0.6-0.2-1.3,0-1.9-0.1c-1.3-0.2-2.2-0.9-3.5-0.1c0,0.1,0,0.1,0.1,0.2C192.8,9.7,193.9,9.5,194.6,9.6 M202.6,9.3
		c-0.2-0.1-0.1,0-0.2-0.1C202.5,9.2,202.6,9.2,202.6,9.3 M199.1,6.8c0.1,0,0.1,0.1,0.2,0.1C199.1,6.8,199.2,6.9,199.1,6.8
		 M200.7,8.8c0.1-0.1,0.3-0.1,0.4-0.2c0.6,0.1,0.4,0.4,1.2,0.5c0,0.2,0.1,0.1-0.1,0.2c0.1,0.1,0.2,0.1,0.2,0.2
		c-0.7-0.1-0.9-0.2-1.7-0.1C200.8,9,200.8,9,200.7,8.8 M199.8,9.8c0.4,0.1,0.8,0.3,1,0.6c0,0.1,0.1,0.1,0.1,0.2
		c-0.4-0.1-0.9-0.2-1.5-0.3c0-0.1,0-0.1-0.1-0.1c0.2,0,0.4,0,0.5,0C199.8,10,199.8,9.9,199.8,9.8 M197.4,7.3
		c0.1-0.1,0.2-0.2,0.4-0.3V6.9c-0.6-0.1-1-0.3-1.7-0.3c-0.3,0.1-0.5,0.2-0.8,0.3c0,0.1,0,0.2-0.1,0.3c0,0,0,0,0,0.1
		C195.6,7.4,196.8,7.6,197.4,7.3 M189.5,9.1c-0.3-0.2-0.7-0.2-1-0.2c0.1-0.1,0.1-0.3,0.2-0.4c-0.5-0.3-1.4-0.5-1.7-1
		c-0.2-0.2,0-0.5-0.3-0.7c0,0.1-0.1,0.1-0.1,0.2c-1.1-0.1-2.3,0.4-2.6,1.1c-0.5,0-1.1,0-1.3,0.2c0.3,0.2,1.1,0.1,1.5,0.2
		c-0.1,0.1-0.1,0.1-0.2,0.2c-0.1,0.1-0.1,0.2-0.2,0.3c0.9,0.1,2.2-0.1,2.8-0.5c0.3,0.1,0.7,0.2,1,0.3c-0.1,0-0.2,0.1-0.3,0.1
		c0.5,0.5,1.5,0.5,2.5,0.4C189.7,9.3,189.6,9.2,189.5,9.1 M186.3,7.5c0-0.1,0.1-0.2,0.1-0.3c0.1,0.1,0.1,0.1,0.2,0.2h0.1
		C186.6,7.3,186.4,7.4,186.3,7.5 M207.1,8.7c0,0-0.1,0.1-0.1,0.1c0,0,0.1,0,0.1,0C207.1,8.8,207.1,8.8,207.1,8.7 M184.7,9.7
		c0,0.1,0,0.2,0.1,0.4c0.9-0.1,1.7-0.1,2.5-0.3c0,0,0-0.1,0-0.1c-0.5-0.1-1.1-0.2-1.6-0.3C185.4,9.5,185,9.6,184.7,9.7 M192.7,9.6
		c-0.1,0-0.3-0.1-0.4-0.1c0,0.1,0,0.1,0,0.2C192.4,9.6,192.5,9.6,192.7,9.6C192.7,9.6,192.7,9.6,192.7,9.6 M191.2,9.9
		c0.1,0.1,0.3,0.2,0.4,0.3c0.2,0,0.4,0,0.5,0.1c0,0,0,0,0.1-0.1c0-0.1,0-0.1,0-0.2l-0.9-0.3C191.2,9.8,191.2,9.9,191.2,9.9
		 M193,10.3c0.1,0,0.2,0,0.2,0c0,0,0-0.1,0.1-0.1c-0.1-0.1-0.1-0.2-0.2-0.2c-0.2,0-0.4-0.1-0.6-0.1C192.6,10.1,192.8,10.1,193,10.3
		 M188.9,10.4c-0.2,0.1-0.4,0.1-0.6,0.2c-0.1,0.1-0.1,0.2-0.1,0.2c0.1,0.1,0.1,0.2,0.2,0.3c0.4,0.1,0.7-0.2,1.1-0.3
		c0.1-0.1,0.1-0.1,0.2-0.2C189.4,10.5,189.3,10.5,188.9,10.4 M198,10.8C198,10.8,198,10.8,198,10.8c-0.1-0.1-0.1-0.1-0.2-0.1
		c0,0,0,0.1,0,0.1C197.8,10.9,197.9,10.8,198,10.8 M195.8,11.5c-0.2-0.1-0.4-0.2-0.7-0.3c0.1,0.2,0.3,0.2,0.5,0.3
		C195.6,11.5,195.7,11.5,195.8,11.5 M189.6,12.2C189.6,12.2,189.6,12.2,189.6,12.2c-0.2-0.1-0.3-0.1-0.5-0.1c0,0,0.1,0.1,0.1,0.1
		C189.4,12.2,189.5,12.2,189.6,12.2 M245.2,16.1c-0.1,0-0.2,0-0.3,0c0.1,0.1,0.1,0.1,0.2,0.2c-0.6,0.1-1.4-0.3-2.1-0.5
		c0,0,0,0-0.1,0.1c0,0.1,0.1,0.2,0.1,0.2c-0.3-0.2-0.5-0.4-0.9-0.5v0.1c0.1,0.1,0.2,0.2,0.3,0.4v0.1c-0.3-0.1-0.2-0.2-0.5,0
		c-0.7-0.5-1.2-1.3-2.3-1.4c0.1,0.1,0.2,0.2,0.3,0.3c-0.2-0.1-0.3-0.1-0.5-0.2c-0.2,0.1-0.3,0.2-0.5,0.4c0,0.1,0,0.1-0.1,0.1
		c0.8,0.2,1.5,0.4,2.3,0.6c-0.4,0.3-0.8,0.2-1.4,0c0,0,0,0-0.1,0.1l0.1,0.1c1.1,0.2,1.5,0.5,2.2,0.9c0,0.1,0,0.1,0.1,0.1
		c-0.2-0.1-0.4-0.1-0.6-0.2c0,0,0,0-0.1,0.1c0,0.1,0.1,0.2,0.1,0.2c1.6,0.4,5.5,2.4,6.8,0.8v-0.1c-0.7-0.4-1.7-1.1-2.2-1.6
		C245.8,16.6,245.6,16.3,245.2,16.1 M199.7,13.8c0,0-0.1,0-0.1,0c0,0.1,0,0.1,0,0.1C199.6,13.9,199.7,13.8,199.7,13.8 M205.3,14.3
		C205.3,14.3,205.3,14.3,205.3,14.3c-0.1-0.2-0.1-0.1-0.3-0.2C205.1,14.3,205.1,14.2,205.3,14.3 M205.5,14.4
		C205.5,14.4,205.5,14.4,205.5,14.4c0.2,0.3,0.5,0.5,0.8,0.5c0.1-0.1,0.2-0.1,0.3-0.2c-0.1-0.1-0.1-0.2-0.2-0.4
		c-0.2,0-0.3-0.1-0.5-0.1C205.8,14.4,205.9,14.4,205.5,14.4 M201.3,14.8c-0.1,0.1-0.1,0.1-0.1,0.2c0.2,0.2,0.5,0.1,0.8,0.1
		c0,0,0.1-0.1,0.1-0.1c-0.1-0.1-0.2-0.1-0.3-0.2c-0.1,0-0.2-0.1-0.3-0.1C201.4,14.7,201.4,14.7,201.3,14.8 M292.4,65
		C292.5,65,292.5,65,292.4,65c-0.2-0.6-0.5-1.2-0.8-1.8c0.1,0.1,0.1,0.2,0.2,0.2c0,0,0.1,0,0.1,0.1v-0.1c0.1-0.3-0.3-0.7-0.5-0.9
		c0,0,0.1,0,0.1-0.1c0.1,0.1,0.3,0.3,0.4,0.4c0,0,0,0,0.1,0c-0.1-0.2-0.2-0.5-0.3-0.7c0.2,0.2,0.4,0.4,0.6,0.6
		c-0.3-0.6-1-1.9-1.7-2.2c0.1-0.2,0-0.2,0.2-0.1c-0.2-0.7-1.3-1.4-1.4-2.5c0,0,0,0,0.1,0c0.1,0.6,0.5,0.4,0.8,0.7h0.1
		c-0.2-0.3-0.5-0.7-0.7-1c0.1-0.1,0.2-0.2,0.3-0.3c0.3-0.2,0.5,0.4,0.8,0.4c0,0.3,0.1,0.3,0.1,0.5c0.1-0.7,0-1.6-0.1-1.9
		c-0.3-0.3-0.5-0.8-0.8-1.3c-0.9-1.5-1.5-2.7-2.2-4.4c-0.2-0.4-5.5-8.7-12.3-15.1c-7-6.6-15.5-11.1-15.4-11.2
		c-0.2,0.2-0.3,0.4-0.6,0.5c0,0.4,0,0.4,0.1,0.6c-0.2,0.1-0.3,0.2-0.5,0.3c0.2,0.3,0.5,0.5,0.7,0.8l0.1,0.6c0.5,0.8,1.7,1.2,2.1,2.2
		c0.3,0.1,0.3,0,0.5-0.2c0.1,0.2,0.2,0.5,0.2,0.7c0.3,0.4,1.8,1.2,2.4,0.9c0.2-0.2,0.3-0.6,0.2-0.9c0.1-0.1,0.2-0.1,0.4-0.2
		c0-0.1-0.1-0.2-0.1-0.3c0,0,0,0,0-0.1c1.6,0.8,2.4,2.8,4.2,3.5c0.1,0.2,0.2,0.4,0.2,0.6c-0.3,0.1-0.3,0.3-0.5,0.5
		c0.3,0.4,0.7,0.8,1.2,1c-0.2,0.2-0.1,0.1-0.4,0v0.1c0.1,0.2,0.2,0.3,0.5,0.4c0.1,0,0.2,0,0.3,0c0-0.1,0-0.3,0-0.4
		c-0.2-0.2-0.4-0.5-0.7-0.6c0-0.2,0-0.1,0.1-0.2c-0.1-0.1-0.2-0.3-0.4-0.4c0.3,0.2,0.5,0.4,0.6,0.8c0.2,0,0.5,0,0.7,0c0,0,0,0,0.1,0
		c0-0.1,0-0.1,0-0.2c-0.2-0.2-0.3-0.4-0.5-0.6c0.1-0.1,0.1-0.1,0.1-0.3c0.2,0,0.4,0.1,0.6,0.1c-0.1-0.2-0.2-0.3-0.2-0.4
		c0.1,0.1,2.5,2.2,2.3,2.3c-0.3,0.2-0.2,0.3-0.2,0.6c-0.1,0-0.2,0.1-0.3,0.1c-0.4,0.5-0.5,0-1,0c-0.2-0.2-0.1-0.1-0.1-0.3
		c-0.2-0.2-0.4-0.3-0.5-0.5c0,0.1,0,0.2,0,0.3c-0.1,0-0.2-0.1-0.4-0.1c0.1,0.4-0.1,0.2-0.2,0.7c-0.1,0-0.2-0.1-0.3-0.1
		c-0.1-0.1-0.2-0.4-0.2-0.6c-0.1-0.1-0.1-0.1-0.3-0.2c0,0.1,0.1,0.1,0.1,0.2c-0.5,0-0.8-0.4-1.2-0.7c-0.1,0,0,0,0.1-0.1
		c-0.2-0.1-0.2-0.2-0.5-0.2c0,0,0-0.1-0.1-0.1l0.1-0.1c0.4,0.2,0.8,0.5,1.2,0.7c-0.2-0.5-0.8-1.3-1.4-1.1c-0.1-0.2-0.2-0.6-0.4-0.8
		c0.1,0,0.2,0.1,0.2,0.1c0-0.1,0-0.2,0.1-0.3c-0.5-0.6-1.3-0.9-1.6-1.8c-0.1,0.1-0.2,0.1-0.3,0.1c0,0.2,0.1,0.3,0.1,0.5
		c-0.1,0-0.2,0-0.2,0c-0.1,0.1-0.2,0.1-0.3,0.2c0.2,1,2.3,2.6,2.2,3.1l0.4,0.1c0.2,0.4,0.5,0.6,0.8,1.1c-0.2,0.1-0.2,0-0.1,0.3
		c-0.4-0.1-0.4-0.2-0.9-0.2V37c-0.3,0-0.5,0-0.8,0.1c0,0.1-0.1,0.2-0.1,0.3c0.1,0.1,0.2,0.3,0.2,0.4c0.2,0.1,0.2,0.1,0.4,0
		c0.2,0.3,0.3,0.4,0.2,0.7c-0.2,0.2,0,0.1-0.3,0c0,0,0,0-0.1,0c0.1,0.4,0,0.5,0.2,0.7c-0.2,0-0.3,0-0.5-0.1
		c-0.2-0.6-0.4-1.2-0.6-1.7c0,0-0.1,0-0.1-0.1c0,0,0,0-0.1,0c0.2,0.8,0.8,2,0.4,2.4c-0.3,0.3-0.9,0.3-1.1,0.7
		c0.1,0.4,0.3,0.7,0.5,1.1c-0.2,0.2-0.3,0.2-0.6,0.3c-0.2,0.2-0.3,0.4,0,0.6c-0.1,0.1-0.1,0.1-0.2,0.2c-0.7,0.2-1.5-0.5-2-0.7
		c0,0,0,0-0.1,0.1c0.3,0.5,0.8,0.8,0.9,1.4c0.1,0.1,0.1,0.1,0.2,0.2c0,0,0,0,0,0.1c-0.5-0.1-0.7-0.2-1,0.1c-0.2-0.2-0.5-0.4-0.7-0.5
		c-0.4,0.2-1,0.1-1.3,0.5c0,0-0.1,0-0.1,0c0.1,0.5,0.5,0.4,0.8,0.7c-0.1,0-0.2,0-0.4,0.1c0.6,0.6,1.5,0.4,2.4,0.7
		c0,0,2.8,2.6,2.8,2.7c-0.1-0.1-0.2-0.2-0.3-0.2c0,0,0,0-0.1,0.1c0.7,0.9,1.4,2.3,1.4,4.1c-1,0.4-3.4-0.3-4.7-0.5
		c-0.4-0.1-1.2,0.3-1.8,0.2c-0.3-0.1-0.4-0.3-0.8-0.2c-0.3-0.1-0.5,0.3-0.4,0.6c-0.3,0.1-0.7,0.1-0.8,0.4c-0.1,0-0.2,0.1-0.2,0.1
		c0,0.6,0.4,0.6,0.5,1c0.2,0,0.1,0,0.3-0.1c0.1,1,0.7,1.7,1,2.6c0.3,0.8,0.1,3.3,0,4.1c0.3,0.2,0.4,0.4,0.6,0.7
		c0.1-0.1,0.2-0.1,0.4-0.2c0.3,0.8,0.5,1.6,0.5,2.8c0.5-0.2,1.2,0.1,1.5,0c0.2-0.1,0.3-0.3,0.7-0.4c1-0.4,1.5,1.9,2.6,2.1
		c0.2-0.2,1.1-1,1.1-1.2c0.8,0,1.3-0.1,2,0.1c0-0.1,0.1-0.2,0.1-0.2c0.3,0,0.3,0.1,0.5,0.2c0.2-0.4,0.3-1.1,0.5-1.5
		c0.2-0.1,0.3-0.1,0.6-0.1c0-0.4-0.2-0.9,0-1.4c0.1-0.3,0.4-0.4,0.5-0.8c-1.8-1.2-0.2-2.7-0.7-3.7c0.3-0.4,0.6-0.3,1-0.6
		c0.2-0.2,0.5-0.7,0.7-1c-0.1-0.6-1.1-1.5-0.8-2.2c0.1-0.2,0.4-0.3,0.5-0.5c0.9,0.3,1.4,0.7,2.2,1c0.4-0.4,0.3-1.1,1-1.1
		c0.1-0.3,0.1-0.5,0.2-0.8c0,0,0-0.1,0-0.1c1.6,0.3,2.5,2.4,3.3,3.5c0,0,2.2,2.1,2.3,2.1c0.1,0,0.3-0.1,0.5,0.1
		c0.1,0.2,0.3,0.5,0.4,0.7c1.7,1.6,2.2,2,2.9,4.4c-0.2,0.1-0.5,0.1-0.7,0.4c-0.6,0-0.6-0.1-0.9-0.4c-0.1,0.1-0.1,0.1-0.1,0.3
		c-0.1-0.1-0.2-0.1-0.2-0.2c0,0,0,0-0.1,0c0,0.3-0.1,0.5,0.1,0.8c0.1,0.2,2.2,1.9,2.4,2c0,0,0,0,0.1,0c-0.1-0.9-0.6-1.3-0.6-2.4
		c0.1,0.1,0.2,0.2,0.3,0.3c0,0,0,0,0.1,0c0.1-0.5,0-1-0.2-1.4c0.1-0.3,0-0.2,0.2-0.4c-0.2-0.7-0.5-0.8-0.9-1.3
		c-0.1-0.4-0.2-0.9-0.3-1.3c0,0,0.1-0.1,0.1-0.1c0.2,0.4,0.9,1,1.3,1.3c-0.3-1.2-1.5-2.3-2.6-2.9c-0.1-0.2-0.2-0.4-0.2-0.8
		c-0.4-0.2-0.6-0.1-1-0.3c-0.8-0.7-1.2-1.8-1.9-2.6c-0.6-0.7-1.6-1-1.9-2c0-0.1,0-0.3,0-0.4c-0.1-0.3-0.5-0.4-0.6-0.8
		c0.3,0,0.3-0.1,0.5-0.4c0.1,0,0.1,0,0.2,0c0.2,0.3,0.6,1.1,0.8,1.5c0.1,0,0.1,0.1,0.1,0.1l0.1-0.4c0.1,0.2,0.2,0.4,0.3,0.6
		c0.1,0,0.1,0.1,0.2,0.1c-0.1-0.2-0.2-0.4-0.2-0.5c0.6,0.2,0.8,1.1,1,1.5c0.4,0.5,1,0.8,1.4,1.2c-0.1,0-0.1-0.1-0.2-0.1
		c0.2,0.3,0.3,0.3,0.4,0.6c0.1,0,0.2,0,0.3,0c-0.1-0.1-0.2-0.2-0.3-0.3c0,0,0.1,0,0.1-0.1c0.1,0.1,0.2,0.2,0.3,0.3
		c0,0,0,0.1,0.1,0.1c-0.1,0-0.2,0.1-0.3,0.1c0.2,0.2,0.2,0,0.5,0.2c0.6,0.3,1.7,1.4,2,2c0.3,0.8,0.6,1.7,1,2.5
		c0.4,0.7,1.3,1.5,1.6,2.2c0.2,0,0,0,0.2,0c0,0.1-0.1,0.3,0,0.6c0.2,0.2,0.5,0.6,0.9,0.7c-0.1,0.3-0.1,0.2-0.1,0.7
		c0.4,0.6,0.8,1.1,1,1.9l0.2,0.1c0,0,0,0,0.1,0c0-0.1-0.1-0.3-0.1-0.4c0,0,0,0,0.1,0c0.1,0.3,0.3,0.6,0.4,0.9c0,0,0.1,0,0.1,0.1
		c0-0.1-0.1-0.3-0.1-0.5C292.2,64.7,292.3,64.8,292.4,65 M268.5,37.7C268.5,37.6,268.4,37.6,268.5,37.7c0-0.1,0-0.1,0-0.2
		c0,0,0.1,0,0.1,0c0,0,0,0,0,0.1C268.5,37.6,268.5,37.6,268.5,37.7 M262.9,60c0-0.1,0-0.2-0.1-0.3c0,0,0.1,0,0.1,0
		C263,59.8,262.9,59.9,262.9,60 M269.1,37.3c0,0,0-0.1,0-0.1c0,0,0.1,0,0.1,0C269.1,37.3,269.2,37.2,269.1,37.3 M273.2,36.8
		c0.2,0.1,0.2,0,0.3,0.1c0,0,0,0,0,0.1C273.5,36.9,273.4,36.8,273.2,36.8 M281.2,49.6c0.1,0,0.1,0.1,0.2,0.1v0.2
		C281.3,49.8,281.3,49.7,281.2,49.6 M291.2,62.2c-0.2-0.2-0.3-0.3-0.5-0.5c0.1,0,0.2,0.1,0.2,0.1c0.1,0.1,0.3,0.2,0.4,0.3
		C291.3,62.1,291.3,62.2,291.2,62.2 M179.3,18.9c0.2,0.4,1.1,0.6,1.4,0.7h0.1c0.1-0.2,0-0.3,0-0.5c-0.3-0.2-0.7-0.2-1.2-0.3
		C179.5,18.9,179.4,18.9,179.3,18.9 M209.7,21L209.7,21l0.1-0.1c-0.1,0-0.2,0-0.3-0.1C209.7,21,209.5,20.9,209.7,21 M212.8,23.7
		c0-0.1-0.1-0.1-0.2-0.1C212.7,23.7,212.7,23.7,212.8,23.7C212.8,23.8,212.8,23.8,212.8,23.7L212.8,23.7z M202.3,27.8
		c1.3,0.8,2.2,1.5,4,2.1c0,0,0.1,0,0.1-0.1c0-0.1,0-0.1,0-0.2c-0.9-0.8-2.5-1.9-4-2L202.3,27.8z M217,28.6c0,0.1-0.1,0.1-0.1,0.2
		c0.2-0.1,0.1,0,0.2-0.2C217.1,28.6,217.1,28.6,217,28.6 M261.4,41c0.3-0.1,0.7,0.1,0.9,0.2c0-0.2,0-0.6,0.1-0.7
		c0,0,1.9,0.1,1.9,0.2c0.1,0,0.1,0,0.2,0c0-0.1-0.1-0.2-0.1-0.3c0.9,0,1.3,0,2-0.4l0.1-0.1c-0.1-0.1-0.1-0.2-0.1-0.4
		c-0.3,0-0.5,0-0.8-0.1c0.1-0.2,0.4-0.6,0.3-1c-0.1-0.6-1.2-1.7-1.8-1l-0.2-0.1c-0.4-0.8-0.9-1.6-1.8-2.2c-0.4-0.2-0.7-0.3-1.1-0.5
		c-0.9-0.9-1.4-1.6-2.8-1.6c0.2-0.1,0.3-0.2,0.5-0.3c-0.1-0.1-0.2-0.2-0.3-0.2c0.2-0.5,0-0.8,0-1.3c-0.5-0.5-1.5-0.4-2.2-0.2
		c0-0.3,0.1-0.2-0.2-0.3c0.1-0.3,0.2-0.4,0.4-0.6c0-0.1-0.1-0.2-0.1-0.4c-0.6-0.1-1.2,0.1-1.8-0.1c-0.1,0.2-0.1,0.2,0,0.4
		c-0.1,0.2-0.1,0.3,0.1,0.5c-0.1,0-0.1,0-0.1,0.1c-0.2,0-0.1-0.1-0.2,0.1c0.1,0.2,0.2,0.4,0.4,0.6c0,0,0,0,0,0.1
		c-0.3-0.2-0.5-0.4-0.8-0.6c-0.1,0.2-0.1,0.1-0.2,0.4c0.3,0.3,0.9,0.5,1.2,0.5c0,0.1,0.1,0.2,0.1,0.2c-0.1,0.1-0.2,0.1-0.3,0.2
		c0.1,0.3,0.2,0.3,0.2,0.6c0.2,0,0.4,0,0.6-0.1c0-0.1,0-0.2,0.1-0.3c0,0,0-0.1,0-0.1c0,0,0,0,0.1,0c0.1,0.6,0.4,1.1,0.6,1.7
		c0.1,0,0.2,0,0.2,0c0,0,0-0.1,0.1-0.1c-0.1-0.1-0.1-0.2-0.1-0.3c0.1,0.1,0.2,0.1,0.4,0.2c0,0,0,0,0.1,0c-0.1-0.2-0.1-0.4-0.2-0.6
		c0.2,0.1,0.3,0.2,0.5,0.3c0.1,0.3,0.1,0.5,0,0.8c0.2,0.1,0.4,0.3,0.5,0.4c0,0,0,0,0.1,0c0-0.1-0.1-0.1-0.1-0.2c0,0,0-0.1,0-0.1
		c0.2,0.1,0.4,0.2,0.5,0.2c0-0.1,0-0.2,0-0.2c0.4,0.2,0.5,0.1,0.8-0.2c0.4,0.5,0.2,1.3,1.2,1.1c0,0.5,0.1,0.7,0.3,0.9
		c-0.4,0.4-0.9,0.1-1.4,0c0.1,0.4,0.2,0.3,0.4,0.5c-0.1,0.1-0.2,0.2-0.2,0.3c0,0,0,0.1,0.1,0.1c0.2-0.1,0.3-0.1,0.5-0.2
		c0.2,0.2,0.3,0.4,0.5,0.6c-0.1,0.4-0.4,0.5-0.8,0.6c-0.1,0.1-0.1,0.1-0.2,0.2c0.2,0.2,0.4,0.3,0.6,0.5c0.6-0.3,1.2,0.1,1.9,0.3
		c0.1-0.1,0.3-0.1,0.5-0.2c-0.1,0.2-0.1,0.2,0,0.4c-0.4,0-0.8,0-1.2,0c0,0.5-0.3,1.1-0.8,1.5c0,0.1,0,0.1,0,0.1c0.3,0,0.3,0,0.7,0.2
		C261.1,41.3,261,41.1,261.4,41 M256.4,33.6c0-0.1,0-0.2,0-0.2c0,0,0.1,0,0.1,0c0,0.1,0.1,0.1,0.1,0.2
		C256.5,33.6,256.5,33.6,256.4,33.6 M216.8,29.3c0-0.1,0-0.1,0-0.2c-0.3-0.1-0.6-0.2-0.9-0.3c-0.4,0-0.7,0-1.1,0
		c-0.2,0.1-0.8,0.4-1.2,0.6c-0.6,0.3-0.9,1.1-1.7,1.3c-0.1,0.2-0.1,0.2,0,0.4v0.1c-0.2-0.1-0.2,0-0.3-0.1c-0.4,0.1-0.6,0.3-0.8,0.6
		c0.1,0.1,0.2,0.2,0.4,0.3c-0.5-0.1-1.1,0.2-1.7,0.3c0,0.2,0.1,0.4,0.1,0.6c1,0.2,4.9,1,5.2,1.4c-0.1,0-0.2,0-0.2,0
		c0.4,0.2,0.8,0.3,1.2,0.5c0.1-0.1,0.1-0.1,0.1-0.3c0.3,0.1,0.5,0.2,0.8,0.3c-0.5,0.2-1,0.3-1.8,0.3c0,0.1,0,0.2-0.1,0.2
		c1.2,0.5,2.2-0.1,3.3-0.4c0.1,0.1,0.2,0.2,0.2,0.3c0,0.5-0.3,0.7-0.6,0.8c0.1,0.2,0.1,0.2,0.2,0.3c0.3-0.1,0.5-0.2,0.8-0.2
		c-0.1,0.2-0.2,0.3-0.2,0.7c0.3,0.1,0.6,0.1,0.9,0.2c0.4-0.2,0.6-0.7,0.9-0.9c0-0.2,0-0.3-0.1-0.5c-0.3-0.1-0.4,0.2-0.8,0.3
		c0-0.1,0-0.2-0.1-0.2c0.2-0.2,0.4-0.4,0.7-0.5c0-0.1,0-0.1,0.1-0.1c0,0,0,0,0-0.1c-0.8,0-0.9,0.2-1.3,0.5c-0.1-0.1-0.1-0.2-0.1-0.2
		c-0.1,0,0,0.1-0.2-0.1c0.4-0.4,1.2-0.6,1.4-0.7c0.1,0,0.1-0.1,0.1-0.1c-0.2-0.2-0.9-0.2-1.3-0.2c0.1-0.4,0-0.1-0.1-0.6
		c0.3-0.1,0.5-0.1,0.7-0.3c-0.4-0.3-1-0.7-1.5-0.6c-0.2-0.2,0-0.4-0.4-0.5c-0.2,0.1,0,0.1-0.2,0.1c0,0.2-0.1,0.1,0.1,0.2
		c-0.1,0-0.2,0-0.4,0c-0.3,0-0.2,0-0.2-0.3c-0.3,0-0.2,0-0.2,0.2c-0.2-0.1-0.4-0.2-0.6-0.2c0-0.1,0.1-0.1,0.1-0.2
		c-0.2-0.1-0.1-0.1-0.3,0l-0.1-0.1c0-0.1,0-0.1,0-0.2c0.2,0,0.5,0,0.7,0c0,0,0,0,0-0.1c-0.4-0.3-0.8-0.2-1.1-0.6
		c-0.4,0.1-0.7,0.3-1.1,0.4c0.2-0.6,1.2-1.1,1.8-1.2c0.1-0.1,0.2-0.2,0.2-0.3c-0.2-0.1-0.2-0.2-0.5-0.2v-0.1c0,0,0,0,0-0.1
		c0.3,0.1,0.5,0.2,0.8,0.1C216.8,29.4,216.8,29.4,216.8,29.3 M253.3,31c0.1-0.1,0.3-0.2,0.4-0.4c0-0.2-0.1-0.4-0.1-0.6l-0.3-0.1
		c-0.2,0.1-0.3,0.3-0.5,0.4c0.2,0.2,0.3,0.2,0.3,0.4L253.3,31z M216.4,30c0,0,0.1-0.1,0.1-0.1c0,0-0.1,0-0.1,0V30z M253.1,31
		c-0.1,0-0.2,0.1-0.2,0.1c0.2,0.2,0.3,0.4,0.5,0.7c0.1,0,0.1,0,0.2,0.1c-0.1-0.2-0.1-0.5-0.2-0.7C253.2,31,253.1,31,253.1,31
		 M216.5,30.3c0,0,0.1,0,0.1,0v-0.1c-0.1,0-0.2,0-0.3-0.1C216.4,30.2,216.5,30.2,216.5,30.3 M268.2,32.2c-0.1-0.2,0-0.1-0.2-0.2
		L268.2,32.2C268.1,32.2,268.1,32.2,268.2,32.2 M254.6,32c0,0,0-0.1,0.1-0.1l-0.2-0.1C254.4,31.9,254.5,32,254.6,32 M253.5,31.9
		C253.5,31.9,253.5,31.9,253.5,31.9c-0.1-0.1-0.1-0.1-0.2-0.1c0,0,0,0.1,0,0.1C253.4,32,253.4,32,253.5,31.9 M254.4,32.4
		C254.4,32.4,254.4,32.4,254.4,32.4c0,0.1,0,0.1,0.1,0.1c0,0,0,0,0.1,0c0-0.1,0-0.1,0.1-0.2C254.6,32.3,254.5,32.3,254.4,32.4
		C254.5,32.3,254.4,32.4,254.4,32.4 M254.3,32.5c0,0.1,0,0.1,0,0.2c0,0,0.1,0,0.1,0C254.3,32.5,254.4,32.6,254.3,32.5 M210.2,31.4
		c0,0-0.1,0-0.1,0.1c0,0.1,0,0.1-0.1,0.2c0.3,0,0.6,0.1,0.8,0.1c-0.1-0.1-0.2-0.2-0.3-0.3C210.5,31.5,210.3,31.5,210.2,31.4
		 M218.3,32.1c0,0.1,0,0.2-0.1,0.2c0.2,0,0.3,0,0.5,0C218.6,32.1,218.6,32.1,218.3,32.1 M255.6,33.8c0.2-0.1,0.2-0.6,0.1-0.8
		c-0.1,0.2-0.2,0.3-0.5,0.4C255.3,33.7,255.4,33.6,255.6,33.8 M255.2,33.1C255.2,33.1,255.2,33.1,255.2,33.1l0.1,0.1
		c0,0,0,0,0.1-0.1C255.3,33.1,255.3,33.1,255.2,33.1C255.2,33.1,255.2,33.1,255.2,33.1 M203.1,33.4c0.1,0.2,0.2,0.2,0.5,0.3
		c0.5-0.1,0.5-0.4,1.2-0.4c0,0,0,0,0-0.1v-0.1c-0.4-0.2-2.8-0.7-2.8-0.7c-0.2-0.1-0.1,0-0.2-0.3c-0.3-0.3-0.1-0.2-0.1-0.5
		c-0.1,0-0.1,0-0.2-0.1c-0.2,0.1-0.4,0.2-0.7,0.3c0,0,0,0.1-0.1,0.1c0.6,0.5,1.2,0.9,2.1,1.2C203.2,33.3,203.1,33.2,203.1,33.4
		 M256.9,36.1c0,0,0-0.1-0.1-0.1c0.4-0.1,0.3-0.3,0.6-0.4c0-0.1,0-0.2,0-0.3c-0.4-0.4-0.8-0.4-1.1-0.9c-0.4-0.2-0.8-0.1-1.1,0.1
		c0-0.1,0-0.1,0.1-0.2c-0.2-0.1-0.4-0.1-0.5-0.2c-0.2,0.2-0.5,0.3-0.9,0.3c-0.1,0.4,0,0.4-0.2,0.7c0.2,0.2,0.4,0.2,0.7,0.1
		c-0.1,0.3-0.2,0.2-0.2,0.5c-0.5,0-1.1,0-1.6,0c0,0.3,0.1,0.1,0.2,0.3c-0.1,0-0.1,0.1-0.2,0.1c0.2,0.2,0.4,0.2,0.8,0.2
		c-0.2,0.2-0.2,0.3-0.4,0.4c0.5,0.6,0.9,0.2,1.5,0.4c-0.4,0.3-0.3,0.3-0.3,0.7c-0.3,0.3-0.2,0.2,0,0.4c-0.2,0.3-0.1,0.1-0.1,0.4
		c-0.2,0-0.3,0-0.5,0c0,0.1-0.1,0.2-0.1,0.3c0.2,0,0.4-0.1,0.7-0.1c-0.2,0.1-0.3,0.2-0.4,0.2c0.7,1.7,3.2-0.5,4.3-0.5
		C258,37.7,257.6,36.5,256.9,36.1 M219.2,33.6l-0.1-0.1c0,0.1,0,0.1-0.1,0.2C219,33.6,219.1,33.6,219.2,33.6 M272.2,34.8
		c0,0.1,0.1,0.2,0.1,0.3c0.1,0.1,0.3,0.1,0.4,0.1C272.6,35,272.5,34.9,272.2,34.8 M196.1,33.8c0,0,0.1,0.1,0.1,0.1
		c0.1-0.1,0.1-0.1,0.2-0.3c-0.1,0-0.1,0-0.2,0C196.2,33.6,196.1,33.7,196.1,33.8 M258.2,35.6c0,0.1,0,0.1,0.1,0.2
		c0.1,0,0.2-0.1,0.3-0.1c0-0.1,0-0.1,0.1-0.2c-0.1-0.1-0.2-0.2-0.3-0.3C258.3,35.4,258.3,35.5,258.2,35.6 M192.6,33.9
		c0,0,0.1-0.1,0.1-0.1c-0.1-0.1-0.1-0.1-0.2-0.2C192.5,33.8,192.5,33.8,192.6,33.9 M193,33.9c0,0-0.1,0-0.1,0V34
		C192.9,33.9,192.9,33.9,193,33.9 M214.3,34.7l0.1,0.2l0.1-0.1C214.4,34.8,214.4,34.8,214.3,34.7 M218.2,35c-0.1,0-0.1,0-0.2,0
		c-0.1,0.1-0.2,0.1-0.2,0.2c0,0.1-0.1,0.1-0.1,0.2h0.2c0.1-0.1,0.2-0.1,0.3-0.2V35z M196.9,34.4c0.1,0.1,0,0.1,0.1,0
		C197,34.4,197,34.4,196.9,34.4 M214.2,35.1c0.1,0,0.1,0,0.2,0.1c0,0,0.1,0,0.1-0.1c-0.1-0.1-0.2-0.1-0.2-0.1
		C214.3,35.1,214.2,35.1,214.2,35.1 M214.5,35.2v0.1c0,0,0.1-0.1,0.1-0.1C214.6,35.2,214.5,35.2,214.5,35.2 M268.4,37.9
		c0,0.1,0,0.1,0,0.2c0,0,0.1,0,0.1,0C268.4,37.9,268.5,38,268.4,37.9 M189.4,36.1c-0.1,0-0.1,0-0.1,0c0,0,0,0.1,0,0.1
		C189.3,36.1,189.3,36.1,189.4,36.1 M188.1,36.8c-0.1,0-0.2,0.1-0.3,0.1c0,0,0,0.1,0,0.1c0.2,0,0.4,0.1,0.6,0.1V37
		C188.3,36.8,188.4,36.9,188.1,36.8 M186.5,36.9c0,0-0.1,0-0.1,0C186.5,36.9,186.4,36.9,186.5,36.9 M185.8,37
		C185.8,37,185.9,37,185.8,37c0-0.1,0.1,0-0.1-0.1C185.7,36.9,185.8,37,185.8,37 M189.1,37.4C189.1,37.4,189.2,37.4,189.1,37.4
		c0.1-0.1,0.1-0.1,0.1-0.1c-0.1-0.1-0.1-0.1-0.4-0.1c0,0,0,0.1-0.1,0.1C188.9,37.4,189,37.4,189.1,37.4 M176.2,44.4
		c0-0.1-0.1-0.1-0.1-0.1c0,0,0,0.1-0.1,0.1C176.1,44.4,176.2,44.4,176.2,44.4 M121.6,48.9l0.1,0.1c0,0,0,0,0.1,0
		c0.1-0.3,0.2-0.6,0.2-0.8c-0.1,0-0.1-0.1-0.2-0.1C121.7,48.3,121.6,48.6,121.6,48.9 M142.1,49.5c0.1-0.1,0.2-0.1,0.2-0.1
		c0,0-0.1,0-0.1-0.1C142.2,49.4,142.2,49.4,142.1,49.5 M284,53.5c0,0,0.1,0,0.1,0c-0.1-0.2,0-0.1-0.1-0.2V53.5z M280.4,55.9
		C280.4,55.9,280.4,55.9,280.4,55.9c0-0.9-0.4-2.4-1-2.7c0.1,0.1,0.1,0.3,0.2,0.4c-0.1,0.1-0.2,0.1-0.3,0.2c0,0.7,0.5,1.7,1,2
		C280.3,55.8,280.3,55.8,280.4,55.9 M280.3,53.4c0,0-0.1,0-0.1,0v0.2c0.1,0,0.2,0,0.3,0C280.4,53.5,280.4,53.5,280.3,53.4
		 M118.9,56.9c0,0,0,0.1-0.1,0.1c0.1,0.1,0.1,0.1,0.2,0.2c0,0,0,0,0.1,0C119,56.9,119.1,57,118.9,56.9 M280.6,56.1
		c0,0.2-0.1,0.3-0.1,0.5c-0.3,0.1-0.2,0.1-0.5,0c0,0.7,0.7,1.3,1,1.9c0.2,0.4,0,0.9,0.2,1.3c0.2,0.2,0.3,0.4,0.7,0.4
		c0-0.2,0-0.3-0.1-0.5c0.1,0,0.2,0,0.3,0.1c0,0,0,0,0.1,0c-0.2-1.4-0.8-2.8-1.5-3.7C280.7,56.1,280.6,56.1,280.6,56.1 M290,57.7
		c0.1,0,0.1,0.1,0.2,0.1c-0.1-0.3,0-0.2-0.2-0.4V57.7z M290.6,58.2C290.6,58.2,290.6,58.2,290.6,58.2c0-0.2,0.1-0.1-0.1-0.2
		C290.5,58,290.6,58.1,290.6,58.2 M290.2,59c0.1-0.1,0.1-0.1,0.2-0.2c-0.1-0.1-0.2-0.2-0.3-0.3c0,0.1,0.1,0.2,0.1,0.3
		c-0.1-0.1-0.2-0.1-0.2-0.2C290.1,58.8,290.1,58.9,290.2,59 M290.7,59c0.1,0.1,0.2,0.1,0.2,0.2c0-0.1,0-0.2,0-0.2
		c-0.1-0.1-0.2-0.1-0.2-0.1V59z M288.9,59.7c-0.1-0.2-0.1-0.2-0.2-0.3C288.8,59.5,288.9,59.6,288.9,59.7 M291.3,60.6v0.2
		c0.1,0,0.1,0.1,0.2,0.1C291.4,60.8,291.4,60.7,291.3,60.6 M289.9,61.5v0.5c0.1,0.1,0.1,0.1,0.2,0.2c0.1,0,0.1,0,0.2,0.1
		c0,0,0-0.1,0.1-0.1C290.1,61.9,290,61.6,289.9,61.5 M290.3,62.6c0.1,0.1,0.2,0.1,0.2,0.2v-0.2c-0.1-0.1-0.2-0.1-0.3-0.2
		C290.3,62.5,290.3,62.6,290.3,62.6 M292.4,65.1c0.1,0.1,0.1,0.2,0.2,0.4c0,0,0-0.1,0.1-0.1C292.6,65.3,292.5,65.2,292.4,65.1
		 M206.5,164.1c-0.1,0-0.1,0.1-0.2,0.1c0,0,0.1,0.1,0.1,0.1c0.1,0,0.2,0,0.3,0c0,0,0,0,0-0.1C206.7,164.2,206.6,164.1,206.5,164.1
		 M207,164.2c0,0,0.1-0.1,0.1-0.1c0,0-0.1,0-0.1,0V164.2z M161.4,175.6c0.1,0.1,0,0.1,0.1,0H161.4z M161.1,177.4
		c0,0,0.1,0.1,0.1,0.1c0,0,0-0.1,0.1-0.1c0,0-0.1-0.1-0.1-0.1L161.1,177.4z M163.3,183C163.4,183,163.4,183,163.3,183
		c0.1-0.1,0.1-0.1,0.1-0.1h-0.2C163.3,183.1,163.2,183,163.3,183 M161.8,184.2c0,0.1,0.1,0.1,0.1,0.2h0.2v-0.1
		C162,184.2,162,184.2,161.8,184.2 M162.2,185.4c0,0.1,0,0.1,0,0.2h0.2C162.3,185.5,162.3,185.4,162.2,185.4 M162.7,186.3h0.1
		c0,0,0-0.1-0.1-0.1C162.8,186.3,162.8,186.3,162.7,186.3 M174,198.8c0-0.1-0.1-0.1-0.1-0.2c0,0,0,0,0,0
		C173.8,198.8,173.7,198.7,174,198.8 M176.2,198.9c0,0,0-0.1,0.1-0.1c-0.3,0-0.5-0.1-0.8-0.1C175.6,198.9,175.9,198.9,176.2,198.9
		 M173.3,198.8c0.1,0.3,0.3,0.4,0.6,0.5C173.8,199,173.6,198.9,173.3,198.8"/>
	<path class="st0" d="M198.6,206.3c-51.3,0.1-82.8-31.8-97.7-58.4c16.2,38,53.9,64.7,97.8,64.7c43.9,0,81.7-26.7,97.8-64.7
		C279.5,178.4,244.9,206.3,198.6,206.3 M198.6,6.3c46.3,0,80.9,27.9,97.9,58.5C280.3,26.7,242.6,0,198.6,0
		c-43.9,0-81.6,26.6-97.8,64.7C115.8,38.1,147.3,6.2,198.6,6.3"/>
	<path d="M16.7,133.9c-10.8,0-16.5-6.9-16.6-19.8L0,84.6c0-0.3,0.3-0.6,0.6-0.6l9.2-0.8c0.2,0,0.4,0.1,0.5,0.2
		c0.1,0.1,0.2,0.3,0.2,0.5l0.1,29.2c0,6.9,2.8,10.2,8.4,9.7c5.6-0.5,8.5-4.3,8.4-11.3l-0.1-29.2c0-0.3,0.3-0.6,0.6-0.7l9.3-0.8
		c0.2,0,0.4,0,0.5,0.2c0.1,0.1,0.2,0.3,0.2,0.5l0.1,29.6c0,7.9-2.4,21.4-19,22.9C18.3,133.9,17.5,133.9,16.7,133.9"/>
	<path d="M48,130c-0.2,0-0.3-0.1-0.4-0.2c-0.1-0.1-0.2-0.3-0.2-0.5l-0.2-48.8c0-0.3,0.3-0.6,0.6-0.6l9.8-0.6c0.2,0,0.4,0.1,0.5,0.2
		L79,107.3l-0.1-28.7c0-0.3,0.3-0.6,0.6-0.6l8-0.5c0.2,0,0.4,0.1,0.5,0.2c0.1,0.1,0.2,0.3,0.2,0.5l0.2,48.8c0,0.3-0.3,0.6-0.6,0.6
		l-8.2,0.5c-0.2,0-0.4-0.1-0.6-0.2l-22.5-30l0.1,31.1c0,0.3-0.3,0.6-0.6,0.6L48,130C48,130,48,130,48,130"/>
	<path d="M100,127.1c-0.2,0-0.3-0.1-0.4-0.2c-0.1-0.1-0.2-0.3-0.2-0.5l-0.3-48.6c0-0.3,0.3-0.6,0.6-0.6l10.6-0.5
		c0.2,0,0.4,0.1,0.5,0.2c0.1,0.1,0.2,0.3,0.2,0.5l0.2,48.6c0,0.3-0.3,0.6-0.6,0.6L100,127.1C100,127.1,100,127.1,100,127.1"/>
	<path d="M139,125.6c-0.3,0-0.5-0.2-0.6-0.4l-20.7-48.1c-0.1-0.2-0.1-0.4,0-0.6c0.1-0.2,0.3-0.3,0.5-0.3l12.1-0.3
		c0.3,0,0.5,0.1,0.6,0.4l13.5,31.4l13.9-32.2c0.1-0.2,0.3-0.4,0.6-0.4l9.6-0.3c0.2,0,0.4,0.1,0.5,0.3c0.1,0.2,0.1,0.4,0.1,0.6
		L147.9,125c-0.1,0.2-0.3,0.4-0.6,0.4L139,125.6L139,125.6z"/>
	<path d="M176.6,124.8c-0.4,0-0.6-0.3-0.6-0.6l-0.3-48.6c0-0.2,0.1-0.3,0.2-0.4c0.1-0.1,0.3-0.2,0.4-0.2l39-0.1
		c0.4,0,0.6,0.3,0.6,0.6l0,9.5c0,0.2-0.1,0.3-0.2,0.4c-0.1,0.1-0.3,0.2-0.4,0.2l-27.2,0l0,8.4l18.3,0c0.4,0,0.6,0.3,0.6,0.6l0,9.5
		c0,0.2-0.1,0.3-0.2,0.5c-0.1,0.1-0.3,0.2-0.5,0.2l-18.2,0l0,9.1l27.5,0l0,0c0.4,0,0.6,0.3,0.6,0.6l0.1,9.5c0,0.2-0.1,0.3-0.2,0.4
		c-0.1,0.1-0.3,0.2-0.4,0.2L176.6,124.8z"/>
	<path d="M270.5,126L270.5,126l-12.6-0.3c-0.2,0-0.4-0.1-0.5-0.3L246.7,107l-6.9-0.2l0.1,17.7c0,0.2-0.1,0.3-0.2,0.5
		c-0.1,0.1-0.3,0.2-0.5,0.2l-10.6-0.3c-0.3,0-0.6-0.3-0.6-0.6l-0.2-48.8c0-0.2,0.1-0.3,0.2-0.4c0.1-0.1,0.3-0.2,0.5-0.2l26.8,0.7
		c8.9,0.2,14,5.9,14,15.5c0.1,9.2-4.9,13.1-9.4,14.7l11.3,19.3c0.1,0.2,0.1,0.5,0,0.7C270.9,125.9,270.7,126,270.5,126 M239.6,96.1
		l8.6,0.2c3.8,0.1,6-0.4,7.2-1.5c0.8-0.8,1.2-2.1,1.1-4.1c0-2.3-0.5-4.4-5.7-4.5l-11.3-0.3L239.6,96.1z"/>
	<path d="M298,128.7c-0.6,0-1.2,0-1.8-0.1c-7.5-0.4-15.4-5-17.6-6.4c-0.2-0.1-0.3-0.3-0.3-0.5l-0.1-11.2c0-0.2,0.1-0.4,0.3-0.6
		c0.2-0.1,0.5-0.1,0.7,0c6.8,4.5,13.4,7.4,17,7.6c3.5,0.2,5.8-0.4,6.9-1.5c0.6-0.6,0.9-1.3,0.8-2.2c0-1.1-1.1-2.2-3.5-3.3
		c-1.4-0.7-3.1-1.4-4.9-2.1c-7.6-3.1-18-7.3-18.1-18.8c0-3.9,1.2-7,3.6-9.5c3.1-3.1,8.1-4.7,13.7-4.5c6.6,0.3,14.4,3.6,18.1,5.8
		c0.2,0.1,0.3,0.3,0.3,0.5l0,10.9c0,0.2-0.1,0.5-0.3,0.6c-0.2,0.1-0.5,0.1-0.6,0c-2.3-1.4-10.2-6.3-17.5-6.6
		c-2.6-0.1-3.9,0.6-4.4,1.1c-0.6,0.5-0.6,1.1-0.6,1.4c0,1.2,1.2,2.4,3.6,3.6c1.4,0.8,3.3,1.5,5.2,2.3c7.5,3.1,17.8,7.3,17.8,17.7
		c0,4.6-1.3,8.3-4,11C309.1,127,304.3,128.7,298,128.7"/>
	<path d="M364.8,131.2C364.8,131.2,364.8,131.2,364.8,131.2l-10.5-0.7c-0.2,0-0.5-0.2-0.6-0.4l-3.5-9.8l-17.1-1.1l-3.6,9.3
		c-0.1,0.2-0.4,0.4-0.6,0.4l-8.8-0.6c-0.2,0-0.4-0.1-0.5-0.3c-0.1-0.2-0.1-0.4-0.1-0.6l18.9-48c0.1-0.3,0.4-0.4,0.6-0.4l7.3,0.5
		c0.3,0,0.5,0.2,0.6,0.4l18.5,50.4c0.1,0.2,0,0.4-0.1,0.6C365.2,131.1,365,131.2,364.8,131.2 M337.3,108.7l8.8,0.6l-4.3-11.9
		L337.3,108.7z"/>
	<path d="M402.5,134.2C402.4,134.2,402.4,134.2,402.5,134.2l-30.3-2.5c-0.3,0-0.6-0.3-0.6-0.6l-0.3-49.4c0-0.2,0.1-0.4,0.2-0.5
		c0.1-0.1,0.3-0.2,0.5-0.2l9.1,0.7c0.3,0,0.6,0.3,0.6,0.6l0.2,39.1l20.6,1.7c0.3,0,0.6,0.3,0.6,0.6l0.1,9.7c0,0.2-0.1,0.4-0.2,0.5
		C402.8,134.2,402.6,134.2,402.5,134.2"/>
</g>
</svg>
