<?xml version="1.0" encoding="utf-8"?>
<!-- Generator: Adobe Illustrator 21.0.0, SVG Export Plug-In . SVG Version: 6.00 Build 0)  -->
<svg version="1.1" id="Layer_1" xmlns="http://www.w3.org/2000/svg" xmlns:xlink="http://www.w3.org/1999/xlink" x="0px" y="0px"
	 viewBox="0 0 89.8 74.5" style="enable-background:new 0 0 89.8 74.5;" xml:space="preserve">
<style type="text/css">
	.st0{fill:#263C70;}
	.st1{fill:#3680C3;}
	.st2{fill:#FDDA2B;}
</style>
<rect y="69.6" width="89.8" height="4.9"/>
<path d="M66.3,30.9v-5.8l2.9,0.4l0.1-5l-24.7-4.6l-24.2,4.6l0.1,5l3.3-0.5v5.9H0V36h1v29.4H0v3.1h89.8v-3.1h-0.8V36h0.8v-5.1H66.3z
	 M8.3,39.1h4.9v10.7H8.3V39.1z M13.3,62.4H8.4V51.7h4.9V62.4z M16.7,39.1h4.9v10.7h-4.9V39.1z M21.7,62.4h-4.9V51.7h4.9V62.4z
	 M32,38.2h4.9v10.7H32V38.2z M37,61.5h-4.9V50.8H37V61.5z M37,36.4h-4.9V25.7H37V36.4z M42.4,38.2h4.9v10.7h-4.9V38.2z M47.4,61.5
	h-4.9V50.8h4.9V61.5z M47.4,36.4h-4.9V25.7h4.9V36.4z M52.5,38.2h4.9v10.7h-4.9V38.2z M57.4,61.5h-4.9V50.8h4.9V61.5z M57.4,36.4
	h-4.9V25.7h4.9V36.4z M68.6,39.2h4.9v10.7h-4.9V39.2z M73.5,62.5h-4.9V51.8h4.9V62.5z M76.9,39.2h4.9v10.7h-4.9V39.2z M81.9,62.5H77
	V51.8h4.9V62.5z"/>
<polygon points="43.7,14.8 46.2,14.8 46.2,0 43.7,0 43.7,1 32.6,5.7 43.7,8.2 "/>
</svg>
