<?xml version="1.0" encoding="utf-8"?>
<!-- Generator: Adobe Illustrator 16.0.0, SVG Export Plug-In . SVG Version: 6.00 Build 0)  -->
<!DOCTYPE svg PUBLIC "-//W3C//DTD SVG 1.1//EN" "http://www.w3.org/Graphics/SVG/1.1/DTD/svg11.dtd">
<svg version="1.1" id="Camada_1" xmlns="http://www.w3.org/2000/svg" xmlns:xlink="http://www.w3.org/1999/xlink" x="0px" y="0px"
	 width="24px" height="22px" viewBox="9 0 24 22" enable-background="new 9 0 24 22" xml:space="preserve">
<g id="UylhuX.tif">
	<g>
		<path d="M21.5,4.1c0.3,0,0.6,0,1,0c0,0.1,0,0.2,0,0.3c0,2.1,0,4.1,0,6.2c0,0.2,0,0.3,0.2,0.4c1.4,0.8,2.8,1.7,4.3,2.5
			c0.1,0,0.1,0.1,0.2,0.1c-0.2,0.3-0.3,0.6-0.5,0.9c-1.1-0.6-2.2-1.3-3.2-1.9c-0.6-0.4-1.2-0.7-1.8-1.1c-0.1,0-0.1-0.2-0.1-0.2
			c0-2.3,0-4.7,0-7C21.5,4.2,21.5,4.1,21.5,4.1z"/>
		<path d="M32.8,9C32.2,6,30.6,3.6,28,1.8c-1.7-1.1-3.5-1.7-5.5-1.8c-0.1,0-0.2,0-0.2,0c-0.2,0-0.5,0-0.7,0c-0.4,0-0.8,0.1-1.2,0.1
			c-4.2,0.7-7.1,3.1-8.7,7c-0.2,0.6-0.3,1.2-0.5,1.8c0,0,0,0,0,0c0,0,0,0,0,0c0,0-1.4,0-2.2,0c1,1.4,2,2.7,3,4c1-1.3,3-4,3-4l-1.7,0
			c1.1-4.6,5.6-7.7,10.3-6.9c5,0.9,8.3,5.7,7.3,10.6c-0.8,4-4.3,7-8.4,7.2c-3.1,0.1-5.6-1-7.5-3.4c-0.3-0.4-0.4-0.5-0.4-0.5
			s-1.8,0-2.3,0c0,0,0,0.1,0,0.1c0,0.1,0.1,0.1,0.1,0.2c0.4,0.8,1,1.6,1.6,2.2c3.7,3.9,9.6,4.6,14.1,1.6c2.6-1.7,4.1-4.1,4.7-7.2
			c0.1-0.4,0.1-0.8,0.2-1.3c0-0.5,0-0.9,0-1.4C32.9,9.9,32.9,9.5,32.8,9z"/>
	</g>
</g>
</svg>
