<?xml version="1.0" encoding="utf-8"?>
<!-- Generator: Adobe Illustrator 16.0.0, SVG Export Plug-In . SVG Version: 6.00 Build 0)  -->
<!DOCTYPE svg PUBLIC "-//W3C//DTD SVG 1.1//EN" "http://www.w3.org/Graphics/SVG/1.1/DTD/svg11.dtd">
<svg version="1.1" id="Camada_1" xmlns="http://www.w3.org/2000/svg" xmlns:xlink="http://www.w3.org/1999/xlink" x="0px" y="0px"
	 width="69.4px" height="50px" viewBox="0.3 0 69.4 50" enable-background="new 0.3 0 69.4 50" xml:space="preserve">
<g id="tIARAb.tif">
	<g>
		<path d="M69.7,14.5c-2.6,2.7-5.2,5.4-7.8,8.1C54.4,15.2,45.5,11.3,35,11.3c-10.5,0-19.4,4-27,11.4c-2.6-2.7-5.2-5.4-7.7-8.1
			C17.1-3.5,49.5-6.1,69.7,14.5z"/>
		<path d="M58.5,26.4c-2.6,2.7-5.2,5.4-7.8,8.1c-9.6-9.5-23-8.2-31.2,0c-2.6-2.7-5.2-5.4-7.9-8.1C23.5,13.7,45.3,12.8,58.5,26.4z"/>
		<path d="M46.2,38.6c-3.7,3.8-7.4,7.6-11.1,11.4c-3.7-3.8-7.4-7.6-11-11.5C28.6,33.3,39.5,31.8,46.2,38.6z"/>
	</g>
</g>
</svg>
