<?xml version="1.0" encoding="utf-8"?>
<!-- Generator: Adobe Illustrator 21.0.0, SVG Export Plug-In . SVG Version: 6.00 Build 0)  -->
<svg version="1.1" id="Camada_1" xmlns="http://www.w3.org/2000/svg" xmlns:xlink="http://www.w3.org/1999/xlink" x="0px" y="0px"
	 viewBox="0 0 48.4 47.6" style="enable-background:new 0 0 48.4 47.6;" xml:space="preserve">
<style type="text/css">
	.st0{fill:none;stroke:#000000;stroke-miterlimit:10;}
</style>
<path d="M27.9,47.3c-4-2.7-5.3-1.5-8.7-0.2c-0.6,0.2-2.2-0.9-2.7-1.8c-1-1.7-2.1-2.3-4.1-2.2c-3.3,0.3-3.9-0.5-4.7-3.7
	c-0.3-1.3-1.5-2.7-2.7-3.4c-3-1.6-3.6-2.3-2.5-5.4c0.6-1.8,0.3-3-1.1-4.2c-2-1.8-2-3.7-0.1-5.5c1.5-1.4,1.8-2.8,1-4.8
	c-1-2.3-0.1-4.1,2.3-4.8c2-0.6,3-1.7,3.1-3.7c0.1-2.8,1.7-3.9,4.2-3.5c2,0.3,3.4-0.3,4.4-2.1c1.3-2.2,3.1-2.6,5.2-1.2
	c1.8,1.3,3.3,1.2,5.1,0c2.1-1.4,4-1,5.2,1.2c0.9,1.7,2.2,2.3,4.1,2.1c3.2-0.3,3.8,0.5,4.6,3.8c0.3,1.3,1.6,2.7,2.8,3.3
	c2.8,1.3,3.2,2.1,2.5,5.2c-0.3,1.3,0.1,3.1,0.9,4.2c1.9,2.5,2.1,3.6-0.1,5.7c-1.4,1.4-1.6,2.7-0.9,4.5c1,2.3,0.2,4.1-2.3,4.8
	c-2.1,0.6-3.1,1.8-3.1,4c0,2.2-1.3,3.3-3.4,3.3c-2.6,0-4.7,0.6-6,3.2C30.8,46.7,29.3,48.3,27.9,47.3z M24.3,37.8
	c8,0,14.2-6.2,14.1-14.2c0-8-6.2-14.2-14.2-14.3c-8-0.1-14.4,6.4-14.3,14.4C10.1,31.7,16.3,37.8,24.3,37.8z"/>
<path d="M24.3,14.2c0.4,0.3,0.8,0.5,0.9,0.8c0.9,3.3,2.6,5.6,6.5,4.9c0.4-0.1,1.3,0.5,1.3,0.8c0,0.5-0.3,1.4-0.7,1.6
	c-3.1,1.7-3.7,4-2.3,7.2c0.2,0.4-0.1,1.3-0.4,1.7c-0.2,0.2-1.1,0.2-1.5-0.1c-2.6-2.2-5.1-2.4-7.8-0.1C20,31.2,19,31.3,18.7,31
	c-0.3-0.3-0.5-1.2-0.3-1.7c1.4-3,0.6-5.3-2.2-7.1c-0.4-0.3-0.8-1-0.8-1.6c0-0.3,0.8-0.9,1.2-0.8c4.2,0.9,5.8-1.6,6.7-5
	C23.4,14.6,23.8,14.5,24.3,14.2z"/>
</svg>
