<?xml version="1.0" encoding="utf-8"?>
<!-- Generator: Adobe Illustrator 16.0.4, SVG Export Plug-In . SVG Version: 6.00 Build 0)  -->
<!DOCTYPE svg PUBLIC "-//W3C//DTD SVG 1.0//EN" "http://www.w3.org/TR/2001/REC-SVG-20010904/DTD/svg10.dtd">
<svg version="1.0" id="Layer_1" xmlns="http://www.w3.org/2000/svg" xmlns:xlink="http://www.w3.org/1999/xlink" x="0px" y="0px"
	 width="434.34px" height="511.855px" viewBox="0 0 434.34 511.855" enable-background="new 0 0 434.34 511.855"
	 xml:space="preserve">
<g id="VQ7Nqm.tif">
	<g>
		<path fill-rule="evenodd" clip-rule="evenodd" d="M82.869,511.855c-4.687-0.977-9.412-1.799-14.054-2.955
			c-34.649-8.631-59.551-36.006-64.881-71.229c-1.219-8.055-2.467-16.105-3.623-24.17c-2.667-18.621,12.157-36.652,30.908-37.527
			c4.451-0.209,8.919-0.031,14.233-0.031c-1.223-6.383-2.183-11.885-3.337-17.346c-8.309-39.316-7.38-78.336,3.774-117.014
			c8.563-29.69,17.344-59.319,25.796-89.04c7.668-26.963,26.394-40.58,53.146-44.432c12.169-1.752,24.427-2.983,36.684-3.967
			c4.177-0.335,5.304-1.771,5.317-5.728c0.045-13.788,0.165-13.683-13.534-13.758c-5.126-0.028-10.452,0.107-15.333-1.177
			c-12.132-3.19-19.788-16.142-17.172-28.341c1.74-8.116,3.707-16.199,5.976-24.182c5.151-18.116,20.949-30.587,39.8-30.742
			c33.992-0.278,67.991-0.307,101.983,0.015c18.576,0.176,34.337,12.78,39.35,30.624c2.245,7.991,4.272,16.064,5.931,24.195
			c3.135,15.37-8.563,29.483-24.327,29.656c-5.666,0.062-11.335,0.137-16.996-0.027c-3.127-0.091-4.687,0.89-4.528,4.221
			c0.214,4.479-1.293,10.035,0.844,13.108c1.646,2.368,7.752,1.799,11.906,2.233c16.212,1.692,32.458,3.101,47.923,8.868
			c15.271,5.693,25.862,15.86,31.168,31.476c13.375,39.362,25.593,79.1,34.215,119.762c6.782,31.986,5.182,64.215-1.831,96.148
			c-0.961,4.377-1.706,8.805-2.499,13.217c-0.079,0.443,0.202,0.949,0.475,2.094c3.016,0,6.136-0.008,9.257,0.002
			c22.897,0.072,37.904,17.449,34.387,40.09c-1.86,11.973-2.657,24.385-6.504,35.725c-11.58,34.131-35.949,53.77-71.69,59.139
			c-1.281,0.191-2.512,0.719-3.767,1.092C262.203,511.855,172.536,511.855,82.869,511.855z M228.787,118.37
			c-40.559,0.989-69.708,0.689-98.63,5.24c-20.989,3.303-36.966,12.166-43.152,34.243c-7.126,25.43-14.97,50.658-22.311,76.03
			c-6.345,21.931-11.09,44.144-11.935,67.097c-0.979,26.584,4.9,52.227,10.051,77.986c0.212,1.059,0.895,2.178,1.676,2.947
			c8.188,8.057,16.337,16.164,24.775,23.955c1.498,1.381,4.518,2.35,6.425,1.873c50.949-12.779,102.612-17.084,154.993-13.828
			c29.796,1.852,59.203,6.025,88.057,13.768c2.907,0.779,4.894,0.385,7.081-1.824c7.966-8.043,16.167-15.855,24.231-23.803
			c0.79-0.779,1.609-1.832,1.799-2.869c3.109-17.002,6.938-33.922,8.965-51.057c3.303-27.918,0.167-55.496-7.788-82.445
			c-9.501-32.185-19.191-64.315-28.942-96.424c-2.824-9.301-8.93-16.27-18.068-19.398c-9.057-3.101-18.457-6.161-27.903-6.988
			C271.266,120.524,244.321,119.324,228.787,118.37z M259.92,411.05c-0.109,2.133-0.26,3.748-0.264,5.363
			c-0.029,11.164-0.013,22.326-0.041,33.49c-0.016,6.545-3.078,10.369-8.2,10.332c-5.138-0.037-8.234-3.904-8.247-10.385
			c-0.022-11.496,0.001-22.992-0.029-34.488c-0.005-1.76-0.197-3.521-0.32-5.588c-5.923,0-11.314,0-16.946,0
			c-0.103,1.812-0.257,3.279-0.259,4.746c-0.014,11.83,0.03,23.66-0.006,35.49c-0.02,6.412-3.28,10.328-8.393,10.264
			c-4.869-0.061-8.033-3.91-8.073-10.047c-0.058-8.996-0.014-17.994-0.013-26.992c0-4.434,0-8.865,0-13.607
			c-4.681,0-8.665,0.217-12.614-0.061c-3.982-0.281-5.109,1.246-5.037,5.146c0.225,12.16,0.174,24.326,0.027,36.488
			c-0.067,5.605-3.75,9.219-8.583,8.992c-4.717-0.221-7.751-3.684-7.791-9.189c-0.076-10.498-0.036-20.994-0.043-31.492
			c-0.002-2.604,0-5.207,0-8.387c-4.814,0.514-8.909,1.254-13.01,1.297c-3.783,0.039-4.718,1.535-4.649,5.121
			c0.208,10.826,0.107,21.66,0.034,32.488c-0.044,6.484-3.295,10.297-8.448,10.174c-4.957-0.119-7.913-3.834-7.929-10.035
			c-0.019-7.33-0.003-14.662-0.002-21.992c0-4.09,0-8.178,0-12.979c-6.967,1.254-12.969,2.482-19.022,3.361
			c-3.046,0.441-4.082,1.875-4.51,4.834c-3.163,21.865-3.807,43.721-1.134,65.709c0.564,4.639,1.824,6.096,6.566,6.084
			c64.315-0.146,128.631-0.143,192.946,0.023c4.44,0.012,5.672-1.623,6.134-5.574c2.569-21.963,2.123-43.861-1.085-65.711
			c-0.215-1.463-1.115-3.801-2.089-4.025c-8.158-1.877-16.407-3.355-25.246-5.074c0,12.615,0.025,24.082-0.01,35.549
			c-0.019,6.1-3.189,9.861-8.164,9.844c-4.99-0.018-8.128-3.719-8.21-9.898c-0.082-6.164-0.021-12.328-0.021-18.494
			c0-6.279,0-12.559,0-19.113C271.14,412.128,265.74,411.609,259.92,411.05z M217.367,68.494c0,0.012,0,0.023,0,0.035
			c4.496,0,8.992,0.004,13.488-0.001c18.816-0.021,37.633,0.054,56.448-0.11c8.787-0.077,12.046-4.452,10.013-12.896
			c-1.632-6.781-3.182-13.592-5.134-20.283c-3.34-11.448-12.961-18.604-24.856-18.621c-33.137-0.047-66.275-0.042-99.413-0.004
			c-12.511,0.014-21.935,7.029-25.522,19.12c-1.794,6.045-3.232,12.2-4.703,18.336c-2.502,10.44,0.456,14.342,11.24,14.392
			C171.741,68.567,194.554,68.494,217.367,68.494z M99.575,423.9c-1.068,0.221-2.889,0.355-4.521,0.982
			c-5.506,2.113-9.786,0.842-13.814-3.553c-5.956-6.496-12.841-12.172-18.518-18.885c-7.112-8.41-15.644-11.312-26.443-10.75
			c-14.074,0.734-21.677,9.42-19.322,23.373c0.995,5.893,1.803,11.816,2.67,17.73c4.246,28.959,20.045,48.6,47.539,58.672
			c10.758,3.941,21.899,4.275,32.409,3.309C99.575,470.81,99.575,447.476,99.575,423.9z M338.842,494.632
			c31.365,4.971,65.674-18.211,74.002-50.99c2.648-10.422,3.717-21.264,5.194-31.957c0.973-7.037-1.762-12.793-7.65-16.783
			c-8.318-5.635-26.512-3.934-33.636,3.072c-6.532,6.424-13.053,12.863-19.421,19.447c-5.257,5.438-10.057,11.65-18.489,7.299
			C338.842,448.203,338.842,471.226,338.842,494.632z M216.904,103.003c0-0.068,0-0.136,0-0.203c3.657,0,7.313-0.016,10.97,0.004
			c3.823,0.021,7.646,0.071,11.468,0.117c12.807,0.154,12.664,0.156,12.698-12.829c0.011-4.056-1.166-5.514-5.354-5.467
			c-16.952,0.19-33.907,0.063-50.86,0.082c-13.162,0.015-13.021,0.035-13.133,12.99c-0.035,4.037,1.025,5.537,5.296,5.402
			C197.618,102.794,207.264,103.003,216.904,103.003z"/>
		<path fill-rule="evenodd" clip-rule="evenodd" d="M319.566,340.003c0,13.318,0.01,26.639-0.016,39.959
			c-0.003,1.326-0.147,2.666-0.363,3.975c-0.929,5.648-3.958,8.252-9.009,7.818c-4.604-0.396-7.197-3.576-7.098-9.08
			c0.298-16.482,1.052-32.967,0.966-49.445c-0.263-50.73-6.103-100.893-15.952-150.628c-0.832-4.202-3.429-6.146-6.979-6.718
			c-11.792-1.899-23.611-4.615-35.47-4.898c-22.612-0.541-45.276-0.026-67.884,0.904c-8.52,0.352-16.959,2.99-25.4,4.754
			c-3.385,0.707-5.063,2.902-5.856,6.516c-7.818,35.648-13.225,71.659-14.771,108.108c-1.086,25.596-0.783,51.254-0.956,76.885
			c-0.034,4.98,0.751,9.961,0.879,14.949c0.128,4.994-2.683,8.254-7.042,8.678c-4.829,0.473-8.546-2-8.899-7.266
			c-0.925-13.777-1.596-27.59-1.8-41.396c-0.78-52.775,4.418-104.994,15.147-156.67c4.176-20.111,8.689-24.571,29.002-28.375
			c26.543-4.971,53.391-4.687,80.164-3.764c14.554,0.502,29.079,2.842,43.521,4.996c4.615,0.688,9.086,3.125,13.324,5.334
			c4.649,2.424,7.255,6.605,8.333,11.835C314.522,230.42,320.066,284.949,319.566,340.003z"/>
	</g>
</g>
</svg>
