<?xml version="1.0" encoding="utf-8"?>
<!-- Generator: Adobe Illustrator 20.0.0, SVG Export Plug-In . SVG Version: 6.00 Build 0)  -->
<svg version="1.1" id="Layer_1" xmlns="http://www.w3.org/2000/svg" xmlns:xlink="http://www.w3.org/1999/xlink" x="0px" y="0px"
	 viewBox="0 0 284.2 349" style="enable-background:new 0 0 284.2 349;" xml:space="preserve">
<style type="text/css">
	.st0{fill:#3580C3;}
	.st1{fill:#FFDC2A;}
	.st2{fill:#263C6F;}
</style>
<g>
	<g>
		<g>
			<polygon class="st0" points="663.6,405.5 651.3,402.6 670.2,323.8 730.5,292.5 736.3,303.7 681.1,332.4 			"/>
			<g>
				<path class="st0" d="M573,488.1c0,0.1,0,0.2,0,0.3c0,27.2-22.1,49.3-49.3,49.3h-24.2c-27.2,0-49.3-22.1-49.3-49.3
					c0-0.1,0-0.2,0-0.3H573z"/>
				<path class="st0" d="M523.6,409.5h-24.2c-27.2,0-49.3,22.1-49.3,49.3c0,0.1,0,0.2,0,0.3H573c0-0.1,0-0.2,0-0.3
					C573,431.6,550.9,409.5,523.6,409.5z M476.9,429.3c-2.5,0-4.5-0.8-4.5-1.9c0-1,2-1.9,4.5-1.9c2.5,0,4.5,0.8,4.5,1.9
					C481.4,428.4,479.4,429.3,476.9,429.3z M494.2,420.1c-2.6,0-4.7-1.2-4.7-2.6c0-1.5,2.1-2.6,4.7-2.6c2.6,0,4.7,1.2,4.7,2.6
					C498.9,418.9,496.8,420.1,494.2,420.1z M502.2,430.6c-2.1,0-3.8-0.8-3.8-1.9c0-1,1.7-1.9,3.8-1.9c2.1,0,3.8,0.8,3.8,1.9
					C506,429.7,504.3,430.6,502.2,430.6z M516.4,417.2c-2.5,0-4.5-0.8-4.5-1.9c0-1,2-1.9,4.5-1.9c2.5,0,4.5,0.8,4.5,1.9
					C520.9,416.4,518.9,417.2,516.4,417.2z M526.4,430.7c-3,0-5.5-1.2-5.5-2.6c0-1.5,2.4-2.6,5.5-2.6c3,0,5.4,1.2,5.4,2.6
					C531.8,429.6,529.4,430.7,526.4,430.7z M537.7,420.3c-2.5,0-4.5-0.8-4.5-1.9s2-1.9,4.5-1.9c2.5,0,4.5,0.8,4.5,1.9
					S540.1,420.3,537.7,420.3z M548.8,429.4c-2.1,0-3.8-0.8-3.8-1.9c0-1,1.7-1.9,3.8-1.9c2.1,0,3.8,0.8,3.8,1.9
					C552.5,428.5,550.9,429.4,548.8,429.4z"/>
				<path class="st1" d="M579.2,475.9l-12.9-10.1c-1.7-1.3-4-1.3-5.7,0l-10.1,7.8l-10.1-7.8c-1.7-1.3-4-1.3-5.7,0l-10.1,7.8
					l-10.1-7.8c-1.7-1.3-4-1.3-5.7,0l-10.1,7.8l-10.1-7.8c-1.7-1.3-4-1.3-5.7,0l-10.1,7.8l-10.1-7.8c-1.7-1.3-4-1.3-5.7,0l-13,10.1
					c-2,1.6-2.4,4.5-0.8,6.5c0.9,1.2,2.3,1.8,3.7,1.8c1,0,2-0.3,2.9-1l10.1-7.8l10,7.7c0.4,0.3,0.8,0.6,1.3,0.7
					c0.2,0.1,0.3,0.1,0.5,0.2c0.1,0,0.3,0,0.4,0.1c0.2,0,0.4,0.1,0.6,0.1c0,0,0.1,0,0.1,0c0.1,0,0.3,0,0.4,0c0.1,0,0.2,0,0.3,0
					c0.2,0,0.4-0.1,0.6-0.1c0.2-0.1,0.4-0.1,0.6-0.2c0.1-0.1,0.3-0.1,0.4-0.2c0.2-0.1,0.3-0.2,0.5-0.3c0.1,0,0.1-0.1,0.2-0.1
					l0.1-0.1c0,0,0.1,0,0.1-0.1l9.9-7.7l10,7.7c0.4,0.3,0.9,0.6,1.3,0.7c0.2,0.1,0.3,0.1,0.5,0.2c0.1,0,0.2,0,0.4,0.1
					c0.2,0,0.4,0.1,0.6,0.1c0.1,0,0.1,0,0.1,0c0.1,0,0.3,0,0.4,0c0.1,0,0.2,0,0.3,0c0.2,0,0.4-0.1,0.6-0.1c0.2-0.1,0.4-0.1,0.6-0.2
					c0.1-0.1,0.3-0.1,0.4-0.2c0.2-0.1,0.3-0.2,0.5-0.3c0.1,0,0.1-0.1,0.2-0.1l0.1-0.1c0,0,0.1,0,0.1-0.1l9.9-7.7l10,7.7
					c0.4,0.3,0.8,0.6,1.3,0.7c0.2,0.1,0.4,0.1,0.5,0.2c0.1,0,0.3,0,0.4,0.1c0.2,0,0.4,0.1,0.6,0.1c0,0,0.1,0,0.1,0
					c0.1,0,0.3,0,0.4,0c0.1,0,0.2,0,0.3,0c0.2,0,0.4-0.1,0.6-0.1c0.2,0,0.4-0.1,0.6-0.2c0.1-0.1,0.3-0.1,0.4-0.2
					c0.2-0.1,0.3-0.2,0.5-0.3c0.1,0,0.1-0.1,0.2-0.1l0.1-0.1c0,0,0.1,0,0.1-0.1l9.9-7.7l9.9,7.7c0,0,0.1,0,0.1,0.1l0.1,0.1
					c0,0,0.1,0.1,0.1,0.1c0.2,0.1,0.4,0.3,0.6,0.4c0.1,0,0.2,0.1,0.3,0.1c0.2,0.1,0.4,0.2,0.6,0.2c0.1,0,0.2,0.1,0.4,0.1
					c0.2,0,0.3,0.1,0.5,0.1c0.1,0,0.3,0,0.4,0c0.2,0,0.3,0,0.5,0c0.2,0,0.3,0,0.5-0.1c0.1,0,0.3,0,0.4-0.1c0.2-0.1,0.4-0.1,0.5-0.2
					c0.1,0,0.2-0.1,0.3-0.1c0.2-0.1,0.4-0.2,0.6-0.4c0,0,0.1,0,0.1-0.1l0.1-0.1c0,0,0.1,0,0.1-0.1l9.9-7.7l10.1,7.8
					c0.9,0.7,1.9,1,2.9,1c1.4,0,2.8-0.6,3.7-1.8C581.6,480.4,581.2,477.5,579.2,475.9z"/>
			</g>
		</g>
		<path class="st2" d="M647.8,365.5c-29.7,0-53.9,8.3-55.5,18.8c-0.1,0.3-0.1,0.7-0.1,1L604.4,537h86.7l4-49.8l8.2-101.8
			C703.4,374.4,678.5,365.5,647.8,365.5z"/>
		<path class="st2" d="M720.7,537.8c0,4.4-3.6,8.1-8.1,8.1H442c-4.5,0-8.1-3.6-8.1-8.1l0,0c0-4.4,3.6-8.1,8.1-8.1h270.6
			C717,529.8,720.7,533.4,720.7,537.8L720.7,537.8z"/>
	</g>
</g>
<g id="f6JIB3.tif">
	<g>
		<path class="st2" d="M244.9,349c-3.3,0-6.6,0-9.9,0c-20.4-9-14.7-28.8-17-44.8c-51.8,0-101.9,0-152.9,0c-3,16.6,5,37.4-18,44.8
			c-2.2,0-4.4,0-6.6,0c-22.2-7.9-14.9-28.5-17.6-44.6c-8-0.9-14.8-1.6-21.5-2.4c-0.5-2.7-1-4.3-1.1-5.8
			c-0.7-77.3-1.2-154.5,10.4-231.3c4.5-29.6,20.2-44.2,46.6-52.1C108.9-2.6,160.5-4.4,212.9,9c34,8.7,56,22.7,61.2,63.1
			c9.9,76,11,151.8,9.5,228c0,0.8-1.3,1.6-2.1,2.5c-6.3,0.5-12.8,1-20.4,1.6C260.2,321.1,263.8,339.6,244.9,349z M141.1,168.3
			c34,0,68.1-0.3,102.1,0.1c12.3,0.1,17.2-4.7,15.5-16.8c-3.3-23.3-7.3-46.6-9.4-70.1c-1.4-16.3-9.4-21.5-24.6-21.4
			c-55.5,0.4-110.9,0.4-166.4,0C42.5,60,35.6,66.9,34,82.1c-2.4,21.8-5.8,43.5-9,65.1c-2.5,17.2,0.1,20.9,17.3,21
			C75.2,168.4,108.2,168.3,141.1,168.3z M142.6,25.9c-18.7,0-37.4-0.5-56,0.4c-4.2,0.2-8.1,5.2-12.1,7.9c3.7,3.1,7.4,8.8,11.1,8.8
			c37.3,0.7,74.7,0.7,112,0c3.7-0.1,7.4-5.7,11-8.8c-3.9-2.8-7.7-7.8-11.7-8C178.9,25.4,160.8,25.9,142.6,25.9z M63.9,239.3
			c-0.3-13.4-7.6-19.9-19-21.4c-10.6-1.4-21.4,9.5-20.7,20.4c0.7,12.1,7.7,19.1,19.8,19.2C56.2,257.6,62.6,250.4,63.9,239.3z
			 M259.6,238.7c-0.5-12.2-7.3-19.2-18.9-20.8c-10.2-1.4-22.3,9.9-21.3,20.3c1.1,11.5,7.4,19.4,19.9,19.5
			C251.7,257.8,258.2,250.7,259.6,238.7z"/>
	</g>
</g>
</svg>
