<?xml version="1.0" encoding="utf-8"?>
<!-- Generator: Adobe Illustrator 16.0.4, SVG Export Plug-In . SVG Version: 6.00 Build 0)  -->
<!DOCTYPE svg PUBLIC "-//W3C//DTD SVG 1.0//EN" "http://www.w3.org/TR/2001/REC-SVG-20010904/DTD/svg10.dtd">
<svg version="1.0" id="Layer_1" xmlns="http://www.w3.org/2000/svg" xmlns:xlink="http://www.w3.org/1999/xlink" x="0px" y="0px"
	 width="485.938px" height="506.805px" viewBox="0 0 485.938 506.805" enable-background="new 0 0 485.938 506.805"
	 xml:space="preserve">
<g>
	<polygon points="124.874,18.792 124.874,18.791 124.874,18.792 	"/>
	<path d="M468.167,336.271c16.014-15.006,21.24-33.317,15.535-54.426c-5.5-20.347-19.301-32.908-41.018-37.337
		c-2.904-0.592-5.896-0.892-8.894-0.892c-5.723,0-11.674,1.057-18.195,3.231l-4.843,1.614l2.956-8.423
		c0.834-2.39,1.591-4.559,2.374-6.718c2.615-7.211,5.251-14.415,7.887-21.619c5.611-15.336,11.414-31.194,16.901-46.86
		c7.499-21.409-0.525-43.865-19.08-53.395c-2.713-1.393-5.689-2.411-8.841-3.488c-1.521-0.52-3.094-1.058-4.688-1.655l-2.421-0.908
		l0.988-2.389c6.053-14.627,8.621-29.399,7.635-43.905c-1.364-20.034-6.567-33.586-16.868-43.941
		c-9.718-9.77-22.671-15.15-36.473-15.15c-15.197,0-29.526,6.632-39.313,18.195c-0.711,0.84-1.409,1.693-2.187,2.643l-2.793,3.396
		l-1.926-1.549c-18.96-15.253-42.396-22.673-71.647-22.681c-29.912,0-52.785,7.196-72.036,22.646l-1.875,1.505l-2.616-3.016
		c-0.737-0.853-1.447-1.675-2.17-2.486C150.826,3.23,134.063-2.692,114.9,1.123C95.57,4.969,82.522,16.482,76.119,35.341
		c-7.462,21.98-6.456,44.163,3.077,67.815l0.87,2.16l-2.092,1.021c-0.185,0.09-0.366,0.193-0.547,0.294
		c-0.546,0.304-1.225,0.683-2.045,0.89c-23.365,5.905-35.712,24.318-32.221,48.054c0.979,6.652,3.383,13.344,5.708,19.815
		l0.929,2.595c5.507,15.488,11.047,30.627,16.913,46.655c2.273,6.21,4.562,12.464,6.864,18.783l1.599,4.388l-4.539-1.103
		c-0.967-0.235-1.866-0.462-2.722-0.677c-1.714-0.431-3.194-0.803-4.691-1.116c-3.644-0.764-7.356-1.151-11.033-1.151
		c-19.057,0-36.484,10.378-45.481,27.084c-11.593,21.525-7.883,47.541,9.022,63.263c10.682,9.937,22.044,19.546,33.031,28.839
		c4.886,4.133,9.939,8.407,14.872,12.658c1.752,1.51,3.501,3.022,5.32,4.596l4.204,3.634l-1.515,1.881
		c-0.924,1.146-1.838,2.259-2.738,3.354c-1.934,2.354-3.761,4.577-5.479,6.885c-9.865,13.257-16.221,26.207-19.432,39.593
		c-2.797,11.662-0.301,21.71,7.629,30.717c11.427,12.984,26.711,20.494,38.75,25.586c17.77,7.518,35.979,12.328,54.124,14.299
		c0.958,0.104,1.782,0.32,2.509,0.591c0.139,0.052,0.278,0.062,0.417,0.062h191.336c3.415-1,6.887-1.285,10.246-1.934
		c7.576-1.462,15.411-2.93,22.938-4.922c21.274-5.629,38.482-13.628,52.609-24.498c9.305-7.159,17.941-15.457,18.128-27.672
		c0.129-8.438-1.585-17.193-4.701-24.03c-3.766-8.26-8.833-16.189-13.733-23.861c-1.841-2.882-3.744-5.86-5.561-8.828
		c-0.681-1.112-1.612-2.142-2.691-3.333c-0.558-0.617-1.132-1.251-1.701-1.929l-1.59-1.895l44.572-38.237
		c1.137-0.975,2.284-1.938,3.433-2.9C463.199,340.673,465.779,338.509,468.167,336.271z M413.34,125.253
		c9.108,4.365,13.816,12.21,13.26,22.091c-0.269,4.761-0.839,10.965-2.891,16.727c-8.27,23.222-16.837,46.772-25.121,69.546
		c-4.368,12.007-8.736,24.014-13.083,36.03c-1.144,3.158-2.131,6.473-3.087,9.677c-0.456,1.53-0.912,3.061-1.387,4.583l-0.621,1.994
		l-5.633-0.688l-0.377-1.739c-0.921-4.246-1.845-8.49-2.769-12.735c-1.975-9.065-3.948-18.131-5.888-27.204
		c-1.702-7.961-3.395-15.925-5.086-23.889c-3.707-17.449-7.54-35.493-11.425-53.21c-0.666-3.04-0.753-6.268,3.089-9.278
		c7.197-5.639,14.456-11.459,21.476-17.088c4.814-3.861,9.63-7.722,14.465-11.558C396.095,122.297,404.806,121.164,413.34,125.253z
		 M262.242,405.202c-0.995,0.009-1.813,0.011-2.844,0.011l-7.801-0.007v-2.5c0-1.317-0.162-2.545-0.148-3.712
		c0.029-2.374-0.242-4.424-0.352-6.46c-0.277-5.113-3.5-8.549-8.5-8.549v-2.5l0,0l0.201,2.5c-4.641,0.004-7.843,3.438-8.124,8.543
		c-0.113,2.059-0.11,4.17-0.081,6.405c0.015,1.083,0.004,2.195,0.004,3.349v2.522h-2.345c-1.42,0-2.878,0.055-4.287,0.119
		c-1.423,0.064-2.895,0.125-4.343,0.125c-2.234,0-4.062-0.162-5.749-0.505c-5.601-1.138-9.244-5.869-9.284-12.049
		c-0.079-12.796-0.041-25.879-0.027-38.53c0.005-4.92,0.035-9.861,0.035-14.833v-2.327h68.916l-0.002,21.572
		c0,10.562,0.001,21.082-0.023,31.645C277.464,400.462,272.762,405.114,262.242,405.202z M264.422,447.805h-42.794l0.754-3.097
		c0.396-1.628,0.78-3.243,1.161-4.841c1.133-4.76,2.203-9.259,3.519-13.794c0.667-2.291,3.65-4.152,5.773-4.225
		c6.943-0.239,13.879-0.236,20.595,0.012c2.25,0.082,4.979,2.233,5.614,4.425c1.269,4.376,2.313,8.762,3.419,13.405
		c0.391,1.641,0.788,3.313,1.204,5.017L264.422,447.805z M181.886,231.901c-3.898-20.638-10.957-33.429-23.602-42.769
		c-0.551-0.406-0.979-0.875-1.322-1.252c-0.124-0.135-0.246-0.271-0.374-0.399c-6.112-6.102-7.055-10.904-3.603-18.354
		c0.989-2.134,3.864-3.213,5.59-3.297c5.406-0.262,9.705-0.255,13.774,0.017c2.12,0.142,4.575,1.286,6.254,2.916
		c7.565,7.35,15.073,14.858,22.317,22.318c1.633,1.682,2.92,4.021,3.441,6.256c8.938,38.293,17.917,77.252,26.602,114.928
		l0.072,0.312c0.224,0.973,0.336,1.938,0.455,2.96c0.057,0.491,0.118,0.935,0.197,1.508l0.393,2.761h-2.869
		c-1.948,0-3.878,0.092-5.794,0.103c-1.896,0.01-3.779,0.062-5.653,0.062c-4.604,0-8.116-0.047-11.388-0.195
		c-2.689-0.121-5.16-3.369-5.679-5.559c-1.63-6.896-3.301-13.779-4.971-20.667C190.846,273.417,185.797,252.606,181.886,231.901z
		 M192.78,362.805h-2.737c-2.874,0-5.682-0.041-8.438-0.037c-2.661,0.006-5.274-0.014-7.854-0.014
		c-5.42,0-11.847-0.026-18.423-0.145c-2.309-0.043-4.695-1.995-5.769-3.804c-8.594-14.477-17.234-29.286-25.683-44.01
		c-1.01-1.759-1.368-4.276-0.914-6.412c6.107-28.698,12.176-56.856,18.601-86.668l4.637-21.518l3.268,3.562
		c1.253,1.365,2.635,2.618,3.972,3.829c3.681,3.335,7.486,6.784,8.838,12.73c4.934,21.707,10.02,43.762,14.938,65.092
		c4.598,19.938,9.352,40.556,13.972,60.849c0.676,2.97,0.849,5.967,1.031,9.141c0.085,1.48,0.173,3.057,0.316,4.633L192.78,362.805z
		 M198.827,165.805h81.829l3.352,4.097l-1.859,1.746c-0.88,0.774-1.751,1.614-2.621,2.399c-1.945,1.755-3.956,3.596-6.064,5.277
		c-4.07,3.245-6.479,7.667-8.056,14.756c-4.512,20.284-9.292,40.863-13.916,60.76c-1.625,6.991-3.249,13.986-4.866,20.98
		c-0.294,1.271-0.839,2.758-2.649,4.123l-3.06,2.308l-0.879-3.729c-0.654-2.778-1.312-5.556-1.97-8.334
		c-1.461-6.166-2.921-12.332-4.345-18.506c-1.41-6.121-2.81-12.246-4.209-18.37c-3.286-14.385-6.685-29.259-10.185-43.843
		c-0.529-2.202-1.968-4.758-3.948-7.012c-2.345-2.671-4.935-5.107-7.933-7.929c-1.338-1.259-2.735-2.794-4.195-4.21L198.827,165.805
		z M253.406,319.805l0.691-3.082c0.821-3.621,1.63-7.224,2.435-10.789c1.753-7.772,3.481-15.444,5.252-23.1
		c6.409-27.728,13.037-56.404,19.816-85.088c0.596-2.521,2.043-5.167,3.872-7.074c3.228-3.364,6.579-6.698,9.819-9.921
		c3.497-3.478,7.113-7.074,10.557-10.694c1.813-1.906,4.733-4.441,9.142-4.441c0.563,0,1.148,0.041,1.738,0.122
		c0.688,0.094,1.66,0.072,2.612,0.034c0.514-0.021,1.028-0.041,1.54-0.042l1.223-0.001c9.181,0,10.788,0.774,12.624,11.402
		c0.397,2.303-0.56,5.361-2.228,7.113c-2.901,3.048-5.925,6.055-8.849,8.962c-3.463,3.443-7.044,7.004-10.406,10.62
		c-1.818,1.956-3.243,4.56-3.812,6.966c-6.237,26.393-12.447,53.263-18.453,79.247c-1.835,7.94-3.67,15.88-5.509,23.819
		c-0.21,0.905-0.459,1.799-0.72,2.732c-0.119,0.425-0.24,0.888-0.36,1.335l-0.498,1.879H253.406z M293.064,359.885
		c0.321-2.147,0.589-4.23,0.848-6.221c0.54-4.158,1.051-8.097,1.934-11.971c3.996-17.531,8.108-35.35,12.085-52.574
		c5.186-22.462,10.548-45.69,15.714-68.556c1.266-5.604,4.818-9.029,8.255-12.34c1.492-1.439,3.036-2.927,4.446-4.626l3.28-3.955
		l3.396,15.667c1.532,7.061,2.989,13.774,4.431,20.492l2.083,9.704c4.401,20.496,8.953,41.69,13.315,62.562
		c0.505,2.416,0.09,5.273-1.058,7.279c-7.45,13.04-15.453,26.758-25.184,43.17c-0.881,1.484-3.056,4.01-5.619,4.059
		c-6.738,0.129-13.375,0.146-18.978,0.146c-2.584,0-5.208,0.046-7.889,0.041c-2.795-0.004-5.651,0.041-8.587,0.041h-2.901
		L293.064,359.885z M322.039,59.792c0.442-1.55,0.88-3.103,1.317-4.655c1.305-4.628,2.653-9.414,4.138-14.092
		c4.71-14.852,18.164-24.83,33.479-24.83c15.167,0.006,28.595,9.734,33.428,24.206c7.598,22.74,4.84,45.227-8.43,68.746
		c-0.693,1.229-1.729,2.139-2.65,2.868c-4.217,3.329-8.442,6.644-12.668,9.958c-9.493,7.446-19.309,15.145-28.827,22.868
		c-3.803,3.085-7.579,4.461-12.246,4.461c-0.232,0-0.469-0.003-0.707-0.01c-3.465-0.102-7.238-0.149-11.875-0.149
		c-2.742,0-5.51-0.196-8.319-0.18c-2.902,0.017-5.85-0.178-8.857-0.178h-3.313l6.82-23.685
		C309.639,103.003,315.835,81.502,322.039,59.792z M180.815,35.782c11.772-9.946,26.175-15.903,44.03-18.209
		c7.136-0.922,13.678-1.37,20.002-1.37c14.328,0,27.001,2.331,38.744,7.125c5.781,2.361,11.07,5.867,16.186,9.258
		c1.935,1.282,3.934,2.608,5.909,3.835c5.232,3.253,3.733,8.435,3.24,10.137c-8.4,29.021-17.441,60.698-27.642,96.841
		c-1.153,4.088-3.507,5.911-7.631,5.911l-0.353-0.004c-3.891-0.086-8.145-0.126-13.386-0.126c-2.835,0-5.67-0.199-8.505-0.188
		c-2.841,0.011-5.683-0.188-8.523-0.188h-0.103c-2.793,0-5.587,0.199-8.38,0.188c-2.787-0.012-5.574,0.083-8.36,0.083
		c-5.116,0-9.27,0.093-13.071,0.179l-0.427,0.031c-4.347,0-6.712-1.808-7.907-6.076c-10.503-37.483-19.192-67.941-27.348-95.868
		C175.881,42.514,176.935,39.061,180.815,35.782z M91.054,41.765c4.722-15.623,17.997-25.96,33.82-25.96h0.047
		c15.773,1,29.381,10.608,33.859,25.984c7.104,24.385,13.914,48.393,21.125,73.683c2.873,10.08,5.763,20.076,8.684,30.285
		l0.912,3.048h-3.315c-2.753,0-5.47,0.204-8.16,0.207c-2.639,0.003-5.251,0.107-7.846,0.107c-4.981,0-11.539,0.039-18.082-0.047
		c-2.155-0.029-4.125-1.354-5.42-2.367l-6.635-5.175c-12.409-9.697-25.241-19.718-37.659-29.851
		c-2.275-1.858-3.582-4.676-4.735-7.166c-0.321-0.695-0.64-1.504-0.976-2.162C86.714,82.839,84.824,62.375,91.054,41.765z
		 M63.959,169.36c-2.619-7.152-5.588-15.259-4.692-24.36c0.895-9.081,5.231-15.636,12.888-19.481
		c3.641-1.829,7.307-2.755,10.896-2.755c4.542,0,8.771,1.466,12.569,4.358c11.602,8.835,23.11,18.163,34.239,27.184l4.909,3.977
		c1.503,1.217,2.798,3.994,2.331,6.188c-8.127,38.206-16.513,77.025-24.622,114.565l-0.758,3.511
		c-0.144,0.669-0.467,1.156-0.66,1.448l-0.638,1.069l-1.113,0.271l-3.596,0.734l-0.684-2.133c-0.521-1.621-1.025-3.249-1.529-4.877
		c-1.056-3.409-2.148-6.934-3.374-10.315C86.341,230.685,74.849,199.105,63.959,169.36z M51.519,343.73
		c-2.191-1.877-4.39-3.746-6.589-5.614c-5.336-4.535-10.854-9.224-16.18-13.971c-11.458-10.21-15.434-27.339-9.671-41.653
		c5.718-14.195,19.514-23.16,34.714-22.399c12.616,0.647,22.416,6.222,28.34,16.122c11.699,19.554,23.327,39.583,34.573,58.952
		c4.193,7.224,8.387,14.446,12.593,21.661c0.307,0.528,0.446,1.03,0.608,1.612c0.08,0.286,0.18,0.647,0.329,1.121l1.1,3.495
		l-3.655-0.251c-2.714-0.187-5.186-0.277-7.555-0.277c-13.445,0-23.657,3.104-32.137,9.77l-1.612,1.267l-11.254-9.63
		C67.177,357.136,59.346,350.436,51.519,343.73z M425.613,436.786c2.593,8.559,0.429,15.906-6.432,21.838
		c-14.409,12.46-31.405,19.193-46.131,24.124c-15.943,5.337-32.901,8.057-50.404,8.057h-0.475c-15.709,0-32.298-0.076-53.789-0.076
		c-10.265,0-20.528-0.003-30.793,0.001c-25.46,0.012-50.923,0.018-76.38-0.036c-29.998-0.064-58.303-8.316-84.128-24.522
		C57.017,453.58,54.96,446.604,64.856,424.71c7.169-15.863,17.865-28.943,31.791-38.876c6.54-4.666,13.589-6.935,21.551-6.935
		l0.475,0.003c8.472,0.096,17.767,0.141,29.254,0.141c5.896,0,11.791-0.107,17.687-0.119c5.9-0.012,11.8-0.119,17.699-0.119h8.943
		l-0.006,6.342c-0.007,2.443-0.012,4.711,0.012,6.931c0.114,11.013,4.951,19.507,14.376,25.2c3.538,2.138,4.603,4.764,3.561,8.751
		c-2.106,8.074-4.561,17.607-6.786,27.051c-0.806,3.418-0.429,6.246,1.09,8.173c1.503,1.908,4.126,2.927,7.584,2.942
		c9.997,0.046,20.362,0.071,30.809,0.071c10.385,0,20.771-0.022,31.155-0.064c3.402-0.015,5.985-1.017,7.469-2.899
		c1.53-1.942,1.903-4.813,1.079-8.303c-0.885-3.741-1.846-7.54-2.775-11.214c-1.32-5.215-2.685-10.606-3.863-15.967
		c-0.546-2.475,0.525-6.426,2.726-7.81c10.462-6.586,15.399-15.713,15.096-27.9c-0.045-1.814-0.12-3.615-0.108-5.521
		c0.006-0.908-0.074-1.843-0.074-2.816v-2.375l2.459-0.122c0.662-0.033,1.322-0.073,1.91-0.11c1.197-0.077,2.349-0.149,3.492-0.15
		l5.29-0.003c4.949,0,9.903,0.006,14.853,0.012c4.947,0.006,9.898,0.012,14.847,0.012c12.544,0,22.104-0.039,30.994-0.128
		l0.441-0.002c7.817,0,14.458,2.021,20.3,6.178C406.596,398.183,419.188,415.578,425.613,436.786z M418.911,357.261
		c-5.738,4.894-11.672,9.954-17.49,14.998l-1.526,1.324l-1.615-1.216c-8.88-6.686-18.938-9.799-31.649-9.799
		c-2.639,0-5.467,0.139-8.407,0.413l-4.191,0.391l1.662-3.867c0.261-0.605,0.474-1.139,0.665-1.619
		c0.397-0.993,0.739-1.851,1.231-2.693c3.526-6.051,7.051-12.106,10.574-18.163c11.274-19.376,22.933-39.411,34.537-59.04
		c7.584-12.827,19.532-19.029,34.223-17.75c14.432,1.257,24.785,9.136,29.942,22.786c5.688,15.062,3.261,28.57-6.834,38.036
		C446.731,333.534,432.588,345.596,418.911,357.261z"/>
</g>
</svg>
