<?xml version="1.0" encoding="utf-8"?>
<!-- Generator: Adobe Illustrator 16.0.4, SVG Export Plug-In . SVG Version: 6.00 Build 0)  -->
<!DOCTYPE svg PUBLIC "-//W3C//DTD SVG 1.0//EN" "http://www.w3.org/TR/2001/REC-SVG-20010904/DTD/svg10.dtd">
<svg version="1.0" id="Layer_1" xmlns="http://www.w3.org/2000/svg" xmlns:xlink="http://www.w3.org/1999/xlink" x="0px" y="0px"
	 width="374.61px" height="511.881px" viewBox="0 0 374.61 511.881" enable-background="new 0 0 374.61 511.881"
	 xml:space="preserve">
<g id="_x32_58V4j.tif">
	<g>
		<path fill-rule="evenodd" clip-rule="evenodd" d="M37.517,429.007c-6.386-10.674-12.397-21.203-18.866-31.443
			c-19.622-31.068-23.554-64.012-12.773-99.029c5.035-16.354,9.486-32.889,14.109-49.367c4.818-17.171,3.98-34.539,2.019-52.028
			c-2.483-22.146-5.845-44.314-6.372-66.531c-0.867-36.527,23.041-68.527,57.727-80.42c1.73-0.593,3.43-1.307,5.197-1.754
			c16.791-4.25,30.92-12.1,44.27-23.961c38.27-33.998,95.287-32.204,132.633,3.081c9.143,8.638,18.803,14.672,30.854,17.906
			c13.822,3.709,27.441,8.306,38.865,17.511c25.793,20.785,36.627,47.608,33.252,80.588c-2.861,27.952-6.26,55.946-6.93,83.98
			c-0.314,13.208,4.926,26.627,8.172,39.82c4.246,17.252,10.143,34.172,13.283,51.602c4.613,25.592-0.564,50.006-13.668,72.557
			c-6.439,11.084-13.16,22.002-19.738,33.004c-0.838,1.4-1.586,2.854-2.529,4.561c1.068,0.584,1.873,1.094,2.732,1.482
			c19.406,8.773,29.412,27.99,25.066,48.164c-4.207,19.521-21.609,33.127-42.621,33.135c-89.656,0.029-179.312,0.018-268.967,0.008
			c-21.836-0.002-39.588-13.51-43.64-33.139c-4.307-20.867,5.478-39.094,26.009-48.477
			C36.043,430.052,36.428,429.722,37.517,429.007z M187.24,495.386c3.998,0,7.996,0,11.994,0
			c41.484,0.002,82.967,0.074,124.449-0.029c17.127-0.041,29.281-16.205,24.809-32.607c-3.354-12.303-13-19.236-27.479-19.297
			c-27.488-0.111-54.979-0.043-82.467-0.035c-11.154,0.002-9.043-0.379-9.287,8.934c-0.352,13.51-8.404,23.4-21.883,24.781
			c-10.885,1.115-21.961,0.217-32.93,0.713c-18.318,0.83-30.812-11.611-29.303-28.533c0.402-4.514-1.215-6.02-5.852-5.99
			c-28.32,0.189-56.643,0.061-84.965,0.146c-3.469,0.01-7.055,0.211-10.383,1.09c-12.607,3.328-20.638,15.754-18.83,28.637
			c1.76,12.545,12.745,22.158,25.678,22.174C96.275,495.423,141.758,495.39,187.24,495.386z M75.512,325.276
			c30.414-19.732,63.625-27.33,98.83-29.645c-3.891-18.453-7.605-36.064-11.406-54.088c-5.225,1.008-9.787,1.805-14.311,2.777
			c-15.842,3.414-28.834-4.831-32.096-20.494c-4.471-21.469-8.914-42.943-13.33-64.423c-3.158-15.355,5.176-28.006,20.418-31.125
			c4.836-0.989,9.658-2.039,14.875-3.143c-2.043-9.573-3.967-18.573-5.945-27.84c-2.107,0.346-3.582,0.493-5.008,0.835
			c-36.346,8.721-60.795,46.902-52.816,83.364c5.434,24.826,11.859,49.434,17.508,74.214c0.656,2.877-0.145,6.564-1.461,9.303
			c-2.219,4.619-5.568,8.677-8.129,13.15C74.373,292.604,72.024,308.001,75.512,325.276z M299.826,325.644
			c0-9.17,0.551-16.801-0.123-24.32c-1.117-12.457-7.014-23.166-14.289-33.037c-3.678-4.992-4.381-9.852-2.852-15.84
			c5.672-22.21,10.912-44.53,16.354-66.799c8.496-34.766-9.256-70.572-41.842-84.133c-3.906-1.626-8.031-2.724-12.609-4.251
			c-2.049,9.755-3.906,18.597-5.861,27.913c5.648,1.166,10.662,2.179,15.666,3.236c13.812,2.917,22.57,15.435,19.846,29.349
			c-4.471,22.822-9.266,45.582-14.188,68.312c-2.436,11.246-12.361,19.157-23.869,18.86c-5.75-0.148-11.512-1.467-17.184-2.658
			c-3.461-0.727-5.111-0.1-5.854,3.641c-3.041,15.318-6.275,30.6-9.596,45.859c-0.654,3.002-0.082,4.352,3.156,4.506
			c4.148,0.195,8.297,0.584,12.422,1.088c24.992,3.049,48.863,9.727,70.898,22.215C292.75,321.196,295.496,322.989,299.826,325.644z
			 M187.844,280.558c0.461-0.027,0.924-0.055,1.385-0.08c12.906-61.363,25.811-122.725,38.867-184.814
			c-26.701-2.482-52.625-2.617-79.213-0.241C161.965,157.587,174.904,219.072,187.844,280.558z M258.469,83.385
			c0-4.315,0.023-9.07-0.004-13.826c-0.102-17.463-0.143-17.427-12.949-29.338c-23.58-21.93-51.121-27.951-81.936-20.204
			c-18.91,4.754-32.533,17.607-45.734,30.934c-0.643,0.649-1.18,1.739-1.188,2.629c-0.082,10.097-0.051,20.194-0.051,29.797
			C163.615,74.88,210.975,75.233,258.469,83.385z M341.746,264.767c-0.742-2.762-1.283-4.984-1.934-7.176
			c-4.453-14.984-6.521-30.331-5.186-45.869c1.668-19.381,4.084-38.699,6.34-58.025c1.719-14.741,3.334-29.341-1.471-43.956
			c-8.697-26.452-38.25-49.603-64.277-50c0,8.632,0.141,17.267-0.055,25.895c-0.107,4.725,1.645,7.694,5.525,10.683
			c30.18,23.234,41.824,53.901,34.303,91.163c-4.434,21.964-10.404,43.616-15.555,65.439c-0.498,2.117-0.883,4.871,0.039,6.605
			c4.197,7.889,8.881,15.518,13.643,23.674C320.158,274.095,329.121,267.276,341.746,264.767z M61.461,283.075
			c4.229-7.402,7.973-14.426,12.204-21.143c1.854-2.945,2.292-5.588,1.479-8.867c-5.148-20.798-10.191-41.623-15.256-62.442
			c-9.084-37.349,4.458-73.568,35.557-95.882c1.912-1.372,3.432-4.448,3.621-6.851c0.682-8.622,0.73-17.295,0.957-25.951
			c0.023-0.89-0.359-1.791-0.658-3.164c-8.434,2.822-16.566,5.175-24.42,8.242c-26.155,10.214-44.916,37.769-43.364,65.318
			c1.093,19.398,3.479,38.757,6.077,58.027c3.193,23.686,3.629,47.067-3.836,70.104c-0.427,1.316-0.537,2.734-0.836,4.33
			C45.232,267.146,54.146,273.767,61.461,283.075z M90.479,391.655c-1.557,9.283-1.338,19.611,0.16,30.064
			c0.645,4.498,2.289,5.686,6.645,5.664c32.314-0.166,64.631-0.09,96.945-0.09c27.486,0,54.971-0.086,82.455,0.086
			c4.395,0.029,6.893-0.783,7.043-5.758c0.178-5.971,1.182-11.924,1.256-17.893c0.057-4.514-0.781-9.037-1.154-12.879
			c-6.711,0.473-12.471,1.217-18.232,1.232c-42.311,0.111-84.621,0.125-126.93,0.068C122.926,392.13,107.188,391.837,90.479,391.655
			z M74.451,427.255c0-1.639,0.096-2.467-0.014-3.27c-1.958-14.465-1.734-28.85,1.337-43.164c0.217-1.012-0.001-2.309-0.472-3.244
			c-9.159-18.137-13.914-37.686-16.795-57.527c-1.539-10.598-4.062-20.355-11.295-28.021c-4.169-4.418-9.975-7.377-15.291-10.584
			c-2.436-1.471-4.182-0.211-4.971,2.785c-2.54,9.633-5.545,19.146-7.989,28.801c-5.892,23.281-2.937,45.703,8.384,66.682
			c8.209,15.211,17.569,29.803,26.53,44.602c0.757,1.25,2.337,2.736,3.609,2.811C62.928,427.435,68.398,427.255,74.451,427.255z
			 M299.836,427.294c5.348,0,9.986-0.203,14.6,0.068c3.271,0.191,5.135-1.029,6.766-3.812c8.068-13.773,16.445-27.363,24.477-41.156
			c8.549-14.682,12.547-30.664,12.621-47.617c0.08-17.947-6.662-34.445-11.109-51.428c-0.816-3.115-2.936-2.553-5.111-1.797
			c-14.225,4.93-22.49,16.369-24.547,29.746c-2.516,16.369-6.664,32.137-11.141,47.91c-1.746,6.154-4.77,11.938-7.037,17.957
			c-0.531,1.412-0.59,3.105-0.48,4.643c0.689,9.76,1.748,19.502,2.141,29.271C301.219,416.165,300.312,421.296,299.836,427.294z
			 M233.473,316.284c-0.963,4.121-1.895,7.469-2.508,10.873c-1.543,8.543-4.041,17.129-11.074,22.303
			c-7.346,5.402-8.465,11.965-7.658,19.881c0.084,0.826,0.086,1.672,0.012,2.496c-0.295,3.326,1.367,4.305,4.479,4.293
			c17.656-0.072,35.316,0.141,52.969-0.084c8.521-0.109,15.277-3.994,18.332-12.219c2.584-6.957,4.25-14.254,6.338-21.453
			C276.213,328.46,255.818,321.017,233.473,316.284z M141.09,316.903c-13.188,0.648-41.6,11.973-55.598,21.344
			c-4.246,2.844-5.812,5.469-3.686,10.371c1.504,3.471,2.104,7.332,3.141,11.008c3.227,11.43,9.826,16.461,21.779,16.498
			c13.656,0.043,27.314,0.018,40.971,0.01c14.543-0.008,14.461-0.014,14.531-14.766c0.016-3.426-0.846-5.727-3.723-7.998
			c-7.363-5.816-12.504-13.24-14.217-22.764C143.471,326.065,142.203,321.606,141.09,316.903z M235.584,141.348
			c-0.496,1.39-0.793,1.991-0.928,2.626c-5.518,25.982-11.01,51.97-16.541,77.949c-0.584,2.736,0.443,3.975,3.152,4.397
			c4.1,0.64,8.145,1.616,12.24,2.272c5.516,0.883,9.643-1.676,10.795-7.067c4.717-22.078,9.326-44.181,13.865-66.296
			c1.016-4.953-1.418-9.102-6.273-10.419C246.639,143.386,241.232,142.521,235.584,141.348z M141.854,141.315
			c-5.645,1.158-10.994,2.039-16.225,3.389c-4.996,1.29-7.152,4.438-6.66,9.626c0.344,3.618,1.268,7.186,2.006,10.76
			c3.73,18.05,7.486,36.094,11.229,54.141c0.877,4.23,2.217,9.042,7.078,9.05c6.725,0.011,13.451-1.58,20.375-2.511
			C153.58,196.94,147.799,169.521,141.854,141.315z M216.32,313.44c-19.551-2.137-39.049-2.568-58.584,0.291
			c2.189,24.348,12.301,34.311,33.785,32.473C208.775,344.729,215.336,332.784,216.32,313.44z M187.562,443.483
			c0-0.023,0-0.047,0-0.07c-3.66,0-7.318-0.006-10.979,0.002c-3.66,0.01-7.33-0.115-10.977,0.127
			c-1.463,0.096-3.693,0.617-4.176,1.619c-3.568,7.408,2.104,16.068,10.445,16.15c9.482,0.092,18.967,0.043,28.449,0.043
			c10.188-0.002,13.227-3.316,13.049-13.561c-0.057-3.252-1.137-4.42-4.352-4.355C201.873,443.583,194.717,443.483,187.562,443.483z
			 M177.541,362.827c0.742,4.74,1.381,8.824,2.021,12.906c5.256-0.121,10.51-0.242,15.766-0.363
			c0.379-4.133,0.758-8.266,1.15-12.543C189.883,362.827,184.434,362.827,177.541,362.827z"/>
	</g>
</g>
</svg>
