<?xml version="1.0" encoding="utf-8"?>
<!-- Generator: Adobe Illustrator 20.0.0, SVG Export Plug-In . SVG Version: 6.00 Build 0)  -->
<svg version="1.1" id="Layer_3_copy_2" xmlns="http://www.w3.org/2000/svg" xmlns:xlink="http://www.w3.org/1999/xlink" x="0px"
	 y="0px" viewBox="0 0 451 452.6" style="enable-background:new 0 0 451 452.6;" xml:space="preserve">
<style type="text/css">
	.st0{fill:#FFDC2C;}
	.st1{fill:#263C70;}
</style>
<g>
	<path class="st0" d="M151.1,189.4h149.2c4.5-0.5,8.1-4.3,8.1-9c0-2-0.6-3.8-1.7-5.2L233.2,57.7c-0.8-1.3-1.9-2.3-3.1-3V38.9
		l59.4-14.3c2-0.5,3.4-2.3,3.4-4.4c0-2.1-1.4-3.9-3.4-4.4L228.6,1.1c-0.8-0.7-1.8-1.1-3-1.1c-2.5,0-4.5,2-4.5,4.5v50.2
		c-1.3,0.7-2.3,1.7-3.1,3l-73.8,118c-1.7,2.8-1.8,6.3-0.2,9.1C145.4,187.5,148.1,189.2,151.1,189.4z"/>
	<path class="st1" d="M442,275.7h-43.2c-5,0-9,4-9,9v20.8h-16.7v-20.8c0-5-4-9-9-9H321c-5,0-9,4-9,9v20.8h-15.4v-98.1H154.6v98.1
		h-15.3v-20.8c0-5-4-9-9-9H87.1c-5,0-9,4-9,9v20.8H61.5v-20.8c0-5-4-9-9-9H9c-5,0-9,4-9,9v158.9c0,5,4,9,9,9h177.5
		c0,0,0.1-67,0.1-67.2c0-0.6,0.1-1.2,0.2-1.9c0-0.2,0-0.3,0.1-0.5c2.6-19,18.9-33.6,38.6-33.6c19.7,0,36,14.6,38.6,33.6
		c0,0.2,0,0.3,0.1,0.5c0.1,0.6,0.1,1.2,0.2,1.9c0,0.2,0.1,67.2,0.1,67.2H442c5,0,9-4,9-9V284.7C451,279.7,447,275.7,442,275.7z
		 M248.5,292.4h-45.9v-38.3c0-12.7,10.3-22.9,22.9-22.9c12.7,0,22.9,10.3,22.9,22.9V292.4z"/>
</g>
</svg>
