<?xml version="1.0" encoding="utf-8"?>
<!-- Generator: Adobe Illustrator 21.0.0, SVG Export Plug-In . SVG Version: 6.00 Build 0)  -->
<svg version="1.1" id="Camada_1" xmlns="http://www.w3.org/2000/svg" xmlns:xlink="http://www.w3.org/1999/xlink" x="0px" y="0px"
	 viewBox="0 0 127.4 127.7" style="enable-background:new 0 0 127.4 127.7;" xml:space="preserve">
<g id="Bhv6bg.tif">
	<g>
		<path d="M64.2,0c1.2,0.6,1.6,1.5,1.6,2.8c-0.1,1.8,0,3.7,0,5.7c0.5,0,1,0,1.5,0c12.6,0,25.1,0,37.7,0c0.7,0,1.6,0.3,2.1,0.7
			c6.7,5.3,13.3,10.7,20,16c0.1,0.1,0.2,0.2,0.4,0.4c-1.4,1.1-2.7,2.2-4.1,3.3c-5.4,4.3-10.7,8.6-16.1,12.8
			c-0.6,0.4-1.4,0.7-2.1,0.7c-12.6,0-25.1,0-37.7,0c-0.5,0-1,0-1.6,0c0,2.9,0,5.7,0,8.6c0.5,0,1,0,1.5,0c10.5,0,21,0,31.5,0
			c0.9,0,1.8,0.1,2.6,0.4c2,0.7,2.7,2.3,2.7,4.2c0,8.3,0,16.5,0,24.8c0,2.5-1.5,4.6-4.9,4.6c-10.6-0.1-21.3,0-31.9,0
			c-1.6,0-1.6,0-1.6,1.6c0,12.7,0,25.5,0,38.2c0,1.3-0.4,2.2-1.6,2.8c-0.3,0-0.7,0-1,0c-1.2-0.6-1.6-1.5-1.6-2.8
			c0-12.8,0-25.6,0.1-38.5c0-1.1-0.3-1.4-1.4-1.4c-12.5,0-25,0-37.5,0c-1.2,0-2.1-0.3-3.1-1C13.5,79,7.2,74,0.8,68.9
			c-0.3-0.2-0.5-0.4-0.8-0.8c2.3-1.8,4.5-3.6,6.7-5.4c4.5-3.6,9-7.3,13.5-10.8c0.6-0.4,1.4-0.8,2.1-0.8c12.5,0,25.1,0,37.6,0
			c0.5,0,1.1,0,1.7,0c0-2.9,0-5.7,0-8.6c-0.5,0-1,0-1.5,0c-10.7,0-21.5,0-32.2,0c-2.9,0-4.7-1.6-4.7-4.5c0-8.3,0-16.6,0-24.9
			c0-2.9,1.8-4.5,4.7-4.5c10.7,0,21.4,0,32.1,0c0.5,0,1,0,1.6,0c0-2,0.1-3.9,0-5.7C61.6,1.5,62,0.6,63.2,0C63.6,0,63.9,0,64.2,0z
			 M6.2,68.1c0.3,0.2,0.4,0.3,0.5,0.4c5.2,3.9,10.4,7.8,15.6,11.6c0.6,0.5,1.6,0.8,2.4,0.8c7.4,0.1,14.8,0,22.2,0
			c16.8,0,33.6,0,50.4,0c1.9,0,2.7-0.8,2.7-2.6c0-6.8,0-13.7,0-20.5c0-1.7-0.8-2.5-2.4-2.5c-24.5,0-49,0-73.5,0
			c-0.5,0-1,0.2-1.3,0.5c-3.3,2.4-6.5,4.8-9.8,7.3C10.7,64.7,8.5,66.4,6.2,68.1z M121.2,25.6c-0.3-0.3-0.5-0.5-0.7-0.6
			c-5.2-3.9-10.4-7.8-15.7-11.7c-0.5-0.3-1.1-0.5-1.7-0.5c-8.6,0-17.3,0-25.9,0c-15.5,0-31,0-46.5,0c-2.7,0-3.2,0.5-3.2,3.1
			c0,6.5,0,12.9,0,19.4c0,2.6,0.6,3.2,3.3,3.2c24,0,47.9,0,71.9,0c1,0,1.8-0.3,2.6-0.9c1.4-1.2,2.9-2.2,4.4-3.3
			C113.5,31.4,117.3,28.5,121.2,25.6z"/>
	</g>
</g>
</svg>
