<?xml version="1.0" encoding="utf-8"?>
<!-- Generator: Adobe Illustrator 16.0.0, SVG Export Plug-In . SVG Version: 6.00 Build 0)  -->
<!DOCTYPE svg PUBLIC "-//W3C//DTD SVG 1.1//EN" "http://www.w3.org/Graphics/SVG/1.1/DTD/svg11.dtd">
<svg version="1.1" id="Layer_1" xmlns="http://www.w3.org/2000/svg" xmlns:xlink="http://www.w3.org/1999/xlink" x="0px" y="0px"
	 width="2000px" height="2000px" viewBox="0 0 2000 2000" enable-background="new 0 0 2000 2000" xml:space="preserve">
<g>
	<circle fill="#005ca9" cx="1000" cy="1000" r="1000"/>
	<path fill="#FDDB2B" d="M1527.7,1233.8c0-28.8-0.1-57.7,0.1-86.5c0-5.2-1.6-6.3-6.5-6.3c-54.5,0.2-109,0.1-163.5,0.1
		c-9.4,0-18.6-0.9-27.6-3.8c-25.6-8.1-42.8-29.9-45.3-56.6c-1.2-12.9-0.5-25.6,3.6-38c8.7-26.3,31.8-43.1,60.5-44.3
		c3.8-0.2,7.7-0.1,11.5-0.1c53.3,0,106.7,0,160,0c7.2,0,7.2,0,7.2-7c0-54.7,0.1-109.3,0-164c0-13,1.7-25.6,7.7-37.3
		c11.9-23.1,31.9-33.6,57-35.5c12.1-0.9,24,0.3,35.4,4.7c24.7,9.5,37.4,28.3,41.3,53.8c0.9,5.9,1,11.9,1,17.9c0,53.5,0,107,0,160.5
		c0,6.9,0,6.9,7.1,6.9c55.8,0,111.7-0.2,167.5,0.1c24.1,0.1,44.2,8.9,57.8,29.8c16.8,25.9,14.2,67.2-5.8,90.5
		c-11.7,13.6-27.2,19.9-44.7,21.8c-7,0.7-14,0.7-21,0.7c-51.3,0-102.7,0-154,0c-6.9,0-6.9,0-6.9,7.1c0,54.7,0,109.3,0,164
		c0,11.1-1.5,21.9-5.7,32.3c-7.3,17.9-20.1,30-38.4,36.1c-16.4,5.5-33.2,5.7-49.8,1.3c-28-7.3-47.2-31.2-48-60.7
		c-0.7-29.1-0.2-58.3-0.2-87.5C1527.9,1233.8,1527.8,1233.8,1527.7,1233.8z"/>
	<path fill="#FEFEFE" d="M1298,795.1c-12.8-72.6-50-129.7-111.9-170.1c-50.5-33-106.9-46.9-166.7-47.5c-66.7-0.6-133.3-0.2-200-0.2
		c-8.2,0-16.3,0.4-24.4,1.9c-30.8,5.8-51.9,22.9-61.8,52.9c-4,12-4.8,24.4-4.8,37c0,104.2,0,208.3,0,312.5c0,103.7,0,207.3,0,311
		c0,5.7,0,11.4,0.6,17c2.9,29.5,15.2,53.3,42.5,67.3c17.4,8.9,36.2,11.1,55.4,8.2c30.4-4.5,52.2-20.4,63.6-49.5
		c4.9-12.6,6.4-25.8,6.4-39.2c0-59.2,0-118.3-0.1-177.5c0-4.7,1.4-5.6,5.8-5.6c39.7,0.2,79.3,0,119,0.1
		c41.8,0.1,82.2-7.1,120.8-23.2c62.3-26.1,109.3-68.7,137.1-130.8C1303,906.7,1307.9,851.5,1298,795.1z M1125.4,868.7
		c-3.8,23.9-13.4,45.3-30.4,62.8c-22.8,23.4-51.3,33.2-83.4,33.3c-36.5,0.2-73,0-109.5,0.1c-4.1,0-5.3-1-5.2-5.2
		c0.2-38,0.1-76,0.1-114c0-38.2,0.1-76.3-0.1-114.5c0-3.9,0.6-5.3,5-5.3c38.3,0.2,76.7-0.7,115,0.4c46.4,1.4,80.5,23.1,99.8,65.9
		C1127.7,816.7,1129.5,842.5,1125.4,868.7z"/>
	<path fill="#FEFEFE" d="M217.3,983.3c0-104.3,0-208.7,0-313c0-21,4-40.8,16.5-58.1c16.9-23.4,40.5-34.1,68.7-34.4
		c45.7-0.5,91.3-0.2,137-0.2c49.7,0,99.3,0,149,0c10.2,0,20.3,0.7,30.1,4c18.2,6.2,31.9,17.9,40.3,35.1
		c11.9,24.3,12.6,49.3,1.5,73.9c-12.8,28.4-35.9,42.2-66.7,42.4c-67.3,0.4-134.7,0.2-202,0c-4.8,0-6,1.1-5.9,6
		c0.2,50.8,0.2,101.7,0,152.5c0,4.6,0.8,6.1,5.8,6.1c55.2-0.2,110.3-0.1,165.5-0.1c19.9,0,39,3.5,54.9,16.4
		c25.8,20.9,33.7,48.6,26.3,80.2c-7.3,31.5-27.9,50.6-59.6,57.4c-6.9,1.5-13.9,1.9-20.9,1.9c-55.3,0-110.7,0.1-166-0.2
		c-5.3,0-6.1,1.5-6.1,6.3c0.2,79,0.1,158,0.1,237c0,13.4-1.4,26.7-6.3,39.2c-12.6,32.1-37.2,47.9-70.8,50.6
		c-19.9,1.6-38.9-2.1-55.8-13.2c-22.1-14.6-32.2-36.1-35-61.6c-0.7-6.6-0.8-13.3-0.8-20C217.2,1188.6,217.3,1085.9,217.3,983.3z"/>
</g>
</svg>
