<?xml version="1.0" encoding="utf-8"?>
<!-- Generator: Adobe Illustrator 20.0.0, SVG Export Plug-In . SVG Version: 6.00 Build 0)  -->
<svg version="1.1" id="Layer_1" xmlns="http://www.w3.org/2000/svg" xmlns:xlink="http://www.w3.org/1999/xlink" x="0px" y="0px"
	 viewBox="0 0 302.4 253.4" style="enable-background:new 0 0 302.4 253.4;" xml:space="preserve">
<style type="text/css">
	.st0{fill:#3580C3;}
	.st1{fill:#FFDC2A;}
	.st2{fill:#263C6F;}
</style>
<g>
	<g>
		<g>
			<polygon class="st0" points="229.7,113 217.4,110 236.2,31.3 296.6,0 302.4,11.2 247.2,39.8 			"/>
			<g>
				<path class="st0" d="M139,195.6c0,0.1,0,0.2,0,0.3c0,27.2-22.1,49.3-49.3,49.3H65.5c-27.2,0-49.3-22.1-49.3-49.3
					c0-0.1,0-0.2,0-0.3H139z"/>
				<path class="st0" d="M89.7,117H65.5c-27.2,0-49.3,22.1-49.3,49.3c0,0.1,0,0.2,0,0.3H139c0-0.1,0-0.2,0-0.3
					C139,139,117,117,89.7,117z M43,136.7c-2.5,0-4.5-0.8-4.5-1.9c0-1,2-1.9,4.5-1.9c2.5,0,4.5,0.8,4.5,1.9
					C47.5,135.9,45.5,136.7,43,136.7z M60.2,127.5c-2.6,0-4.7-1.2-4.7-2.6c0-1.5,2.1-2.6,4.7-2.6c2.6,0,4.7,1.2,4.7,2.6
					C64.9,126.4,62.8,127.5,60.2,127.5z M68.3,138.1c-2.1,0-3.8-0.8-3.8-1.9c0-1,1.7-1.9,3.8-1.9c2.1,0,3.8,0.8,3.8,1.9
					C72.1,137.2,70.4,138.1,68.3,138.1z M82.5,124.7c-2.5,0-4.5-0.8-4.5-1.9c0-1,2-1.9,4.5-1.9c2.5,0,4.5,0.8,4.5,1.9
					C87,123.9,84.9,124.7,82.5,124.7z M92.5,138.2c-3,0-5.5-1.2-5.5-2.6c0-1.5,2.4-2.6,5.5-2.6c3,0,5.4,1.2,5.4,2.6
					C97.9,137,95.5,138.2,92.5,138.2z M103.7,127.8c-2.5,0-4.5-0.8-4.5-1.9s2-1.9,4.5-1.9c2.5,0,4.5,0.8,4.5,1.9
					S106.2,127.8,103.7,127.8z M114.9,136.8c-2.1,0-3.8-0.8-3.8-1.9c0-1,1.7-1.9,3.8-1.9c2.1,0,3.8,0.8,3.8,1.9
					C118.6,136,116.9,136.8,114.9,136.8z"/>
				<path class="st1" d="M145.3,183.4l-12.9-10.1c-1.7-1.3-4-1.3-5.7,0l-10.1,7.8l-10.1-7.8c-1.7-1.3-4-1.3-5.7,0l-10.1,7.8
					l-10.1-7.8c-1.7-1.3-4-1.3-5.7,0l-10.1,7.8l-10.1-7.8c-1.7-1.3-4-1.3-5.7,0l-10.1,7.8l-10.1-7.8c-1.7-1.3-4-1.3-5.7,0l-13,10.1
					c-2,1.6-2.4,4.5-0.8,6.5c0.9,1.2,2.3,1.8,3.7,1.8c1,0,2-0.3,2.9-1l10.1-7.8l10,7.7c0.4,0.3,0.8,0.6,1.3,0.7
					c0.2,0.1,0.3,0.1,0.5,0.2c0.1,0,0.3,0,0.4,0.1c0.2,0,0.4,0.1,0.6,0.1c0,0,0.1,0,0.1,0c0.1,0,0.3,0,0.4,0c0.1,0,0.2,0,0.3,0
					c0.2,0,0.4-0.1,0.6-0.1c0.2-0.1,0.4-0.1,0.6-0.2c0.1-0.1,0.3-0.1,0.4-0.2c0.2-0.1,0.3-0.2,0.5-0.3c0.1,0,0.1-0.1,0.2-0.1
					l0.1-0.1c0,0,0.1,0,0.1-0.1l9.9-7.7l10,7.7c0.4,0.3,0.9,0.6,1.3,0.7c0.2,0.1,0.3,0.1,0.5,0.2c0.1,0,0.2,0,0.4,0.1
					c0.2,0,0.4,0.1,0.6,0.1c0.1,0,0.1,0,0.1,0c0.1,0,0.3,0,0.4,0c0.1,0,0.2,0,0.3,0c0.2,0,0.4-0.1,0.6-0.1c0.2-0.1,0.4-0.1,0.6-0.2
					c0.1-0.1,0.3-0.1,0.4-0.2c0.2-0.1,0.3-0.2,0.5-0.3c0.1,0,0.1-0.1,0.2-0.1l0.1-0.1c0,0,0.1,0,0.1-0.1l9.9-7.7l10,7.7
					c0.4,0.3,0.8,0.6,1.3,0.7c0.2,0.1,0.4,0.1,0.5,0.2c0.1,0,0.3,0,0.4,0.1c0.2,0,0.4,0.1,0.6,0.1c0,0,0.1,0,0.1,0
					c0.1,0,0.3,0,0.4,0c0.1,0,0.2,0,0.3,0c0.2,0,0.4-0.1,0.6-0.1c0.2,0,0.4-0.1,0.6-0.2c0.1-0.1,0.3-0.1,0.4-0.2
					c0.2-0.1,0.3-0.2,0.5-0.3c0.1,0,0.1-0.1,0.2-0.1l0.1-0.1c0,0,0.1,0,0.1-0.1l9.9-7.7l9.9,7.7c0,0,0.1,0,0.1,0.1l0.1,0.1
					c0,0,0.1,0.1,0.1,0.1c0.2,0.1,0.4,0.3,0.6,0.4c0.1,0,0.2,0.1,0.3,0.1c0.2,0.1,0.4,0.2,0.6,0.2c0.1,0,0.2,0.1,0.4,0.1
					c0.2,0,0.3,0.1,0.5,0.1c0.1,0,0.3,0,0.4,0c0.2,0,0.3,0,0.5,0c0.2,0,0.3,0,0.5-0.1c0.1,0,0.3,0,0.4-0.1c0.2-0.1,0.4-0.1,0.5-0.2
					c0.1,0,0.2-0.1,0.3-0.1c0.2-0.1,0.4-0.2,0.6-0.4c0,0,0.1,0,0.1-0.1l0.1-0.1c0,0,0.1,0,0.1-0.1l9.9-7.7l10.1,7.8
					c0.9,0.7,1.9,1,2.9,1c1.4,0,2.8-0.6,3.7-1.8C147.7,187.9,147.3,185,145.3,183.4z"/>
			</g>
		</g>
		<path class="st2" d="M213.9,73c-29.7,0-53.9,8.3-55.5,18.8c-0.1,0.3-0.1,0.7-0.1,1l12.2,151.6h86.7l4-49.8l8.2-101.8
			C269.5,81.9,244.6,73,213.9,73z"/>
		<path class="st2" d="M286.7,245.3c0,4.4-3.6,8.1-8.1,8.1H8.1c-4.5,0-8.1-3.6-8.1-8.1l0,0c0-4.4,3.6-8.1,8.1-8.1h270.6
			C283.1,237.3,286.7,240.9,286.7,245.3L286.7,245.3z"/>
	</g>
</g>
</svg>
