<?xml version="1.0" encoding="utf-8"?>
<!-- Generator: Adobe Illustrator 21.0.0, SVG Export Plug-In . SVG Version: 6.00 Build 0)  -->
<svg version="1.1" id="Camada_1" xmlns="http://www.w3.org/2000/svg" xmlns:xlink="http://www.w3.org/1999/xlink" x="0px" y="0px"
	 viewBox="0 0 60.6 52.8" style="enable-background:new 0 0 60.6 52.8;" xml:space="preserve">
<style type="text/css">
	.st0{fill:none;stroke:#000000;stroke-miterlimit:10;}
</style>
<path d="M43,52.8c-0.9-0.2-1.6-0.9-2.5-1.2c-1.8-0.5-2.9-1.4-2.5-3.6c0.3-1.9-1-2.5-2.6-2.4c-3.1,0.1-2.3-2.5-3.1-4.1
	c-0.8-1.5-0.3-2.5,1-3.2c2.4-1.4,1.3-2.8,0.4-4c-2.6,1.5-5.1,3-7.6,4.3c-0.4,0.2-1.5-0.5-2.1-1c-3.3-2.7-3.4-2.7-6.2,0.5
	c-0.9,1.1-1.8,1.5-3.1,0.8c-0.9-0.5-1.9-0.8-2.8-1.2c-3.5-1.3-4.5-1.5-3.3-4.9c0.7-2-0.7-3.4-2.8-3.1c-2.8,0.3-4.2-0.8-4.5-3.5
	c-0.1-0.6-0.3-1.3-0.5-1.9c-1-2.2-0.8-3.8,1.6-5c2.1-1,2.5-2.8,0.9-4.6C1.2,13,1.1,11.3,3,9.4c0.5-0.5,0.8-1,1.1-1.6
	c1.1-2.4,2.6-3,5.1-1.9c1.8,0.8,3.5,0.3,3.8-1.9C13.2,1.4,13.3,0,17.1,0c1.9,0,5.3-0.3,5.6,2c0.4,2.6,1.7,3.5,7.1,1.9
	c0.6-0.2,1.4,0,1.9,0.4c0.9,0.8,1.6,1.8,2.5,2.6c2.1,1.8,2.8,3.6,0.9,6.1c-1.4,1.7-0.6,3.3,1.3,4c2.7,0.9,3.2,2.7,2.5,5.1
	c-0.2,0.8-0.5,1.6-0.5,2.5c0.1,2.3-1,3-3.2,3.2c-3.2,0.3-3.6,1.2-2.5,4.6c0.5-0.6,0.9-1,1.2-1.5c1.2-1.9,2.2-3.7,5-2.3
	c0.4,0.2,1.9-1,2.2-1.8c0.5-1.7,1.2-2.7,3-2.5c1.8,0.2,4-1.1,4.8,1.8c0.5,1.8,1.7,2.3,3.2,1.4c1.7-1,2.7-0.5,3.7,0.9
	c1,1.5,3.4,2.4,1.6,4.8c-1.2,1.6-1.1,2.5,0.6,3.2c0.6,0.2,1.8,0.4,2.2,1.3c0.5,1.1,0.4,6.2-2.3,6.4c-2.7,0.2-3.2,1.6-2.7,3.9
	c0.6,2.2-1.6,2.1-2.6,2.9c-1,0.8-2.2,1.5-3.3,0.6c-3.2-2.3-2.2-0.6-4.7,0.9C44.4,52.6,43.3,52.9,43,52.8z M19.6,27.6
	c4.3,0,7.7-3.3,7.7-7.6c0-4.1-3.4-7.6-7.4-7.6c-4-0.1-7.7,3.6-7.7,7.7C12.1,24.2,15.4,27.6,19.6,27.6z M51.5,38.8
	c0.1-3.1-2.3-5.6-5.3-5.6c-3,0-5.5,2.4-5.5,5.5c0,3,2.3,5.4,5.2,5.5C49,44.2,51.4,41.9,51.5,38.8z"/>
</svg>
