<?xml version="1.0" encoding="utf-8"?>
<!-- Generator: Adobe Illustrator 16.0.4, SVG Export Plug-In . SVG Version: 6.00 Build 0)  -->
<!DOCTYPE svg PUBLIC "-//W3C//DTD SVG 1.0//EN" "http://www.w3.org/TR/2001/REC-SVG-20010904/DTD/svg10.dtd">
<svg version="1.0" id="Layer_1" xmlns="http://www.w3.org/2000/svg" xmlns:xlink="http://www.w3.org/1999/xlink" x="0px" y="0px"
	 width="53.335px" height="53.335px" viewBox="0 0 53.335 53.335" enable-background="new 0 0 53.335 53.335" xml:space="preserve">
<g id="Icon_1_-_Info">
</g>
<path d="M51.667,26.667l1.668-4.224l-2.892-3.502l0.281-4.532l-3.832-2.437l-1.134-4.397l-4.396-1.134L38.925,2.61
	l-4.532,0.281L30.891,0l-4.224,1.667L22.443,0l-3.502,2.891L14.409,2.61l-2.437,3.832L7.575,7.576l-1.134,4.397L2.61,14.41
	l0.28,4.532L0,22.444l1.667,4.224L0,30.891l2.891,3.502l-0.28,4.532l3.831,2.438l1.134,4.396l4.397,1.134l2.437,3.832l4.532-0.281
	l3.502,2.892l4.224-1.668l4.224,1.668l3.502-2.892l4.532,0.281l2.438-3.832l4.396-1.134l1.134-4.396l3.832-2.438l-0.281-4.532
	l2.892-3.502L51.667,26.667z M23.722,36.079l-0.013-0.013l-0.005,0.013l-8.619-8.621l4.282-4.284l4.342,4.342l10.258-10.259
	l4.283,4.278L23.722,36.079z"/>
</svg>
