<?xml version="1.0" encoding="utf-8"?>
<!-- Generator: Adobe Illustrator 21.0.0, SVG Export Plug-In . SVG Version: 6.00 Build 0)  -->
<svg version="1.1" id="Camada_1" xmlns="http://www.w3.org/2000/svg" xmlns:xlink="http://www.w3.org/1999/xlink" x="0px" y="0px"
	 width="177px" height="177.2px" viewBox="0 0 177 177.2" style="enable-background:new 0 0 177 177.2;" xml:space="preserve">
<g id="WqzF4F.tif">
	<g>
		<path d="M7.2,81.5c0.9-4.7,1.3-9.4,2.6-13.9c9-31.6,29.5-51.6,61.4-59.9c0.3-0.1,0.5-0.1,0.8-0.2c0.7-0.2,1.2-0.3,2.1-0.6
			c0-1.8,0-3.6,0-5.5c7.5-1.6,15-1.8,22.4-1.2c23.1,2,42.7,11.7,58.2,29c12.7,14,20,30.5,21.9,49.3c0.1,0.7,0.3,1.2,0.5,1.9
			c0,3.6,0,7.4,0,11c-1.8,0-3.6,0-5.5,0c-0.4,3.5-0.6,6.8-1.2,10c-7.2,34.2-27.4,56.4-61.2,65.9c-4.2,1.2-8.6,1.6-13,2.5
			c-4.5,0-9,0-13.5,0c-1.9-0.3-3.7-0.7-5.7-1c-32-4.5-59.6-29.5-67.2-61.2c-1.1-4.5-1.7-9.1-2.6-13.7C7.2,89.9,7.2,85.8,7.2,81.5z
			 M74.1,10.2c-36.5,6.7-68.9,42-63.2,87.6c5.2,42.1,43.6,74.4,88.6,68.6c42.4-5.4,68.1-41.7,68.8-74.8c-1.7,0-3.5,0-5.3,0
			c0.4-24-7.8-44.1-26-59.7c-18.1-15.5-39.3-20.4-63-16.2C74.1,13.9,74.1,12.2,74.1,10.2z"/>
	</g>
</g>
</svg>
