<svg version="1.1" xmlns="http://www.w3.org/2000/svg" xmlns:xlink="http://www.w3.org/1999/xlink" xml:space="preserve">
	<metadata>
	<?xpacket begin="" id="W5M0MpCehiHzreSzNTczkc9d"?>
	<x:xmpmeta xmlns:x="adobe:ns:meta/" x:xmptk="Adobe XMP Core 5.3-c011 66.145661, 2012/02/06-14:56:27        ">
	<rdf:RDF xmlns:rdf="http://www.w3.org/1999/02/22-rdf-syntax-ns#">
	<rdf:Description rdf:about="" xmlns:dc="http://purl.org/dc/elements/1.1/">
	<dc:format>image/svg+xml</dc:format><dc:title>
	<rdf:Alt><rdf:li xml:lang="x-default">ícones-mouse-over</rdf:li>
	</rdf:Alt></dc:title></rdf:Description>
	<rdf:Description rdf:about="" xmlns:xmp="http://ns.adobe.com/xap/1.0/" xmlns:xmpGImg="http://ns.adobe.com/xap/1.0/g/img/">
	<xmp:CreatorTool>Adobe Illustrator CS6 (Macintosh)</xmp:CreatorTool>
	<xmp:CreateDate>2016-06-15T18:57:39-03:00</xmp:CreateDate>
	<xmp:ModifyDate>2016-06-15T18:57:39-03:00</xmp:ModifyDate>
	<xmp:MetadataDate>2016-06-15T18:57:39-03:00</xmp:MetadataDate>
	<xmp:Thumbnails><rdf:Alt><rdf:li rdf:parseType="Resource">
	<xmpGImg:width>256</xmpGImg:width><xmpGImg:height>4</xmpGImg:height>
	<xmpGImg:format>JPEG</xmpGImg:format>
	<xmpGImg:image>/9j/4AAQSkZJRgABAgEASABIAAD/7QAsUGhvdG9zaG9wIDMuMAA4QklNA+0AAAAAABAASAAAAAEA&#xA;AQBIAAAAAQAB/+4ADkFkb2JlAGTAAAAAAf/bAIQABgQEBAUEBgUFBgkGBQYJCwgGBggLDAoKCwoK&#xA;DBAMDAwMDAwQDA4PEA8ODBMTFBQTExwbGxscHx8fHx8fHx8fHwEHBwcNDA0YEBAYGhURFRofHx8f&#xA;Hx8fHx8fHx8fHx8fHx8fHx8fHx8fHx8fHx8fHx8fHx8fHx8fHx8fHx8fHx8f/8AAEQgABAEAAwER&#xA;AAIRAQMRAf/EAaIAAAAHAQEBAQEAAAAAAAAAAAQFAwIGAQAHCAkKCwEAAgIDAQEBAQEAAAAAAAAA&#xA;AQACAwQFBgcICQoLEAACAQMDAgQCBgcDBAIGAnMBAgMRBAAFIRIxQVEGE2EicYEUMpGhBxWxQiPB&#xA;UtHhMxZi8CRygvElQzRTkqKyY3PCNUQnk6OzNhdUZHTD0uIIJoMJChgZhJRFRqS0VtNVKBry4/PE&#xA;1OT0ZXWFlaW1xdXl9WZ2hpamtsbW5vY3R1dnd4eXp7fH1+f3OEhYaHiImKi4yNjo+Ck5SVlpeYmZ&#xA;qbnJ2en5KjpKWmp6ipqqusra6voRAAICAQIDBQUEBQYECAMDbQEAAhEDBCESMUEFURNhIgZxgZEy&#xA;obHwFMHR4SNCFVJicvEzJDRDghaSUyWiY7LCB3PSNeJEgxdUkwgJChgZJjZFGidkdFU38qOzwygp&#xA;0+PzhJSktMTU5PRldYWVpbXF1eX1RlZmdoaWprbG1ub2R1dnd4eXp7fH1+f3OEhYaHiImKi4yNjo&#xA;+DlJWWl5iZmpucnZ6fkqOkpaanqKmqq6ytrq+v/aAAwDAQACEQMRAD8A7+f+Vc/Vxz+peh6S0504&#xA;+n9WfjSv/Ltz/wBjXMv99fX8H9bifuK6fgfqd/yDv6i/H6p9VpNy9P8A1IvW+x8X2PT5e1Mf319b&#xA;/tr9K/ua6V/Zf6EV/wA6P63/AB5er67Vrwr6/wBaFev7X1qn+zp3yH72uvL7K/V9jP8AdX05/bf6&#xA;/tXWn+DeMX1X6txpH6PGnSk3p8fo9Wn04y8Xrf4r9ix8LpX4v9rc3+DvST1vqvp+lJ6fOlPS+rL6&#xA;vGvb6txrT9nAPF6X+D+tJ8PrX4H6kbL+gvrB9T0PXqeVePKvqpWvv6nD6aZAcddWZ4L6KUv+GvrP&#xA;7z6r9Y/dfycv72T0v+SvqU9+WRF2e+vsbTfAP5vFt3cW328lCz/wb9SX6l9S+p+mvD0fT4en9X+D&#xA;jx7fVq8afsdNsMOKhw8unz/Wxz/XLxPrv1XzvrfmuuP8JehJ9Y+q+jwk9T1ONPT4x+p17cfT5fRl&#xA;g8S9r/F/taT4db1+K/Y0f8H/AF5f95Pr3L4acPU5fWz4b/711/2fvj+8rrX7P1fYv7u+l/t/X9rU&#xA;P+D/AFLX0vq3LjD9TpSnH0p/S9Pt/detSnauJ8Tfn5/Z+xR4e3Ly+39qo3+Fvi5fV/2uVaf8s6cv&#xA;+nfh/scH7zz/AAf1p/d+X4H6mm/wp6r8vq3q+o/qV419T14+dff1/Tr/AJVMf3nn+B+q1/d+X4P6&#xA;6VbX/DnH/R/Q4UXpTjT1JePXb+89SnvXBLj63+K/YmPB0r8X+1C3n+Df0Uv1n6t+jvq7ca04+h9V&#xA;blSm/H6ty/2OTj4vFtfFf23+thLwuHeuGvsr9Stdf4W+rt9a+relxbl6lPscouXXfjy9Kvvx9sjH&#xA;xL2v8X+1lLw63r8V+xYf8KesnP0fW9UcPUrz9X603H7e/wDvTy4/5XTD+8r8d36kfu7/AB3/AK1n&#xA;/OmehbU+q/V+K/VeNOHH6vJx4U2p6HqfRXD+9s87/aP00j91Q5V+w/otZcf4I4j1/qnDg/26ceHo&#xA;Rc612p6HpfRTCPF6X+Cf02p8LrX4A/RSrP8A4R9KT1vQ9L6z+85dPrH1uOv0/WuH+yyI8TpfL7K/&#xA;Uk+H1rn9t/rU7f8AwTyT0Pqlf3PCnGn2p/R/4b1qf7LCfF63+Kv9CB4XSvxdfpWJ/gf0jw+rej6K&#xA;/wCp6H1Q0p+zw+q+G3HCfFvr+2/1oHheX7K/Ui9V/wAMfXbf9J+j9b9F/q/q9fR9SLnSvb1PS+mm&#xA;Qx+JR4bq/wBf7WeTw7HFV1+r9iHf/A/16Pl9S+t1j9L7PKv1l/T40/5eefT9quS/e11r9n6kDw72&#xA;q/2/rUv+dD4S/wC8nH009Wn++/q0nCtP+Xf1PorlGov/ACnnz+1ytBxf5Dujy944ftpM9D/QHp3P&#xA;6G9Hh6q/WvQp/e+jHx50/a9Lh9FMhGq2bdR4tjxLvz95/TaZZJx3Yq7FVsvp+k/q09PiedenGm9c&#xA;Iu9kSqt+Sna/VeL/AFbjx5Hnw6cqD+GGd9WGPh/hUtV/R31CX9I8fqfw+rzrx+0OPT/KpksPFxDg&#xA;+pjqODgPifS//9k=</xmpGImg:image></rdf:li></rdf:Alt></xmp:Thumbnails></rdf:Description><rdf:Description rdf:about="" xmlns:xmpMM="http://ns.adobe.com/xap/1.0/mm/" xmlns:stRef="http://ns.adobe.com/xap/1.0/sType/ResourceRef#" xmlns:stEvt="http://ns.adobe.com/xap/1.0/sType/ResourceEvent#"><xmpMM:RenditionClass>proof:pdf</xmpMM:RenditionClass><xmpMM:OriginalDocumentID>uuid:65E6390686CF11DBA6E2D887CEACB407</xmpMM:OriginalDocumentID><xmpMM:DocumentID>xmp.did:0780117407206811822A8199112D2418</xmpMM:DocumentID><xmpMM:InstanceID>xmp.iid:0780117407206811822A8199112D2418</xmpMM:InstanceID><xmpMM:DerivedFrom rdf:parseType="Resource"><stRef:instanceID>xmp.iid:0680117407206811822A8199112D2418</stRef:instanceID>
	<stRef:documentID>xmp.did:0680117407206811822A8199112D2418</stRef:documentID>
	<stRef:originalDocumentID>uuid:65E6390686CF11DBA6E2D887CEACB407</stRef:originalDocumentID>
	<stRef:renditionClass>proof:pdf</stRef:renditionClass>
	</xmpMM:DerivedFrom>
	<xmpMM:History><rdf:Seq><rdf:li rdf:parseType="Resource"><stEvt:action>saved</stEvt:action>
	<stEvt:instanceID>xmp.iid:0280117407206811822A8199112D2418</stEvt:instanceID>
	<stEvt:when>2016-06-15T17:45:44-03:00</stEvt:when>
	<stEvt:softwareAgent>Adobe Illustrator CS6 (Macintosh)</stEvt:softwareAgent>
	<stEvt:changed>/</stEvt:changed>
	</rdf:li>
	<rdf:li rdf:parseType="Resource"><stEvt:action>saved</stEvt:action>
	<stEvt:instanceID>xmp.iid:0780117407206811822A8199112D2418</stEvt:instanceID>
	<stEvt:when>2016-06-15T18:57:39-03:00</stEvt:when>
	<stEvt:softwareAgent>Adobe Illustrator CS6 (Macintosh)</stEvt:softwareAgent>
	<stEvt:changed>/</stEvt:changed>
	</rdf:li></rdf:Seq></xmpMM:History>
	</rdf:Description>
	<rdf:Description rdf:about="" xmlns:illustrator="http://ns.adobe.com/illustrator/1.0/">
	<illustrator:StartupProfile>Web</illustrator:StartupProfile>
	</rdf:Description><rdf:Description rdf:about="" xmlns:xmpTPg="http://ns.adobe.com/xap/1.0/t/pg/" xmlns:stDim="http://ns.adobe.com/xap/1.0/sType/Dimensions#" xmlns:xmpG="http://ns.adobe.com/xap/1.0/g/">
	<xmpTPg:NPages>1</xmpTPg:NPages>
	<xmpTPg:HasVisibleTransparency>False</xmpTPg:HasVisibleTransparency>
	<xmpTPg:HasVisibleOverprint>False</xmpTPg:HasVisibleOverprint>
	<xmpTPg:MaxPageSize rdf:parseType="Resource">
	<stDim:w>30.000000</stDim:w>
	<stDim:h>30.000000</stDim:h>
	<stDim:unit>Pixels</stDim:unit>
	</xmpTPg:MaxPageSize>
	<xmpTPg:PlateNames>
	<rdf:Seq><rdf:li>Cyan</rdf:li><rdf:li>Magenta</rdf:li>
	<rdf:li>Yellow</rdf:li><rdf:li>Black</rdf:li></rdf:Seq>
	</xmpTPg:PlateNames><xmpTPg:SwatchGroups><rdf:Seq>
	<rdf:li rdf:parseType="Resource">
	<xmpG:groupName>Default Swatch Group</xmpG:groupName>
	<xmpG:groupType>0</xmpG:groupType><xmpG:Colorants>
	<rdf:Seq><rdf:li rdf:parseType="Resource"><xmpG:swatchName>White</xmpG:swatchName>
	<xmpG:mode>RGB</xmpG:mode><xmpG:type>PROCESS</xmpG:type><xmpG:red>255</xmpG:red>
	<xmpG:green>255</xmpG:green>
	<xmpG:blue>255</xmpG:blue>
	</rdf:li>
	<rdf:li rdf:parseType="Resource"><xmpG:swatchName>Black</xmpG:swatchName>
	<xmpG:mode>RGB</xmpG:mode><xmpG:type>PROCESS</xmpG:type>
	<xmpG:red>0</xmpG:red>
	<xmpG:green>0</xmpG:green><xmpG:blue>0</xmpG:blue>
	</rdf:li><rdf:li rdf:parseType="Resource">
	<xmpG:swatchName>RGB Red</xmpG:swatchName>
	<xmpG:mode>RGB</xmpG:mode><xmpG:type>PROCESS</xmpG:type>
	<xmpG:red>255</xmpG:red><xmpG:green>0</xmpG:green><xmpG:blue>0</xmpG:blue></rdf:li>
	<rdf:li rdf:parseType="Resource"><xmpG:swatchName>RGB Yellow</xmpG:swatchName>
	<xmpG:mode>RGB</xmpG:mode><xmpG:type>PROCESS</xmpG:type><xmpG:red>255</xmpG:red>
	<xmpG:green>255</xmpG:green><xmpG:blue>0</xmpG:blue></rdf:li><rdf:li rdf:parseType="Resource">
	<xmpG:swatchName>RGB Green</xmpG:swatchName><xmpG:mode>RGB</xmpG:mode><xmpG:type>PROCESS</xmpG:type>
	<xmpG:red>0</xmpG:red><xmpG:green>255</xmpG:green><xmpG:blue>0</xmpG:blue></rdf:li>
	<rdf:li rdf:parseType="Resource"><xmpG:swatchName>RGB Cyan</xmpG:swatchName><xmpG:mode>RGB</xmpG:mode>
	<xmpG:type>PROCESS</xmpG:type><xmpG:red>0</xmpG:red><xmpG:green>255</xmpG:green><xmpG:blue>255</xmpG:blue>
	</rdf:li><rdf:li rdf:parseType="Resource"><xmpG:swatchName>RGB Blue</xmpG:swatchName><xmpG:mode>RGB</xmpG:mode>
	<xmpG:type>PROCESS</xmpG:type><xmpG:red>0</xmpG:red><xmpG:green>0</xmpG:green><xmpG:blue>255</xmpG:blue></rdf:li>
	<rdf:li rdf:parseType="Resource"><xmpG:swatchName>RGB Magenta</xmpG:swatchName><xmpG:mode>RGB</xmpG:mode><xmpG:type>PROCESS</xmpG:type>
	<xmpG:red>255</xmpG:red><xmpG:green>0</xmpG:green><xmpG:blue>255</xmpG:blue></rdf:li><rdf:li rdf:parseType="Resource">
	<xmpG:swatchName>R=193 G=39 B=45</xmpG:swatchName><xmpG:mode>RGB</xmpG:mode><xmpG:type>PROCESS</xmpG:type><xmpG:red>193</xmpG:red>
	<xmpG:green>39</xmpG:green><xmpG:blue>45</xmpG:blue></rdf:li><rdf:li rdf:parseType="Resource">
	<xmpG:swatchName>R=237 G=28 B=36</xmpG:swatchName><xmpG:mode>RGB</xmpG:mode><xmpG:type>PROCESS</xmpG:type>
	<xmpG:red>237</xmpG:red><xmpG:green>28</xmpG:green><xmpG:blue>36</xmpG:blue></rdf:li><rdf:li rdf:parseType="Resource">
	<xmpG:swatchName>R=241 G=90 B=36</xmpG:swatchName><xmpG:mode>RGB</xmpG:mode><xmpG:type>PROCESS</xmpG:type><xmpG:red>241</xmpG:red>
	<xmpG:green>90</xmpG:green><xmpG:blue>36</xmpG:blue></rdf:li><rdf:li rdf:parseType="Resource"><xmpG:swatchName>R=247 G=147 B=30</xmpG:swatchName>
	<xmpG:mode>RGB</xmpG:mode><xmpG:type>PROCESS</xmpG:type><xmpG:red>247</xmpG:red><xmpG:green>147</xmpG:green><xmpG:blue>30</xmpG:blue></rdf:li>
	<rdf:li rdf:parseType="Resource"><xmpG:swatchName>R=251 G=176 B=59</xmpG:swatchName><xmpG:mode>RGB</xmpG:mode><xmpG:type>PROCESS</xmpG:type>
	<xmpG:red>251</xmpG:red><xmpG:green>176</xmpG:green><xmpG:blue>59</xmpG:blue></rdf:li><rdf:li rdf:parseType="Resource">
	<xmpG:swatchName>R=252 G=238 B=33</xmpG:swatchName><xmpG:mode>RGB</xmpG:mode><xmpG:type>PROCESS</xmpG:type><xmpG:red>252</xmpG:red>
	<xmpG:green>238</xmpG:green><xmpG:blue>33</xmpG:blue></rdf:li><rdf:li rdf:parseType="Resource"><xmpG:swatchName>R=217 G=224 B=33</xmpG:swatchName>
	<xmpG:mode>RGB</xmpG:mode><xmpG:type>PROCESS</xmpG:type><xmpG:red>217</xmpG:red><xmpG:green>224</xmpG:green><xmpG:blue>33</xmpG:blue></rdf:li>
	<rdf:li rdf:parseType="Resource"><xmpG:swatchName>R=140 G=198 B=63</xmpG:swatchName><xmpG:mode>RGB</xmpG:mode><xmpG:type>PROCESS</xmpG:type>
	<xmpG:red>140</xmpG:red><xmpG:green>198</xmpG:green><xmpG:blue>63</xmpG:blue></rdf:li><rdf:li rdf:parseType="Resource">
	<xmpG:swatchName>R=57 G=181 B=74</xmpG:swatchName><xmpG:mode>RGB</xmpG:mode><xmpG:type>PROCESS</xmpG:type><xmpG:red>57</xmpG:red><xmpG:green>181</xmpG:green>
	<xmpG:blue>74</xmpG:blue></rdf:li><rdf:li rdf:parseType="Resource"><xmpG:swatchName>R=0 G=146 B=69</xmpG:swatchName><xmpG:mode>RGB</xmpG:mode>
	<xmpG:type>PROCESS</xmpG:type><xmpG:red>0</xmpG:red><xmpG:green>146</xmpG:green><xmpG:blue>69</xmpG:blue></rdf:li><rdf:li rdf:parseType="Resource">
	<xmpG:swatchName>R=0 G=104 B=55</xmpG:swatchName><xmpG:mode>RGB</xmpG:mode><xmpG:type>PROCESS</xmpG:type><xmpG:red>0</xmpG:red><xmpG:green>104</xmpG:green>
	<xmpG:blue>55</xmpG:blue></rdf:li><rdf:li rdf:parseType="Resource"><xmpG:swatchName>R=34 G=181 B=115</xmpG:swatchName><xmpG:mode>RGB</xmpG:mode>
	<xmpG:type>PROCESS</xmpG:type><xmpG:red>34</xmpG:red><xmpG:green>181</xmpG:green><xmpG:blue>115</xmpG:blue></rdf:li><rdf:li rdf:parseType="Resource">
	<xmpG:swatchName>R=0 G=169 B=157</xmpG:swatchName><xmpG:mode>RGB</xmpG:mode><xmpG:type>PROCESS</xmpG:type><xmpG:red>0</xmpG:red><xmpG:green>169</xmpG:green>
	<xmpG:blue>157</xmpG:blue></rdf:li><rdf:li rdf:parseType="Resource"><xmpG:swatchName>R=41 G=171 B=226</xmpG:swatchName><xmpG:mode>RGB</xmpG:mode>
	<xmpG:type>PROCESS</xmpG:type><xmpG:red>41</xmpG:red><xmpG:green>171</xmpG:green><xmpG:blue>226</xmpG:blue></rdf:li><rdf:li rdf:parseType="Resource">
	<xmpG:swatchName>R=0 G=113 B=188</xmpG:swatchName><xmpG:mode>RGB</xmpG:mode><xmpG:type>PROCESS</xmpG:type><xmpG:red>0</xmpG:red><xmpG:green>113</xmpG:green>
	<xmpG:blue>188</xmpG:blue></rdf:li><rdf:li rdf:parseType="Resource"><xmpG:swatchName>R=46 G=49 B=146</xmpG:swatchName><xmpG:mode>RGB</xmpG:mode>
	<xmpG:type>PROCESS</xmpG:type><xmpG:red>46</xmpG:red><xmpG:green>49</xmpG:green><xmpG:blue>146</xmpG:blue></rdf:li><rdf:li rdf:parseType="Resource">
	<xmpG:swatchName>R=27 G=20 B=100</xmpG:swatchName><xmpG:mode>RGB</xmpG:mode><xmpG:type>PROCESS</xmpG:type><xmpG:red>27</xmpG:red><xmpG:green>20</xmpG:green>
	<xmpG:blue>100</xmpG:blue></rdf:li><rdf:li rdf:parseType="Resource"><xmpG:swatchName>R=102 G=45 B=145</xmpG:swatchName><xmpG:mode>RGB</xmpG:mode>
	<xmpG:type>PROCESS</xmpG:type><xmpG:red>102</xmpG:red><xmpG:green>45</xmpG:green><xmpG:blue>145</xmpG:blue></rdf:li><rdf:li rdf:parseType="Resource">
	<xmpG:swatchName>R=147 G=39 B=143</xmpG:swatchName><xmpG:mode>RGB</xmpG:mode><xmpG:type>PROCESS</xmpG:type><xmpG:red>147</xmpG:red><xmpG:green>39</xmpG:green>
	<xmpG:blue>143</xmpG:blue></rdf:li><rdf:li rdf:parseType="Resource"><xmpG:swatchName>R=158 G=0 B=93</xmpG:swatchName><xmpG:mode>RGB</xmpG:mode>
	<xmpG:type>PROCESS</xmpG:type><xmpG:red>158</xmpG:red><xmpG:green>0</xmpG:green><xmpG:blue>93</xmpG:blue></rdf:li><rdf:li rdf:parseType="Resource">
	<xmpG:swatchName>R=212 G=20 B=90</xmpG:swatchName><xmpG:mode>RGB</xmpG:mode><xmpG:type>PROCESS</xmpG:type><xmpG:red>212</xmpG:red><xmpG:green>20</xmpG:green>
	<xmpG:blue>90</xmpG:blue></rdf:li><rdf:li rdf:parseType="Resource"><xmpG:swatchName>R=237 G=30 B=121</xmpG:swatchName><xmpG:mode>RGB</xmpG:mode>
	<xmpG:type>PROCESS</xmpG:type><xmpG:red>237</xmpG:red><xmpG:green>30</xmpG:green><xmpG:blue>121</xmpG:blue></rdf:li><rdf:li rdf:parseType="Resource">
	<xmpG:swatchName>R=199 G=178 B=153</xmpG:swatchName><xmpG:mode>RGB</xmpG:mode><xmpG:type>PROCESS</xmpG:type><xmpG:red>199</xmpG:red><xmpG:green>178</xmpG:green>
	<xmpG:blue>153</xmpG:blue></rdf:li><rdf:li rdf:parseType="Resource"><xmpG:swatchName>R=153 G=134 B=117</xmpG:swatchName><xmpG:mode>RGB</xmpG:mode>
	<xmpG:type>PROCESS</xmpG:type><xmpG:red>153</xmpG:red><xmpG:green>134</xmpG:green><xmpG:blue>117</xmpG:blue></rdf:li><rdf:li rdf:parseType="Resource">
	<xmpG:swatchName>R=115 G=99 B=87</xmpG:swatchName><xmpG:mode>RGB</xmpG:mode><xmpG:type>PROCESS</xmpG:type><xmpG:red>115</xmpG:red><xmpG:green>99</xmpG:green>
	<xmpG:blue>87</xmpG:blue></rdf:li><rdf:li rdf:parseType="Resource"><xmpG:swatchName>R=83 G=71 B=65</xmpG:swatchName><xmpG:mode>RGB</xmpG:mode>
	<xmpG:type>PROCESS</xmpG:type><xmpG:red>83</xmpG:red><xmpG:green>71</xmpG:green><xmpG:blue>65</xmpG:blue></rdf:li><rdf:li rdf:parseType="Resource">
	<xmpG:swatchName>R=198 G=156 B=109</xmpG:swatchName><xmpG:mode>RGB</xmpG:mode><xmpG:type>PROCESS</xmpG:type><xmpG:red>198</xmpG:red><xmpG:green>156</xmpG:green>
	<xmpG:blue>109</xmpG:blue></rdf:li><rdf:li rdf:parseType="Resource"><xmpG:swatchName>R=166 G=124 B=82</xmpG:swatchName><xmpG:mode>RGB</xmpG:mode>
	<xmpG:type>PROCESS</xmpG:type><xmpG:red>166</xmpG:red><xmpG:green>124</xmpG:green><xmpG:blue>82</xmpG:blue></rdf:li><rdf:li rdf:parseType="Resource">
	<xmpG:swatchName>R=140 G=98 B=57</xmpG:swatchName><xmpG:mode>RGB</xmpG:mode><xmpG:type>PROCESS</xmpG:type><xmpG:red>140</xmpG:red><xmpG:green>98</xmpG:green>
	<xmpG:blue>57</xmpG:blue></rdf:li><rdf:li rdf:parseType="Resource"><xmpG:swatchName>R=117 G=76 B=36</xmpG:swatchName><xmpG:mode>RGB</xmpG:mode>
	<xmpG:type>PROCESS</xmpG:type><xmpG:red>117</xmpG:red><xmpG:green>76</xmpG:green><xmpG:blue>36</xmpG:blue></rdf:li><rdf:li rdf:parseType="Resource">
	<xmpG:swatchName>R=96 G=56 B=19</xmpG:swatchName><xmpG:mode>RGB</xmpG:mode><xmpG:type>PROCESS</xmpG:type><xmpG:red>96</xmpG:red><xmpG:green>56</xmpG:green>
	<xmpG:blue>19</xmpG:blue></rdf:li><rdf:li rdf:parseType="Resource"><xmpG:swatchName>R=66 G=33 B=11</xmpG:swatchName><xmpG:mode>RGB</xmpG:mode>
	<xmpG:type>PROCESS</xmpG:type><xmpG:red>66</xmpG:red><xmpG:green>33</xmpG:green><xmpG:blue>11</xmpG:blue></rdf:li></rdf:Seq></xmpG:Colorants></rdf:li>
	<rdf:li rdf:parseType="Resource"><xmpG:groupName>Grays</xmpG:groupName><xmpG:groupType>1</xmpG:groupType><xmpG:Colorants><rdf:Seq>
	<rdf:li rdf:parseType="Resource"><xmpG:swatchName>R=0 G=0 B=0</xmpG:swatchName><xmpG:mode>RGB</xmpG:mode><xmpG:type>PROCESS</xmpG:type>
	<xmpG:red>0</xmpG:red><xmpG:green>0</xmpG:green><xmpG:blue>0</xmpG:blue></rdf:li><rdf:li rdf:parseType="Resource">
	<xmpG:swatchName>R=26 G=26 B=26</xmpG:swatchName><xmpG:mode>RGB</xmpG:mode><xmpG:type>PROCESS</xmpG:type><xmpG:red>26</xmpG:red><xmpG:green>26</xmpG:green>
	<xmpG:blue>26</xmpG:blue></rdf:li><rdf:li rdf:parseType="Resource"><xmpG:swatchName>R=51 G=51 B=51</xmpG:swatchName><xmpG:mode>RGB</xmpG:mode>
	<xmpG:type>PROCESS</xmpG:type><xmpG:red>51</xmpG:red><xmpG:green>51</xmpG:green><xmpG:blue>51</xmpG:blue></rdf:li><rdf:li rdf:parseType="Resource">
	<xmpG:swatchName>R=77 G=77 B=77</xmpG:swatchName><xmpG:mode>RGB</xmpG:mode><xmpG:type>PROCESS</xmpG:type><xmpG:red>77</xmpG:red><xmpG:green>77</xmpG:green>
	<xmpG:blue>77</xmpG:blue></rdf:li><rdf:li rdf:parseType="Resource"><xmpG:swatchName>R=102 G=102 B=102</xmpG:swatchName><xmpG:mode>RGB</xmpG:mode>
	<xmpG:type>PROCESS</xmpG:type><xmpG:red>102</xmpG:red><xmpG:green>102</xmpG:green><xmpG:blue>102</xmpG:blue></rdf:li><rdf:li rdf:parseType="Resource">
	<xmpG:swatchName>R=128 G=128 B=128</xmpG:swatchName><xmpG:mode>RGB</xmpG:mode><xmpG:type>PROCESS</xmpG:type><xmpG:red>128</xmpG:red><xmpG:green>128</xmpG:green>
	<xmpG:blue>128</xmpG:blue></rdf:li><rdf:li rdf:parseType="Resource"><xmpG:swatchName>R=153 G=153 B=153</xmpG:swatchName><xmpG:mode>RGB</xmpG:mode>
	<xmpG:type>PROCESS</xmpG:type><xmpG:red>153</xmpG:red><xmpG:green>153</xmpG:green><xmpG:blue>153</xmpG:blue></rdf:li><rdf:li rdf:parseType="Resource">
	<xmpG:swatchName>R=179 G=179 B=179</xmpG:swatchName><xmpG:mode>RGB</xmpG:mode><xmpG:type>PROCESS</xmpG:type><xmpG:red>179</xmpG:red><xmpG:green>179</xmpG:green>
	<xmpG:blue>179</xmpG:blue></rdf:li><rdf:li rdf:parseType="Resource"><xmpG:swatchName>R=204 G=204 B=204</xmpG:swatchName><xmpG:mode>RGB</xmpG:mode>
	<xmpG:type>PROCESS</xmpG:type><xmpG:red>204</xmpG:red><xmpG:green>204</xmpG:green><xmpG:blue>204</xmpG:blue></rdf:li><rdf:li rdf:parseType="Resource">
	<xmpG:swatchName>R=230 G=230 B=230</xmpG:swatchName><xmpG:mode>RGB</xmpG:mode><xmpG:type>PROCESS</xmpG:type><xmpG:red>230</xmpG:red><xmpG:green>230</xmpG:green>
	<xmpG:blue>230</xmpG:blue></rdf:li><rdf:li rdf:parseType="Resource"><xmpG:swatchName>R=242 G=242 B=242</xmpG:swatchName><xmpG:mode>RGB</xmpG:mode>
	<xmpG:type>PROCESS</xmpG:type><xmpG:red>242</xmpG:red><xmpG:green>242</xmpG:green><xmpG:blue>242</xmpG:blue></rdf:li></rdf:Seq></xmpG:Colorants></rdf:li>
	<rdf:li rdf:parseType="Resource"><xmpG:groupName>Web Color Group</xmpG:groupName><xmpG:groupType>1</xmpG:groupType><xmpG:Colorants><rdf:Seq>
	<rdf:li rdf:parseType="Resource"><xmpG:swatchName>R=63 G=169 B=245</xmpG:swatchName><xmpG:mode>RGB</xmpG:mode><xmpG:type>PROCESS</xmpG:type>
	<xmpG:red>63</xmpG:red><xmpG:green>169</xmpG:green><xmpG:blue>245</xmpG:blue></rdf:li><rdf:li rdf:parseType="Resource">
	<xmpG:swatchName>R=122 G=201 B=67</xmpG:swatchName><xmpG:mode>RGB</xmpG:mode><xmpG:type>PROCESS</xmpG:type><xmpG:red>122</xmpG:red><xmpG:green>201</xmpG:green>
	<xmpG:blue>67</xmpG:blue></rdf:li><rdf:li rdf:parseType="Resource"><xmpG:swatchName>R=255 G=147 B=30</xmpG:swatchName><xmpG:mode>RGB</xmpG:mode>
	<xmpG:type>PROCESS</xmpG:type><xmpG:red>255</xmpG:red><xmpG:green>147</xmpG:green><xmpG:blue>30</xmpG:blue></rdf:li><rdf:li rdf:parseType="Resource">
	<xmpG:swatchName>R=255 G=29 B=37</xmpG:swatchName><xmpG:mode>RGB</xmpG:mode><xmpG:type>PROCESS</xmpG:type><xmpG:red>255</xmpG:red><xmpG:green>29</xmpG:green>
	<xmpG:blue>37</xmpG:blue></rdf:li><rdf:li rdf:parseType="Resource"><xmpG:swatchName>R=255 G=123 B=172</xmpG:swatchName><xmpG:mode>RGB</xmpG:mode>
	<xmpG:type>PROCESS</xmpG:type><xmpG:red>255</xmpG:red><xmpG:green>123</xmpG:green><xmpG:blue>172</xmpG:blue></rdf:li><rdf:li rdf:parseType="Resource">
	<xmpG:swatchName>R=189 G=204 B=212</xmpG:swatchName><xmpG:mode>RGB</xmpG:mode><xmpG:type>PROCESS</xmpG:type><xmpG:red>189</xmpG:red><xmpG:green>204</xmpG:green>
	<xmpG:blue>212</xmpG:blue></rdf:li></rdf:Seq></xmpG:Colorants></rdf:li></rdf:Seq></xmpTPg:SwatchGroups></rdf:Description>
	<rdf:Description rdf:about="" xmlns:pdf="http://ns.adobe.com/pdf/1.3/"><pdf:Producer>Adobe PDF library 10.01</pdf:Producer></rdf:Description></rdf:RDF>
	</x:xmpmeta><?xpacket end="w"?></metadata>
<g>
	<path fill="#FFCB04" d="M204.4,48.9c-0.6,0-29.2,0-29.2,0v-8c0-7.2-5.6-12.6-12.7-12.6c0,0-4.5,0-11.7,0c0-6.5,0-11.3,0-12.3
		c0-3.8,0.6-4.1,6-4.1c3.2,0,6-2.7,6-6c0-3.2-2.5-5.8-5.7-6c0,0-7,0-12.2,0c-4.1,0-6,3.5-6,6c0,0.7,0,11.8,0,22.4
		c-7.1,0-12.3,0-12.3,0c-8.3,0-12.6,6.4-12.6,12.6v8c0,0-28.2,0-28.7,0c-11.6,0-21.3,8.3-23.4,19.2h-4.5c0.9-4.7,2.5-11.7,2.5-12.6
		c0-1.3-1-3.3-4-2c-2.9,1.3-6.2,2.8-6.2,2.8s-3.6,1.4-1.4,3.6c0,0,4.3,4.7,4.3,12.1c0,0,0,0,0,0c0,0,0,0,0,0
		c0,7.4-4.3,12.1-4.3,12.1c-2.2,2.2,1.4,3.6,1.4,3.6s3.3,1.6,6.2,2.9c3,1.3,4-0.7,4-2c0-0.8-1.7-7-2.6-11.5c0,0,0,0,0,0h4.5
		c2.1,11,11.8,19.3,23.4,19.3c0.2,0,119.1,0,119.2,0c13.2,0,23.8-10.7,23.8-23.8C228.3,59.6,217.6,48.9,204.4,48.9z"/>
	<g>
		<path fill="#FFFFFF" d="M1.6,140c-1-0.7-1.6-1.9-1.6-3.3c0-2.3,1.8-4,4.1-4c1.1,0,1.9,0.4,2.5,0.8c3,2.2,6.2,3.5,10.1,3.5
			c3.5,0,5.7-1.4,5.7-3.7v-0.1c0-2.2-1.4-3.3-7.9-5c-7.9-2-13.1-4.2-13.1-12v-0.1c0-7.1,5.7-11.9,13.8-11.9c4.8,0,8.9,1.2,12.5,3.5
			c1,0.6,1.9,1.7,1.9,3.4c0,2.3-1.8,4-4.1,4c-0.8,0-1.5-0.2-2.2-0.6c-2.9-1.7-5.6-2.6-8.3-2.6c-3.3,0-5.1,1.5-5.1,3.4v0.1
			c0,2.6,1.7,3.4,8.5,5.2c8,2.1,12.5,5,12.5,11.8v0.1c0,7.8-6,12.2-14.5,12.2C11.3,144.8,6,143.2,1.6,140z"/>
		<path fill="#FFFFFF" d="M61.9,147.4c0,2.4-1.9,4.3-4.3,4.3c-2.4,0-4.3-1.9-4.3-4.3v-0.3c-2,2.5-4.5,4.8-8.8,4.8
			c-6.5,0-10.2-4.3-10.2-11.2v-15.6c0-2.4,1.9-4.3,4.3-4.3c2.4,0,4.3,1.9,4.3,4.3V138c0,4.1,1.9,6.1,5.2,6.1c3.3,0,5.3-2.1,5.3-6.1
			v-12.9c0-2.4,1.9-4.3,4.3-4.3c2.4,0,4.3,1.9,4.3,4.3V147.4z"/>
		<path fill="#FFFFFF" d="M65.2,112.1c0-2.4,1.9-4.3,4.3-4.3c2.4,0,4.3,1.9,4.3,4.3v11.3c2.1-2.8,5-4.9,9.4-4.9c7,0,13.7,5.5,13.7,15.6
			v0.1c0,10.1-6.6,15.6-13.7,15.6c-4.6,0-7.4-2.1-9.4-4.5v0c0,2.3-1.9,4.2-4.3,4.2c-2.4,0-4.3-1.9-4.3-4.3V112.1z M88.3,134.2v-0.1
			c0-5-3.4-8.3-7.4-8.3c-4,0-7.3,3.3-7.3,8.3v0.1c0,5,3.3,8.3,7.3,8.3C85,142.6,88.3,139.3,88.3,134.2z"/>
		<path fill="#FFFFFF" d="M100.2,115.6c0-2.4,1.9-4.3,4.3-4.3c2.4,0,4.3,1.9,4.3,4.3v0.3c2-2.5,4.6-4.8,8.9-4.8c3.9,0,6.9,1.7,8.5,4.8
			c2.6-3.1,5.8-4.8,9.9-4.8c6.4,0,10.2,3.8,10.2,11.1v15.7c0,2.4-1.9,4.3-4.3,4.3c-2.4,0-4.3-1.9-4.3-4.3V125c0-4.1-1.8-6.1-5-6.1
			c-3.2,0-5.2,2.1-5.2,6.1v12.9c0,2.4-1.9,4.3-4.3,4.3c-2.4,0-4.3-1.9-4.3-4.3V125c0-4.1-1.8-6.1-5-6.1c-3.2,0-5.2,2.1-5.2,6.1v12.9
			c0,2.4-1.9,4.3-4.3,4.3c-2.4,0-4.3-1.9-4.3-4.3V115.6z"/>
		<path fill="#FFFFFF" d="M149.6,139v-0.1c0-6.6,5-9.6,12.2-9.6c3,0,5.2,0.5,7.4,1.2V130c0-3.6-2.2-5.5-6.5-5.5c-2.4,0-4.3,0.3-5.9,0.8
			c-0.5,0.2-0.8,0.2-1.2,0.2c-2,0-3.5-1.5-3.5-3.5c0-1.5,1-2.8,2.3-3.3c2.7-1,5.6-1.6,9.6-1.6c4.7,0,8.1,1.2,10.2,3.4
			c2.3,2.3,3.3,5.6,3.3,9.6v13.7c0,2.3-1.9,4.1-4.2,4.1c-2.5,0-4.1-1.7-4.1-3.6v-0.1c-2.1,2.3-5,3.8-9.1,3.8
			C154.3,148.3,149.6,145,149.6,139z M169.3,137.1v-1.5c-1.5-0.7-3.4-1.1-5.5-1.1c-3.7,0-5.9,1.5-5.9,4.2v0.1c0,2.3,1.9,3.7,4.7,3.7
			C166.6,142.4,169.3,140.2,169.3,137.1z"/>
		<path fill="#FFFFFF" d="M180.7,120.2c0-2.4,1.9-4.3,4.3-4.3c2.4,0,4.3,1.9,4.3,4.3v1.3c1.2-2.9,3.3-5.6,5.8-5.6
			c2.6,0,4.2,1.7,4.2,4.2c0,2.3-1.5,3.6-3.2,4c-4.3,1-6.8,4.3-6.8,10.4v8c0,2.4-1.9,4.3-4.3,4.3c-2.4,0-4.3-1.9-4.3-4.3V120.2z"/>
		<path fill="#FFFFFF" d="M202.1,112c0-2.5,2.1-4,4.8-4c2.7,0,4.8,1.5,4.8,4v0.1c0,2.5-2.1,4.1-4.8,4.1c-2.7,0-4.8-1.6-4.8-4.1V112z
			 M202.7,123.1c0-2.4,1.9-4.3,4.3-4.3c2.4,0,4.3,1.9,4.3,4.3v22.3c0,2.4-1.9,4.3-4.3,4.3c-2.4,0-4.3-1.9-4.3-4.3V123.1z"/>
		<path fill="#FFFFFF" d="M214.5,129.8c0-2.4,1.9-4.3,4.3-4.3c2.4,0,4.3,1.9,4.3,4.3v0.3c2-2.5,4.5-4.8,8.8-4.8
			c6.5,0,10.2,4.3,10.2,11.2v15.6c0,2.4-1.9,4.3-4.3,4.3c-2.4,0-4.3-1.9-4.3-4.3v-12.9c0-4.1-1.9-6.1-5.2-6.1
			c-3.3,0-5.3,2.1-5.3,6.1v12.9c0,2.4-1.9,4.3-4.3,4.3c-2.4,0-4.3-1.9-4.3-4.3V129.8z"/>
		<path fill="#FFFFFF" d="M243.2,126.8v-0.1c0-8.7,7-15.7,16.4-15.7c9.3,0,16.3,6.9,16.3,15.6v0.1c0,8.7-7,15.7-16.4,15.7
			C250.1,142.4,243.2,135.4,243.2,126.8z M267.4,126.8v-0.1c0-4.4-3.2-8.3-7.9-8.3c-4.9,0-7.8,3.8-7.8,8.2v0.1
			c0,4.4,3.2,8.3,7.9,8.3C264.4,135,267.4,131.2,267.4,126.8z"/>
	</g>
	<g>
		<path fill="#FFFFFF" d="M62.9,193.3l-10.4-24.8c-0.2-0.6-0.4-1.1-0.4-1.7c0-2,1.6-3.5,3.5-3.5c1.8,0,3,1.1,3.6,2.5l8,20.7l8.1-20.9
			c0.5-1.1,1.7-2.2,3.4-2.2c1.9,0,3.5,1.5,3.5,3.4c0,0.6-0.2,1.1-0.4,1.6l-10.5,25c-0.7,1.7-2.1,2.8-4,2.8h-0.5
			C65,196,63.7,195,62.9,193.3z"/>
		<path fill="#FFFFFF" d="M84.4,168.2c0-2,1.7-3.2,3.9-3.2c2.2,0,3.9,1.2,3.9,3.2v0.1c0,2-1.7,3.3-3.9,3.3
			C86.1,171.6,84.4,170.3,84.4,168.2L84.4,168.2z M84.8,177.2c0-1.9,1.6-3.5,3.5-3.5c1.9,0,3.5,1.6,3.5,3.5v18.1
			c0,1.9-1.6,3.5-3.5,3.5c-1.9,0-3.5-1.6-3.5-3.5V177.2z"/>
		<path fill="#FFFFFF" d="M95.5,187.9L95.5,187.9c0-5.4,4.1-7.9,9.9-7.9c2.5,0,4.2,0.4,6,1v-0.4c0-2.9-1.8-4.5-5.3-4.5
			c-1.9,0-3.5,0.3-4.8,0.7c-0.4,0.1-0.7,0.2-1,0.2c-1.6,0-2.9-1.2-2.9-2.8c0-1.2,0.8-2.3,1.9-2.7c2.2-0.8,4.6-1.3,7.8-1.3
			c3.8,0,6.5,1,8.3,2.7c1.8,1.8,2.7,4.5,2.7,7.8v11.1c0,1.9-1.5,3.3-3.4,3.3c-2,0-3.3-1.4-3.3-2.9v0c-1.7,1.9-4,3.1-7.4,3.1
			C99.3,195.4,95.5,192.8,95.5,187.9z M111.4,186.3v-1.2c-1.2-0.5-2.7-0.9-4.4-0.9c-3,0-4.8,1.2-4.8,3.4v0.1c0,1.9,1.6,3,3.8,3
			C109.2,190.6,111.4,188.8,111.4,186.3z"/>
		<path fill="#FFFFFF" d="M124.6,199.3c-1.2-0.4-2-1.4-2-2.7c0-1.6,1.3-2.8,2.8-2.8c0.5,0,0.8,0.1,1.1,0.2c2,0.9,4.2,1.5,6.8,1.5
			c4.7,0,7-2.3,7-6.7v-1.2c-2.1,2.5-4.3,4-8,4c-5.7,0-10.9-4.2-10.9-11.4V180c0-7.3,5.3-11.4,10.9-11.4c3.8,0,6,1.6,7.9,3.7v0
			c0-1.9,1.6-3.4,3.5-3.4c1.9,0,3.5,1.5,3.5,3.5V188c0,4.4-1.1,7.6-3.1,9.6c-2.3,2.3-5.8,3.3-10.6,3.3
			C130.3,201,127.5,200.4,124.6,199.3z M140.4,180.1L140.4,180.1c0-3.4-2.6-5.8-6-5.8c-3.4,0-5.9,2.3-5.9,5.7v0.1
			c0,3.4,2.6,5.7,5.9,5.7C137.7,185.8,140.4,183.5,140.4,180.1z"/>
		<path fill="#FFFFFF" d="M163.6,195.5c-7.3,0-12.8-5.2-12.8-12.6v-0.1c0-7,5-12.7,12.1-12.7c8.2,0,11.8,6.7,11.8,11.8
			c0,2-1.4,3.3-3.2,3.3h-13.7c0.7,3.2,2.9,4.8,6,4.8c1.9,0,3.5-0.6,4.9-1.6c0.5-0.4,1-0.5,1.7-0.5c1.6,0,2.7,1.2,2.7,2.7
			c0,0.9-0.4,1.6-0.9,2.1C170,194.4,167.2,195.5,163.6,195.5z M168.1,180.8c-0.4-3.1-2.2-5.2-5.2-5.2c-2.9,0-4.7,2.1-5.3,5.2H168.1z
			"/>
		<path fill="#FFFFFF" d="M178.6,174.6c0-1.9,1.5-3.5,3.5-3.5c1.9,0,3.5,1.6,3.5,3.5v0.3c1.6-2.1,3.7-3.9,7.2-3.9
			c5.2,0,8.3,3.5,8.3,9.1v12.6c0,1.9-1.6,3.5-3.5,3.5c-1.9,0-3.5-1.5-3.5-3.5v-10.5c0-3.3-1.6-5-4.2-5c-2.6,0-4.3,1.7-4.3,5v10.5
			c0,1.9-1.6,3.5-3.5,3.5c-1.9,0-3.5-1.5-3.5-3.5V174.6z"/>
		<path fill="#FFFFFF" d="M205.1,189.5c-0.7-0.5-1.3-1.3-1.3-2.4c0-1.5,1.2-2.7,2.7-2.7c0.5,0,1,0.1,1.4,0.4c2.3,1.5,4.7,2.2,6.6,2.2
			c2,0,2.9-0.7,2.9-1.8v-0.1c0-1.5-2.4-2-5.1-2.8c-3.4-1-7.3-2.6-7.3-7.4v-0.1c0-5,4-7.8,9-7.8c2.6,0,5.2,0.7,7.6,1.9
			c1,0.5,1.6,1.4,1.6,2.6c0,1.6-1.2,2.7-2.8,2.7c-0.5,0-0.8-0.1-1.3-0.3c-2-1-3.8-1.5-5.3-1.5c-1.7,0-2.6,0.7-2.6,1.7v0.1
			c0,1.4,2.3,2,5,2.9c3.4,1.1,7.4,2.8,7.4,7.3v0.1c0,5.4-4.1,7.9-9.4,7.9C211.3,192.3,208,191.5,205.1,189.5z"/>
	</g>
</g>
</svg>
