<?xml version="1.0" encoding="utf-8"?>
<!-- Generator: Adobe Illustrator 16.0.4, SVG Export Plug-In . SVG Version: 6.00 Build 0)  -->
<!DOCTYPE svg PUBLIC "-//W3C//DTD SVG 1.1//EN" "http://www.w3.org/Graphics/SVG/1.1/DTD/svg11.dtd">
<svg version="1.1" id="Layer_1" xmlns="http://www.w3.org/2000/svg" xmlns:xlink="http://www.w3.org/1999/xlink" x="0px" y="0px"
	 width="100px" height="100px" viewBox="0 0 100 100" enable-background="new 0 0 100 100" xml:space="preserve">
<g>
	<path d="M6.023,32C3.249,32,1,34.582,1,37.357v38.619C1,78.751,3.249,81,6.023,81H71V32H6.023z M5,56.993
		C5,56.445,5.445,56,5.994,56h25.013C31.555,56,32,56.445,32,56.993v0.014C32,57.555,31.555,58,31.006,58H5.994
		C5.445,58,5,57.555,5,57.007V56.993z M53,72.007C53,72.557,52.557,73,52.007,73H5.993C5.445,73,5,72.557,5,72.007v-0.014
		C5,71.443,5.445,71,5.993,71h46.014C52.557,71,53,71.443,53,71.993V72.007z M53,67.007C53,67.557,52.557,68,52.007,68H5.993
		C5.445,68,5,67.557,5,67.007v-0.014C5,66.443,5.445,66,5.993,66h46.014C52.557,66,53,66.443,53,66.993V67.007z M53,62.007
		C53,62.557,52.557,63,52.007,63H5.993C5.445,63,5,62.557,5,62.007v-0.014C5,61.443,5.445,61,5.993,61h46.014
		C52.557,61,53,61.443,53,61.993V62.007z"/>
	<path d="M94.305,32H72v49h22.305C97.079,81,99,78.752,99,75.977V37.355C99,34.582,97.078,32,94.305,32z M92,77H76
		v-1h16V77z M92,75H76v-1h16V75z M92,72H76v-1h16V72z M92,69H76v-1h16V69z M92,67H76v-1h16V67z M92,65H76v-2h16V65z M92,62H76v-1h16
		V62z M92,60H76v-1h16V60z M92,58H76v-1h16V58z M92,54H76v-1h16V54z M92,52H76v-1h16V52z M92,50H76v-1h16V50z M92,48H76v-1h16V48z
		 M92,45H76v-1h16V45z M92,42H76v-1h16V42z M92,40H76v-1h16V40z M92,37H76v-1h16V37z"/>
</g>
<g>
	<path fill="none" d="M-5-14v44H5.244c0.027-1.881,1.136-3.715,2.961-4.286L61.992,8.899L68.589,30h0.909l-6.68-21.361l18.464-5.772
		c2.296-0.718,4.556,0.922,5.272,3.218L94.032,30H108v-44H-5z"/>
</g>
<g>
	<path d="M8.205,25.714C6.38,26.285,5.271,28.119,5.244,30h63.345L61.992,8.899L8.205,25.714z"/>
	<path d="M86.557,6.085c-0.719-2.296-2.979-3.936-5.274-3.218L62.818,8.639L69.498,30h3.635l-0.014-0.046
		l13.242-4.141l0.261,0.828L75.879,30h2.905l8.097-2.531l0.258,0.828L81.691,30h2.904l2.803-0.875L87.672,30h6.36L86.557,6.085z
		 M67.166,10.916L67.166,10.916v-0.005L80.41,6.771l0.258,0.827h-0.001l0.002,0.005l-13.243,4.141L67.166,10.916z M67.941,13.399
		l13.246-4.141l0.258,0.827l-13.244,4.141L67.941,13.399z M68.718,15.883l-0.135-0.433l-0.123-0.393h0.001l-0.001-0.002
		l13.244-4.141l0.26,0.828l-0.002,0v0L68.718,15.883L68.718,15.883L68.718,15.883z M69.495,18.366l-0.259-0.829l13.244-4.14v0.001
		l0.008-0.002l0.258,0.828l-13.242,4.141v-0.001L69.495,18.366z M70.013,20.026l0.003-0.001l-0.002-0.004l13.244-4.142l0.26,0.829
		l-0.002,0l0.001,0.003l-13.245,4.141L70.013,20.026z M70.655,22.076l-0.126-0.399l13.244-4.141l0.001,0.002l0.259,0.827
		l-13.244,4.141L70.655,22.076z M71.047,23.332l0.002,0l-0.001-0.003l13.245-4.141l0.259,0.827l-0.002,0l0.002,0.005l-13.245,4.14
		L71.047,23.332z M71.823,25.814l-0.259-0.827l13.244-4.143l0.178,0.567l0.082,0.263l-13.244,4.141L71.823,25.814L71.823,25.814z
		 M86.104,24.988l-5.298,1.654l-7.946,2.485l-0.26-0.829h0.001L72.6,28.296l9.856-3.079l3.39-1.059l0.258,0.828h-0.001
		L86.104,24.988z"/>
</g>
</svg>
