<?xml version="1.0" encoding="utf-8"?>
<!-- Generator: Adobe Illustrator 21.0.0, SVG Export Plug-In . SVG Version: 6.00 Build 0)  -->
<svg version="1.1" id="Camada_1" xmlns="http://www.w3.org/2000/svg" xmlns:xlink="http://www.w3.org/1999/xlink" x="0px" y="0px"
	 viewBox="0 0 98.9 98.4" style="enable-background:new 0 0 98.9 98.4;" xml:space="preserve">
<g id="zi5NoG.tif">
	<g>
		<path d="M0,31.4c0.2-1.3,0.4-2.7,0.7-4c0.6-2.9,2.1-5.3,4.1-7.3c2.9-3,5.8-6,8.7-8.9c1.1-1.2,2.5-1.2,3.7,0
			C25.3,19.1,33.4,27,41.4,35c1.3,1.3,1.3,2.8,0,4.1c-1.9,1.9-3.7,3.7-5.6,5.6c-2.3,2.3-2.3,5.5,0.1,7.8c4.1,3.8,8.2,7.6,12.3,11.4
			c2,1.8,5.2,1.7,7.1-0.2c1.7-1.7,3.4-3.4,5.1-5.1c1.2-1.2,2.5-1.2,3.7,0c7.6,7.6,15.3,15.3,22.9,22.9c0.8,0.8,0.8,2.1,0,3
			c-3.6,3.5-7.2,7.2-11.1,10.4c-3,2.6-6.9,3.5-10.9,3.6c-2.9,0.1-5.9,0-8.6-1c-1.4-0.5-2.9-1.2-4.2-2c-12.5-7.9-23.9-17.3-34-28.1
			C12.8,61.2,7.8,54.9,4.1,47.7c-1.9-3.6-3.3-7.4-3.8-11.4C0.1,35.6,0.1,35,0,34.4C0,33.4,0,32.4,0,31.4z M15.3,16.2
			c-2.4,2.4-4.8,4.9-7.3,7.2c-1.1,1-1.8,2.2-2.2,3.6c-0.4,1.7-0.7,3.4-0.8,5.2C4.9,36.8,6.2,41,8.2,45.1c3.6,7.2,8.6,13.4,14.1,19.3
			c9.6,10.2,20.4,18.9,32.3,26.3c1.6,1,3.1,1.9,5,2.2c1.2,0.1,2.3,0.3,3.5,0.4c3.6,0.1,7.1-0.3,10-2.6c2-1.6,3.9-3.4,5.8-5.2
			c0.9-0.9,1.6-1.9,2.4-2.8C74.9,76,68.5,69.5,62.1,63c-1.2,1.2-2.3,2.3-3.4,3.4c-4.1,4-10.7,4.1-14.8,0.1c-1.2-1.1-2.4-2.2-3.6-3.3
			c-2.8-2.6-5.6-5-8.3-7.7c-3.1-3.1-4-6.8-2.4-10.9c0.6-1.4,1.6-2.7,2.6-3.9c1.2-1.4,2.6-2.7,3.9-3.9C29.1,30,22.3,23.1,15.3,16.2z"
			/>
		<path d="M51.5,0c10.8,0.4,20.4,3.9,28.8,10.6c9.2,7.4,15,17,17.5,28.6c0.7,3.1,0.8,6.3,1,9.4c0.1,1.8-0.9,2.9-2.6,2.8
			c-1.5,0-2.7-1.2-2.6-2.9c0-3.6-0.4-7.1-1.4-10.6C87.4,21.2,76.5,10.5,59.5,6.3c-3.1-0.8-6.4-0.8-9.6-1.2c-1.7-0.2-2.5-1-2.4-2.6
			C47.5,1,48.5,0,50.1,0C50.6,0,51,0,51.5,0z"/>
		<path d="M83.5,47.4c0,0.5,0.1,0.9,0.1,1.4c0,1.7-1,2.7-2.5,2.7c-1.5,0-2.6-1.1-2.6-2.7c-0.2-6.9-2.3-13.2-6.9-18.4
			c-4.2-4.9-9.5-8-15.8-9.1C54,21,52.3,21,50.6,20.9c-1.2-0.1-2.2-0.4-2.6-1.6c-0.4-1.1-0.2-2.4,0.7-3c0.5-0.3,1.1-0.6,1.7-0.6
			c8.1,0,15.2,2.6,21.4,7.8c6,5.1,9.8,11.6,11.3,19.3c0.3,1.5,0.4,3.1,0.6,4.6C83.6,47.4,83.5,47.4,83.5,47.4z"/>
		<path d="M69.9,47.2c0,0.7,0,1.2,0,1.6c-0.2,1.6-1.1,2.4-2.6,2.3c-1.4,0-2.4-1.1-2.5-2.6c-0.2-7.2-4.5-12.5-11.4-14.1
			c-1-0.2-2-0.3-3-0.3c-1.4-0.1-2.4-0.9-2.6-2.2c-0.2-1.6,0.7-2.6,2.4-2.7c8.9-0.4,17.3,6.1,19.2,14.8
			C69.7,45.2,69.8,46.3,69.9,47.2z"/>
	</g>
</g>
</svg>
