<?xml version="1.0" encoding="utf-8"?>
<!-- Generator: Adobe Illustrator 21.0.0, SVG Export Plug-In . SVG Version: 6.00 Build 0)  -->
<svg version="1.1" id="Camada_1" xmlns="http://www.w3.org/2000/svg" xmlns:xlink="http://www.w3.org/1999/xlink" x="0px" y="0px"
	 viewBox="0 0 333 333" style="enable-background:new 0 0 333 333;" xml:space="preserve">

<g>
	<g>
		<path class="st0" d="M-50.2,844c-14.6-2.1-28.6,5.8-34.3,19.3c-5.8,13.6-1.9,29.1,10,37.9c3.9,2.9,8.7,4.5,13.2,6.7
			c4.3,0,8.7,0,13,0c1.5-0.6,2.9-1.3,4.4-1.9c14.1-5.3,22.3-18.7,20.7-33.9C-24.7,857.9-36.2,846-50.2,844z"/>
		<path class="st0" d="M141.8,844c-14.6-2.1-28.6,5.8-34.3,19.3c-5.8,13.6-1.9,29.1,10,37.9c3.9,2.9,8.7,4.5,13.2,6.7
			c4.3,0,8.7,0,13,0c1.5-0.6,2.9-1.3,4.4-1.9c14.1-5.3,22.3-18.7,20.7-33.9C167.3,857.9,155.8,846,141.8,844z"/>
		<g>
			<path class="st0" d="M226.3,479.1c-30.7,31.5-86,6.6-85-36c0.4-15.7,7.8-24.2,15-35c-12.4-12.3-23.1-26.2-38-36
				c-3.3,0-6.7,0-10,0c-20.6,15.4-36.8,35.2-55,53c2.2,8,10.1,12.6,6,20c-4.1,7.5-15.9,3.4-21-4c-42,39.1-84,82.5-126.4,125.3
				c-3.3,0-6.6,0-9.8,0c-5.4,0-7.2-1.6-7.6-6.8c-0.5-6.1-1.8-12.1-3-18.2c-1.7-9.1-7.8-14.2-15.8-17.7c-19.7,0-39.3,0-59,0
				c-8.1,3.5-13.7,9.3-16,18c0,2.3,0,4.7,0,7c4.4,13.6,14,18.9,27.9,18c6.6-0.4,13.3,0,20-0.1c2.9-0.1,3.9,0.9,4.3,3.9
				c8.2,50.3,16.6,100.7,25,151c4.6,27.4,9.1,54.7,13.9,82.1c2,11.7,10.9,19.1,22.7,19.1c77.3,0,154.6,0,232,0
				c11.7,0,20.8-7.5,22.3-18c1.6-11.3-4.6-21.1-15.4-24.1c-2.4-0.6-4.9-0.7-7.4-0.7c-69.5,0-139-0.1-208.5,0.1
				c-4.4,0-7.1-0.4-7.3-5.8c-0.2-4.9-1.5-9.8-2.5-15.4c2.2,0,4.1,0,6,0c77.2,0,154.3,0,231.5,0c16,0,23.4-6.7,25.6-22.4
				c5.5-38.5,11.1-77,16.7-115.5c1.3-9,2.8-18,4.2-27c0-3.7,0-7.3,0-11c-1-2.6-2.1-4.7-3.4-6.6c17.3-17.4,36.3-33.2,51.1-53.1
				c0-3.3,0-6.7,0-10C250.3,499.8,238.6,489.2,226.3,479.1z M89.3,487.1c-6.9,0.3-31.2-21.5-14-28c1.3-0.5,3.2-1.6,6-1
				c4.8,1,16.9,13.6,17,19C98.4,483.8,94,486.9,89.3,487.1z M127.3,525.1c-5.5,0.2-19.8-10.2-20-19c-0.2-6.9,4.2-9.4,9-10
				c0.9-0.1,0.4-0.5,2,0c5.8,1.8,17.8,12.1,18,19C136.4,521.4,132.4,524.9,127.3,525.1z M165.3,563.1c-5.2,0.3-19.8-10.9-20-19
				c-0.2-6.9,4.2-9.4,9-10c0.9-0.1,0.4-0.5,2,0c5.6,1.7,17.9,11.5,18,19C174.4,558.5,170.4,562.8,165.3,563.1z"/>
		</g>
	</g>
</g>
<g id="Ka3EzW.tif">
	<g>
		<path class="st1" d="M800,689.1c-0.7,3.8-1.3,7.6-2.2,11.3c-3.1,13.5-9.3,25.4-18.1,36c-19.7,23.8-45.5,37.4-74.8,45.1
			c-17.4,4.6-35.2,6-53.1,5.4c-5.1-0.2-10.1-0.9-15.2-1.5c-2.3-0.3-4,0.1-5.8,2c-11.6,12.3-24.7,22.4-40.2,29.4
			c-5.9,2.6-11.9,4.8-18.4,5.2c-3.3,0.2-5.8-1.2-7.5-4c-1.7-2.9-1.3-5.7,0.3-8.5c3.8-6.9,8-13.6,11.2-20.8c2.3-5.2,3.3-11,4.8-16.6
			c0.6-2.1-0.2-3.6-2.4-4.7c-19.5-10.4-35.9-24.3-47.2-43.6c-6.1-10.3-9.8-21.4-11.1-33.4c-2.4-22.6,4.2-42.6,17.8-60.4
			c18.1-23.7,42.7-37.6,70.8-46c12.4-3.7,25.1-6,38.1-6.6c0.6,0,1.2-0.3,1.8-0.5c7.5,0,14.9,0,22.4,0c0.5,0.2,1,0.4,1.5,0.5
			c9,1.3,18.2,2,27,4c29.7,6.5,55.9,19.5,76.5,42.4c9.8,10.8,17,23.2,20.7,37.3c1.2,4.5,1.9,9.1,2.8,13.7
			C800,679.6,800,684.4,800,689.1z M593.2,795c0.4,0,0.6,0.1,0.7,0.1c9.2-5.9,17.9-12.5,25-20.9c4.2-4.9,9.4-7.3,15.8-6.8
			c7.2,0.6,14.5,1.9,21.7,1.9c8.5,0,17.1-0.7,25.5-1.5c13.7-1.4,26.9-5,39.7-10.4c18.5-7.8,34.7-18.6,46.7-34.9
			c13.2-18,17.8-37.8,11-59.5c-5.8-18.6-18-32.3-33.6-43.2c-24.4-17.1-52.1-24.2-81.5-25.1c-8.8-0.3-17.6,0.7-26.4,1.5
			c-13.4,1.3-26.3,4.8-38.7,9.9c-18.8,7.8-35.4,18.7-47.7,35.4c-10.8,14.6-16.1,31-13.4,49.3c2.8,19,13,33.9,27.1,46.4
			c7.4,6.5,15.7,11.6,24.3,16.3c6,3.3,9.5,8.6,9,15.5c-0.4,5.7-1.5,11.4-2.6,17.1C595.5,789.1,594.2,792,593.2,795z"/>
	</g>
</g>
<g id="EubgXd.tif">
	<g>
		<path class="st1" d="M1121.9,816.1c-0.3,0.9-0.6,1.8-0.8,2.7c-2.4,8.7-8.3,13.3-17.3,13.6c-0.6,0-1.3,0-1.9,0
			c-58.3,0-116.5,0-174.8,0c-12.9,0-20.3-7.4-20.3-20.3c0-20.5,0-41,0-61.4c0-1.9,0.1-3.8,0.6-5.7c1.5-5.6,5.2-10.9,15-10.4
			c6.2,0.3,11,4.5,12.2,11.1c0.3,1.9,0.5,3.8,0.5,5.7c0,16.7,0,33.3,0,50c0,1,0,2,0,3.1c53,0,105.8,0,158.7,0c0-69.9,0-139.9,0-210
			c-52.8,0-105.6,0-158.7,0c0,1,0,2,0,3c0,15.6,0,31.1,0,46.7c0,3.7-0.8,7.2-3,10.2c-3.9,5.3-9.4,5.9-15.2,4.7
			c-5.4-1.1-8.4-5-9.6-10.3c-0.4-1.9-0.6-4-0.6-5.9c0-19.1-0.1-38.2,0-57.3c0-5.4,1.1-10.7,5.8-14c2.8-2,6.2-3,9.4-4.5
			c0.6-0.3,1.2-0.4,1.8-0.6c60.6,0,121.3,0,181.9,0c0.5,0.2,0.9,0.4,1.4,0.5c7,1.5,12.1,5,14.1,12.2c0.3,1.2,0.6,2.4,0.9,3.6
			C1121.9,660.6,1121.9,738.4,1121.9,816.1z"/>
		<path class="st1" d="M1047.2,696.9c-22,21.1-44.1,40.6-68.6,57.3c-5.5,3.7-11.4,2.1-13.7-4c-1.2-3.2-1.8-6.7-1.9-10
			c-0.2-9.5-0.1-19.1-0.1-29c-1.2,0-2.3,0-3.3,0c-24.9,0-49.9,0-74.8,0c-7.4,0-13.2-3.7-14.6-9.4c-2.4-10.1,2.6-18.2,14.2-18.3
			c25-0.2,50.1-0.1,75.1-0.1c1,0,2,0,3.4,0c0-1,0-2,0-2.9c0-8.6,0-17.3,0-25.9c0-1.8,0.2-3.7,0.7-5.4c2-7.1,9.1-8.5,14.6-4.7
			c12.3,8.6,24.5,17.5,36.5,26.6c10.4,7.9,20.4,16.4,30.6,24.6C1045.8,696.1,1046.5,696.5,1047.2,696.9z"/>
	</g>
</g>
<g id="FGrJlL.tif">
	<g>
		<path class="st1" d="M1280.7,552c5.4,1,11,1.3,16.1,3.1c23.2,7.9,37.5,24.1,42.3,48.1c1.4,6.9,0.8,14.1,1.1,21.5
			c15.6,0,31.4,0,47.5,0c8.6,74.8,17.1,149.3,25.6,224c-89.2,0-178.2,0-267.6,0c8.5-74.6,17-149,25.6-223.8c16,0,31.8,0,47.9,0
			c0-4.5,0-8.7,0-13c0.1-27.3,20.8-52,47.3-58.1c3.9-0.9,7.9-1.2,11.9-1.8C1279.1,552,1279.9,552,1280.7,552z M1181.9,636.7
			c-0.6,4.8-1.2,9.6-1.8,14.3c-1.1,9.5-2,18.9-3.1,28.4s-2.3,18.9-3.4,28.3c-1.1,9.5-2,18.9-3.1,28.4c-1.3,11.2-2.7,22.4-4,33.6
			c-1.3,11.2-2.4,22.4-3.7,33.6c-1.1,10-2.1,20.1-3.6,30.1c-0.5,3.4,0.7,3.6,3.4,3.6c77.8-0.1,155.5,0,233.3,0
			c0.8,0,1.7,0.2,2.3-0.1c0.6-0.2,1.4-1.1,1.4-1.6c-0.4-5.1-1-10.2-1.6-15.2c-0.9-7.8-1.8-15.6-2.7-23.4c-0.9-7.7-1.7-15.4-2.6-23.1
			c-0.9-8-1.8-16-2.8-24c-0.9-7.6-1.7-15.2-2.6-22.8c-0.9-7.8-1.8-15.6-2.7-23.4c-0.9-7.7-1.7-15.4-2.6-23.1
			c-1.1-9.5-2.2-19.1-3.3-28.6c-0.6-5-1.2-10-1.8-15C1311.8,636.7,1247,636.7,1181.9,636.7z M1328,624.6c-0.1-8.3,0.7-16.4-1.4-24.4
			c-6.6-25.6-30.5-39.6-55.7-35.2c-30.7,5.4-43.3,31.7-39.5,59.7C1263.5,624.6,1295.6,624.6,1328,624.6z"/>
		<path class="st1" d="M1213.2,661c0-6.8,5.5-12.1,12.2-12c6.4,0.1,11.6,5.7,11.6,12.4c0,6.5-5.7,12-12.1,11.9
			C1218.2,673.1,1213.1,667.7,1213.2,661z"/>
		<path class="st1" d="M1345.9,661.3c-0.1,6.7-5.5,12.1-12,11.9c-6.6-0.2-11.8-5.6-11.7-12.3c0-6.3,5.5-11.9,11.5-12
			C1340.6,648.9,1345.9,654.3,1345.9,661.3z"/>
	</g>
</g>
<g id="Ka3EzW.tif_1_">
	<g>
		<path class="st2" d="M882,315.1c-0.7,3.8-1.3,7.6-2.2,11.3c-3.1,13.5-9.3,25.4-18.1,36c-19.7,23.8-45.5,37.4-74.8,45.1
			c-17.4,4.6-35.2,6-53.1,5.4c-5.1-0.2-10.1-0.9-15.2-1.5c-2.3-0.3-4,0.1-5.8,2c-11.6,12.3-24.7,22.4-40.2,29.4
			c-5.9,2.6-11.9,4.8-18.4,5.2c-3.3,0.2-5.8-1.2-7.5-4c-1.7-2.9-1.3-5.7,0.3-8.5c3.8-6.9,8-13.6,11.2-20.8c2.3-5.2,3.3-11,4.8-16.6
			c0.6-2.1-0.2-3.6-2.4-4.7c-19.5-10.4-35.9-24.3-47.2-43.6c-6.1-10.3-9.8-21.4-11.1-33.4c-2.4-22.6,4.2-42.6,17.8-60.4
			c18.1-23.7,42.7-37.6,70.8-46c12.4-3.7,25.1-6,38.1-6.6c0.6,0,1.2-0.3,1.8-0.5c7.5,0,14.9,0,22.4,0c0.5,0.2,1,0.4,1.5,0.5
			c9,1.3,18.2,2,27,4c29.7,6.5,55.9,19.5,76.5,42.4c9.8,10.8,17,23.2,20.7,37.3c1.2,4.5,1.9,9.1,2.8,13.7
			C882,305.6,882,310.4,882,315.1z"/>
	</g>
</g>
<g id="EubgXd.tif_1_">
	<g>
		<path class="st2" d="M1285.9,442.1c-0.3,0.9-0.6,1.8-0.8,2.7c-2.4,8.7-8.3,13.3-17.3,13.6c-0.6,0-1.3,0-1.9,0
			c-58.3,0-116.5,0-174.8,0c-12.9,0-20.3-7.4-20.3-20.3c0-20.5,0-41,0-61.4c0-1.9,0.1-3.8,0.6-5.7c1.5-5.6,5.2-10.9,15-10.4
			c6.2,0.3,11,4.5,12.2,11.1c0.3,1.9,0.5,3.8,0.5,5.7c0,16.7,0,33.3,0,50c0,1,0,2,0,3.1c53,0,105.8,0,158.7,0c0-69.9,0-139.9,0-210
			c-52.8,0-105.6,0-158.7,0c0,1,0,2,0,3c0,15.6,0,31.1,0,46.7c0,3.7-0.8,7.2-3,10.2c-3.9,5.3-9.4,5.9-15.2,4.7
			c-5.4-1.1-8.4-5-9.6-10.3c-0.4-1.9-0.6-4-0.6-5.9c0-19.1-0.1-38.2,0-57.3c0-5.4,1.1-10.7,5.8-14c2.8-2,6.2-3,9.4-4.5
			c0.6-0.3,1.2-0.4,1.8-0.6c60.6,0,121.3,0,181.9,0c0.5,0.2,0.9,0.4,1.4,0.5c7,1.5,12.1,5,14.1,12.2c0.3,1.2,0.6,2.4,0.9,3.6
			C1285.9,286.6,1285.9,364.4,1285.9,442.1z"/>
		<path class="st2" d="M1211.2,322.9c-22,21.1-44.1,40.6-68.6,57.3c-5.5,3.7-11.4,2.1-13.7-4c-1.2-3.2-1.8-6.7-1.9-10
			c-0.2-9.5-0.1-19.1-0.1-29c-1.2,0-2.3,0-3.3,0c-24.9,0-49.9,0-74.8,0c-7.4,0-13.2-3.7-14.6-9.4c-2.4-10.1,2.6-18.2,14.2-18.3
			c25-0.2,50.1-0.1,75.1-0.1c1,0,2,0,3.4,0c0-1,0-2,0-2.9c0-8.6,0-17.3,0-25.9c0-1.8,0.2-3.7,0.7-5.4c2-7.1,9.1-8.5,14.6-4.7
			c12.3,8.6,24.5,17.5,36.5,26.6c10.4,7.9,20.4,16.4,30.6,24.6C1209.8,322.1,1210.5,322.5,1211.2,322.9z"/>
	</g>
</g>
<g>
	<path class="st2" d="M1603.5,234.5c-16.1,0-31.9,0-47.5,0c-0.3-7.4,0.2-14.7-1.1-21.5c-4.8-24-19.1-40.2-42.3-48.1
		c-5.1-1.7-10.7-2.1-16.1-3.1c-0.8,0-1.6,0-2.4,0c-4,0.6-8,0.9-11.9,1.8c-26.4,6-47.2,30.7-47.3,58.1c0,4.2,0,8.4,0,13
		c-16.1,0-31.9,0-47.9,0c-8.5,74.8-17.1,149.3-25.6,223.8c89.5,0,178.4,0,267.6,0C1620.6,383.8,1612.1,309.3,1603.5,234.5z
		 M1486.7,174.8c25.2-4.4,49.1,9.6,55.7,35.2c2.1,8,1.3,16.2,1.4,24.4c-32.3,0-64.4,0-96.5,0C1443.4,206.5,1456,180.1,1486.7,174.8z
		 M1440.6,280.5c-6.6-0.1-11.7-5.5-11.7-12.2c0-6.8,5.5-12.1,12.2-12c6.4,0.1,11.6,5.7,11.6,12.4
		C1452.7,275.1,1447.1,280.6,1440.6,280.5z M1549.6,280.5c-6.6-0.2-11.8-5.6-11.7-12.3c0-6.3,5.5-11.9,11.5-12
		c7,0,12.3,5.3,12.2,12.3C1561.6,275.3,1556.2,280.7,1549.6,280.5z"/>
</g>
<g id="aXUam4.tif">
	<g>
		<path class="st3" d="M333,111.2c0,47.9,0,95.8,0,143.7c-0.2,0.4-0.5,0.7-0.6,1.1c-1.9,8.9-9,16.1-18,16.5
			c-12.3,0.6-24.7,0.3-37,0.3c-1.4,0-2.7,0-4.5,0c0,1.7,0,2.9,0,4.2c0,16.5,0,32.9,0,49.4c0,2.2,0.2,4.3,0.2,6.5
			c-71.1,0-142.2,0-213.3,0c0.1-0.5,0.2-1.1,0.2-1.6c0-18.6,0-37.3,0-55.9c0-0.8-0.2-1.6-0.3-2.6c-12.9,0-25.6,0-38.3,0
			c-8.9,0-15.2-4.3-19.3-11.9c-1-1.9-1.5-4-2.2-6c0-47.9,0-95.8,0-143.7c0.2-0.3,0.4-0.5,0.5-0.8c2.4-10.5,10.3-16.9,21-16.9
			c11.6,0,23.2,0,34.7,0c1.2,0,2.3,0,3.8,0c0-1.5,0-2.6,0-3.6c0-29,0-58,0-87c0-1-0.1-1.9-0.2-2.9c71.1,0,142.2,0,213.3,0
			c-0.1,0.7-0.2,1.5-0.2,2.2c0,29.4,0,58.9,0,88.3c0,0.9,0.2,1.8,0.3,3c1.5,0,2.6,0,3.8,0c11.8,0,23.6,0.1,35.4,0
			c4.7,0,8.6,1.5,12.2,4.3C329.2,101.2,331.5,106,333,111.2z M272.9,260c13.1,0,25.5,0,38,0c7.3,0,9.1-1.8,9.1-8.9
			c0-45.3,0-90.6,0-135.9c0-7.1-1.6-8.8-8.8-8.8c-17.6,0-35.1,0-52.7,0c-33.4,0-66.8,0-100.1,0c-30.6,0-61.1,0.2-91.7,0.2
			c-15,0-29.9-0.1-44.9-0.2c-7.2,0-8.8,1.6-8.8,8.7c0,45.4,0,90.8,0,136.2c0,6.8,1.8,8.7,8.7,8.7c11.6,0,23.2,0,34.8,0
			c1.1,0,2.1-0.1,3.5-0.2c0-24.5,0-48.7,0-73.1c71.1,0,141.8,0,212.9,0C272.9,211.2,272.9,235.4,272.9,260z M260,199.9
			c-62.6,0-124.7,0-187.1,0c0,1.5,0,2.8,0,4c0,22.9,0,45.7,0,68.6c0,14.5,0.1,29-0.1,43.6c0,3.2,0.9,4,4,4
			c59.7-0.1,119.4-0.1,179.1,0c3.1,0,4.1-0.7,4.1-3.9c-0.1-18.3-0.1-36.6-0.1-54.9c0-19.2,0-38.4,0-57.5
			C260,202.5,260,201.3,260,199.9z M166.5,93.5c29.9,0,59.8,0,89.7,0.1c3.2,0,3.9-0.9,3.9-4c-0.1-24.3-0.1-48.5,0-72.8
			c0-3-0.9-3.8-3.9-3.8c-59.8,0.1-119.6,0.1-179.4,0c-3.3,0-3.9,1.1-3.9,4.1c0.1,24.3,0.1,48.5,0,72.8c0,3.1,1,3.7,3.9,3.7
			C106.7,93.5,136.6,93.5,166.5,93.5z"/>
		<path class="st3" d="M286.4,152.9c-7.4,0-13.3-5.7-13.3-13c0-7.3,5.8-13.1,13.3-13.1c7.3,0,12.9,5.6,13,12.9
			C299.6,147.1,293.9,152.9,286.4,152.9z"/>
		<path class="st3" d="M166.3,292.7c-22,0-44,0-66,0c-4.7,0-7.3-2.9-6.7-7.5c0.4-3.3,2.6-4.8,5.6-5.4c1.2-0.2,2.4-0.2,3.6-0.2
			c42.5,0,84.9,0,127.4,0c1.4,0,2.8,0,4.2,0.4c3.8,0.9,5.5,3.6,5,7.5c-0.4,3-3,5.1-6.4,5.1C210.7,292.7,188.5,292.7,166.3,292.7z"/>
		<path class="st3" d="M166.1,239.4c-21.8,0-43.5,0-65.3,0c-4.7,0-7.3-2.3-7.3-6.3c0-3.4,1.8-5.7,5.3-6.3c1.1-0.2,2.1-0.3,3.2-0.3
			c43,0,86,0,129,0c5.6,0,8.3,2.1,8.4,6.3c0.1,4-2.4,6.5-6.7,6.6c-11.2,0-22.3,0-33.5,0C188.2,239.5,177.2,239.5,166.1,239.4z"/>
		<path class="st3" d="M153.2,266.1c-17.7,0-35.3,0-53,0c-3.1,0-5.3-1.3-6.3-4.1c-0.9-2.5-0.7-5.5,1.7-7c1.8-1.1,4.2-1.8,6.3-1.8
			c16-0.1,32.1-0.1,48.1-0.1c18.2,0,36.4,0,54.6,0c5.2,0,8,2.2,8.1,6.3c0.1,4.1-2.4,6.6-6.6,6.6c-14.1,0-28.2,0-42.2,0
			C160.3,266.1,156.8,266.1,153.2,266.1z"/>
	</g>
</g>
</svg>
