<?xml version="1.0" encoding="utf-8"?>
<!-- Generator: Adobe Illustrator 21.0.0, SVG Export Plug-In . SVG Version: 6.00 Build 0)  -->
<svg version="1.1" id="Camada_1" xmlns="http://www.w3.org/2000/svg" xmlns:xlink="http://www.w3.org/1999/xlink" x="0px" y="0px"
	 viewBox="0 0 77 77" style="enable-background:new 0 0 77 77;" xml:space="preserve">
<g id="rWflyI.tif">
	<g>
		<path d="M77,34c0,3,0,6,0,9c-0.1,0.3-0.3,0.6-0.4,1c-2.9,16.4-12.4,26.9-28.2,31.7c-1.8,0.5-3.6,0.9-5.4,1.3c-3,0-6,0-9,0
			c-0.3-0.1-0.6-0.4-1-0.4C17.4,74.4,4.5,62.7,1,47.4c-0.3-1.4-0.6-2.9-1-4.3c0-3,0-6,0-9c0.1-0.3,0.3-0.6,0.4-1
			C3,17.5,11.9,7.2,26.6,1.9C29,1,31.5,0.6,34,0c3,0,6,0,9,0c0.3,0.1,0.6,0.4,1,0.4c15.7,2.3,28.5,14,32.1,29.3
			C76.4,31.1,76.7,32.6,77,34z M29.3,23.8c1.9-0.6,3.5-1.3,5.2-1.6c2.7-0.4,5.6-1.1,8.2,0.4c2.6,1.5,3.6,4,3.5,6.9
			c-0.1,3.3-1.7,5.8-4.8,7c-2.5,0.9-5.2,1.3-7.7,1.9c0,4.1,0,8.3,0,12.5c2.8,0,5.5,0,8.5,0c0-2.2-0.1-4.4,0.1-6.5
			c0-0.6,0.6-1.5,1.2-1.8c2.1-1.3,4.5-2.3,6.5-3.7c7.5-5,7.9-16.8,0.7-21.9c-6.3-4.4-13.2-3.4-20-1.6c-0.5,0.1-1.1,1-1.2,1.6
			C29.2,19.1,29.3,21.5,29.3,23.8z M43.6,60.3c0-3.4-2.7-6-6-6c-3.3,0.1-5.8,2.6-5.8,5.9c0,3.5,2.4,6,5.9,6
			C41.1,66.3,43.6,63.7,43.6,60.3z"/>
	</g>
</g>
</svg>
