<?xml version="1.0" encoding="utf-8"?>
<!-- Generator: Adobe Illustrator 21.0.0, SVG Export Plug-In . SVG Version: 6.00 Build 0)  -->
<svg version="1.1" id="Camada_1" xmlns="http://www.w3.org/2000/svg" xmlns:xlink="http://www.w3.org/1999/xlink" x="0px" y="0px"
	 viewBox="0 0 136 92.5" style="enable-background:new 0 0 136 92.5;" xml:space="preserve">
<g id="_x37_xMftO.tif">
	<g>
		<path d="M47.3,0c1.5,0,3,0,4.5,0c1.4,0.2,2.9,0.4,4.3,0.5c7.6,0.8,14.7,3.2,21.3,7.1c0.6,0.3,1.4,0.5,2,0.4c7-1.8,14-2,21.1-1
			c7.5,1.1,14.4,3.6,20.6,8c6.6,4.6,11.4,10.6,13.7,18.4c0.6,2,0.8,4,1.2,6c0,1.2,0,2.5,0,3.7c-0.2,1.3-0.4,2.7-0.7,4
			c-1.2,5.9-4.1,10.9-8.2,15.3c-0.6,0.6-0.6,1.2-0.4,1.8c0.8,2.7,1.5,5.3,2.3,8c0.7,2.7,1.5,5.3,2.3,8.2c-5.5-2.8-10.9-5.5-16.2-8.2
			c-0.5-0.2-1.2-0.4-1.6-0.3c-4.9,2.1-10,3.6-15.3,3.9c-4.3,0.2-8.6-0.1-12.9-0.2c-1.3,0-2.6-0.8-4,0.2
			c-10.7,7.6-22.7,10.7-35.7,9.9c-5.8-0.4-11.3-1.7-16.8-3.7c-0.5-0.2-1.2-0.1-1.7,0.1c-3.4,1.5-6.8,3.1-10.2,4.7
			c-4.4,2-8.7,3.9-13.1,5.9c0.1-0.4,0.1-0.8,0.2-1.2C5.7,83.9,7.5,76.4,9.3,69c0.1-0.4,0-1-0.3-1.4c-3.9-4.9-6.8-10.4-8-16.6
			c-0.4-2-0.7-4-1-5.9c0-1.5,0-3,0-4.5c0.1-0.3,0.2-0.6,0.3-0.9c0.4-2.3,0.6-4.7,1.2-7C4,24,9,16.9,16.2,11.3
			C24,5.1,33,1.6,42.8,0.5C44.3,0.4,45.8,0.2,47.3,0z M11,83.9c0.8-0.4,1.3-0.6,1.7-0.8c4.6-2.4,9.3-4.8,14-7.1
			c0.5-0.2,1.3-0.3,1.8,0c9.4,4.2,19.1,5.6,29.2,3.9c11.1-1.9,20.5-6.8,27.6-15.7c5.8-7.3,8.3-15.6,7.1-24.9
			c-0.8-6.8-3.6-12.8-8.1-17.8C75.5,11.3,64,6.7,50.8,6.2c-3.7-0.1-7.6,0.3-11.3,1c-10.9,2.1-20.1,7.3-26.8,16.3
			C7.1,31.2,4.9,40,6.7,49.5c1.2,6.4,4.2,11.9,8.6,16.7c0.5,0.6,0.7,1.1,0.4,1.9c-0.7,2-1.2,4-1.8,6C13,77.2,12.1,80.4,11,83.9z
			 M123.7,71.1c-1.1-3.2-2.1-6-3.1-8.8c-0.3-0.9-0.3-1.5,0.5-2.2c1.2-1.1,2.3-2.3,3.3-3.6c4.4-5.7,6.4-12,5.1-19.2
			c-1.3-7.1-5.3-12.6-11-16.9c-9.1-6.8-19.4-8.9-30.6-8c-1,0.1-1.9,0.3-3.2,0.5c8.4,7.7,13.4,16.9,13.9,28.1
			c0.6,11.3-3.6,20.8-11.3,29.2c2,0.1,3.7,0.3,5.4,0.3c6.9-0.2,13.5-1.5,19.7-4.5c0.4-0.2,1.2-0.2,1.6,0
			C117.3,67.7,120.3,69.3,123.7,71.1z"/>
	</g>
</g>
</svg>
