<?xml version="1.0" encoding="utf-8"?>
<!-- Generator: Adobe Illustrator 16.0.0, SVG Export Plug-In . SVG Version: 6.00 Build 0)  -->
<!DOCTYPE svg PUBLIC "-//W3C//DTD SVG 1.0//EN" "http://www.w3.org/TR/2001/REC-SVG-20010904/DTD/svg10.dtd">
<svg version="1.0" id="Layer_1" xmlns="http://www.w3.org/2000/svg" xmlns:xlink="http://www.w3.org/1999/xlink" x="0px" y="0px"
	 width="100px" height="100px" viewBox="0 0 100 100" enable-background="new 0 0 100 100" xml:space="preserve">
<g>
	<path fill-rule="evenodd" clip-rule="evenodd" d="M50.504,82.377c-7.447-0.098-13.843-2.038-19.894-5.204
		C22.328,72.841,15.3,66.899,8.992,60.072c-1.928-2.087-3.682-4.334-5.535-6.491c-0.369-0.43-0.362-0.73-0.007-1.181
		c7.211-9.137,15.514-17.04,25.71-22.804c4.976-2.812,10.258-4.802,15.935-5.62c6.755-0.974,13.248,0.12,19.537,2.635
		c6.798,2.718,12.777,6.752,18.31,11.483c5.016,4.29,9.547,9.044,13.593,14.264c0.374,0.481,0.383,0.775,0.006,1.253
		c-7.229,9.162-15.569,17.074-25.799,22.838c-4.897,2.759-10.104,4.699-15.683,5.529C53.368,82.229,51.649,82.281,50.504,82.377z
		 M89.516,53.104c-0.43-0.518-0.681-0.866-0.977-1.169c-2.668-2.737-5.244-5.576-8.041-8.174c-4.678-4.344-9.854-8.017-15.66-10.737
		c-4.229-1.983-8.647-3.306-13.339-3.541c-5.639-0.282-10.951,1.055-16.029,3.414c-8.311,3.86-15.197,9.617-21.444,16.208
		c-1.173,1.238-2.284,2.535-3.457,3.841c0.318,0.391,0.542,0.719,0.816,0.995c3.171,3.185,6.218,6.508,9.557,9.506
		c5.096,4.574,10.785,8.294,17.224,10.769c4.532,1.742,9.217,2.616,14.07,2.242c4.987-0.385,9.649-1.957,14.086-4.227
		c6.096-3.119,11.451-7.26,16.342-12.005C85.007,57.951,87.2,55.521,89.516,53.104z"/>
	<path fill-rule="evenodd" clip-rule="evenodd" d="M67.644,53.016c-0.186,10.142-7.604,17.61-17.709,17.57
		C39.8,70.543,32.396,63,32.412,52.96c0.017-10.146,7.579-17.612,17.671-17.569C60.196,35.434,67.495,42.961,67.644,53.016z
		 M61.769,53.032c0.17-6.401-5.438-11.997-12.059-11.83c-6.233,0.156-11.534,5.531-11.489,11.878
		c0.043,6.286,5.432,11.799,11.95,11.689C56.523,64.664,61.774,59.443,61.769,53.032z"/>
</g>
</svg>
