<?xml version="1.0" encoding="utf-8"?>
<!-- Generator: Adobe Illustrator 21.0.0, SVG Export Plug-In . SVG Version: 6.00 Build 0)  -->
<svg version="1.1" id="Layer_1" xmlns="http://www.w3.org/2000/svg" xmlns:xlink="http://www.w3.org/1999/xlink" x="0px" y="0px"
	 viewBox="0 0 158 138.3" style="enable-background:new 0 0 158 138.3;" xml:space="preserve">
<style type="text/css">
	.st0{fill:#A7A9AB;}
	.st1{fill:#0066B2;}
	.st2{fill:#00ADEF;}
	.st3{fill:#263C70;}
	.st4{opacity:0.7;fill:#FFFFFF;}
	.st5{fill:#FFFFFF;}
</style>
<g>
	<path fill="#A7A9AB" d="M58.5,406.8c0,1.5-0.8,2.6-1.8,2.6H20.2c-1,0-1.8-1.1-1.8-2.6l0,0c0-1.5,0.8-2.6,1.8-2.6h36.5
		C57.7,404.2,58.5,405.4,58.5,406.8L58.5,406.8z"/>
</g>
<g>
	<path fill="#A7A9AB" d="M58.5,420.2c0,1.5-0.8,2.6-1.8,2.6H20.2c-1,0-1.8-1.1-1.8-2.6l0,0c0-1.5,0.8-2.6,1.8-2.6h36.5
		C57.7,417.6,58.5,418.7,58.5,420.2L58.5,420.2z"/>
</g>
<g>
	<path fill="#A7A9AB" d="M58.5,432c0,1.5-0.8,2.6-1.8,2.6H20.2c-1,0-1.8-1.1-1.8-2.6l0,0c0-1.5,0.8-2.6,1.8-2.6h36.5
		C57.7,429.4,58.5,430.6,58.5,432L58.5,432z"/>
</g>
<g>
	<path fill="#A7A9AB" d="M102.2,406.8c0,1.5-0.8,2.6-1.8,2.6H63.9c-1,0-1.8-1.1-1.8-2.6l0,0c0-1.5,0.8-2.6,1.8-2.6h36.5
		C101.4,404.2,102.2,405.4,102.2,406.8L102.2,406.8z"/>
</g>
<g>
	<path fill="#A7A9AB" d="M102.2,420.2c0,1.5-0.8,2.6-1.8,2.6H63.9c-1,0-1.8-1.1-1.8-2.6l0,0c0-1.5,0.8-2.6,1.8-2.6h36.5
		C101.4,417.6,102.2,418.7,102.2,420.2L102.2,420.2z"/>
</g>
<g>
	<path fill="#A7A9AB" d="M102.2,432c0,1.5-0.8,2.6-1.8,2.6H63.9c-1,0-1.8-1.1-1.8-2.6l0,0c0-1.5,0.8-2.6,1.8-2.6h36.5
		C101.4,429.4,102.2,430.6,102.2,432L102.2,432z"/>
</g>
<path fill="#A7A9AB" d="M134.2,394.3c0,2.2-1.8,4-4,4H22.5c-2.2,0-4-1.8-4-4v-29.1c0-2.2,1.8-4,4-4h107.7c2.2,0,4,1.8,4,4V394.3z"/>
<path fill="#0066B2" d="M134.2,430.7c0,2.2-1.8,4-4,4h-18.7c-2.2,0-4-1.8-4-4v-22.4c0-2.2,1.8-4,4-4h18.7c2.2,0,4,1.8,4,4V430.7z"/>
<g id="Expanded">
	<g>
		<g>
			<path fill="#00ADEF" d="M143.4,475.3H10.3C3,475.3-3,469.1-3,461.4v-98.7c0-7.7,6-13.9,13.3-13.9h133.1c7.3,0,13.3,6.2,13.3,13.9
				v98.7C156.7,469.1,150.7,475.3,143.4,475.3z M10.3,355.5c-3.7,0-6.7,3.3-6.7,7.2v98.7c0,4,3,7.2,6.7,7.2h133.1
				c3.7,0,6.7-3.2,6.7-7.2v-98.7c0-4-3-7.2-6.7-7.2H10.3z"/>
		</g>
		<g>
			<path fill="#00ADEF" d="M123.4,488.6H30.3c-1.8,0-3.3-1.5-3.3-3.3c0-1.8,1.5-3.3,3.3-3.3h93.2c1.8,0,3.3,1.5,3.3,3.3
				C126.8,487.1,125.3,488.6,123.4,488.6z"/>
		</g>
		<g>
			<path fill="#00ADEF" d="M76.8,488.6c-1.8,0-3.3-1.5-3.3-3.3V472c0-1.8,1.5-3.3,3.3-3.3c1.8,0,3.3,1.5,3.3,3.3v13.3
				C80.2,487.1,78.7,488.6,76.8,488.6z"/>
		</g>
		<path fill="#00ADEF" d="M0,444.3L3,471h147.5l3-26.7H0z M76.5,463.8c-3.7,0-6.7-3-6.7-6.7c0-3.7,3-6.7,6.7-6.7s6.7,3,6.7,6.7
			C83.1,460.9,80.1,463.8,76.5,463.8z"/>
	</g>
</g>
<g>
	<path fill="#A7A9AB" d="M72.3,224.3c0,1.5-0.8,2.6-1.8,2.6H33.7c-1,0-1.8-1.1-1.8-2.6l0,0c0-1.5,0.8-2.6,1.8-2.6h36.8
		C71.5,221.7,72.3,222.9,72.3,224.3L72.3,224.3z"/>
</g>
<g>
	<path fill="#0066B2" d="M117.2,236.7c0,1.9-0.8,3.7-1.8,3.7H33.7c-1,0-1.8-1.8-1.8-3.7l0,0c0-1.9,0.8-3.7,1.8-3.7h81.7
		C116.3,232.9,117.2,234.8,117.2,236.7L117.2,236.7z"/>
</g>
<g>
	<path fill="#A7A9AB" d="M72.3,249.8c0,1.5-0.8,2.6-1.8,2.6H33.7c-1,0-1.8-1.1-1.8-2.6l0,0c0-1.5,0.8-2.6,1.8-2.6h36.8
		C71.5,247.1,72.3,248.3,72.3,249.8L72.3,249.8z"/>
</g>
<g>
	<path fill="#A7A9AB" d="M116.4,224.3c0,1.5-0.8,2.6-1.8,2.6H77.8c-1,0-1.8-1.1-1.8-2.6l0,0c0-1.5,0.8-2.6,1.8-2.6h36.8
		C115.6,221.7,116.4,222.9,116.4,224.3L116.4,224.3z"/>
</g>
<g>
	<path fill="#A7A9AB" d="M116.4,249.8c0,1.5-0.8,2.6-1.8,2.6H77.8c-1,0-1.8-1.1-1.8-2.6l0,0c0-1.5,0.8-2.6,1.8-2.6h36.8
		C115.6,247.1,116.4,248.3,116.4,249.8L116.4,249.8z"/>
</g>
<path fill="#A7A9AB" d="M117.3,211.7c0,2.2-1.8,4-4,4H36c-2.2,0-4-1.8-4-4v-29.4c0-2.2,1.8-4,4-4h77.2c2.2,0,4,1.8,4,4V211.7z"/>
<g id="Expanded_1_">
	<g>
		<g>
			<path fill="#00ADEF" d="M143,293.4H8.7c-7.4,0-13.4-6.3-13.4-14v-99.5c0-7.7,6-14,13.4-14H143c7.4,0,13.4,6.3,13.4,14v99.5
				C156.5,287.1,150.4,293.4,143,293.4z M8.7,172.6c-3.7,0-6.7,3.3-6.7,7.3v99.5c0,4,3,7.3,6.7,7.3H143c3.7,0,6.7-3.3,6.7-7.3v-99.5
				c0-4-3-7.3-6.7-7.3H8.7z"/>
		</g>
		<g>
			<path fill="#00ADEF" d="M122.9,306.8h-94c-1.9,0-3.4-1.5-3.4-3.4c0-1.9,1.5-3.4,3.4-3.4h94c1.9,0,3.4,1.5,3.4,3.4
				C126.2,305.3,124.7,306.8,122.9,306.8z"/>
		</g>
		<g>
			<path fill="#00ADEF" d="M75.9,306.8c-1.9,0-3.4-1.5-3.4-3.4v-13.4c0-1.9,1.5-3.4,3.4-3.4c1.9,0,3.4,1.5,3.4,3.4v13.4
				C79.2,305.3,77.7,306.8,75.9,306.8z"/>
		</g>
		<path fill="#00ADEF" d="M-1.6,262.1l3,26.9h148.8l3-26.9H-1.6z M75.5,281.8c-3.7,0-6.7-3-6.7-6.7c0-3.7,3-6.7,6.7-6.7s6.7,3,6.7,6.7
			C82.2,278.8,79.2,281.8,75.5,281.8z"/>
	</g>
</g>
<g id="Expanded_2_">
	<g>
		<g>
			<path fill="#00ADEF" d="M139.4,637.7H1.6c-7.6,0-13.8-6.5-13.8-14.4V521.2c0-7.9,6.2-14.4,13.8-14.4h137.8c7.6,0,13.8,6.5,13.8,14.4
				v102.1C153.2,631.2,147,637.7,139.4,637.7z M1.6,513.7c-3.8,0-6.9,3.4-6.9,7.5v102.1c0,4.1,3.1,7.5,6.9,7.5h137.8
				c3.8,0,6.9-3.4,6.9-7.5V521.2c0-4.1-3.1-7.5-6.9-7.5H1.6z"/>
		</g>
		<g>
			<path fill="#00ADEF" d="M118.7,651.5H22.3c-1.9,0-3.4-1.5-3.4-3.4c0-1.9,1.5-3.4,3.4-3.4h96.4c1.9,0,3.4,1.5,3.4,3.4
				C122.2,649.9,120.6,651.5,118.7,651.5z"/>
		</g>
		<g>
			<path fill="#00ADEF" d="M70.5,651.5c-1.9,0-3.4-1.5-3.4-3.4v-13.8c0-1.9,1.5-3.4,3.4-3.4c1.9,0,3.4,1.5,3.4,3.4V648
				C73.9,649.9,72.4,651.5,70.5,651.5z"/>
		</g>
		<path fill="#00ADEF" d="M-9,605.6l3.1,27.6h152.7l3.1-27.6H-9z M70.1,625.8c-3.8,0-6.9-3.1-6.9-6.9c0-3.8,3.1-6.9,6.9-6.9
			s6.9,3.1,6.9,6.9C77,622.7,73.9,625.8,70.1,625.8z"/>
	</g>
</g>
<path fill="#A7A9AB" d="M130.6,579.2c0,2.3-1.8,4.1-4.1,4.1H15c-2.3,0-4.1-1.8-4.1-4.1v-53.1c0-2.3,1.8-4.1,4.1-4.1h111.5
	c2.3,0,4.1,1.8,4.1,4.1V579.2z"/>
<path fill="#0066B2" d="M130.6,596.9c0,2.3-1.8,4.1-4.1,4.1H15c-2.3,0-4.1-1.8-4.1-4.1v-6.3c0-2.3,1.8-4.1,4.1-4.1h111.5
	c2.3,0,4.1,1.8,4.1,4.1V596.9z"/>
<g>
	<path fill="#263C70" d="M60.8,57.4c0,1.4-0.8,2.6-1.8,2.6H23c-1,0-1.8-1.1-1.8-2.6l0,0c0-1.4,0.8-2.6,1.8-2.6H59
		C60,54.8,60.8,55.9,60.8,57.4L60.8,57.4z"/>
</g>
<g>
	<path fill="#263C70" d="M60.8,70.6c0,1.4-0.8,2.6-1.8,2.6H23c-1,0-1.8-1.1-1.8-2.6l0,0c0-1.4,0.8-2.6,1.8-2.6H59
		C60,68,60.8,69.1,60.8,70.6L60.8,70.6z"/>
</g>
<g>
	<path fill="#263C70" d="M60.8,82.3c0,1.4-0.8,2.6-1.8,2.6H23c-1,0-1.8-1.1-1.8-2.6l0,0c0-1.4,0.8-2.6,1.8-2.6H59
		C60,79.7,60.8,80.9,60.8,82.3L60.8,82.3z"/>
</g>
<g>
	<path fill="#263C70" d="M104.1,57.4c0,1.4-0.8,2.6-1.8,2.6H66.2c-1,0-1.8-1.1-1.8-2.6l0,0c0-1.4,0.8-2.6,1.8-2.6h36.1
		C103.3,54.8,104.1,55.9,104.1,57.4L104.1,57.4z"/>
</g>
<g>
	<path fill="#263C70" d="M104.1,70.6c0,1.4-0.8,2.6-1.8,2.6H66.2c-1,0-1.8-1.1-1.8-2.6l0,0c0-1.4,0.8-2.6,1.8-2.6h36.1
		C103.3,68,104.1,69.1,104.1,70.6L104.1,70.6z"/>
</g>
<g>
	<path fill="#263C70" d="M104.1,82.3c0,1.4-0.8,2.6-1.8,2.6H66.2c-1,0-1.8-1.1-1.8-2.6l0,0c0-1.4,0.8-2.6,1.8-2.6h36.1
		C103.3,79.7,104.1,80.9,104.1,82.3L104.1,82.3z"/>
</g>
<path fill="#263C70" d="M135.7,45c0,2.2-1.8,3.9-3.9,3.9H25.3c-2.2,0-3.9-1.8-3.9-3.9V16.2c0-2.2,1.8-3.9,3.9-3.9h106.6
	c2.2,0,3.9,1.8,3.9,3.9V45z"/>
<path fill="#263C70" d="M135.7,80.9c0,2.2-1.8,3.9-3.9,3.9h-18.5c-2.2,0-3.9-1.8-3.9-3.9V58.7c0-2.2,1.8-3.9,3.9-3.9h18.5
	c2.2,0,3.9,1.8,3.9,3.9V80.9z"/>
<path fill="#FFFFFF" d="M154.8,112.1c0,2.4-2,4.3-4.4,4.3H7.4c-2.4,0-4.4-1.9-4.4-4.3V11c0-2.4,2-4.6,4.4-4.6h143
	c2.4,0,4.4,2.2,4.4,4.6V112.1z"/>
<g id="Expanded_3_">
	<g>
		<g>
			<path fill="#00ADEF" d="M144.9,125.1H13.2c-7.3,0-13.2-6.2-13.2-13.8V13.8C0,6.2,5.9,0,13.2,0h131.7c7.3,0,13.2,6.2,13.2,13.8v97.6
				C158,118.9,152.1,125.1,144.9,125.1z M13.2,6.6c-3.6,0-6.6,3.2-6.6,7.2v97.6c0,4,3,7.2,6.6,7.2h131.7c3.6,0,6.6-3.2,6.6-7.2V13.8
				c0-4-3-7.2-6.6-7.2H13.2z"/>
		</g>
		<g>
			<path fill="#00ADEF" d="M125.1,138.3H32.9c-1.8,0-3.3-1.5-3.3-3.3c0-1.8,1.5-3.3,3.3-3.3h92.2c1.8,0,3.3,1.5,3.3,3.3
				C128.4,136.8,126.9,138.3,125.1,138.3z"/>
		</g>
		<g>
			<path fill="#00ADEF" d="M79,138.3c-1.8,0-3.3-1.5-3.3-3.3v-13.2c0-1.8,1.5-3.3,3.3-3.3c1.8,0,3.3,1.5,3.3,3.3V135
				C82.3,136.8,80.8,138.3,79,138.3z"/>
		</g>
		<path fill="#00ADEF" d="M3,94.4l4.4,26.4h143.8l3.7-26.4H3z M78.6,113.8c-3.6,0-6.6-2.9-6.6-6.6c0-3.6,2.9-6.6,6.6-6.6
			s6.6,2.9,6.6,6.6C85.2,110.8,82.3,113.8,78.6,113.8z"/>
	</g>
</g>
<g>
	<path fill="#0066B2" d="M121.1,79.3c0,1.8-1.5,3.3-3.3,3.3H40c-1.8,0-3.3-1.5-3.3-3.3v-55c0-1.8,1.5-3.3,3.3-3.3h77.7
		c1.8,0,3.3,1.5,3.3,3.3V79.3z"/>
	<g>
		<path fill="#ffca04" d="M110.1,32.1l2.2-3.3l-2-3h1.5l1.3,2l1.2-2h1.5l-2,3.1l2.2,3.2h-1.5l-1.4-2.2l-1.4,2.2H110.1z"/>
	</g>
	<g>
		<path fill="#ffca04" d="M99,61.8c0,1.4-0.8,2.6-1.8,2.6H61.1c-1,0-1.8-1.1-1.8-2.6l0,0c0-1.4,0.8-2.6,1.8-2.6h36.1
			C98.2,59.2,99,60.3,99,61.8L99,61.8z"/>
	</g>
	<g>
		<path fill="#ffca04" d="M99,72c0,1.4-0.8,2.6-1.8,2.6H61.1c-1,0-1.8-1.1-1.8-2.6l0,0c0-1.4,0.8-2.6,1.8-2.6h36.1
			C98.2,69.5,99,70.6,99,72L99,72z"/>
	</g>
	<path fill="#ffca04" d="M99.1,33.5c0-2.4-2-4.4-4.4-4.4H63.9c-2.4,0-4.4,2-4.4,4.4v16.1c0,2.4,2,4.4,4.4,4.4h30.8c2.4,0,4.4-2,4.4-4.4
		V33.5z"/>
</g>
<path fill="#0066B2" d="M307,719.6c0,2.2-1.8,4-4,4h-23.3c-2.2,0-4-1.8-4-4v-21.1c0-2.2,1.8-4,4-4H303c2.2,0,4,1.8,4,4V719.6z"/>
<path fill="#0066B2" d="M273.5,719.6c0,2.2-1.8,4-4,4h-23.3c-2.2,0-4-1.8-4-4v-21.1c0-2.2,1.8-4,4-4h23.3c2.2,0,4,1.8,4,4V719.6z"/>
<path fill="#0066B2" d="M307,688.3c0,2.2-1.8,4-4,4h-23.3c-2.2,0-4-1.8-4-4v-21.1c0-2.2,1.8-4,4-4H303c2.2,0,4,1.8,4,4V688.3z"/>
<path fill="#0066B2" d="M273.5,688.3c0,2.2-1.8,4-4,4h-23.3c-2.2,0-4-1.8-4-4v-21.1c0-2.2,1.8-4,4-4h23.3c2.2,0,4,1.8,4,4V688.3z"/>
<g id="Expanded_4_">
	<g>
		<g>
			<path fill="#00ADEF" d="M375.8,768.2H242.1c-7.4,0-13.4-6.3-13.4-14v-99.1c0-7.7,6-14,13.4-14h133.7c7.4,0,13.4,6.3,13.4,14v99.1
				C389.2,761.9,383.2,768.2,375.8,768.2z M242.1,647.8c-3.7,0-6.7,3.3-6.7,7.3v99.1c0,4,3,7.3,6.7,7.3h133.7c3.7,0,6.7-3.3,6.7-7.3
				v-99.1c0-4-3-7.3-6.7-7.3H242.1z"/>
		</g>
		<g>
			<path fill="#00ADEF" d="M355.8,781.6h-93.6c-1.8,0-3.3-1.5-3.3-3.3c0-1.8,1.5-3.3,3.3-3.3h93.6c1.8,0,3.3,1.5,3.3,3.3
				C359.1,780.1,357.6,781.6,355.8,781.6z"/>
		</g>
		<g>
			<path fill="#00ADEF" d="M309,781.6c-1.8,0-3.3-1.5-3.3-3.3v-13.4c0-1.8,1.5-3.3,3.3-3.3c1.8,0,3.3,1.5,3.3,3.3v13.4
				C312.3,780.1,310.8,781.6,309,781.6z"/>
		</g>
		<path fill="#00ADEF" d="M231.8,737l3,26.8h148.2l3-26.8H231.8z M308.6,756.7c-3.7,0-6.7-3-6.7-6.7s3-6.7,6.7-6.7c3.7,0,6.7,3,6.7,6.7
			S312.3,756.7,308.6,756.7z"/>
	</g>
</g>
<path fill="#0066B2" d="M374,719.6c0,2.2-1.8,4-4,4h-23.3c-2.2,0-4-1.8-4-4v-21.1c0-2.2,1.8-4,4-4H370c2.2,0,4,1.8,4,4V719.6z"/>
<path fill="#0066B2" d="M340.5,719.6c0,2.2-1.8,4-4,4h-23.3c-2.2,0-4-1.8-4-4v-21.1c0-2.2,1.8-4,4-4h23.3c2.2,0,4,1.8,4,4V719.6z"/>
<path fill="#0066B2" d="M374,688.3c0,2.2-1.8,4-4,4h-23.3c-2.2,0-4-1.8-4-4v-21.1c0-2.2,1.8-4,4-4H370c2.2,0,4,1.8,4,4V688.3z"/>
<path fill="#0066B2" d="M340.5,688.3c0,2.2-1.8,4-4,4h-23.3c-2.2,0-4-1.8-4-4v-21.1c0-2.2,1.8-4,4-4h23.3c2.2,0,4,1.8,4,4V688.3z"/>
</svg>
