<?xml version="1.0" encoding="utf-8"?>
<!-- Generator: Adobe Illustrator 21.0.0, SVG Export Plug-In . SVG Version: 6.00 Build 0)  -->
<svg version="1.1" id="Camada_1" xmlns="http://www.w3.org/2000/svg" xmlns:xlink="http://www.w3.org/1999/xlink" xml:space="preserve">
<g>
	<path d="M32.2,32.6C8.4,35.1-0.3,52.5,0,52.5c0.4,0.2,22.2,2.4,41.5-4.3c18-6.3,40.2-7.5,40.2-7.4
		C82.1,41.2,56.3,30.1,32.2,32.6z"/>
	<path d="M40.3,51.9C22.6,61.7,21.5,78.2,21.7,78c0.4,0,18.2-5.4,31-17c12-10.9,29-19.2,29-19
		C82.1,42.1,58.3,41.9,40.3,51.9z"/>
	<path d="M48.2,13.6c-18.7-7.8-32.3,1.7-32.1,1.8c0.3,0.3,15.6,10.8,32.6,13.7c16,2.6,33,10.7,33,10.8
		C81.9,40.3,67.2,21.5,48.2,13.6z"/>
	<path d="M69.3,10.2C59.9-1.4,47.9,0,48,0.1c0,0.3,6.3,12.4,16.3,20.2c9.4,7.2,17.6,18.5,17.5,18.5
		C81.7,39.2,78.8,21.9,69.3,10.2z"/>
	<path d="M132.3,32.6c23.7,2.5,32.5,19.9,32.2,19.9c-0.4,0.2-22.2,2.4-41.5-4.3c-18-6.3-40.2-7.5-40.2-7.4
		C82.4,41.2,108.2,30.1,132.3,32.6z"/>
	<path d="M124.2,51.9c17.7,9.8,18.8,26.3,18.6,26.2c-0.4,0-18.2-5.4-31-17c-12-10.9-29-19.2-29-19
		C82.4,42.1,106.2,41.9,124.2,51.9z"/>
	<path d="M116.3,13.6c18.7-7.8,32.3,1.7,32.1,1.8c-0.3,0.3-15.6,10.8-32.6,13.7c-16,2.6-33,10.7-33,10.8
		C82.6,40.3,97.3,21.5,116.3,13.6z"/>
	<path d="M95.2,10.2C104.6-1.4,116.7,0,116.5,0.1c0,0.3-6.3,12.4-16.3,20.2c-9.4,7.2-17.6,18.5-17.5,18.5
		C82.8,39.2,85.8,21.9,95.2,10.2z"/>
	<polygon points="69.5,147.3 69.1,147.2 68.8,146.8 71.1,118.9 71.4,118.5 71.8,118.4 72.1,118.5 92.4,125.2 
		92.8,125.6 94,140.3 93.6,140.8 69.8,147.3 	"/>
	<polygon points="73.8,94 73.5,93.9 73.1,93.5 75.1,69.3 75.4,69 75.8,68.9 76,68.9 87.8,71 88.4,71.5 89.5,85.9 
		89.3,86.3 74.3,93.9 	"/>
	<polygon points="91.6,120.6 91.3,120.5 71.9,114.1 71.5,113.7 72.6,99.8 72.9,99.4 88.9,91.3 89.3,91.2 89.6,91.2 
		90,91.7 92.3,120.1 92,120.5 	"/>
	<path d="M87.1,66.9l-11-2c-0.3-0.1-0.6-0.3-0.5-0.5L77,45.8c0-0.3,0.3-0.5,0.7-0.5h7.8c0.4,0,0.7,0.2,0.7,0.5L88,66.4
		l-0.3,0.4l-0.5,0.1L87.1,66.9z"/>
	<polygon points="67.6,170.3 67.1,170.2 66.9,169.8 68.3,152.1 68.8,151.7 93.4,145 93.7,144.9 94.1,145 94.4,145.4 
		96.4,169.8 96.2,170.2 95.7,170.3 	"/>
</g>
</svg>
