<?xml version="1.0" encoding="utf-8"?>
<!-- Generator: Adobe Illustrator 16.0.0, SVG Export Plug-In . SVG Version: 6.00 Build 0)  -->
<!DOCTYPE svg PUBLIC "-//W3C//DTD SVG 1.1//EN" "http://www.w3.org/Graphics/SVG/1.1/DTD/svg11.dtd">
<svg version="1.1" id="Layer_1" xmlns="http://www.w3.org/2000/svg" xmlns:xlink="http://www.w3.org/1999/xlink" x="0px" y="0px"
	 width="14px" height="14px" viewBox="0 0 14 14" enable-background="new 0 0 14 14" xml:space="preserve">
	<g>
		<path d="M6.6,0c0.3,0,0.5,0,0.8,0c0.3,0,0.5,0.1,0.8,0.1c1.9,0.3,3.4,1.3,4.5,2.8c0.7,0.9,1.1,2,1.3,3.1
			c0,0.2,0,0.4,0.1,0.6c0,0.3,0,0.5,0,0.8c0,0,0,0.1,0,0.1c-0.1,0.3-0.1,0.7-0.2,1c-0.4,1.6-1.2,2.9-2.4,3.9c-0.9,0.8-2,1.2-3.2,1.4
			c-0.3,0-0.5,0.1-0.8,0.1c-0.3,0-0.5,0-0.8,0c0,0-0.1,0-0.1,0c-0.3,0-0.6-0.1-0.9-0.1c-1.6-0.4-3-1.2-4-2.5
			C0.2,9.6-0.3,7.7,0.2,5.6c0.3-1.7,1.2-3,2.5-4.1c1-0.8,2.1-1.3,3.3-1.4C6.2,0,6.4,0,6.6,0z M5.8,3c0,0.7,0.1,1.5,0.1,2.2
			C6,6.2,6.1,7.3,6.1,8.4c0,0.4,0.4,0.8,0.9,0.8c0.4,0,0.8-0.3,0.9-0.8c0-0.7,0.1-1.3,0.1-2C8,5.8,8,5.2,8.1,4.7
			c0-0.6,0.1-1.2,0.1-1.9c0-0.7-0.7-1.2-1.4-1.1C6.3,1.8,5.8,2.3,5.8,3z M8.2,11.1C8.2,10.5,7.7,10,7,10c-0.7,0-1.2,0.5-1.2,1.2
			c0,0.6,0.5,1.2,1.2,1.2C7.7,12.3,8.2,11.8,8.2,11.1z"/>
	</g>
</svg>
