<?xml version="1.0" encoding="utf-8"?>
<!-- Generator: Adobe Illustrator 16.0.0, SVG Export Plug-In . SVG Version: 6.00 Build 0)  -->
<!DOCTYPE svg PUBLIC "-//W3C//DTD SVG 1.1//EN" "http://www.w3.org/Graphics/SVG/1.1/DTD/svg11.dtd">
<svg version="1.1" id="Camada_1" xmlns="http://www.w3.org/2000/svg" xmlns:xlink="http://www.w3.org/1999/xlink" x="0px" y="0px"
	 width="66.2px" height="50px" viewBox="1.9 0 66.2 50" enable-background="new 1.9 0 66.2 50" xml:space="preserve">
<g id="fEFg9m.tif">
	<g>
		<path d="M68.1,50C46,50,24,50,1.9,50c0-2.8,0-5.6,0-8.5c0.3,0,65.8,0,66.2-0.1C68.1,44.3,68.1,47.2,68.1,50z"/>
		<path d="M63.1,37.2c-18.8,0-37.5,0-56.3,0c0.1-8.8,3.4-16.1,10.1-21.8c9.3-7.8,22-8.5,31.4-3.1C58,17.7,62.7,26.1,63.1,37.2z
			 M31.2,13.3c-10.3,2.2-17.4,10.8-19.9,19.2c0.6,0.2,1.1,0.3,1.7,0.5c0.1,0,0.3-0.2,0.4-0.3c0.4-0.8,0.7-1.7,1-2.5
			c2-4.2,4.7-7.9,8.5-10.7c2.5-1.9,5.3-3.2,8.3-4c0.4-0.1,0.5-0.2,0.4-0.6C31.4,14.4,31.3,13.9,31.2,13.3z"/>
		<path d="M42.7,8.1C37.6,7,32.4,6.6,27.2,7.9c0.1-2.9,1.2-5.2,3.6-6.6c2.7-1.7,5.6-1.7,8.3,0C41.6,2.8,42.7,5.2,42.7,8.1z"/>
	</g>
</g>
</svg>
