<?xml version="1.0" encoding="utf-8"?>
<!-- Generator: Adobe Illustrator 16.0.0, SVG Export Plug-In . SVG Version: 6.00 Build 0)  -->
<!DOCTYPE svg PUBLIC "-//W3C//DTD SVG 1.1//EN" "http://www.w3.org/Graphics/SVG/1.1/DTD/svg11.dtd">
<svg version="1.1" id="Camada_1" xmlns="http://www.w3.org/2000/svg" xmlns:xlink="http://www.w3.org/1999/xlink" x="0px" y="0px"
	 width="54.6px" height="50px" viewBox="7.7 0 54.6 50" enable-background="new 7.7 0 54.6 50" xml:space="preserve">
<g id="Em6UDK.tif">
	<g>
		<path d="M20.4,50c1.9-5.2,8.8-24,10.3-27.9c2.9,0,5.5,0,8.5,0c1,2.6,10,27.1,10.2,27.9c-1.6,0-3.1,0-4.7,0
			c-1.5-2.9-6.3-3.7-9.8-3.7c-3.4,0-8.1,0.9-9.8,3.7C23.5,50,22,50,20.4,50z M35.2,24.6c-0.1,0-0.3,0-0.4,0
			c-1.1,3.9-2.1,7.7-3.2,11.6c2.4,0,4.5,0,6.9,0C37.3,32.3,36.2,28.5,35.2,24.6z M28.2,43.2c2.5,0,4.6,0,6.7,0c2.2,0,4.3,0,6.7,0
			C37.9,38.3,32.4,38.3,28.2,43.2z"/>
		<path d="M62.2,14.2c-0.4,3.6-1.9,6.9-4.4,9.7c-1.4,1.5-3.4,1.4-3.9-0.4c-0.2-0.7,0.2-1.8,0.6-2.5c4.4-6,4.5-11.1,0-17
			c-0.9-1.2-1.3-2.3-0.1-3.4c1.3-1.2,2.4-0.5,3.5,0.6c2.5,2.7,3.9,6,4.3,9.5C62.4,11.9,62.4,13,62.2,14.2z"/>
		<path d="M7.7,12.6C7.8,8.3,9.1,4.4,12,1.1c1-1.1,2.1-1.6,3.3-0.6c1.2,1,1,2.3,0,3.4c-4.3,4.5-4.6,12.3,0.1,17.2
			c1,1.1,1.1,2.3-0.2,3.3c-1.2,0.9-2.2,0.4-3.2-0.6C9.5,21.1,7.7,16.5,7.7,12.6z"/>
		<path d="M40.5,12.4c0,3-2.6,5.6-5.5,5.6c-2.9,0-5.4-2.6-5.4-5.5c0-2.9,2.7-5.6,5.6-5.6C37.9,7,40.4,9.5,40.5,12.4z"/>
		<path d="M51.7,12.4c0,1.6-0.7,5-2.5,6.8c-0.6,0.6-2.2,0.9-2.9,0.5c-1.3-0.6-1.3-2-0.4-3.1c2.2-2.8,2.3-5.5,0.1-8.3
			C45,7.3,45,6.1,46.2,5.2c1.2-0.9,2.3-0.5,3.1,0.6C51.1,8.2,51.7,10,51.7,12.4z"/>
		<path d="M22.5,4.8c0.8,0,1.5,0.4,1.6,0.9c0.2,0.7,0.3,1.8-0.1,2.3c-2.3,2.9-2.4,5.7,0,8.7c0.8,1,0.7,2.2-0.4,3
			c-1.1,0.8-2.1,0.5-3-0.4c-3.4-3.5-3.4-10.4,0.1-13.8C21.2,5.1,21.7,4.8,22.5,4.8z"/>
	</g>
</g>
</svg>
