<?xml version="1.0" encoding="utf-8"?>
<!-- Generator: Adobe Illustrator 16.0.4, SVG Export Plug-In . SVG Version: 6.00 Build 0)  -->
<!DOCTYPE svg PUBLIC "-//W3C//DTD SVG 1.0//EN" "http://www.w3.org/TR/2001/REC-SVG-20010904/DTD/svg10.dtd">
<svg version="1.0" id="Layer_1" xmlns="http://www.w3.org/2000/svg" xmlns:xlink="http://www.w3.org/1999/xlink" x="0px" y="0px"
	 width="41.161px" height="41.161px" viewBox="0 0 41.161 41.161" enable-background="new 0 0 41.161 41.161" xml:space="preserve">
<circle fill="#263C70" cx="20.581" cy="20.581" r="20.581"/>
<g id="hTwAJD.tif">
	<g>
		<path fill="#FFFFFF" d="M24.31,19.018c0.065,0,1.415-0.014,2.015,0.023c0.925,0.058,1.74,0.364,2.287,1.173
			c0.332,0.491,0.424,1.053,0.466,1.631c0.065,0.901-0.315,1.657-0.784,2.375c-0.696,1.066-1.605,1.895-2.798,2.373
			c-0.379,0.151-0.781,0.244-1.208,0.375c0,0.036,0,0.107,0,0.18c0,0.71,0.001,1.42,0,2.129c0,0.593-0.321,0.917-0.914,0.917
			c-2.928,0.001-9.203,0.005-9.412,0c-0.514-0.013-0.839-0.331-0.839-0.839c-0.002-3.97-0.002-7.938,0-11.908
			c0-0.477,0.269-0.763,0.744-0.821c0.06-0.007,6.388-0.011,9.492-0.01c0.624,0,0.929,0.312,0.93,0.937
			c0.001,0.467,0.001,0.933,0.003,1.4C24.292,18.964,24.298,18.978,24.31,19.018z M24.297,20.625c0,1.556,0,3.115,0,4.693
			c0.083-0.022,0.153-0.039,0.222-0.061c1.34-0.415,2.215-1.338,2.815-2.565c0.167-0.343,0.193-0.697,0.13-1.064
			c-0.107-0.621-0.339-0.903-0.961-0.961c-0.717-0.065-1.441-0.046-2.163-0.063C24.329,20.604,24.316,20.615,24.297,20.625z"/>
		<path fill="#FFFFFF" d="M18.153,15.787c-0.617,0-1.222,0-1.876,0c0.038-0.375,0.058-0.749,0.117-1.117
			c0.139-0.859,0.634-1.461,1.384-1.883c0.462-0.261,0.933-0.521,1.352-0.843c0.684-0.525,1.037-1.275,1.263-2.091
			c0.018-0.062,0.036-0.124,0.069-0.238c0.1,0.872,0.082,1.676-0.324,2.414c-0.16,0.291-0.391,0.546-0.613,0.798
			c-0.303,0.344-0.651,0.65-0.936,1.007c-0.353,0.444-0.449,0.983-0.438,1.543C18.155,15.51,18.153,15.643,18.153,15.787z"/>
		<path fill="#FFFFFF" d="M21.15,15.786c-0.541,0-1.084,0-1.637,0c0.003-0.651,0.15-1.235,0.641-1.689
			c0.12-0.11,0.23-0.23,0.353-0.335c0.503-0.424,0.759-0.967,0.791-1.621c0.002-0.047,0.011-0.094,0.018-0.141
			c0.003-0.013,0.009-0.024,0.029-0.075c0.25,0.624,0.46,1.216,0.158,1.856c-0.043,0.091-0.084,0.185-0.138,0.27
			c-0.323,0.509-0.384,1.053-0.215,1.627c0.005,0.02,0.011,0.039,0.011,0.059C21.161,15.75,21.156,15.764,21.15,15.786z"/>
	</g>
</g>
</svg>
