<?xml version="1.0" encoding="utf-8"?>
<!-- Generator: Adobe Illustrator 16.0.0, SVG Export Plug-In . SVG Version: 6.00 Build 0)  -->
<!DOCTYPE svg PUBLIC "-//W3C//DTD SVG 1.1//EN" "http://www.w3.org/Graphics/SVG/1.1/DTD/svg11.dtd">
<svg version="1.1" id="Camada_1" xmlns="http://www.w3.org/2000/svg" xmlns:xlink="http://www.w3.org/1999/xlink" x="0px" y="0px"
	 width="44px" height="50px" viewBox="13 0 44 50" enable-background="new 13 0 44 50" xml:space="preserve">
<path d="M52.9,3.6h-2.5V2c0-1.1-0.9-2-2-2c-1.1,0-2,0.9-2,2v1.5H23.7V2c0-1.1-0.9-2-2-2c-1.1,0-2,0.9-2,2v1.5h-2.5
	c-2.3,0-4.1,1.9-4.1,4.3v37.8c0,2.4,1.9,4.3,4.1,4.3h35.8c2.3,0,4-1.9,4-4.3V7.9C57,5.5,55.2,3.6,52.9,3.6z M46.4,8.1v1.5
	c0,1.1,0.9,2,2,2c1.1,0,2-0.9,2-2V8.1C51.4,8.7,52,9.8,52,11c0,2-1.6,3.6-3.5,3.6S44.9,13,44.9,11C44.9,9.8,45.6,8.7,46.4,8.1z
	 M19.7,8.1v1.5c0,1.1,0.9,2,2,2c1.1,0,2-0.9,2-2V8.1c0.9,0.6,1.6,1.7,1.6,2.9c0,2-1.6,3.6-3.5,3.6c-2,0-3.6-1.6-3.6-3.6
	C18.1,9.8,18.8,8.7,19.7,8.1z M53.4,46.2H16.6V16.4h36.8V46.2z"/>
</svg>
