<?xml version="1.0" encoding="utf-8"?>
<!-- Generator: Adobe Illustrator 16.0.0, SVG Export Plug-In . SVG Version: 6.00 Build 0)  -->
<!DOCTYPE svg PUBLIC "-//W3C//DTD SVG 1.0//EN" "http://www.w3.org/TR/2001/REC-SVG-20010904/DTD/svg10.dtd">
<svg version="1.0" id="Layer_1" xmlns="http://www.w3.org/2000/svg" xmlns:xlink="http://www.w3.org/1999/xlink" x="0px" y="0px"
	 width="100px" height="100px" viewBox="0 0 100 100" enable-background="new 0 0 100 100" xml:space="preserve">
<g>
	<path fill-rule="evenodd" clip-rule="evenodd" fill="#263C70" d="M38.719,93.502C24.262,76.47,13.386,57.369,5.745,36.404
		C-0.24,19.975,20.611,11.921,22.24,16.065l9.23,22.016c0.195,0.467-4.575,6.209-5.379,6.949
		c-1.559,1.434,13.281,27.168,15.327,26.525c1.041-0.328,8.38-1.576,8.695-1.182l14.452,19.004
		C67.365,92.89,49.999,106.792,38.719,93.502L38.719,93.502z"/>
</g>
<g>
	<path fill-rule="evenodd" clip-rule="evenodd" fill="#0087E5" d="M86.115,25.55v4.448c1.534-1.287,4.026-1.63,5.739-0.513
		c0.677,0.441,1.091,0.945,1.239,1.521s0.223,1.623,0.223,3.146v11.187h-5.49V33.924c0-0.947-0.056-1.552-0.158-1.823
		c-0.102-0.268-0.337-0.405-0.699-0.405c-0.334,0-0.562,0.142-0.679,0.417c-0.12,0.275-0.175,0.825-0.175,1.652v11.574h-5.494V25.55
		H86.115L86.115,25.55z M68.811,48.211V33.454l-3.846,14.757H68.811L68.811,48.211z M77.548,25.55v22.661h2.488v5.914h-2.488v6.106
		h-8.737v-6.106H58.434v-5.914l7.549-22.661H77.548L77.548,25.55z M57.223,54.316v5.915H37.996v-4.95
		c5.697-9.222,9.078-14.933,10.156-17.125c1.07-2.194,1.607-3.905,1.607-5.134c0-1.361-0.325-2.807-1.969-2.807
		c-1.983,0-1.964,2.404-1.964,3.837v3.299h-7.831v-1.265c0-4.28,0.409-8.409,4.887-10.369c1.269-0.556,2.789-0.833,4.561-0.833
		c3.476,0,6.104,0.855,7.882,2.56c1.786,1.71,2.671,3.867,2.671,6.478c0,1.989-0.5,4.088-1.498,6.303
		c-1.004,2.21-3.955,6.911-8.855,14.092H57.223L57.223,54.316z"/>
</g>
</svg>
