<?xml version="1.0" encoding="utf-8"?>
<!-- Generator: Adobe Illustrator 16.0.0, SVG Export Plug-In . SVG Version: 6.00 Build 0)  -->
<!DOCTYPE svg PUBLIC "-//W3C//DTD SVG 1.1//EN" "http://www.w3.org/Graphics/SVG/1.1/DTD/svg11.dtd">
<svg version="1.1" id="Camada_1" xmlns="http://www.w3.org/2000/svg" xmlns:xlink="http://www.w3.org/1999/xlink" x="0px" y="0px"
	 width="37.9px" height="50px" viewBox="16 0 37.9 50" enable-background="new 16 0 37.9 50" xml:space="preserve">
<g id="Z2P3RZ.tif">
	<g>
		<path d="M36.7,0c0,0.3,0,6.9,0,10.1c0,2.2,1.5,3.7,3.7,3.7c2.6,0,8.1,0,8.3,0c0,5.5,0,10.9,0,16.3c-5-1.7-9.5-0.9-12.9,3.1
			c-3.4,4-3.4,8.7-0.8,13.3c-0.2,0-10.6,0-15.5,0c-1.9,0-3.4-1.5-3.4-3.4c0-13.2,0-26.4,0-39.6c0-2,1.5-3.5,3.5-3.5
			C25,0,36.5,0,36.7,0z"/>
		<path d="M35,40.5c-0.1-5.2,4.3-9.7,9.8-9.5c5,0.1,9.3,4.4,9.2,9.8c-0.1,5-4.4,9.4-9.8,9.2C39.1,49.8,34.9,45.6,35,40.5z
			 M39.6,36.9c1.2,1.2,2.4,2.4,3.7,3.7c-1.2,1.2-2.4,2.4-3.5,3.5c0.4,0.4,0.7,0.8,1.1,1.3c1.2-1.2,2.4-2.4,3.6-3.7
			c1.2,1.2,2.4,2.4,3.5,3.6c0.4-0.4,0.8-0.8,1.3-1.3c-1.2-1.2-2.4-2.4-3.7-3.7c1.2-1.2,2.4-2.4,3.6-3.5c-0.4-0.4-0.7-0.8-1.2-1.3
			c-1.2,1.2-2.4,2.4-3.6,3.7c-1.2-1.2-2.4-2.4-3.5-3.6C40.5,36.1,40.1,36.5,39.6,36.9z"/>
		<path d="M38.5,0c3.5,4,6.9,8,10.3,12c-0.2,0-0.3,0.1-0.5,0.1c-2.7,0-5.5,0-8.2,0c-0.9,0-1.7-0.7-1.7-1.6c0-3.4,0-6.7,0-10.1
			C38.4,0.3,38.4,0.2,38.5,0z"/>
	</g>
</g>
</svg>
