<?xml version="1.0" encoding="utf-8"?>
<!-- Generator: Adobe Illustrator 16.0.0, SVG Export Plug-In . SVG Version: 6.00 Build 0)  -->
<!DOCTYPE svg PUBLIC "-//W3C//DTD SVG 1.1//EN" "http://www.w3.org/Graphics/SVG/1.1/DTD/svg11.dtd">
<svg version="1.1" id="Camada_1" xmlns="http://www.w3.org/2000/svg" xmlns:xlink="http://www.w3.org/1999/xlink" x="0px" y="0px"
	 width="70px" height="39.8px" viewBox="0 5.1 70 39.8" enable-background="new 0 5.1 70 39.8" xml:space="preserve">
<g id="_x39_wXq0U.tif">
	<g>
		<path d="M0,35.1c0-4.7,0-9.5,0-14.2c0.5-1.8,1.8-2.4,3.5-2.3c1.4,0.1,2.8,0,4.2,0c1.1,0,1.9-0.4,2.6-1.3c1.1-1.5,2.2-2.9,3.3-4.3
			c1.6-2.2,3.3-4.4,4.9-6.5c0.3-0.4,0.7-0.7,1.1-0.8c0.7-0.2,1.5-0.4,2.3-0.4c4,0,8.1,0,12.1,0c2,0,4.1,0,6.1,0c2,0,3.6,0.7,4.8,2.3
			c0.6,0.8,1.3,1.6,1.9,2.4c2,2.4,4,4.8,6,7.2c0.8,1,1.8,1.5,3.2,1.5c1.8,0.1,3.6,0.2,5.3,0.7c4.4,1.3,7.4,4.1,8.3,8.6
			c0.5,2.3,0.3,4.8,0.2,7.1c0,1.3-1.1,2.2-2.4,2.3c-1.8,0.1-3.6,0-5.5,0c-0.4-2.3-1.4-4.3-3.2-5.9c-1.8-1.6-3.9-2.4-6.3-2.3
			c-2,0-3.9,0.6-5.5,1.8c-2.2,1.6-3.4,3.7-3.9,6.4c-5.4,0-10.7,0-16,0c-1.7-5.5-4.7-8.1-9.3-8.2c-2-0.1-3.8,0.5-5.5,1.6
			c-2.4,1.6-3.7,3.8-4.2,6.6c-1.5,0-3-0.1-4.5,0C1.8,37.4,0.5,36.8,0,35.1z M29.6,10.4c-0.3,0-0.5,0-0.8,0c-1.9,0-3.9,0-5.8,0
			c-0.9,0-1.5,0.3-2,1c-1.7,2.2-3.3,4.4-5,6.6c-0.1,0.1-0.2,0.3-0.3,0.5c4.7,0,9.2,0,13.9,0C29.6,15.8,29.6,13.2,29.6,10.4z
			 M47.4,18.5c-0.2-0.3-0.4-0.5-0.5-0.6c-1.7-2.1-3.4-4.2-5.1-6.3c-0.5-0.6-1.1-1.1-1.8-1.1c-1.7-0.1-3.3,0-5,0c0,2.7,0,5.3,0,8
			C39.1,18.5,43.2,18.5,47.4,18.5z"/>
		<path d="M23.7,38.7c0,3.4-2.7,6.2-6.1,6.2s-6.2-2.7-6.2-6.1c0-3.4,2.8-6.2,6.2-6.2C20.9,32.5,23.7,35.3,23.7,38.7z"/>
		<path d="M58.7,38.7c0,3.4-2.7,6.2-6.1,6.2c-3.4,0-6.2-2.7-6.2-6.1c0-3.4,2.7-6.2,6.2-6.2C55.9,32.5,58.6,35.3,58.7,38.7z"/>
	</g>
</g>
</svg>
