<?xml version="1.0" encoding="utf-8"?>
<!-- Generator: Adobe Illustrator 16.0.0, SVG Export Plug-In . SVG Version: 6.00 Build 0)  -->
<!DOCTYPE svg PUBLIC "-//W3C//DTD SVG 1.1//EN" "http://www.w3.org/Graphics/SVG/1.1/DTD/svg11.dtd">
<svg version="1.1" id="Camada_1" xmlns="http://www.w3.org/2000/svg" xmlns:xlink="http://www.w3.org/1999/xlink" x="0px" y="0px"
	 width="65.3px" height="50px" viewBox="2.3 0 65.3 50" enable-background="new 2.3 0 65.3 50" xml:space="preserve">
<g id="zlg5jz.tif">
	<g>
		<path d="M2.3,33.4c0.3-0.7,0.8-0.9,1.5-0.9c2,0,4-0.1,5.9,0c2,0.1,3.7-0.6,5.3-1.7c2.1-1.5,4-3.3,5.8-5.1c2.8-2.9,5.5-5.9,8.3-8.7
			c2.6-2.7,5.4-5.3,8.6-7.3c2.9-1.8,6-2.8,9.5-2.7c1.6,0,3.2,0,4.9,0c0-0.3,0-0.5,0-0.7c0-1.6,0-3.3,0-4.9c0-0.5,0.1-1,0.7-1.3
			c0.5-0.3,1,0,1.4,0.3C58.5,4,62.8,7.6,67,11.2c0.9,0.7,0.9,1.4,0,2.1c-4.3,3.6-8.5,7.2-12.8,10.8c-0.4,0.4-0.9,0.5-1.4,0.3
			c-0.5-0.2-0.6-0.7-0.6-1.2c0-1.6,0-3.1,0-4.7c0-0.2,0-0.5,0-0.7c-1.3,0-2.5,0.1-3.6,0c-2.8-0.3-5.1,0.8-7.1,2.6
			c-2.3,2-4.4,4.1-6.6,6.3c-2.9,3-5.8,6.1-8.8,9c-2.3,2.3-4.8,4.2-7.7,5.7c-2.4,1.2-5,1.9-7.7,1.9c-2.3,0-4.6,0-6.8,0
			c-0.7,0-1.2-0.2-1.5-0.8C2.3,39.4,2.3,36.4,2.3,33.4z"/>
		<path d="M53.1,50c-0.7-0.3-0.9-0.8-0.9-1.5c0-1.7,0-3.4,0-5.2c-0.3,0-0.5,0-0.7,0c-1.4,0-2.8,0-4.1,0c-3.4,0.1-6.4-0.9-9.3-2.6
			c-2.2-1.3-4.1-2.9-6-4.6c-0.6-0.6-0.7-1.2-0.1-1.8c1.9-2,3.7-4,5.6-6c0.6-0.6,1.1-0.6,1.8,0c1.3,1,2.6,2.1,4,3.1
			c1.3,0.9,2.8,1.4,4.5,1.3c1.4-0.1,2.8,0,4.4,0c0-0.3,0-0.5,0-0.7c0-1.7,0-3.4,0-5c0-0.5,0.1-1,0.6-1.2c0.5-0.2,1-0.1,1.4,0.3
			c4.3,3.6,8.5,7.2,12.8,10.8c0.8,0.7,0.8,1.4,0,2.1c-4.3,3.6-8.5,7.2-12.8,10.8c-0.2,0.2-0.5,0.3-0.7,0.5C53.4,50,53.3,50,53.1,50z
			"/>
		<path d="M2.3,7.8C2.7,7.2,3.3,7,4,7c2,0,4,0.1,6,0c4.1-0.1,7.7,1.1,11,3.5c1.6,1.2,3.1,2.5,4.7,3.8c0.8,0.6,0.8,1.2,0.1,2
			c-1.8,1.9-3.6,3.9-5.5,5.8c-0.6,0.7-1.2,0.6-1.9,0.1c-1.5-1.2-3-2.4-4.6-3.5c-1-0.7-2.1-0.9-3.3-0.9c-2.2,0-4.3,0-6.5,0
			c-0.7,0-1.2-0.2-1.6-0.8C2.3,13.9,2.3,10.8,2.3,7.8z"/>
	</g>
</g>
</svg>
