<?xml version="1.0" encoding="utf-8"?>
<!-- Generator: Adobe Illustrator 16.0.0, SVG Export Plug-In . SVG Version: 6.00 Build 0)  -->
<!DOCTYPE svg PUBLIC "-//W3C//DTD SVG 1.1//EN" "http://www.w3.org/Graphics/SVG/1.1/DTD/svg11.dtd">
<svg version="1.1" id="Layer_1" xmlns="http://www.w3.org/2000/svg" xmlns:xlink="http://www.w3.org/1999/xlink" x="0px" y="0px"
	 width="85.3px" height="85.3px" viewBox="7.7 4.2 85.3 85.3" enable-background="new 7.7 4.2 85.3 85.3" xml:space="preserve">
<g>
	<g>
		<path d="M29,42.2c1.9-2.2,3.3-4.2,4.6-6.2c2.8-4.5,5.5-10.1,5.3-16.3c-0.2-8.6-6.7-14.3-14.4-15.5h-2.8
			c-8.1,1.4-12.9,6.3-14,14.8v1.6c0.9,9.6,5,15.9,9.9,21.7c1.3,1.6,3.6,5,5.7,5C25.3,47.2,27.6,44,29,42.2z M16.2,16.1
			c0.6-1.3,2.4-3.5,5.7-4c3.2-0.5,6.2,1.2,7.3,2.6c1.9,2.4,2.3,7.1,0,10C23.9,31.5,12,24.8,16.2,16.1z M93,49.6
			c-0.9-8.3-8.2-15-17.8-13.8c-7.3,0.9-12.7,7-13.3,14c-0.5,6.4,2,12.4,4.9,17.1c1.4,2.2,2.6,4.3,4.5,6.6c1.5,1.7,4.2,5,6.1,5
			c1.6,0,4-2.7,5.5-4.6c4.7-5.5,9.3-12.5,9.9-20.9C93,52.1,93,50.3,93,49.6z M70,54c-0.5-1.4-0.3-5.2,0.4-6.6
			c0.7-1.3,2.6-3.3,5.1-3.8c5.3-1.1,9.4,2.6,9.5,7.4C85.2,60.1,72.7,61.5,70,54z M28.6,46.6c-2,0.1-3.5,0.3-3.4,2.4
			c0,0.8,0.8,1.8,1.6,2c0.9,0.2,3.8-0.3,4.4-1c0.3-0.3,0.4-1,0.4-1.2C31.7,47.2,30.8,46.5,28.6,46.6z M36.4,50
			c1.9,1,7.8,2.4,8.3-0.2c0.6-3.2-4.2-3-6.7-3.2C36.1,46.5,35.9,49.3,36.4,50z M54.8,56.8c1.1-0.1,2-1.6,1.8-3
			c-0.3-1.6-4.8-4.2-5.9-4c-0.9,0.2-2,0.8-1.8,2.4c0.2,1.6,2.1,2.2,2.6,2.6C52.3,55.5,53.6,57,54.8,56.8z M57.7,61.6
			c-0.3-1.4-1.9-1.5-2.4-1.4c-1.4,0.2-2.1,1.4-3.2,2.2c-0.9,0.7-2.3,1.4-2.4,2.6c0,1,0.9,2.2,1.8,2.4c1.4,0.2,3-1.2,4-2
			C56.5,64.6,58.2,63.4,57.7,61.6z M42.5,71.2c1.9-0.8,3.2-0.7,3.4-2.2c0.6-4.1-4.7-2.1-6.9-1.4c-1.8,1.8-1.7,5.3,1,5.2
			C40.6,72.7,41.7,71.5,42.5,71.2z M37.8,77.5c-4.8-6-6.3,7.4-1.6,7.2c1.1,0,1.8-1,2-1.8C38.5,81.3,36.9,79.4,37.8,77.5z M71.8,80.7
			c-1.3,0.1-2.9,0.6-3.2,1c-1,1.3-0.4,3.5,1.2,3.8c1,0.2,3.9-0.7,4.4-1.4c0.3-0.3,0.4-1.2,0.4-1.6C74.4,80.8,73.4,80.6,71.8,80.7z
			 M56,83.5c-1.6,1-1.3,3.2,0.4,4.2c2.6-0.2,9.1-0.5,6.9-4.2C62.6,82.4,57.2,82.8,56,83.5z M43.5,84.9c-2.2-0.2-4.1-0.2-4.2,1.8
			c-0.1,2.2,2.4,2.4,4.9,2.8h2c1.6-0.8,1.9-1.6,1.8-2.6C47.8,85.1,45.7,85.1,43.5,84.9z"/>
	</g>
</g>
</svg>
