<?xml version="1.0" encoding="utf-8"?>
<!-- Generator: Adobe Illustrator 16.0.0, SVG Export Plug-In . SVG Version: 6.00 Build 0)  -->
<!DOCTYPE svg PUBLIC "-//W3C//DTD SVG 1.1//EN" "http://www.w3.org/Graphics/SVG/1.1/DTD/svg11.dtd">
<svg version="1.1" id="Layer_1" xmlns="http://www.w3.org/2000/svg" xmlns:xlink="http://www.w3.org/1999/xlink" x="0px" y="0px"
	 width="65.2px" height="52.3px" viewBox="0 0 65.2 52.3" enable-background="new 0 0 65.2 52.3" xml:space="preserve">
<g>
	<g>
		<path fill-rule="evenodd" clip-rule="evenodd" fill="#FBDA2A" d="M47.3,28.3c0.1-0.5,0.2-1.1,0.2-1.7c0-4.8-4-8.7-8.8-8.7
			c-2.4,0-4.7,1-6.3,2.6l-4.2-1.8c2.4-3.1,6.2-5.1,10.5-5.1c7.3,0,13.3,5.9,13.3,13.1c0,1.7-0.3,3.2-0.9,4.7"/>
		<path fill-rule="evenodd" clip-rule="evenodd" fill="#FBDA2A" d="M3.7,20.2L3.7,20.2"/>
		<path fill-rule="evenodd" clip-rule="evenodd" fill="#FBDA2A" d="M0,17.2L0,17.2"/>
		<path fill-rule="evenodd" clip-rule="evenodd" fill="#FBDA2A" d="M23,13.8l-3.1-3.1c-0.9-0.9-0.9-2.2,0-3.1c0.9-0.9,2.3-0.9,3.1,0
			l3.1,3.1c0.9,0.9,0.9,2.2,0,3.1S23.9,14.7,23,13.8z"/>
		<path fill-rule="evenodd" clip-rule="evenodd" fill="#FBDA2A" d="M38.7,8.7c-1.2,0-2.2-1-2.2-2.2V2.2c0-1.2,1-2.2,2.2-2.2
			c1.2,0,2.2,1,2.2,2.2v4.4C40.9,7.7,39.9,8.7,38.7,8.7z"/>
		<path fill-rule="evenodd" clip-rule="evenodd" fill="#FBDA2A" d="M54.3,13.8c-0.9,0.9-2.3,0.9-3.1,0s-0.9-2.2,0-3.1l3.1-3.1
			c0.9-0.9,2.3-0.9,3.1,0c0.9,0.9,0.9,2.2,0,3.1L54.3,13.8z"/>
		<path fill-rule="evenodd" clip-rule="evenodd" fill="#FBDA2A" d="M63,28.3h-4.4c-1.2,0-2.2-1-2.2-2.2s1-2.2,2.2-2.2H63
			c1.2,0,2.2,1,2.2,2.2S64.2,28.3,63,28.3z"/>
	</g>
	<path fill-rule="evenodd" clip-rule="evenodd" fill="#FFFFFF" d="M9.9,34.9c0,7.2,5.9,13.1,13.3,13.1c4,0,14.4,0,17.7,0
		c4.9,0,8.8-3.9,8.8-8.7s-4-8.7-8.8-8.7c-1.8,0-3.4,0.5-4.8,1.4c-1.4-5.8-6.6-10.1-12.9-10.1C15.8,21.8,9.9,27.7,9.9,34.9z
		 M47.3,27.8L47.3,27.8 M51,30.9L51,30.9c1.9,2.3,3.1,5.2,3.1,8.4c0,7.2-5.9,13.1-13.3,13.1c-3.1,0-14.2,0-17.7,0
		c-9.8,0-17.7-7.8-17.7-17.4s7.9-17.4,17.7-17.4c1.7,0,3.4,0.3,5,0.7c1.1,0.3,1.6,0.3,4.2,1.8c2.6,1.5,4.7,3.8,6.2,6.4
		c0.7-0.1,1.5-0.2,2.2-0.2c2.4,0,4.7,0.4,6.5,1.7C48.3,28.5,48.7,28.6,51,30.9z"/>
</g>
</svg>
