<?xml version="1.0" encoding="utf-8"?>
<!-- Generator: Adobe Illustrator 16.0.0, SVG Export Plug-In . SVG Version: 6.00 Build 0)  -->
<!DOCTYPE svg PUBLIC "-//W3C//DTD SVG 1.0//EN" "http://www.w3.org/TR/2001/REC-SVG-20010904/DTD/svg10.dtd">
<svg version="1.0" id="Layer_1" xmlns="http://www.w3.org/2000/svg" xmlns:xlink="http://www.w3.org/1999/xlink" x="0px" y="0px"
	 width="100px" height="100px" viewBox="0 0 100 100" enable-background="new 0 0 100 100" xml:space="preserve">
<path fill="#065092" d="M8.923,35.792v-4.091c0,3.771,8.557,6.827,19.112,6.827c10.557,0,19.114-3.056,19.114-6.827v4.091
	c0,3.77-8.558,6.826-19.114,6.826C17.479,42.618,8.923,39.562,8.923,35.792z M28.035,50.815c10.557,0,19.114-3.056,19.114-6.826
	v-4.091c0,3.771-8.558,6.826-19.114,6.826c-10.556,0-19.112-3.055-19.112-6.826v4.091C8.923,47.759,17.479,50.815,28.035,50.815z
	 M28.035,75.384v-4.091c-10.556,0-19.112-3.056-19.112-6.826v4.091C8.923,72.327,17.479,75.384,28.035,75.384z M28.035,59.001
	c10.557,0,19.114-3.057,19.114-6.827v-4.09c0,3.771-8.558,6.826-19.114,6.826c-10.556,0-19.112-3.056-19.112-6.826v4.09
	C8.923,55.944,17.479,59.001,28.035,59.001z M28.035,82.21v-2.72c-10.556,0-19.112-3.057-19.112-6.826v4.09
	c0,3.77,8.557,6.825,19.112,6.825C28.035,83.19,28.035,82.726,28.035,82.21z M28.035,67.196c0.022,0,0.04,0,0.06,0
	c0.165-1.607,1.019-2.987,2.39-4.149c-0.804,0.033-1.616,0.059-2.449,0.059c-10.554,0-19.112-3.055-19.112-6.825v4.091
	C8.923,64.142,17.481,67.196,28.035,67.196z M71.724,79.49c0,1.64,0,3.095,0,4.089c10.556,0,19.112-3.056,19.112-6.825v-4.09
	C90.836,76.434,82.279,79.49,71.724,79.49z M71.724,54.91c-10.557,0-19.113-3.056-19.113-6.826v4.09
	c0,3.771,8.557,6.827,19.113,6.827c10.556,0,19.112-3.057,19.112-6.827v-4.09C90.836,51.854,82.279,54.91,71.724,54.91z
	 M71.724,63.105c-0.833,0-1.646-0.025-2.448-0.059c1.367,1.162,2.223,2.542,2.389,4.149c0.02,0,0.037,0,0.06,0
	c10.556,0,19.112-3.055,19.112-6.825V56.28C90.836,60.051,82.279,63.105,71.724,63.105z M71.724,71.293c0,1.222,0,2.634,0,4.091
	c10.556,0,19.112-3.057,19.112-6.826v-4.091C90.836,68.237,82.279,71.293,71.724,71.293z M49.879,79.484
	c-10.556,0-19.112-3.056-19.112-6.827v4.091c0,3.77,8.557,6.826,19.112,6.826c10.557,0,19.113-3.057,19.113-6.826v-4.091
	C68.992,76.429,60.436,79.484,49.879,79.484z M49.879,87.681c-10.556,0-19.112-3.057-19.112-6.826v4.09
	c0,3.771,8.557,6.826,19.112,6.826c10.557,0,19.113-3.056,19.113-6.826v-4.09C68.992,84.624,60.436,87.681,49.879,87.681z
	 M28.035,20.78c-10.556,0-19.112,3.056-19.112,6.826c0,3.771,8.557,6.826,19.112,6.826c10.557,0,19.114-3.055,19.114-6.826
	C47.149,23.836,38.592,20.78,28.035,20.78z M37.046,29.107c-0.375,0.381-1.114,0.811-2.189,1.133l0.966,0.558
	c0.275,0.157,0.131,0.381-0.32,0.485l-1.512,0.371c-0.451,0.106-1.043,0.07-1.314-0.088l-0.992-0.568l-0.013-0.013
	c-2.544,0.499-5.641,0.224-7.387-0.405c-0.194-0.075-0.29-0.182-0.258-0.28c0.042-0.106,0.208-0.2,0.455-0.264l1.513-0.365
	c0.325-0.08,0.749-0.088,1.055-0.006c0.796,0.19,2.373,0.435,4.482-0.083c0.953-0.227,1.534-0.491,1.827-0.725
	c0.275-0.224,0.298-0.458-0.075-0.675c-0.709-0.411-1.986-0.288-3.386-0.106l-2.886,0.387c-2.122,0.248-5.449,0.527-7.183-0.475
	c-1.249-0.723-1.371-1.272-0.773-1.888c0.373-0.376,1.12-0.805,2.199-1.128l-0.967-0.557c-0.272-0.157-0.128-0.381,0.318-0.485
	l1.515-0.371c0.443-0.106,1.044-0.069,1.312,0.088l1.008,0.582c2.539-0.499,5.643-0.224,7.382,0.411
	c0.196,0.069,0.296,0.17,0.258,0.28c-0.04,0.101-0.208,0.2-0.456,0.259l-1.509,0.365c-0.323,0.08-0.747,0.088-1.06,0.005
	c-0.789-0.195-2.373-0.435-4.484,0.083c-0.951,0.227-1.538,0.491-1.827,0.725c-0.267,0.224-0.298,0.459,0.075,0.675
	c0.695,0.4,1.987,0.288,3.387,0.106l2.888-0.387c2.115-0.253,5.509-0.493,7.184,0.475C37.393,27.865,37.646,28.504,37.046,29.107z
	 M71.724,37.162c-10.557,0-19.113,3.057-19.113,6.827c0,3.77,8.557,6.826,19.113,6.826c10.556,0,19.112-3.056,19.112-6.826
	C90.836,40.219,82.279,37.162,71.724,37.162z M80.732,45.49c-0.375,0.381-1.114,0.811-2.188,1.134l0.965,0.557
	c0.274,0.157,0.132,0.381-0.32,0.485l-1.511,0.371c-0.451,0.106-1.044,0.07-1.314-0.088l-0.992-0.568l-0.014-0.013
	c-2.544,0.499-5.64,0.224-7.386-0.405c-0.194-0.075-0.292-0.181-0.259-0.28c0.042-0.107,0.207-0.2,0.455-0.265l1.513-0.364
	c0.325-0.08,0.749-0.088,1.056-0.005c0.795,0.189,2.372,0.434,4.482-0.083c0.952-0.227,1.533-0.491,1.826-0.726
	c0.275-0.225,0.3-0.46-0.075-0.674c-0.709-0.411-1.986-0.289-3.386-0.107l-2.885,0.386c-2.123,0.248-5.451,0.528-7.184-0.476
	c-1.247-0.722-1.37-1.271-0.773-1.888c0.373-0.375,1.119-0.805,2.2-1.127l-0.969-0.557c-0.271-0.157-0.128-0.382,0.32-0.485
	l1.515-0.371c0.443-0.107,1.043-0.07,1.312,0.088l1.007,0.581c2.539-0.499,5.644-0.224,7.382,0.411
	c0.197,0.07,0.295,0.172,0.258,0.28c-0.04,0.101-0.208,0.2-0.456,0.258l-1.509,0.365c-0.322,0.08-0.747,0.089-1.059,0.005
	c-0.79-0.195-2.373-0.435-4.485,0.084c-0.952,0.226-1.538,0.489-1.826,0.724c-0.266,0.224-0.298,0.458,0.075,0.675
	c0.695,0.399,1.986,0.287,3.386,0.106l2.888-0.387c2.115-0.253,5.51-0.493,7.184,0.475C81.079,44.248,81.333,44.887,80.732,45.49z
	 M49.879,61.737c-10.556,0-19.112,3.055-19.112,6.825c0,3.771,8.557,6.826,19.112,6.826c10.557,0,19.113-3.055,19.113-6.826
	C68.992,64.792,60.436,61.737,49.879,61.737z M58.889,70.063c-0.376,0.382-1.114,0.811-2.188,1.134l0.966,0.557
	c0.273,0.157,0.131,0.381-0.32,0.485l-1.512,0.371c-0.451,0.105-1.043,0.069-1.314-0.088l-0.992-0.568l-0.013-0.013
	c-2.544,0.498-5.641,0.223-7.387-0.406c-0.194-0.074-0.29-0.181-0.26-0.28c0.043-0.106,0.208-0.2,0.456-0.265l1.513-0.364
	c0.325-0.08,0.75-0.087,1.056-0.005c0.795,0.188,2.374,0.434,4.482-0.082c0.951-0.228,1.534-0.491,1.827-0.727
	c0.273-0.225,0.298-0.458-0.075-0.674c-0.709-0.41-1.987-0.289-3.387-0.107l-2.885,0.387c-2.123,0.248-5.449,0.528-7.184-0.475
	c-1.247-0.723-1.37-1.271-0.773-1.888c0.374-0.376,1.121-0.805,2.2-1.127l-0.969-0.558c-0.271-0.158-0.128-0.383,0.32-0.486
	l1.515-0.37c0.443-0.107,1.043-0.068,1.312,0.088l1.008,0.582c2.538-0.499,5.643-0.225,7.381,0.411
	c0.197,0.068,0.295,0.17,0.259,0.278c-0.041,0.102-0.209,0.2-0.457,0.259l-1.508,0.366c-0.323,0.08-0.747,0.088-1.06,0.006
	c-0.789-0.196-2.373-0.436-4.484,0.082c-0.951,0.227-1.539,0.491-1.827,0.725c-0.266,0.224-0.298,0.459,0.075,0.676
	c0.695,0.4,1.985,0.286,3.386,0.105l2.889-0.388c2.113-0.253,5.509-0.493,7.184,0.476C59.236,68.821,59.489,69.462,58.889,70.063z"
	/>
</svg>
