<?xml version="1.0" encoding="utf-8"?>
<!-- Generator: Adobe Illustrator 18.1.1, SVG Export Plug-In . SVG Version: 6.00 Build 0)  -->
<!DOCTYPE svg PUBLIC "-//W3C//DTD SVG 1.0//EN" "http://www.w3.org/TR/2001/REC-SVG-20010904/DTD/svg10.dtd">
<svg version="1.0" id="Camada_1" xmlns="http://www.w3.org/2000/svg" xmlns:xlink="http://www.w3.org/1999/xlink" x="0px" y="0px"
	 viewBox="0 0 433.528 511.522" enable-background="new 0 0 433.528 511.522" xml:space="preserve">
<g id="G2TjLk.tif">
	<g>
		<path d="M243.814,511.522c-2.333,0-4.667,0-7,0c-1.797-0.286-3.585-0.705-5.394-0.839c-16.338-1.207-31.75-5.581-45.711-14.203
			c-18.254-11.273-28.239-26.927-28.119-49.345c0.43-80.329,0.099-160.662,0.249-240.993c0.029-15.567,5.266-29.704,16.528-40.494
			c9.071-8.691,19.18-16.445,29.491-23.669c32.827-22.994,65.907-45.629,99.007-68.229c13.486-9.208,29.381-3.148,31.401,12.659
			c1.444,11.299,1.021,22.987,0.09,34.391c-0.783,9.59-8.911,15.613-18.629,16.01c-8.647,0.353-14.354-4.07-18.488-11.303
			c-0.751,0.42-1.344,0.691-1.873,1.056c-27.647,19.084-55.359,38.074-82.857,57.371c-4.416,3.099-8.523,7.107-11.64,11.498
			c-8.311,11.707-3.066,26.988,9.92,29.704c3.525,0.737,7.293,0.768,10.91,0.528c17.744-1.178,33.822-7.729,47.906-17.967
			c34.852-25.334,69.146-51.436,103.656-77.24c10.385-7.765,20.333-16.21,31.228-23.174c11.553-7.384,26.815,0.723,28.456,14.256
			c0.28,2.308,0.519,4.639,0.519,6.959c0.026,82.331-0.005,164.662,0.064,246.994c0.007,8.44-1.993,15.628-9.113,20.993
			c-41.199,31.041-82.312,62.195-123.478,93.28c-13.546,10.229-28.065,18.357-45.314,20.382
			C251.687,510.61,247.75,511.064,243.814,511.522z M295.749,327.518c4.916-3.803,8.845-6.837,12.768-9.877
			c27.326-21.175,54.634-42.373,82.007-63.488c2.458-1.896,3.547-3.9,3.461-7.104c-0.238-8.815-0.084-17.64-0.085-26.462
			c0-2.525,0-5.049,0-7.973c-1.183,0.594-1.507,0.696-1.759,0.891c-31.536,24.422-63.074,48.841-94.559,73.329
			c-0.904,0.703-1.743,2.138-1.754,3.24C295.703,302.186,295.749,314.3,295.749,327.518z"/>
		<path d="M138.903,55.035c-8.744,5.605-17.364,11.204-26.057,16.689c-19.963,12.596-39.99,25.093-59.935,37.719
			c-10.833,6.858-15.615,19.345-12.127,31.069c1.751,5.886,4.967,8.499,11.066,9.013c11.352,0.957,22.025-2.169,31.547-7.583
			c19.193-10.912,38.081-22.416,56.617-34.415c34.612-22.406,68.874-45.352,103.299-68.048c11.561-7.622,24.126-4.934,30.335,6.408
			c4.244,7.752,2.978,19.336-4.061,24.689c-11.223,8.534-23.104,16.21-34.796,24.118c-21.207,14.343-42.478,28.591-63.724,42.876
			c-16.803,11.298-26.717,27.216-30.008,46.934c-1.88,11.265-3.012,22.788-3.067,34.202c-0.292,60.996-0.138,121.993-0.138,182.99
			c0,16.206-4.162,22.409-20.052,26.205c-30.678,7.329-60.799,5.549-89.385-8.671c-13.609-6.77-23.767-17.13-27.092-32.642
			c-0.932-4.347-1.133-8.919-1.137-13.388c-0.066-75.996,0.091-151.993-0.186-227.988c-0.045-12.428,0.426-24.553,4.777-36.285
			c4.705-12.689,12.306-23.262,23.763-30.593c38.786-24.818,77.648-49.518,116.559-74.141c11.97-7.575,24.426-4.654,30.076,6.875
			c1.207,2.462,1.963,5.389,2.026,8.123c0.226,9.818,0.285,19.652-0.008,29.468c-0.296,9.931-7.491,16.484-15.469,18.443
			c-6.678,1.64-16.842-1.486-21.012-9.854C140.362,56.541,139.698,55.989,138.903,55.035z"/>
	</g>
</g>
</svg>
