<?xml version="1.0" encoding="utf-8"?>
<!-- Generator: Adobe Illustrator 16.0.0, SVG Export Plug-In . SVG Version: 6.00 Build 0)  -->
<!DOCTYPE svg PUBLIC "-//W3C//DTD SVG 1.1//EN" "http://www.w3.org/Graphics/SVG/1.1/DTD/svg11.dtd">
<svg version="1.1" id="Layer_1" xmlns="http://www.w3.org/2000/svg" xmlns:xlink="http://www.w3.org/1999/xlink" x="0px" y="0px"
	 width="95.7px" height="66.6px" viewBox="2 19.9 95.7 66.6" enable-background="new 2 19.9 95.7 66.6" xml:space="preserve">
<g>
	<path d="M96.7,35.5c0,0-36.5-11.8-40.9-14.4c-4.5-2.6-9.1,0-9.1,0L5.4,35.5c-2.3,0.8-1.1,3-1.1,3l10,3.4
		c1.1,0.7,0.2,1.8,0.2,1.8c-0.9,1.1-2.3,4.8-2.3,4.8c-0.3,1.1-0.6,4.2-0.8,7.2c-1.9,0.7-3.3,2.5-3.3,4.6c0,2,1.2,3.7,2.9,4.5
		C10.9,75.6,2,82.7,2,82.7l7.1,3.8l3.6-2.2c5.5-6.1,2.7-17.7,2.7-17.7l-0.1-1.8c1.6-0.8,2.6-2.5,2.6-4.3c0-1.8-1-3.4-2.5-4.3
		C15.2,45.6,21.1,43,21.1,43l27.5-11.3c0,0,2.7-2,4.5,0.7c1.8,2.7-1.5,3.6-1.5,3.6l-25.3,9.6c0,0,21.1,6.8,22.9,7.6
		c1.8,0.8,4.8,0,4.8,0s40.4-13.5,42.7-14.6C99,37.6,96.7,35.5,96.7,35.5z"/>
	<path d="M46.9,58.5c-5.4-2.1-24.5-8.9-24.5-8.9s-2.7,3.9,0,5.9c0,0,4.6,5.2,0,11.3c0,0,7.1,8,30.4,8
		c23.2,0,28.8-10.4,28.8-10.4V49.6L56,58.4C56,58.4,52.2,60.7,46.9,58.5z"/>
</g>
</svg>
