<?xml version="1.0" encoding="utf-8"?>
<!-- Generator: Adobe Illustrator 16.0.0, SVG Export Plug-In . SVG Version: 6.00 Build 0)  -->
<!DOCTYPE svg PUBLIC "-//W3C//DTD SVG 1.1//EN" "http://www.w3.org/Graphics/SVG/1.1/DTD/svg11.dtd">
<svg version="1.1" id="Camada_1" xmlns="http://www.w3.org/2000/svg" xmlns:xlink="http://www.w3.org/1999/xlink" x="0px" y="0px"
	 width="296px" height="183px" viewBox="0 0 296 183" enable-background="new 0 0 296 183" xml:space="preserve">
<g>
	<path fill="#D7DEED" d="M-0.1,183V0H296v183H-0.1z"/>
	<path display="none" fill="#B6BED0" d="M290.5,183H5.5c-3,0-5.5-2.5-5.5-5.5V5.5C0,2.5,2.5,0,5.5,0h285c3,0,5.5,2.5,5.5,5.5v172
		C296,180.5,293.5,183,290.5,183z M5.5,1C3,1,1,3,1,5.5v172c0,2.5,2,4.5,4.5,4.5h285c2.5,0,4.5-2,4.5-4.5V5.5c0-2.5-2-4.5-4.5-4.5
		H5.5z"/>
</g>
<path display="none" fill="none" d="M165,104c0,1.7-1.3,3-3,3H19c-1.7,0-3-1.3-3-3V78c0-1.7,1.3-3,3-3h143c1.7,0,3,1.3,3,3V104z"/>
<path fill="#FFFFFF" d="M165,104c0,1.7-1.3,3-3,3H19c-1.7,0-3-1.3-3-3V78c0-1.7,1.3-3,3-3h143c1.7,0,3,1.3,3,3V104z"/>
<g>
	<defs>
		<path id="SVGID_1_" d="M165,104c0,1.7-1.3,3-3,3H19c-1.7,0-3-1.3-3-3V78c0-1.7,1.3-3,3-3h143c1.7,0,3,1.3,3,3V104z"/>
	</defs>
	<clipPath id="SVGID_2_">
		<use xlink:href="#SVGID_1_"  overflow="visible"/>
	</clipPath>
	<g clip-path="url(#SVGID_2_)">
		
			<rect x="14.9" y="77.3" transform="matrix(-0.707 0.7072 -0.7072 -0.707 86.2181 119.544)" fill="#CCCCCC" width="6.9" height="0.6"/>
		
			<rect x="13.9" y="80.2" transform="matrix(-0.7071 0.7071 -0.7071 -0.7071 93.6562 122.3158)" fill="#CCCCCC" width="15.2" height="0.6"/>
		
			<rect x="12.9" y="83.2" transform="matrix(-0.7071 0.7071 -0.7071 -0.7071 101.0803 125.1372)" fill="#CCCCCC" width="23.5" height="0.6"/>
		
			<rect x="11.2" y="86.4" transform="matrix(-0.7071 0.7071 -0.7071 -0.7071 108.258 128.5433)" fill="#CCCCCC" width="32.5" height="0.6"/>
		
			<rect x="10.1" y="89.4" transform="matrix(-0.7071 0.7071 -0.7071 -0.7071 115.6548 131.4247)" fill="#CCCCCC" width="40.9" height="0.6"/>
		
			<rect x="13" y="90.7" transform="matrix(-0.7071 0.7071 -0.7071 -0.7071 124.7106 130.3006)" fill="#CCCCCC" width="44.6" height="0.6"/>
		
			<rect x="19.1" y="90.7" transform="matrix(-0.7071 0.7071 -0.7071 -0.7071 135.0794 126.0068)" fill="#CCCCCC" width="44.6" height="0.6"/>
		
			<rect x="25.2" y="90.7" transform="matrix(-0.7071 0.7071 -0.7071 -0.7071 145.4488 121.7116)" fill="#CCCCCC" width="44.6" height="0.6"/>
		
			<rect x="31.3" y="90.7" transform="matrix(-0.7071 0.7071 -0.7071 -0.7071 155.8182 117.4153)" fill="#CCCCCC" width="44.6" height="0.6"/>
		
			<rect x="37.3" y="90.7" transform="matrix(-0.7071 0.7071 -0.7071 -0.7071 166.1868 113.1222)" fill="#CCCCCC" width="44.6" height="0.6"/>
		
			<rect x="43.4" y="90.7" transform="matrix(-0.7071 0.7071 -0.7071 -0.7071 176.5567 108.8283)" fill="#CCCCCC" width="44.6" height="0.6"/>
		
			<rect x="49.5" y="90.7" transform="matrix(-0.7071 0.7071 -0.7071 -0.7071 186.9249 104.5317)" fill="#CCCCCC" width="44.6" height="0.6"/>
		
			<rect x="55.6" y="90.7" transform="matrix(-0.7071 0.7071 -0.7071 -0.7071 197.2939 100.2358)" fill="#CCCCCC" width="44.6" height="0.6"/>
		
			<rect x="61.6" y="90.7" transform="matrix(-0.7071 0.7071 -0.7071 -0.7071 207.6632 95.9407)" fill="#CCCCCC" width="44.6" height="0.6"/>
		
			<rect x="67.7" y="90.7" transform="matrix(-0.7071 0.7071 -0.7071 -0.7071 218.0336 91.646)" fill="#CCCCCC" width="44.6" height="0.6"/>
		
			<rect x="73.8" y="90.7" transform="matrix(-0.7071 0.7071 -0.7071 -0.7071 228.4016 87.354)" fill="#CCCCCC" width="44.6" height="0.6"/>
		
			<rect x="79.9" y="90.7" transform="matrix(-0.7071 0.7071 -0.7071 -0.7071 238.771 83.0583)" fill="#CCCCCC" width="44.6" height="0.6"/>
		
			<rect x="85.9" y="90.7" transform="matrix(-0.7071 0.7071 -0.7071 -0.7071 249.1379 78.7611)" fill="#CCCCCC" width="44.6" height="0.6"/>
	</g>
	<g clip-path="url(#SVGID_2_)">
		
			<rect x="91.7" y="90.7" transform="matrix(-0.7071 0.7071 -0.7071 -0.7071 258.9401 74.6991)" fill="#CCCCCC" width="44.6" height="0.6"/>
		
			<rect x="97.8" y="90.7" transform="matrix(-0.7071 0.7071 -0.7071 -0.7071 269.3085 70.4065)" fill="#CCCCCC" width="44.6" height="0.6"/>
		
			<rect x="103.8" y="90.7" transform="matrix(-0.7071 0.7071 -0.7071 -0.7071 279.678 66.1103)" fill="#CCCCCC" width="44.6" height="0.6"/>
		
			<rect x="109.9" y="90.7" transform="matrix(-0.7071 0.7071 -0.7071 -0.7071 290.0477 61.8162)" fill="#CCCCCC" width="44.6" height="0.6"/>
		
			<rect x="116" y="90.7" transform="matrix(-0.7071 0.7071 -0.7071 -0.7071 300.4156 57.5191)" fill="#CCCCCC" width="44.6" height="0.6"/>
		
			<rect x="122" y="90.7" transform="matrix(-0.7071 0.7071 -0.7071 -0.7071 310.7843 53.2256)" fill="#CCCCCC" width="44.6" height="0.6"/>
		
			<rect x="128.1" y="90.7" transform="matrix(-0.7071 0.7071 -0.7071 -0.7071 321.1534 48.931)" fill="#CCCCCC" width="44.6" height="0.6"/>
		
			<rect x="135.7" y="94.3" transform="matrix(-0.7071 0.7071 -0.7071 -0.7071 327.8711 53.4502)" fill="#CCCCCC" width="34.3" height="0.6"/>
		
			<rect x="143" y="97.3" transform="matrix(-0.7071 0.7071 -0.7071 -0.7071 335.2955 56.2628)" fill="#CCCCCC" width="26" height="0.6"/>
		
			<rect x="150.4" y="100.4" transform="matrix(-0.7071 0.7071 -0.7071 -0.7071 342.5134 59.5814)" fill="#CCCCCC" width="17.1" height="0.6"/>
		
			<rect x="157.7" y="103.4" transform="matrix(-0.707 0.7072 -0.7072 -0.707 349.8724 62.5323)" fill="#CCCCCC" width="8.6" height="0.6"/>
	</g>
</g>
<rect y="13" fill="#666666" width="296" height="41"/>
</svg>
