<?xml version="1.0" encoding="utf-8"?>
<!-- Generator: Adobe Illustrator 16.0.0, SVG Export Plug-In . SVG Version: 6.00 Build 0)  -->
<!DOCTYPE svg PUBLIC "-//W3C//DTD SVG 1.1//EN" "http://www.w3.org/Graphics/SVG/1.1/DTD/svg11.dtd">
<svg version="1.1" id="Layer_1" xmlns="http://www.w3.org/2000/svg" xmlns:xlink="http://www.w3.org/1999/xlink" x="0px" y="0px"
	 width="86.9px" height="72.8px" viewBox="6.6 13.7 86.9 72.8" enable-background="new 6.6 13.7 86.9 72.8" xml:space="preserve">
<path d="M37.6,18.5c0,2.1,0,3.9,0,5.7c0,2.4,1.6,3.9,4,4c2.4,0,4-1.4,4.2-3.8c0.1-1.5-0.1-3,0.1-4.5c0-0.5,0.6-1.3,1-1.3
	c2.5-0.1,4.9-0.1,7.7-0.1c0,1.8,0,3.5,0,5.1c0,2.9,1.5,4.6,4.2,4.6c2.6,0,4-1.6,4-4.5c0-1.6,0-3.2,0-5.1c2.8,0,5.5,0,8.2,0.1
	c0.3,0,0.7,0.8,0.7,1.2c0.1,1.5,0,3,0.1,4.5c0.1,2.5,1.7,4,4.2,3.9c2.4,0,3.9-1.5,3.9-4c0-1.5-0.1-3,0.1-4.5c0-0.4,0.6-1.1,1-1.1
	c2.5-0.1,5-0.2,7.4,0c3.5,0.3,5.1,2.4,5.1,6.1c0,5.5,0,10.9,0,16.4c0,8.4-0.1,16.7,0,25.1c0,3.1-1,5.4-3.7,7.2
	c-5.1,3.6-10.1,7.3-15.1,11.1c-1.7,1.3-3.6,1.9-5.7,1.9c-18.3,0-36.6,0-54.8,0c-4.9,0-7.6-2.7-7.6-7.6c0-17.9,0-35.8,0-53.7
	c0-4.1,2.1-6.3,6.2-6.5c2.1-0.1,4.2,0,6.3,0c1,0,1.4,0.4,1.4,1.4c-0.1,1.4,0,2.9,0,4.3c0,2.4,1.6,4,3.9,4c2.5,0,4.1-1.5,4.2-4
	c0-1.5-0.1-3,0.1-4.5c0-0.4,0.6-1.2,1-1.2C32.2,18.5,34.8,18.5,37.6,18.5z M69.4,82c0-2.8,0-5.3,0-7.9c0-4.8,2.5-7.3,7.3-7.3
	c2.7,0,5.5,0,8.2,0c1.3,0,2.7,0,4,0c0-10.7,0-21,0-31.5c-26.1,0-52,0-78.1,0c0,0.8,0,1.4,0,2c0,13.8,0,27.6,0,41.5
	c0,2.7,0.6,3.2,3.3,3.2c17.7,0,35.4,0,53.2,0C67.9,82,68.5,82,69.4,82z M85.2,71.6c-0.1-0.1-0.1-0.3-0.2-0.4c-3.1,0-6.2-0.1-9.3,0.1
	c-0.7,0-1.8,0.9-1.9,1.5c-0.2,2.2-0.1,4.4-0.1,7C77.8,76.8,81.5,74.2,85.2,71.6z"/>
<path d="M73.8,46.9c0-2.3,0-4.5,0-6.8c3.8,0,7.5,0,11.3,0c0,2.3,0,4.5,0,6.8C81.4,46.9,77.7,46.9,73.8,46.9z"/>
<path d="M45.7,46.9c-3.7,0-7.3,0-11.1,0c0-2.2,0-4.5,0-6.9c3.7,0,7.3,0,11.1,0C45.7,42.3,45.7,44.5,45.7,46.9z"/>
<path d="M26.1,46.9c-3.8,0-7.5,0-11.3,0c0-2.3,0-4.5,0-6.8c3.8,0,7.4,0,11.3,0C26.1,42.3,26.1,44.5,26.1,46.9z"/>
<path d="M14.9,55.4c3.8,0,7.5,0,11.3,0c0,2.3,0,4.5,0,6.8c-3.8,0-7.5,0-11.3,0C14.9,59.9,14.9,57.7,14.9,55.4z"/>
<path d="M45.8,55.4c0,2.3,0,4.4,0,6.7c-3.8,0-7.5,0-11.3,0c0-2.2,0-4.4,0-6.7C38.2,55.4,41.9,55.4,45.8,55.4z"/>
<path d="M65.5,55.4c0,2.3,0,4.4,0,6.7c-3.8,0-7.5,0-11.3,0c0-2.2,0-4.4,0-6.7C57.9,55.4,61.6,55.4,65.5,55.4z"/>
<path d="M73.8,62.1c0-2.2,0-4.3,0-6.6c3.7,0,7.5,0,11.3,0c0,2.2,0,4.3,0,6.6C81.5,62.1,77.8,62.1,73.8,62.1z"/>
<path d="M14.8,76.8c0-2.2,0-4.4,0-6.6c3.7,0,7.4,0,11.2,0c0,2.1,0,4.3,0,6.6C22.4,76.8,18.7,76.8,14.8,76.8z"/>
<path d="M54.1,76.8c0-2.2,0-4.3,0-6.6c3.8,0,7.4,0,11.3,0c0,2.2,0,4.3,0,6.6C61.7,76.8,58,76.8,54.1,76.8z"/>
<g>
	<path d="M26.1,40.1c-3.8,0-7.5,0-11.3,0c0,2.3,0,4.5,0,6.8c3.8,0,7.5,0,11.3,0C26.1,44.5,26.1,42.3,26.1,40.1z"/>
	<path d="M14.8,76.8c3.8,0,7.5,0,11.2,0c0-2.3,0-4.5,0-6.6c-3.8,0-7.5,0-11.2,0C14.8,72.5,14.8,74.6,14.8,76.8z"/>
	<path d="M45.7,40c-3.8,0-7.4,0-11.1,0c0,2.4,0,4.6,0,6.9c3.8,0,7.4,0,11.1,0C45.7,44.5,45.7,42.3,45.7,40z"/>
	<path d="M45.8,55.4c-3.9,0-7.5,0-11.3,0c0,2.3,0,4.5,0,6.7c3.8,0,7.6,0,11.3,0C45.8,59.8,45.8,57.7,45.8,55.4z"/>
	<path d="M14.9,62.2c3.8,0,7.5,0,11.3,0c0-2.3,0-4.5,0-6.8c-3.9,0-7.6,0-11.3,0C14.9,57.8,14.9,59.9,14.9,62.2z"/>
	<path d="M73.8,40.1c0,2.3,0,4.5,0,6.8c3.9,0,7.6,0,11.3,0c0-2.3,0-4.5,0-6.8C81.3,40.1,77.6,40.1,73.8,40.1z"/>
	<path d="M54.2,62.1c3.9,0,7.6,0,11.3,0c0-2.3,0-4.4,0-6.7c-3.9,0-7.5,0-11.3,0C54.2,57.7,54.2,59.9,54.2,62.1z"/>
	<path d="M73.8,62.1c4,0,7.6,0,11.3,0c0-2.3,0-4.5,0-6.6c-3.8,0-7.6,0-11.3,0C73.8,57.7,73.8,59.9,73.8,62.1z"/>
	<path d="M54.1,76.8c3.8,0,7.6,0,11.3,0c0-2.3,0-4.5,0-6.6c-3.8,0-7.5,0-11.3,0C54.1,72.5,54.1,74.6,54.1,76.8z"/>
	<path d="M40.4,66.4c-3.8-0.1-7,3.1-7.1,6.9c-0.1,3.7,3,6.9,6.8,6.9c3.7,0,6.9-3,7-6.8C47.2,69.7,44.1,66.5,40.4,66.4z M45,71.8
		l-4.9,5.3c-0.1,0.3-0.2,0.3-0.4,0.3c-0.1,0-0.3,0-0.4-0.1l-3.6-2.6c-0.3-0.2-0.4-0.6-0.2-0.9c0.2-0.3,0.6-0.3,0.9-0.2l3.2,2.2
		l4.5-4.9c0.2-0.3,0.6-0.3,0.9,0C45.3,71.1,45.3,71.5,45,71.8z"/>
</g>
<path d="M59.9,36.8c-3.6,0-6.9,3.3-6.9,7c0,3.7,3.1,6.8,6.9,6.8s7-3.1,7-6.8C66.9,40,63.7,36.8,59.9,36.8z M64.4,41.3l-4.9,5.3
	c0,0.3-0.2,0.3-0.4,0.3c-0.1,0-0.3,0-0.4-0.1l-3.6-2.6c-0.3-0.2-0.4-0.6-0.2-0.9c0.2-0.3,0.6-0.4,0.9-0.2l3.2,2.2l4.5-4.9
	c0.2-0.3,0.6-0.3,0.9,0C64.7,40.6,64.7,41,64.4,41.3z"/>
<path d="M26.1,24.2c0,0.7-0.6,1.2-1.2,1.2h-0.3c-0.7,0-1.2-0.6-1.2-1.2v-9.3c0-0.7,0.6-1.2,1.2-1.2h0.3c0.7,0,1.2,0.6,1.2,1.2V24.2z
	"/>
<path d="M43.1,24.8c0,0.7-0.6,1.2-1.2,1.2h-0.3c-0.7,0-1.2-0.6-1.2-1.2v-9.3c0-0.7,0.6-1.2,1.2-1.2h0.3c0.7,0,1.2,0.6,1.2,1.2V24.8z
	"/>
<path d="M60,24.8c0,0.7-0.6,1.2-1.2,1.2h-0.3c-0.7,0-1.2-0.6-1.2-1.2v-9.3c0-0.7,0.6-1.2,1.2-1.2h0.3c0.7,0,1.2,0.6,1.2,1.2V24.8z"
	/>
<path d="M77.3,24.8c0,0.7-0.6,1.2-1.2,1.2h-0.3c-0.7,0-1.2-0.6-1.2-1.2v-9.3c0-0.7,0.6-1.2,1.2-1.2H76c0.7,0,1.2,0.6,1.2,1.2
	L77.3,24.8L77.3,24.8z"/>
</svg>
