<?xml version="1.0" encoding="utf-8"?>
<!-- Generator: Adobe Illustrator 18.1.1, SVG Export Plug-In . SVG Version: 6.00 Build 0)  -->
<!DOCTYPE svg PUBLIC "-//W3C//DTD SVG 1.0//EN" "http://www.w3.org/TR/2001/REC-SVG-20010904/DTD/svg10.dtd">
<svg version="1.0" id="Camada_1" xmlns="http://www.w3.org/2000/svg" xmlns:xlink="http://www.w3.org/1999/xlink" x="0px" y="0px"
	 viewBox="0 0 557.554 558.144" enable-background="new 0 0 557.554 558.144" xml:space="preserve">
<g id="RO2tXf.tif">
	<g>
		<path d="M279.515,0.049c147.502-1.814,278.463,119.963,278.039,279.102c-0.433,162.508-133.857,278.617-278.009,278.993
			C126.595,558.542-0.195,429.364,0,278.275C0.196,126.586,128.007-2.88,279.515,0.049z M263.833,126.67
			c-7.976,2.328-14.78,3.933-21.317,6.281c-56.477,20.293-71.383,90.053-26.225,127.826c14.751,12.339,33.706,19.709,50.905,29.045
			c12.953,7.031,26.78,12.628,39.115,20.575c14.823,9.55,21.87,24.505,20.057,42.091c-1.809,17.559-11.861,29.901-28.178,37.109
			c-18.217,8.047-36.916,7.714-55.385,2.208c-14.708-4.384-28.881-10.563-43.641-16.076c-3.804,10.472-7.79,21.448-11.856,32.644
			c22.434,16.247,48.101,19.844,74.651,23.244c0,16.908,0,32.817,0,48.701c11.474,0,21.782,0,32.943,0c0-16.98,0-33.331,0-49.739
			c1.737-0.572,2.687-0.989,3.681-1.197c56.347-11.774,84.796-64.311,68.362-113.118c-8.561-25.425-28.354-40.213-51.179-51.657
			c-19.856-9.956-40.331-18.776-59.669-29.636c-15.297-8.59-23.844-22.61-21.391-40.959c2.387-17.857,14.887-29.468,34.67-34.442
			c20.735-5.213,40.416-0.778,59.87,5.916c6.823,2.348,13.397,5.421,20.514,8.338c4.237-11.365,8.043-21.576,12.857-34.487
			c-22.465-6.122-43.539-11.866-65.591-17.875c0-14.047,0-28.889,0-43.962c-11.461,0-22.024,0-33.193,0
			C263.833,94.366,263.833,110.395,263.833,126.67z"/>
		<path fill="#FFFFFF" d="M263.833,126.67c0-16.275,0-32.304,0-49.168c11.169,0,21.733,0,33.193,0c0,15.073,0,29.915,0,43.962
			c22.051,6.01,43.126,11.753,65.591,17.875c-4.813,12.911-8.62,23.122-12.857,34.487c-7.116-2.918-13.69-5.991-20.514-8.338
			c-19.454-6.694-39.135-11.129-59.87-5.916c-19.783,4.974-32.284,16.585-34.67,34.442c-2.453,18.349,6.094,32.369,21.391,40.959
			c19.338,10.859,39.813,19.68,59.669,29.636c22.825,11.444,42.618,26.233,51.179,51.657
			c16.434,48.807-12.015,101.344-68.362,113.118c-0.994,0.208-1.944,0.625-3.681,1.197c0,16.408,0,32.759,0,49.739
			c-11.161,0-21.469,0-32.943,0c0-15.884,0-31.793,0-48.701c-26.55-3.4-52.217-6.997-74.651-23.244
			c4.066-11.196,8.053-22.172,11.856-32.644c14.759,5.513,28.933,11.691,43.641,16.076c18.469,5.506,37.169,5.839,55.385-2.208
			c16.317-7.208,26.368-19.55,28.178-37.109c1.812-17.586-5.234-32.542-20.057-42.091c-12.335-7.947-26.163-13.544-39.115-20.575
			c-17.199-9.336-36.154-16.707-50.905-29.045c-45.158-37.773-30.252-107.533,26.225-127.826
			C249.053,130.602,255.857,128.998,263.833,126.67z"/>
	</g>
</g>
</svg>
