<?xml version="1.0" encoding="utf-8"?>
<!-- Generator: Adobe Illustrator 16.0.0, SVG Export Plug-In . SVG Version: 6.00 Build 0)  -->
<!DOCTYPE svg PUBLIC "-//W3C//DTD SVG 1.1//EN" "http://www.w3.org/Graphics/SVG/1.1/DTD/svg11.dtd">
<svg version="1.1" id="Camada_1" xmlns="http://www.w3.org/2000/svg" xmlns:xlink="http://www.w3.org/1999/xlink" x="0px" y="0px"
	 width="43.7px" height="50px" viewBox="13.2 0 43.7 50" enable-background="new 13.2 0 43.7 50" xml:space="preserve">
<g id="EhkIGK.tif">
	<g>
		<path d="M13.2,3.9c0.2-0.9,0.4-1.7,1-2.4c1.2-1.3,3-1.8,4.6-1.2c1.6,0.6,2.7,2.2,2.6,3.9c0,0.9-0.3,1.7-0.9,2.3
			C20,7,19.9,7.4,20,7.9c0.1,0.6,0.2,1.3,0.3,2c0.2-0.1,0.4-0.2,0.6-0.3c2.8-1.5,5.7-2.8,8.8-3.4c3.4-0.7,6.6-0.3,9.8,0.9
			c1.1,0.4,2.3,0.8,3.3,1.4c2,1.1,4,1,6,0.2c1.6-0.6,3.1-1.4,4.6-2.1c0.5-0.2,0.9-0.5,1.4-0.7c0.9-0.3,1.8,0.2,2,1.1
			c0.1,0.3,0.1,0.6,0.1,0.8c0,6.2,0,12.3,0,18.5c0,1-0.4,1.7-1.3,2.1c-2.1,1.1-4.2,2-6.5,2.6c-3.1,0.8-6,0.1-8.8-1.4
			c-1.4-0.7-2.9-1.2-4.4-1.6c-2.1-0.6-4.2-0.2-6.3,0.3c-2.2,0.6-4.4,1.4-6.5,2.5c0.3,2.2,0.6,4.3,0.9,6.5c0.3,2.2,0.6,4.4,0.9,6.6
			c0.1,1,0.3,2,0.5,3.1c0.2,1.2-0.7,2.5-1.9,2.7c-1.3,0.2-2.6-0.6-2.8-1.8c-0.3-2-0.6-4.1-0.8-6.1c-0.3-2.2-0.6-4.4-0.9-6.6
			c-0.3-2.2-0.6-4.4-0.9-6.6c-0.3-1.9-0.5-3.8-0.8-5.7c-0.3-1.9-0.5-3.8-0.8-5.7c-0.3-1.9-0.5-3.8-0.8-5.7c-0.2-1.3-0.3-2.6-0.5-3.8
			c0-0.1,0-0.4-0.1-0.4c-1.1-0.8-1.7-1.8-1.9-3.1C13.2,4.2,13.2,4,13.2,3.9z"/>
	</g>
</g>
</svg>
