<?xml version="1.0" encoding="UTF-8" standalone="no"?>
<!-- Generator: Adobe Illustrator 16.0.4, SVG Export Plug-In . SVG Version: 6.00 Build 0)  -->

<svg
   xmlns:dc="http://purl.org/dc/elements/1.1/"
   xmlns:cc="http://creativecommons.org/ns#"
   xmlns:rdf="http://www.w3.org/1999/02/22-rdf-syntax-ns#"
   xmlns:svg="http://www.w3.org/2000/svg"
   xmlns="http://www.w3.org/2000/svg"
   xmlns:sodipodi="http://sodipodi.sourceforge.net/DTD/sodipodi-0.dtd"
   xmlns:inkscape="http://www.inkscape.org/namespaces/inkscape"
   sodipodi:docname="drink-bottle.svg"
   inkscape:version="0.91 r13725"
   xml:space="preserve"
   enable-background="new -398.5 -172.685 505 505.185"
   viewBox="-398.5 -172.685 505 505.185"
   height="505.185px"
   width="505px"
   y="0px"
   x="0px"
   id="Layer_1"
   version="1.0"><metadata
     id="metadata14"><rdf:RDF><cc:Work
         rdf:about=""><dc:format>image/svg+xml</dc:format><dc:type
           rdf:resource="http://purl.org/dc/dcmitype/StillImage" /><dc:title></dc:title></cc:Work></rdf:RDF></metadata><defs
     id="defs12" /><sodipodi:namedview
     inkscape:current-layer="Layer_1"
     inkscape:window-maximized="1"
     inkscape:window-y="125"
     inkscape:window-x="-8"
     inkscape:cy="252.5925"
     inkscape:cx="252.5"
     inkscape:zoom="0.4671556"
     showgrid="false"
     id="namedview10"
     inkscape:window-height="705"
     inkscape:window-width="1366"
     inkscape:pageshadow="2"
     inkscape:pageopacity="0"
     guidetolerance="10"
     gridtolerance="10"
     objecttolerance="10"
     borderopacity="1"
     bordercolor="#666666"
     pagecolor="#ffffff" /><g
     id="NDw2oq_1_"><g
       id="g4"><path
         d="M 232.96484 68.537109 L 232.96484 91.328125 L 278.86328 91.328125 L 278.86328 68.537109 L 232.96484 68.537109 z M 232.70703 114.59766 L 232.70703 119.81445 C 232.70303 139.64145 232.63581 159.46892 232.75781 179.29492 C 232.77681 182.46192 231.87164 183.83841 228.68164 184.81641 C 202.53364 192.83441 186.64695 214.46395 186.62695 242.00195 C 186.58195 302.64895 186.62839 363.29736 186.65039 423.94336 C 186.65339 433.91736 190.92072 438.10838 201.01172 438.10938 C 237.33472 438.11537 273.65842 438.11233 309.98242 438.11133 C 321.47742 438.11133 325.3358 434.38816 325.3418 422.91016 C 325.3738 362.76216 325.39308 302.61575 325.33008 242.46875 C 325.30008 214.01475 309.99545 193.22211 282.81445 184.66211 C 280.05145 183.79211 279.19323 182.60497 279.24023 179.79297 C 279.40523 169.96597 279.30859 160.13469 279.30859 150.30469 C 279.31059 138.50669 279.31055 126.70766 279.31055 114.59766 L 232.70703 114.59766 z M 210.28516 299.91992 L 301.8125 299.91992 L 301.8125 368.13281 L 210.28516 368.13281 L 210.28516 299.91992 z M 156.72461 486.31641 C 52.241939 498.89574 104.48328 492.60608 156.72461 486.31641 z "
         transform="translate(-398.5,-172.685)"
         id="path6" /></g></g></svg>