<?xml version="1.0" encoding="utf-8"?>
<!-- Generator: Adobe Illustrator 16.0.0, SVG Export Plug-In . SVG Version: 6.00 Build 0)  -->
<!DOCTYPE svg PUBLIC "-//W3C//DTD SVG 1.0//EN" "http://www.w3.org/TR/2001/REC-SVG-20010904/DTD/svg10.dtd">
<svg version="1.0" id="Layer_1" xmlns="http://www.w3.org/2000/svg" xmlns:xlink="http://www.w3.org/1999/xlink" x="0px" y="0px"
	 width="100px" height="100px" viewBox="0 0 100 100" enable-background="new 0 0 100 100" xml:space="preserve">
<g>
	<g>
		<path fill="#FDDA2B" d="M83.388,17.061H16.215c-5.996,0-10.869,4.86-10.869,10.836v45.767c0,5.979,4.873,10.836,10.869,10.836
			h67.153c5.995,0,10.87-4.857,10.87-10.836V27.917C94.257,21.938,89.383,17.061,83.388,17.061z M83.388,79.549H16.215
			c-3.255,0-5.903-2.641-5.903-5.886V27.917c0-3.247,2.648-5.888,5.903-5.888h67.153c3.255,0,5.904,2.641,5.904,5.888v45.747h0.018
			C89.29,76.908,86.644,79.549,83.388,79.549z M61.406,50.211l21.741-19.436c1.013-0.916,1.104-2.476,0.184-3.501
			c-0.92-1.008-2.482-1.1-3.512-0.185l-29.98,26.827l-5.851-5.208c-0.017-0.019-0.037-0.036-0.037-0.055
			c-0.128-0.128-0.257-0.238-0.404-0.349L19.746,27.071c-1.029-0.917-2.593-0.824-3.513,0.203c-0.918,1.025-0.827,2.585,0.202,3.501
			l21.999,19.601L16.528,70.821c-0.993,0.936-1.049,2.494-0.11,3.502c0.497,0.514,1.158,0.787,1.82,0.787
			c0.607,0,1.215-0.218,1.692-0.658l22.237-20.738l6.033,5.372c0.479,0.421,1.067,0.622,1.655,0.622s1.195-0.218,1.655-0.639
			l6.198-5.539L79.819,74.47c0.478,0.458,1.103,0.678,1.709,0.678c0.663,0,1.307-0.255,1.803-0.77
			c0.938-0.99,0.902-2.565-0.092-3.501L61.406,50.211z"/>
	</g>
</g>
</svg>
