<?xml version="1.0" encoding="utf-8"?>
<!-- Generator: Adobe Illustrator 16.0.0, SVG Export Plug-In . SVG Version: 6.00 Build 0)  -->
<!DOCTYPE svg PUBLIC "-//W3C//DTD SVG 1.0//EN" "http://www.w3.org/TR/2001/REC-SVG-20010904/DTD/svg10.dtd">
<svg version="1.0" id="Layer_1" xmlns="http://www.w3.org/2000/svg" xmlns:xlink="http://www.w3.org/1999/xlink" x="0px" y="0px"
	 width="100px" height="100px" viewBox="0 0 100 100" enable-background="new 0 0 100 100" xml:space="preserve">
<g>
	<path fill="#253C6F" d="M38.951,51.088c-1.831,0-3.312,1.485-3.312,3.317c0,1.834,1.481,3.312,3.312,3.312
		c1.83,0,3.315-1.478,3.315-3.312C42.267,52.573,40.781,51.088,38.951,51.088z"/>
	<path fill="#253C6F" d="M57.343,57.717c1.832,0,3.309-1.478,3.309-3.312c0-1.832-1.477-3.317-3.309-3.317s-3.315,1.485-3.315,3.317
		C54.027,56.239,55.511,57.717,57.343,57.717z"/>
	<path fill="#253C6F" d="M85.385,41.185C84.422,21.42,68.092,5.691,48.091,5.691c-19.916,0-36.187,15.596-37.277,35.237
		C8.61,41.56,7,43.587,7,45.989v6.88c0,2.906,2.356,5.27,5.266,5.27c2.914,0,5.272-2.363,5.272-5.27v-6.88
		c0-0.235-0.021-0.471-0.05-0.703c2.392-1.03,4.77-2.259,7.093-3.692c5.149-3.178,9.526-7.009,13.024-11.191
		c5.374,6.905,13.555,12.762,23.556,16.141c5.681,1.919,11.377,2.836,16.798,2.869v3.458c0,2.554,1.827,4.693,4.25,5.169
		c-0.946,10.216-6.405,19.902-15.711,25.821c-0.348,0.221-0.705,0.42-1.062,0.625c-1.085-1.462-2.821-2.416-4.785-2.416
		c-3.289,0-5.954,2.666-5.954,5.966c0,3.283,2.665,5.95,5.954,5.95c3.294,0,5.965-2.667,5.965-5.95c0-0.236-0.017-0.463-0.042-0.69
		c0.523-0.296,1.045-0.597,1.559-0.918c10.33-6.57,16.315-17.378,17.17-28.716c1.881-0.803,3.198-2.672,3.198-4.841v-6.88
		C88.501,43.848,87.221,42.006,85.385,41.185z M48.068,9.526c-0.342,0-0.686,0.005-1.029,0.019c-5.912,0.22-11.436,2.3-16.176,5.779
		c-7.839,5.751-13.525,15.32-15.299,26.56c-0.504-0.402-1.082-0.721-1.71-0.919C14.933,23.012,29.87,8.736,48.091,8.736
		c18.166,0,33.067,14.192,34.223,32.069c-0.647,0.113-1.251,0.341-1.792,0.669C77.478,23.254,64.111,9.526,48.068,9.526z"/>
</g>
</svg>
