<?xml version="1.0" encoding="utf-8"?>
<!-- Generator: Adobe Illustrator 16.0.0, SVG Export Plug-In . SVG Version: 6.00 Build 0)  -->
<!DOCTYPE svg PUBLIC "-//W3C//DTD SVG 1.0//EN" "http://www.w3.org/TR/2001/REC-SVG-20010904/DTD/svg10.dtd">
<svg version="1.0" id="Layer_1" xmlns="http://www.w3.org/2000/svg" xmlns:xlink="http://www.w3.org/1999/xlink" x="0px" y="0px"
	 width="100px" height="100px" viewBox="0 0 100 100" enable-background="new 0 0 100 100" xml:space="preserve">
<g>
	<path fill="#263C70" d="M94.965,75.4c-29.649,0-59.299,0-88.947,0c-0.301-0.188-0.6-0.375-0.998-0.625
		c9.708-8.702,19.354-17.347,29.014-26.005c0.262,0.166,0.471,0.287,0.666,0.427c4.116,2.943,8.236,5.879,12.342,8.838
		c2.354,1.697,4.51,1.713,6.889,0.007c3.963-2.842,7.936-5.67,11.89-8.524c0.443-0.319,0.722-0.372,1.164,0.037
		c1.88,1.741,3.801,3.438,5.71,5.148c4.999,4.48,9.999,8.96,15.001,13.438c2.41,2.157,4.822,4.311,7.235,6.465
		C95.219,74.864,95.52,75.11,94.965,75.4z"/>
	<path fill-rule="evenodd" clip-rule="evenodd" fill="#263C70" d="M6.385,24.6c29.404,0,58.809,0,88.213,0
		c0.368,0.167,0.735,0.333,1.092,0.493c-0.729,0.478-1.388,0.883-2.016,1.329c-3.496,2.479-6.989,4.965-10.479,7.457
		c-4.513,3.225-9.024,6.452-13.531,9.685c-2.877,2.063-5.734,4.149-8.613,6.208c-3.146,2.249-6.315,4.465-9.453,6.727
		c-0.76,0.548-1.41,0.604-2.18,0.031c-1.442-1.07-2.932-2.082-4.395-3.129c-4.289-3.073-8.573-6.154-12.865-9.224
		c-3.218-2.304-6.449-4.591-9.67-6.893c-4.634-3.312-9.265-6.631-13.896-9.949c-1.033-0.742-2.062-1.492-3.174-2.297
		C5.828,24.852,6.105,24.726,6.385,24.6z"/>
	<path fill-rule="evenodd" clip-rule="evenodd" fill="#0087E5" d="M4,72.466c0-15.039,0-30.077,0-45.115
		c0.182,0.108,0.373,0.203,0.544,0.326c7.774,5.552,15.549,11.106,23.321,16.661c1.381,0.988,2.76,1.978,4.306,3.086
		c-0.276,0.179-0.447,0.259-0.583,0.381c-5.142,4.602-10.276,9.213-15.42,13.814C12.117,65.242,8.057,68.852,4,72.466z"/>
	<path fill-rule="evenodd" clip-rule="evenodd" fill="#0087E5" d="M96.983,27.292c0,15.371,0,30.548,0,46.005
		C87.39,64.7,77.958,56.25,68.418,47.702C77.943,40.897,87.386,34.151,96.983,27.292z"/>
</g>
</svg>
