<?xml version="1.0" encoding="utf-8"?>
<!-- Generator: Adobe Illustrator 16.0.0, SVG Export Plug-In . SVG Version: 6.00 Build 0)  -->
<!DOCTYPE svg PUBLIC "-//W3C//DTD SVG 1.1//EN" "http://www.w3.org/Graphics/SVG/1.1/DTD/svg11.dtd">
<svg version="1.1" id="Camada_1" xmlns="http://www.w3.org/2000/svg" xmlns:xlink="http://www.w3.org/1999/xlink" x="0px" y="0px"
	 width="59.3px" height="50px" viewBox="5.4 0 59.3 50" enable-background="new 5.4 0 59.3 50" xml:space="preserve">
<g id="niGx30.tif">
	<g>
		<path d="M64.6,19.8c-0.3,2.6-1,5-2.3,7.3c-1.3,2.2-2.7,4.3-4.4,6.2C55.4,35.8,44.6,43.8,42,45.5c-2,1.4-6.7,4.5-6.9,4.5
			s-2.9-1.8-3.9-2.5c-4-2.7-8.1-5.3-12.1-8.1c-3.9-2.8-7.4-6.1-10.1-10.2c-3.4-5.3-4.5-11-2.9-17.1c0.9-3.6,2.7-6.7,5.7-9
			c2.4-1.9,5.1-3,8.1-3C31,0.1,34.7,7.2,35,7.2c0.3,0,4.2-7.1,12.7-7.1c3.4-0.2,6.6,0.4,9.5,2.3c4,2.5,6.2,6.3,7.1,10.9
			C64.5,14.3,64.7,19.4,64.6,19.8z"/>
	</g>
</g>
</svg>
