<?xml version="1.0" encoding="utf-8"?>
<!-- Generator: Adobe Illustrator 18.1.1, SVG Export Plug-In . SVG Version: 6.00 Build 0)  -->
<!DOCTYPE svg PUBLIC "-//W3C//DTD SVG 1.0//EN" "http://www.w3.org/TR/2001/REC-SVG-20010904/DTD/svg10.dtd">
<svg version="1.0" id="Camada_1" xmlns="http://www.w3.org/2000/svg" xmlns:xlink="http://www.w3.org/1999/xlink" x="0px" y="0px"
	 viewBox="0 0 415.521 416.151" enable-background="new 0 0 415.521 416.151" xml:space="preserve">
<g>
	<g>
		<path fill-rule="evenodd" clip-rule="evenodd" d="M240.059,241.136c-21.98,17.02-64,53-64,53v87l-29,19l-42-88l-89-43l19-29h86
			c0,0,38.657-45.401,54-63c-53.361-32.857-99.886-58.074-156-90c-6.157-3.504-18.286-10.578-19-16c-0.808-6.134,6.985-16.017,10-21
			c4.132-6.828,7.536-14.721,14-17c8.503-2.999,22.257,1.366,31,3c68.888,12.87,128.746,22.8,198,36c5.907,1.126,11.498,3.594,15,3
			c7.578-1.286,19.769-16.723,26-22c18.095-15.324,35.296-28.508,56-40c9.917-5.505,45.018-21.982,60-7
			c8.919,8.92,5.442,30.035,0,44c-13.204,33.885-34.124,55.882-57,82c-4.167,4.757-11.418,12.229-12,15
			c-1.192,5.676,3.499,22.84,5,31c11.301,61.413,22.562,119.207,34,182c1.907,10.47,5.358,20.919,3,30
			c-2.021,7.781-8.483,11.478-16,16c-4.557,2.742-15.422,10.408-21,10c-6.444-0.472-13.234-12.382-17-19
			C297.835,342.257,271.793,295.796,240.059,241.136z"/>
	</g>
</g>
</svg>
