<?xml version="1.0" encoding="utf-8"?>
<!-- Generator: Adobe Illustrator 16.0.0, SVG Export Plug-In . SVG Version: 6.00 Build 0)  -->
<!DOCTYPE svg PUBLIC "-//W3C//DTD SVG 1.1//EN" "http://www.w3.org/Graphics/SVG/1.1/DTD/svg11.dtd">
<svg version="1.1" id="Camada_1" xmlns="http://www.w3.org/2000/svg" xmlns:xlink="http://www.w3.org/1999/xlink" x="0px" y="0px"
	 width="594.4px" height="595.3px" viewBox="0 0 594.4 595.3" enable-background="new 0 0 594.4 595.3" xml:space="preserve">
<g>
	<g>
		<path d="M123.7,568.1c-5.4,9.5-15.1,26.5-24.3,27.2c-8,0.6-23.5-10.4-30-14.3c-10.8-6.5-20-11.8-22.9-22.9
			c-3.4-13,1.6-27.9,4.3-42.9c16.4-89.8,32.5-172.5,48.6-260.3c2.1-11.7,8.9-36.2,7.2-44.3c-0.8-4-11.2-14.7-17.2-21.5
			C56.6,151.7,26.7,120.2,7.8,71.7C0,51.7-4.9,21.5,7.8,8.8c21.4-21.4,71.6,2.1,85.8,10c29.6,16.4,54.2,35.3,80.1,57.2
			c8.9,7.5,26.4,29.6,37.2,31.5c5,0.9,13-2.7,21.5-4.3c99.1-18.9,184.7-33.1,283.2-51.5c12.5-2.3,32.2-8.6,44.3-4.3
			c9.2,3.3,14.1,14.6,20,24.3c4.3,7.1,15.5,21.3,14.3,30c-1,7.8-18.4,17.9-27.2,22.9c-80.3,45.7-146.8,81.7-223.1,128.7
			c21.9,25.2,77.2,90.1,77.2,90.1h123l27.2,41.5l-127.3,61.5L384,572.4l-41.5-27.2V420.7c0,0-60.1-51.5-91.5-75.8
			C205.6,423.1,168.3,489.6,123.7,568.1z"/>
	</g>
</g>
</svg>
