<?xml version="1.0" encoding="utf-8"?>
<!-- Generator: Adobe Illustrator 18.1.1, SVG Export Plug-In . SVG Version: 6.00 Build 0)  -->
<!DOCTYPE svg PUBLIC "-//W3C//DTD SVG 1.0//EN" "http://www.w3.org/TR/2001/REC-SVG-20010904/DTD/svg10.dtd">
<svg version="1.0" id="Camada_1" xmlns="http://www.w3.org/2000/svg" xmlns:xlink="http://www.w3.org/1999/xlink" x="0px" y="0px"
	 viewBox="0 0 512 335.353" enable-background="new 0 0 512 335.353" xml:space="preserve">
<g id="BaPDhY.tif">
	<g>
		<path d="M253,335.353c-1.195-0.333-2.389-0.956-3.584-0.956c-24.967-0.005-48.281-6.835-70.199-18.138
			c-29.604-15.267-52.606-37.697-69.189-66.667c-10.278-17.956-17.101-37.226-19.832-57.605
			c-4.263-31.809-0.485-62.637,12.578-92.381c10.313-23.484,25.468-43.152,44.489-59.781c22.39-19.573,48.776-31.664,77.941-37.282
			c8.195-1.579,16.701-1.589,25.074-2.18c28.697-2.026,55.76,4.527,81.117,17.332c30.313,15.307,53.968,38.009,70.666,67.797
			c10.69,19.071,17.42,39.326,20.001,61.076c5.495,46.309-6.097,87.933-34.595,124.59c-15.499,19.936-34.839,35.777-57.714,46.72
			c-16.704,7.991-34.186,13.883-52.851,15.509c-5.979,0.521-11.936,1.303-17.903,1.965C257,335.353,255,335.353,253,335.353z
			 M138,167.113c-1.162,65.892,52.754,114.976,109.536,118.288c75.142,4.383,123.492-54.846,126.547-109.919
			c4.146-74.741-54.737-122.829-109.718-126.265C190.58,44.606,136.181,105.135,138,167.113z"/>
		<path d="M512,315.353c-2.236,5.363-6.277,7.513-12.011,7.043c-2.978-0.244-5.992-0.027-8.99-0.046
			c-7.743-0.05-10.936-3.647-9.984-11.18c0.678-5.363,1.518-10.716,1.939-16.1c1.117-14.289,1.97-28.599,3.069-42.89
			c1.25-16.236,2.768-32.451,3.943-48.692c0.599-8.274,1.612-16.684,0.71-24.841c-0.598-5.413-4.358-10.446-6.527-15.721
			c-5.577-13.562-8.997-27.651-10.173-42.286c-0.554-6.888-1.998-13.781-1.813-20.639c0.628-23.315,1.298-46.838,13.11-67.862
			c3.6-6.408,9.144-12.008,14.715-16.942c5.383-4.768,8.813-3.626,12.013,2.157C512,116.686,512,216.019,512,315.353z"/>
		<path d="M0,23.352c1.207-1.391,2.414-2.783,3.656-4.215c4.058,2.152,4.358,5.521,4.354,9.091
			c-0.022,18.493,0.013,36.987-0.032,55.48c-0.008,3.213,0.671,5.917,4.53,5.536c3.118-0.308,3.531-2.83,3.522-5.573
			c-0.059-18.66-0.015-37.32-0.044-55.98c-0.005-3.443,0.46-6.566,5.325-8.986c0.964,3.253,2.537,6.152,2.572,9.07
			c0.227,18.657,0.143,37.319,0.091,55.979c-0.009,3.256,0.788,5.871,4.577,5.482c3.115-0.32,3.488-2.878,3.479-5.609
			c-0.059-18.66-0.016-37.32-0.043-55.98c-0.005-3.445,0.499-6.549,5.351-8.96c0.961,3.294,2.512,6.201,2.548,9.126
			c0.224,18.657,0.139,37.319,0.092,55.979c-0.008,3.256,0.761,5.894,4.605,5.446c3.111-0.363,3.457-2.92,3.448-5.642
			c-0.059-18.493-0.136-36.988,0.076-55.479c0.034-2.989,1.48-5.961,2.273-8.941c0.838-0.066,1.677-0.132,2.515-0.198
			c1.034,2.485,2.95,4.963,2.968,7.455c0.211,28.988,0.186,57.979,0.095,86.968c-0.019,6.127-3.123,10.163-8.44,11.946
			c-10.175,3.413-13.464,9.125-11.349,19.542c0.424,2.086,0.739,4.225,0.802,6.349c0.392,13.272,0.594,26.549,1.06,39.818
			c0.551,15.722,1.315,31.436,1.968,47.154c0.681,16.383,1.32,32.767,2.017,49.149c0.274,6.447,0.606,12.892,1.001,19.332
			c0.276,4.511-1.751,7.794-6.108,8.068c-6.35,0.4-12.791,0.085-19.139-0.509c-3.276-0.307-4.905-2.894-4.788-6.42
			c0.71-21.379,1.283-42.762,2.058-64.139c0.521-14.387,1.352-28.763,1.948-43.148c0.726-17.548,1.319-35.102,2.046-52.651
			c0.15-3.616,0.911-7.22,0.898-10.827c-0.017-4.95-3.248-9.525-8.046-10.572c-5.978-1.305-9.817-4.54-11.885-10.141
			C0,85.353,0,54.352,0,23.352z"/>
		<path d="M255.803,273.339c-61.221-2.291-105.762-47.977-105.334-106.203c0.459-62.546,48.621-105.758,105.826-105.33
			c60.857,0.455,105.127,46.795,105.251,105.346C361.672,226.936,315.613,271.463,255.803,273.339z"/>
	</g>
</g>
</svg>
