<?xml version="1.0" encoding="UTF-8" standalone="no"?>
<!-- Generator: Adobe Illustrator 16.0.4, SVG Export Plug-In . SVG Version: 6.00 Build 0)  -->

<svg
   xmlns:dc="http://purl.org/dc/elements/1.1/"
   xmlns:cc="http://creativecommons.org/ns#"
   xmlns:rdf="http://www.w3.org/1999/02/22-rdf-syntax-ns#"
   xmlns:svg="http://www.w3.org/2000/svg"
   xmlns="http://www.w3.org/2000/svg"
   xmlns:sodipodi="http://sodipodi.sourceforge.net/DTD/sodipodi-0.dtd"
   xmlns:inkscape="http://www.inkscape.org/namespaces/inkscape"
   version="1.0"
   id="Layer_1"
   x="0px"
   y="0px"
   width="505px"
   height="505.185px"
   viewBox="172.5 -166.685 505 505.185"
   enable-background="new 172.5 -166.685 505 505.185"
   xml:space="preserve"
   inkscape:version="0.91 r13725"
   sodipodi:docname="gift-hotel.svg"><metadata
     id="metadata16"><rdf:RDF><cc:Work
         rdf:about=""><dc:format>image/svg+xml</dc:format><dc:type
           rdf:resource="http://purl.org/dc/dcmitype/StillImage" /><dc:title></dc:title></cc:Work></rdf:RDF></metadata><defs
     id="defs14" /><sodipodi:namedview
     pagecolor="#ffffff"
     bordercolor="#666666"
     borderopacity="1"
     objecttolerance="10"
     gridtolerance="10"
     guidetolerance="10"
     inkscape:pageopacity="0"
     inkscape:pageshadow="2"
     inkscape:window-width="1366"
     inkscape:window-height="705"
     id="namedview12"
     showgrid="false"
     inkscape:zoom="0.4671556"
     inkscape:cx="252.5"
     inkscape:cy="284.33658"
     inkscape:window-x="-8"
     inkscape:window-y="125"
     inkscape:window-maximized="1"
     inkscape:current-layer="Layer_1" /><g
     id="Y2v8Uq_1_"><g
       id="g4"><path
         d="m 456.317,32.819 6.208,0 c 14.66,10e-4 29.322,0.044 43.982,-0.043 2.104,-0.013 4.404,-0.214 6.274,-1.07 16.605,-7.604 27.579,-19.749 29.298,-38.545 1.707,-18.659 -4.02,-34.432 -20.463,-44.659 -17.093,-10.631 -34.83,-12.296 -52.02,-0.227 -6.209,4.359 -11.438,10.132 -17.033,15.347 -8.384,7.813 -16.695,15.703 -24.777,23.315 -2.576,-2.415 -5.885,-5.428 -9.095,-8.542 -10.151,-9.851 -19.505,-20.702 -30.546,-29.421 -26.473,-20.908 -61.438,-1.812 -69.898,19.065 -9.204,22.708 -2.129,46.604 18.545,59.953 5.029,3.248 10.09,5.136 16.297,4.954 13.816,-0.404 27.652,-0.125 41.48,-0.125 l 5.959,0 0,199.903 55.788,0 c 0.001,-66.609 0.001,-132.859 0.001,-199.905 z m 104.812,81.169 -90.953,0 0,118.913 c 1.729,0.122 3.182,0.314 4.634,0.315 21.985,0.015 43.973,0.031 65.958,-0.01 13.498,-0.025 20.594,-7.164 20.604,-20.699 0.024,-31.147 0.017,-62.295 0.005,-93.442 -0.002,-1.624 -0.155,-3.247 -0.248,-5.077 z m -265.371,-0.141 c -0.126,1.624 -0.313,2.916 -0.314,4.209 -0.017,31.972 -0.051,63.943 0.005,95.915 0.021,11.754 7.645,19.218 19.495,19.235 22.312,0.033 44.627,0.013 66.94,-0.003 1.462,-0.001 2.925,-0.156 4.614,-0.252 l 0,-119.104 z m 174.406,-10.645 c 0.892,0.204 1.517,0.471 2.143,0.472 32.303,0.017 64.607,0.135 96.91,-0.068 9.752,-0.061 16.891,-7.882 17.004,-17.982 0.149,-13.319 0.158,-26.643 -10e-4,-39.962 -0.124,-10.393 -7.69,-17.841 -18.085,-18.037 -6.491,-0.122 -13.02,0.385 -19.472,-0.138 -5.876,-0.476 -10.177,1.354 -13.954,5.755 -5.301,6.18 -12.334,9.769 -20.291,10.82 -14.604,1.932 -29.277,3.349 -44.254,5.018 z M 386.463,46.425 c -5.258,0.304 -9.736,0.731 -14.219,0.793 -19.698,0.271 -39.271,0.195 -53.39,-17.188 -1.214,-1.495 -4.062,-2.24 -6.188,-2.315 -7.65,-0.271 -15.318,-0.166 -22.979,-0.093 -11.77,0.111 -19.034,7.331 -19.092,19 -0.061,12.157 -0.021,24.315 -0.014,36.473 0.01,13.799 6.735,20.616 20.444,20.627 29.978,0.022 59.956,0.005 89.934,0.004 l 5.503,0 c 0.001,-19.375 0.001,-38.093 0.001,-57.301 z"
         id="path6"
         inkscape:connector-curvature="0"
         sodipodi:nodetypes="cccccsccccccccscccccccscccccccccccccccssccccccccccccccccc"
         style="stroke:none;fill:#000000;fill-opacity:1" /><path
         d="M479.883,11.521c-3.991,0-7.988,0.15-11.969-0.05    c-2.963-0.149-6.031-0.349-8.828-1.232c-7.672-2.422-10.1-8.71-4.752-14.589c8.812-9.689,18.143-19.009,28.043-27.573    c6.799-5.882,17.361-5.104,25.262,0.065c8.125,5.315,12.26,14.432,10.413,23.642c-1.985,9.899-7.886,16.674-17.813,18.604    c-6.613,1.287-13.546,0.932-20.336,1.312C479.896,11.641,479.889,11.581,479.883,11.521z"
         id="path8"
         clip-rule="evenodd"
         fill-rule="evenodd" /><path
         d="M376.964,11.096c-5.816,0-11.694,0.539-17.435-0.12    c-9.695-1.113-16.762-6.411-19.925-15.808c-3.096-9.199-0.773-17.565,6.065-24.259c6.898-6.752,15.376-8.424,24.436-5.106    c3.02,1.106,5.919,3.141,8.264,5.388c7.799,7.472,15.307,15.246,22.955,22.877c3.082,3.075,5.128,7.23,2.911,10.743    c-1.847,2.928-5.919,5.531-9.374,6.121c-5.812,0.991-11.916,0.271-17.896,0.271C376.964,11.167,376.964,11.132,376.964,11.096z"
         id="path10"
         clip-rule="evenodd"
         fill-rule="evenodd" /></g></g></svg>