<?xml version="1.0" encoding="utf-8"?>
<!-- Generator: Adobe Illustrator 16.0.0, SVG Export Plug-In . SVG Version: 6.00 Build 0)  -->
<!DOCTYPE svg PUBLIC "-//W3C//DTD SVG 1.1//EN" "http://www.w3.org/Graphics/SVG/1.1/DTD/svg11.dtd">
<svg version="1.1" id="Layer_1" xmlns="http://www.w3.org/2000/svg" xmlns:xlink="http://www.w3.org/1999/xlink" x="0px" y="0px"
	 width="92.8px" height="93px" viewBox="0 0 92.8 93" enable-background="new 0 0 92.8 93" xml:space="preserve">
<g>
	<path d="M63.7,5.8c-1.7,0-3.1-0.6-4.6-1.3C59.7,4,63.3,5,63.7,5.8z"/>
	<path d="M92.5,39.6c-1.2-8.3-4.3-15.7-9.5-22.2C76.1,9,67.5,3.5,57,1.1c-2.2-0.5-4.4-0.6-6.6-0.9C50.1,0.1,49.8,0,49.5,0
		c-1.9,0-3.9,0-5.8,0c-1.3,0-2.7,0.3-4,0.5C31.6,1.7,24.4,4.8,18,9.8C9.4,16.6,3.7,25.2,1.3,35.9C-1.9,50.4,1,63.7,10.2,75.4
		C17.1,84.2,26.1,89.8,37,92c14.2,2.9,27.1-0.1,38.5-9.1c8.5-6.7,14-15.4,16.4-25.9c0.5-2.2,0.5-4.5,0.8-6.7c0-0.3,0-0.6,0-0.9
		c0-1.9,0-3.8,0-5.6C92.8,42.3,92.7,41,92.5,39.6z M63.7,5.8c-1.7,0-3.1-0.6-4.6-1.3C59.7,4,63.3,5,63.7,5.8z M54.8,3.6
		c0.9-0.1,1.8-0.2,2.7-0.3v0.1c-0.2,0.1-0.3,0.1-0.5,0.2c0.4,0.3,0.8,0.6,1.2,1c0,0,0,0.1-0.1,0.1c-1.1-0.4-2.2-0.7-3.3-1V3.6z
		 M49.1,4c1.7,0,3.4,0,5,0l0,0C52.4,4,50.8,4,49.1,4L49.1,4z M74.9,63.7c-0.3,2.3-0.5,4.5-1,6.7c-0.3,1.3-1.1,2.4-1.7,3.6
		c-0.3,0.6-0.6,1.3-0.8,1.9c-0.8,2-1.7,3.9-3.2,5.5c-0.6,0.6-0.9,1.4-1.5,2c-0.8,0.8-1.8,1.5-2.8,2.3c0.1,0.1,0.2,0.2,0.3,0.3
		c-0.3,0.2-0.6,0.4-0.8,0.6c-0.8,0.8-1.5,1.6-2.3,2.5c0.3,0.2,0.6,0.5,0.9,0.7c-0.9,0.7-3,0.4-3.6-0.5c-0.1-0.2,0.2-0.7,0.4-1.1
		c0-0.2-0.1-0.6,0-0.7c0.5-0.4,0.6-0.9,0.6-1.5c0-0.2,0.2-0.5,0.4-0.7c0.7-0.7,0.8-1.4,0.9-2.4c0.1-1.2,0.5-2.4,0.8-3.6
		c0.1-0.3,0.1-0.7,0.1-1c0-1.1-0.4-2-1.5-2.4c-1.2-0.4-2.5-0.9-3.3-2c-0.7-0.9-1.4-1.8-2-2.8c-0.2-0.2-0.1-0.7,0-1
		c0.2-0.9,0.5-1.8,0.6-2.7c0-1,0.7-1.6,1.3-2.2c0.6-0.7,1-1.5,1-2.5c0-1.3-0.9-1.9-2-1.4c-0.2,0.1-0.4,0.1-0.6,0.1
		c-1.4-0.6-3-0.8-3.9-2.2c-0.8-1.2-2-1.6-3.3-1.9c-2.5-0.6-5-1.1-7.5-1.6c-1.2-0.3-2.2-0.9-3-1.8c-0.2-0.2-0.4-0.5-0.5-0.7
		c-0.8-2.6-2.6-4.5-4-6.7c-0.2-0.4-0.7-0.7-1-1c-0.1,0.1-0.2,0.1-0.3,0.2c0.7,1.7,1.5,3.4,2.2,5.2c0,0.1-0.1,0.1-0.1,0.2
		c-0.4-0.3-0.9-0.4-1.1-0.8c-0.8-1.2-1.7-2.3-1.9-3.8c-0.1-1.2-0.8-2.5-1.3-3.6c-0.2-0.5-0.7-0.9-1.1-1.2c-0.8-0.5-1.3-1.2-1.3-2.1
		c0-0.3,0-0.6-0.1-0.8c-1-1.6-0.6-3.3-0.3-4.9c0.3-1.3,0.7-2.5,1.1-3.7c0.3-1,0.6-1.9,0.7-2.9c0-0.3-0.2-0.7-0.4-0.9
		c-0.3-0.3-0.7-0.6-1-0.8c0.3-0.9,0.7-1.6,0.7-2.4c0-0.5-0.5-1.1-1-1.8c-0.3,0.6-0.5,1-0.7,1.6c-0.1-1.1,0.4-1.6,1-1.9
		c-0.2-1.4-0.4-2.6-0.7-3.9c-0.2-0.9-0.9-1.5-1.8-1.8c-0.5-0.2-0.9-0.4-1.6-0.8c-0.4,0.3-0.9,0.9-1.6,1.2c-3.1,1.2-4.7,4.1-7,6.2
		c-0.6,0.6-1.2,1.3-1.8,1.9c-0.1-0.1-0.1-0.1-0.2-0.2c1.5-1.7,2.9-3.4,4.4-5.2c-0.1-0.1-0.1-0.1-0.2-0.2c-0.3,0-0.7,0.1-1,0.1
		c-0.7-2.5,0.6-4,2.4-5.1c0.6-0.4,1.1-0.7,1.7-1.1c0-0.1-0.1-0.2-0.1-0.3c-0.4,0.1-0.7,0.1-1.1,0.2c-0.1-0.8,0.3-1.3,0.8-1.6
		s1-1.3,1.9-0.5c0,0,0.7-0.5,0.8-0.7c0.1-0.9,0.6-1.4,1.3-1.8c3.6-1.8,7.4-2.2,11.4-1.5c0.8,0.1,1.6,0.1,2.4-0.1
		c2.1-0.6,4-0.6,6,0.2c0.9,0.4,1.8,0.5,2.8,0.7c0.1-0.1,0.1-0.2,0.2-0.3c-0.3-0.1-0.5-0.3-0.9-0.5c0.3-0.2,0.5-0.4,0.7-0.5
		c-0.6-1.1-1.8-0.4-2.6-0.8c0-0.1,0-0.2-0.1-0.3c1-0.1,1.8-0.4,2.7-0.5c1.1-0.1,2.1,0,3.1,0.5c0.5,0.3,1.2,0.2,1.8,0.2
		c0.7,0,1.3-0.2,2-0.3c-0.1,1-0.1,1.8-0.2,2.9C51.9,7.3,51,7.3,50,7.4c0.2,0.2,0.4,0.3,0.5,0.4c1.5,0.8,3.4,0.4,4.4-0.9
		c0.1-0.2,0.1-0.5,0-0.7c-0.3-1.4,0.1-1.9,1.5-1.5c0.8,0.2,1.7,0.4,2.5,0.5c0,0.1,0.1,0.2,0.1,0.2c-0.3,0.2-1.2,0.3-1.2,0.4
		c0,0.7,0,1.4,0,2.1c0,0.5,1,1,1.7,1.6c0.3-0.2,0.6-0.6,1.1-1c-0.9-0.5-1.9-0.8-1.7-2.1C59.4,6,60.1,5.6,61,5.9
		c1.7,0.5,3.3,0.8,4.3,2.5c0.4,0.6,1.1,1,1.6,1.5c0.3,0.3,0.8,0.7,0.8,1c0.1,1.1,0.7,1.8,1.3,2.6c0.5,0.7,0.4,1.1-0.3,1.7
		c-0.2-0.3-0.5-0.7-0.7-1c-0.1,0.1-0.2,0.1-0.3,0.2c0.2,0.4,0.4,0.9,0.5,1.3c0.1,0.3,0,0.8-0.2,0.9c-0.3,0.1-0.8,0.1-1.1-0.1
		c-0.7-0.5-1.2-1.2-1.9-1.8c-0.4-0.4-1-0.5-1.4-0.9c-0.3-0.2-0.6-0.5-0.9-0.8c0.1-0.1,0.1-0.2,0.2-0.3c0.5,0.1,0.9,0.2,1.4,0.3h0.1
		c0.3-0.5,1-1.3,0.8-1.6c-0.5-0.9-1.3-1.6-2.1-2.2c-0.3-0.3-0.8-0.3-1.3-0.5c-0.2,0.7-0.1,1.5-0.5,1.9C61,11,60.2,11,59.5,11.2
		c0.3,1,1.8,1.2,2,2.3c-0.9-0.1-1.7-0.1-2.4-0.3c-0.2,0-0.3-0.5-0.3-0.8c0-0.3,0.3-0.7,0.5-1.2c-0.5,0.1-0.9,0.1-1.1,0.2
		c-1.4,0.9-2.8,1.9-4.1,2.9c-1.2,0.9-1,3.2,0.5,3.9c1.3,0.6,2.5,1.6,3.5,2.5c0.5,0.4,0.6,1.3,0.8,1.9s0.3,1.1,1.1,1.1
		c0.1-0.1,0.1-0.3,0.2-0.4c0.1-1.4,0.7-2.5,1.8-3.3c0.5-0.4,0.5-0.9,0-1.4s-0.4-0.9,0-1.4c0.2-0.3,0.3-0.8,0.3-1.3
		c0.1-0.4,0.1-0.8,0.1-1.3c1.1,0.2,1.9,0.6,2.6,1.4c0.2,0.2,0.5,0.3,0.6,0.5c0.3,0.3,0.5,0.7,0.6,1c0.1,0.2-0.1,0.5,0,0.7
		c0.2,0.3,0.4,0.7,0.7,0.9c0.2,0.1,0.6-0.3,0.8-0.5c0.1-0.1,0.2-0.3,0.5-0.6c0.3,0.9,0.4,1.6,0.7,2.3c0.4,0.9,0.9,1.8,1.2,2.8
		c0.4,1.3,0.7,2.7,1.1,4c0.2,0.5,0.4,1,0.6,1.5c0.4,0.7,0.4,1.3,0.1,2.1c-0.6-0.6-1.3-1-1.8-1.6c-0.2-0.2-0.1-0.7,0.1-1
		c0.2-0.5,0.5-0.9,0.6-1.6c-1.4,0.5-2.8,0.6-4.1-0.2c0,0.1-0.1,0.2-0.1,0.3c0.1,0.1,0.2,0.3,0.3,0.4c0.2,0.2,0.5,0.3,0.5,0.5
		c-0.2,1.1,0.8,1.4,1.4,2c0.6,0.7,0.5,1.1-0.3,1.4c-0.9,0.3-1.7,0.8-2.7,0.2c-0.8-0.4-1.5,0-1.8,0.9c-0.2,0.7-0.6,1.1-1.3,1.3
		c-0.3,0.1-0.7,0.4-0.9,0.7c-0.6,1.1-1.1,2.1-1.5,3.3c-0.3,1-0.9,1.8-1.8,2.4c-0.6,0.4-1.2,1-1.8,1.5c-0.9,0.8-1,1.8-0.5,2.9
		c0.3,0.7,0.4,1.5,0.6,2.3c0,0.2-0.1,0.4-0.2,0.9c-0.5-0.4-0.9-0.6-1.1-0.9c-0.5-0.7-0.8-1.4-1.2-2.1c-0.6-1.1-2.6-1.9-3.6-1.2
		c-1.4,1-2.9,0.9-4.5,1.2c-0.5,0.1-1.2,0.4-1.5,0.8c-1.3,1.5-2.3,3.2-2.3,5.3c0,3.3,2.9,3.6,4.9,2.8c0.4-0.2,0.6-0.7,0.8-1.1
		c0.6-0.9,1.6-1.4,3-1.2c-0.4,1-0.7,2-1.3,3c-0.4,0.7-0.3,1.2,0.4,1.3c0.6,0.2,1.3,0.2,2,0.2c0.9,0,1.2,0.3,1.1,1.2
		c-0.1,0.5-0.1,1.1-0.1,1.6c-0.1,0.8,0.4,1.2,1.1,1.2c2.1,0,4.2,0.1,5.8-1.7c1.2-1.4,2.5-1.3,4.1-0.7c1.2,0.4,2.4-0.2,3.4-0.8
		c0.1-0.1,0.2-0.1,0.3-0.3c0.1,1.2,0.6,2,1.5,2.5c0.3,0.1,0.6,0.3,0.8,0.3c1.1-0.1,1.5,0.6,1.9,1.4c0.6,1.4,1.2,1.6,2.8,0.8
		C74.9,62.2,74.9,63,74.9,63.7z"/>
	<path d="M49.1,3.5c1.7,0,3.4,0,5,0c0,0.1,0,0.2,0,0.2c-1.7,0-3.4,0-5,0C49.1,3.7,49.1,3.6,49.1,3.5z"/>
	<path d="M54.8,3.6c0.9-0.1,1.8-0.2,2.7-0.3v0.1c-0.2,0.1-0.3,0.1-0.5,0.2c0.4,0.3,0.8,0.6,1.2,1c0,0,0,0.1-0.1,0.1
		c-1.1-0.4-2.2-0.7-3.3-1V3.6z"/>
	<path d="M52.3,27.9c0.3-0.3,0.5-0.6,0.8-0.9c0.5-0.6,1.5-0.7,2-0.1c0.2,0.2,0.3,0.5,0.3,0.8c0,0.1-0.4,0.3-0.7,0.3
		c-0.7,0.1-1.4,0.1-2,0.1C52.5,28.2,52.4,28,52.3,27.9z"/>
	<path d="M54,32.6c-0.6-1.7,0-3.4,1.2-2.9C54.8,30.6,54.4,31.6,54,32.6z"/>
	<path d="M58.2,29.4c-0.3,0.7-0.6,1.2-0.8,1.8c-0.1,0-0.2,0-0.3,0c-0.2-0.6-0.4-1.2-0.8-2.1C57,29.2,57.5,29.3,58.2,29.4z"/>
	<path d="M40.2,8.2c0.5,0.2,1.1,0.3,1.6,0.5c0,0.1,0,0.2-0.1,0.2C41.2,8.8,40.4,9.5,40.2,8.2z"/>
</g>
</svg>
