<?xml version="1.0" encoding="utf-8"?>
<!-- Generator: Adobe Illustrator 16.0.0, SVG Export Plug-In . SVG Version: 6.00 Build 0)  -->
<!DOCTYPE svg PUBLIC "-//W3C//DTD SVG 1.1//EN" "http://www.w3.org/Graphics/SVG/1.1/DTD/svg11.dtd">
<svg version="1.1" id="Camada_1" xmlns="http://www.w3.org/2000/svg" xmlns:xlink="http://www.w3.org/1999/xlink" x="0px" y="0px"
	 width="50.1px" height="50px" viewBox="9.9 0 50.1 50" enable-background="new 9.9 0 50.1 50" xml:space="preserve">
<g id="aFXCiL.tif">
	<g>
		<path d="M60.1,24.1c0,0.6,0,1.1,0,1.7c0,0.2-0.1,0.3-0.1,0.5c-0.2,1.4-0.3,2.9-0.6,4.2C56.2,44,43.3,52.3,29.9,49.5
			C18.8,47.2,10.5,37.7,10,26c-0.2-3.4,0.4-6.8,1.7-10c4.4-11.2,16-17.7,27.8-15.6c6.3,1.1,11.4,4.3,15.3,9.4
			c2.8,3.6,4.5,7.7,5,12.2C59.9,22.7,60,23.4,60.1,24.1z M35,49.4c0.5,0,0.9,0,1.4,0s0.9-0.1,1.4-0.1c5.1-0.6,9.5-2.6,13.4-6
			c0.2-0.2,0.4-0.6,0.4-0.9c0-3.7-2.7-7.1-6.4-8c-1.9-0.5-3.6-0.2-5,1.2c-0.8,0.8-1.8,1.4-2.7,2c-1.5,0.9-3.1,0.9-4.6-0.1
			c-1-0.7-2-1.5-3-2.2c-1-0.7-2.1-1.1-3.3-1.1c-4.4,0-8.1,3.7-8.2,8.1c0,0.3,0.2,0.7,0.4,0.9C23.3,47.3,28.8,49.4,35,49.4z
			 M43.5,23.9c0-4.6-3.7-8.3-8.3-8.3c-4.6,0-8.4,3.7-8.4,8.3c0,4.7,3.7,8.4,8.4,8.4C39.8,32.3,43.5,28.5,43.5,23.9z"/>
		<path fill="#FFFFFF" d="M35,49.4c-6.2,0-11.6-2.1-16.3-6.2c-0.2-0.2-0.4-0.6-0.4-0.9c0-4.4,3.8-8.1,8.2-8.1c1.2,0,2.3,0.3,3.3,1.1
			c1,0.8,2,1.5,3,2.2c1.5,1,3.1,1.1,4.6,0.1c1-0.6,1.9-1.2,2.7-2c1.5-1.4,3.1-1.7,5-1.2c3.7,0.9,6.4,4.2,6.4,8
			c0,0.3-0.2,0.7-0.4,0.9c-3.8,3.4-8.3,5.4-13.4,6c-0.5,0.1-0.9,0.1-1.4,0.1S35.4,49.4,35,49.4z"/>
		<path fill="#FFFFFF" d="M43.5,23.9c0,4.6-3.7,8.3-8.3,8.3c-4.7,0-8.4-3.7-8.4-8.4c0-4.6,3.8-8.3,8.4-8.3
			C39.8,15.6,43.5,19.3,43.5,23.9z"/>
	</g>
</g>
</svg>
