<?xml version="1.0" encoding="utf-8"?>
<!-- Generator: Adobe Illustrator 16.0.4, SVG Export Plug-In . SVG Version: 6.00 Build 0)  -->
<!DOCTYPE svg PUBLIC "-//W3C//DTD SVG 1.0//EN" "http://www.w3.org/TR/2001/REC-SVG-20010904/DTD/svg10.dtd">
<svg version="1.0" id="Layer_1" xmlns="http://www.w3.org/2000/svg" xmlns:xlink="http://www.w3.org/1999/xlink" x="0px" y="0px"
	 width="41.161px" height="41.161px" viewBox="0 0 41.161 41.161" enable-background="new 0 0 41.161 41.161" xml:space="preserve">
<circle fill="#263C70" cx="20.581" cy="20.581" r="20.581"/>
<g>
	<path fill="#FFFFFF" d="M16.976,17.576c0.133,0.091,0.098,0.257,0.146,0.402c0.228,0.707,0.638,1.362,1.021,1.933v0.796
		c0,0.403-0.04,0.783-0.217,1.116l2.724,3l2.614-2.99c-0.18-0.336-0.326-0.72-0.326-1.127v-0.771c0.575-0.63,0.97-1.375,1.206-2.163
		c0.025-0.133,0.184-0.199,0.268-0.292c0.459-0.458,0.562-1.232,0.22-1.784c-0.047-0.083-0.124-0.156-0.118-0.259
		c0-0.703,0.007-1.407,0.001-2.11c-0.018-0.849-0.259-1.729-0.854-2.357c-0.479-0.508-1.139-0.81-1.818-0.94
		c-0.859-0.164-1.758-0.155-2.61,0.062c-0.736,0.187-1.431,0.618-1.858,1.258c-0.379,0.557-0.545,1.233-0.574,1.899
		c-0.009,0.715-0.002,1.432-0.004,2.148c0.016,0.144-0.107,0.241-0.161,0.36C16.313,16.346,16.456,17.148,16.976,17.576z"/>
	<path fill="#FFFFFF" d="M26.653,23.017h-1.198c-0.125,0-0.247,0.035-0.366,0.016l-1.711,2.887l-0.917-2.134l-1.782,1.653
		l-1.864-1.646l-0.959,2.147l-1.682-2.901c-0.102,0.012-0.205-0.023-0.311-0.023h-1.199c0,0-2.189,0.687-3.619,3.684v2.582
		c0,0.664,0.56,1.215,1.222,1.215h16.783c0.663,0,1.176-0.552,1.176-1.215v-2.582C28.843,23.703,26.653,23.017,26.653,23.017z
		 M22.65,28.868l-0.016,0.021l-0.018,0.019l-0.021,0.019l-0.02,0.019l-0.021,0.017l-0.021,0.017l-0.021,0.015l-0.02,0.015
		l-0.021,0.013l-0.018,0.011l-0.016,0.01l-0.032,0.016l-0.032,0.016l-0.034,0.015l-0.034,0.013l-0.033,0.014l-0.036,0.01
		L22.2,29.138l-0.036,0.01l-0.035,0.008l-0.036,0.007l-0.038,0.007l-0.036,0.004l-0.036,0.004l-0.037,0.002l-0.036,0.001
		l-0.034,0.001l-0.047-0.001l-0.046-0.001l-0.044-0.004l-0.044-0.005l-0.042-0.007l-0.043-0.009l-0.043-0.01l-0.041-0.012
		l-0.041-0.014l-0.04-0.015l-0.039-0.016l-0.038-0.018l-0.035-0.019l-0.036-0.02l-0.034-0.022l-0.032-0.024l-0.032-0.026
		l-0.029-0.025l-0.028-0.027l-0.027-0.031l-0.025-0.03l-0.021-0.033L21.05,28.78l-0.019-0.036l-0.016-0.036l-0.016-0.038
		l-0.013-0.04l-0.011-0.041l-0.009-0.042l-0.005-0.043l-0.003-0.046l-0.002-0.045l0.002-0.054l0.005-0.054l0.007-0.052l0.011-0.053
		l0.016-0.051l0.016-0.05l0.02-0.049l0.023-0.046l0.026-0.046l0.026-0.045l0.031-0.043l0.032-0.043l0.036-0.04l0.035-0.04
		l0.039-0.037l0.041-0.036l0.042-0.035l0.045-0.033l0.044-0.031l0.048-0.028l0.048-0.027l0.048-0.025l0.051-0.023l0.052-0.02
		l0.054-0.019l0.054-0.016l0.053-0.014l0.055-0.011l0.055-0.01l0.057-0.006l0.056-0.004l0.057-0.001l0.035,0.001l0.034,0
		l0.034,0.004l0.034,0.003l0.034,0.005l0.034,0.005l0.032,0.006l0.032,0.008l0.032,0.009l0.032,0.009l0.032,0.011l0.032,0.012
		l0.032,0.013l0.032,0.013l0.03,0.016l0.032,0.015l0.014,0.007l0.018,0.007l0.02,0.01l0.019,0.011l0.021,0.012l0.019,0.012
		l0.017,0.013l0.013,0.011l0.005,0.009l0.005,0.008l0.003,0.008l0.004,0.009l0.003,0.009l0.002,0.011l0.001,0.009v0.011L22.816,27.8
		l-0.003,0.029l-0.005,0.034L22.8,27.901l-0.011,0.037l-0.016,0.033l-0.022,0.028l-0.03,0.019l-0.043,0.007l-0.023-0.002
		l-0.021-0.008l-0.016-0.013l-0.012-0.016l-0.011-0.019l-0.009-0.019l-0.013-0.038l-0.007-0.035l-0.001-0.017l-0.005-0.016
		l-0.004-0.016l-0.003-0.015l-0.005-0.016L22.54,27.78l-0.007-0.015l-0.007-0.014l-0.009-0.014l-0.009-0.015l-0.011-0.013
		l-0.011-0.013l-0.012-0.014l-0.013-0.013l-0.017-0.015l-0.016-0.014L22.41,27.63l-0.02-0.011l-0.018-0.01l-0.02-0.009l-0.02-0.008
		l-0.019-0.008l-0.021-0.006l-0.021-0.005l-0.02-0.005l-0.021-0.003l-0.023-0.003l-0.021,0.049l-0.022,0.049h-0.021l-0.043-0.049
		l-0.039-0.021l-0.04-0.005l-0.039,0.003l-0.036,0.009l-0.036,0.013l-0.034,0.016l-0.032,0.019l-0.032,0.021l-0.028,0.023
		l-0.029,0.024l-0.028,0.027l-0.025,0.027l-0.025,0.03l-0.022,0.031l-0.021,0.032l-0.021,0.033l-0.02,0.034l-0.018,0.036
		l-0.016,0.036l-0.016,0.036l-0.014,0.038l-0.013,0.038l-0.011,0.036l-0.011,0.038l-0.006,0.037l-0.007,0.038l-0.007,0.037
		l-0.004,0.037l-0.003,0.036l-0.003,0.036v0.035v0.023l0.001,0.023l0.002,0.023l0.002,0.022l0.003,0.023l0.003,0.023l0.005,0.023
		l0.005,0.023l0.007,0.023l0.006,0.022l0.01,0.021l0.009,0.021l0.01,0.021l0.011,0.02l0.013,0.019l0.014,0.017l0.018,0.022
		l0.018,0.021l0.021,0.019l0.021,0.018l0.021,0.016l0.022,0.016l0.025,0.014l0.025,0.012l0.026,0.011l0.027,0.009l0.027,0.008
		l0.028,0.007l0.028,0.004l0.03,0.005l0.029,0.002l0.03,0.001l0.04-0.001l0.039-0.005l0.04-0.006l0.037-0.008l0.035-0.011
		l0.038-0.013l0.036-0.014l0.034-0.016l0.033-0.017l0.034-0.02l0.032-0.021l0.034-0.021l0.03-0.022l0.031-0.024l0.031-0.025
		l0.031-0.025l0.009-0.005l0.016-0.013l0.009-0.007l0.009-0.006l0.009-0.005l0.011-0.004l0.012-0.001l0.019,0.001l0.02,0.005
		l0.017,0.007l0.015,0.011l0.013,0.014l0.009,0.015l0.005,0.017l0.004,0.017l-0.002,0.021l-0.005,0.02l-0.009,0.021l-0.013,0.021
		L22.65,28.868z M23.277,28.937h-0.304c-0.023,0-0.041-0.001-0.041-0.022s0.018-0.023,0.041-0.023h0.304
		c0.021,0,0.039,0.001,0.039,0.023S23.299,28.937,23.277,28.937z M23.861,29.03l-0.041,0.048l-0.013,0.014l-0.011,0.014
		l-0.014,0.012l-0.011,0.012l-0.014,0.011l-0.014,0.01l-0.015,0.009l-0.016,0.006l-0.017,0.006l-0.018,0.005l-0.021,0.004
		l-0.021,0.001l-0.025,0.001l-0.028-0.001l-0.026-0.001l-0.022-0.002l-0.021-0.005l-0.018-0.006l-0.016-0.007l-0.015-0.008
		l-0.014-0.011l-0.013-0.011l-0.011-0.014l-0.01-0.016l-0.009-0.017l-0.011-0.019l-0.011-0.021l-0.01-0.024l-0.01-0.024
		l-0.015-0.027l-0.012-0.03l-0.015-0.031l-0.014-0.031l-0.012-0.033l-0.013-0.033l-0.024-0.069l-0.013-0.036l-0.01-0.036
		l-0.012-0.036l-0.011-0.038l-0.021-0.076l-0.011-0.037l-0.009-0.037l-0.02-0.076l-0.009-0.037l-0.016-0.076l-0.016-0.073
		L23.1,28.111l-0.013-0.07l-0.006-0.034l-0.01-0.065l-0.007-0.063l-0.017-0.141l-0.005-0.049l-0.003-0.025l-0.005-0.022
		l-0.007-0.021l-0.009-0.02l-0.014-0.018l-0.014-0.014l-0.011-0.006l-0.009-0.006l-0.007-0.007l-0.007-0.008l-0.003-0.008
		l-0.003-0.011l-0.002-0.012l-0.002-0.013l0.004-0.023l0.012-0.021l0.018-0.016L23,27.426l0.025-0.005l0.025-0.002l0.025-0.011
		l0.025-0.002h0.441l0.021,0.001l0.023-0.005l0.023,0.008l0.021,0.009l0.02,0.011l0.014,0.014l0.013,0.019l0.003,0.025l-0.007,0.034
		l-0.021,0.023l-0.028,0.016l-0.034,0.013l-0.034,0.018l-0.026,0.027l-0.02,0.039l-0.007,0.059v0.028l0.002,0.031l0.003,0.033
		l0.002,0.034l0.005,0.035l0.005,0.036l0.005,0.038l0.005,0.036l0.007,0.038l0.009,0.037l0.005,0.036l0.009,0.036l0.006,0.033
		l0.016,0.064l0.009,0.029l0.007,0.037l0.018,0.07l0.009,0.035l0.009,0.037l0.011,0.035l0.011,0.036l0.011,0.034l0.011,0.035
		l0.014,0.034l0.013,0.033l0.013,0.034l0.016,0.033l0.014,0.033l0.016,0.033l0.012,0.026l0.333-0.522l0.048-0.09l0.019-0.038
		l0.021-0.043l0.048-0.09l0.023-0.047l0.021-0.046l0.02-0.045l0.02-0.044l0.016-0.042l0.014-0.037l0.011-0.034l0.007-0.029
		l0.001-0.022v-0.016l-0.005-0.015l-0.006-0.012l-0.008-0.01l-0.009-0.009l-0.015-0.008l-0.014-0.008l-0.016-0.007l-0.027-0.016
		l-0.01-0.007l-0.011-0.008l-0.007-0.01l-0.007-0.009l-0.005-0.013l-0.001-0.015l0.003-0.026l0.009-0.021l0.013-0.017l0.018-0.013
		l0.02-0.007l0.023-0.002l0.023-0.013l0.024-0.003h0.317l0.023,0.002l0.025-0.005l0.021,0.009l0.018,0.01l0.018,0.011l0.012,0.016
		l0.01,0.021l0.001,0.026l-0.001,0.015l-0.004,0.014l-0.005,0.013l-0.008,0.011l-0.011,0.011l-0.011,0.009l-0.014,0.008
		l-0.014,0.009l-0.03,0.023l-0.009,0.005l-0.005,0.006l-0.007,0.006l-0.005,0.009l-0.009,0.012l-0.076,0.149l-0.464,0.834
		L23.861,29.03z M26.468,27.829l-0.011,0.034l-0.011,0.038l-0.013,0.036l-0.018,0.034l-0.023,0.028l-0.032,0.019l-0.043,0.007
		l-0.023-0.002l-0.018-0.008l-0.016-0.013l-0.012-0.016l-0.011-0.019l-0.01-0.019l-0.011-0.038l-0.003-0.018l-0.007-0.033
		l-0.004-0.016l-0.005-0.015l-0.005-0.016l-0.005-0.016l-0.005-0.014l-0.007-0.016l-0.007-0.014l-0.009-0.014l-0.009-0.015
		l-0.009-0.013l-0.012-0.013l-0.013-0.015l-0.013-0.012l-0.016-0.015l-0.018-0.014l-0.018-0.012l-0.02-0.011l-0.018-0.01
		l-0.02-0.009l-0.02-0.009l-0.021-0.007l-0.021-0.006l-0.019-0.005l-0.021-0.005l-0.021-0.003l-0.021-0.002l-0.021,0.049
		l-0.023,0.049h-0.023l-0.041-0.049L25.7,27.589l-0.041-0.005l-0.038,0.003l-0.035,0.009l-0.036,0.013l-0.034,0.016l-0.034,0.019
		l-0.03,0.021l-0.032,0.022l-0.027,0.025l-0.027,0.027l-0.027,0.027l-0.025,0.03l-0.022,0.031l-0.021,0.032l-0.021,0.033
		l-0.02,0.034l-0.016,0.036l-0.018,0.036l-0.014,0.036l-0.014,0.037l-0.015,0.037l-0.009,0.038l-0.011,0.038l-0.008,0.037
		l-0.007,0.038l-0.006,0.036l-0.005,0.037l-0.003,0.037l-0.002,0.036v0.035v0.023l0.002,0.023v0.022l0.005,0.024l0.001,0.023
		l0.005,0.023l0.005,0.023l0.005,0.023l0.005,0.023l0.01,0.022l0.008,0.021l0.011,0.021l0.009,0.021l0.013,0.02l0.012,0.018
		l0.031,0.04l0.02,0.021l0.02,0.019l0.021,0.018l0.021,0.016l0.023,0.016l0.025,0.014l0.023,0.012l0.029,0.011l0.027,0.01
		l0.026,0.006l0.029,0.007l0.027,0.005l0.03,0.003l0.028,0.002l0.029,0.001l0.041-0.001l0.04-0.004l0.039-0.006l0.039-0.009
		l0.038-0.01l0.036-0.013l0.036-0.015l0.036-0.016l0.033-0.017l0.034-0.019l0.032-0.022l0.032-0.021l0.031-0.022l0.031-0.024
		l0.031-0.024l0.028-0.024l0.011-0.006l0.025-0.02l0.009-0.006l0.01-0.006l0.011-0.004l0.013,0l0.019,0l0.018,0.005l0.018,0.007
		l0.015,0.012l0.014,0.013l0.009,0.015l0.005,0.017l0.004,0.017l-0.002,0.021l-0.005,0.02l-0.011,0.021l-0.011,0.021l-0.014,0.02
		l-0.018,0.021l-0.017,0.019l-0.021,0.019l-0.021,0.019l-0.021,0.018l-0.021,0.016l-0.021,0.016l-0.02,0.014l-0.02,0.013
		l-0.02,0.011l-0.016,0.01l-0.032,0.016l-0.032,0.016l-0.032,0.015l-0.035,0.013l-0.032,0.014l-0.036,0.011l-0.036,0.011
		l-0.036,0.009l-0.038,0.008l-0.033,0.008L25.7,29.17l-0.036,0.004l-0.036,0.005l-0.037,0.002l-0.036,0.001l-0.036,0.002
		l-0.045-0.002l-0.046-0.001l-0.044-0.004l-0.045-0.005l-0.044-0.007l-0.045-0.009l-0.041-0.01l-0.042-0.012l-0.039-0.014
		l-0.039-0.015l-0.04-0.016l-0.038-0.018l-0.038-0.019l-0.036-0.02l-0.033-0.022l-0.032-0.024l-0.03-0.026l-0.03-0.025l-0.029-0.027
		l-0.027-0.031l-0.023-0.03l-0.025-0.033l-0.02-0.034l-0.02-0.035l-0.016-0.038l-0.017-0.038l-0.012-0.04l-0.013-0.041l-0.009-0.042
		L24.6,28.504l-0.004-0.046v-0.045v-0.054l0.005-0.054l0.009-0.052l0.011-0.053l0.014-0.051l0.018-0.05l0.019-0.049l0.023-0.046
		l0.027-0.046l0.027-0.045l0.03-0.043l0.034-0.043l0.033-0.04l0.038-0.04l0.039-0.037l0.04-0.036l0.042-0.035l0.044-0.033
		l0.046-0.031l0.046-0.028l0.05-0.027l0.048-0.025l0.052-0.023l0.051-0.02l0.053-0.019l0.051-0.016l0.056-0.014l0.055-0.011
		l0.056-0.01l0.055-0.006l0.057-0.004l0.055-0.001l0.036,0.001l0.036,0l0.034,0.004l0.032,0.003l0.036,0.005l0.032,0.005
		l0.034,0.006l0.032,0.008l0.032,0.009l0.03,0.009l0.032,0.011l0.032,0.012l0.032,0.013l0.03,0.013l0.03,0.016l0.032,0.015
		l0.016,0.007l0.018,0.007l0.021,0.01l0.021,0.011l0.021,0.012l0.018,0.012l0.016,0.013l0.013,0.011l0.005,0.008l0.005,0.009
		l0.003,0.008l0.005,0.009l0.002,0.009l0.018,0.011l0.016,0.009v0.012L26.468,27.829z"/>
</g>
</svg>
