<?xml version="1.0" encoding="utf-8"?>
<!-- Generator: Adobe Illustrator 18.1.1, SVG Export Plug-In . SVG Version: 6.00 Build 0)  -->
<!DOCTYPE svg PUBLIC "-//W3C//DTD SVG 1.0//EN" "http://www.w3.org/TR/2001/REC-SVG-20010904/DTD/svg10.dtd">
<svg version="1.0" id="Camada_1" xmlns="http://www.w3.org/2000/svg" xmlns:xlink="http://www.w3.org/1999/xlink" x="0px" y="0px"
	 viewBox="0 0 290.701 389.579" enable-background="new 0 0 290.701 389.579" xml:space="preserve">
<g id="EvkwKi.tif">
	<g>
		<path d="M290.701,73.782c-1.635,7.926-2.806,15.984-5.016,23.746c-3.283,11.532-9.546,21.538-18.149,29.901
			c-2.647,2.574-3.494,5.202-3.49,8.775c0.085,76.806,0.037,153.613,0.107,230.42c0.007,7.935-1.634,14.833-8.864,19.347
			c-7.358,4.594-14.736,4.158-22.243,0.369c-7.134-3.601-9.357-9.498-9.344-17.212c0.128-76.973,0.054-153.946,0.157-230.919
			c0.006-4.123-0.982-6.776-4.499-9.465c-12.712-9.722-18.301-23.71-21.071-38.869c-4.038-22.09-2.817-43.757,7.61-64.123
			c5.688-11.11,13.773-20.1,26.165-23.908c18.615-5.721,35.59,2.059,46.32,20.802c6.628,11.578,10.286,24.042,11.462,37.289
			c0.144,1.628,0.564,3.232,0.856,4.847C290.701,67.782,290.701,70.782,290.701,73.782z"/>
		<path d="M168.724,369.058c0,9.701-5.466,17.09-14.484,19.613c-9.429,2.638-17.612-0.467-22.426-9.367
			c-1.952-3.608-3.363-8.028-3.377-12.085c-0.212-60.148,0.898-120.298,0.716-180.447c-0.009-3-2.31-6.517-4.159-8.902
			c-8.592-11.085-12.874-22.802-12.53-37.463c0.708-30.141-0.432-60.316-0.896-90.467c-0.399-25.918,23.838-47.675,50.793-46.044
			c4.462,0.27,6.361,2.847,6.361,8.266C168.728,55.816,168.727,309.742,168.724,369.058z"/>
		<path d="M20.657,119.292c0.009-3.319-0.881-5.507-3.606-7.456C5.695,103.714-0.575,93.493,0.042,78.572
			c0.941-22.786,0.241-45.64,0.251-68.466c0.002-5.418,1.575-7.421,5.71-7.4c3.736,0.019,6.064,2.716,6.079,7.523
			c0.061,19.16,0.018,38.32,0.046,57.479c0.003,1.819,0.109,3.657,0.389,5.452c0.468,2.999,2.051,5.08,5.375,4.503
			c2.958-0.513,4.898-1.86,4.867-5.611c-0.173-20.658-0.099-41.318-0.07-61.977c0.007-5.149,2.838-8.024,7.109-7.282
			c4.241,0.737,5.401,3.479,5.374,7.565c-0.133,20.159-0.088,40.319,0,60.478c0.007,1.694,0.274,3.885,1.322,4.985
			c3.337,3.501,7.687,2.313,9.149-2.37c0.63-2.018,0.891-4.227,0.899-6.351c0.068-18.993,0.084-37.987,0.012-56.98
			c-0.016-4.102,0.579-7.428,5.699-7.428c4.393,0,6.466,2.363,6.469,7.422c0.01,20.16-0.001,40.319,0.009,60.479
			c0.002,4.408,2.354,7.555,5.647,7.04c3.735-0.584,5.504-2.869,5.475-6.971c-0.145-20.325-0.076-40.652-0.059-60.978
			c0.004-4.59,2.465-7.312,6.371-6.915c3.238,0.329,4.993,2.009,4.983,5.576c-0.073,25.657,0.089,51.316-0.112,76.972
			c-0.088,11.239-7.903,18.318-15.364,25.14c-2.491,2.278-3.61,4.17-3.615,7.437c-0.087,55.141-1.049,223.033-1.322,251.838
			c-0.125,13.203-13.639,23.009-26.11,18.49c-9.133-3.309-14.313-8.209-14.201-19.522C20.827,327.553,20.544,161.277,20.657,119.292
			z"/>
	</g>
</g>
</svg>
