<?xml version="1.0" encoding="utf-8"?>
<!-- Generator: Adobe Illustrator 16.0.0, SVG Export Plug-In . SVG Version: 6.00 Build 0)  -->
<!DOCTYPE svg PUBLIC "-//W3C//DTD SVG 1.1//EN" "http://www.w3.org/Graphics/SVG/1.1/DTD/svg11.dtd">
<svg version="1.1" id="Layer_1" xmlns="http://www.w3.org/2000/svg" xmlns:xlink="http://www.w3.org/1999/xlink" x="0px" y="0px"
	 width="445.5px" height="417.1px" viewBox="0 0 445.5 417.1" enable-background="new 0 0 445.5 417.1" xml:space="preserve">
<g id="LEfZaj_1_">
	<g>
		<path d="M219.1,0c2.7,0,5.3,0,8,0c3.9,2.1,8.3,3.5,11.6,6.3c19.6,16.3,39,32.8,58.4,49.3c38.8,32.8,77.5,65.6,116.3,98.5
			c8.1,6.9,16.4,13.6,24.3,20.8c9.8,9,10.5,23.6,1.9,33.7c-8.3,9.8-22.8,11.2-33.3,3.3c-1.1-0.8-2.3-1.6-4.1-2.9c0,3,0,5.1,0,7.2
			c0,61.2,0,122.3,0,183.5c0,11.9-5.5,17.5-17.2,17.5c-35,0-70,0-105,0c-1.6,0-3.1,0-5.1,0c0-56.1,0-111.3,0-166.6
			c-35.1,0-69.7,0-104.9,0c0,55.7,0,110.9,0,166.6c-2,0-3.7,0-5.3,0c-34.7,0-69.3,0-104,0c-12.1,0-17.7-5.6-17.7-17.6
			c0-61.5,0-123,0-184.5c0-1.8,0-3.7,0-6.3c-2.2,1.6-3.3,2.5-4.6,3.4c-9.9,7.2-22.7,6.2-31.5-2.3c-8.8-8.4-11.3-25.6,4-38.3
			C72,120.4,132.5,68.7,193.3,17.4C201.3,10.7,208.3,2.5,219.1,0z"/>
	</g>
</g>
</svg>
