<?xml version="1.0" encoding="utf-8"?>
<!-- Generator: Adobe Illustrator 16.0.4, SVG Export Plug-In . SVG Version: 6.00 Build 0)  -->
<!DOCTYPE svg PUBLIC "-//W3C//DTD SVG 1.0//EN" "http://www.w3.org/TR/2001/REC-SVG-20010904/DTD/svg10.dtd">
<svg version="1.0" id="Layer_1" xmlns="http://www.w3.org/2000/svg" xmlns:xlink="http://www.w3.org/1999/xlink" x="0px" y="0px"
	 width="41.161px" height="41.161px" viewBox="0 0 41.161 41.161" enable-background="new 0 0 41.161 41.161" xml:space="preserve">
<circle fill="#263C70" cx="20.58" cy="20.581" r="20.58"/>
<g>
	<path fill="#FFFFFF" d="M12.019,21.366c0-2.264,0-4.523,0-6.774c-0.563,0-1.166,0-1.729,0c0,3.979,0,7.959,0,11.979
		c0.563,0,1.166,0,1.729,0c0-1.166,0-2.296,0-3.436c5.708,0.027,11.496-0.054,17.124,0.041c0,1.125,0,2.27,0,3.395
		c0.563,0,1.166,0,1.729,0c0-1.729,0-3.449,0-5.164C24.6,21.379,18.208,21.459,12.019,21.366z"/>
	<path fill="#FFFFFF" d="M14.752,19.195c0.823-0.066,1.423-0.727,1.527-1.367c0.207-1.254-0.805-2.215-2.01-2.01
		c-0.65,0.111-0.99,0.439-1.206,0.844C12.394,17.919,13.473,19.298,14.752,19.195z"/>
	<path fill="#FFFFFF" d="M13.104,20.942h3.939c0.028,0,0.054-0.003,0.081-0.005v0.005h13.747v-3.939c0-0.443-0.36-0.804-0.804-0.804
		H17.124v3.462c-0.026-0.003-0.053-0.005-0.081-0.005h-3.939c-0.355,0-0.644,0.288-0.644,0.643S12.749,20.942,13.104,20.942z"/>
</g>
</svg>
