<?xml version="1.0" encoding="utf-8"?>
<!-- Generator: Adobe Illustrator 16.0.0, SVG Export Plug-In . SVG Version: 6.00 Build 0)  -->
<!DOCTYPE svg PUBLIC "-//W3C//DTD SVG 1.1//EN" "http://www.w3.org/Graphics/SVG/1.1/DTD/svg11.dtd">
<svg version="1.1" id="Camada_1" xmlns="http://www.w3.org/2000/svg" xmlns:xlink="http://www.w3.org/1999/xlink" x="0px" y="0px"
	 width="11px" height="14px" viewBox="1.5 0 11 14" enable-background="new 1.5 0 11 14" xml:space="preserve">
<g id="PHuk1q.tif">
	<g>
		<path d="M7,14c-0.3-0.3-0.6-0.6-0.9-1c-0.6-0.6-1.2-1.3-1.8-1.9c-0.7-0.8-1.4-1.6-2-2.5C1.9,7.8,1.6,7,1.5,6.1
			c-0.2-1.6,0.3-3,1.3-4.2c0.8-0.9,1.8-1.6,3.1-1.8c1.8-0.3,3.3,0.1,4.7,1.2c0.9,0.8,1.5,1.8,1.8,3.1c0.2,1.1,0.1,2.2-0.4,3.2
			c-0.4,0.8-0.9,1.6-1.5,2.3c-0.7,0.8-1.4,1.7-2.1,2.5C7.9,12.9,7.5,13.4,7,14C7,14,7,14,7,14z M9.9,5.2c-0.1,0-0.1,0-0.2,0
			c-1.8,0-3.5,0-5.3,0c-0.2,0-0.3-0.1-0.3-0.3c0-0.6,0-1.1,0-1.7C4.1,3.1,4.1,3,3.9,3C3.8,3,3.8,3,3.7,3c-0.1,0-0.2,0-0.2,0.2
			c0,1.3,0,2.6,0,3.9c0,0.1,0,0.2,0.1,0.2c0.1,0,0.2,0,0.2,0c0.1,0,0.2-0.1,0.2-0.2c0-0.2,0-0.4,0-0.7c1.9,0,3.8,0,5.7,0
			c0,0.2,0,0.5,0,0.7c0,0.1,0,0.2,0.2,0.2c0.1,0,0.2,0,0.2,0c0.1,0,0.2-0.1,0.2-0.2c0-0.9,0-1.8,0-2.7c0-0.3,0-0.4-0.4-0.3
			c-0.1,0-0.1,0.1-0.2,0.1c0,0.1,0,0.1,0,0.2C9.9,4.7,9.9,4.9,9.9,5.2z M9.4,4.8c0-0.1,0-0.2,0-0.3C9.4,4.3,9.3,4.1,9,4
			C8.7,4,8.5,3.9,8.2,3.9c-0.4,0-0.9,0-1.3,0c-0.1,0-0.2,0-0.3,0C6.2,4.1,5.9,4.4,6,4.8C7.1,4.8,8.3,4.8,9.4,4.8z M5.2,3.4
			c-0.4,0-0.7,0.3-0.7,0.7c0,0.4,0.3,0.7,0.7,0.7c0.4,0,0.7-0.3,0.7-0.7C5.9,3.8,5.6,3.4,5.2,3.4z"/>
		<path fill="none" d="M9.9,5.2c0-0.3,0-0.5,0-0.8c0-0.1,0-0.2,0-0.2c0-0.1,0.1-0.1,0.2-0.1c0.4,0,0.4,0,0.4,0.3c0,0.9,0,1.8,0,2.7
			c0,0.1-0.1,0.2-0.2,0.2c-0.1,0-0.2,0-0.2,0c-0.1,0-0.2-0.1-0.2-0.2c0-0.2,0-0.5,0-0.7c-1.9,0-3.8,0-5.7,0c0,0.2,0,0.4,0,0.7
			c0,0.1,0,0.2-0.2,0.2c-0.1,0-0.2,0-0.2,0c-0.1,0-0.1-0.1-0.1-0.2c0-1.3,0-2.6,0-3.9C3.6,3.1,3.6,3,3.7,3c0.1,0,0.1,0,0.2,0
			c0.2,0,0.2,0.1,0.2,0.2c0,0.6,0,1.1,0,1.7c0,0.2,0.1,0.3,0.3,0.3c1.8,0,3.5,0,5.3,0C9.8,5.2,9.8,5.2,9.9,5.2z"/>
		<path fill="none" d="M9.4,4.8c-1.1,0-2.3,0-3.4,0C5.9,4.4,6.2,4.1,6.6,4c0.1,0,0.2,0,0.3,0c0.4,0,0.9,0,1.3,0C8.5,3.9,8.7,4,9,4
			c0.3,0.1,0.4,0.2,0.4,0.5C9.4,4.6,9.4,4.7,9.4,4.8z"/>
		<path fill="none" d="M5.2,3.4c0.4,0,0.7,0.4,0.7,0.7c0,0.4-0.3,0.7-0.7,0.7c-0.4,0-0.7-0.3-0.7-0.7C4.5,3.7,4.8,3.5,5.2,3.4z"/>
	</g>
</g>
</svg>
