<?xml version="1.0" encoding="utf-8"?>
<!-- Generator: Adobe Illustrator 16.0.0, SVG Export Plug-In . SVG Version: 6.00 Build 0)  -->
<!DOCTYPE svg PUBLIC "-//W3C//DTD SVG 1.1//EN" "http://www.w3.org/Graphics/SVG/1.1/DTD/svg11.dtd">
<svg version="1.1" id="Camada_1" xmlns="http://www.w3.org/2000/svg" xmlns:xlink="http://www.w3.org/1999/xlink" x="0px" y="0px"
   width="11px" height="14px" viewBox="1.5 0 11 14" enable-background="new 1.5 0 11 14" xml:space="preserve">
<g id="LleMdQ.tif">
  <g>
    <path d="M7,14c-0.2-0.2-0.3-0.3-0.5-0.5c-0.8-0.9-1.7-1.8-2.5-2.8c-0.5-0.6-1-1.2-1.4-1.8c-0.5-0.7-0.9-1.6-1-2.5
      C1.3,4.9,1.7,3.4,2.7,2.1c0.8-1.1,1.9-1.7,3.2-2c1.7-0.3,3.2,0,4.5,1.1c1.1,0.8,1.7,1.9,2,3.2c0.2,1.1,0.1,2.2-0.4,3.2
      c-0.4,0.8-0.9,1.6-1.5,2.3c-0.7,0.8-1.4,1.7-2.1,2.5C7.9,12.9,7.5,13.4,7,14C7,14,7,14,7,14z M7,0.7c-2.7,0-4.8,2.1-4.8,4.8
      c0,2.7,2.1,4.8,4.8,4.8c2.7,0,4.8-2.1,4.8-4.8C11.8,2.8,9.6,0.7,7,0.7z"/>
    <path fill="none" d="M7,0.7c2.7,0,4.8,2.1,4.8,4.8c0,2.7-2.1,4.8-4.8,4.8c-2.7,0-4.8-2.2-4.8-4.8C2.2,2.8,4.3,0.7,7,0.7z M4.1,6.4
      c1.9,0,3.8,0,5.7,0c0,0.2,0,0.5,0,0.7c0,0.1,0,0.2,0.1,0.2c0.1,0,0.3,0,0.4,0c0,0,0.1-0.1,0.1-0.1c0-1,0-1.9,0-2.9
      c0,0-0.1-0.1-0.1-0.1C10,4,9.9,4.1,9.9,4.4c0,0.2,0,0.4,0,0.6c0,0,0,0.1,0,0.1c-0.1,0-0.1,0-0.2,0c-1.8,0-3.5,0-5.3,0
      c-0.2,0-0.3-0.1-0.3-0.3c0-0.6,0-1.1,0-1.7C4.1,3.1,4.1,3,3.9,3C3.9,3,3.8,3,3.7,3c-0.1,0-0.2,0-0.2,0.2c0,1.3,0,2.6,0,3.9
      c0,0.1,0,0.2,0.1,0.2c0.1,0,0.2,0,0.2,0c0.1,0,0.2-0.1,0.2-0.2C4.1,6.8,4.1,6.6,4.1,6.4z M9.4,4.8c0-0.1,0-0.2,0-0.3
      c0-0.3-0.1-0.4-0.4-0.5C8.7,4,8.4,4,8.2,3.9c-0.4,0-0.9,0-1.3,0c-0.1,0-0.2,0-0.3,0C6.2,4.1,5.9,4.4,6,4.8
      C7.1,4.8,8.3,4.8,9.4,4.8z M5.2,3.4c-0.4,0-0.7,0.3-0.7,0.7c0,0.4,0.3,0.7,0.7,0.7c0.4,0,0.7-0.3,0.7-0.7C5.9,3.7,5.6,3.5,5.2,3.4
      z"/>
    <path d="M4.1,6.4c0,0.2,0,0.5,0,0.7c0,0.1,0,0.2-0.2,0.2c-0.1,0-0.2,0-0.2,0c-0.1,0-0.1-0.1-0.1-0.2c0-1.3,0-2.6,0-3.9
      C3.6,3.1,3.6,3,3.7,3c0.1,0,0.1,0,0.2,0c0.2,0,0.2,0.1,0.2,0.2c0,0.6,0,1.1,0,1.7c0,0.2,0.1,0.3,0.3,0.3c1.8,0,3.5,0,5.3,0
      c0,0,0.1,0,0.2,0c0,0,0-0.1,0-0.1c0-0.2,0-0.4,0-0.6c0-0.3,0.1-0.4,0.4-0.3c0,0,0.1,0.1,0.1,0.1c0,1,0,1.9,0,2.9
      c0,0-0.1,0.1-0.1,0.1c-0.1,0-0.3,0-0.4,0c0,0-0.1-0.1-0.1-0.2c0-0.2,0-0.5,0-0.7C8,6.4,6.1,6.4,4.1,6.4z"/>
    <path d="M9.4,4.8c-1.1,0-2.2,0-3.4,0C5.9,4.4,6.2,4.1,6.6,4c0.1,0,0.2,0,0.3,0c0.4,0,0.9,0,1.3,0C8.4,4,8.7,4,9,4.1
      c0.2,0.1,0.3,0.2,0.4,0.5C9.4,4.6,9.4,4.7,9.4,4.8z"/>
    <path d="M5.2,3.4c0.4,0,0.7,0.3,0.7,0.7c0,0.4-0.3,0.7-0.7,0.7c-0.4,0-0.7-0.3-0.7-0.7C4.5,3.7,4.8,3.5,5.2,3.4z"/>
  </g>
</g>
</svg>
