<svg id="Camada_1" data-name="Camada 1" xmlns="http://www.w3.org/2000/svg" viewBox="0 0 140.83 115.79"><defs><style>.cls-1{fill:#fff9b7;}</style></defs><title>icon-mala-mini-convite</title><path class="cls-1" d="M853.4,353.75H818.2a13.23,13.23,0,0,0-13-10.87h-18a13.23,13.23,0,0,0-13,10.87h-39a11.34,11.34,0,0,0-11.34,11.34v75.14a11.34,11.34,0,0,0,11.34,11.34H750a5,5,0,0,0-.09.71c0,3.52,3.6,6.38,8,6.38s8-2.86,8-6.38a5,5,0,0,0-.09-.71H827a5,5,0,0,0-.09.71c0,3.52,3.6,6.38,8,6.38s8-2.86,8-6.38a5,5,0,0,0-.09-.71H853.4a11.34,11.34,0,0,0,11.34-11.34V365.09A11.34,11.34,0,0,0,853.4,353.75Zm-64.51-6.14H804c5.53,0,8.64.76,8.73,6.14H780.15C780.25,348.36,783.36,347.61,788.89,347.61Z" transform="translate(-723.91 -342.88)"/></svg>