<?xml version="1.0" encoding="utf-8"?>
<!-- Generator: Adobe Illustrator 16.0.0, SVG Export Plug-In . SVG Version: 6.00 Build 0)  -->
<!DOCTYPE svg PUBLIC "-//W3C//DTD SVG 1.1//EN" "http://www.w3.org/Graphics/SVG/1.1/DTD/svg11.dtd">
<svg version="1.1" id="Camada_1" xmlns="http://www.w3.org/2000/svg" xmlns:xlink="http://www.w3.org/1999/xlink" x="0px" y="0px"
	 width="50px" height="50px" viewBox="10 0 50 50" enable-background="new 10 0 50 50" xml:space="preserve">
<g>
	<path d="M60,23.5c0,1,0,2,0,2.9c0,0.1-0.1,0.3-0.1,0.4c-0.2,1.2-0.3,2.5-0.6,3.7C58,36.3,55,41,50.5,44.6
		c-3.3,2.6-7,4.3-11.2,5c-0.9,0.2-1.9,0.3-2.8,0.4c-1,0-2,0-2.9,0c-0.1,0-0.3-0.1-0.4-0.1c-1.1-0.1-2.1-0.2-3.2-0.4
		c-5.9-1.3-10.7-4.2-14.5-8.9c-4.8-6.1-6.4-13-4.9-20.6c1.1-5.6,3.9-10.2,8.2-13.9c4-3.4,8.6-5.4,13.8-5.9c3.2-0.3,6.4,0,9.5,0.9
		c5.6,1.7,10.1,5,13.5,9.8c2.2,3.2,3.6,6.7,4.2,10.6C59.8,22.1,59.9,22.8,60,23.5z"/>
	<g>
		<path fill="#FFFFFF" d="M31.4,26.1c0,0.3,0,0.4,0,0.6c0,4.8,0,9.7,0,14.5c0,1.1,0.5,1.6,1.6,1.6c1.3,0,2.6,0,3.9,0
			c1.2,0,1.7-0.5,1.7-1.7c0-1.9,0-3.8,0-5.7c0-4.6,0-9.1,0-13.7c0-1.4-0.9-2.4-2.3-2.4c-2.7,0-5.4,0-8.1,0c-1.2,0-2,0.7-2,1.9
			c0,0.9,0,1.9,0,2.8c0,1.1,0.8,1.8,1.9,1.8C29.1,26.1,30.2,26.1,31.4,26.1z"/>
		<path fill="#FFFFFF" d="M34.2,15.8C34.2,15.9,34.2,15.9,34.2,15.8c0.6,0.1,1.1,0.1,1.7,0.1c1.4,0,2.5-0.9,2.6-2.4
			c0.1-1.1,0.1-2.3,0-3.5c-0.1-1.3-1-2.2-2.3-2.3c-1.3-0.1-2.7-0.1-4,0c-1.4,0.1-2.3,1.2-2.4,2.6c0,1,0,2,0,3c0,1.2,0.9,2.3,2.2,2.4
			C32.7,15.9,33.5,15.8,34.2,15.8z"/>
	</g>
</g>
</svg>
