<?xml version="1.0" encoding="utf-8"?>
<!-- Generator: Adobe Illustrator 16.0.0, SVG Export Plug-In . SVG Version: 6.00 Build 0)  -->
<!DOCTYPE svg PUBLIC "-//W3C//DTD SVG 1.1//EN" "http://www.w3.org/Graphics/SVG/1.1/DTD/svg11.dtd">
<svg version="1.1" id="Layer_1" xmlns="http://www.w3.org/2000/svg" xmlns:xlink="http://www.w3.org/1999/xlink" x="0px" y="0px"
	 width="79.6px" height="86.647px" viewBox="10.3 -0.047 79.6 86.647" enable-background="new 10.3 -0.047 79.6 86.647"
	 xml:space="preserve">
<g>
	<g>
		<path d="M40.2,44.8c-0.4,0.1-0.7,0.3-0.9,0.6c-0.2,0.301-0.3,0.6-0.3,1c0,0.301,0.1,0.6,0.3,0.9c0.2,0.3,0.5,0.5,0.9,0.699V44.8z"
			/>
		<path d="M42.6,54.1c0.3-0.3,0.4-0.7,0.4-1.2c0-0.4-0.101-0.8-0.4-1.1c-0.2-0.301-0.6-0.5-1.2-0.7l0.101,3.601
			C42,54.6,42.3,54.4,42.6,54.1z"/>
		<path d="M30.5,48.5c0.3-0.1,0.6-0.299,0.8-0.6c0.2-0.3,0.3-0.6,0.3-1c0-0.5-0.1-0.8-0.399-1.1c-0.2-0.301-0.601-0.5-1-0.5
			c-0.2,0-0.9,0-2,0H26v3.4h2C29.3,48.701,30.1,48.6,30.5,48.5z"/>
		<path d="M71.7,54.3c0.199,0.199,0.5,0.3,0.8,0.3s0.6-0.101,0.8-0.3c0.2-0.2,0.4-0.6,0.6-1.1C74.1,52.5,74.2,51.4,74.2,49.8
			S74.1,47.1,74,46.5c-0.2-0.6-0.4-1-0.601-1.199C73.2,45.1,72.9,45,72.6,45S72,45.1,71.8,45.3c-0.2,0.199-0.4,0.6-0.6,1.1
			C71,47.1,70.9,48.201,70.9,49.8S71,52.5,71.1,53.1C71.3,53.701,71.5,54.1,71.7,54.3z"/>
		<path d="M61.1,54.3c0.2,0.199,0.5,0.3,0.8,0.3c0.301,0,0.601-0.101,0.801-0.3c0.199-0.2,0.399-0.6,0.6-1.1
			c0.2-0.701,0.3-1.801,0.3-3.4s-0.1-2.7-0.2-3.301C63.2,45.9,63,45.5,62.8,45.3C62.6,45.1,62.3,45,62,45S61.4,45.1,61.2,45.3
			C61,45.5,60.8,45.9,60.6,46.4c-0.2,0.7-0.3,1.801-0.3,3.4s0.1,2.699,0.2,3.3C60.7,53.701,60.9,54.1,61.1,54.3z"/>
		<path d="M81,30.7H19.1c-4.8,0-8.8,3.9-8.8,8.8v38.3c0,4.8,4,8.8,11,8.8h61.9c2.699,0,6.699-3.899,6.699-8.8V39.5
			C89.9,34.7,86,30.7,81,30.7z M69.5,44.4c0.7-1.1,1.8-1.5,3.1-1.5s2.4,0.5,3.101,1.4c0.899,1.1,1.3,3,1.3,5.5
			c0,2.6-0.4,4.4-1.3,5.6C75,56.3,73.9,56.8,72.6,56.8s-2.399-0.5-3.2-1.5c-0.8-1-1.199-2.801-1.199-5.4S68.6,45.5,69.5,44.4z
			 M58.9,44.4c0.7-1.1,1.801-1.5,3.101-1.5s2.399,0.5,3.1,1.4c0.9,1.1,1.3,3,1.3,5.5c0,2.6-0.399,4.4-1.3,5.6
			c-0.7,0.9-1.8,1.4-3.1,1.4s-2.4-0.5-3.2-1.5s-1.2-2.801-1.2-5.4S58,45.5,58.9,44.4z M52.7,45.5C52.4,45.201,52,45,51.4,45
			c-0.5,0-1,0.201-1.3,0.5c-0.3,0.301-0.5,0.9-0.6,1.601L47,46.9c0.2-1.4,0.6-2.5,1.5-3.1c0.899-0.6,1.8-0.9,3.1-0.9
			s2.4,0.4,3.2,1.1c0.8,0.701,1.2,1.601,1.2,2.701c0,0.6-0.101,1.199-0.3,1.799c-0.2,0.601-0.601,1.101-1,1.701
			c-0.301,0.399-0.9,1-1.7,1.699c-0.8,0.801-1.3,1.301-1.601,1.5C51.2,53.6,51,53.9,50.9,54.1h4.9V56.5h-9.1
			c0.1-0.899,0.399-1.799,0.899-2.6c0.5-0.8,1.5-1.9,2.9-3.3c1.2-1.101,1.899-1.8,2.2-2.2c0.399-0.5,0.5-1.1,0.5-1.6
			C53.2,46.201,53,45.8,52.7,45.5z M37.5,49c-0.601-0.699-0.9-1.6-0.9-2.6s0.3-1.9,1-2.6c0.601-0.7,1.5-1.1,2.601-1.2v-0.9h1.3v0.9
			c1,0.1,1.8,0.5,2.399,1c0.601,0.601,1,1.3,1.101,2.2l-2.4,0.3c-0.1-0.7-0.5-1.2-1.1-1.5v3.601c1.5,0.399,2.5,0.899,3,1.6
			c0.5,0.6,0.8,1.5,0.8,2.5c0,1.1-0.3,2.1-1,2.8c-0.7,0.8-1.6,1.2-2.8,1.399v1.701h-1.3V56.5C39.1,56.4,38.3,56,37.6,55.3
			c-0.7-0.7-1.1-1.6-1.3-2.801l2.4-0.299c0.1,0.5,0.3,0.899,0.6,1.299c0.2,0.601,0.5,0.9,0.9,1V50.6C39,50.3,38.1,49.701,37.5,49z
			 M23.3,42.9h5.8c1.5,0,2.5,0.1,3.2,0.4c0.7,0.2,1.2,0.7,1.6,1.3c0.4,0.601,0.601,1.3,0.601,2.101c0,1-0.3,1.899-0.9,2.5
			C33,49.9,32.1,50.3,30.9,50.5C31.5,50.8,32,51.201,32.4,51.6C32.8,52,33.3,52.8,34,53.8l1.7,2.699H32.4l-2-3
			C29.7,52.4,29.2,51.8,29,51.5c-0.3-0.299-0.5-0.5-0.8-0.6c-0.301-0.1-0.801-0.199-1.4-0.199H26V56.4h-2.7V42.9z M19.8,68v-2.299
			c0-0.101,0.1-0.301,0.3-0.301H61.7c0.1,0,0.3,0.1,0.3,0.301V68C62,68.1,61.9,68.3,61.7,68.3H20.1C19.9,68.3,19.7,68.1,19.8,68z
			 M80.5,76.8c0,0.1-0.101,0.3-0.3,0.3H20.1c-0.2,0-0.399-0.101-0.3-0.3V74.5c0-0.1,0.1-0.299,0.3-0.299H80.2
			c0.1,0,0.3,0.1,0.3,0.299V76.8z M80.5,68c0,0.101-0.101,0.301-0.3,0.301H66.1c-0.2,0-0.399-0.2-0.3-0.301v-2.299
			c0-0.101,0.1-0.301,0.3-0.301H80.2c0.1,0,0.3,0.1,0.3,0.301V68z"/>
	</g>
	<path d="M67,28h7c0.899-3,2.7-4.4,5.2-5.3C79.9,24.5,80.6,26,81.3,28h2.2C80,19,76.5,10.3,73,1.6C72.4,0.1,71.4-0.4,69.9,0.2
		c-3.1,1.2-6.3,2.4-9.399,3.7c-14,5.6-28,11.2-42.101,16.8C16.7,21.4,15,22,13.6,22.6c-1.1,0.8-1.399,1.9-0.899,3.1
		c0.3,0.7,0.6,1.4,0.899,2.4h2.2c-0.4-1-0.8-2.3-1.2-3.4c2.8-1.1,5.601-2.1,8.3-3.2c1.101,2,1,3.5,0.2,6.5H32 M62.7,5.1
		C65.4,4,68.1,2.9,71,1.8c1.1,2.9,2.2,5.6,3.3,8.4C70,12.2,64.2,9.7,62.7,5.1z"/>
</g>
</svg>
