<?xml version="1.0" encoding="utf-8"?>
<!-- Generator: Adobe Illustrator 16.0.0, SVG Export Plug-In . SVG Version: 6.00 Build 0)  -->
<!DOCTYPE svg PUBLIC "-//W3C//DTD SVG 1.1//EN" "http://www.w3.org/Graphics/SVG/1.1/DTD/svg11.dtd">
<svg version="1.1" id="Camada_1" xmlns="http://www.w3.org/2000/svg" xmlns:xlink="http://www.w3.org/1999/xlink" x="0px" y="0px"
	 width="66.3px" height="50px" viewBox="1.8 0 66.3 50" enable-background="new 1.8 0 66.3 50" xml:space="preserve">
<g>
	<path d="M8.3,0H5.7C3.6,0,1.8,1.7,1.8,3.9v0.6c0,2.1,1.7,3.9,3.9,3.9h2.6c2.1,0,3.9-1.7,3.9-3.9V3.9C12.2,1.7,10.5,0,8.3,0z"/>
	<path d="M8.3,20.9H5.7c-2.1,0-3.9,1.7-3.9,3.9v0.6c0,2.1,1.7,3.9,3.9,3.9h2.6c2.1,0,3.9-1.7,3.9-3.9v-0.6
		C12.2,22.6,10.5,20.9,8.3,20.9z"/>
	<path d="M8.3,41.6H5.7c-2.1,0-3.9,1.7-3.9,3.9v0.6c0,2.1,1.7,3.9,3.9,3.9h2.6c2.1,0,3.9-1.7,3.9-3.9v-0.6
		C12.2,43.3,10.5,41.6,8.3,41.6z"/>
	<path d="M64.3,0H18.7c-2.1,0-3.9,1.7-3.9,3.9v0.6c0,2.1,1.7,3.9,3.9,3.9h45.6c2.1,0,3.9-1.7,3.9-3.9V3.9C68.2,1.7,66.4,0,64.3,0z"
		/>
	<path d="M64.3,20.9H18.7c-2.1,0-3.9,1.7-3.9,3.9v0.6c0,2.1,1.7,3.9,3.9,3.9h45.6c2.1,0,3.9-1.7,3.9-3.9v-0.6
		C68.2,22.6,66.4,20.9,64.3,20.9z"/>
	<path d="M64.3,41.6H18.7c-2.1,0-3.9,1.7-3.9,3.9v0.6c0,2.1,1.7,3.9,3.9,3.9h45.6c2.1,0,3.9-1.7,3.9-3.9v-0.6
		C68.2,43.3,66.4,41.6,64.3,41.6z"/>
</g>
</svg>
