<?xml version="1.0" encoding="utf-8"?>
<!-- Generator: Adobe Illustrator 16.0.0, SVG Export Plug-In . SVG Version: 6.00 Build 0)  -->
<!DOCTYPE svg PUBLIC "-//W3C//DTD SVG 1.1//EN" "http://www.w3.org/Graphics/SVG/1.1/DTD/svg11.dtd">
<svg version="1.1" id="Layer_1" xmlns="http://www.w3.org/2000/svg" xmlns:xlink="http://www.w3.org/1999/xlink" x="0px" y="0px"
	 width="14px" height="14px" viewBox="0 0 14 14" enable-background="new 0 0 14 14" xml:space="preserve">
<path d="M7,0C3.1,0,0,3.1,0,7c0,0.1,0,0.2,0,0.4l0,0.2h1l0-0.2C1,7.2,1,7.1,1,7c0-3.3,2.7-6,6-6c3.3,0,6,2.7,6,6
	c0,3.1-2.3,5.6-5.3,6l-0.2,0v1l0.2,0c3.6-0.4,6.3-3.4,6.3-7C14,3.1,10.9,0,7,0z"/>
</svg>
