<?xml version="1.0" encoding="utf-8"?>
<!-- Generator: Adobe Illustrator 16.0.0, SVG Export Plug-In . SVG Version: 6.00 Build 0)  -->
<!DOCTYPE svg PUBLIC "-//W3C//DTD SVG 1.0//EN" "http://www.w3.org/TR/2001/REC-SVG-20010904/DTD/svg10.dtd">
<svg version="1.0" id="Layer_1" xmlns="http://www.w3.org/2000/svg" xmlns:xlink="http://www.w3.org/1999/xlink" x="0px" y="0px"
	 width="100px" height="100px" viewBox="0 0 100 100" enable-background="new 0 0 100 100" xml:space="preserve">
<g>
	<path fill="#3680C3" d="M49.886,3.246c-15.353,0-27.793,12.445-27.793,27.795c0,15.351,27.793,45.148,27.793,45.148
		S77.68,46.392,77.68,31.041C77.68,15.691,65.237,3.246,49.886,3.246z M49.62,47.521c-9.512,0-17.222-7.71-17.222-17.222
		c0-9.514,7.71-17.224,17.222-17.224s17.223,7.71,17.223,17.224C66.843,39.812,59.132,47.521,49.62,47.521z"/>
	<rect x="20.342" y="71.928" fill="#FDDA2B" width="15.702" height="3.157"/>
	<rect x="48.309" y="80.349" fill="#FDDA2B" width="3.156" height="12.182"/>
	<rect x="63.099" y="71.929" fill="#FDDA2B" width="16.594" height="3.156"/>
	<g>
		<polygon fill="#0B4E91" points="92.182,92.531 7.819,92.531 24.875,59.366 33.469,59.366 35.773,63.399 27.337,63.399 
			14.43,88.497 85.39,88.497 71.71,63.399 63.752,63.399 66.058,59.366 74.105,59.366 		"/>
	</g>
</g>
</svg>
