<?xml version="1.0" encoding="utf-8"?>
<!-- Generator: Adobe Illustrator 16.0.0, SVG Export Plug-In . SVG Version: 6.00 Build 0)  -->
<!DOCTYPE svg PUBLIC "-//W3C//DTD SVG 1.1//EN" "http://www.w3.org/Graphics/SVG/1.1/DTD/svg11.dtd">
<svg version="1.1" id="Camada_1" xmlns="http://www.w3.org/2000/svg" xmlns:xlink="http://www.w3.org/1999/xlink" x="0px" y="0px"
	 width="35.3px" height="50px" viewBox="17.3 0 35.3 50" enable-background="new 17.3 0 35.3 50" xml:space="preserve">
<g id="DzB98N.tif">
	<g>
		<path d="M35,50C35,50,35,50,35,50c-0.8-0.9-1.5-1.8-2.3-2.7c-1.9-2.3-3.9-4.4-5.7-6.8c-3.5-4.6-6.4-9.6-8.4-15.1
			c-1.1-3.1-1.7-6.2-1.3-9.5c0.4-4.1,2-7.6,4.9-10.5c4.2-4.3,9.4-6.1,15.3-5.2c4.6,0.6,8.3,2.9,11.2,6.5c2.5,3.1,3.7,6.6,3.9,10.6
			c0.1,3.1-0.5,6.2-1.6,9.1c-2.3,6.7-6.1,12.5-10.8,17.7C38.6,46.1,36.8,48,35,50z M27,17.7c0,4.5,3.5,8,8,8.1c4.4,0,8-3.6,8-8
			c0-4.4-3.6-8.1-8-8.1C30.6,9.6,27,13.2,27,17.7z"/>
	</g>
</g>
</svg>
