<?xml version="1.0" encoding="utf-8"?>
<!-- Generator: Adobe Illustrator 16.0.0, SVG Export Plug-In . SVG Version: 6.00 Build 0)  -->
<!DOCTYPE svg PUBLIC "-//W3C//DTD SVG 1.1//EN" "http://www.w3.org/Graphics/SVG/1.1/DTD/svg11.dtd">
<svg version="1.1" id="Layer_1" xmlns="http://www.w3.org/2000/svg" xmlns:xlink="http://www.w3.org/1999/xlink" x="0px" y="0px"
	 width="90.2px" height="75px" viewBox="4.4 12.7 90.2 75" enable-background="new 4.4 12.7 90.2 75" xml:space="preserve">
<path d="M24.5,12.7c0.6,0,1.1,0,1.7,0c0.3,0.1,0.6,0.3,0.9,0.3c9.2,1.1,14.7,8.5,13.1,17.7c-0.1,0.6-0.2,1.3-0.3,2.2
	c6.5-2.2,12.8-2.1,19.3,0c-0.2-1-0.3-1.7-0.5-2.4c-1.4-7.6,2.6-14.6,9.6-16.9c0.9-0.3,1.9-0.6,2.8-0.8c1.6,0,3.1,0,4.7,0
	c0.3,0.1,0.6,0.3,0.9,0.3C85.2,15,91,19.9,93.7,28.1c3.7,11.3-4.5,21.1-16.2,19.9c-0.7-0.1-1.4-0.2-2.3-0.3c0.3,0.7,0.4,1.2,0.6,1.7
	c5.9,15.6-3.1,33.1-19.2,37.2c-1.6,0.4-3.1,0.7-4.7,1c-1.7,0-3.3,0-5,0c-0.5-0.1-0.9-0.3-1.4-0.4c-15.1-2.1-26-16.2-23.9-31.4
	c0.4-2.7,1.2-5.3,1.8-8c-0.8,0.1-1.7,0.2-2.6,0.3c-9,0.9-16.4-5.8-16.4-14.8c0-8.2,6.2-16.4,14.5-19.3
	C20.7,13.5,22.6,13.2,24.5,12.7z"/>
</svg>
