<?xml version="1.0" encoding="utf-8"?>
<!-- Generator: Adobe Illustrator 16.0.0, SVG Export Plug-In . SVG Version: 6.00 Build 0)  -->
<!DOCTYPE svg PUBLIC "-//W3C//DTD SVG 1.0//EN" "http://www.w3.org/TR/2001/REC-SVG-20010904/DTD/svg10.dtd">
<svg version="1.0" id="Layer_1" xmlns="http://www.w3.org/2000/svg" xmlns:xlink="http://www.w3.org/1999/xlink" x="0px" y="0px"
	 width="100px" height="100px" viewBox="0 0 100 100" enable-background="new 0 0 100 100" xml:space="preserve">
<g>
	<path fill-rule="evenodd" clip-rule="evenodd" d="M28.254,77.353c15.539,0,30.979,0,46.467,0
		c0-20.495,0-40.96,0-61.467c-15.469,0-30.908,0-46.467,0c0,0.277,0,0.558,0,0.838c0,4.528,0.007,9.057-0.008,13.585
		c-0.002,0.553-0.06,1.119-0.188,1.655c-0.469,1.925-2.043,3.068-4.066,2.996c-2.083-0.074-3.496-1.228-3.885-3.208
		c-0.101-0.518-0.156-1.053-0.156-1.581c-0.012-5.541-0.017-11.08,0.004-16.621c0.003-0.71,0.074-1.441,0.25-2.127
		c0.541-2.095,2.073-3.128,4.078-3.552c0.644-0.137,1.319-0.168,1.98-0.168C43.176,7.693,60.091,7.691,77.005,7.71
		c0.785,0,1.599,0.127,2.35,0.352c2.295,0.688,3.508,2.477,3.557,5.168c0.028,1.598,0.007,3.197,0.007,4.794
		c0,20.511,0.005,41.02-0.015,61.532c-0.002,0.81-0.123,1.651-0.365,2.427c-0.732,2.352-2.565,3.545-5.338,3.548
		c-7.964,0.007-15.929,0.004-23.893,0.004c-9.11,0-18.22,0-27.33-0.004c-3.88,0-6.032-2.148-6.034-6.019
		c-0.001-5.994-0.006-11.986,0.011-17.981c0-0.578,0.072-1.173,0.227-1.727c0.573-2.063,2.063-3.008,4.44-2.88
		c1.778,0.096,3.119,1.344,3.48,3.271c0.087,0.468,0.145,0.946,0.146,1.422c0.011,4.928,0.007,9.854,0.007,14.784
		C28.254,76.69,28.254,76.979,28.254,77.353z"/>
	<path fill-rule="evenodd" clip-rule="evenodd" d="M36.406,50.051c-0.564,0-1.015,0-1.465,0
		c-7.056,0-14.112,0.005-21.167-0.008c-0.58,0-1.173-0.057-1.737-0.188c-1.882-0.443-3.023-2.016-2.956-3.999
		c0.067-2.037,1.235-3.438,3.192-3.794c0.546-0.101,1.107-0.155,1.66-0.155c7.163-0.01,14.325-0.007,21.488-0.007
		c0.291,0,0.581,0,0.984,0c0-0.321,0-0.602,0-0.882c0-2.529-0.01-5.059,0.009-7.59c0.003-0.499,0.056-1.011,0.177-1.495
		c0.481-1.932,2.58-2.648,4.316-1.412c3.55,2.529,7.104,5.058,10.568,7.701c3.044,2.324,5.97,4.802,8.945,7.215
		c0.182,0.146,0.345,0.319,0.569,0.531c-1.512,1.417-2.969,2.812-4.461,4.172c-4.918,4.486-10.009,8.761-15.52,12.511
		c-1.608,1.094-3.346,0.629-4.028-1.183c-0.339-0.9-0.522-1.905-0.551-2.866c-0.074-2.527-0.025-5.058-0.025-7.588
		C36.406,50.725,36.406,50.437,36.406,50.051z"/>
</g>
</svg>
