<?xml version="1.0" encoding="utf-8"?>
<!-- Generator: Adobe Illustrator 16.0.0, SVG Export Plug-In . SVG Version: 6.00 Build 0)  -->
<!DOCTYPE svg PUBLIC "-//W3C//DTD SVG 1.0//EN" "http://www.w3.org/TR/2001/REC-SVG-20010904/DTD/svg10.dtd">
<svg version="1.0" id="Layer_1" xmlns="http://www.w3.org/2000/svg" xmlns:xlink="http://www.w3.org/1999/xlink" x="0px" y="0px"
	 width="100px" height="100px" viewBox="0 0 100 100" enable-background="new 0 0 100 100" xml:space="preserve">
<path d="M5.808,43.886c0-1.17,0-2.34,0-3.51c0.187-1.382,0.303-2.778,0.57-4.144
	c1.579-8.054,5.64-14.693,11.732-20.097C26.166,8.99,35.741,5.396,46.358,4.428c5.203-0.475,10.38-0.11,15.49,1.018
	C71.975,7.68,80.688,12.37,87.443,20.357c5.139,6.076,7.985,13.116,8.174,21.102c0.146,6.195-1.428,12.004-4.591,17.344
	c-4.94,8.342-12.197,13.938-21.079,17.539c-5.249,2.129-10.725,3.248-16.389,3.564c-3.991,0.223-7.928-0.055-11.86-0.684
	c-0.438-0.07-0.992,0.066-1.384,0.293c-5.4,3.129-10.78,6.291-16.166,9.441c-0.445,0.26-0.898,0.508-1.438,0.812
	c0.178-2.596,0.342-5.062,0.517-7.531c0.214-3.027,0.424-6.057,0.669-9.082c0.043-0.521-0.147-0.785-0.56-1.051
	c-3.456-2.238-6.554-4.896-9.201-8.055c-3.827-4.568-6.52-9.707-7.638-15.601C6.211,46.94,6.035,45.408,5.808,43.886z"/>
</svg>
