<?xml version="1.0" encoding="utf-8"?>
<!-- Generator: Adobe Illustrator 18.1.1, SVG Export Plug-In . SVG Version: 6.00 Build 0)  -->
<!DOCTYPE svg PUBLIC "-//W3C//DTD SVG 1.0//EN" "http://www.w3.org/TR/2001/REC-SVG-20010904/DTD/svg10.dtd">
<svg version="1.0" id="Camada_1" xmlns="http://www.w3.org/2000/svg" xmlns:xlink="http://www.w3.org/1999/xlink" x="0px" y="0px"
	 viewBox="0 0 507.468 508.323" enable-background="new 0 0 507.468 508.323" xml:space="preserve">
<g id="QQVgl3.tif">
	<g>
		<path d="M198.332,4.991c8.382,1.959,17.057,3.123,25.075,6.072c10.729,3.946,20.161,2.575,30.079-2.522
			c6.993-3.594,14.658-6.545,22.357-7.954c13.325-2.439,24.779,2.995,34.951,11.349c3.86,3.17,7.81,6.248,11.48,9.626
			c5.673,5.222,12.284,6.85,19.788,6.188c5.13-0.453,10.294-0.583,15.447-0.696c18.193-0.4,31.638,7.444,40.383,23.4
			c3.263,5.954,6.119,12.216,10.07,17.679c2.677,3.702,6.532,7.054,10.591,9.14c6.313,3.244,13.301,5.147,19.908,7.851
			c17.032,6.973,25.15,20.401,27.123,38.109c0.515,4.625,0.879,9.278,1.05,13.927c0.264,7.184,2.651,13.206,8.257,17.992
			c4.168,3.559,7.953,7.565,11.922,11.358c14.179,13.552,18,29.75,12.391,48.371c-0.672,2.23-0.999,4.617-1.991,6.689
			c-5.784,12.084-4.174,23.426,2.766,34.523c1.822,2.913,2.778,6.377,4.06,9.617c6.819,17.236,3.206,32.565-8.505,46.418
			c-2.794,3.305-5.271,6.917-8.317,9.965c-6.885,6.89-8.212,15.12-7.226,24.376c0.648,6.088,0.805,12.315,0.35,18.418
			c-1.111,14.925-8.825,25.842-21.648,33.241c-6.05,3.491-12.17,6.87-18.343,10.139c-5.274,2.793-8.761,6.906-10.716,12.556
			c-2.119,6.121-4.518,12.147-6.871,18.185c-6.907,17.725-20.755,25.592-38.914,27.272c-4.464,0.413-8.934,0.761-13.404,1.103
			c-7.66,0.585-13.966,3.571-18.935,9.656c-3.569,4.371-7.61,8.375-11.623,12.36c-12.43,12.341-27.22,15.868-44.026,11.434
			c-3.695-0.975-7.53-1.701-10.988-3.241c-11.556-5.147-22.267-3.261-32.779,2.941c-2.972,1.754-6.355,2.818-9.566,4.159
			c-17.266,7.211-32.52,3.308-46.37-8.398c-3.688-3.117-7.565-6.023-11.11-9.291c-5.813-5.359-12.562-6.971-20.263-6.187
			c-5.118,0.521-10.294,0.537-15.447,0.639c-18.046,0.359-31.232-7.646-39.911-23.339c-3.287-5.944-6.11-12.226-10.057-17.695
			c-2.674-3.706-6.528-7.062-10.587-9.15c-6.314-3.249-13.305-5.155-19.915-7.862c-17.238-7.061-25.347-20.646-27.163-38.59
			c-0.586-5.792-1.114-11.592-1.532-17.398c-0.394-5.474-2.853-9.798-6.857-13.406c-4.572-4.121-9.158-8.232-13.616-12.475
			c-14.47-13.77-17.639-30.205-11.32-48.814c1.122-3.304,2.147-6.651,3.466-9.876c3.45-8.433,2.636-16.305-1.715-24.35
			c-3.216-5.946-5.585-12.409-7.799-18.825c-4.911-14.228-1.826-27.222,7.047-38.999c3.906-5.184,8.064-10.186,12.276-15.127
			c4.431-5.198,6.662-10.962,6.022-17.894c-0.519-5.621-0.741-11.281-0.84-16.928c-0.319-18.16,7.55-31.654,23.423-40.463
			c5.091-2.826,10.134-5.764,15.373-8.293c6.76-3.264,10.818-8.512,13.024-15.558c1.438-4.595,3.307-9.054,4.977-13.577
			c7.373-19.977,22.168-29.481,42.993-30.578c4.648-0.245,9.526-0.014,13.854-1.395c4.711-1.503,9.476-3.971,13.196-7.195
			c6.135-5.318,11.154-11.908,17.183-17.365C178.477,9.406,187.547,5.529,198.332,4.991z M283.639,404.562
			c0-68.479,0-136.56,0-205.149c2.275,0,4.07,0,5.865,0c13.666,0,27.347-0.374,40.993,0.15c7.46,0.286,13.57-2.018,19.55-5.966
			c28.27-18.658,29.672-60.935,2.059-79.784c-21.76-14.854-44.345-13.739-64.357,5.876c-10.233,10.03-20.092,20.443-30.134,30.67
			c-1,1.018-2.095,1.943-3.145,2.91c0.354-0.546,0.707-1.092,1.061-1.638c-12.13-11.427-24.13-22.996-36.419-34.25
			c-24.73-22.647-64.746-14.831-77.359,15.321c-9.289,22.207-4.887,49.191,22.975,64.148c2.784,1.495,6.229,2.399,9.386,2.451
			c15.329,0.249,30.664,0.113,45.997,0.114c1.763,0,3.526,0,5.795,0c0,68.793,0,136.863,0,205.147
			C245.327,404.562,264.232,404.562,283.639,404.562z M118.356,282.238c-0.167,1.092-0.396,1.89-0.397,2.688
			c-0.018,33.656-0.145,67.313,0.054,100.969c0.068,11.496,8.379,19.152,19.946,19.171c23.326,0.038,46.652,0.017,69.978-0.005
			c1.419-0.001,2.839-0.218,4.156-0.326c0-41.122,0-81.708,0-122.497C180.672,282.238,149.596,282.238,118.356,282.238z
			 M297.145,404.824c1.817,0.111,3.125,0.26,4.433,0.261c22.985,0.008,45.971,0.025,68.956-0.019
			c12.99-0.024,20.742-7.778,20.766-20.891c0.059-32.312,0.035-64.625,0.012-96.938c-0.001-1.698-0.305-3.397-0.456-4.981
			c-31.611,0-62.52,0-93.71,0C297.145,323.167,297.145,363.733,297.145,404.824z M297.145,271.899
			c1.114,0.169,1.605,0.309,2.095,0.309c33.13,0.015,66.261,0.095,99.391-0.02c10.126-0.035,17.893-8.072,17.966-18.221
			c0.096-13.318,0.034-26.637,0.024-39.956c-0.01-12.928-7.424-20.339-20.464-20.411c-7.491-0.041-14.992-0.189-22.47,0.131
			c-2.26,0.097-5.223,0.962-6.567,2.564c-9.802,11.687-22.911,15.139-37.306,16.099c-10.85,0.724-21.668,1.927-32.669,2.933
			C297.145,233.808,297.145,252.711,297.145,271.899z M211.887,213.063c-5.347,0.265-10.131,0.696-14.916,0.706
			c-19.555,0.044-39.311,0.745-53.486-16.731c-1.396-1.721-4.164-3.176-6.352-3.258c-8.979-0.338-17.996-0.432-26.968,0.018
			c-10.458,0.525-17.432,8.268-17.475,18.701c-0.054,13.157-0.023,26.315-0.013,39.472c0.01,12.845,7.273,20.251,19.985,20.263
			c31.478,0.029,62.956,0.013,94.434-0.003c1.607-0.001,3.214-0.167,4.791-0.254C211.887,252.206,211.887,232.838,211.887,213.063z"
			/>
		<path fill="#FFFFFF" d="M283.639,404.562c-19.406,0-38.312,0-57.732,0c0-68.284,0-136.355,0-205.147c-2.269,0-4.032,0-5.795,0
			c-15.333-0.001-30.668,0.135-45.997-0.114c-3.157-0.051-6.602-0.956-9.386-2.451c-27.862-14.957-32.264-41.941-22.975-64.148
			c12.613-30.152,52.628-37.968,77.359-15.321c12.289,11.254,24.288,22.823,36.419,34.25c-0.354,0.546-0.707,1.092-1.061,1.638
			c1.051-0.968,2.146-1.892,3.145-2.91c10.042-10.226,19.9-20.639,30.134-30.67c20.011-19.615,42.597-20.729,64.357-5.876
			c27.613,18.849,26.211,61.126-2.059,79.784c-5.981,3.947-12.091,6.252-19.55,5.966c-13.646-0.524-27.327-0.15-40.993-0.15
			c-1.795,0-3.591,0-5.865,0C283.639,268.002,283.639,336.083,283.639,404.562z M307.405,176.587c0,0.01,0.001,0.021,0.001,0.031
			c6.143,0,12.325,0.447,18.419-0.1c10.412-0.934,18.372-8.565,20.535-18.849c2.037-9.683-2.627-19.961-11.396-25.117
			c-9.189-5.402-19.97-4.685-27.699,2.528c-8.379,7.82-16.52,15.919-24.388,24.253c-7.329,7.762-4.859,15.481,5.652,17.083
			C294.687,177.355,301.105,176.587,307.405,176.587z M202.223,176.561c0,0.234,0.001,0.469,0.001,0.703
			c3.324,0,6.653,0.102,9.972-0.029c3.31-0.131,6.696-0.116,9.899-0.833c8.469-1.894,11.257-9.554,5.467-15.684
			c-8.438-8.933-17.074-17.721-26.146-26c-7.662-6.992-18.434-7.393-27.334-2.089c-8.387,4.998-13.188,15.925-11.127,25.323
			c2.157,9.833,10.177,17.499,20.363,18.495C189.563,177.059,195.917,176.561,202.223,176.561z"/>
		<path fill="#FFFFFF" d="M118.356,282.238c31.24,0,62.316,0,93.738,0c0,40.789,0,81.375,0,122.497
			c-1.317,0.108-2.737,0.325-4.156,0.326c-23.326,0.022-46.652,0.043-69.978,0.005c-11.567-0.019-19.878-7.675-19.946-19.171
			c-0.199-33.655-0.073-67.312-0.054-100.969C117.96,284.128,118.189,283.33,118.356,282.238z"/>
		<path fill="#FFFFFF" d="M297.145,404.824c0-41.091,0-81.657,0-122.567c31.19,0,62.099,0,93.71,0
			c0.152,1.584,0.455,3.283,0.456,4.981c0.023,32.313,0.047,64.625-0.012,96.938c-0.024,13.113-7.776,20.866-20.766,20.891
			c-22.985,0.043-45.97,0.027-68.956,0.019C300.271,405.084,298.963,404.935,297.145,404.824z"/>
		<path fill="#FFFFFF" d="M297.145,271.899c0-19.188,0-38.091,0-56.572c11.001-1.005,21.819-2.209,32.669-2.933
			c14.395-0.96,27.504-4.412,37.306-16.099c1.343-1.602,4.306-2.467,6.567-2.564c7.478-0.32,14.978-0.172,22.47-0.131
			c13.04,0.072,20.455,7.483,20.464,20.411c0.01,13.319,0.071,26.638-0.024,39.956c-0.073,10.149-7.84,18.186-17.966,18.221
			c-33.13,0.115-66.26,0.036-99.391,0.02C298.75,272.208,298.259,272.068,297.145,271.899z"/>
		<path fill="#FFFFFF" d="M211.887,213.063c0,19.775,0,39.144,0,58.915c-1.577,0.087-3.184,0.253-4.791,0.254
			c-31.478,0.016-62.956,0.031-94.434,0.003c-12.712-0.012-19.975-7.418-19.985-20.263c-0.01-13.157-0.041-26.315,0.013-39.472
			c0.043-10.433,7.016-18.175,17.475-18.701c8.971-0.451,17.989-0.356,26.968-0.018c2.188,0.082,4.956,1.537,6.352,3.258
			c14.176,17.475,33.931,16.774,53.486,16.731C201.756,213.758,206.54,213.328,211.887,213.063z"/>
		<path d="M307.405,176.587c-6.301,0-12.718,0.767-18.876-0.171c-10.511-1.602-12.981-9.321-5.652-17.083
			c7.868-8.333,16.009-16.433,24.388-24.253c7.729-7.213,18.51-7.93,27.699-2.528c8.77,5.156,13.433,15.434,11.396,25.117
			c-2.163,10.284-10.123,17.915-20.535,18.849c-6.093,0.547-12.276,0.1-18.419,0.1C307.406,176.608,307.406,176.598,307.405,176.587
			z"/>
		<path d="M202.223,176.561c-6.306,0-12.66,0.498-18.906-0.113c-10.186-0.996-18.207-8.662-20.363-18.495
			c-2.061-9.399,2.74-20.325,11.127-25.323c8.901-5.304,19.672-4.904,27.334,2.089c9.072,8.279,17.708,17.067,26.146,26
			c5.79,6.13,3.002,13.79-5.467,15.684c-3.203,0.717-6.589,0.702-9.899,0.833c-3.319,0.131-6.648,0.029-9.972,0.029
			C202.223,177.029,202.223,176.795,202.223,176.561z"/>
	</g>
</g>
</svg>
