<?xml version="1.0" encoding="utf-8"?>
<!-- Generator: Adobe Illustrator 16.0.4, SVG Export Plug-In . SVG Version: 6.00 Build 0)  -->
<!DOCTYPE svg PUBLIC "-//W3C//DTD SVG 1.0//EN" "http://www.w3.org/TR/2001/REC-SVG-20010904/DTD/svg10.dtd">
<svg version="1.0" id="Layer_1" xmlns="http://www.w3.org/2000/svg" xmlns:xlink="http://www.w3.org/1999/xlink" x="0px" y="0px"
	 width="146px" height="107px" viewBox="0 0 146 107" enable-background="new 0 0 146 107" xml:space="preserve">
<g>
	<path fill-rule="evenodd" clip-rule="evenodd" fill="#CBD0DD" d="M138,107H8c-4.411,0-8-3.589-8-8V8c0-4.411,3.589-8,8-8h130
		c4.411,0,8,3.589,8,8v91C146,103.411,142.411,107,138,107z M10,97h126V11H10V97z"/>
	<path fill-rule="evenodd" clip-rule="evenodd" fill="#CBD0DD" d="M113.341,46.373c-3.247,4.492-6.297,8.779-9.505,13.219
		c-3.08-4.385-6.041-8.572-9.009-12.787c-2.979-4.231-5.964-8.44-9.085-12.864c-0.461,0.693-0.79,1.183-1.106,1.674
		c-6.785,10.506-13.583,21.008-20.329,31.54c-0.654,1.021-1.299,1.33-2.486,1.092c-7.037-1.411-14.125-1.778-21.226-0.564
		c-6.376,1.09-12.127,3.341-16.315,8.551C22.204,78.815,20.726,82,20.152,85c35.453,0,70.752,0,106.277,0
		C122.069,72,117.753,59.437,113.341,46.373z"/>
	<path fill-rule="evenodd" clip-rule="evenodd" fill="#CBD0DD" d="M42.969,51.054c6.587,0.062,11.961-5.196,12.068-11.805
		c0.105-6.514-5.299-12-11.851-12.028c-6.566-0.029-11.94,5.308-11.979,11.895C31.171,45.596,36.488,50.993,42.969,51.054z"/>
</g>
</svg>
