<?xml version="1.0" encoding="utf-8"?>
<!-- Generator: Adobe Illustrator 16.0.0, SVG Export Plug-In . SVG Version: 6.00 Build 0)  -->
<!DOCTYPE svg PUBLIC "-//W3C//DTD SVG 1.1//EN" "http://www.w3.org/Graphics/SVG/1.1/DTD/svg11.dtd">
<svg version="1.1" id="Layer_1" xmlns="http://www.w3.org/2000/svg" xmlns:xlink="http://www.w3.org/1999/xlink" x="0px" y="0px"
	 width="98px" height="78.3px" viewBox="1 2.7 98 78.3" enable-background="new 1 2.7 98 78.3" xml:space="preserve">
<path fill="#263C70" d="M71,81H6c-2.8,0-5-2.2-5-5V37.4C1,34.6,3.2,32,6,32h65V81z"/>
<path fill="#3680C3" d="M94.3,32H72v49h22.3c2.8,0,4.7-2.2,4.7-5V37.4C99,34.6,97.1,32,94.3,32z M92,77H76v-1h16V77z M92,75H76v-1
	h16V75z M92,72H76v-1h16V72z M92,69H76v-1h16V69z M92,67H76v-1h16V67z M92,65H76v-2h16V65z M92,62H76v-1h16V62z M92,60H76v-1h16V60z
	 M92,58H76v-1h16V58z M92,54H76v-1h16V54z M92,52H76v-1h16V52z M92,50H76v-1h16V50z M92,48H76v-1h16V48z M92,45H76v-1h16V45z M92,42
	H76v-1h16V42z M92,40H76v-1h16V40z M92,37H76v-1h16V37z"/>
<path fill="#FDDB2B" d="M32,57c0,0.5-0.4,1-1,1H6c-0.5,0-1-0.4-1-1v0c0-0.5,0.4-1,1-1h25C31.6,56,32,56.4,32,57L32,57z"/>
<path fill="#FDDB2B" d="M53,62c0,0.5-0.4,1-1,1H6c-0.5,0-1-0.4-1-1v0c0-0.5,0.4-1,1-1h46C52.6,61,53,61.4,53,62L53,62z"/>
<path fill="#FDDB2B" d="M53,67c0,0.5-0.4,1-1,1H6c-0.5,0-1-0.4-1-1v0c0-0.5,0.4-1,1-1h46C52.6,66,53,66.4,53,67L53,67z"/>
<path fill="#FDDB2B" d="M53,72c0,0.5-0.4,1-1,1H6c-0.5,0-1-0.4-1-1v0c0-0.5,0.4-1,1-1h46C52.6,71,53,71.4,53,72L53,72z"/>
<path fill="#263C70" d="M8.2,25.7c-1.8,0.6-2.9,2.4-3,4.3h63.3L62,8.9L8.2,25.7z"/>
<path fill="#3680C3" d="M86.6,6.1c-0.7-2.3-3-3.9-5.3-3.2L62.8,8.6L69.5,30h3.6l0,0l13.2-4.1l0.3,0.8L75.9,30h2.9l8.1-2.5l0.3,0.8
	L81.7,30h2.9l2.8-0.9l0.3,0.9H94L86.6,6.1z M67.2,10.9L67.2,10.9L67.2,10.9l13.2-4.1l0.3,0.8h0l0,0l-13.2,4.1L67.2,10.9z M67.9,13.4
	l13.2-4.1l0.3,0.8l-13.2,4.1L67.9,13.4z M68.7,15.9l-0.1-0.4l-0.1-0.4h0l0,0l13.2-4.1l0.3,0.8l0,0v0L68.7,15.9L68.7,15.9L68.7,15.9z
	 M69.5,18.4l-0.3-0.8l13.2-4.1v0l0,0l0.3,0.8L69.5,18.4L69.5,18.4L69.5,18.4z M70,20L70,20L70,20l13.2-4.1l0.3,0.8l0,0l0,0
	l-13.2,4.1L70,20z M70.5,21.7l13.2-4.1l0,0l0,0l0.2,0.5l0.1,0.3l0,0v0l-13.2,4.1l-0.1-0.4L70.5,21.7z M71,23.3L71,23.3L71,23.3
	l13.2-4.1l0.3,0.8l0,0l0,0l-13.2,4.1L71,23.3z M71.8,25.8L71.6,25l13.2-4.1l0.3,0.8l0,0l0,0L71.8,25.8L71.8,25.8L71.8,25.8z
	 M86.1,25l-5.3,1.7l-7.9,2.5l-0.3-0.8h0l0,0l9.9-3.1l3.4-1.1L86.1,25L86.1,25L86.1,25z"/>
</svg>
