<?xml version="1.0" encoding="utf-8"?>
<!-- Generator: Adobe Illustrator 21.0.0, SVG Export Plug-In . SVG Version: 6.00 Build 0)  -->
<svg version="1.1" id="Layer_1" xmlns="http://www.w3.org/2000/svg" xmlns:xlink="http://www.w3.org/1999/xlink" x="0px" y="0px"
	 viewBox="0 0 121.1 120.3" style="enable-background:new 0 0 121.1 120.3;" xml:space="preserve">
<style type="text/css">
	.st0{fill:#0087E5;}
	.st1{fill:#263C70;}
	.st2{fill:#FDDA2B;}
</style>
<g id="h1Ncr4.tif">
	<g>
		<path d="M60.5,120.3C27.1,120.3,0,93.4,0,60.2C0,26.9,27.1,0,60.7,0c33.4,0,60.4,27,60.4,60.4C121.1,93.5,93.9,120.3,60.5,120.3z
			 M60.6,12.1C34,12,12.3,33.5,12.2,59.9c-0.1,26.7,21.5,48.3,48.2,48.4c26.6,0.1,48.4-21.5,48.4-47.9
			C108.9,33.7,87.4,12.2,60.6,12.1z"/>
		<path d="M79.9,42.7c-8.1,0-16.2,0-24.3,0c0,3.3,0,6.5,0,9.9c8.1,0,16.1,0,24.3,0c0,4.3,0,8.6,0,12.9c-8.1,0-16.1,0-24.2,0
			c0,3.4,0,6.6,0,10c8.1,0,16.1,0,24.2,0c0,4.7,0,9.4,0,14.1c-13.2,0-26.4,0-39.7,0c0-20.4,0-40.7,0-61.1c13.2,0,26.4,0,39.7,0
			C79.9,33.2,79.9,37.8,79.9,42.7z"/>
	</g>
</g>
</svg>
