<?xml version="1.0" encoding="utf-8"?>
<!-- Generator: Adobe Illustrator 16.0.4, SVG Export Plug-In . SVG Version: 6.00 Build 0)  -->
<!DOCTYPE svg PUBLIC "-//W3C//DTD SVG 1.0//EN" "http://www.w3.org/TR/2001/REC-SVG-20010904/DTD/svg10.dtd">
<svg version="1.0" id="Layer_1" xmlns="http://www.w3.org/2000/svg" xmlns:xlink="http://www.w3.org/1999/xlink" x="0px" y="0px"
	 width="41.161px" height="41.161px" viewBox="0 0 41.161 41.161" enable-background="new 0 0 41.161 41.161" xml:space="preserve">
<circle fill="#263C70" cx="20.581" cy="20.581" r="20.581"/>
<g id="QHjUvx.tif">
	<g>
		<path fill="#FFFFFF" d="M30.871,15.423c0,3.126,0,6.252,0,9.378c-0.012,0.07-0.03,0.14-0.036,0.211
			c-0.059,0.783-0.479,1.315-1.233,1.543c-0.2,0.06-0.41,0.088-0.616,0.13c-5.609,0-11.219,0-16.829,0
			c-0.042-0.011-0.083-0.029-0.125-0.033c-1.149-0.133-1.732-0.752-1.736-1.903c-0.01-3.075-0.004-6.149-0.002-9.224
			c0-0.54,0.106-1.043,0.53-1.428c0.393-0.356,0.867-0.506,1.382-0.513c1.109-0.012,2.22-0.005,3.33,0
			c0.133,0,0.207-0.04,0.274-0.158c0.235-0.411,0.486-0.812,0.727-1.219c0.195-0.331,0.479-0.492,0.864-0.492
			c2.111,0.002,4.221,0.002,6.332,0c0.394,0,0.682,0.163,0.88,0.503c0.234,0.403,0.485,0.796,0.715,1.201
			c0.072,0.126,0.151,0.166,0.292,0.165c1.037-0.006,2.074-0.005,3.111-0.001c0.196,0.001,0.395,0.008,0.587,0.044
			c0.699,0.13,1.23,0.481,1.445,1.196C30.822,15.017,30.837,15.222,30.871,15.423z M24.779,19.667c0-2.335-1.867-4.212-4.199-4.221
			c-2.324-0.009-4.214,1.876-4.215,4.203c-0.001,2.329,1.879,4.223,4.197,4.227C22.883,23.879,24.778,21.987,24.779,19.667z
			 M26.15,17.322c0.515,0.021,0.938-0.37,0.967-0.894c0.027-0.522-0.373-0.956-0.904-0.98c-0.519-0.023-0.953,0.389-0.97,0.918
			C25.227,16.877,25.628,17.301,26.15,17.322z"/>
		<path fill="#FFFFFF" d="M23.834,19.669c-0.01,1.833-1.464,3.261-3.312,3.251c-1.774-0.009-3.217-1.474-3.215-3.263
			c0.002-1.821,1.474-3.28,3.302-3.271C22.386,16.395,23.843,17.879,23.834,19.669z"/>
		<path fill="#FFFFFF" d="M14.789,12.193h-1.496c-0.096,0-0.175,0.079-0.175,0.176v0.544c0,0.097,0.079,0.175,0.175,0.175h1.496
			c0.097,0,0.176-0.078,0.176-0.175v-0.544C14.965,12.272,14.886,12.193,14.789,12.193z"/>
	</g>
</g>
</svg>
