<?xml version="1.0" encoding="utf-8"?>
<!-- Generator: Adobe Illustrator 16.0.4, SVG Export Plug-In . SVG Version: 6.00 Build 0)  -->
<!DOCTYPE svg PUBLIC "-//W3C//DTD SVG 1.0//EN" "http://www.w3.org/TR/2001/REC-SVG-20010904/DTD/svg10.dtd">
<svg version="1.0" id="Layer_1" xmlns="http://www.w3.org/2000/svg" xmlns:xlink="http://www.w3.org/1999/xlink" x="0px" y="0px"
	 width="41.161px" height="41.161px" viewBox="0 0 41.161 41.161" enable-background="new 0 0 41.161 41.161" xml:space="preserve">
<circle fill="#263C70" cx="20.581" cy="20.581" r="20.581"/>
<g>
	<g>
		<path fill="#FFFFFF" d="M22.178,22.215c-1.087,0.841-3.165,2.621-3.165,2.621v4.304l-1.435,0.939l-2.077-4.352L11.1,23.601
			l0.939-1.435h4.253c0,0,1.912-2.244,2.671-3.115c-2.639-1.625-4.94-2.871-7.715-4.451c-0.305-0.173-0.904-0.522-0.94-0.791
			c-0.04-0.304,0.346-0.793,0.495-1.038c0.204-0.339,0.373-0.729,0.692-0.842c0.421-0.148,1.101,0.067,1.533,0.149
			c3.407,0.636,6.367,1.127,9.792,1.781c0.292,0.055,0.568,0.177,0.742,0.147c0.374-0.063,0.977-0.827,1.285-1.088
			c0.895-0.757,1.746-1.409,2.77-1.978c0.491-0.272,2.227-1.088,2.967-0.347c0.441,0.442,0.27,1.486,0,2.177
			c-0.653,1.675-1.688,2.763-2.818,4.054c-0.207,0.236-0.565,0.604-0.594,0.742c-0.059,0.28,0.173,1.13,0.248,1.533
			c0.559,3.037,1.115,5.896,1.682,9c0.094,0.519,0.264,1.036,0.148,1.484c-0.1,0.385-0.419,0.567-0.792,0.791
			c-0.225,0.137-0.763,0.515-1.038,0.495c-0.319-0.023-0.655-0.612-0.841-0.939C25.035,27.217,23.747,24.919,22.178,22.215z"/>
	</g>
</g>
</svg>
