<?xml version="1.0" encoding="utf-8"?>
<!-- Generator: Adobe Illustrator 16.0.0, SVG Export Plug-In . SVG Version: 6.00 Build 0)  -->
<!DOCTYPE svg PUBLIC "-//W3C//DTD SVG 1.1//EN" "http://www.w3.org/Graphics/SVG/1.1/DTD/svg11.dtd">
<svg version="1.1" id="Camada_1" xmlns="http://www.w3.org/2000/svg" xmlns:xlink="http://www.w3.org/1999/xlink" x="0px" y="0px"
	 width="35px" height="50px" viewBox="17.5 0 35 50" enable-background="new 17.5 0 35 50" xml:space="preserve">
<g>
	<path d="M39.6,17.9c-0.1-2.4-1.3-4-3.4-5c-1.6-0.7-3-0.6-4.3,0.7c-0.5,0.5-1.1,0.9-1.8,1.2c-0.7,0.4-1.5,0.6-2.2,0.2
		c-0.7-0.4-1.5-0.8-2.1-1.3c-1.1-0.9-2.2-1.4-3.7-1.3c-2.3,0.3-4.6,2.6-4.6,5c0,3.9,0,7.8,0,11.8c0,0.3,0,0.6,0.1,0.9
		c0.4,2,1.6,3.3,3.5,4.1c0.2,0.1,0.4,0.3,0.4,0.5c0.2,1.2,0.3,2.4,0.5,3.6c0.2,1.5,0.4,3,0.6,4.5c0.2,1.5,0.4,2.9,0.5,4.4
		c0.1,1.5,1.1,2.7,2.8,2.7c1.8,0.1,3.7,0,5.5,0c1.4,0,2.5-1,2.7-2.3c0.2-1.2,0.3-2.4,0.4-3.7c0.2-1.5,0.4-3,0.6-4.5
		c0.2-1.5,0.4-3,0.6-4.6c0-0.4,0.1-0.5,0.5-0.7c1.9-0.7,3.5-2.6,3.5-5c0-1.9,0-3.7,0-5.6c0,0,0,0,0,0C39.6,21.6,39.7,19.8,39.6,17.9
		z"/>
	<path d="M28.7,11c3.1,0,5.5-2.4,5.5-5.5C34.3,2.7,32,0,28.8,0c-3.2,0-5.6,2.3-5.6,5.5C23.2,8.9,25.9,11.1,28.7,11z"/>
	<path d="M52.5,36.3C52.5,36.3,52.5,36.3,52.5,36.3c0-1,0-2,0-3c0-1.2-0.7-2.1-1.8-2.6c-0.8-0.4-1.6-0.3-2.2,0.4
		c-0.3,0.3-0.6,0.5-0.9,0.6c-0.3,0.2-0.7,0.3-1.1,0.1c-0.4-0.2-0.8-0.4-1.1-0.7c-0.6-0.5-1.1-0.7-1.9-0.7c-1.2,0.2-2.4,1.4-2.4,2.6
		c0,2,0,4,0,6.1c0,0.2,0,0.3,0,0.5c0.2,1,0.8,1.7,1.8,2.1c0.1,0,0.2,0.1,0.2,0.2c0.1,0.6,0.2,1.2,0.2,1.9c0.1,0.8,0.2,1.5,0.3,2.3
		c0.1,0.8,0.2,1.5,0.3,2.3c0.1,0.8,0.6,1.4,1.4,1.4c0.9,0,1.9,0,2.8,0c0.7,0,1.3-0.5,1.4-1.2c0.1-0.6,0.2-1.3,0.2-1.9
		c0.1-0.8,0.2-1.6,0.3-2.3c0.1-0.8,0.2-1.6,0.3-2.4c0-0.2,0.1-0.3,0.3-0.3c1-0.3,1.8-1.3,1.8-2.6C52.5,38.2,52.5,37.3,52.5,36.3z"/>
	<path d="M46.9,29.8c1.6,0,2.8-1.2,2.8-2.8c0-1.5-1.1-2.8-2.8-2.9c-1.6,0-2.9,1.2-2.9,2.9C44,28.7,45.4,29.8,46.9,29.8z"/>
</g>
</svg>
