<?xml version="1.0" encoding="utf-8"?>
<!-- Generator: Adobe Illustrator 16.0.0, SVG Export Plug-In . SVG Version: 6.00 Build 0)  -->
<!DOCTYPE svg PUBLIC "-//W3C//DTD SVG 1.1//EN" "http://www.w3.org/Graphics/SVG/1.1/DTD/svg11.dtd">
<svg version="1.1" id="Camada_1" xmlns="http://www.w3.org/2000/svg" xmlns:xlink="http://www.w3.org/1999/xlink" x="0px" y="0px"
	 width="22.1px" height="50px" viewBox="23.9 0 22.1 50" enable-background="new 23.9 0 22.1 50" xml:space="preserve">
<g>
	<path d="M46.1,23.6C46.1,23.6,46.1,23.6,46.1,23.6c0-2,0-3.8,0-5.7c-0.1-2.4-1.3-4-3.4-5c-1.6-0.7-3-0.6-4.3,0.7
		c-0.5,0.5-1.1,0.9-1.8,1.2c-0.7,0.4-1.5,0.6-2.2,0.2c-0.7-0.4-1.5-0.8-2.1-1.3c-1.1-0.9-2.2-1.4-3.7-1.3c-2.3,0.3-4.6,2.6-4.6,5
		c0,3.9,0,7.8,0,11.8c0,0.3,0,0.6,0.1,0.9c0.4,2,1.6,3.3,3.5,4.1c0.2,0.1,0.4,0.3,0.4,0.5c0.2,1.2,0.3,2.4,0.5,3.6
		c0.2,1.5,0.4,3,0.6,4.5c0.2,1.5,0.4,2.9,0.5,4.4c0.1,1.5,1.1,2.7,2.8,2.7c1.8,0.1,3.7,0,5.5,0c1.4,0,2.5-1,2.7-2.3
		c0.2-1.2,0.3-2.4,0.4-3.7c0.2-1.5,0.4-3,0.6-4.5c0.2-1.5,0.4-3,0.6-4.6c0-0.4,0.1-0.5,0.5-0.7c1.9-0.7,3.5-2.6,3.5-5
		C46,27.4,46.1,25.5,46.1,23.6z"/>
	<path d="M35.2,11c3.1,0,5.5-2.4,5.5-5.5C40.7,2.7,38.4,0,35.2,0c-3.2,0-5.6,2.3-5.6,5.5C29.6,8.9,32.3,11.1,35.2,11z"/>
</g>
</svg>
