<?xml version="1.0" encoding="utf-8"?>
<!-- Generator: Adobe Illustrator 16.0.0, SVG Export Plug-In . SVG Version: 6.00 Build 0)  -->
<!DOCTYPE svg PUBLIC "-//W3C//DTD SVG 1.0//EN" "http://www.w3.org/TR/2001/REC-SVG-20010904/DTD/svg10.dtd">
<svg version="1.0" id="Layer_1" xmlns="http://www.w3.org/2000/svg" xmlns:xlink="http://www.w3.org/1999/xlink" x="0px" y="0px"
	 width="100px" height="100px" viewBox="0 0 100 100" enable-background="new 0 0 100 100" xml:space="preserve">
<g>
	<path fill="#263C70" d="M32.548,19.521c2.512,0,5.022,0,7.533,0c0.244,0.067,0.483,0.179,0.729,0.197
		c4.021,0.285,7.92,1.152,11.701,2.529c5.777,2.104,10.899,5.208,14.766,10.09c3.756,4.742,5.249,10.091,3.859,16.064
		c-1.14,4.898-4.013,8.748-7.868,11.812c-9.116,7.247-19.713,9.396-31.059,8.558c-2.464-0.183-4.765-0.141-6.988,1.013
		c-3.788,1.962-7.595,3.889-11.396,5.828c-0.231,0.119-0.477,0.215-0.683,0.307c0-1.357,0.045-2.609-0.01-3.856
		c-0.125-2.847-0.252-5.695-0.495-8.533c-0.046-0.534-0.554-1.112-0.991-1.515c-1.793-1.648-3.785-3.105-5.441-4.877
		C3.355,54.09,1.562,50.43,1.113,46.247c-0.622-5.816,1.353-10.824,5.232-15.075c5.921-6.484,13.58-9.588,22.038-11.046
		C29.767,19.888,31.16,19.721,32.548,19.521z"/>
	<path fill-rule="evenodd" clip-rule="evenodd" fill="#0087E5" d="M71.931,32.625c2.68,0.604,5.404,1.052,8.026,1.844
		c5.123,1.546,9.683,4.096,13.277,8.178c5.601,6.358,5.696,14.824,0.094,21.185c-1.409,1.601-3.201,2.859-4.774,4.321
		c-0.415,0.389-0.904,0.923-0.956,1.433c-0.244,2.355-0.362,4.726-0.489,7.093c-0.05,0.929-0.009,1.86-0.009,2.883
		c-0.349-0.183-0.7-0.376-1.06-0.552c-3.281-1.613-6.571-3.206-9.841-4.839c-1.702-0.85-3.446-0.427-5.193-0.305
		c-7.218,0.502-14.138-0.612-20.655-3.859c-0.131-0.065-0.244-0.168-0.302-0.208c2.671-0.977,5.388-1.821,7.98-2.948
		c5.39-2.344,10.082-5.66,13.56-10.495c5.125-7.125,5.326-15.29,0.59-22.701c-0.136-0.21-0.261-0.427-0.391-0.64
		C71.835,32.885,71.883,32.754,71.931,32.625z"/>
</g>
<g>
	<path fill="#F9D62B" d="M17.167,43.767c0-2.323,1.568-3.957,3.762-3.957c2.197,0,3.705,1.633,3.705,3.957
		c0,2.259-1.441,3.954-3.768,3.954C18.67,47.72,17.167,46.025,17.167,43.767z"/>
	<path fill="#F9D62B" d="M30.164,43.767c0-2.323,1.569-3.957,3.768-3.957c2.192,0,3.7,1.633,3.7,3.957
		c0,2.259-1.441,3.954-3.768,3.954C31.667,47.72,30.164,46.025,30.164,43.767z"/>
	<path fill="#F9D62B" d="M43.167,43.767c0-2.323,1.569-3.957,3.768-3.957c2.191,0,3.7,1.633,3.7,3.957
		c0,2.259-1.441,3.954-3.768,3.954C44.67,47.72,43.167,46.025,43.167,43.767z"/>
</g>
</svg>
