<?xml version="1.0" encoding="utf-8"?>
<!-- Generator: Adobe Illustrator 16.0.0, SVG Export Plug-In . SVG Version: 6.00 Build 0)  -->
<!DOCTYPE svg PUBLIC "-//W3C//DTD SVG 1.1//EN" "http://www.w3.org/Graphics/SVG/1.1/DTD/svg11.dtd">
<svg version="1.1" id="Camada_1" xmlns="http://www.w3.org/2000/svg" xmlns:xlink="http://www.w3.org/1999/xlink" x="0px" y="0px"
	 width="49.7px" height="50px" viewBox="10.2 0 49.7 50" enable-background="new 10.2 0 49.7 50" xml:space="preserve">
<g id="QUmczb.tif">
	<g>
		<path d="M13.2,50c-0.7-0.3-1.4-0.4-2-0.8c-0.7-0.4-1-1-1-1.9c0-5.2,0-10.4,0-15.5c0-0.3,0-0.7,0.1-1c0.4-1.5,1.6-1.9,2.8-0.8
			c1.8,1.6,3.7,2.9,6,3.6c0.6,0.2,1.3,0.3,1.9,0.4c4.4,0.5,8.5-0.4,11.9-3.4c1.6-1.4,3.3-2.7,5.1-3.8c2.9-1.8,6.1-2.4,9.5-2.2
			c4.2,0.2,7.8,1.8,11,4.4c0.9,0.7,1.3,1.6,1.3,2.7c0,5.3,0,10.6,0,15.9c0,1.1-1.1,2.1-2.5,2.4c-0.2,0-0.4,0.1-0.5,0.1
			C42.3,50,27.7,50,13.2,50z"/>
		<path d="M38,12.2c0-0.8,0-1.5,0-2.3c0-1.7,0-3.5,0-5.2c0-2.1,1.7-4,3.8-4.6c2.1-0.5,4.6,0.4,5.5,2.3c0.5,1,0.7,2.3,0.8,3.4
			c0.2,1.3,0.1,1.3-1.2,1.3c-0.9,0-1-0.1-1.2-1c-0.2-0.8-0.3-1.6-0.6-2.4c-0.3-0.8-0.9-1.2-1.8-1.3c-1,0-1.7,0.4-2,1.2
			c-0.3,0.9-0.5,1.8-0.5,2.7c-0.1,4.9,0,9.9,0,14.8c0,0.2,0,0.4,0,0.6c-1.6,0.5-3.2,0.9-4.9,0.9c-3.5-0.1-7,0-10.5,0
			c-0.2,0-0.5,0-0.8,0c0,1.1,0,2.2,0,3.3c2.7,0,5.3,0,8.2,0c-1.5,1.4-3,2.6-4.7,3.4c-0.2,0.1-0.5,0.1-0.8,0.1c-0.9,0-1.8,0-2.7,0
			c0,0.1-0.1,0.1-0.1,0.2c-0.1,1.1-0.1,1.1-1.2,1.2c-0.5,0-1.1,0-1.7,0c0-0.2,0-0.4,0-0.6c0-8.3,0-16.5,0-24.8
			c0-2.6,1.4-4.6,3.7-5.3c2.5-0.7,5.9,0.5,6.3,4.1c0.1,0.7,0.2,1.4,0.3,2.1c0.1,0.5-0.2,0.7-0.6,0.7c-1.3-0.1-1.8,0.4-1.9-1.6
			c-0.1-0.7-0.3-1.4-0.6-2c-0.8-1.5-2.8-1.5-3.6,0c-0.3,0.6-0.6,1.4-0.6,2.1c-0.1,2.2,0,4.4,0,6.6C29.1,12.2,33.5,12.2,38,12.2z
			 M38,15.8c-4.5,0-8.9,0-13.4,0c0,1.1,0,2.2,0,3.4c0.3,0,0.5,0,0.7,0c1.6,0,3.3,0,4.9,0c2.4,0,4.8,0,7.1,0c0.2,0,0.6-0.2,0.6-0.3
			C38,17.9,38,16.9,38,15.8z"/>
	</g>
</g>
</svg>
