<?xml version="1.0" encoding="utf-8"?>
<!-- Generator: Adobe Illustrator 16.0.4, SVG Export Plug-In . SVG Version: 6.00 Build 0)  -->
<!DOCTYPE svg PUBLIC "-//W3C//DTD SVG 1.0//EN" "http://www.w3.org/TR/2001/REC-SVG-20010904/DTD/svg10.dtd">
<svg version="1.0" id="Layer_1" xmlns="http://www.w3.org/2000/svg" xmlns:xlink="http://www.w3.org/1999/xlink" x="0px" y="0px"
	 width="41.162px" height="41.161px" viewBox="0 0 41.162 41.161" enable-background="new 0 0 41.162 41.161" xml:space="preserve">
<circle fill="#263C70" cx="20.581" cy="20.581" r="20.581"/>
<g id="EvkwKi.tif">
	<g>
		<path fill="#FFFFFF" d="M28.258,14.57c-0.086,0.419-0.148,0.844-0.265,1.254c-0.174,0.61-0.504,1.138-0.959,1.58
			c-0.14,0.136-0.185,0.275-0.184,0.464c0.004,4.058,0.002,8.115,0.005,12.173c0,0.419-0.086,0.783-0.468,1.021
			c-0.389,0.243-0.778,0.22-1.175,0.02c-0.376-0.19-0.494-0.502-0.494-0.91c0.007-4.066,0.003-8.132,0.009-12.199
			c0-0.218-0.052-0.357-0.238-0.5c-0.671-0.514-0.967-1.253-1.113-2.053c-0.213-1.167-0.149-2.312,0.402-3.387
			c0.3-0.588,0.728-1.062,1.382-1.264c0.983-0.302,1.88,0.109,2.447,1.099c0.35,0.612,0.543,1.27,0.605,1.97
			c0.007,0.086,0.03,0.171,0.045,0.256C28.258,14.254,28.258,14.412,28.258,14.57z"/>
		<path fill="#FFFFFF" d="M21.815,30.169c0,0.513-0.289,0.902-0.765,1.036c-0.499,0.14-0.931-0.024-1.185-0.494
			c-0.103-0.191-0.178-0.424-0.179-0.639c-0.01-3.178,0.048-6.355,0.039-9.533c-0.001-0.159-0.122-0.344-0.22-0.47
			c-0.455-0.585-0.68-1.205-0.662-1.979c0.038-1.592-0.023-3.187-0.047-4.779c-0.021-1.369,1.259-2.519,2.683-2.433
			c0.236,0.014,0.336,0.151,0.336,0.437C21.815,13.621,21.815,27.036,21.815,30.169z"/>
		<path fill="#FFFFFF" d="M13.993,16.975c0-0.176-0.046-0.292-0.19-0.394c-0.6-0.43-0.931-0.969-0.898-1.757
			c0.05-1.204,0.013-2.411,0.013-3.617c0.001-0.286,0.084-0.392,0.302-0.392c0.197,0.001,0.32,0.144,0.321,0.397
			c0.003,1.012,0.001,2.024,0.003,3.037c0,0.096,0.005,0.193,0.02,0.288c0.025,0.158,0.108,0.268,0.284,0.238
			c0.157-0.027,0.259-0.098,0.257-0.296c-0.009-1.092-0.005-2.184-0.003-3.275c0-0.272,0.149-0.423,0.375-0.384
			c0.224,0.039,0.285,0.184,0.284,0.4c-0.007,1.064-0.005,2.13,0,3.195c0,0.089,0.014,0.205,0.069,0.263
			c0.176,0.185,0.406,0.122,0.484-0.125c0.033-0.106,0.047-0.224,0.047-0.336c0.004-1.003,0.005-2.006,0-3.01
			c0-0.217,0.031-0.393,0.302-0.393c0.232,0,0.341,0.125,0.341,0.392c0.001,1.065,0,2.13,0.001,3.195
			c0,0.233,0.124,0.399,0.298,0.373c0.197-0.031,0.291-0.152,0.29-0.369c-0.008-1.074-0.004-2.148-0.003-3.221
			c0-0.242,0.13-0.386,0.336-0.366c0.171,0.018,0.264,0.106,0.263,0.295c-0.003,1.355,0.005,2.71-0.005,4.066
			c-0.004,0.594-0.418,0.967-0.812,1.328c-0.131,0.121-0.191,0.221-0.191,0.393c-0.004,2.913-0.056,11.783-0.069,13.305
			c-0.007,0.697-0.721,1.215-1.379,0.977c-0.482-0.175-0.756-0.434-0.75-1.031C14.002,27.977,13.986,19.192,13.993,16.975z"/>
	</g>
</g>
</svg>
