<?xml version="1.0" encoding="utf-8"?>
<!-- Generator: Adobe Illustrator 16.0.0, SVG Export Plug-In . SVG Version: 6.00 Build 0)  -->
<!DOCTYPE svg PUBLIC "-//W3C//DTD SVG 1.0//EN" "http://www.w3.org/TR/2001/REC-SVG-20010904/DTD/svg10.dtd">
<svg version="1.0" id="Layer_1" xmlns="http://www.w3.org/2000/svg" xmlns:xlink="http://www.w3.org/1999/xlink" x="0px" y="0px"
	 width="100px" height="100px" viewBox="0 0 100 100" enable-background="new 0 0 100 100" xml:space="preserve">
<g>
	<g>
		<path fill="#263C70" d="M81.091,38.693v36.745c0,4.684-3.798,8.479-8.479,8.479H13.254c-4.682,0-8.479-3.796-8.479-8.479V38.693
			c0-4.685,3.798-8.479,8.479-8.479h59.357C77.293,30.214,81.091,34.009,81.091,38.693z M75.438,55.652h-65.01v19.786
			c0,1.56,1.271,2.826,2.826,2.826h59.357c1.558,0,2.826-1.267,2.826-2.826V55.652z M75.438,38.693c0-1.56-1.269-2.826-2.826-2.826
			H13.254c-1.555,0-2.826,1.267-2.826,2.826v5.653h65.01V38.693z"/>
	</g>
	<g>
		<path fill="#FDDB2B" d="M95.226,24.561v36.745c0,4.685-3.798,8.479-8.479,8.479h-2.828V37.849c0-6.235-4.223-10.461-10.455-10.461
			H18.909v-2.827c0-4.684,3.798-8.479,8.479-8.479h59.357C91.428,16.081,95.226,19.877,95.226,24.561z"/>
	</g>
	<g>
		<path fill="#0087E5" d="M19.238,63.426h27.604c0.183,0,0.332-0.149,0.332-0.331V60.93c0-0.182-0.149-0.331-0.332-0.331H19.238
			c-0.181,0-0.329,0.149-0.329,0.331v2.165C18.909,63.276,19.058,63.426,19.238,63.426z"/>
	</g>
	<g>
		<path fill="#0087E5" d="M53.158,63.426h13.471c0.181,0,0.33-0.149,0.33-0.331V60.93c0-0.182-0.149-0.331-0.33-0.331H53.158
			c-0.184,0-0.332,0.149-0.332,0.331v2.165C52.826,63.276,52.975,63.426,53.158,63.426z"/>
	</g>
	<g>
		<path fill="#0087E5" d="M19.238,71.905h47.391c0.181,0,0.33-0.149,0.33-0.331V69.41c0-0.183-0.149-0.331-0.33-0.331H19.238
			c-0.181,0-0.329,0.148-0.329,0.331v2.164C18.909,71.756,19.058,71.905,19.238,71.905z"/>
	</g>
</g>
</svg>
