<?xml version="1.0" encoding="utf-8"?>
<!-- Generator: Adobe Illustrator 16.0.0, SVG Export Plug-In . SVG Version: 6.00 Build 0)  -->
<!DOCTYPE svg PUBLIC "-//W3C//DTD SVG 1.1//EN" "http://www.w3.org/Graphics/SVG/1.1/DTD/svg11.dtd">
<svg version="1.1" id="Camada_1" xmlns="http://www.w3.org/2000/svg" xmlns:xlink="http://www.w3.org/1999/xlink" x="0px" y="0px"
	 width="50.1px" height="50px" viewBox="10.1 0 50.1 50" enable-background="new 10.1 0 50.1 50" xml:space="preserve">
<g>
	<path d="M31.1,26.7c-0.8,0-1.5,0-2.1,0c0,0.8,0,1.5,0,2.2c0.7,0,1.4,0,2.1,0C31.1,28.2,31.1,27.4,31.1,26.7z"/>
	<path d="M34.2,10.1c1,0,1.8-0.9,1.8-1.9c0-1-0.8-1.8-1.8-1.8c-1,0-1.8,0.8-1.8,1.8C32.4,9.3,33.2,10.1,34.2,10.1z"/>
	<path d="M29,22.1c0.7,0,1.4,0,2.1,0c0-0.8,0-1.6,0-2.2c-0.8,0-1.5,0-2.1,0C29,20.6,29,21.3,29,22.1z"/>
	<path d="M49.5,22.6c-0.8-0.4-1.7-0.1-2.1,0.8c-0.4,0.7-0.7,1.4-1.1,2.1c-0.6,1.2-1.3,2.5-1.9,3.7c-0.1,0-0.1,0-0.1,0
		c-0.4-0.4-0.8-0.8-1.2-1.3c-0.7-0.7-1.6-0.8-2.2-0.2c-0.8,0.8-1.2,1.6-0.3,2.5c0.9,1.1,1.8,2.1,2.8,3.2c0.8,0.9,2,0.8,2.6-0.3
		c1.4-2.8,2.8-5.5,4.3-8.3C50.7,24,50.4,23.1,49.5,22.6z"/>
	<path d="M31.1,33.6c-0.8,0-1.5,0-2.2,0c0,0.8,0,1.5,0,2.2c0.8,0,1.6,0,2.2,0C31.1,35.1,31.1,34.4,31.1,33.6z"/>
	<path d="M59.9,22c-0.5-4.5-2.2-8.6-5-12.2c-3.9-5-9-8.2-15.3-9.4C27.7-1.8,16.2,4.7,11.8,16c-1.3,3.2-1.8,6.6-1.7,10
		c0.5,11.7,8.8,21.1,19.9,23.4c13.4,2.8,26.3-5.5,29.5-18.9c0.3-1.4,0.4-2.8,0.6-4.2c0-0.2,0.1-0.3,0.1-0.5c0-0.6,0-1.1,0-1.7
		C60,23.4,60,22.7,59.9,22z M47.3,42.4c-0.5,0.8-1.2,1.2-2.2,1.2c-6,0-11.9,0-17.9,0c-1.2,0-2.5,0-3.7,0c-1.5,0-2.5-0.9-2.8-2.3
		c0-0.1-0.1-0.1-0.1-0.1c0-10.2,0-20.5,0-30.7c0.1-0.6,0.3-1.1,0.7-1.5c0.6-0.6,1.3-0.8,2.1-0.8c2.2,0,4.4,0,6.6,0
		c0.1,0,0.3,0,0.5,0C30.6,6.9,31,6,31.9,5.2c0.8-0.6,1.7-0.8,2.7-0.7c1.7,0.1,3.1,1.7,3.2,3.6c0.2,0,0.3,0,0.5,0c2.3,0,4.5,0,6.8,0
		c1.3,0,2.3,0.7,2.6,1.9c0.1,0.2,0.1,0.4,0.1,0.6c0,1.2,0,2.4,0,3.6c0,1.2-1.3,2.3-2.6,1.9c-1-0.3-1.5-1-1.5-2c0-0.7,0-1.4,0-2.2
		c-1.1,0-2.2,0-3.3,0c-0.1,0.3-0.1,0.6-0.2,0.9c-0.3,0.8-0.8,1.2-1.7,1.2c-2.7,0-5.4,0-8,0c-1.1,0-2-0.7-2.2-1.8
		c0-0.1-0.2-0.3-0.3-0.3c-1.1,0-2.1,0-3.2,0c-0.1,0-0.2,0-0.3,0c0,9.3,0,18.6,0,28c7.8,0,15.5,0,23.3,0
		C47.8,40.8,47.8,41.6,47.3,42.4z M32.4,25.6c0,1.6,0,3,0,4.6c-1.6,0-3,0-4.6,0c0-1.5,0-3,0-4.6C29.4,25.6,30.8,25.6,32.4,25.6z
		 M27.8,23.2c0-1.6,0-3,0-4.6c1.5,0,3,0,4.6,0c0,1.5,0,3,0,4.6C30.8,23.2,29.4,23.2,27.8,23.2z M32.4,32.4c0,1.6,0,3,0,4.6
		c-1.6,0-3,0-4.6,0c0-1.5,0-3,0-4.6C29.3,32.4,30.8,32.4,32.4,32.4z M45.8,37.4c-5.3,0-9.6-4.4-9.6-9.7c0-5.2,4.4-9.5,9.7-9.5
		c5.3,0.1,9.6,4.4,9.6,9.7C55.4,33.2,51,37.5,45.8,37.4z"/>
	<path fill="#FFFFFF" d="M24.4,39.8c0-9.3,0-18.7,0-28c0.1,0,0.2,0,0.3,0c1.1,0,2.1,0,3.2,0c0.1,0,0.3,0.2,0.3,0.3
		c0.2,1.1,1.1,1.8,2.2,1.8c2.7,0,5.4,0,8,0c0.8,0,1.4-0.4,1.7-1.2c0.1-0.3,0.1-0.6,0.2-0.9c1.1,0,2.2,0,3.3,0c0,0.8,0,1.5,0,2.2
		c0,1,0.6,1.8,1.5,2c1.4,0.4,2.7-0.7,2.6-1.9c0-1.2,0-2.4,0-3.6c0-0.2,0-0.4-0.1-0.6c-0.3-1.2-1.3-1.9-2.6-1.9c-2.3,0-4.5,0-6.8,0
		c-0.2,0-0.3,0-0.5,0c-0.1-1.9-1.5-3.5-3.2-3.6c-1-0.1-1.9,0.1-2.7,0.7C31,6,30.6,6.9,30.6,8.1c-0.2,0-0.3,0-0.5,0
		c-2.2,0-4.4,0-6.6,0c-0.8,0-1.5,0.2-2.1,0.8c-0.4,0.4-0.6,1-0.7,1.5c0,10.2,0,20.5,0,30.7c0,0,0,0.1,0.1,0.1
		c0.3,1.5,1.3,2.3,2.8,2.3c1.2,0,2.5,0,3.7,0c6,0,11.9,0,17.9,0c1,0,1.7-0.4,2.2-1.2c0.5-0.8,0.5-1.6,0.5-2.6
		C40,39.8,32.2,39.8,24.4,39.8z M34.2,6.4c1,0,1.8,0.8,1.8,1.8c0,1-0.8,1.8-1.8,1.9c-1,0-1.9-0.9-1.9-1.9
		C32.4,7.2,33.2,6.4,34.2,6.4z"/>
	<path fill="#FFFFFF" d="M45.9,18.2c-5.2-0.1-9.6,4.3-9.7,9.5c0,5.3,4.2,9.7,9.6,9.7c5.3,0,9.6-4.2,9.7-9.5
		C55.5,22.6,51.2,18.2,45.9,18.2z M50.2,24.9c-1.4,2.8-2.8,5.5-4.3,8.3c-0.6,1.1-1.8,1.2-2.6,0.3c-0.9-1.1-1.8-2.1-2.8-3.2
		c-0.8-1-0.5-1.8,0.3-2.5c0.6-0.6,1.5-0.5,2.2,0.2c0.4,0.4,0.8,0.8,1.2,1.3c0,0,0,0,0.1,0c0.6-1.2,1.3-2.5,1.9-3.7
		c0.4-0.7,0.7-1.4,1.1-2.1c0.5-0.9,1.3-1.2,2.1-0.8C50.4,23.1,50.7,24,50.2,24.9z"/>
	<path fill="#FFFFFF" d="M27.8,18.7c0,1.6,0,3,0,4.6c1.6,0,3,0,4.6,0c0-1.6,0-3.1,0-4.6C30.8,18.7,29.3,18.7,27.8,18.7z M31.1,22.1
		c-0.8,0-1.5,0-2.1,0c0-0.8,0-1.5,0-2.2c0.7,0,1.4,0,2.1,0C31.1,20.5,31.1,21.3,31.1,22.1z"/>
	<path fill="#FFFFFF" d="M27.8,30.1c1.6,0,3,0,4.6,0c0-1.6,0-3,0-4.6c-1.6,0-3,0-4.6,0C27.8,27.1,27.8,28.7,27.8,30.1z M29,26.7
		c0.7,0,1.4,0,2.1,0c0,0.7,0,1.5,0,2.2c-0.8,0-1.5,0-2.1,0C29,28.2,29,27.5,29,26.7z"/>
	<path fill="#FFFFFF" d="M27.8,37c1.6,0,3,0,4.6,0c0-1.6,0-3,0-4.6c-1.6,0-3.1,0-4.6,0C27.8,34,27.8,35.5,27.8,37z M28.9,33.6
		c0.8,0,1.5,0,2.2,0c0,0.8,0,1.5,0,2.2c-0.7,0-1.5,0-2.2,0C28.9,35.1,28.9,34.4,28.9,33.6z"/>
</g>
</svg>
