<?xml version="1.0" encoding="utf-8"?>
<!-- Generator: Adobe Illustrator 18.1.1, SVG Export Plug-In . SVG Version: 6.00 Build 0)  -->
<!DOCTYPE svg PUBLIC "-//W3C//DTD SVG 1.0//EN" "http://www.w3.org/TR/2001/REC-SVG-20010904/DTD/svg10.dtd">
<svg version="1.0" id="Camada_1" xmlns="http://www.w3.org/2000/svg" xmlns:xlink="http://www.w3.org/1999/xlink" x="0px" y="0px"
	 viewBox="0 0 469 511.011" enable-background="new 0 0 469 511.011" xml:space="preserve">
<g>
	<polygon fill-rule="evenodd" clip-rule="evenodd" points="397.147,95.457 414,86.597 430.853,95.457 427.636,76.69 441.271,63.399 
		422.428,60.661 414,43.586 405.573,60.661 386.73,63.399 400.364,76.69 	"/>
	<polygon fill-rule="evenodd" clip-rule="evenodd" points="39.146,95.457 56,86.597 72.854,95.457 69.636,76.69 83.271,63.399 
		64.428,60.661 56,43.586 47.573,60.661 28.73,63.399 42.364,76.69 	"/>
	<polygon fill-rule="evenodd" clip-rule="evenodd" points="311.107,90.75 334,78.715 356.893,90.75 352.522,65.259 371.042,47.205 
		345.447,43.486 334,20.293 322.554,43.486 296.959,47.205 315.478,65.259 	"/>
	<polygon fill-rule="evenodd" clip-rule="evenodd" points="113.107,90.75 136,78.715 158.893,90.75 154.521,65.259 173.042,47.205 
		147.447,43.486 136,20.293 124.554,43.486 98.959,47.205 117.479,65.259 	"/>
	<polygon fill-rule="evenodd" clip-rule="evenodd" points="207.368,85.043 235,70.517 262.632,85.043 257.355,54.274 279.71,32.483 
		248.816,27.995 235,0 221.184,27.995 190.29,32.483 212.645,54.274 	"/>
	<path fill-rule="evenodd" clip-rule="evenodd" d="M449,186.011h-50v-49c0-11.046-8.954-20-20-20H89c-11.046,0-20,8.954-20,20v49H20
		c-11.046,0-20,8.954-20,20v285c0,11.046,8.954,20,20,20h159v-136c0-5.523,4.477-10,10-10h91c5.523,0,10,4.477,10,10v136h159
		c11.046,0,20-8.954,20-20v-285C469,194.965,460.046,186.011,449,186.011z M75,469.011c0,5.523-4.477,10-10,10H44
		c-5.523,0-10-4.477-10-10v-21c0-5.523,4.477-10,10-10h21c5.523,0,10,4.477,10,10V469.011z M75,396.011c0,5.523-4.477,10-10,10H44
		c-5.523,0-10-4.477-10-10v-21c0-5.523,4.477-10,10-10h21c5.523,0,10,4.477,10,10V396.011z M75,325.011c0,5.523-4.477,10-10,10H44
		c-5.523,0-10-4.477-10-10v-21c0-5.523,4.477-10,10-10h21c5.523,0,10,4.477,10,10V325.011z M75,252.011c0,5.523-4.477,10-10,10H44
		c-5.523,0-10-4.477-10-10v-21c0-5.523,4.477-10,10-10h21c5.523,0,10,4.477,10,10V252.011z M148,469.011c0,5.523-4.477,10-10,10h-21
		c-5.523,0-10-4.477-10-10v-21c0-5.523,4.477-10,10-10h21c5.523,0,10,4.477,10,10V469.011z M148,396.011c0,5.523-4.477,10-10,10h-21
		c-5.523,0-10-4.477-10-10v-21c0-5.523,4.477-10,10-10h21c5.523,0,10,4.477,10,10V396.011z M148,325.011c0,5.523-4.477,10-10,10h-21
		c-5.523,0-10-4.477-10-10v-21c0-5.523,4.477-10,10-10h21c5.523,0,10,4.477,10,10V325.011z M148,252.011c0,5.523-4.477,10-10,10h-21
		c-5.523,0-10-4.477-10-10v-21c0-5.523,4.477-10,10-10h21c5.523,0,10,4.477,10,10V252.011z M148,182.011c0,5.523-4.477,10-10,10h-21
		c-5.523,0-10-4.477-10-10v-21c0-5.523,4.477-10,10-10h21c5.523,0,10,4.477,10,10V182.011z M219,325.011c0,5.523-4.477,10-10,10h-21
		c-5.523,0-10-4.477-10-10v-21c0-5.523,4.477-10,10-10h21c5.523,0,10,4.477,10,10V325.011z M219,252.011c0,5.523-4.477,10-10,10h-21
		c-5.523,0-10-4.477-10-10v-21c0-5.523,4.477-10,10-10h21c5.523,0,10,4.477,10,10V252.011z M219,182.011c0,5.523-4.477,10-10,10h-21
		c-5.523,0-10-4.477-10-10v-21c0-5.523,4.477-10,10-10h21c5.523,0,10,4.477,10,10V182.011z M291,325.011c0,5.523-4.477,10-10,10h-21
		c-5.523,0-10-4.477-10-10v-21c0-5.523,4.477-10,10-10h21c5.523,0,10,4.477,10,10V325.011z M291,252.011c0,5.523-4.477,10-10,10h-21
		c-5.523,0-10-4.477-10-10v-21c0-5.523,4.477-10,10-10h21c5.523,0,10,4.477,10,10V252.011z M291,182.011c0,5.523-4.477,10-10,10h-21
		c-5.523,0-10-4.477-10-10v-21c0-5.523,4.477-10,10-10h21c5.523,0,10,4.477,10,10V182.011z M363,469.011c0,5.523-4.477,10-10,10h-21
		c-5.523,0-10-4.477-10-10v-21c0-5.523,4.477-10,10-10h21c5.523,0,10,4.477,10,10V469.011z M363,396.011c0,5.523-4.477,10-10,10h-21
		c-5.523,0-10-4.477-10-10v-21c0-5.523,4.477-10,10-10h21c5.523,0,10,4.477,10,10V396.011z M363,325.011c0,5.523-4.477,10-10,10h-21
		c-5.523,0-10-4.477-10-10v-21c0-5.523,4.477-10,10-10h21c5.523,0,10,4.477,10,10V325.011z M363,252.011c0,5.523-4.477,10-10,10h-21
		c-5.523,0-10-4.477-10-10v-21c0-5.523,4.477-10,10-10h21c5.523,0,10,4.477,10,10V252.011z M363,182.011c0,5.523-4.477,10-10,10h-21
		c-5.523,0-10-4.477-10-10v-21c0-5.523,4.477-10,10-10h21c5.523,0,10,4.477,10,10V182.011z M435,469.011c0,5.523-4.477,10-10,10h-21
		c-5.523,0-10-4.477-10-10v-21c0-5.523,4.477-10,10-10h21c5.523,0,10,4.477,10,10V469.011z M435,396.011c0,5.523-4.477,10-10,10h-21
		c-5.523,0-10-4.477-10-10v-21c0-5.523,4.477-10,10-10h21c5.523,0,10,4.477,10,10V396.011z M435,325.011c0,5.523-4.477,10-10,10h-21
		c-5.523,0-10-4.477-10-10v-21c0-5.523,4.477-10,10-10h21c5.523,0,10,4.477,10,10V325.011z M435,252.011c0,5.523-4.477,10-10,10h-21
		c-5.523,0-10-4.477-10-10v-21c0-5.523,4.477-10,10-10h21c5.523,0,10,4.477,10,10V252.011z"/>
</g>
</svg>
