<?xml version="1.0" encoding="utf-8"?>
<!-- Generator: Adobe Illustrator 16.0.0, SVG Export Plug-In . SVG Version: 6.00 Build 0)  -->
<!DOCTYPE svg PUBLIC "-//W3C//DTD SVG 1.1//EN" "http://www.w3.org/Graphics/SVG/1.1/DTD/svg11.dtd">
<svg version="1.1" id="Camada_1" xmlns="http://www.w3.org/2000/svg" xmlns:xlink="http://www.w3.org/1999/xlink" x="0px" y="0px"
	 width="595.3px" height="593.2px" viewBox="0 124.4 595.3 593.2" enable-background="new 0 124.4 595.3 593.2"
	 xml:space="preserve">
<g>
	<path d="M583.3,644.7l-133-132.9c27.6-39.9,43.9-88.3,43.9-140.4c0-136.2-110.8-247.1-247.1-247.1C110.8,124.4,0,235.2,0,371.5
		c0,136.2,110.8,247.1,247.1,247.1c53.1,0,102.4-16.9,142.8-45.5l132.6,132.5c16,16,41.9,16,57.9,0l2.9-2.9
		C599.3,686.6,599.3,660.7,583.3,644.7z M247.1,574.9c-112.2,0-203.4-91.2-203.4-203.4S134.9,168,247.1,168
		c112.2,0,203.4,91.2,203.4,203.4S359.3,574.9,247.1,574.9z"/>
</g>
</svg>
