<?xml version="1.0" encoding="utf-8"?>
<!-- Generator: Adobe Illustrator 16.0.0, SVG Export Plug-In . SVG Version: 6.00 Build 0)  -->
<!DOCTYPE svg PUBLIC "-//W3C//DTD SVG 1.0//EN" "http://www.w3.org/TR/2001/REC-SVG-20010904/DTD/svg10.dtd">
<svg version="1.0" id="Layer_1" xmlns="http://www.w3.org/2000/svg" xmlns:xlink="http://www.w3.org/1999/xlink" x="0px" y="0px"
	 width="100px" height="100px" viewBox="0 0 100 100" enable-background="new 0 0 100 100" xml:space="preserve">
<g>
	<path fill-rule="evenodd" clip-rule="evenodd" fill="#263C70" d="M45.38,91.664C30.223,81.412,17.433,68.742,6.785,53.887
		c-8.342-11.643,6.333-22.591,8.531-19.681l12.133,15.335c0.258,0.325-2.241,5.907-2.712,6.668
		c-0.913,1.473,16.464,18.506,17.938,17.547c0.749-0.488,6.263-3.09,6.599-2.848l15.588,11.807
		C67.843,84.869,57.207,99.664,45.38,91.664L45.38,91.664z"/>
	<path fill-rule="evenodd" clip-rule="evenodd" fill="#0087E5" d="M65.917,10.267c-14.578,0-26.397,9.646-26.397,21.543
		c0,4.266,1.526,8.238,4.146,11.584l-6.979,8.34l11.497-3.967c4.685,3.469,10.906,5.584,17.732,5.584
		c14.579,0,26.397-9.644,26.397-21.542C92.314,19.912,80.496,10.267,65.917,10.267z"/>
	<path fill-rule="evenodd" clip-rule="evenodd" fill="#FDDB2B" d="M79.772,24.932c0,1.062-0.86,1.922-1.921,1.922H53.982
		c-1.061,0-1.922-0.86-1.922-1.922l0,0c0-1.061,0.861-1.921,1.922-1.921h23.869C78.912,23.01,79.772,23.871,79.772,24.932
		L79.772,24.932z"/>
	<path fill-rule="evenodd" clip-rule="evenodd" fill="#FDDB2B" d="M79.772,31.81c0,1.061-0.86,1.921-1.921,1.921H53.982
		c-1.061,0-1.922-0.86-1.922-1.921l0,0c0-1.062,0.861-1.922,1.922-1.922h23.869C78.912,29.888,79.772,30.748,79.772,31.81
		L79.772,31.81z"/>
	<path fill-rule="evenodd" clip-rule="evenodd" fill="#FDDB2B" d="M79.772,38.687c0,1.062-0.86,1.922-1.921,1.922H53.982
		c-1.061,0-1.922-0.86-1.922-1.922l0,0c0-1.062,0.861-1.921,1.922-1.921h23.869C78.912,36.765,79.772,37.625,79.772,38.687
		L79.772,38.687z"/>
</g>
</svg>
