<?xml version="1.0" encoding="utf-8"?>
<!-- Generator: Adobe Illustrator 16.0.0, SVG Export Plug-In . SVG Version: 6.00 Build 0)  -->
<!DOCTYPE svg PUBLIC "-//W3C//DTD SVG 1.1//EN" "http://www.w3.org/Graphics/SVG/1.1/DTD/svg11.dtd">
<svg version="1.1" id="Camada_1" xmlns="http://www.w3.org/2000/svg" xmlns:xlink="http://www.w3.org/1999/xlink" x="0px" y="0px"
	 width="53.3px" height="50px" viewBox="8.3 0 53.3 50" enable-background="new 8.3 0 53.3 50" xml:space="preserve">
<g id="xD1C0L.tif">
	<g>
		<path d="M8.3,2.9c0.3-0.6,0.5-1.3,1-1.8C9.9,0.3,10.9,0,11.9,0c3.2,0,6.3,0,9.5,0C23.6,0,25,1.4,25,3.6c0,9.5,0,19.1,0,28.6
			c0,0.3,0,0.7,0,1.1c12.2,0,24.4,0,36.6,0c-0.1,2-1.5,3.3-3.4,3.3c-11,0-22,0-33.1,0c-2,0-3.5-1.5-3.5-3.5c0-9.7,0-19.3,0-29
			c0-0.2,0-0.5,0-0.8c-1.1,0-2.2,0-3.3,0C18.2,4.2,18,5,17.4,5.6c-0.6,0.6-1.3,1-2.2,1c-1.3,0-2.7,0.1-4-0.1
			C9.6,6.4,8.7,5.4,8.4,3.9c0,0-0.1-0.1-0.1-0.1C8.3,3.5,8.3,3.2,8.3,2.9z"/>
		<path d="M32.8,50c-0.9-0.2-1.7-0.5-2.4-1c-1.6-1.2-2.4-3.3-1.9-5.1c0.5-2.1,2.1-3.5,4.1-3.8c2.9-0.4,5.3,1.8,5.6,4.3
			c0.3,2.8-1.7,5.3-4.2,5.6c-0.1,0-0.2,0.1-0.2,0.1C33.5,50,33.2,50,32.8,50z"/>
		<path d="M49.5,50c-0.9-0.2-1.7-0.5-2.4-1c-1.6-1.2-2.4-3.3-1.9-5.1c0.5-2.1,2.1-3.5,4.1-3.8c2.9-0.4,5.3,1.8,5.6,4.3
			c0.3,2.8-1.7,5.2-4.2,5.6c-0.1,0-0.2,0.1-0.2,0.1C50.2,50,49.8,50,49.5,50z"/>
		<path d="M38.3,10c0,6.6,0,13.2,0,19.7c0,0.1,0,0.1,0,0.3c-0.2,0-0.4,0-0.6,0c-1.9,0-3.9,0-5.8,0c-2.2,0-3.6-1.4-3.6-3.6
			c0-4.3,0-8.5,0-12.8c0-2.2,1.4-3.6,3.6-3.6C34.1,10,36.2,10,38.3,10L38.3,10z"/>
		<path d="M51.6,10c2.3,0,4.5-0.1,6.8,0c1.9,0.1,3.2,1.6,3.2,3.4c0,4.4,0,8.7,0,13.1c0,1.9-1.4,3.4-3.3,3.4c-2.2,0.1-4.4,0-6.8,0
			C51.7,23.3,51.7,16.7,51.6,10C51.7,10,51.6,10,51.6,10z"/>
		<path d="M48.3,10c0,6.6,0,13.3,0,20c-2.2,0-4.4,0-6.7,0c0-6.7,0-13.3,0-20l0,0C43.9,10,46.1,10,48.3,10L48.3,10z"/>
		<path d="M38.3,10c0-2.2,0-4.4,0-6.6c4.4,0,8.9,0,13.3,0c0,2.2,0,4.4,0,6.7c0,0,0,0,0,0c-1.1,0-2.2,0-3.3,0l0,0c0-1.1,0-2.2,0-3.3
			c-2.3,0-4.5,0-6.7,0c0,1.1,0,2.2,0,3.3l0,0C40.6,10,39.4,10,38.3,10L38.3,10z"/>
	</g>
</g>
</svg>
