<?xml version="1.0" encoding="utf-8"?>
<!-- Generator: Adobe Illustrator 16.0.0, SVG Export Plug-In . SVG Version: 6.00 Build 0)  -->
<!DOCTYPE svg PUBLIC "-//W3C//DTD SVG 1.1//EN" "http://www.w3.org/Graphics/SVG/1.1/DTD/svg11.dtd">
<svg version="1.1" id="Camada_1" xmlns="http://www.w3.org/2000/svg" xmlns:xlink="http://www.w3.org/1999/xlink" x="0px" y="0px"
	 width="70px" height="47.1px" viewBox="0 1.5 70 47.1" enable-background="new 0 1.5 70 47.1" xml:space="preserve">
<g id="W68y5H.tif">
	<g>
		<path d="M45.6,35.9c-4.6-0.7-9.1-0.9-13.7-0.6c-9.7,0.6-18.8,3.2-26.8,9c-1.8,1.3-3.4,2.8-5.1,4.2c0.1-0.6,0.3-1.2,0.4-1.8
			c1.8-6.4,5.4-11.6,10.2-16.1c7.2-6.8,15.8-11.3,25-14.9c3.3-1.3,6.6-2.3,10-3.5c0-0.1,0-0.4,0-0.7c0-2.8,0-5.7,0-8.5
			c0-0.5-0.2-1.3,0.5-1.5c0.4-0.1,1,0.3,1.4,0.7C54.7,9,61.8,15.8,69,22.6c1.4,1.3,1.4,2.4,0,3.7C61.8,33.2,54.6,40,47.4,46.9
			c-0.1,0.1-0.3,0.3-0.4,0.4c-0.7,0.5-1.1,0.3-1.3-0.5c-0.1-0.3-0.1-0.6-0.1-1c0-3,0-6,0-9C45.6,36.6,45.6,36.3,45.6,35.9z"/>
	</g>
</g>
</svg>
