<?xml version="1.0" encoding="utf-8"?>
<!-- Generator: Adobe Illustrator 16.0.0, SVG Export Plug-In . SVG Version: 6.00 Build 0)  -->
<!DOCTYPE svg PUBLIC "-//W3C//DTD SVG 1.1//EN" "http://www.w3.org/Graphics/SVG/1.1/DTD/svg11.dtd">
<svg version="1.1" id="Camada_1" xmlns="http://www.w3.org/2000/svg" xmlns:xlink="http://www.w3.org/1999/xlink" x="0px" y="0px"
	 width="50px" height="50px" viewBox="10 0 50 50" enable-background="new 10 0 50 50" xml:space="preserve">
<g id="R04fDK.tif">
	<g>
		<path d="M34,0c0.7,0,1.3,0,2,0c0.2,0,0.3,0.1,0.5,0.1c1.6,0.2,3.1,0.4,4.7,0.7c9.9,2.4,17.7,11.3,18.7,21.4
			c0.1,0.6,0.1,1.2,0.2,1.8c0,0.7,0,1.3,0,2c0,0.2-0.1,0.4-0.1,0.6c-0.2,1.2-0.2,2.5-0.5,3.7c-2.8,13.5-16.1,22.1-29.6,19.2
			C17.1,46.8,8.2,34.6,10.3,21.1c0.8-5.4,3.2-10,7.1-13.8c4.1-4.1,9.1-6.5,14.9-7.1C32.8,0.1,33.4,0.1,34,0z M52.6,18.8
			c-1.9-6-8.6-13-18.7-12.5c-8.9,0.5-14.8,7-16.5,12.5C29.1,18.8,40.8,18.8,52.6,18.8z M53.7,25c-1.6,0-3.2,0.3-4.7,0.9
			c-4,1.5-6.7,4.4-8.7,8.2c-1.4,2.7-2.1,5.7-2.3,8.7c0,0.2,0,0.5,0,0.8C47.6,42,54,33.3,53.7,25z M16.2,25c0.1,5,1.8,9.3,5.2,12.9
			c2.9,3,6.4,4.9,10.5,5.6c0-0.5-0.1-1-0.1-1.4c-0.2-3.1-1.1-6.1-2.6-8.8c-2-3.6-4.9-6.3-8.9-7.6C19,25.2,17.6,25,16.2,25z M31.8,25
			c0,1.8,1.4,3.2,3.1,3.2c1.8,0,3.2-1.4,3.2-3.1c0-1.8-1.4-3.2-3.1-3.2C33.2,21.9,31.8,23.2,31.8,25z"/>
	</g>
</g>
</svg>
