<?xml version="1.0" encoding="utf-8"?>
<!-- Generator: Adobe Illustrator 21.0.0, SVG Export Plug-In . SVG Version: 6.00 Build 0)  -->
<svg version="1.1" id="Camada_1" xmlns="http://www.w3.org/2000/svg" xmlns:xlink="http://www.w3.org/1999/xlink" x="0px" y="0px"
	 width="460.1px" height="228.1px" viewBox="0 0 460.1 228.1" style="enable-background:new 0 0 460.1 228.1;" xml:space="preserve"
	>
<g id="vJ9cfb.tif">
	<g>
		<path d="M460.1,15c0,3.3,0,6.7,0,10c-22.8,0-45.6,0-68.4,0c-7,0-8.6,1.6-8.6,8.8c0,7,0,14,0,21c0,5.7,2,10.6,6,14.6
			c8.8,8.9,17.6,17.7,26.5,26.5c4.1,4.1,9,6.3,15.1,6.1c9.8-0.2,19.6-0.1,29.5-0.1c0,20.3,0,40.7,0,61c-3.8,8.2-8.5,15.1-18.9,15.2
			c-3.2,0-4.3-0.8-5.2-4.1c-6.2-22.5-24.9-38.2-47.7-39.9c-27-2-49.4,14.3-56.6,40.5c-1,3.5-2.3,4.3-5.7,4.3
			c-59-0.1-117.9,0-176.9,0.1c-3.2,0-4.3-0.8-5.2-4.2c-5.7-22.4-24.1-38.2-47.1-40.7c-22.7-2.5-45,10.9-54.2,31.6
			c-1.9,4.4-2.7,10.7-6,12.6c-3.9,2.2-10,0.6-15.2,0.6c-14.5,0-24.2-10.6-20.7-25.6c13.4-1.5,18.3-4.5,18.3-12
			c0-3.1-1.1-6.5-2.7-9.1c-3.6-5.7-10.1-5.1-15.8-5.4c-0.1-1-0.3-1.5-0.3-2c0-36,0-72,0-107.9c0-1.9,0.6-3.9,1.3-5.7
			C3.8,5.3,8.8,2.4,14.1,0c144,0,288,0,432,0C452.9,3,457.4,8.2,460.1,15z M114.5,25.2c0,21.4,0,42.5,0,63.4c21.7,0,43.1,0,64.4,0
			c0-21.3,0-42.3,0-63.4C157.4,25.2,136.2,25.2,114.5,25.2z M25.5,25.2c0,21.4,0,42.5,0,63.4c21.4,0,42.4,0,63.4,0
			c0-21.3,0-42.3,0-63.4C67.7,25.2,46.8,25.2,25.5,25.2z M268.2,25.3c-21.7,0-42.7,0-63.6,0c0,21.4,0,42.4,0,63.4
			c21.4,0,42.5,0,63.6,0C268.2,67.4,268.2,46.5,268.2,25.3z M294.1,88.7c21.6,0,42.7,0,63.7,0c0-21.4,0-42.4,0-63.4
			c-21.4,0-42.5,0-63.7,0C294.1,46.6,294.1,67.5,294.1,88.7z M294,114.4c0,2.2,0.1,4.3,0,6.5c-0.2,4.1,2.5,6.4,5.8,6.8
			c3.7,0.4,6.8-2.1,7.2-6c0.5-4.6,0.5-9.3,0-13.9c-0.5-4-3.1-6.5-7.6-5.9c-4,0.6-5.4,3.3-5.4,7C294,110.8,294,112.6,294,114.4z"/>
		<path d="M91.6,148c22.8-0.1,40.3,17.3,40.3,40.1c-0.1,23-18.4,40.1-40.6,39.9c-22.1-0.2-39.9-17.2-39.8-40.2
			C51.7,164.1,70.2,147.9,91.6,148z M103.2,188.2c0.1-6.8-5-12.2-11.5-12.2c-5.9,0-11.5,5.7-11.5,11.9c0,6.2,5.4,11.9,11.4,12.1
			C97.4,200.2,103.1,194.4,103.2,188.2z"/>
		<path d="M344.1,188c-1.5-21.5,18.5-40.7,40.4-40.1c21.4,0.6,39.5,17.5,39.5,40c0,23.8-19.2,40.3-40.8,40.2
			C362.6,228,342.9,209.9,344.1,188z M395.3,188c0.3-7.9-6-11.9-11.7-12c-6-0.1-11.5,6-11.4,12.1c0.1,6,5.8,12.1,11.7,11.8
			C389.7,199.6,395.5,195.6,395.3,188z"/>
	</g>
</g>
</svg>
