<?xml version="1.0" encoding="utf-8"?>
<!-- Generator: Adobe Illustrator 16.0.4, SVG Export Plug-In . SVG Version: 6.00 Build 0)  -->
<!DOCTYPE svg PUBLIC "-//W3C//DTD SVG 1.0//EN" "http://www.w3.org/TR/2001/REC-SVG-20010904/DTD/svg10.dtd">
<svg version="1.0" id="Layer_1" xmlns="http://www.w3.org/2000/svg" xmlns:xlink="http://www.w3.org/1999/xlink" x="0px" y="0px"
	 width="41.161px" height="41.161px" viewBox="0 0 41.161 41.161" enable-background="new 0 0 41.161 41.161" xml:space="preserve">
<circle fill="#263C70" cx="20.581" cy="20.581" r="20.581"/>
<g id="vJ9cfb.tif">
	<g>
		<path fill="#FFFFFF" d="M30.871,16.539c0,0.148,0,0.298,0,0.447c-1.021,0-2.04,0-3.06,0c-0.315,0-0.384,0.071-0.385,0.395
			c0,0.313,0.001,0.626,0,0.938c-0.002,0.256,0.088,0.475,0.268,0.655c0.394,0.396,0.787,0.792,1.185,1.185
			c0.186,0.184,0.404,0.28,0.674,0.274c0.439-0.01,0.879-0.003,1.318-0.003c0,0.91,0,1.819,0,2.729
			c-0.168,0.368-0.38,0.677-0.848,0.678c-0.145,0.001-0.193-0.035-0.235-0.186c-0.278-1.007-1.114-1.708-2.132-1.784
			c-1.21-0.091-2.209,0.64-2.531,1.81c-0.043,0.157-0.104,0.192-0.255,0.192c-2.637-0.003-5.273-0.002-7.91,0.002
			c-0.142,0-0.193-0.036-0.232-0.188c-0.257-1.002-1.079-1.708-2.106-1.819c-1.014-0.11-2.012,0.485-2.426,1.414
			c-0.087,0.195-0.119,0.48-0.267,0.564c-0.176,0.099-0.449,0.027-0.681,0.026c-0.648-0.001-1.082-0.473-0.926-1.143
			c0.6-0.065,0.819-0.2,0.817-0.537c-0.001-0.138-0.049-0.292-0.122-0.41c-0.163-0.256-0.452-0.229-0.709-0.24
			c-0.006-0.047-0.011-0.068-0.011-0.09c-0.001-1.609-0.002-3.218,0.001-4.828c0-0.086,0.028-0.174,0.061-0.255
			c0.102-0.26,0.325-0.39,0.563-0.5c6.44,0,12.881,0,19.321,0C30.549,16.002,30.75,16.233,30.871,16.539z M15.411,16.997
			c0,0.958,0,1.899,0,2.836c0.972,0,1.927,0,2.88,0c0-0.954,0-1.89,0-2.836C17.33,16.997,16.38,16.997,15.411,16.997z M11.43,16.997
			c0,0.958,0,1.9,0,2.836c0.957,0,1.898,0,2.836,0c0-0.955,0-1.891,0-2.836C13.318,16.997,12.383,16.997,11.43,16.997z
			 M22.283,17.001c-0.968,0-1.909,0-2.846,0c0,0.957,0,1.897,0,2.834c0.958,0,1.9,0,2.846,0
			C22.283,18.884,22.283,17.949,22.283,17.001z M23.445,19.835c0.968,0,1.909,0,2.848,0c0-0.957,0-1.898,0-2.834
			c-0.959,0-1.899,0-2.848,0C23.445,17.952,23.445,18.887,23.445,19.835z M23.438,20.986c0,0.097,0.004,0.193,0,0.29
			c-0.008,0.183,0.109,0.288,0.259,0.304c0.167,0.018,0.305-0.093,0.322-0.267c0.022-0.205,0.024-0.417-0.001-0.621
			c-0.021-0.178-0.14-0.292-0.341-0.263c-0.18,0.025-0.241,0.145-0.239,0.313C23.439,20.824,23.438,20.905,23.438,20.986z"/>
		<path fill="#FFFFFF" d="M14.387,22.487c1.018-0.005,1.803,0.776,1.801,1.795c-0.002,1.03-0.822,1.793-1.813,1.782
			c-0.989-0.01-1.785-0.77-1.779-1.797C12.601,23.209,13.429,22.483,14.387,22.487z M14.903,24.285
			c0.003-0.305-0.225-0.545-0.516-0.545c-0.266,0-0.513,0.255-0.513,0.531c-0.001,0.276,0.24,0.532,0.509,0.541
			C14.646,24.821,14.901,24.562,14.903,24.285z"/>
		<path fill="#FFFFFF" d="M25.682,24.276c-0.066-0.96,0.825-1.822,1.809-1.794c0.959,0.026,1.766,0.785,1.764,1.788
			c-0.001,1.066-0.857,1.803-1.824,1.799C26.51,26.064,25.629,25.255,25.682,24.276z M27.971,24.279
			c0.013-0.355-0.268-0.531-0.524-0.536c-0.268-0.005-0.515,0.268-0.512,0.54c0.003,0.268,0.259,0.54,0.524,0.526
			C27.721,24.794,27.979,24.618,27.971,24.279z"/>
	</g>
</g>
</svg>
