<?xml version="1.0" encoding="utf-8"?>
<!-- Generator: Adobe Illustrator 16.0.0, SVG Export Plug-In . SVG Version: 6.00 Build 0)  -->
<!DOCTYPE svg PUBLIC "-//W3C//DTD SVG 1.0//EN" "http://www.w3.org/TR/2001/REC-SVG-20010904/DTD/svg10.dtd">
<svg version="1.0" id="Layer_1" xmlns="http://www.w3.org/2000/svg" xmlns:xlink="http://www.w3.org/1999/xlink" x="0px" y="0px"
	 width="100px" height="100px" viewBox="0 0 100 100" enable-background="new 0 0 100 100" xml:space="preserve">
<g>
	<path fill-rule="evenodd" clip-rule="evenodd" fill="#263C70" d="M73.38,66.577c0,0.796,0.011,1.55-0.002,2.303
		c-0.044,2.876-1.871,4.527-4.736,4.472c-6.741-0.131-13.147-1.618-19.073-4.831c-11.997-6.5-19.463-16.438-22.121-29.858
		c-0.492-2.491-0.615-5.066-0.77-7.61c-0.15-2.473,1.651-4.331,4.203-4.392c2.752-0.065,5.511-0.061,8.264,0.001
		c2.547,0.058,4.211,1.737,4.238,4.281c0.031,2.72,0.497,5.35,1.278,7.947c0.419,1.396,0.161,2.706-0.761,3.885
		c-1.158,1.483-2.266,3.006-3.42,4.492c-0.284,0.364-0.313,0.644-0.09,1.053c2.656,4.87,6.436,8.606,11.278,11.291
		c0.438,0.242,0.739,0.195,1.128-0.109c1.457-1.145,2.961-2.23,4.42-3.374c1.183-0.925,2.502-1.164,3.891-0.747
		c2.625,0.788,5.283,1.245,8.031,1.281c2.508,0.033,4.147,1.753,4.239,4.298c0.022,0.615-0.171,1.421,0.144,1.788
		c0.297,0.347,1.143,0.188,1.729,0.327c1.196,0.284,2.431,0.497,3.562,0.952c3.739,1.505,5.281,4.922,3.937,8.719
		c-1.312,3.698-3.719,6.655-6.643,9.186c-5.994,5.19-13.033,8.071-20.845,9.047c-10.937,1.366-20.931-1.192-29.784-7.756
		C16.76,76.76,11.291,68.138,9.391,57.431C7.17,44.913,10.105,33.6,18.141,23.758c6.559-8.033,15.072-12.934,25.347-14.539
		c11.427-1.785,21.905,0.745,31.181,7.652c8.668,6.458,14.048,15.091,15.975,25.766c0.422,2.335,0.508,4.735,0.678,7.111
		c0.087,1.231-0.664,2.025-1.734,2.017c-1.066-0.006-1.75-0.785-1.766-2.03c-0.119-8.821-2.907-16.708-8.482-23.533
		c-5.826-7.133-13.287-11.673-22.382-13.322c-11.435-2.072-21.77,0.577-30.792,7.855c-7.141,5.759-11.632,13.249-13.273,22.312
		c-2.055,11.365,0.537,21.651,7.739,30.662c5.813,7.271,13.388,11.804,22.573,13.452c9.942,1.785,19.205-0.065,27.673-5.611
		c3.412-2.234,6.208-5.089,8.04-8.788c0.309-0.621,0.532-1.298,0.693-1.974c0.287-1.217-0.137-2.209-1.139-2.948
		C77.27,66.954,75.157,66.416,73.38,66.577z"/>
</g>
</svg>
