<?xml version="1.0" encoding="utf-8"?>
<!-- Generator: Adobe Illustrator 16.0.0, SVG Export Plug-In . SVG Version: 6.00 Build 0)  -->
<!DOCTYPE svg PUBLIC "-//W3C//DTD SVG 1.0//EN" "http://www.w3.org/TR/2001/REC-SVG-20010904/DTD/svg10.dtd">
<svg version="1.0" id="Layer_1" xmlns="http://www.w3.org/2000/svg" xmlns:xlink="http://www.w3.org/1999/xlink" x="0px" y="0px"
	 width="100px" height="100px" viewBox="0 0 100 100" enable-background="new 0 0 100 100" xml:space="preserve">
<g>
	<path fill-rule="evenodd" clip-rule="evenodd" fill="#7a1d2f" d="M89.488,36.777c-0.213,0.635-0.424,1.271-0.639,1.906
		c-0.051,0.147-0.09,0.307-0.177,0.433c-1.477,2.144-3,4.247-5.044,5.91c-0.256,0.208-0.456,0.498-0.639,0.778
		c-0.657,1.008-1.292,2.032-1.946,3.042c-0.063,0.098-0.204,0.145-0.311,0.216c-0.052-0.072-0.1-0.108-0.103-0.147
		c-0.02-0.294-0.03-0.589-0.043-0.884c-0.184,0.262-0.402,0.506-0.539,0.79c-0.201,0.418-0.343,0.865-0.514,1.298
		c-0.057,0.144-0.212,0.374-0.172,0.413c0.564,0.561-0.045,1.051-0.055,1.566c-0.009,0.459,0.056,0.947,0.216,1.374
		c0.298,0.796,0.2,1.515-0.085,2.295c-0.302,0.829-0.43,1.72-0.686,2.569c-0.104,0.348-0.4,0.637-0.516,0.983
		c-0.201,0.605-0.318,1.237-0.49,1.853c-0.086,0.309-0.141,0.669-0.338,0.895c-0.699,0.803-1.539,1.475-1.884,2.562
		c-0.104,0.328-0.532,0.56-0.826,0.819c-0.456,0.403-0.71,0.86-0.415,1.462c0.264,0.535,0.038,0.785-0.472,0.904
		c-0.669,0.157-1.072,0.568-1.341,1.211c-0.104,0.246-0.518,0.482-0.806,0.504c-0.915,0.066-1.839,0.04-2.759,0.023
		c-0.178-0.003-0.35-0.136-0.531-0.187c-0.417-0.116-0.787-0.332-1.073,0.326c-0.161,0.37-0.714,0.593-1.124,0.821
		c-0.21,0.116-0.495,0.098-0.739,0.139c0.028,0.288,0.05,0.498,0.07,0.708c-0.218-0.019-0.45-0.097-0.649-0.045
		c-0.629,0.165-1.312,0.271-1.855,0.597c-1.169,0.705-2.297,1.492-3.365,2.342c-0.281,0.226-0.447,0.83-0.384,1.213
		c0.222,1.334-0.083,2.604-0.351,3.869c-0.195,0.925-0.564,1.719-1.459,2.354c-0.789,0.562-1.383,1.524-1.822,2.428
		c-0.703,1.449-1.753,2.57-2.988,3.502c-1.009,0.76-1.505,1.781-2.007,2.855c-0.182,0.387-0.466,0.742-0.767,1.053
		c-0.132,0.137-0.512,0.236-0.615,0.152c-0.173-0.14-0.307-0.451-0.285-0.674c0.029-0.328,0.196-0.646,0.33-0.958
		c0.331-0.775,0.104-1.536-0.616-1.972c-0.636-0.384-1.284-0.744-1.915-1.135c-0.219-0.135-0.5-0.291-0.58-0.502
		c-0.193-0.505-0.427-0.65-0.943-0.414c-0.111,0.051-0.404-0.205-0.564-0.367c-0.21-0.214-0.383-0.469-0.553-0.718
		c-0.424-0.617-0.98-0.706-1.657-0.488c-0.166,0.054-0.381-0.047-0.769-0.105c0.688-0.605,1.268-1.054,1.768-1.577
		c0.385-0.404,0.652-0.918,1.003-1.359c0.349-0.438,0.721-0.861,1.112-1.262c0.486-0.5,0.977-1.001,1.518-1.439
		c0.255-0.207,0.621-0.354,0.949-0.381c1.045-0.088,1.156-0.164,1.269-1.187c0.015-0.13,0.044-0.261,0.083-0.386
		c0.371-1.202,0.329-1.277-0.859-1.543c-0.098-0.022-0.186-0.09-0.383-0.189c0.176-0.793,0.317-1.609,0.542-2.403
		c0.26-0.921,0.083-1.198-0.833-1.139c-1.277,0.083-1.563-0.177-1.635-1.481c-0.076-1.397-0.988-2.172-2.342-1.988
		c-1.125,0.153-1.979-0.478-1.996-1.667c-0.01-0.748-0.589-1.519,0.016-2.271c0.039-0.049-0.067-0.246-0.141-0.352
		c-0.539-0.77-0.207-1.452,0.262-2.068c0.3-0.395,0.428-0.699,0.206-1.2c-0.511-1.151-0.928-2.344-1.413-3.507
		c-0.065-0.158-0.291-0.322-0.464-0.352c-0.8-0.137-1.61-0.209-2.411-0.342c-0.239-0.039-0.564-0.137-0.667-0.314
		c-0.313-0.539-0.544-1.129-0.792-1.706c-0.036-0.082-0.033-0.245,0.02-0.292c0.875-0.76,0.405-1.531-0.051-2.215
		c-0.214-0.32-0.669-0.521-1.056-0.672c-0.937-0.364-1.92-0.613-2.844-1.005c-1.376-0.583-2.557-1.676-4.194-1.549
		c-0.053,0.004-0.108,0.003-0.158-0.01c-0.413-0.112-1.893-2.057-1.918-2.497c-0.045-0.763-0.087-1.526-0.162-2.286
		c-0.056-0.565-1.499-0.959-2.086-0.626c-1.338,0.761-2.68,1.522-4.056,2.211c-0.452,0.226-1.021,0.345-1.523,0.31
		c-0.687-0.048-1.288-0.154-1.942,0.288c-0.508,0.343-0.727-0.241-0.811-0.648c-0.152-0.736-0.259-1.484-0.344-2.232
		c-0.055-0.486-0.281-0.619-0.68-0.391c-0.387,0.22-0.712,0.555-1.109,0.74c-0.266,0.123-0.742,0.214-0.898,0.071
		c-0.727-0.659-1.521-0.988-2.568-0.726c0.147-0.492,0.258-0.86,0.36-1.2c-0.099-0.081-0.138-0.14-0.178-0.141
		c-1.304-0.035-1.3-0.034-1.433-1.35c-0.018-0.179-0.074-0.359-0.142-0.527c-0.448-1.101-0.15-2.061,0.871-2.648
		c0.414-0.238,0.507-0.507,0.251-0.897c-0.273-0.419-0.163-0.704,0.235-0.993c0.208-0.151,0.397-0.447,0.429-0.698
		c0.076-0.621,0.434-0.929,0.976-1.107c0.024-0.008,0.061-0.001,0.076-0.017c0.914-0.924,2.132-0.945,3.301-1.118
		c0.126-0.019,0.276-0.144,0.362-0.105c1.059,0.481,1.37-0.264,1.772-0.994c0.591-1.073,0.731-2.171,0.475-3.357
		c-0.146-0.675-0.18-1.322,0.384-1.916c0.447-0.47,0.236-0.956-0.525-1.464c-0.438-0.293-0.927-0.519-0.927-1.167
		c0.001-0.604,0.169-0.983,0.88-0.853c0.353,0.064,0.715,0.079,1.072,0.117c0.041-0.081,0.083-0.161,0.125-0.242
		c-0.281-0.207-0.558-0.42-0.843-0.62c-0.216-0.151-0.442-0.286-0.663-0.428c0.266-0.281,0.503-0.758,0.805-0.803
		c0.77-0.115,1.568-0.039,2.42-0.039c-0.069-0.284-0.158-0.647-0.246-1.007c0.549,0.027,0.991,0.05,1.537,0.078
		c0.018,0.056,0.052,0.259,0.134,0.441c0.107,0.237,0.196,0.545,0.391,0.667c0.692,0.434,1.407,0.843,2.153,1.17
		c0.258,0.113,0.824,0.073,0.923-0.093c0.657-1.093,1.846-1.406,2.802-2.053c0.146-0.1,0.268-0.238,0.423-0.38
		c-0.085-0.11-0.14-0.25-0.208-0.257c-1.046-0.098-1.105-0.925-1.152-1.662c-0.043-0.693-0.008-1.362-0.638-1.838
		c-0.056-0.042-0.026-0.196-0.044-0.357c0.189-0.036,0.367-0.122,0.523-0.092c1.037,0.197,2.065,0.441,3.105,0.62
		c0.33,0.057,0.752,0.074,1.016-0.084c0.758-0.456,1.519-0.696,2.403-0.509c0.173,0.037,0.413-0.028,0.562-0.133
		c0.359-0.252,0.648-0.622,1.029-0.82c0.411-0.213,0.645-0.439,0.791-0.906c0.066-0.21,0.637-0.32,0.987-0.347
		c0.112-0.009,0.38,0.405,0.363,0.607c-0.042,0.512-0.021,0.842,0.604,0.957c0.467,0.085,0.473,0.489,0.159,0.778
		c-0.983,0.903-0.649,1.93-0.366,2.983c0.113,0.424,0.103,0.882,0.148,1.324c-0.08,0.019-0.161,0.037-0.241,0.056
		c0.522,0.336,1.032,0.693,1.571,1.001c0.469,0.267,0.887,0.119,1.301-0.214c0.873-0.703,1.79-1.214,3.02-0.944
		c0.505,0.111,1.102-0.098,1.63-0.253c0.142-0.042,0.251-0.417,0.26-0.644c0.021-0.565,0.226-0.676,0.755-0.495
		c0.413,0.142,0.869,0.19,1.31,0.207c0.694,0.026,1.325,0.043,2.047,0.281c0.812,0.268,2.021,0.822,2.855-0.124
		c0.49-0.556,0.782-1.292,1.138-1.96c0.455-0.854,0.874-1.727,1.34-2.574c0.078-0.141,0.316-0.194,0.575-0.341
		c0.604,1.831,1.173,3.55,1.761,5.332c0.109-0.351,0.207-0.659,0.276-0.882c0.358,0.345,0.659,0.62,0.94,0.914
		c0.102,0.105,0.238,0.276,0.213,0.381c-0.035,0.143-0.192,0.281-0.331,0.365c-0.171,0.104-0.377,0.15-0.567,0.221
		c0.016,0.063,0.03,0.126,0.046,0.188c0.198,0,0.396,0,0.819,0c-0.697,0.729-1.295,1.285-1.809,1.911
		c-0.592,0.721-1.112,1.5-1.656,2.26c-0.134,0.187-0.256,0.387-0.347,0.596c-0.075,0.175-0.097,0.373-0.143,0.561
		c0.194,0.042,0.431,0.173,0.575,0.106c0.297-0.134,0.6-0.331,0.8-0.582c0.492-0.619,0.995-0.601,1.36,0.111
		c0.154,0.299,0.277,0.612,0.507,1.127c-0.614-0.029-1.085-0.05-1.556-0.075c-0.914-0.048-1.164,0.262-0.852,1.194
		c0.13-0.234,0.229-0.412,0.314-0.565c1.293,0.464,2.456-0.253,3.727-0.423c-0.044,0.35-0.082,0.651-0.119,0.953
		c0.112,0.077,0.225,0.153,0.336,0.23c0.129-0.338,0.259-0.676,0.389-1.014c0.063,0.071,0.127,0.143,0.191,0.214
		c0.088,0.831,0.177,1.662,0.265,2.492c0.116-0.012,0.231-0.025,0.347-0.038c-0.047-0.409-0.026-0.843-0.158-1.223
		c-0.232-0.675,0.024-1.129,0.529-1.503c0.412-0.305,0.56-0.639,0.551-1.195c-0.016-1.171,1.182-1.725,2.192-1.125
		c0.346,0.206,0.784,0.25,1.173,0.392c0.307,0.112,0.6,0.26,0.978,0.428c0.104-0.073,0.282-0.198,0.54-0.378
		c-0.015,0.281-0.024,0.473-0.037,0.701c0.402,0.034,0.78,0.067,1.208,0.104c0.009,0.174,0.02,0.397,0.028,0.569
		c0.295-0.119,0.564-0.297,0.848-0.326c0.626-0.065,0.893,0.42,0.738,1.002c-0.091,0.346,0.09,0.762,0.143,1.148
		c0.057,0.408,0.107,0.817,0.152,1.158c0.398-0.425,0.752-1.051,1.284-1.306c0.713-0.342,1.532-0.691,2.37-0.067
		c0.368,0.275,0.858,0.547,1.376,0.147c0.097-0.075,0.302-0.016,0.456-0.008c0.731,0.036,1.465,0.136,2.191,0.101
		c1.369-0.065,2.53,0.339,3.518,1.291c0.24,0.232,0.574,0.364,0.831,0.583c0.853,0.724,1.663,1.501,2.542,2.19
		c0.746,0.583,1.557,1.004,2.599,0.753c1.06-0.255,1.538,0.15,1.838,1.197c0.265,0.922,0.637,1.812,0.962,2.717
		C89.488,36.354,89.488,36.566,89.488,36.777z"/>
</g>
</svg>
