<?xml version="1.0" encoding="utf-8"?>
<!-- Generator: Adobe Illustrator 16.0.0, SVG Export Plug-In . SVG Version: 6.00 Build 0)  -->
<!DOCTYPE svg PUBLIC "-//W3C//DTD SVG 1.0//EN" "http://www.w3.org/TR/2001/REC-SVG-20010904/DTD/svg10.dtd">
<svg version="1.0" id="Layer_1" xmlns="http://www.w3.org/2000/svg" xmlns:xlink="http://www.w3.org/1999/xlink" x="0px" y="0px"
	 width="100px" height="100px" viewBox="0 0 100 100" enable-background="new 0 0 100 100" xml:space="preserve">
<g>
	<path fill-rule="evenodd" clip-rule="evenodd" fill="#263C70" d="M68.587,58.073c-0.208,3.824-1.148,7.64-2.368,11.386
		c-2.453,7.535-6.095,14.398-11.66,20.132c-0.968,0.997-2.035,1.899-3.083,2.815c-1.536,1.346-3.29,1.541-5.111,0.739
		c-1.868-0.822-2.622-2.41-2.75-4.382c-0.148-2.308-0.188-4.637-0.567-6.908c-0.458-2.76-1.434-5.368-3.362-7.514
		c-1.548-1.723-3.062-1.803-4.681-0.166c-1.615,1.632-2.474,3.681-3.102,5.846c-0.831,2.869-1.095,5.804-1.005,8.778
		c0.059,1.922-0.886,3.284-2.486,4.174c-1.573,0.876-3.299,0.851-4.671-0.259c-1.908-1.541-3.715-3.242-5.367-5.055
		c-2.431-2.665-4.31-5.734-5.991-8.926C10.388,74.953,8.852,71,7.718,66.881c-1.01-3.668-1.687-7.402-1.901-11.189
		C5.473,49.625,5.966,43.636,8.29,37.938c1.771-4.343,4.439-8.001,8.545-10.44c3.239-1.924,6.79-2.538,10.471-1.988
		c1.894,0.283,3.722,1.004,5.58,1.526c0.503,0.142,0.628,0.481,0.621,0.982c-0.107,6.686,1.828,12.752,5.774,18.123
		c3.017,4.107,6.844,7.283,11.509,9.441c3.191,1.477,6.522,2.453,10.002,2.68C63.346,58.427,65.93,58.154,68.587,58.073z"/>
	<circle fill-rule="evenodd" clip-rule="evenodd" fill="#7a1d2f" cx="64.062" cy="29.056" r="22.675"/>
	<path fill-rule="evenodd" clip-rule="evenodd" fill="#7a1d2f" d="M92.896,51.816c1.761,1.64,1.857,4.397,0.217,6.158l0,0
		c-1.641,1.76-4.398,1.857-6.159,0.217l-5.787-5.395l5.941-6.375L92.896,51.816z"/>
</g>
</svg>
