<?xml version="1.0" encoding="utf-8"?>
<!-- Generator: Adobe Illustrator 18.1.1, SVG Export Plug-In . SVG Version: 6.00 Build 0)  -->
<!DOCTYPE svg PUBLIC "-//W3C//DTD SVG 1.0//EN" "http://www.w3.org/TR/2001/REC-SVG-20010904/DTD/svg10.dtd">
<svg version="1.0" id="Camada_1" xmlns="http://www.w3.org/2000/svg" xmlns:xlink="http://www.w3.org/1999/xlink" x="0px" y="0px"
	 viewBox="0 0 512 338" enable-background="new 0 0 512 338" xml:space="preserve">
<g>
	<g>
		<path fill-rule="evenodd" clip-rule="evenodd" d="M29,0c26.667,0,53.333,0,80,0c0,22.667,0,45.333,0,68
			c-0.138,4.153-0.658,0.202-2,0c-6.316-8.595-12.168-16.649-22-18c-17.552-2.411-37.934,16.646-36,35
			c1.311,12.453,13.292,18.466,19,25c-22.667,0-45.333,0-68,0c0-28.667,0-57.333,0-86C4.501,10.835,13.801,2.468,29,0z"/>
		<path fill-rule="evenodd" clip-rule="evenodd" d="M131,0c117.335,0,234.665,0,352,0c15.199,2.468,24.499,10.835,29,24
			c0,28.667,0,57.333,0,86c-113.666,0-227.333,0-341,0c8.38-7.616,18.666-12.338,20-25c1.963-18.635-18.308-37.367-36-35
			c-11.872,1.589-16.582,12.629-24,19C131,46,131,23,131,0z"/>
		<path fill-rule="evenodd" clip-rule="evenodd" d="M109,110c-10.557-0.901-17.741-5.261-27-10c-7.444-3.811-18.434-8.175-19-17
			c-0.604-9.407,12.183-21.805,23-18C97.02,68.876,105.685,96.858,109,110z"/>
		<path fill-rule="evenodd" clip-rule="evenodd" d="M131,110c3.386-12.344,11.827-45.026,27-46c7.123-0.457,19.122,9.496,19,18
			c-0.14,9.72-11.242,14.029-19,18C148.691,104.765,141.358,108.831,131,110z"/>
		<path fill-rule="evenodd" clip-rule="evenodd" d="M0,132c23,0,46,0,69,0c-8.462,7.451-18.677,12.439-20,25
			c-1.961,18.616,18.295,37.369,36,35c11.872-1.589,16.582-12.629,24-19c0,55,0,110,0,165c-26.667,0-53.333,0-80,0
			c-15.199-2.468-24.499-10.835-29-24C0,253.333,0,192.667,0,132z"/>
		<path fill-rule="evenodd" clip-rule="evenodd" d="M107,132c4.598,3.189-0.554,9.029-2,13c-5.19,14.247-17.399,45.601-36,27
			C48.418,151.418,88.748,137.066,107,132z"/>
		<path fill-rule="evenodd" clip-rule="evenodd" d="M131,132c16.516,3.406,61.446,18.554,40,40c-20.339,20.339-34.184-18.7-40-37
			C131,134,131,133,131,132z"/>
		<path fill-rule="evenodd" clip-rule="evenodd" d="M512,132c0,60.667,0,121.333,0,182c-4.606,13.06-13.843,21.491-29,24
			c-117.335,0-234.665,0-352,0c0-55.334,0-110.666,0-166c7.666,9.149,13.133,18.75,25,20c17.821,1.877,37.457-17.636,35-36
			c-1.545-11.548-13.663-17.683-19-24C285.336,132,398.665,132,512,132z"/>
	</g>
</g>
</svg>
