<?xml version="1.0" encoding="utf-8"?>
<!-- Generator: Adobe Illustrator 16.0.0, SVG Export Plug-In . SVG Version: 6.00 Build 0)  -->
<!DOCTYPE svg PUBLIC "-//W3C//DTD SVG 1.0//EN" "http://www.w3.org/TR/2001/REC-SVG-20010904/DTD/svg10.dtd">
<svg version="1.0" id="Layer_1" xmlns="http://www.w3.org/2000/svg" xmlns:xlink="http://www.w3.org/1999/xlink" x="0px" y="0px"
	 width="100px" height="100px" viewBox="0 0 100 100" enable-background="new 0 0 100 100" xml:space="preserve">
<path fill-rule="evenodd" clip-rule="evenodd" fill="#7a1d2f" d="M92.549,35.125c0.146-0.207,0.367-0.52,0.719-1.019
	c-0.433-0.055-0.752-0.095-1.119-0.141c-0.424-1.446-1.75-1.283-2.897-1.307c-0.181,0.183-0.394,0.33-0.593,0.315
	c-0.59-0.042-1.177-0.136-1.761-0.234c-0.22-0.037-0.433-0.132-0.644-0.21c-0.396-0.146-0.78-0.325-1.184-0.44
	c-0.361-0.104-0.75-0.116-1.115-0.215c-0.711-0.194-1.411-0.429-2.122-0.625c-0.124-0.034-0.372,0.002-0.401,0.073
	c-0.352,0.86-1.099,0.458-1.688,0.557c-0.313,0.052-0.62,0.14-1.032,0.235c-0.255-0.204-0.607-0.485-0.963-0.769
	c0.092-0.134,0.169-0.248,0.396-0.58c-0.55,0.146-0.891,0.283-1.242,0.32c-0.368,0.039-0.751,0.009-1.12-0.041
	c-0.349-0.047-0.691-0.236-1.031-0.226c-0.77,0.022-1.535,0.129-2.422,0.213c0.544-0.315,1.005-0.557,1.435-0.844
	c0.215-0.143,0.373-0.372,0.558-0.562c-0.299-0.141-0.587-0.318-0.9-0.412c-0.366-0.111-0.906-0.02-1.103-0.247
	c-0.397-0.46-0.729-0.243-0.897,0.032c-0.365,0.593-0.887,0.539-1.442,0.576c-0.571,0.039-1.155,0.116-1.695,0.295
	c-0.271,0.09-0.454,0.444-0.677,0.679c0.044,0.062,0.088,0.125,0.133,0.188c-0.553,0.028-1.104,0.057-1.709,0.088
	c0.334,0.517,0.588,0.913,0.844,1.31c-0.089,0.057-0.178,0.114-0.266,0.171c-0.104-0.156-0.186-0.331-0.312-0.464
	c-0.505-0.536-0.938-0.443-0.879,0.282c-0.398-0.153-0.75-0.288-1.109-0.425c0.02,0.369,0.04,0.728,0.06,1.085
	c0.573,0.003,1.101,0.008,0.954,0.931c-0.262-0.289-0.438-0.483-0.65-0.717c-0.441,1.167-0.674,1.304-1.551,0.993
	c1.782-0.556,0.141-1.955,0.891-2.826c-1.312,0.081-1.562,0.681-0.987,2.122c-0.851-0.21-1.669-1.077-2.456-0.072
	c-1.303-0.207-2.48,0.336-3.68,0.671c-0.449,0.125-0.865,0.514-1.201,0.872c-0.559,0.595-1.291,0.497-1.612-0.264
	c-0.099-0.234-0.272-0.437-0.446-0.707c0.76,0.108,1.461,0.655,2.394-0.13c-0.78-0.297-1.39-0.564-2.022-0.761
	c-0.715-0.223-1.484-0.614-2.166-0.51c-0.826,0.127-1.666,0.586-2.354,1.098c-0.918,0.682-1.752,1.505-2.5,2.373
	c-0.236,0.274-0.079,0.887-0.103,1.344c0.296-0.049,0.593-0.093,0.886-0.152c0.105-0.021,0.203-0.077,0.32-0.123
	c0.227,0.468,0.438,0.905,0.648,1.336c0.162-0.061,0.283-0.085,0.379-0.147c0.35-0.224,0.647-1.335,0.621-1.755
	c-0.019-0.297,0.153-0.635,0.318-0.907c0.172-0.284,0.48-0.484,0.654-0.767c0.371-0.603,0.72-0.532,1.173-0.044
	c-0.289,0.278-0.599,0.482-0.771,0.77c-0.152,0.255-0.261,0.636-0.179,0.895c0.05,0.158,0.493,0.248,0.767,0.264
	c0.4,0.023,0.806-0.047,1.209-0.077c0.01,0.089,0.018,0.178,0.027,0.267c-0.481,0.1-0.963,0.199-1.441,0.298
	c0.182,0.838,0.152,0.869-0.603,0.703c-0.257,1.13-0.601,1.313-2.562,1.144c-0.267-0.023-0.496-0.474-0.731-0.715
	c0,0.174,0,0.502,0,0.688c-1.11,0.753-2.105,1.427-2.981,2.021c0.143,0.425,0.31,0.924,0.524,1.57c-0.832,0-1.42,0-2.033,0
	c-0.02,0.339,0.018,0.615-0.058,0.856c-0.225,0.717,0.214,1.071,0.759,1.142c0.514,0.066,1.092-0.031,1.34-0.696
	c0.29-0.782,1.673-1.725,2.438-1.7c0.125,0.004,0.261,0.11,0.366,0.201c0.487,0.42,0.965,0.852,1.607,1.422
	c-0.097-0.977-1.35-1.059-0.938-2.283c0.863,0.899,1.613,1.681,2.436,2.537c-0.127-1.227,0.856-0.582,1.223-0.919
	c0.263-0.616,0.611-1.167,1.028-1.66c0.033-0.039,0.538,0.319,0.813,0.487c0.089-0.427,0.783-0.852,1.154-0.664
	c-0.082,0.233-0.163,0.466-0.236,0.674c0.247,0.198,0.475,0.341,0.65,0.532c0.142,0.154,0.221,0.365,0.328,0.551
	c-0.201,0.092-0.397,0.244-0.604,0.26c-0.249,0.019-0.505-0.106-0.761-0.117c-0.414-0.018-0.837-0.04-1.242,0.027
	c-0.414,0.068-0.812,0.24-1.244,0.375c0.262,1.553,1.557,0.744,2.607,1.133c-0.343,0.529-0.578,1.325-0.988,1.429
	c-0.703,0.178-1.547,0.026-2.273-0.183c-0.633-0.182-1.057-0.253-1.27,0.643c-0.771-0.885-2.486-0.374-2.379-2.013
	c-0.635,0-1.219-0.062-1.781,0.018c-0.564,0.079-1.107,0.421-1.662,0.431c-0.898,0.015-1.295,0.486-1.567,1.231
	c-0.093,0.254-0.254,0.522-0.461,0.687c-0.835,0.668-1.535,1.366-1.22,2.584c0.061,0.234-0.1,0.517-0.075,0.769
	c0.033,0.34,0.089,0.7,0.239,1c0.18,0.357,0.411,0.735,0.723,0.968c0.464,0.35,1.002,0.775,1.535,0.816
	c0.771,0.057,1.567-0.311,2.348-0.291c0.593,0.016,1.182,0.336,1.76,0.557c0.086,0.032,0.172,0.277,0.137,0.385
	c-0.273,0.827,0.063,1.425,0.609,2.02c0.209,0.227,0.297,0.647,0.289,0.976c-0.031,1.284-0.622,2.601,0.301,3.815
	c0.098,0.13,0.092,0.334,0.152,0.496c0.299,0.801,0.596,1.602,0.917,2.392c0.042,0.103,0.238,0.229,0.337,0.21
	c0.922-0.177,1.957-0.074,2.562-1.052c0.393-0.634,0.836-1.235,1.235-1.864c0.069-0.109,0.084-0.304,0.038-0.426
	c-0.27-0.721,0.19-1.066,0.689-1.389c0.711-0.457,0.924-1.047,0.557-1.823c-0.412-0.869-0.35-1.617,0.385-2.276
	c0.368-0.328,0.773-0.631,1.076-1.014c0.527-0.664,0.986-1.381,1.475-2.076c-0.066-0.064-0.134-0.131-0.201-0.196
	c-0.363,0.063-0.725,0.157-1.089,0.177c-0.237,0.014-0.563,0.002-0.708-0.142c-1.298-1.298-1.945-2.984-2.645-4.704
	c0.264,0.019,0.549,0.077,0.654,0.247c0.779,1.263,1.523,2.549,2.322,3.898c1.338-0.525,2.886-0.925,3.805-2.498
	c-0.407-0.22-0.787-0.606-1.111-0.565c-0.96,0.123-1.627-0.216-1.84-1.156c-0.027-0.117,0.01-0.309,0.091-0.371
	c0.085-0.066,0.332-0.076,0.382-0.012c0.452,0.586,0.943,0.954,1.773,0.904c0.557-0.034,1.148,0.408,1.695,0.351
	c0.822-0.087,1.171,0.533,1.722,0.848c0.187,0.106,0.34,0.272,0.685,0.557c0.29,0.857,0.683,2.02,1.076,3.182
	c0.1,0.029,0.2,0.058,0.301,0.087c0.369-2.012,1.539-3.273,3.423-3.941c0.332,0.568,0.655,1.123,1.011,1.731
	c0.098-0.028,0.299-0.087,0.537-0.158c0.143,0.521,0.27,0.979,0.41,1.493c0.127-0.229,0.227-0.41,0.351-0.633
	c0.5,0.409,0.94,0.768,1.362,1.114c0.94-0.732,1.003-1.111,0.433-1.808c-0.202-0.247-0.31-0.57-0.46-0.858
	c0.369-0.165,0.726-0.42,1.112-0.479c1.842-0.284,3.733-1.718,2.327-3.795c0.148-0.183,0.303-0.374,0.395-0.488
	c-0.307-0.177-0.583-0.336-0.856-0.493c0.511-0.824,1.266-0.726,1.805-0.428c0.396,0.218,0.548,0.879,0.817,1.359
	c0.51-0.206,0.51-0.206,0.046-1.19c0.38-0.446,0.659-1.087,1.095-1.223c1.14-0.355,2.484-1.963,2.265-3.051
	c-0.036-0.179-0.361-0.342-0.585-0.43c-0.296-0.116-0.623-0.15-1.113-0.258c0.596-0.506,1.055-0.793,1.378-1.191
	c0.808-0.996,1.935-0.646,2.913-0.656c0.432-0.004,0.646,0.064,0.955-0.305c0.408-0.483,0.909-1.083,1.595-0.336
	c0.321-0.211,0.624-0.41,0.927-0.609c0.06,0.078,0.119,0.156,0.179,0.234c-0.537,0.511-1.051,1.049-1.616,1.527
	c-0.936,0.791-1.019,1.162-0.371,2.306c0.228-0.31,0.468-0.591,0.655-0.905c0.218-0.364,0.556-0.761,0.543-1.134
	c-0.024-0.701,0.275-1.023,0.882-1.089c0.885-0.097,1.73-0.26,2.506-0.736c0.249-0.154,0.57-0.192,0.873-0.289
	c-0.037-0.078-0.059-0.167-0.112-0.228c-0.163-0.186-0.337-0.361-0.508-0.541c0.024-0.07,0.048-0.14,0.072-0.209
	C91.249,34.737,91.885,34.927,92.549,35.125z"/>
<path fill-rule="evenodd" clip-rule="evenodd" fill="#7a1d2f" d="M16.175,42.848c-0.103-0.203-0.13-0.363-0.212-0.401
	c-1.136-0.521-1.724-1.604-2.341-2.549c-0.706-1.08-1.823-0.982-2.751-1.417c-0.072-0.034-0.187,0.016-0.259-0.02
	c-0.673-0.334-1.323-0.478-1.962,0.128c0.125-0.135,0.25-0.27,0.375-0.405c-0.041-0.062-0.082-0.125-0.123-0.188
	c-0.322,0.24-0.676,0.447-0.957,0.728c-0.289,0.288-0.508,0.646-0.918,1.185c0.021-0.474,0.031-0.672,0.029-0.634
	c-0.779-0.449-1.458-0.839-2.275-1.309c0.582-0.439,1.031-0.779,1.48-1.118c-0.053-0.082-0.104-0.163-0.156-0.245
	c-0.303,0.034-0.609,0.113-0.905,0.083c-0.165-0.017-0.312-0.214-0.468-0.331c0.17-0.106,0.334-0.286,0.512-0.302
	c0.342-0.031,0.691,0.032,1.06-0.108c-0.466-0.271-0.933-0.542-1.505-0.874c0.678-0.368,1.262-0.724,1.881-1.001
	c0.259-0.117,0.604-0.137,0.891-0.086c1.498,0.268,2.988,0.578,4.484,0.856c0.193,0.036,0.402-0.023,0.605-0.04
	c0.781-0.063,1.562-0.168,2.346-0.177c0.604-0.007,1.215,0.071,1.811,0.178c0.446,0.081,0.976,0.04,1.223,0.607
	c0.041,0.095,0.377,0.066,0.576,0.088c0.406,0.044,0.812,0.083,1.271,0.13c0.159-0.43,1.598-0.513,2.988,0.024
	c0.301-0.328,0.607-0.659,0.912-0.99c0.279,0.132,0.554,0.263,0.99,0.469c0.015,0.043,0.105,0.306,0.273,0.792
	c0.356-0.566,0.58-0.922,0.908-1.442c0.188,0.383,0.377,0.767,0.599,1.219c-0.513,0.072-0.903,0.079-1.259,0.192
	c-0.281,0.089-0.521,0.307-0.803,0.483c0.03,0.025,0.208,0.171,0.502,0.412c-0.473,0.117-0.863,0.214-1.054,0.261
	c-0.159,0.297-0.235,0.506-0.366,0.671c-0.781,0.993-0.512,1.71,0.691,2.04c0.656,0.18,1.264,0.536,1.915,0.822
	c0.136,0.282,0.276,0.649,0.487,0.97c0.074,0.113,0.336,0.178,0.482,0.143c0.093-0.023,0.221-0.312,0.176-0.415
	c-0.223-0.514,0.024-0.804,0.391-1.109c0.125-0.105,0.227-0.473,0.164-0.532c-0.621-0.575-0.111-1.274-0.324-1.962
	c0.922,0.184,1.783,0.065,2.068,1.325c0.127,0.56,0.912,0.246,1.281-0.375c0.465,0.777,0.89,1.485,1.381,2.305
	c-0.02,0.005,0.174-0.106,0.319-0.061c0.157,0.049,0.319,0.223,0.381,0.381c0.029,0.076-0.144,0.312-0.265,0.351
	c-0.484,0.153-0.988,0.245-1.478,0.383c-0.601,0.169-1.193,0.362-1.789,0.544c0.032,0.105,0.063,0.21,0.095,0.315
	c0.365-0.115,0.729-0.229,1.01-0.318c0.102,0.358,0.187,0.66,0.224,0.791c-1.034,0.838-2.035,1.649-3.063,2.481
	c0.265,0.641,0.064,1.086-0.553,1.43c-0.601,0.334-0.879,0.833-0.474,1.531c0.108,0.187,0.11,0.435,0.224,0.918
	c-0.296-0.342-0.512-0.476-0.52-0.62c-0.037-0.812-0.627-0.914-1.208-0.911c-0.677,0.004-1.366,0.067-2.026,0.214
	c-0.77,0.171-0.836,0.855-0.9,1.506c-0.063,0.626,0.052,1.249,0.645,1.486c0.327,0.132,0.83-0.072,1.216-0.224
	c0.248-0.096,0.427-0.371,0.798-0.443c-0.094,0.474-0.188,0.947-0.303,1.523c0.316,0,0.616-0.061,0.869,0.021
	c0.166,0.055,0.376,0.32,0.372,0.487c-0.02,0.844,0.062,1.011,0.808,1.454c-0.213-0.091-0.482-0.128-0.629-0.282
	c-0.679-0.718-1.449-1.283-2.386-1.608c-0.288-0.1-0.585-0.176-0.878-0.259c-0.99-0.28-2.104-0.267-2.477-1.625
	c-0.154-0.559-0.795-0.98-1.2-1.476c-0.237-0.29-0.423-0.627-0.686-0.89c-0.106-0.106-0.354-0.07-0.538-0.099
	c-0.014,0.076-0.027,0.152-0.041,0.228c-0.643-0.781-1.475-1.479-1.87-2.37c-0.353-0.794-0.229-1.803-0.284-2.719
	C15.68,43.016,15.957,42.943,16.175,42.848z"/>
<path fill-rule="evenodd" clip-rule="evenodd" fill="#7a1d2f" d="M31.295,66.864c0.299,0.649,0.191,0.757-0.709,0.995
	c-0.528,0.139-0.983,0.525-1.145,1.143c-0.069,0.262-0.262,0.49-0.354,0.75c-0.095,0.266-0.138,0.551-0.073,0.846
	c-0.213,0.477-0.402,0.967-0.649,1.425c-0.079,0.147-0.359,0.333-0.46,0.292c-0.242-0.101-0.594-0.31-0.613-0.504
	c-0.058-0.568,0.039-1.152,0.049-1.73c0.008-0.489-0.046-0.98-0.03-1.47c0.015-0.454,0.065-0.909,0.136-1.358
	c0.235-1.482,0.529-2.959,0.699-4.448c0.039-0.346-0.238-0.948-0.522-1.067c-0.771-0.322-1.05-0.973-1.403-1.6
	c-0.129-0.228-0.217-0.479-0.356-0.698c-0.604-0.951-0.555-1.748,0.165-2.597c0.126-0.15,0.276-0.316,0.315-0.497
	c0.31-1.434,0.302-1.435,1.187-2.15c0.055,0.287,0.103,0.54,0.108,0.571c0.436-0.047,0.747-0.092,1.06-0.111
	c1.084-0.07,1.942,0.398,2.7,1.125c0.09,0.086,0.265,0.099,0.403,0.118c1.215,0.175,1.554,0.743,1.05,1.771
	c1.403,0.008,2.712,0.394,3.91,1.09c0.192,0.111,0.322,0.799,0.192,0.926c-0.711,0.697-0.936,1.557-1.086,2.479
	c-0.105,0.648-0.412,1.064-1.151,1.227c-0.591,0.129-1.138,0.434-1.189,1.295c-0.026,0.459-0.528,0.938-0.909,1.313
	C32.275,66.334,31.805,66.539,31.295,66.864z"/>
<path fill-rule="evenodd" clip-rule="evenodd" fill="#7a1d2f" d="M39.026,31.116c0.106,0.292,0.194,0.53,0.298,0.816
	c0.221-0.088,0.485-0.194,0.75-0.3c0.062,0.065,0.124,0.131,0.186,0.196c-0.24,0.271-0.449,0.58-0.729,0.801
	c-0.24,0.19-0.792,0.259-0.807,0.418c-0.1,1.08-1.232,1.109-1.675,1.768c-0.31,0.462-0.339,1.113-0.492,1.68
	c-0.097,0.354-0.189,0.71-0.245,0.918c-0.547-0.075-0.902-0.148-1.262-0.169c-0.729-0.042-1.42-0.968-1.197-1.629
	c-0.839-0.235-0.943-0.561-0.414-1.294c0.467-0.646,0.185-1.726-0.537-2.144c-0.113-0.066-0.161-0.263-0.219-0.407
	c-0.371-0.923-0.652-1.937-2.001-1.769c-0.094,0.012-0.212-0.167-0.319-0.257c0.143-0.093,0.285-0.186,0.449-0.292
	c-0.184-0.118-0.379-0.242-0.57-0.364c0.033-0.094,0.053-0.188,0.066-0.187c1.014,0.073,1.242-1.027,1.996-1.331
	c0.248-0.1,0.514-0.226,0.77-0.222c0.482,0.006,0.92-0.007,1.188-0.487c0.388-0.69,0.989-0.501,1.763-0.433
	c-0.336,0.229-0.521,0.355-0.705,0.481c0.025,0.057,0.051,0.114,0.076,0.171c0.566-0.178,1.131-0.356,1.725-0.543
	c-0.189,1.609,1.651,2.098,2.092,3.43c-0.195,0.124-0.453,0.289-0.844,0.538c0.754,0.203,1.324,0.357,1.895,0.511
	c-0.018,0.062-0.034,0.123-0.052,0.185C39.795,31.171,39.377,31.141,39.026,31.116z"/>
<path fill-rule="evenodd" clip-rule="evenodd" fill="#7a1d2f" d="M83.652,64.953c-0.122,0.088-0.284,0.202-0.445,0.316
	c-0.896-0.967-1.762-1-3.004-0.269c-0.609,0.36-1.326,0.542-1.971,0.795c-0.267-0.968-0.439-1.805-0.733-2.598
	c-0.265-0.716,0.096-1.102,0.634-1.288c0.803-0.277,1.4-0.768,1.932-1.393c0.345-0.406,0.68-0.917,1.332-0.236
	c0.314-0.987,0.967-0.967,1.716-0.813c-0.209,1.034,0.712,1.013,1.376,1.47c0.166-0.569,0.306-1.048,0.441-1.514
	c0.822,1.141,1.676,2.264,2.449,3.439c0.217,0.33,0.358,0.865,0.25,1.22c-0.249,0.817-0.59,1.636-1.052,2.351
	c-0.381,0.591-2.013,0.271-2.347-0.377C84.043,65.693,83.852,65.332,83.652,64.953z"/>
<path fill-rule="evenodd" clip-rule="evenodd" fill="#7a1d2f" d="M27.492,29.453c0.296,0.177,0.437,0.261,0.734,0.439
	c-0.604,0.312-1.121,0.58-1.66,0.859c0.159,0.067,0.402,0.169,0.817,0.343c-0.906,0-1.646,0-2.419,0
	c0.188-0.432,0.188-0.432,1.221-0.372c-0.33-0.28-0.571-0.484-0.895-0.756c0.408,0,0.74,0,1.246,0
	c-0.389-0.293-0.633-0.477-0.877-0.66c0.014-0.047,0.027-0.094,0.041-0.14c0.27,0.069,0.539,0.139,0.66,0.17
	c0.412-0.251,0.734-0.448,1.078-0.659c-1.047-0.126-2.122-0.255-3.197-0.385c0.002-0.097,0.005-0.193,0.008-0.29
	c0.827-0.038,1.654-0.076,2.502-0.115c0.113-0.494,3.083-0.686,4.817-0.125c-0.431,0.071-0.631,0.073-0.805,0.14
	c-0.228,0.088-0.882-0.305-0.587,0.507c0.029,0.081-0.84,0.54-1.326,0.741C28.476,29.308,28.047,29.336,27.492,29.453z"/>
<path fill-rule="evenodd" clip-rule="evenodd" fill="#7a1d2f" d="M30.621,37.306c-0.229-0.08-0.457-0.16-0.808-0.282
	c0.123,0.254,0.188,0.388,0.3,0.621c-0.816-0.399-1.558-0.762-2.182-1.068c0.051-0.021,0.465-0.052,0.612-0.267
	c0.353-0.513,0.608-1.072-0.235-1.497c-0.609-0.307-1.029-0.876-1.908-0.536c-0.545,0.211-1.285-0.006-1.698-0.616
	c-0.408-0.603-0.038-0.868,0.413-1.027c0.127,0.441,0.255,0.88,0.382,1.319c0.085-0.017,0.171-0.033,0.257-0.049
	c-0.014-0.254-0.086-0.524-0.021-0.756c0.05-0.177,0.257-0.397,0.425-0.426c0.15-0.026,0.35,0.172,0.512,0.292
	c0.164,0.122,0.361,0.416,0.451,0.383c1.084-0.393,1.97,0.336,2.437,0.921c0.548,0.688,1.192,1.155,1.915,1.594
	c-0.032,0.099-0.065,0.197-0.098,0.296c-0.23-0.038-0.463-0.07-0.691-0.116c-0.206-0.041-0.408-0.098-0.613-0.147
	c0.07,0.217,0.105,0.457,0.222,0.645c0.122,0.197,0.322,0.344,0.489,0.513C30.728,37.17,30.674,37.238,30.621,37.306z"/>
<path fill-rule="evenodd" clip-rule="evenodd" fill="#7a1d2f" d="M19.805,33.594c0.021-0.261,0.039-0.472,0.081-0.964
	c0.49,0.722,0.845,1.244,1.271,1.872c-1.117,0.252-2.299,0.747-3.686-0.121c0.494-0.054,0.845-0.093,1.326-0.146
	c-0.639-0.304-1.164-0.555-1.691-0.806C17.615,32.912,19.207,32.981,19.805,33.594z"/>
<path fill-rule="evenodd" clip-rule="evenodd" fill="#7a1d2f" d="M83.145,57.137c0.857-0.787,2.057-0.281,3.246,1.553
	c-0.539-0.427-1.072-0.756-1.725-0.225c-0.062,0.051-0.431-0.219-0.613-0.387C83.732,57.784,83.446,57.453,83.145,57.137z"/>
<path fill-rule="evenodd" clip-rule="evenodd" fill="#7a1d2f" d="M58.25,57.654c-0.32,1.145-0.563,2.083-0.863,3.004
	c-0.045,0.137-0.355,0.188-0.543,0.279c-0.111-0.276-0.334-0.562-0.312-0.826C56.615,59.112,57.084,58.316,58.25,57.654z"/>
<path fill-rule="evenodd" clip-rule="evenodd" fill="#7a1d2f" d="M78.379,55.389c0.508,0.561-0.274,1.063-0.402,1.697
	c-0.43-0.066-0.818-0.127-1.262-0.195c-0.109-0.252-0.231-0.533-0.304-0.699C77.043,55.934,77.655,55.684,78.379,55.389z"/>
<path fill-rule="evenodd" clip-rule="evenodd" fill="#7a1d2f" d="M23.584,28.4c0.595,0.405,1.086,0.74,1.577,1.074
	c-0.013,0.096-0.024,0.192-0.036,0.289c-0.511,0.102-1.021,0.204-1.533,0.306c-0.019-0.09-0.037-0.18-0.057-0.27
	c0.151-0.055,0.303-0.111,0.668-0.245c-0.555-0.068-0.902-0.11-1.34-0.164C23.124,29.032,23.326,28.754,23.584,28.4z"/>
<path fill-rule="evenodd" clip-rule="evenodd" fill="#7a1d2f" d="M15.371,33.328c0.461-1.523,0.625-1.073,2.133-0.698
	C16.714,32.59,16.547,34.292,15.371,33.328z"/>
<path fill-rule="evenodd" clip-rule="evenodd" fill="#7a1d2f" d="M44.217,40.175c0.643-1.072-0.367-1.82-0.049-2.771
	c0.443,0.711,0.887,1.423,1.42,2.278C45.223,39.813,44.821,39.958,44.217,40.175z"/>
<path fill-rule="evenodd" clip-rule="evenodd" fill="#7a1d2f" d="M75.085,57.685c-0.676-0.88-1.352-1.759-2.028-2.64
	C74.161,55.385,75.334,56.7,75.085,57.685z"/>
<path fill-rule="evenodd" clip-rule="evenodd" fill="#7a1d2f" d="M50.502,27.753c-0.402,0.555-0.672,0.928-0.943,1.302
	c-0.168-0.533,0.189-1.357-0.87-0.927c-0.028,0.011-0.206-0.351-0.349-0.597C49.074,27.606,49.712,27.671,50.502,27.753z"/>
<path fill-rule="evenodd" clip-rule="evenodd" fill="#7a1d2f" d="M41.955,34.886c-0.806,0.098-1.404,0.181-2.007,0.22
	c-0.041,0.003-0.203-0.401-0.14-0.481C40.146,34.199,41.271,34.239,41.955,34.886z"/>
<path fill-rule="evenodd" clip-rule="evenodd" fill="#7a1d2f" d="M23.938,31.111c0.457,0.688,1.096,0.654,1.787,0.528
	c0.345-0.063,0.709-0.011,1.064-0.011c0.002,0.117,0.004,0.234,0.006,0.352c-0.873,0-1.75,0.041-2.617-0.034
	c-0.174-0.015-0.31-0.466-0.463-0.717C23.789,31.19,23.863,31.151,23.938,31.111z"/>
<path fill-rule="evenodd" clip-rule="evenodd" fill="#7a1d2f" d="M59.505,30.694c0.657-1.524,2.186-1.072,3.282-1.57
	C61.689,29.649,60.592,30.174,59.505,30.694z"/>
<path fill-rule="evenodd" clip-rule="evenodd" fill="#7a1d2f" d="M79.716,45.088c0.822-0.43,1.532-0.825,1.721-1.833
	c0.085,0.04,0.169,0.081,0.254,0.121c-0.167,0.461-0.212,1.067-0.536,1.344C80.816,45.008,80.207,44.979,79.716,45.088z"/>
<path fill-rule="evenodd" clip-rule="evenodd" fill="#7a1d2f" d="M92.961,67.726c-0.659,0.27-0.598,1.337-1.699,1.123
	c0.492-0.45,0.984-0.901,1.478-1.352C92.812,67.573,92.887,67.649,92.961,67.726z"/>
<path fill-rule="evenodd" clip-rule="evenodd" fill="#7a1d2f" d="M43.841,38.701c-0.235,0.355-0.47,0.71-0.705,1.065
	c-0.116-0.069-0.231-0.139-0.347-0.208c0.201-0.373,0.403-0.745,0.605-1.118C43.543,38.527,43.691,38.614,43.841,38.701z"/>
<path fill-rule="evenodd" clip-rule="evenodd" fill="#7a1d2f" d="M75.525,53.084c-0.475,0.321-0.948,0.642-1.422,0.963
	c-0.055-0.082-0.107-0.163-0.16-0.244c0.551-0.258,0.843-1.003,1.552-0.965C75.506,52.92,75.516,53.002,75.525,53.084z"/>
<path fill-rule="evenodd" clip-rule="evenodd" fill="#7a1d2f" d="M22.52,33.558c-0.359-0.103-0.72-0.206-1.097-0.312
	C21.916,32.525,22.301,32.478,22.52,33.558z"/>
<path fill-rule="evenodd" clip-rule="evenodd" fill="#7a1d2f" d="M50.242,27.166c0.603,0.037,1.205,0.073,1.885,0.114
	C51.4,28.053,50.828,27.486,50.242,27.166z"/>
</svg>
