<?xml version="1.0" encoding="utf-8"?>
<!-- Generator: Adobe Illustrator 16.0.0, SVG Export Plug-In . SVG Version: 6.00 Build 0)  -->
<!DOCTYPE svg PUBLIC "-//W3C//DTD SVG 1.0//EN" "http://www.w3.org/TR/2001/REC-SVG-20010904/DTD/svg10.dtd">
<svg version="1.0" id="Layer_1" xmlns="http://www.w3.org/2000/svg" xmlns:xlink="http://www.w3.org/1999/xlink" x="0px" y="0px"
	 width="100px" height="100px" viewBox="0 0 100 100" enable-background="new 0 0 100 100" xml:space="preserve">
<g>
	<path fill="#263C70" d="M88.081,28.909c-0.014-1.603-1.146-2.977-2.717-3.297l-15.276-2.904l-0.338,6.653l11.565,2.355
		l0.456,53.236H57.528V64.505H40.384v20.447H16.303V31.624l11.933-2.076l-0.145-6.688l-15.765,2.563
		c-1.626,0.284-2.813,1.694-2.813,3.345v59.579c0,1.875,1.521,3.395,3.395,3.395h72.287c0.905,0,1.773-0.361,2.41-1.004
		c0.639-0.644,0.992-1.514,0.984-2.419L88.081,28.909z"/>
	<rect x="40.384" y="45.481" fill="#0087E5" width="17.144" height="13.85"/>
	<rect x="19.676" y="64.312" fill="#0087E5" width="17.144" height="13.85"/>
	<rect x="19.676" y="45.481" fill="#0087E5" width="17.144" height="13.85"/>
	<rect x="61.262" y="64.312" fill="#0087E5" width="17.145" height="13.85"/>
	<rect x="61.262" y="45.481" fill="#0087E5" width="17.145" height="13.85"/>
	<g>
		<path fill="#7a1d2f" d="M65.124,4.426h-32.25c-0.469,0-0.849,0.38-0.849,0.848v32.166c0,0.469,0.38,0.849,0.849,0.849h32.25
			c0.469,0,0.849-0.38,0.849-0.849V5.274C65.973,4.806,65.593,4.426,65.124,4.426z M59.607,24.864h-7.102v7.101h-7.015v-7.101H38.39
			V17.85h7.101v-7.101h7.015v7.101h7.102V24.864z"/>
	</g>
</g>
</svg>
