<?xml version="1.0" encoding="utf-8"?>
<!-- Generator: Adobe Illustrator 16.0.0, SVG Export Plug-In . SVG Version: 6.00 Build 0)  -->
<!DOCTYPE svg PUBLIC "-//W3C//DTD SVG 1.1//EN" "http://www.w3.org/Graphics/SVG/1.1/DTD/svg11.dtd">
<svg version="1.1" id="Layer_1" xmlns="http://www.w3.org/2000/svg" xmlns:xlink="http://www.w3.org/1999/xlink" x="0px" y="0px"
	 width="84.4px" height="89.3px" viewBox="7.8 3.2 84.4 89.3" enable-background="new 7.8 3.2 84.4 89.3" xml:space="preserve">
<g>
	<path fill="#7a1d2f" d="M49.9,3.2C34.5,3.2,22.1,15.7,22.1,31c0,15.4,27.8,45.1,27.8,45.1S77.7,46.4,77.7,31
		C77.7,15.7,65.2,3.2,49.9,3.2z M49.6,47.5c-9.5,0-17.2-7.7-17.2-17.2c0-9.5,7.7-17.2,17.2-17.2c9.5,0,17.2,7.7,17.2,17.2
		C66.8,39.8,59.1,47.5,49.6,47.5z"/>
	<rect x="20.3" y="71.9" fill="#0b4e91" width="15.7" height="3.2"/>
	<rect x="48.3" y="80.3" fill="#0b4e91" width="3.2" height="12.2"/>
	<rect x="63.1" y="71.9" fill="#0b4e91" width="16.6" height="3.2"/>
	<g>
		<polygon fill="#0B4E91" points="92.2,92.5 7.8,92.5 24.9,59.4 33.5,59.4 35.8,63.4 27.3,63.4 14.4,88.5 85.4,88.5 71.7,63.4 
			63.8,63.4 66.1,59.4 74.1,59.4 		"/>
	</g>
</g>
</svg>
