<?xml version="1.0" encoding="utf-8"?>
<!-- Generator: Adobe Illustrator 16.0.0, SVG Export Plug-In . SVG Version: 6.00 Build 0)  -->
<!DOCTYPE svg PUBLIC "-//W3C//DTD SVG 1.1//EN" "http://www.w3.org/Graphics/SVG/1.1/DTD/svg11.dtd">
<svg version="1.1" id="Camada_1" xmlns="http://www.w3.org/2000/svg" xmlns:xlink="http://www.w3.org/1999/xlink" x="0px" y="0px"
	 width="56.9px" height="50px" viewBox="6.6 0 56.9 50" enable-background="new 6.6 0 56.9 50" xml:space="preserve">
<g>
	<path clip-rule="evenodd" d="M48.8,50.1c-0.8-0.1-1.6-0.2-2.4-0.3c-1.7-0.2-3.4-0.4-5-0.6
		c-1.7-0.2-3.5-0.4-5.2-0.7c-2.2-0.3-4.4-0.7-6.5-1c-0.9-0.1-1.8-0.2-2.7-0.3c-0.7,0-1.5,0-2.3,0c0-0.2,0-0.4,0-0.6
		c0-6.4,0-12.7,0-19.1c0-0.8,0.1-1.7,0.1-2.5c0-0.7,0.4-1.2,1-1.4c0.8-0.4,1.6-0.7,2.4-0.9c1.1-0.3,2-0.8,2.8-1.6
		c2.6-2.8,5.3-5.7,7.8-8.6c1.6-1.8,2.2-4.1,2.6-6.4c0.2-1.3,0.3-2.5,0.5-3.8c0.2-1.5,1-2.1,2.6-1.9c3.5,0.4,5.7,3.4,5.9,6.3
		c0.1,2.1-0.5,4.1-1.1,6.1c-0.5,1.8-1,3.5-1.6,5.3c0,0.1,0,0.2,0,0.3c1,0,1.9,0,2.9,0c1.7-0.1,3.4-0.2,5.1-0.3
		c0.9-0.1,1.9-0.1,2.8-0.1c2.9-0.1,5,2,5.1,4.7c0.1,1.7-0.7,3.1-2,4.2c-0.4,0.3-0.9,0.7-1.2,0.9c0.2,0.9,0.5,1.7,0.6,2.5
		c0.2,1.4-0.5,2.5-1.3,3.6c-0.2,0.3-0.3,0.6-0.1,1c0.8,2.3,0.4,4.5-1.3,6.2c-0.5,0.5-0.6,1-0.5,1.7c0.2,2.2-0.2,4.1-1.8,5.7
		c-1.3,1.2-2.8,1.6-4.5,1.7c-0.3,0-0.5,0.1-0.8,0.1C49.9,50.1,49.3,50.1,48.8,50.1z"/>
	<path clip-rule="evenodd" d="M6.7,37.7c0.1-0.9,0.1-1.7,0.2-2.6c0.4-2.9,0.8-5.9,1.4-8.8
		c0.3-1.4,1-2.5,2.5-2.9c0.9-0.3,1.9-0.1,2.8,0.2c1.6,0.4,3.2,0.7,4.8,1.1c1.9,0.5,3.4,2.3,3.4,4.3c0,6,0,12.1,0,18.2
		c-0.9,0.2-1.9,0.4-2.8,0.4c-1.9,0.2-3.8,0.4-5.6,0.3c-1.3,0-2.6-0.4-3.9-0.7c-0.9-0.2-1.5-0.9-1.9-1.8C7,44.3,6.9,43,6.8,41.7
		c0-0.4-0.1-0.8-0.1-1.1C6.7,39.6,6.7,38.7,6.7,37.7z"/>
</g>
</svg>
