<?xml version="1.0" encoding="utf-8"?>
<!-- Generator: Adobe Illustrator 16.0.0, SVG Export Plug-In . SVG Version: 6.00 Build 0)  -->
<!DOCTYPE svg PUBLIC "-//W3C//DTD SVG 1.1//EN" "http://www.w3.org/Graphics/SVG/1.1/DTD/svg11.dtd">
<svg version="1.1" id="Layer_1" xmlns="http://www.w3.org/2000/svg" xmlns:xlink="http://www.w3.org/1999/xlink" x="0px" y="0px"
	 width="78.8px" height="25.5px" viewBox="0 0 78.8 25.5" enable-background="new 0 0 78.8 25.5" xml:space="preserve">
<g>
	<polygon fill="#005098" points="27.8,25.1 31.7,0.4 38.1,0.4 34.1,25.1 	"/>
	<path fill="#005098" d="M57.3,1C56,0.6,54,0,51.5,0c-6.3,0-10.7,3.4-10.8,8.2c-0.1,3.5,3.2,5.5,5.6,6.7c2.5,1.2,3.3,2,3.3,3.1
		c0,1.7-2,2.4-3.8,2.4c-2.5,0-3.9-0.4-6-1.3L39,18.6l-0.9,5.5c1.5,0.7,4.3,1.3,7.1,1.3c6.7,0,11.1-3.3,11.1-8.4c0-2.8-1.7-5-5.4-6.7
		c-2.2-1.1-3.6-1.9-3.6-3c0-1.1,1.2-2.1,3.7-2.1c2.1-0.1,3.6,0.4,4.8,0.9l0.6,0.3L57.3,1L57.3,1z"/>
	<path fill="#005098" d="M65.7,16.4c0.5-1.4,2.5-6.9,2.5-6.9c0,0.1,0.5-1.4,0.8-2.4l0.4,2.1c0,0,1.2,5.9,1.5,7.1
		C70,16.4,67,16.4,65.7,16.4L65.7,16.4z M73.6,0.4h-4.9c-1.5,0-2.7,0.4-3.3,2l-9.5,22.6h6.7c0,0,1.1-3,1.3-3.7c0.7,0,7.2,0,8.2,0
		c0.2,0.9,0.8,3.7,0.8,3.7h5.9L73.6,0.4L73.6,0.4z"/>
	<path fill="#005098" d="M22.4,0.4l-6.3,16.8l-0.7-3.4c-1.2-3.9-4.8-8.2-8.8-10.3l5.7,21.6h6.7l10-24.7H22.4L22.4,0.4z"/>
	<path fill="#F7A600" d="M10.4,0.4H0.1L0,0.9c8,2,13.3,7,15.5,12.9L13.3,2.5C12.9,0.9,11.8,0.5,10.4,0.4L10.4,0.4z"/>
</g>
</svg>
