<?xml version="1.0" encoding="utf-8"?>
<!-- Generator: Adobe Illustrator 16.0.0, SVG Export Plug-In . SVG Version: 6.00 Build 0)  -->
<!DOCTYPE svg PUBLIC "-//W3C//DTD SVG 1.1//EN" "http://www.w3.org/Graphics/SVG/1.1/DTD/svg11.dtd">
<svg version="1.1" id="Layer_1" xmlns="http://www.w3.org/2000/svg" xmlns:xlink="http://www.w3.org/1999/xlink" x="0px" y="0px"
   width="56px" height="42px" viewBox="0 0 56 42" enable-background="new 0 0 56 42" xml:space="preserve">
<path fill="#005098" d="M0,42V0h56v42H0z"/>
<g>
  <polygon fill="#FFFFFF" points="20.7,28.5 23.1,13.2 27.1,13.2 24.6,28.5   "/>
  <path fill="#FFFFFF" d="M39,13.6c-0.8-0.3-2-0.7-3.6-0.7c-3.9,0-6.7,2.1-6.7,5.1c0,2.2,2,3.4,3.5,4.2c1.5,0.8,2.1,1.2,2.1,1.9
    c0,1-1.2,1.5-2.4,1.5c-1.6,0-2.4-0.2-3.7-0.8l-0.5-0.2l-0.6,3.4c0.9,0.4,2.6,0.8,4.4,0.8c4.2,0,6.9-2.1,6.9-5.2
    c0-1.7-1-3.1-3.3-4.2c-1.4-0.7-2.2-1.2-2.2-1.9c0-0.7,0.7-1.3,2.3-1.3c1.3,0,2.2,0.3,3,0.6l0.4,0.2L39,13.6L39,13.6z"/>
  <path fill="#FFFFFF" d="M44.3,23.1c0.3-0.9,1.6-4.3,1.6-4.3c0,0,0.3-0.9,0.5-1.5l0.3,1.3c0,0,0.8,3.7,0.9,4.4
    C46.9,23.1,45,23.1,44.3,23.1L44.3,23.1z M49.2,13.2h-3.1c-0.9,0-1.7,0.3-2.1,1.3l-5.9,14.1h4.2c0,0,0.7-1.9,0.8-2.3
    c0.5,0,4.5,0,5.1,0c0.1,0.5,0.5,2.3,0.5,2.3h3.7L49.2,13.2L49.2,13.2z"/>
  <path fill="#FFFFFF" d="M17.4,13.2l-3.9,10.5L13,21.5c-0.7-2.4-3-5.1-5.5-6.4l3.6,13.4h4.2l6.2-15.3H17.4L17.4,13.2z"/>
  <path fill="#F7A600" d="M9.9,13.2H3.5l-0.1,0.3c5,1.3,8.3,4.3,9.6,8l-1.4-7C11.4,13.5,10.7,13.2,9.9,13.2L9.9,13.2z"/>
</g>
</svg>
