<?xml version="1.0" encoding="utf-8"?>
<!-- Generator: Adobe Illustrator 16.0.0, SVG Export Plug-In . SVG Version: 6.00 Build 0)  -->
<!DOCTYPE svg PUBLIC "-//W3C//DTD SVG 1.1//EN" "http://www.w3.org/Graphics/SVG/1.1/DTD/svg11.dtd">
<svg version="1.1" id="Layer_1" xmlns="http://www.w3.org/2000/svg" xmlns:xlink="http://www.w3.org/1999/xlink" x="0px" y="0px"
	 width="14px" height="14px" viewBox="0 0 14 14" enable-background="new 0 0 14 14" xml:space="preserve">
	<g>
		<path d="M0,7.4c0-0.3,0-0.5,0-0.8c0,0,0-0.1,0-0.1c0.1-0.4,0.1-0.8,0.2-1.2C0.6,3.6,1.6,2.3,3,1.2
			c0.9-0.6,1.9-1,3-1.2C6.2,0,6.4,0,6.6,0c0.3,0,0.5,0,0.8,0c0.3,0,0.5,0.1,0.8,0.1c1.7,0.3,3.1,1.1,4.2,2.4
			c1.4,1.7,1.9,3.6,1.5,5.7c-0.3,1.7-1.1,3.1-2.5,4.2c-1.7,1.4-3.7,1.8-5.8,1.4c-1.8-0.3-3.2-1.3-4.2-2.7c-0.7-0.9-1.1-2-1.3-3.1
			C0,7.8,0,7.6,0,7.4z M7,5.6c0,0-0.1-0.1-0.1-0.1C6.2,4.8,5.5,4.1,4.8,3.4C4.4,3,3.8,3.1,3.4,3.5C3,3.9,3.1,4.4,3.4,4.8
			c0.4,0.4,0.9,0.9,1.3,1.3C5,6.4,5.3,6.7,5.6,7c0,0-0.1,0.1-0.1,0.1c-0.7,0.7-1.4,1.4-2,2c-0.3,0.3-0.4,0.6-0.3,1
			c0.2,0.7,1.1,0.9,1.6,0.4c0.7-0.7,1.4-1.4,2.1-2.1c0,0,0.1-0.1,0.1-0.1c0.1,0.1,0.2,0.2,0.3,0.3c0.6,0.6,1.3,1.3,1.9,1.9
			c0.2,0.2,0.5,0.3,0.9,0.3c0.4-0.1,0.7-0.3,0.8-0.7c0.1-0.4,0-0.7-0.3-1C9.9,8.5,9.3,7.9,8.7,7.3C8.6,7.2,8.5,7.1,8.3,7
			c0.1-0.1,0.1-0.1,0.2-0.1c0.7-0.7,1.4-1.4,2-2c0.2-0.2,0.3-0.4,0.3-0.7c0-0.4-0.2-0.8-0.6-1C9.9,3.1,9.5,3.1,9.2,3.4
			c-0.5,0.5-1,1-1.5,1.5C7.5,5.2,7.2,5.4,7,5.6z"/>
	</g>
</svg>
