<?xml version="1.0" encoding="utf-8"?>
<!-- Generator: Adobe Illustrator 16.0.0, SVG Export Plug-In . SVG Version: 6.00 Build 0)  -->
<!DOCTYPE svg PUBLIC "-//W3C//DTD SVG 1.1//EN" "http://www.w3.org/Graphics/SVG/1.1/DTD/svg11.dtd">
<svg version="1.1" id="Layer_1" xmlns="http://www.w3.org/2000/svg" xmlns:xlink="http://www.w3.org/1999/xlink" x="0px" y="0px"
	 width="84px" height="84px" viewBox="8 9.4 84 84" enable-background="new 8 9.4 84 84" xml:space="preserve">
<g>
	<path d="M92,51.4c0,23.2-18.8,42-42,42S8,74.6,8,51.4c0-23.2,18.8-42,42-42C73.1,9.4,92,28,92,51.4z M21.5,72.4
		c10.9,14.8,32,19.5,48.4,8.3C86.5,69.4,89,48.7,81.3,35C61.4,47.5,41.4,59.9,21.5,72.4z M77.3,28.9c-11.2-13.7-31.9-17.9-48-6.3
		C13.8,33.8,11.4,53.3,17.9,66.1C37.7,53.7,57.5,41.3,77.3,28.9z"/>
	<path d="M57.9,73.5c0,2.5,0,4.9,0,7.4c-2.3,0-4.5,0-6.9,0c0-2.4,0-4.8,0-7c-2.6-0.5-5.2-0.9-7.7-1.5c-2.5-0.6-4.8-2-6.8-3.7
		c0.2-0.1,0.3-0.3,0.5-0.4c2.3-1.5,4.7-2.9,7-4.4c0.4-0.3,0.8-0.3,1.2-0.1c2.1,0.8,4.3,1.2,6.6,1.3c0-1.3,0.1-2.6,0-3.8
		c-0.2-1.8,0.4-2.9,2-3.6c1-0.5,2-1.2,3.1-1.9c0,3.1,0,6.1,0,9c3,0,5.6-1.8,6.1-4.2c0.5-2.6,0-5.2-3-6.7c0.1-0.1,0.2-0.2,0.3-0.3
		c2.6-1.6,5.1-3.2,7.7-4.8c0.4-0.3,0.7-0.2,1,0.1c1.9,1.9,2.8,4.2,3.2,6.8c0.5,3.7,0.2,7.3-1.9,10.6c-2.3,3.6-5.8,5.5-9.8,6.5
		C59.7,73.2,58.8,73.3,57.9,73.5z"/>
	<path d="M54.1,20.2c0,2,0,4,0,6c4.6,0.3,8.7,1.6,12.3,4.6c-0.6,0.4-1.2,0.8-1.8,1.1c-1.8,1.2-3.7,2.3-5.5,3.4
		c-0.3,0.2-0.8,0.2-1.2,0.1c-1.5-0.3-3-0.8-4.7-1.2c0,1.4,0,2.6,0,3.8c0,0.7-0.2,1.1-0.8,1.5c-1.4,0.8-2.8,1.7-4.2,2.6
		c0-2.6,0-5,0-7.5c-2.1-0.2-4.5,1.4-5.4,3.4c-1,2.3-0.5,4.5,1.6,6.4c-2.7,1.7-5.5,3.4-8.3,5.2c-3-3.7-3.6-8-2.6-12.4
		C35.1,30,40.4,27,47.3,26c0-2,0-4,0-6C49.5,20.2,51.7,20.2,54.1,20.2z"/>
</g>
</svg>
