<?xml version="1.0" encoding="utf-8"?>
<!-- Generator: Adobe Illustrator 21.0.0, SVG Export Plug-In . SVG Version: 6.00 Build 0)  -->
<svg version="1.1" id="Layer_1" xmlns="http://www.w3.org/2000/svg" xmlns:xlink="http://www.w3.org/1999/xlink" x="0px" y="0px"
	 viewBox="0 0 500 500" style="enable-background:new 0 0 500 500;" xml:space="preserve">
<path d="M239,0.8h22.4v85H239V0.8z"/>
<path d="M237.7,414.2H260v85h-22.4V414.2z"/>
<path d="M415,233.6h85v22.3h-85V233.6z"/>
<path d="M0,232.2h85v22.4H0V232.2z"/>
<path d="M32.4,127.8l10.8-19.5l74.3,41.2l-10.9,19.6L32.4,127.8z"/>
<path d="M121.5,37l18.9-11.9l45.1,72.1L166.6,109L121.5,37z"/>
<path d="M323.6,395.4l19.3-11.1l42.5,73.6l-19.3,11.1L323.6,395.4z"/>
<path d="M388.6,336l10.8-19.5l74.4,41.2l-10.9,19.6L388.6,336z"/>
<path d="M135.5,470.1L116,459.3l41.2-74.4l19.6,10.8L135.5,470.1z"/>
<path d="M36.7,375.7L25,356.7l72-45.1l11.8,18.9L36.7,375.7z"/>
<path d="M396.6,176.2l-11.2-19.4l73.6-42.5l11.2,19.4L396.6,176.2z"/>
<path d="M339.8,112.5l-19.6-10.9l41.2-74.3L381,38.2L339.8,112.5z"/>
<path d="M112.2,249.7c0-76.2,61.8-138.1,138.1-138.1c76.2,0,138,61.9,138,138.1s-61.8,138-138,138C174,387.8,112.2,326,112.2,249.7"
	/>
</svg>
