<?xml version="1.0" encoding="utf-8"?>
<svg version="1.1" xmlns="http://www.w3.org/2000/svg" xmlns:xlink="http://www.w3.org/1999/xlink" x="0px" y="0px" width="30px" height="30px" viewBox="0 0 30 30" xml:space="preserve">
  <g>
   <g>
    <g>
     <path fill="#fff" d="M8.64,26.061c-0.257,0-0.485-0.174-0.556-0.424c-0.333-1.192-1.624-1.939-2.816-1.605l-0.156,0.021
      c-0.257,0-0.486-0.175-0.557-0.426l-0.421-1.505c-0.041-0.152-0.021-0.309,0.056-0.443c0.077-0.134,0.201-0.229,0.351-0.27
      c0.062-0.018,0.097-0.063,0.111-0.09s0.037-0.081,0.018-0.147c-0.023-0.085-0.101-0.144-0.188-0.144l-0.207,0.028
      c-0.259,0-0.487-0.175-0.557-0.426l-0.417-1.493c-0.042-0.146-0.024-0.302,0.05-0.438s0.198-0.234,0.349-0.277
      c0.104-0.029,0.164-0.136,0.136-0.238c-0.023-0.083-0.1-0.141-0.187-0.141L3.44,18.072c-0.259,0-0.487-0.175-0.557-0.426
      l-0.418-1.493c-0.085-0.308,0.094-0.628,0.399-0.715c0.104-0.029,0.164-0.136,0.136-0.239c-0.023-0.083-0.1-0.141-0.186-0.141
      l-0.208,0.028c-0.259,0-0.488-0.175-0.558-0.425l-0.418-1.494c-0.085-0.309,0.095-0.628,0.4-0.714
      c0.586-0.164,1.071-0.548,1.369-1.084c0.299-0.537,0.372-1.16,0.206-1.753C3.522,9.308,3.702,8.988,4.009,8.902l17.348-4.825
      c0.258,0,0.486,0.175,0.556,0.425c0.334,1.195,1.627,1.943,2.819,1.609l0.154-0.021c0.26,0,0.49,0.174,0.56,0.424l0.418,1.495
      c0.042,0.146,0.023,0.302-0.052,0.438c-0.076,0.136-0.201,0.234-0.352,0.276c-0.066,0.019-0.102,0.065-0.116,0.092
      c-0.015,0.026-0.037,0.08-0.018,0.146c0.022,0.083,0.1,0.141,0.186,0.141l0.208-0.028c0.259,0,0.488,0.174,0.56,0.423
      l0.418,1.498c0.042,0.146,0.023,0.303-0.052,0.438c-0.076,0.136-0.2,0.234-0.35,0.276c-0.104,0.029-0.165,0.136-0.137,0.237
      c0.023,0.083,0.1,0.141,0.187,0.141l0.209-0.028c0.259,0,0.489,0.175,0.56,0.425l0.417,1.494
      c0.085,0.308-0.095,0.628-0.401,0.715c-0.068,0.019-0.104,0.066-0.118,0.093s-0.037,0.081-0.018,0.148
      c0.022,0.083,0.1,0.14,0.186,0.14l0.209-0.029c0.259,0,0.489,0.173,0.56,0.421l0.42,1.507c0.042,0.15,0.023,0.309-0.055,0.444
      c-0.076,0.135-0.201,0.231-0.351,0.272c-1.208,0.338-1.916,1.609-1.574,2.832c0.042,0.148,0.023,0.306-0.053,0.441
      c-0.076,0.135-0.2,0.23-0.35,0.271L8.64,26.061z M5.874,23.198c1.302,0,2.464,0.845,2.882,2.073l16.869-4.714
      c-0.334-1.514,0.521-3.043,1.977-3.54l-0.334-1.197c-0.405,0.038-0.874-0.25-0.996-0.684c-0.068-0.243-0.037-0.499,0.087-0.719
      c0.096-0.17,0.237-0.303,0.409-0.386l-0.335-1.198c-0.404,0.038-0.874-0.25-0.996-0.685c-0.124-0.445,0.095-0.905,0.497-1.101
      l-0.335-1.199c-0.407,0.051-0.873-0.25-0.995-0.685c-0.067-0.241-0.037-0.496,0.086-0.716c0.096-0.17,0.238-0.303,0.409-0.387
      l-0.332-1.188c-0.193,0.046-0.417,0.072-0.642,0.072c-1.305,0-2.47-0.849-2.887-2.084L4.371,9.579
      c0.163,0.734,0.054,1.494-0.313,2.155c-0.368,0.662-0.953,1.15-1.659,1.391l0.332,1.187c0.426-0.031,0.872,0.252,0.993,0.687
      c0.123,0.445-0.094,0.905-0.494,1.1l0.335,1.198c0.418-0.029,0.872,0.253,0.993,0.687c0.123,0.444-0.094,0.904-0.493,1.1
      l0.334,1.198c0.43-0.036,0.872,0.254,0.993,0.688c0.068,0.241,0.037,0.496-0.087,0.717c-0.095,0.169-0.236,0.302-0.406,0.385
      l0.335,1.198C5.428,23.223,5.65,23.198,5.874,23.198z"/>
    </g>
  </g>
</g>
<path fill="#fff" d="M16.124,18.267l2.545,0.528c0.325,0.066,0.659-0.104,0.793-0.405c0.084-0.19,0.083-0.409-0.009-0.599
	l-1.188-2.549c-0.013-0.03-0.013-0.063,0.003-0.09l1.275-2.327c0.131-0.233,0.117-0.519-0.029-0.742
	c-0.147-0.222-0.4-0.346-0.664-0.322l-2.63,0.256c-0.032,0.004-0.061-0.009-0.081-0.032l-1.794-2.034
	c-0.183-0.21-0.465-0.292-0.729-0.217c-0.269,0.077-0.462,0.297-0.505,0.574l-0.428,2.667c-0.006,0.033-0.026,0.059-0.054,0.072
	l-2.366,1.193c-0.238,0.119-0.389,0.361-0.392,0.628c-0.003,0.268,0.138,0.513,0.371,0.643l2.317,1.278
	c0.026,0.016,0.046,0.042,0.051,0.073l0.361,2.803c0.025,0.208,0.141,0.393,0.314,0.508c0.175,0.115,0.389,0.15,0.589,0.093
	c0.111-0.031,0.212-0.09,0.296-0.173l1.866-1.803 M19.005,12.522l-1.276,2.327c-0.107,0.2-0.118,0.446-0.021,0.653l1.189,2.549
	c0.017,0.026,0.017,0.054,0.005,0.081c-0.014,0.026-0.037,0.049-0.111,0.058l-2.545-0.529c-0.228-0.048-0.471,0.023-0.635,0.185
	l-1.866,1.803c-0.035,0.032-0.084,0.033-0.123,0.007c-0.021-0.017-0.037-0.037-0.039-0.067l-0.363-2.801
	c-0.028-0.229-0.166-0.43-0.366-0.54l-2.317-1.277c-0.044-0.026-0.051-0.067-0.05-0.09c0-0.021,0.008-0.062,0.052-0.085l2.368-1.193
	c0.204-0.102,0.347-0.296,0.384-0.525l0.429-2.666c0.009-0.054,0.045-0.074,0.069-0.08c0.021-0.007,0.063-0.009,0.099,0.031
	l1.794,2.032c0.15,0.172,0.375,0.262,0.604,0.239l2.627-0.255c0.049-0.004,0.08,0.025,0.093,0.044
	C19.014,12.441,19.029,12.479,19.005,12.522z"/>
</svg>
