<?xml version="1.0" encoding="utf-8"?>
<svg version="1.1" xmlns="http://www.w3.org/2000/svg" xmlns:xlink="http://www.w3.org/1999/xlink" x="0px" y="0px" width="100px" height="30px"
	 viewBox="0 0 100 30" enable-background="new 0 0 100 30" xml:space="preserve">
  <path fill="#FFCB04" d="M19.482,12.164l-4.497-0.828c-0.056-0.01-0.097-0.044-0.119-0.093L12.85,7.004
  	c-0.203-0.435-0.633-0.707-1.107-0.707c-0.484,0-0.91,0.275-1.115,0.713l-1.981,4.233c-0.026,0.049-0.071,0.086-0.123,0.096
  	l-4.507,0.854c-0.45,0.086-0.816,0.416-0.95,0.859c-0.132,0.442-0.014,0.919,0.313,1.244l3.242,3.233
  	c0.039,0.037,0.057,0.094,0.049,0.145l-0.732,4.831c-0.057,0.36,0.045,0.724,0.281,0.997c0.234,0.276,0.574,0.435,0.935,0.435
  	c0.198,0,0.394-0.048,0.575-0.145l3.96-2.107l-0.248-0.475l0.405,0.475l3.983,2.09c0.505,0.266,1.145,0.138,1.513-0.297
  	c0.229-0.275,0.332-0.641,0.27-0.998l-0.762-4.808c-0.009-0.054,0.008-0.11,0.048-0.147l3.23-3.264
  	c0.327-0.324,0.44-0.806,0.305-1.245C20.294,12.574,19.932,12.247,19.482,12.164z"/>
  <path fill="#FFCB04" d="M38.605,12.164l-4.496-0.828c-0.055-0.01-0.097-0.044-0.119-0.093l-2.016-4.239
  	c-0.204-0.435-0.634-0.707-1.107-0.707c-0.484,0-0.912,0.275-1.115,0.713l-1.983,4.233c-0.024,0.049-0.071,0.086-0.122,0.096
  	l-4.506,0.854c-0.451,0.086-0.818,0.416-0.951,0.859c-0.131,0.442-0.016,0.919,0.313,1.244l3.243,3.233
  	c0.037,0.037,0.057,0.094,0.048,0.145l-0.731,4.831c-0.057,0.36,0.045,0.724,0.281,0.997c0.234,0.276,0.573,0.435,0.934,0.435
  	c0.199,0,0.394-0.048,0.574-0.145l3.96-2.107l-0.247-0.475l0.406,0.475l3.982,2.09c0.505,0.266,1.145,0.138,1.514-0.297
  	c0.229-0.275,0.331-0.641,0.268-0.998l-0.76-4.808c-0.01-0.054,0.008-0.11,0.046-0.147l3.231-3.264
  	c0.327-0.324,0.441-0.806,0.305-1.245C39.418,12.574,39.057,12.247,38.605,12.164z"/>
  <path fill="#FFCB04" d="M57.73,12.164l-4.496-0.828c-0.055-0.01-0.098-0.044-0.119-0.093L51.1,7.004
  	c-0.205-0.435-0.635-0.707-1.109-0.707c-0.482,0-0.91,0.275-1.113,0.713l-1.984,4.233c-0.023,0.049-0.069,0.086-0.122,0.096
  	l-4.505,0.854c-0.451,0.086-0.818,0.416-0.951,0.859c-0.131,0.442-0.014,0.919,0.312,1.244l3.244,3.233
  	c0.037,0.037,0.057,0.094,0.047,0.145l-0.731,4.831c-0.056,0.36,0.046,0.724,0.281,0.997c0.235,0.276,0.573,0.435,0.934,0.435
  	c0.2,0,0.394-0.048,0.575-0.145l3.959-2.107l-0.246-0.475l0.405,0.475l3.983,2.09c0.504,0.266,1.145,0.138,1.513-0.297
  	c0.228-0.275,0.331-0.641,0.269-0.998l-0.76-4.808c-0.01-0.054,0.008-0.11,0.045-0.147l3.232-3.264
  	c0.326-0.324,0.441-0.806,0.304-1.245C58.541,12.574,58.181,12.247,57.73,12.164z"/>
  <path fill="#FFCB04" d="M76.854,12.164l-4.494-0.828c-0.056-0.01-0.098-0.044-0.119-0.093l-2.017-4.239
  	c-0.206-0.435-0.634-0.707-1.108-0.707c-0.483,0-0.91,0.275-1.114,0.713l-1.983,4.233c-0.024,0.049-0.071,0.086-0.123,0.096
  	l-4.505,0.854c-0.45,0.086-0.817,0.416-0.95,0.859c-0.133,0.442-0.017,0.919,0.312,1.244l3.243,3.233
  	c0.038,0.037,0.057,0.094,0.048,0.145l-0.732,4.831c-0.056,0.36,0.046,0.724,0.281,0.997c0.235,0.276,0.574,0.435,0.934,0.435
  	c0.2,0,0.395-0.048,0.576-0.145l3.959-2.107l-0.246-0.475l0.404,0.475l3.984,2.09c0.504,0.266,1.145,0.138,1.512-0.297
  	c0.229-0.275,0.331-0.641,0.27-0.998l-0.76-4.808c-0.01-0.054,0.006-0.11,0.045-0.147l3.23-3.264
  	c0.328-0.324,0.442-0.806,0.305-1.245C77.666,12.574,77.305,12.247,76.854,12.164z"/>
  <path fill="#FFCB04" d="M95.979,12.164l-4.496-0.828c-0.056-0.01-0.096-0.044-0.121-0.093l-2.015-4.239
  	c-0.204-0.435-0.632-0.707-1.108-0.707c-0.482,0-0.909,0.275-1.113,0.713l-1.982,4.233c-0.025,0.049-0.072,0.086-0.123,0.096
  	l-4.506,0.854c-0.451,0.086-0.817,0.416-0.95,0.859c-0.133,0.442-0.017,0.919,0.313,1.244l3.242,3.233
  	c0.039,0.037,0.056,0.094,0.049,0.145l-0.734,4.831c-0.056,0.36,0.047,0.724,0.283,0.997c0.233,0.276,0.574,0.435,0.934,0.435
  	c0.199,0,0.395-0.048,0.576-0.145l3.959-2.107l-0.247-0.475l0.405,0.475l3.983,2.09c0.505,0.266,1.145,0.138,1.512-0.297
  	c0.229-0.275,0.331-0.641,0.271-0.998l-0.761-4.808c-0.011-0.054,0.007-0.11,0.046-0.147l3.23-3.264
  	c0.328-0.324,0.441-0.806,0.305-1.245C96.791,12.574,96.428,12.247,95.979,12.164z M95.875,13.504l-3.232,3.263
  	c-0.276,0.282-0.408,0.683-0.346,1.074l0.764,4.811c0.012,0.05,0,0.094-0.032,0.132c-0.036,0.041-0.085,0.066-0.212,0.045
  	l-3.982-2.096c-0.355-0.185-0.795-0.183-1.144,0.004l-3.963,2.111c-0.073,0.036-0.157,0.019-0.208-0.045
  	c-0.03-0.036-0.043-0.081-0.031-0.134l0.729-4.83c0.062-0.395-0.07-0.792-0.351-1.072l-3.244-3.23
  	c-0.062-0.063-0.054-0.135-0.042-0.171c0.01-0.038,0.042-0.104,0.128-0.118l4.507-0.855c0.387-0.073,0.717-0.331,0.889-0.69
  	l1.98-4.233c0.042-0.083,0.115-0.096,0.154-0.096c0.037,0,0.111,0.013,0.15,0.096l2.017,4.237c0.169,0.358,0.497,0.613,0.888,0.687
  	l4.492,0.826c0.084,0.015,0.12,0.081,0.133,0.118C95.928,13.37,95.936,13.441,95.875,13.504z"/>
</svg>
