<?xml version="1.0" encoding="utf-8"?>
<svg version="1.1" xmlns="http://www.w3.org/2000/svg" xmlns:xlink="http://www.w3.org/1999/xlink" x="0px" y="0px" width="30px" height="30px" viewBox="0 0 30 30" xml:space="preserve">
  <g>
   <path fill="#fff" d="M27.277,4.468c-0.096-0.323-0.264-0.604-0.496-0.838c-0.234-0.232-0.518-0.4-0.838-0.498
    c-0.299-0.091-0.615-0.117-0.945-0.078c-0.314,0.036-0.625,0.13-0.924,0.277c-0.301,0.151-0.58,0.351-0.824,0.596l-5.762,5.755
    L13.614,8.83L9.157,7.85h0L6.076,7.171C5.404,7.023,4.394,7.153,3.93,7.616l-0.972,0.97C2.69,8.854,2.579,9.19,2.645,9.532
    c0.142,0.743,1.017,1.173,2.236,1.7c0.165,0.071,0.317,0.137,0.441,0.195l0.476,0.224c2.192,1.031,4.277,2.011,6.382,3.086
    c-0.604,0.626-1.181,1.252-1.744,1.862c-0.685,0.742-1.391,1.508-2.135,2.262l-1.844-0.186c-0.058-0.008-0.142,0-0.199,0.01
    L6.16,18.693c-0.473,0.049-1.006,0.129-1.363,0.488l-0.381,0.379c-0.23,0.23-0.707,0.705-0.586,1.311
    c0.108,0.535,0.598,0.799,1.013,0.969l2.632,1.082l1.081,2.629c0.17,0.414,0.435,0.902,0.972,1.012
    c0.602,0.119,1.08-0.357,1.31-0.586l0.381-0.383c0.385-0.381,0.574-1.002,0.507-1.656l-0.187-1.846
    c0.244-0.246,0.486-0.49,0.728-0.736c1.115-1.131,2.179-2.209,3.359-3.207c1.095,2.137,2.089,4.25,3.138,6.475l0.209,0.443
    c0.057,0.125,0.125,0.275,0.195,0.441c0.527,1.215,0.959,2.088,1.701,2.23c0.064,0.012,0.129,0.02,0.191,0.02
    c0.275,0,0.537-0.115,0.754-0.332l0.973-0.973c0.471-0.469,0.637-1.27,0.445-2.141l-0.678-3.078l0,0l-0.984-4.455l0,0l-0.852-3.861
    l5.768-5.761c0.244-0.245,0.443-0.522,0.594-0.823c0.148-0.297,0.242-0.606,0.277-0.921C27.395,5.082,27.367,4.766,27.277,4.468z
    M25.848,5.724c-0.082,0.167-0.197,0.324-0.336,0.463l-6.031,6.027c-0.164,0.165-0.236,0.404-0.186,0.633l0.934,4.227l0,0
    l0.98,4.454l0.68,3.078c0.094,0.428,0.031,0.773-0.076,0.879l-0.754,0.754c-0.221-0.328-0.498-0.969-0.631-1.277
    c-0.078-0.178-0.148-0.344-0.213-0.479l-0.209-0.443c-1.176-2.5-2.287-4.857-3.553-7.275c-0.096-0.182-0.266-0.311-0.465-0.354
    c-0.199-0.044-0.408,0.006-0.569,0.133c-1.516,1.195-2.787,2.484-4.133,3.85c-0.314,0.32-0.63,0.639-0.952,0.961
    c-0.145,0.145-0.218,0.35-0.197,0.555l0.221,2.166c0.026,0.258-0.038,0.477-0.111,0.551l-0.381,0.381
    c-0.012,0.012-0.023,0.023-0.035,0.033c-0.001-0.004-0.003-0.008-0.004-0.01l-1.189-2.895c-0.07-0.17-0.205-0.305-0.374-0.375
    L5.364,20.57c-0.003,0-0.008-0.004-0.011-0.004c0.011-0.01,0.022-0.021,0.034-0.033l0.359-0.363c0.101-0.062,0.442-0.1,0.554-0.111
    c0.037-0.002,0.071-0.006,0.102-0.012l2.086,0.215c0.204,0.018,0.409-0.053,0.555-0.197c0.848-0.85,1.639-1.707,2.403-2.536
    c0.754-0.815,1.534-1.661,2.361-2.487c0.154-0.155,0.226-0.374,0.193-0.59c-0.033-0.216-0.167-0.403-0.36-0.505
    c-2.413-1.259-4.766-2.366-7.257-3.537l-0.475-0.224c-0.136-0.064-0.302-0.136-0.481-0.213C5.116,9.838,4.476,9.561,4.146,9.343
    l0.738-0.74C4.992,8.528,5.446,8.44,5.78,8.513l3.08,0.678h0l4.458,0.98l4.244,0.933c0.227,0.051,0.467-0.02,0.631-0.185
    l6.029-6.022c0.139-0.139,0.295-0.25,0.463-0.335c0.154-0.075,0.316-0.125,0.471-0.143c0.143-0.016,0.271-0.007,0.389,0.027
    c0.104,0.032,0.193,0.084,0.264,0.155c0.072,0.071,0.123,0.16,0.154,0.265c0.035,0.115,0.045,0.248,0.027,0.387
    C25.975,5.409,25.924,5.57,25.848,5.724z"/>
  </g>
</svg>
