<?xml version="1.0" encoding="utf-8"?>
<svg version="1.1" xmlns="http://www.w3.org/2000/svg" xmlns:xlink="http://www.w3.org/1999/xlink" x="0px" y="0px" width="30px" height="30px" viewBox="0 0 30 30" xml:space="preserve">
  <g>
   <g>
    <path fill="#fff" d="M19.748,6.903h-9.704c-0.295,0-0.537,0.25-0.537,0.558c0,0.309,0.242,0.559,0.537,0.559h9.704
     c0.298,0,0.538-0.25,0.538-0.559C20.286,7.152,20.046,6.903,19.748,6.903z M19.748,9.679h-9.704c-0.295,0-0.537,0.25-0.537,0.559
     c0,0.309,0.242,0.558,0.537,0.558h9.704c0.298,0,0.538-0.249,0.538-0.558C20.286,9.93,20.046,9.679,19.748,9.679z M19.748,12.457
     h-9.704c-0.295,0-0.537,0.25-0.537,0.559c0,0.308,0.242,0.558,0.537,0.558h9.704c0.298,0,0.538-0.25,0.538-0.558
     C20.286,12.706,20.046,12.457,19.748,12.457z M19.748,15.233h-9.704c-0.295,0-0.537,0.25-0.537,0.559s0.242,0.559,0.537,0.559
     h9.704c0.298,0,0.538-0.25,0.538-0.559S20.046,15.233,19.748,15.233z M19.748,18.011h-9.704c-0.295,0-0.537,0.25-0.537,0.559
     s0.242,0.559,0.537,0.559h9.704c0.298,0,0.538-0.25,0.538-0.559S20.046,18.011,19.748,18.011z M19.748,20.788h-9.704
     c-0.295,0-0.537,0.249-0.537,0.558s0.242,0.56,0.537,0.56h9.704c0.298,0,0.538-0.251,0.538-0.56S20.046,20.788,19.748,20.788z
     M27.078,23.773h-1.026l0.624-14.98c0-1.043-0.753-1.891-1.677-1.891h-2.42c-0.055,0-0.102,0.016-0.149,0.031V5.53
     c0-0.027-0.002-0.053-0.007-0.08c-0.12-0.882-0.835-1.547-1.657-1.547H9.029c-0.828,0-1.542,0.668-1.658,1.553
     C7.367,5.482,7.365,5.507,7.365,5.533v1.4C7.317,6.918,7.271,6.902,7.217,6.902H4.794c-0.924,0-1.675,0.848-1.675,1.915
     l0.622,14.957H2.716c-0.297,0-0.536,0.25-0.536,0.559c0,0.31,0.239,0.56,0.536,0.56h24.362c0.295,0,0.537-0.25,0.537-0.56
     C27.615,24.023,27.373,23.773,27.078,23.773z M7.365,23.773H4.816L4.191,8.793c0-0.418,0.276-0.774,0.603-0.774h2.423
     c0.054,0,0.101-0.016,0.148-0.031V23.773z M21.354,23.773H8.44V5.577c0.055-0.324,0.3-0.555,0.589-0.555h11.736
     c0.282,0,0.53,0.235,0.589,0.554V23.773z M24.978,23.773H22.43V7.988c0.048,0.015,0.095,0.031,0.149,0.031h2.42
     c0.325,0,0.602,0.355,0.604,0.749L24.978,23.773z"/>
   </g>
 </g>
</svg>
