<?xml version="1.0" encoding="utf-8"?>
<svg version="1.1"  xmlns="http://www.w3.org/2000/svg" xmlns:xlink="http://www.w3.org/1999/xlink" x="0px" y="0px" width="30px" height="30px"
  viewBox="0 0 30 30" enable-background="new 0 0 30 30" xml:space="preserve">
  <path fill="#009c80" d="M22.961,9H21V7.867C21,6.671,19.742,6,18.469,6h-4.938C12.257,6,11,6.671,11,7.867V9H9.039
   C7.084,9,5,10.299,5,12.137v7.527C5,21.499,7.084,23,9.039,23h13.922C24.917,23,27,21.499,27,19.664v-7.527
   C27,10.299,24.917,9,22.961,9z M14,8h4v1h-4V8z M20.641,16.513c-0.125,0.119-0.145,0.191-0.334,0.188L17,16.704v3.249
   c0,0.181-0.23,0.343-0.355,0.461c-0.125,0.115-0.53,0.19-0.722,0.19c-0.381,0-0.923-0.292-0.923-0.649V17h-3.152
   c-0.382,0-0.69-0.641-0.691-1c0.001-0.359,0.31-1,0.693-1H15v-2.848c0-0.36,0.617-0.651,1.001-0.651
   C16.383,11.503,17,11.792,17,12.152V15h3.152c0.382,0,0.693,0.491,0.693,0.851C20.844,16.031,20.766,16.395,20.641,16.513z"/>
</svg>
