<?xml version="1.0" encoding="utf-8"?>
<svg version="1.1" xmlns="http://www.w3.org/2000/svg" xmlns:xlink="http://www.w3.org/1999/xlink" x="0px" y="0px" width="30px" height="30px" viewBox="0 0 30 30" xml:space="preserve">
<g>
	<g>
		<g>
			<g>
				<g>
					<path fill="#fff" stroke="#fff" stroke-width="0.5" stroke-miterlimit="10" d="M24.105,3.002
						c-0.654-0.47-1.366-0.364-2.016,0.111c-0.39,0.289-0.77,0.716-1.123,1.236c-0.425,0.626-0.818,1.394-1.152,2.219l-0.898-0.65
						L12.49,7.935l-8.27,12.172l11.062,7.986l8.27-12.175l-0.359-6.914l-0.869-0.628c0.635-0.603,1.201-1.248,1.627-1.874
						c0.394-0.581,0.672-1.153,0.78-1.675C24.885,4.093,24.71,3.439,24.105,3.002z M22.439,9.436l0.325,6.251l-7.672,11.296
						l-9.795-7.069l7.673-11.296l5.809-1.824l0.747,0.539c-0.229,0.659-0.416,1.335-0.551,1.982
						c-0.237-0.057-0.481-0.062-0.717-0.019c-0.975,0.177-1.629,1.139-1.458,2.143c0.172,1.004,1.105,1.68,2.08,1.503
						c0.974-0.177,1.63-1.139,1.457-2.143c-0.072-0.428-0.292-0.83-0.642-1.12c0.116-0.609,0.282-1.245,0.489-1.871L22.439,9.436z
						 M19.573,10.936c0.097,0.572-0.269,1.115-0.827,1.216c-0.555,0.102-1.082-0.276-1.18-0.85c-0.098-0.574,0.27-1.115,0.826-1.219
						C18.947,9.983,19.476,10.362,19.573,10.936z M23.973,4.663c-0.086,0.414-0.32,0.889-0.656,1.382
						c-0.421,0.619-0.995,1.262-1.643,1.864l-1.209-0.874c0.324-0.83,0.714-1.607,1.136-2.228c0.305-0.449,0.622-0.811,0.938-1.042
						c0.368-0.27,0.746-0.38,1.122-0.109C24.002,3.902,24.059,4.256,23.973,4.663z"/>
				</g>
			</g>
		</g>
	</g>
	<g>
		<path fill="#fff" d="M17.004,14.586l0.387-0.624l-0.716-0.473l-0.378,0.605c-0.857-0.42-1.817-0.305-2.355,0.567
			c-0.605,0.988-0.174,1.795,0.384,2.609l-1.675,2.695c-0.393-0.328-0.685-0.761-0.758-1.205l-0.838,0.146
			c0.112,0.688,0.555,1.34,1.136,1.799l-0.374,0.6l0.719,0.473l0.388-0.626c1.058,0.468,2.202,0.293,2.863-0.772
			c0.766-1.25,0.201-2.219-0.435-3.136l1.186-1.909c0.298,0.314,0.537,0.724,0.566,1.17l0.846-0.06
			C17.903,15.729,17.518,15.056,17.004,14.586z M15.072,19.909c-0.396,0.638-1.037,0.73-1.682,0.491l1.463-2.355
			C15.229,18.639,15.473,19.253,15.072,19.909z M14.824,16.465c-0.276-0.464-0.429-0.91-0.17-1.335
			c0.287-0.449,0.726-0.468,1.18-0.288L14.824,16.465z"/>
	</g>
</g>
</svg>
