<?xml version="1.0" encoding="utf-8"?>
<svg version="1.1" xmlns="http://www.w3.org/2000/svg" xmlns:xlink="http://www.w3.org/1999/xlink" x="0px" y="0px" width="30px" height="30px"
	 viewBox="0 0 30 30" enable-background="new 0 0 30 30" xml:space="preserve">
<g>
	<g>
		<path fill-rule="evenodd" clip-rule="evenodd" fill="#C60202" d="M15.001,3.563C8.93,3.563,3.99,8.503,3.99,14.573
			S8.929,25.583,15,25.583s11.01-4.939,11.01-11.01S21.071,3.563,15.001,3.563z M15,24.113c-5.261,0-9.54-4.279-9.54-9.54
			s4.279-9.54,9.541-9.54c5.26,0,9.539,4.279,9.539,9.54S20.261,24.113,15,24.113z M17.917,11.839l-2.892,2.041l-3.979-3.273
			c-0.235-0.193-0.583-0.159-0.776,0.075c-0.193,0.235-0.159,0.583,0.076,0.776l4.303,3.541c0.102,0.084,0.227,0.125,0.351,0.125
			c0.111,0,0.223-0.033,0.317-0.101l3.235-2.285c0.249-0.175,0.308-0.519,0.132-0.768S18.165,11.662,17.917,11.839z M15.003,8.794
			c0.446,0,0.809-0.362,0.809-0.809c0-0.447-0.362-0.81-0.809-0.81c-0.447,0-0.81,0.362-0.81,0.81
			C14.193,8.432,14.556,8.794,15.003,8.794z M15.003,20.307c-0.447,0-0.81,0.362-0.81,0.809c0,0.447,0.362,0.809,0.81,0.809
			c0.446,0,0.809-0.361,0.809-0.809C15.812,20.669,15.449,20.307,15.003,20.307z M21.609,13.764c-0.446,0-0.81,0.361-0.81,0.809
			c0,0.446,0.363,0.809,0.81,0.809s0.81-0.362,0.81-0.809C22.419,14.125,22.056,13.764,21.609,13.764z M8.479,13.763
			c-0.447,0-0.81,0.362-0.81,0.81c0,0.446,0.362,0.809,0.809,0.809c0.447,0,0.81-0.362,0.81-0.809
			C9.288,14.125,8.926,13.763,8.479,13.763z"/>
	</g>
</g>
</svg>
