<?xml version="1.0" encoding="utf-8"?>
<svg version="1.1" xmlns="http://www.w3.org/2000/svg" xmlns:xlink="http://www.w3.org/1999/xlink" x="0px" y="0px" width="30px" height="30px"
	 viewBox="0 0 30 30" enable-background="new 0 0 30 30" xml:space="preserve">
   <g>
	<g>
		<path fill="#009c80" d="M22.961,8.806h-2.184V7.867c0-1.196-1.035-2.168-2.309-2.168h-4.938c-1.274,0-2.309,0.972-2.309,2.168
			v0.938H9.039c-1.955,0-3.546,1.493-3.546,3.332v7.527c0,1.835,1.591,3.331,3.546,3.331h13.922c1.956,0,3.546-1.496,3.546-3.331
			v-7.527C26.507,10.299,24.917,8.806,22.961,8.806z M13.773,8.094h4.453v0.711h-4.453V8.094z M25.049,19.664
			c0,1.08-0.938,1.961-2.088,1.961H9.039c-1.15,0-2.088-0.881-2.088-1.961v-7.527c0-1.081,0.938-1.961,2.088-1.961h13.922
			c1.15,0,2.088,0.881,2.088,1.961V19.664z M20.152,15.403h-3.461v-3.251c0-0.36-0.309-0.649-0.69-0.651
			c-0.384,0-0.692,0.292-0.692,0.651v3.251H11.85c-0.384,0-0.692,0.29-0.693,0.649c0.001,0.359,0.31,0.648,0.691,0.648h3.461v3.254
			c0,0.357,0.311,0.649,0.691,0.649c0.191,0,0.365-0.075,0.49-0.19c0.126-0.118,0.202-0.28,0.202-0.461v-3.249l3.46-0.003
			c0.189,0.003,0.363-0.069,0.488-0.188c0.125-0.118,0.203-0.279,0.205-0.46C20.846,15.693,20.534,15.403,20.152,15.403z"/>
	</g>
</g>
</svg>
