<?xml version="1.0" encoding="utf-8"?>
<svg version="1.1" xmlns="http://www.w3.org/2000/svg" xmlns:xlink="http://www.w3.org/1999/xlink" x="0px" y="0px" width="30px" height="30px" viewBox="0 0 30 30" xml:space="preserve">
  <g>
   <g>
    <path fill="#00ADEF" d="M15,17.48c1.024,0,1.858-0.818,1.858-1.824c0-1.004-0.834-1.822-1.858-1.822
     c-1.025,0-1.859,0.818-1.859,1.822C13.141,16.662,13.975,17.48,15,17.48z M15,14.691c0.543,0,0.985,0.432,0.985,0.965
     S15.543,16.623,15,16.623c-0.545,0-0.986-0.434-0.986-0.967S14.455,14.691,15,14.691z M15.711,18.178h-1.777
     c-0.914,0-1.502,0.574-1.502,1.465l-0.002,3.924h0.711V27.4h3.718v-3.834h0.711v-3.924C17.569,18.736,16.604,18.178,15.711,18.178
     z M16.696,22.709h-0.711v3.836h-1.972v-3.836h-0.711l0.002-3.066c0-0.408,0.205-0.607,0.629-0.607h1.777
     c0.466,0,0.985,0.25,0.985,0.607V22.709z"/>
   </g>
 </g>
</svg>
