<?xml version="1.0" encoding="utf-8"?>
<svg version="1.1" xmlns="http://www.w3.org/2000/svg" xmlns:xlink="http://www.w3.org/1999/xlink" x="0px" y="0px" width="100px" height="30px"
	 viewBox="0 0 100 30" enable-background="new 0 0 100 30" xml:space="preserve">
  <path fill="#FFCB04" d="M19.482,10.231l-4.496-0.825c-0.056-0.012-0.098-0.047-0.119-0.096L12.85,5.074
  	c-0.203-0.438-0.633-0.709-1.106-0.709c-0.483,0-0.911,0.274-1.115,0.714L8.646,9.311C8.621,9.361,8.574,9.396,8.524,9.407
  	l-4.507,0.854c-0.451,0.089-0.818,0.418-0.951,0.859c-0.133,0.443-0.014,0.919,0.312,1.246l3.243,3.231
  	c0.038,0.037,0.058,0.094,0.051,0.145l-0.734,4.834c-0.056,0.358,0.046,0.722,0.281,0.996c0.234,0.276,0.575,0.434,0.936,0.434
  	c0.198,0,0.392-0.047,0.573-0.145l3.961-2.108l-0.248-0.474l0.406,0.474l3.982,2.093c0.504,0.264,1.145,0.138,1.512-0.3
  	c0.23-0.272,0.332-0.64,0.271-0.997l-0.762-4.809c-0.01-0.054,0.008-0.109,0.047-0.147l3.23-3.264
  	c0.326-0.324,0.443-0.805,0.305-1.245C20.296,10.643,19.932,10.315,19.482,10.231z"/>
  <path fill="#FFCB04" d="M38.607,10.231L34.11,9.406c-0.056-0.012-0.097-0.047-0.119-0.096l-2.017-4.236
  	c-0.203-0.438-0.633-0.709-1.107-0.709c-0.483,0-0.911,0.274-1.115,0.714l-1.98,4.231c-0.027,0.051-0.072,0.086-0.124,0.097
  	l-4.505,0.854c-0.452,0.089-0.818,0.418-0.952,0.859c-0.132,0.443-0.013,0.919,0.313,1.246l3.242,3.231
  	c0.039,0.037,0.057,0.094,0.05,0.145l-0.733,4.834c-0.055,0.358,0.047,0.722,0.281,0.996c0.234,0.276,0.574,0.434,0.936,0.434
  	c0.198,0,0.393-0.047,0.574-0.145l3.959-2.108l-0.247-0.474l0.406,0.474l3.982,2.093c0.505,0.264,1.144,0.138,1.513-0.3
  	c0.229-0.272,0.332-0.64,0.271-0.997l-0.762-4.809c-0.011-0.054,0.007-0.109,0.046-0.147l3.232-3.264
  	c0.326-0.324,0.441-0.805,0.303-1.245C39.418,10.643,39.057,10.315,38.607,10.231z"/>
  <path fill="#FFCB04" d="M57.732,10.231l-4.498-0.825c-0.055-0.012-0.096-0.047-0.119-0.096L51.1,5.074
  	c-0.205-0.438-0.635-0.709-1.109-0.709c-0.482,0-0.91,0.274-1.113,0.714l-1.98,4.231c-0.025,0.051-0.072,0.086-0.123,0.097
  	l-4.508,0.854c-0.452,0.089-0.816,0.418-0.951,0.859c-0.133,0.443-0.014,0.919,0.314,1.246l3.242,3.231
  	c0.038,0.037,0.059,0.094,0.049,0.145l-0.732,4.834c-0.056,0.358,0.047,0.722,0.281,0.996c0.234,0.276,0.574,0.434,0.936,0.434
  	c0.199,0,0.392-0.047,0.573-0.145l3.959-2.108l-0.247-0.474l0.406,0.474l3.982,2.093c0.506,0.264,1.145,0.138,1.514-0.3
  	c0.229-0.272,0.331-0.64,0.27-0.997L55.1,15.74c-0.01-0.054,0.008-0.109,0.047-0.147l3.23-3.264
  	c0.328-0.324,0.443-0.805,0.305-1.245C58.545,10.643,58.182,10.315,57.732,10.231z M57.627,11.572l-3.231,3.262
  	c-0.276,0.282-0.41,0.684-0.348,1.076l0.764,4.81c0.013,0.049,0,0.095-0.03,0.132c-0.037,0.04-0.085,0.065-0.213,0.044l-3.982-2.094
  	c-0.355-0.186-0.794-0.184-1.145,0.004l-3.961,2.109c-0.075,0.037-0.156,0.02-0.207-0.044c-0.03-0.037-0.043-0.079-0.033-0.133
  	l0.729-4.831c0.062-0.393-0.07-0.793-0.352-1.073l-3.244-3.229c-0.06-0.063-0.055-0.134-0.041-0.172
  	c0.011-0.037,0.041-0.103,0.13-0.118l4.505-0.854c0.388-0.073,0.718-0.329,0.889-0.69l1.982-4.232
  	c0.043-0.085,0.112-0.096,0.152-0.096c0.039,0,0.111,0.011,0.152,0.096l2.016,4.235c0.168,0.358,0.498,0.614,0.889,0.688l4.49,0.825
  	c0.084,0.016,0.12,0.081,0.133,0.118C57.68,11.438,57.689,11.51,57.627,11.572z"/>
  <path fill="#FFCB04" d="M76.856,10.231l-4.497-0.825c-0.055-0.012-0.097-0.047-0.119-0.096l-2.016-4.236
  	c-0.205-0.438-0.635-0.709-1.109-0.709c-0.482,0-0.91,0.274-1.113,0.714l-1.981,4.231c-0.028,0.051-0.073,0.086-0.125,0.097
  	l-4.505,0.854c-0.453,0.089-0.817,0.418-0.951,0.859c-0.133,0.443-0.015,0.919,0.312,1.246l3.244,3.231
  	c0.037,0.037,0.057,0.094,0.049,0.145l-0.732,4.834c-0.057,0.358,0.046,0.722,0.281,0.996c0.232,0.276,0.574,0.434,0.936,0.434
  	c0.197,0,0.391-0.047,0.572-0.145l3.959-2.108l-0.246-0.474l0.406,0.474l3.982,2.093c0.505,0.264,1.145,0.138,1.512-0.3
  	c0.229-0.272,0.332-0.64,0.271-0.997l-0.762-4.809c-0.01-0.054,0.008-0.109,0.046-0.147l3.23-3.264
  	c0.327-0.324,0.443-0.805,0.305-1.245C77.667,10.643,77.306,10.315,76.856,10.231z M76.751,11.572l-3.231,3.262
  	c-0.275,0.282-0.41,0.684-0.348,1.076l0.764,4.81c0.014,0.049,0,0.095-0.029,0.132c-0.037,0.04-0.086,0.065-0.213,0.044
  	l-3.982-2.094c-0.355-0.186-0.795-0.184-1.145,0.004l-3.961,2.109c-0.076,0.037-0.156,0.02-0.208-0.044
  	c-0.032-0.037-0.043-0.079-0.033-0.133l0.729-4.831c0.062-0.393-0.071-0.793-0.352-1.073l-3.244-3.229
  	c-0.062-0.063-0.055-0.134-0.041-0.172c0.01-0.037,0.041-0.103,0.127-0.118l4.507-0.854c0.388-0.073,0.718-0.329,0.89-0.69
  	l1.982-4.232c0.039-0.085,0.111-0.096,0.152-0.096c0.039,0,0.11,0.011,0.15,0.096l2.016,4.235c0.17,0.358,0.498,0.614,0.891,0.688
  	l4.489,0.825c0.085,0.016,0.12,0.081,0.133,0.118C76.805,11.438,76.811,11.51,76.751,11.572z"/>
  <path fill="#FFCB04" d="M95.98,10.231l-4.496-0.825c-0.057-0.012-0.098-0.047-0.119-0.096l-2.018-4.236
  	c-0.204-0.438-0.633-0.709-1.107-0.709c-0.482,0-0.91,0.274-1.113,0.714l-1.984,4.231c-0.025,0.051-0.07,0.086-0.123,0.097
  	l-4.504,0.854c-0.453,0.089-0.818,0.418-0.951,0.859c-0.133,0.443-0.016,0.919,0.312,1.246l3.244,3.231
  	c0.038,0.037,0.056,0.094,0.048,0.145l-0.731,4.834c-0.058,0.358,0.046,0.722,0.28,0.996c0.234,0.276,0.575,0.434,0.937,0.434
  	c0.196,0,0.392-0.047,0.573-0.145l3.959-2.108l-0.246-0.474l0.406,0.474l3.982,2.093c0.504,0.264,1.145,0.138,1.512-0.3
  	c0.229-0.272,0.331-0.64,0.27-0.997l-0.76-4.809c-0.01-0.054,0.008-0.109,0.045-0.147l3.23-3.264
  	c0.326-0.324,0.443-0.805,0.305-1.245C96.791,10.643,96.43,10.315,95.98,10.231z M95.875,11.572l-3.23,3.262
  	c-0.277,0.282-0.41,0.684-0.348,1.076l0.764,4.81c0.013,0.049,0,0.095-0.03,0.132c-0.037,0.04-0.085,0.065-0.212,0.044l-3.982-2.094
  	c-0.357-0.186-0.795-0.184-1.145,0.004l-3.962,2.109c-0.075,0.037-0.156,0.02-0.208-0.044c-0.031-0.037-0.043-0.079-0.033-0.133
  	l0.73-4.831c0.062-0.393-0.072-0.793-0.352-1.073l-3.244-3.229c-0.062-0.063-0.055-0.134-0.042-0.172
  	c0.011-0.037,0.042-0.103,0.128-0.118l4.506-0.854c0.389-0.073,0.719-0.329,0.89-0.69l1.983-4.232
  	c0.039-0.085,0.111-0.096,0.152-0.096c0.037,0,0.109,0.011,0.149,0.096l2.017,4.235c0.168,0.358,0.497,0.614,0.888,0.688
  	l4.491,0.825c0.086,0.016,0.121,0.081,0.133,0.118C95.93,11.438,95.936,11.51,95.875,11.572z"/>
</svg>
