<?xml version="1.0" encoding="utf-8"?>
<svg version="1.1" xmlns="http://www.w3.org/2000/svg" xmlns:xlink="http://www.w3.org/1999/xlink" x="0px" y="0px" width="30px" height="30px" viewBox="0 0 30 30" xml:space="preserve">
  <g>
   <g>
    <path fill="#fff" d="M27.162,23.102c-0.264,0.234-0.471,0.418-0.912,0.418c-0.439,0-0.648-0.184-0.912-0.418
     c-0.291-0.258-0.652-0.58-1.34-0.58c-0.686,0-1.047,0.322-1.34,0.58c-0.262,0.234-0.471,0.418-0.91,0.418
     c-0.048,0-0.084-0.01-0.127-0.014c2.686-3.584,4.059-6.563,4.059-8.85c0-0.123-0.076-0.232-0.191-0.281
     c-0.104-0.043-0.979-0.405-2.195-0.869V9.791c0-0.17-0.143-0.307-0.318-0.307h-3.102V7.232c0-0.17-0.143-0.307-0.316-0.307h-3.166
     V3.801c0-0.168-0.143-0.305-0.318-0.305h-2.129c-0.174,0-0.316,0.137-0.316,0.305v3.125H10.46c-0.175,0-0.317,0.137-0.317,0.307
     v2.252H7.041c-0.175,0-0.316,0.137-0.316,0.307v3.708c-1.227,0.468-2.109,0.833-2.213,0.876c-0.117,0.049-0.191,0.158-0.191,0.281
     c0,2.286,1.372,5.266,4.056,8.849c-0.044,0.005-0.08,0.015-0.129,0.015c-0.439,0-0.647-0.184-0.911-0.418
     c-0.291-0.258-0.653-0.58-1.34-0.58c-0.685,0-1.047,0.322-1.338,0.58c-0.264,0.234-0.473,0.418-0.912,0.418
     s-0.646-0.184-0.91-0.418c-0.291-0.258-0.653-0.58-1.339-0.58v0.613c0.439,0,0.647,0.184,0.91,0.418
     c0.292,0.258,0.653,0.58,1.339,0.58c0.687,0,1.049-0.322,1.34-0.58c0.264-0.234,0.473-0.418,0.91-0.418
     c0.439,0,0.648,0.184,0.912,0.418c0.291,0.258,0.652,0.58,1.339,0.58c0.327,0,0.577-0.076,0.784-0.181
     c0.003-0.001,0.007,0.001,0.01-0.001c0.004-0.002,0.006-0.005,0.01-0.006c0.096-0.05,0.18-0.107,0.259-0.166
     c0.01-0.008,0.022-0.014,0.032-0.021c0.089-0.068,0.17-0.139,0.244-0.205c0.264-0.234,0.472-0.418,0.911-0.418
     c0.438,0,0.647,0.184,0.91,0.418c0.292,0.258,0.653,0.58,1.339,0.58c0.687,0,1.049-0.322,1.34-0.58
     c0.264-0.234,0.471-0.418,0.911-0.418c0.438,0,0.647,0.184,0.91,0.418c0.292,0.258,0.653,0.58,1.339,0.58s1.049-0.322,1.34-0.58
     c0.264-0.234,0.473-0.418,0.91-0.418c0.441,0,0.648,0.184,0.912,0.418c0.076,0.066,0.156,0.137,0.245,0.205
     c0.013,0.01,0.028,0.018,0.042,0.027c0.076,0.057,0.157,0.112,0.25,0.16c0.004,0.002,0.008,0.006,0.012,0.008s0.009,0,0.013,0.002
     c0.206,0.103,0.454,0.178,0.778,0.178c0.686,0,1.049-0.322,1.34-0.58c0.264-0.234,0.471-0.418,0.91-0.418s0.648,0.184,0.912,0.418
     c0.291,0.258,0.654,0.58,1.34,0.58c0.688,0,1.049-0.322,1.342-0.58c0.262-0.234,0.471-0.418,0.91-0.418v-0.613
     C27.816,22.521,27.455,22.844,27.162,23.102z M14.261,4.109h1.495v2.816h-1.495V4.109z M10.777,7.539h8.463v1.945h-8.463V7.539z
     M7.357,10.098h15.301v3.169c-0.625-0.233-1.312-0.48-2.018-0.723c-0.036-0.012-0.07-0.023-0.106-0.035
     c-0.339-0.115-0.679-0.229-1.02-0.338c-0.006-0.002-0.011-0.004-0.017-0.006c-0.33-0.104-0.658-0.205-0.981-0.3
     c-0.093-0.027-0.182-0.051-0.273-0.077c-0.218-0.062-0.433-0.121-0.644-0.176c-0.117-0.031-0.23-0.059-0.346-0.087
     c-0.181-0.044-0.355-0.085-0.527-0.122c-0.112-0.023-0.223-0.047-0.33-0.068c-0.174-0.033-0.338-0.06-0.498-0.084
     c-0.086-0.012-0.175-0.027-0.256-0.037c-0.232-0.027-0.451-0.046-0.643-0.046s-0.41,0.019-0.643,0.046
     c-0.078,0.01-0.165,0.024-0.247,0.037c-0.165,0.023-0.332,0.051-0.511,0.085c-0.102,0.021-0.206,0.042-0.312,0.065
     c-0.182,0.038-0.367,0.081-0.56,0.129c-0.102,0.024-0.202,0.049-0.307,0.076c-0.239,0.062-0.484,0.129-0.733,0.201
     c-0.059,0.017-0.115,0.031-0.175,0.049c-1.4,0.409-2.9,0.936-4.156,1.404V10.098z M20.838,23.102
     c-0.293-0.258-0.654-0.58-1.342-0.58c-0.686,0-1.047,0.322-1.338,0.58c-0.264,0.234-0.473,0.418-0.912,0.418
     s-0.646-0.184-0.91-0.418c-0.291-0.258-0.653-0.58-1.339-0.58c-0.687,0-1.048,0.322-1.34,0.58
     c-0.263,0.234-0.472,0.418-0.911,0.418c-0.438,0-0.646-0.184-0.91-0.418c-0.291-0.258-0.653-0.58-1.339-0.58
     s-1.048,0.322-1.34,0.58c-0.063,0.057-0.125,0.111-0.188,0.16c-2.584-3.422-3.932-6.248-4.012-8.404
     c0.375-0.153,1.255-0.507,2.361-0.923c0.312-0.117,0.613-0.229,0.91-0.336c0.163-0.06,0.327-0.119,0.496-0.18
     c0.303-0.107,0.598-0.211,0.885-0.309c0.141-0.049,0.283-0.096,0.425-0.143c0.253-0.084,0.5-0.165,0.738-0.24
     c0.079-0.025,0.16-0.053,0.239-0.077c0.341-0.106,0.667-0.203,0.975-0.29c0.026-0.008,0.052-0.015,0.078-0.021
     c0.29-0.082,0.564-0.154,0.824-0.218c0.037-0.009,0.074-0.019,0.111-0.027c0.246-0.06,0.475-0.108,0.689-0.151
     c0.034-0.007,0.07-0.015,0.104-0.021c0.211-0.039,0.403-0.068,0.582-0.092c0.028-0.004,0.061-0.01,0.088-0.012
     c0.199-0.023,0.381-0.036,0.537-0.036s0.338,0.013,0.539,0.036c0.025,0.002,0.055,0.008,0.08,0.012
     c0.184,0.023,0.379,0.053,0.594,0.094c0.027,0.006,0.057,0.012,0.085,0.018c0.224,0.043,0.463,0.096,0.72,0.158
     c0.026,0.006,0.053,0.012,0.078,0.019c0.279,0.069,0.576,0.146,0.892,0.235c0.003,0.002,0.006,0.002,0.009,0.003
     c0.32,0.091,0.661,0.192,1.018,0.304c0.053,0.016,0.105,0.033,0.159,0.051c0.268,0.084,0.547,0.176,0.833,0.271
     c0.124,0.041,0.249,0.083,0.373,0.125c0.291,0.1,0.591,0.204,0.898,0.313c0.185,0.065,0.365,0.132,0.543,0.196
     c0.205,0.074,0.416,0.152,0.627,0.231c1.214,0.452,2.195,0.847,2.596,1.01c-0.08,2.156-1.43,4.982-4.014,8.406
     C20.965,23.213,20.902,23.158,20.838,23.102z M26.25,25.891c-0.439,0-0.648-0.184-0.912-0.418c-0.291-0.258-0.652-0.58-1.34-0.58
     c-0.686,0-1.047,0.322-1.34,0.58c-0.262,0.234-0.471,0.418-0.91,0.418s-0.648-0.184-0.91-0.418
     c-0.293-0.258-0.654-0.58-1.342-0.58c-0.686,0-1.047,0.322-1.338,0.58c-0.264,0.234-0.473,0.418-0.912,0.418
     s-0.646-0.184-0.91-0.418c-0.291-0.258-0.653-0.58-1.339-0.58c-0.687,0-1.048,0.322-1.339,0.58
     c-0.264,0.234-0.473,0.418-0.912,0.418c-0.438,0-0.646-0.184-0.91-0.418c-0.291-0.258-0.653-0.58-1.339-0.58
     s-1.048,0.322-1.339,0.58c-0.264,0.234-0.472,0.418-0.911,0.418S7.6,25.707,7.336,25.473c-0.291-0.258-0.653-0.58-1.34-0.58
     c-0.685,0-1.047,0.322-1.338,0.58c-0.264,0.234-0.473,0.418-0.912,0.418s-0.646-0.184-0.91-0.418
     c-0.291-0.258-0.654-0.58-1.339-0.58v0.613c0.439,0,0.647,0.184,0.91,0.418c0.292,0.258,0.653,0.58,1.339,0.58
     c0.687,0,1.049-0.322,1.34-0.58c0.264-0.234,0.473-0.418,0.91-0.418c0.439,0,0.648,0.184,0.912,0.418
     c0.291,0.258,0.652,0.58,1.339,0.58s1.048-0.322,1.339-0.58c0.264-0.234,0.472-0.418,0.911-0.418c0.438,0,0.647,0.184,0.911,0.418
     c0.291,0.258,0.652,0.58,1.338,0.58c0.687,0,1.049-0.322,1.34-0.58c0.264-0.234,0.471-0.418,0.911-0.418
     c0.438,0,0.647,0.184,0.911,0.418c0.291,0.258,0.652,0.58,1.338,0.58s1.049-0.322,1.34-0.58c0.264-0.234,0.473-0.418,0.91-0.418
     c0.441,0,0.648,0.184,0.912,0.418c0.291,0.258,0.654,0.58,1.34,0.58s1.049-0.322,1.34-0.58c0.264-0.234,0.471-0.418,0.91-0.418
     s0.648,0.184,0.912,0.418c0.291,0.258,0.654,0.58,1.34,0.58c0.688,0,1.049-0.322,1.342-0.58c0.262-0.234,0.471-0.418,0.91-0.418
     v-0.613c-0.686,0-1.047,0.322-1.34,0.58C26.898,25.707,26.691,25.891,26.25,25.891z M14.449,8.818h1.117V8.205h-1.117V8.818z
     M16.678,8.818h1.117V8.205h-1.117V8.818z M12.174,8.818h1.117V8.205h-1.117V8.818z"/>
   </g>
 </g>
</svg>
