<?xml version="1.0" encoding="utf-8"?>
<svg version="1.1" xmlns="http://www.w3.org/2000/svg" xmlns:xlink="http://www.w3.org/1999/xlink" x="0px" y="0px" width="30px" height="30px" viewBox="0 0 30 30" xml:space="preserve">
  <g>
   <path fill="#0066B2" d="M2.645,5.412C2.68,5.727,2.773,6.036,2.922,6.333c0.15,0.301,0.35,0.578,0.594,0.823l5.768,5.761
    l-0.852,3.861l0,0l-0.984,4.455l0,0L6.77,24.312c-0.191,0.871-0.025,1.672,0.445,2.141l0.973,0.973
    c0.217,0.217,0.479,0.332,0.754,0.332c0.062,0,0.127-0.008,0.191-0.02c0.742-0.143,1.174-1.016,1.701-2.23
    c0.07-0.166,0.139-0.316,0.195-0.441l0.209-0.443c1.049-2.225,2.043-4.338,3.139-6.475c1.18,0.998,2.244,2.076,3.359,3.207
    c0.241,0.246,0.482,0.49,0.727,0.736l-0.187,1.846c-0.067,0.654,0.122,1.275,0.507,1.656l0.381,0.383
    c0.23,0.229,0.708,0.705,1.31,0.586c0.537-0.109,0.802-0.598,0.972-1.012l1.081-2.629l2.632-1.082
    c0.414-0.17,0.904-0.434,1.013-0.969c0.12-0.605-0.356-1.08-0.587-1.311l-0.381-0.379c-0.357-0.359-0.891-0.439-1.363-0.488
    l-0.098-0.008c-0.057-0.01-0.141-0.018-0.199-0.01l-1.844,0.186c-0.744-0.754-1.45-1.52-2.135-2.262
    c-0.562-0.61-1.14-1.236-1.744-1.862c2.105-1.075,4.189-2.055,6.382-3.086l0.476-0.224c0.124-0.059,0.275-0.124,0.441-0.195
    c1.219-0.526,2.094-0.957,2.236-1.7c0.065-0.342-0.046-0.678-0.313-0.946l-0.972-0.97c-0.464-0.463-1.475-0.593-2.146-0.445
    l-3.08,0.678l0,0l-4.457,0.98l-3.875,0.853L6.75,3.927C6.506,3.682,6.227,3.482,5.926,3.332C5.627,3.185,5.316,3.09,5.002,3.055
    c-0.33-0.039-0.646-0.013-0.945,0.078C3.736,3.23,3.453,3.398,3.219,3.63c-0.232,0.233-0.4,0.515-0.496,0.838
    C2.633,4.766,2.605,5.082,2.645,5.412z"/>
  </g>
</svg>
