<?xml version="1.0" encoding="utf-8"?>
<svg version="1.1" xmlns="http://www.w3.org/2000/svg" xmlns:xlink="http://www.w3.org/1999/xlink" x="0px" y="0px" width="30px" height="30px"
	 viewBox="0 0 30 30" enable-background="new 0 0 30 30" xml:space="preserve">
<path fill="#0066B2" d="M22.57,7.427c-1.889-1.888-4.4-2.93-7.072-2.93s-5.186,1.042-7.074,2.93c-3.9,3.901-3.9,10.247,0,14.148
	c1.889,1.888,4.402,2.929,7.074,2.929s5.184-1.041,7.072-2.929c1.891-1.891,2.93-4.404,2.93-7.076
	C25.5,11.828,24.461,9.317,22.57,7.427z M18.971,16.981c0.274,0.273,0.274,0.719,0,0.992c-0.137,0.135-0.316,0.205-0.496,0.205
	s-0.359-0.067-0.496-0.205l-2.48-2.479l-2.482,2.479c-0.137,0.138-0.316,0.205-0.496,0.205c-0.178,0-0.357-0.07-0.496-0.205
	c-0.273-0.273-0.273-0.717,0-0.992l2.482-2.482l-2.482-2.481c-0.273-0.273-0.273-0.716,0-0.992c0.273-0.273,0.719-0.273,0.992,0
	l2.482,2.482l2.481-2.482c0.273-0.273,0.716-0.273,0.991,0c0.274,0.276,0.274,0.719,0,0.992l-2.48,2.481L18.971,16.981z"/>
</svg>
