<?xml version="1.0" encoding="utf-8"?>
<svg version="1.1" xmlns="http://www.w3.org/2000/svg" xmlns:xlink="http://www.w3.org/1999/xlink" x="0px" y="0px" width="100px" height="30px"
	 viewBox="0 0 100 30" enable-background="new 0 0 100 30" xml:space="preserve">
  <g>
  	<path fill="#FFCB04" d="M21.65,12.483l-4.222-0.776c-0.052-0.012-0.091-0.043-0.112-0.089L15.424,7.64
  		c-0.191-0.409-0.594-0.665-1.04-0.665c-0.454,0-0.854,0.257-1.047,0.668l-1.86,3.976c-0.025,0.046-0.066,0.081-0.116,0.09
  		l-4.229,0.803c-0.425,0.081-0.77,0.391-0.893,0.807c-0.125,0.415-0.014,0.862,0.293,1.167l3.045,3.036
  		c0.037,0.036,0.053,0.088,0.045,0.138l-0.688,4.537c-0.053,0.336,0.044,0.679,0.264,0.935c0.221,0.26,0.541,0.408,0.879,0.408
  		c0.186,0,0.367-0.045,0.539-0.136l3.718-1.979L14.1,20.978l0.381,0.446l3.74,1.963c0.475,0.248,1.074,0.13,1.42-0.28
  		c0.217-0.257,0.312-0.602,0.253-0.937l-0.714-4.515c-0.009-0.052,0.008-0.104,0.044-0.138l3.034-3.065
  		c0.307-0.304,0.414-0.756,0.285-1.169C22.413,12.869,22.072,12.562,21.65,12.483z"/>
  	<path fill="#FFCB04" d="M39.607,12.483l-4.223-0.776c-0.052-0.012-0.091-0.043-0.111-0.089L33.38,7.64
  		c-0.191-0.409-0.595-0.665-1.04-0.665c-0.455,0-0.855,0.257-1.047,0.668l-1.861,3.976c-0.023,0.046-0.067,0.081-0.115,0.09
  		l-4.23,0.803c-0.424,0.081-0.768,0.391-0.893,0.807c-0.123,0.415-0.013,0.862,0.294,1.167l3.044,3.036
  		c0.037,0.036,0.054,0.088,0.046,0.138l-0.688,4.537c-0.052,0.336,0.044,0.679,0.266,0.935c0.22,0.26,0.538,0.408,0.877,0.408
  		c0.188,0,0.369-0.045,0.539-0.136l3.718-1.979l-0.231-0.446l0.381,0.446l3.74,1.963c0.473,0.248,1.074,0.13,1.42-0.28
  		c0.215-0.257,0.311-0.602,0.252-0.937l-0.713-4.515c-0.011-0.052,0.006-0.104,0.043-0.138l3.034-3.065
  		c0.307-0.304,0.413-0.756,0.286-1.169C40.369,12.869,40.029,12.562,39.607,12.483z"/>
  	<path fill="#FFCB04" d="M57.563,12.483l-4.222-0.776c-0.053-0.012-0.092-0.043-0.112-0.089L51.336,7.64
  		c-0.191-0.409-0.595-0.665-1.039-0.665c-0.455,0-0.855,0.257-1.047,0.668l-1.863,3.976c-0.022,0.046-0.064,0.081-0.115,0.09
  		l-4.229,0.803c-0.424,0.081-0.768,0.391-0.894,0.807c-0.124,0.415-0.013,0.862,0.294,1.167l3.045,3.036
  		c0.036,0.036,0.053,0.088,0.045,0.138l-0.688,4.537c-0.053,0.336,0.045,0.679,0.265,0.935c0.22,0.26,0.54,0.408,0.878,0.408
  		c0.186,0,0.368-0.045,0.539-0.136l3.717-1.979l-0.231-0.446l0.38,0.446l3.74,1.963c0.475,0.248,1.075,0.13,1.421-0.28
  		c0.216-0.257,0.312-0.602,0.253-0.937l-0.714-4.515c-0.009-0.052,0.007-0.104,0.042-0.138l3.035-3.065
  		c0.307-0.304,0.414-0.756,0.286-1.169C58.326,12.869,57.985,12.562,57.563,12.483z"/>
  	<path fill="#FFCB04" d="M75.52,12.483l-4.222-0.776c-0.052-0.012-0.091-0.043-0.112-0.089L69.293,7.64
  		C69.1,7.23,68.697,6.975,68.252,6.975c-0.453,0-0.854,0.257-1.046,0.668l-1.862,3.976c-0.023,0.046-0.066,0.081-0.115,0.09
  		l-4.23,0.803c-0.423,0.081-0.768,0.391-0.893,0.807c-0.123,0.415-0.012,0.862,0.295,1.167l3.045,3.036
  		c0.035,0.036,0.053,0.088,0.045,0.138l-0.688,4.537c-0.053,0.336,0.044,0.679,0.264,0.935c0.221,0.26,0.539,0.408,0.877,0.408
  		c0.188,0,0.369-0.045,0.541-0.136l3.717-1.979l-0.232-0.446l0.381,0.446l3.74,1.963c0.474,0.248,1.074,0.13,1.42-0.28
  		c0.215-0.257,0.311-0.602,0.253-0.937l-0.714-4.515c-0.01-0.052,0.008-0.104,0.043-0.138l3.035-3.065
  		c0.307-0.304,0.414-0.756,0.284-1.169C76.281,12.869,75.941,12.562,75.52,12.483z"/>
  	<path fill="#FFCB04" d="M93.475,12.483l-4.221-0.776c-0.053-0.012-0.091-0.043-0.111-0.089L87.249,7.64
  		c-0.192-0.409-0.595-0.665-1.041-0.665c-0.453,0-0.854,0.257-1.046,0.668l-1.861,3.976c-0.023,0.046-0.067,0.081-0.115,0.09
  		l-4.23,0.803c-0.425,0.081-0.769,0.391-0.893,0.807c-0.125,0.415-0.014,0.862,0.294,1.167l3.045,3.036
  		c0.036,0.036,0.053,0.088,0.045,0.138l-0.688,4.537c-0.052,0.336,0.043,0.679,0.266,0.935c0.22,0.26,0.538,0.408,0.875,0.408
  		c0.189,0,0.371-0.045,0.541-0.136l3.718-1.979l-0.233-0.446l0.383,0.446l3.74,1.963c0.473,0.248,1.074,0.13,1.418-0.28
  		c0.217-0.257,0.312-0.602,0.254-0.937l-0.713-4.515c-0.011-0.052,0.006-0.104,0.043-0.138l3.033-3.065
  		c0.308-0.304,0.414-0.756,0.285-1.169C94.237,12.869,93.898,12.562,93.475,12.483z"/>
  </g>
</svg>
