<?xml version="1.0" encoding="utf-8"?>
<svg version="1.1" xmlns="http://www.w3.org/2000/svg" xmlns:xlink="http://www.w3.org/1999/xlink" x="0px" y="0px" width="30px" height="30px" viewBox="0 0 30 30" xml:space="preserve">
  <g>
   <g>
    <path fill="#00ADEF" d="M25.143,20.666h-6.428c-0.01,0-0.019,0.006-0.028,0.006c-0.172-1.201-1.213-2.13-2.472-2.13
     c-1.26,0-2.301,0.929-2.473,2.13c-0.01,0-0.018-0.006-0.027-0.006H5.857c-0.197,0-0.357,0.159-0.357,0.354s0.16,0.354,0.357,0.354
     h7.857c0.01,0,0.018-0.005,0.027-0.006c0.172,1.202,1.213,2.131,2.473,2.131c1.259,0,2.3-0.929,2.472-2.131
     c0.01,0.001,0.019,0.006,0.028,0.006h6.428c0.197,0,0.357-0.159,0.357-0.354S25.34,20.666,25.143,20.666z M16.215,22.792
     c-0.984,0-1.786-0.795-1.786-1.771c0-0.976,0.802-1.771,1.786-1.771S18,20.045,18,21.021C18,21.997,17.199,22.792,16.215,22.792z
     M25.143,14.292h-1.785c-0.01,0-0.019,0.004-0.028,0.005c-0.171-1.202-1.213-2.131-2.472-2.131c-1.26,0-2.301,0.929-2.473,2.131
     c-0.01-0.001-0.018-0.005-0.027-0.005h-12.5c-0.197,0-0.357,0.158-0.357,0.354C5.5,14.842,5.66,15,5.857,15h12.5
     c0.01,0,0.018-0.005,0.027-0.006c0.172,1.202,1.213,2.131,2.473,2.131c1.259,0,2.301-0.929,2.472-2.131
     C23.339,14.995,23.348,15,23.357,15h1.785c0.197,0,0.357-0.158,0.357-0.354C25.5,14.45,25.34,14.292,25.143,14.292z
     M20.857,16.417c-0.984,0-1.786-0.795-1.786-1.771c0-0.977,0.802-1.771,1.786-1.771s1.785,0.795,1.785,1.771
     C22.643,15.622,21.842,16.417,20.857,16.417z M5.857,9.333h2.5c0.01,0,0.018-0.005,0.027-0.005c0.172,1.202,1.213,2.13,2.473,2.13
     c1.259,0,2.301-0.928,2.472-2.13c0.01,0,0.019,0.005,0.028,0.005h11.785c0.197,0,0.357-0.158,0.357-0.354
     c0-0.196-0.16-0.354-0.357-0.354H13.357c-0.01,0-0.019,0.005-0.028,0.006C13.158,7.429,12.116,6.5,10.857,6.5
     c-1.26,0-2.301,0.929-2.473,2.131C8.375,8.63,8.367,8.625,8.357,8.625h-2.5C5.66,8.625,5.5,8.783,5.5,8.979
     C5.5,9.175,5.66,9.333,5.857,9.333z M10.857,7.208c0.984,0,1.785,0.794,1.785,1.771c0,0.976-0.801,1.771-1.785,1.771
     S9.071,9.955,9.071,8.979C9.071,8.002,9.873,7.208,10.857,7.208z"/>
   </g>
 </g>
</svg>
