<?xml version="1.0" encoding="utf-8"?>
<svg version="1.1" xmlns="http://www.w3.org/2000/svg" xmlns:xlink="http://www.w3.org/1999/xlink" x="0px" y="0px" width="30px" height="30px"
  viewBox="0 0 30 30" enable-background="new 0 0 30 30" xml:space="preserve">
  <g>
   <g>
    <path fill="#00ADEF" d="M27.283,20.17c-0.099-0.111-0.242-0.176-0.393-0.176H25.75v-0.07c0-4.678-3.078-9.682-9.787-10.125
     c0.318-0.281,0.528-0.688,0.528-1.154c0-0.85-0.671-1.543-1.491-1.543c-0.822,0-1.49,0.693-1.49,1.543
     c0,0.486,0.229,0.903,0.57,1.184c-2.447,0.176-4.716,1.009-6.447,2.461c-2.211,1.854-3.382,4.495-3.382,7.635v0.07H3.108
     c-0.15,0-0.293,0.064-0.395,0.176c-0.098,0.111-0.144,0.264-0.125,0.412c0.237,1.926,3.326,2.654,4.806,2.701h15.229
     c1.461-0.047,4.551-0.775,4.787-2.701C27.43,20.434,27.384,20.281,27.283,20.17z M15,8.153c0.244,0,0.441,0.22,0.441,0.491
     c0,0.273-0.197,0.494-0.441,0.494c-0.243,0-0.441-0.221-0.441-0.494C14.559,8.373,14.757,8.153,15,8.153z M14.998,10.802
     c2.556,0,4.933,0.816,6.694,2.292c1.968,1.647,3.008,4.009,3.008,6.83l-0.001,0.07H5.3v-0.07
     C5.3,13.659,10.328,10.802,14.998,10.802z M22.598,22.234H7.411c-1.188-0.041-2.795-0.49-3.469-1.191h22.115
     C25.386,21.74,23.783,22.193,22.598,22.234z M14.896,12.576c3.266,0,6.901,1.78,7.666,5.752c0.048,0.254,0.268,0.428,0.515,0.428
     c0.034,0,0.066-0.004,0.1-0.01c0.284-0.055,0.471-0.332,0.415-0.617c-0.877-4.561-4.998-6.602-8.695-6.602
     c-0.29,0-0.523,0.233-0.523,0.524S14.605,12.576,14.896,12.576z"/>
   </g>
 </g>
</svg>
