<?xml version="1.0" encoding="utf-8"?>
<svg version="1.1" xmlns="http://www.w3.org/2000/svg" xmlns:xlink="http://www.w3.org/1999/xlink" x="0px" y="0px" width="30px" height="30px"
  viewBox="0 0 30 30" enable-background="new 0 0 30 30" xml:space="preserve">
  <g>
   <g>
    <path fill="#0066B2" d="M13.028,5.157c0.243,0.209,0.573,0.358,0.868,0.44c0.863,0.242,1.493,0.487,1.882,0.657
     c1.806,0.717,2.788,2.571,2.695,5.084c-0.004,0.107,0.035,0.21,0.106,0.288c0.074,0.078,0.174,0.121,0.282,0.124
     c0.089,0.003,0.132,0.021,0.137,0.025c0.095,0.266-0.081,1.452-0.519,2.251c-0.064,0.117-0.182,0.188-0.229,0.195
     c-0.145,0.021-0.267,0.121-0.318,0.255c-0.219,0.589-0.482,1.008-0.766,1.449c-0.084,0.132-0.17,0.267-0.257,0.408
     c-0.252,0.416-0.493,0.71-0.735,0.896c-0.1,0.074-0.156,0.195-0.154,0.315c0.006,0.966,0.156,2.642,1.082,3.015
     c0.574,0.231,1.273,0.447,2.016,0.679c1.805,0.554,4.047,1.242,4.301,2.244c0.305,1.2,0.352,1.477,0.352,1.808
     c0,0.614-0.497,1.111-1.107,1.111H5.715c-0.61,0-1.107-0.497-1.109-1.083c0.002-0.008,0.05-0.725,0.336-1.833
     c0.202-0.773,2.186-1.715,5.899-2.794l0.403-0.121c1.001-0.298,1.16-2.184,1.182-2.982c0.004-0.135-0.061-0.263-0.17-0.338
     c-0.291-0.198-0.551-0.497-0.816-0.938c-0.082-0.131-0.164-0.263-0.245-0.387c-0.292-0.458-0.544-0.855-0.759-1.452
     c-0.055-0.153-0.198-0.259-0.359-0.267c-0.045,0-0.166-0.074-0.231-0.195c-0.437-0.799-0.612-1.985-0.521-2.251
     c0.01-0.007,0.056-0.039,0.173-0.039H9.5c0.107,0,0.217-0.025,0.293-0.103s0.119-0.17,0.115-0.281
     c-0.09-2.425,0.803-3.732,1.57-4.396c0.131-0.117,0.172-0.306,0.1-0.465c-0.008-0.014-0.015-0.032-0.025-0.046
     c0.33-0.234,0.879-0.245,0.959-0.245l0.043,0.003c0,0,0.016,0,0.024,0c0.134,0,0.259-0.067,0.332-0.185
     c0.087-0.131,0.083-0.309-0.007-0.44c-0.006-0.003-0.015-0.039,0-0.114C12.924,5.353,12.973,5.246,13.028,5.157"/>
   </g>
 </g>
</svg>
