<?xml version="1.0" encoding="utf-8"?>
<svg version="1.1" xmlns="http://www.w3.org/2000/svg" xmlns:xlink="http://www.w3.org/1999/xlink" x="0px" y="0px" width="30px" height="30px"
  viewBox="0 0 30 30" enable-background="new 0 0 30 30" xml:space="preserve">
  <g>
   <g>
    <path fill="#0066B2" d="M24.02,5.149H5.463c-1.439,0-2.609,1.182-2.609,2.634v10.586c0,1.449,1.17,2.631,2.609,2.631H24.02
     c1.439,0,2.61-1.182,2.61-2.631V7.783C26.63,6.331,25.459,5.149,24.02,5.149z M25.838,18.369c0,1.011-0.815,1.831-1.818,1.831
     H5.463c-1.002,0-1.817-0.82-1.817-1.831v-6.071h22.192V18.369z M25.838,8.002H3.646V7.783c0-1.011,0.815-1.834,1.817-1.834H24.02
     c1.003,0,1.818,0.823,1.818,1.834V8.002z M6.438,16.116h11.009c0.22,0,0.396-0.178,0.396-0.399c0-0.22-0.177-0.4-0.396-0.4H6.438
     c-0.22,0-0.396,0.181-0.396,0.4C6.043,15.938,6.219,16.116,6.438,16.116z M6.438,18.663H9.01c0.22,0,0.397-0.178,0.397-0.4
     c0-0.219-0.178-0.4-0.397-0.4H6.438c-0.22,0-0.396,0.182-0.396,0.4C6.043,18.485,6.219,18.663,6.438,18.663z M13.205,17.862
     h-2.572c-0.219,0-0.396,0.182-0.396,0.4c0,0.223,0.178,0.4,0.396,0.4h2.572c0.22,0,0.396-0.178,0.396-0.4
     C13.602,18.044,13.425,17.862,13.205,17.862z M20.707,18.663h2.744c0.218,0,0.396-0.178,0.396-0.4v-2.546
     c0-0.22-0.178-0.4-0.396-0.4h-2.744c-0.218,0-0.395,0.181-0.395,0.4v2.546C20.312,18.485,20.489,18.663,20.707,18.663z"/>
   </g>
 </g>
</svg>
