<?xml version="1.0" encoding="utf-8"?>
<svg version="1.1" xmlns="http://www.w3.org/2000/svg" xmlns:xlink="http://www.w3.org/1999/xlink" x="0px" y="0px" width="30px" height="30px"
  viewBox="0 0 30 30" enable-background="new 0 0 30 30" xml:space="preserve">
  <g>
   <g>
    <path fill="#00ADEF" d="M13.791,7.257l0.386,0.45c0.812-0.662,1.79-1.088,2.833-1.23l-0.083-0.583
     C15.773,6.05,14.689,6.521,13.791,7.257z M12.88,8.173l0.473,0.364c0.15-0.187,0.314-0.364,0.483-0.528l-0.421-0.42
     C13.227,7.771,13.048,7.968,12.88,8.173z M26.072,21.489V11.479c0-0.162-0.135-0.295-0.301-0.295h-1.274
     c-0.148-3.425-2.849-6.212-6.286-6.579V4.328c0-0.416-0.346-0.754-0.771-0.754s-0.771,0.339-0.771,0.754v0.277
     c-3.44,0.368-6.137,3.154-6.286,6.579H9.107c-0.166,0-0.301,0.133-0.301,0.295v10.075c-0.259,0.164-0.436,0.425-0.472,0.739H6.927
     V8.191c0-0.11-0.062-0.211-0.164-0.261L3.871,6.476c-0.148-0.073-0.33-0.018-0.406,0.128C3.389,6.748,3.447,6.925,3.597,7
     l2.729,1.372v14.215c0,0.162,0.134,0.294,0.301,0.294h1.71c0.059,0.512,0.488,0.916,1.028,0.916h1.856
     c-0.023,0.104-0.064,0.205-0.064,0.317c0,0.802,0.666,1.455,1.487,1.455s1.49-0.653,1.49-1.455c0-0.112-0.042-0.213-0.067-0.317
     h6.842c-0.024,0.104-0.065,0.205-0.065,0.317c0,0.802,0.667,1.455,1.488,1.455c0.82,0,1.487-0.653,1.487-1.455
     c0-0.112-0.04-0.213-0.064-0.317h1.857c0.58,0,1.051-0.461,1.051-1.026v-0.368C26.662,22,26.418,21.658,26.072,21.489z
     M17.27,4.328c0-0.092,0.076-0.166,0.17-0.166s0.17,0.074,0.17,0.166v0.236c-0.042,0-0.081,0-0.122,0
     c-0.017,0-0.032-0.002-0.048-0.002c-0.017,0-0.033,0.002-0.049,0.002c-0.039,0-0.08,0-0.121,0V4.328z M17.421,5.151
     c0.01,0,0.021,0,0.028,0c3.463,0.004,6.297,2.683,6.454,6.032H10.976C11.133,7.837,13.962,5.161,17.421,5.151z M9.408,11.772
     h16.062v9.603h-1.987v-2.38h-0.602v2.38h-2.27v-4.342h-0.602v4.342H17.74v-6.304h-0.602v6.304h-2.27v-4.342h-0.602v4.342h-2.271
     v-2.38h-0.602v2.38H9.408V11.772z M12.644,24.98c-0.488,0-0.886-0.389-0.886-0.866c0-0.192,0.077-0.359,0.185-0.504
     c0.06-0.08,0.132-0.145,0.212-0.199c0.033-0.021,0.063-0.048,0.1-0.064c0.12-0.06,0.252-0.099,0.39-0.099
     c0.142,0,0.271,0.039,0.392,0.099c0.036,0.017,0.064,0.042,0.097,0.064c0.083,0.054,0.154,0.119,0.214,0.2
     c0.108,0.144,0.186,0.311,0.186,0.503C13.531,24.592,13.134,24.98,12.644,24.98z M22.331,24.98c-0.489,0-0.887-0.389-0.887-0.866
     c0-0.192,0.078-0.36,0.186-0.505c0.06-0.079,0.131-0.144,0.211-0.198c0.033-0.021,0.063-0.048,0.099-0.064
     c0.121-0.06,0.251-0.099,0.392-0.099c0.139,0,0.271,0.039,0.39,0.099c0.037,0.017,0.066,0.043,0.099,0.064
     c0.08,0.054,0.151,0.119,0.212,0.198c0.109,0.145,0.186,0.312,0.186,0.505C23.217,24.592,22.819,24.98,22.331,24.98z
     M26.061,22.771c0,0.242-0.201,0.438-0.449,0.438h-2.117c-0.024-0.03-0.057-0.055-0.084-0.083
     c-0.021-0.022-0.044-0.044-0.066-0.065c-0.124-0.114-0.261-0.207-0.413-0.273c-0.021-0.009-0.043-0.014-0.064-0.021
     c-0.168-0.064-0.348-0.106-0.535-0.106c-0.188,0-0.367,0.042-0.534,0.106c-0.021,0.008-0.044,0.013-0.064,0.021
     c-0.153,0.066-0.291,0.159-0.413,0.273c-0.024,0.021-0.046,0.043-0.067,0.065c-0.028,0.028-0.06,0.053-0.086,0.083h-7.357
     c-0.026-0.03-0.057-0.055-0.084-0.082c-0.023-0.023-0.045-0.045-0.068-0.066c-0.122-0.114-0.261-0.207-0.412-0.273
     c-0.021-0.009-0.044-0.015-0.065-0.021c-0.168-0.064-0.347-0.106-0.535-0.106c-0.188,0-0.366,0.042-0.534,0.106
     c-0.021,0.008-0.043,0.013-0.064,0.021c-0.153,0.066-0.289,0.159-0.413,0.273c-0.024,0.021-0.046,0.043-0.067,0.066
     c-0.027,0.028-0.06,0.052-0.083,0.082H9.364c-0.249,0-0.449-0.195-0.449-0.438v-0.368c0-0.233,0.188-0.42,0.424-0.433h16.298
     c0.235,0.013,0.424,0.199,0.424,0.433V22.771z"/>
   </g>
 </g>
</svg>
