<?xml version="1.0" encoding="utf-8"?>
<svg version="1.1" xmlns="http://www.w3.org/2000/svg" xmlns:xlink="http://www.w3.org/1999/xlink" x="0px" y="0px" width="30px" height="30px" viewBox="0 0 30 30" xml:space="preserve">
  <g>
   <g>
    <path fill="#0066B2" d="M24.185,3.693h-1.597c-0.281-0.004-0.543,0.254-0.543,0.536c0,0.283,0.262,0.538,0.543,0.536h1.597
     c0.903,0,1.617,0.711,1.617,1.613v3.74H5.456v-3.74c0-0.902,0.712-1.613,1.616-1.613h1.596c0.284,0.002,0.545-0.252,0.545-0.536
     c0-0.282-0.261-0.54-0.545-0.536H7.072c-1.479,0-2.688,1.208-2.688,2.685v17.115c0,1.477,1.208,2.685,2.688,2.685h17.112
     c1.479,0,2.685-1.208,2.685-2.685V6.378C26.869,4.901,25.664,3.693,24.185,3.693z M19.108,7.441c0,1.028,0.844,1.872,1.874,1.872
     c1.027,0,1.874-0.844,1.874-1.872c0-0.842-0.571-1.556-1.339-1.79V3.159c0-0.295-0.239-0.538-0.535-0.538
     s-0.533,0.242-0.533,0.538v2.493C19.678,5.886,19.108,6.599,19.108,7.441z M20.982,6.637c0.451,0,0.803,0.354,0.803,0.805
     c0,0.449-0.352,0.802-0.803,0.802c-0.449,0-0.803-0.354-0.803-0.802C20.18,6.99,20.533,6.637,20.982,6.637z M8.402,7.441
     c0,1.028,0.844,1.872,1.873,1.872c1.028,0,1.875-0.844,1.875-1.872c0-0.842-0.571-1.556-1.341-1.79V3.159
     c0-0.295-0.24-0.538-0.534-0.538c-0.297,0-0.537,0.242-0.537,0.538v2.493C8.971,5.886,8.402,6.599,8.402,7.441z M10.275,6.637
     c0.449,0,0.803,0.354,0.803,0.805c0,0.449-0.354,0.802-0.803,0.802c-0.451,0-0.805-0.354-0.805-0.802
     C9.471,6.99,9.824,6.637,10.275,6.637z M11.881,4.765h7.496c0.281,0.002,0.542-0.252,0.542-0.536c0-0.282-0.261-0.54-0.542-0.536
     h-7.545c-0.282,0.015-0.526,0.279-0.512,0.561C11.335,4.533,11.6,4.777,11.881,4.765z"/>
   </g>
 </g>
</svg>
