<?xml version="1.0" encoding="utf-8"?>
<svg version="1.1" xmlns="http://www.w3.org/2000/svg" xmlns:xlink="http://www.w3.org/1999/xlink" x="0px" y="0px" width="30px" height="30px" viewBox="0 0 30 30" xml:space="preserve">
  <g>
   <path fill="#0066B2" d="M27.277,4.468c-0.096-0.323-0.264-0.604-0.496-0.838c-0.234-0.232-0.518-0.4-0.838-0.498
    c-0.299-0.091-0.615-0.117-0.945-0.078c-0.314,0.036-0.625,0.13-0.924,0.277c-0.301,0.151-0.58,0.351-0.824,0.596l-5.762,5.755
    L13.614,8.83L9.157,7.85h0L6.076,7.171C5.404,7.023,4.394,7.153,3.93,7.616l-0.972,0.97C2.69,8.854,2.579,9.19,2.645,9.532
    c0.142,0.743,1.017,1.173,2.236,1.7c0.165,0.071,0.317,0.137,0.441,0.195l0.476,0.224c2.192,1.031,4.277,2.011,6.382,3.086
    c-0.604,0.626-1.181,1.252-1.744,1.862c-0.685,0.742-1.391,1.508-2.135,2.262l-1.844-0.186c-0.058-0.008-0.142,0-0.199,0.01
    L6.16,18.693c-0.473,0.049-1.006,0.129-1.363,0.488l-0.381,0.379c-0.23,0.23-0.707,0.705-0.586,1.311
    c0.108,0.535,0.598,0.799,1.013,0.969l2.632,1.082l1.081,2.629c0.17,0.414,0.435,0.902,0.972,1.012
    c0.602,0.119,1.08-0.357,1.31-0.586l0.381-0.383c0.385-0.381,0.574-1.002,0.507-1.656l-0.187-1.846
    c0.244-0.246,0.486-0.49,0.728-0.736c1.115-1.131,2.179-2.209,3.359-3.207c1.095,2.137,2.089,4.25,3.138,6.475l0.209,0.443
    c0.057,0.125,0.125,0.275,0.195,0.441c0.527,1.215,0.959,2.088,1.701,2.23c0.064,0.012,0.129,0.02,0.191,0.02
    c0.275,0,0.537-0.115,0.754-0.332l0.973-0.973c0.471-0.469,0.637-1.27,0.445-2.141l-0.678-3.078l0,0l-0.984-4.455l0,0l-0.852-3.861
    l5.768-5.761c0.244-0.245,0.443-0.522,0.594-0.823c0.148-0.297,0.242-0.606,0.277-0.921C27.395,5.082,27.367,4.766,27.277,4.468z"
    />
  </g>
</svg>
