<?xml version="1.0" encoding="utf-8"?>
<svg version="1.1" xmlns="http://www.w3.org/2000/svg" xmlns:xlink="http://www.w3.org/1999/xlink" x="0px" y="0px" width="30px" height="30px"
  viewBox="0 0 30 30" enable-background="new 0 0 30 30" xml:space="preserve">
  <g>
   <path fill="#00ADEF" d="M22.838,24.073c-1.031,0-1.979-0.455-2.613-1.224c-0.635,0.77-1.582,1.224-2.612,1.224
    S15.635,23.618,15,22.85c-0.635,0.77-1.582,1.224-2.613,1.224s-1.978-0.455-2.611-1.224c-0.636,0.77-1.582,1.224-2.613,1.224
    c-1.379,0-2.608-0.822-3.135-2.092c-0.101-0.242,0.016-0.521,0.259-0.622c0.245-0.102,0.523,0.015,0.624,0.259
    c0.379,0.912,1.262,1.502,2.252,1.502c0.934,0,1.771-0.519,2.185-1.354c0.161-0.324,0.695-0.324,0.856,0
    c0.414,0.835,1.25,1.354,2.184,1.354s1.771-0.519,2.185-1.354c0.161-0.324,0.694-0.326,0.856,0
    c0.414,0.835,1.252,1.354,2.185,1.354s1.771-0.519,2.185-1.354c0.16-0.323,0.695-0.326,0.855,0
    c0.414,0.835,1.252,1.354,2.186,1.354c0.989,0,1.873-0.589,2.251-1.502c0.101-0.244,0.383-0.359,0.624-0.259
    c0.244,0.101,0.359,0.378,0.259,0.622C25.445,23.252,24.215,24.073,22.838,24.073z M22.838,20.843
    c-1.031,0-1.979-0.456-2.613-1.225c-0.635,0.769-1.582,1.225-2.612,1.225S15.635,20.387,15,19.618
    c-0.635,0.769-1.582,1.225-2.613,1.225s-1.978-0.456-2.611-1.225c-0.635,0.769-1.582,1.225-2.613,1.225
    c-1.377,0-2.607-0.822-3.135-2.092c-0.101-0.243,0.016-0.522,0.259-0.623c0.245-0.102,0.523,0.016,0.624,0.259
    c0.379,0.912,1.262,1.502,2.252,1.502c0.934,0,1.771-0.519,2.185-1.354c0.161-0.325,0.695-0.325,0.856,0
    c0.414,0.835,1.25,1.354,2.184,1.354s1.771-0.519,2.185-1.354c0.161-0.325,0.695-0.326,0.856,0
    c0.414,0.835,1.252,1.354,2.185,1.354c0.934,0,1.771-0.519,2.185-1.354c0.16-0.324,0.695-0.327,0.855,0
    c0.414,0.835,1.252,1.354,2.186,1.354c0.989,0,1.873-0.59,2.251-1.502c0.101-0.243,0.38-0.36,0.624-0.259
    c0.244,0.101,0.359,0.379,0.259,0.623C25.445,20.021,24.215,20.843,22.838,20.843z M22.088,18.417
    c-0.264,0-0.478-0.214-0.478-0.477v-2.163h-8.233v2.163c0,0.263-0.213,0.477-0.478,0.477c-0.264,0-0.478-0.214-0.478-0.477V5.089
    c0-1.114,0.908-2.02,2.025-2.02s2.025,0.905,2.025,2.02c0,0.263-0.214,0.477-0.479,0.477c-0.264,0-0.477-0.214-0.477-0.477
    c0-0.589-0.48-1.067-1.07-1.067s-1.07,0.479-1.07,1.067v5.292h8.233V5.089c0-1.114,0.908-2.02,2.024-2.02
    c1.117,0,2.025,0.905,2.025,2.02c0,0.263-0.213,0.477-0.477,0.477s-0.479-0.214-0.479-0.477c0-0.589-0.479-1.067-1.07-1.067
    c-0.589,0-1.068,0.479-1.068,1.067V17.94C22.566,18.203,22.352,18.417,22.088,18.417z M13.377,14.824h8.233v-3.49h-8.233V14.824z"
    />
  </g>
</svg>
