<?xml version="1.0" encoding="utf-8"?>
<svg version="1.1" xmlns="http://www.w3.org/2000/svg" xmlns:xlink="http://www.w3.org/1999/xlink" x="0px" y="0px" width="30px" height="30px"
	 viewBox="0 0 30 30" enable-background="new 0 0 30 30" xml:space="preserve">
  <g>
  	<g>
  		<path fill="#00ADEF" d="M24.777,13.821c-0.655-0.534-1.6-0.634-2.412-0.472c0.055-0.472,0.072-0.918,0.037-1.317
  			c-0.021-0.238-0.218-0.422-0.453-0.422H5.787c-0.235,0-0.432,0.184-0.453,0.422c-0.217,2.425,1.335,6.941,3.973,9.221H4.952
  			c-0.132,0-0.258,0.059-0.345,0.161c-0.086,0.104-0.125,0.239-0.104,0.372c0.148,1.003,2.812,3.111,4.659,3.111h9.41
  			c1.804,0,4.516-2.134,4.66-3.111c0.021-0.133-0.019-0.269-0.104-0.372c-0.087-0.103-0.213-0.161-0.345-0.161h-4.38
  			c0.606-0.542,1.175-1.229,1.683-1.997c0.05-0.01,0.101-0.024,0.147-0.053c0.842-0.508,1.721-0.834,2.496-1.122
  			c1.336-0.496,2.49-0.925,2.713-2.069C25.621,15.095,25.385,14.316,24.777,13.821z M21.914,22.183
  			c-0.73,0.721-2.244,1.785-3.341,1.785h-9.41c-1.184,0-2.673-1.063-3.371-1.785H21.914z M16.935,21.19
  			c-0.031,0.018-0.06,0.039-0.085,0.062h-5.962c-0.026-0.023-0.055-0.045-0.086-0.062c-2.76-1.561-4.573-6.104-4.579-8.65h15.291
  			C21.506,15.258,19.389,19.803,16.935,21.19z M24.552,15.831c-0.116,0.6-0.886,0.914-2.132,1.377
  			c-0.469,0.174-0.976,0.367-1.495,0.601c0.577-1.132,1.021-2.335,1.269-3.45c0.709-0.253,1.561-0.182,2.018,0.19
  			C24.549,14.824,24.664,15.255,24.552,15.831z M16.603,9.817c0.087,0.08,0.195,0.119,0.304,0.119c0.124,0,0.248-0.052,0.338-0.154
  			c0.168-0.191,0.152-0.484-0.034-0.655c-0.618-0.568-0.458-1.456-0.155-1.879c0.574-0.801,0.736-2.048-0.197-3.031
  			c-0.174-0.184-0.463-0.188-0.643-0.01c-0.18,0.179-0.186,0.474-0.01,0.657c0.603,0.636,0.439,1.385,0.117,1.834
  			C15.713,7.545,15.65,8.944,16.603,9.817z M12.782,7.795c0.067,0.67,0.399,1.255,0.957,1.689c0.082,0.065,0.179,0.096,0.274,0.096
  			c0.138,0,0.273-0.062,0.363-0.183c0.152-0.204,0.113-0.496-0.086-0.65c-0.354-0.277-0.562-0.64-0.604-1.048
  			c-0.043-0.424,0.097-0.873,0.373-1.2c0.756-0.895,0.997-2.369-0.261-3.496c-0.188-0.169-0.476-0.151-0.643,0.043
  			c-0.164,0.194-0.146,0.487,0.043,0.656c0.85,0.76,0.646,1.629,0.172,2.189C12.935,6.409,12.714,7.12,12.782,7.795z M10.941,9.817
  			c0.087,0.08,0.195,0.119,0.304,0.119c0.124,0,0.249-0.052,0.338-0.154c0.168-0.191,0.152-0.484-0.034-0.655
  			c-0.619-0.568-0.458-1.456-0.155-1.879c0.573-0.801,0.735-2.048-0.198-3.031c-0.174-0.184-0.462-0.188-0.643-0.01
  			c-0.18,0.179-0.184,0.474-0.009,0.657c0.603,0.636,0.438,1.385,0.117,1.834C10.052,7.545,9.99,8.944,10.941,9.817z"/>
  	</g>
  </g>
</svg>
