<?xml version="1.0" encoding="utf-8"?>
<svg version="1.1" xmlns="http://www.w3.org/2000/svg" xmlns:xlink="http://www.w3.org/1999/xlink" x="0px" y="0px" width="100px" height="30px"
	 viewBox="0 0 100 30" enable-background="new 0 0 100 30" xml:space="preserve">
  <path fill="#FFCB04" d="M19.48,12.046l-4.494-0.825c-0.057-0.013-0.097-0.047-0.12-0.096L12.85,6.886
  	c-0.203-0.435-0.633-0.706-1.107-0.706c-0.482,0-0.91,0.273-1.113,0.712l-1.983,4.233c-0.026,0.05-0.071,0.086-0.123,0.096
  	l-4.505,0.854c-0.452,0.086-0.818,0.416-0.951,0.859s-0.016,0.919,0.312,1.244l3.244,3.233c0.038,0.037,0.055,0.094,0.048,0.145
  	l-0.733,4.832c-0.057,0.361,0.045,0.725,0.283,0.996c0.232,0.277,0.572,0.436,0.933,0.436c0.198,0,0.394-0.047,0.576-0.145
  	l3.959-2.107l-0.247-0.475l0.405,0.475l3.983,2.092c0.506,0.264,1.144,0.137,1.512-0.299c0.229-0.275,0.332-0.641,0.27-0.998
  	l-0.76-4.809c-0.012-0.055,0.008-0.109,0.046-0.146l3.23-3.264c0.327-0.324,0.442-0.806,0.305-1.246
  	C20.294,12.457,19.934,12.129,19.48,12.046z"/>
  <path fill="#FFCB04" d="M38.605,12.046l-4.494-0.825c-0.059-0.013-0.098-0.047-0.121-0.096l-2.016-4.239
  	c-0.204-0.435-0.634-0.706-1.109-0.706c-0.48,0-0.908,0.273-1.113,0.712l-1.982,4.233c-0.025,0.05-0.07,0.086-0.123,0.096
  	l-4.505,0.854c-0.453,0.086-0.817,0.416-0.95,0.859s-0.016,0.919,0.311,1.244l3.246,3.233c0.037,0.037,0.055,0.094,0.047,0.145
  	l-0.732,4.832c-0.057,0.361,0.045,0.725,0.282,0.996c0.233,0.277,0.573,0.436,0.933,0.436c0.199,0,0.395-0.047,0.576-0.145
  	l3.959-2.107l-0.248-0.475l0.406,0.475l3.982,2.092c0.506,0.264,1.145,0.137,1.514-0.299c0.229-0.275,0.331-0.641,0.27-0.998
  	l-0.762-4.809c-0.01-0.055,0.008-0.109,0.047-0.146l3.23-3.264c0.327-0.324,0.443-0.806,0.305-1.246
  	C39.418,12.457,39.055,12.129,38.605,12.046z M38.502,13.387l-3.232,3.261c-0.275,0.283-0.408,0.684-0.348,1.076l0.765,4.811
  	c0.013,0.049,0,0.094-0.03,0.131c-0.036,0.041-0.085,0.066-0.213,0.045l-3.982-2.096c-0.354-0.184-0.795-0.182-1.145,0.004
  	l-3.963,2.111c-0.072,0.035-0.155,0.02-0.206-0.045c-0.03-0.037-0.043-0.08-0.032-0.135l0.73-4.828
  	c0.061-0.396-0.072-0.795-0.354-1.074l-3.244-3.229c-0.061-0.064-0.053-0.134-0.04-0.172c0.009-0.038,0.04-0.104,0.128-0.118
  	l4.506-0.854c0.389-0.074,0.718-0.331,0.889-0.69l1.981-4.234c0.042-0.083,0.113-0.096,0.153-0.096c0.039,0,0.111,0.013,0.151,0.096
  	l2.015,4.237c0.17,0.358,0.499,0.613,0.89,0.688l4.491,0.825c0.086,0.015,0.121,0.081,0.133,0.117
  	C38.555,13.253,38.562,13.324,38.502,13.387z"/>
  <path fill="#FFCB04" d="M57.73,12.046l-4.494-0.825c-0.057-0.013-0.098-0.047-0.121-0.096L51.1,6.886
  	c-0.205-0.435-0.633-0.706-1.108-0.706c-0.482,0-0.909,0.273-1.114,0.712l-1.982,4.233c-0.025,0.05-0.071,0.086-0.123,0.096
  	l-4.506,0.854c-0.451,0.086-0.818,0.416-0.951,0.859c-0.131,0.443-0.015,0.919,0.312,1.244l3.245,3.233
  	c0.038,0.037,0.056,0.094,0.048,0.145l-0.733,4.832c-0.056,0.361,0.046,0.725,0.281,0.996c0.235,0.277,0.575,0.436,0.935,0.436
  	c0.199,0,0.395-0.047,0.576-0.145l3.959-2.107l-0.247-0.475l0.405,0.475l3.982,2.092c0.506,0.264,1.145,0.137,1.513-0.299
  	c0.229-0.275,0.331-0.641,0.271-0.998L55.1,17.555c-0.011-0.055,0.009-0.109,0.047-0.146l3.23-3.264
  	c0.326-0.324,0.441-0.806,0.305-1.246C58.543,12.457,58.181,12.129,57.73,12.046z M57.627,13.387l-3.23,3.261
  	c-0.277,0.283-0.41,0.684-0.348,1.076l0.762,4.811c0.014,0.049,0,0.094-0.031,0.131c-0.035,0.041-0.082,0.066-0.211,0.045
  	l-3.982-2.096c-0.355-0.184-0.793-0.182-1.145,0.004l-3.963,2.111c-0.072,0.035-0.154,0.02-0.205-0.045
  	c-0.031-0.037-0.045-0.08-0.033-0.135l0.729-4.828c0.062-0.396-0.07-0.795-0.352-1.074l-3.243-3.229
  	c-0.062-0.064-0.054-0.134-0.042-0.172c0.01-0.038,0.042-0.104,0.128-0.118l4.505-0.854c0.391-0.074,0.721-0.331,0.891-0.69
  	l1.98-4.234c0.043-0.083,0.113-0.096,0.155-0.096c0.037,0,0.11,0.013,0.149,0.096l2.017,4.237c0.169,0.358,0.497,0.613,0.888,0.688
  	l4.492,0.825c0.085,0.015,0.119,0.081,0.133,0.117C57.68,13.253,57.688,13.324,57.627,13.387z"/>
  <path fill="#FFCB04" d="M76.854,12.046l-4.494-0.825c-0.058-0.013-0.099-0.047-0.122-0.096l-2.015-4.239
  	C70.02,6.452,69.59,6.18,69.115,6.18c-0.482,0-0.909,0.273-1.113,0.712l-1.982,4.233c-0.026,0.05-0.072,0.086-0.123,0.096
  	l-4.508,0.854c-0.449,0.086-0.816,0.416-0.949,0.859c-0.132,0.443-0.016,0.919,0.312,1.244l3.244,3.233
  	c0.039,0.037,0.056,0.094,0.049,0.145l-0.734,4.832c-0.056,0.361,0.046,0.725,0.281,0.996c0.235,0.277,0.575,0.436,0.936,0.436
  	c0.198,0,0.394-0.047,0.576-0.145l3.959-2.107l-0.25-0.475l0.406,0.475l3.984,2.092c0.506,0.264,1.145,0.137,1.512-0.299
  	c0.23-0.275,0.332-0.641,0.27-0.998l-0.76-4.809c-0.012-0.055,0.006-0.109,0.047-0.146l3.23-3.264
  	c0.326-0.324,0.441-0.806,0.305-1.246C77.668,12.457,77.305,12.129,76.854,12.046z M76.752,13.387l-3.234,3.261
  	c-0.274,0.283-0.407,0.684-0.348,1.076l0.766,4.811c0.014,0.049,0,0.094-0.031,0.131c-0.035,0.041-0.084,0.066-0.212,0.045
  	l-3.982-2.096c-0.354-0.184-0.794-0.182-1.144,0.004l-3.963,2.111c-0.072,0.035-0.156,0.02-0.207-0.045
  	c-0.03-0.037-0.045-0.08-0.031-0.135l0.729-4.828c0.061-0.396-0.07-0.795-0.352-1.074l-3.246-3.229
  	c-0.061-0.064-0.051-0.134-0.039-0.172c0.01-0.038,0.039-0.104,0.127-0.118l4.506-0.854c0.39-0.074,0.719-0.331,0.891-0.69
  	l1.98-4.234c0.041-0.083,0.113-0.096,0.154-0.096c0.037,0,0.109,0.013,0.15,0.096l2.016,4.237c0.168,0.358,0.498,0.613,0.889,0.688
  	l4.492,0.825c0.084,0.015,0.119,0.081,0.133,0.117C76.805,13.253,76.812,13.324,76.752,13.387z"/>
  <path fill="#FFCB04" d="M95.979,12.046l-4.496-0.825c-0.056-0.013-0.096-0.047-0.119-0.096l-2.016-4.239
  	c-0.203-0.435-0.635-0.706-1.108-0.706c-0.481,0-0.909,0.273-1.112,0.712l-1.983,4.233c-0.026,0.05-0.073,0.086-0.123,0.096
  	l-4.507,0.854c-0.451,0.086-0.816,0.416-0.949,0.859s-0.016,0.919,0.311,1.244l3.246,3.233c0.038,0.037,0.055,0.094,0.047,0.145
  	l-0.732,4.832c-0.057,0.361,0.045,0.725,0.281,0.996c0.234,0.277,0.574,0.436,0.934,0.436c0.199,0,0.395-0.047,0.576-0.145
  	l3.96-2.107l-0.249-0.475l0.406,0.475l3.982,2.092c0.507,0.264,1.146,0.137,1.513-0.299c0.229-0.275,0.333-0.641,0.271-0.998
  	l-0.761-4.809c-0.011-0.055,0.007-0.109,0.046-0.146l3.232-3.264c0.326-0.324,0.441-0.806,0.303-1.246
  	C96.792,12.457,96.429,12.129,95.979,12.046z M95.877,13.387l-3.234,3.261c-0.275,0.283-0.408,0.684-0.348,1.076l0.766,4.811
  	c0.014,0.049,0,0.094-0.032,0.131c-0.034,0.041-0.083,0.066-0.212,0.045l-3.982-2.096c-0.354-0.184-0.795-0.182-1.144,0.004
  	l-3.963,2.111c-0.073,0.035-0.155,0.02-0.206-0.045c-0.031-0.037-0.045-0.08-0.032-0.135l0.729-4.828
  	c0.061-0.396-0.071-0.795-0.353-1.074l-3.245-3.229c-0.061-0.064-0.053-0.134-0.039-0.172c0.01-0.038,0.039-0.104,0.127-0.118
  	l4.506-0.854c0.387-0.074,0.717-0.331,0.891-0.69l1.98-4.234c0.041-0.083,0.113-0.096,0.153-0.096c0.038,0,0.109,0.013,0.151,0.096
  	l2.015,4.237c0.169,0.358,0.499,0.613,0.89,0.688l4.49,0.825c0.086,0.015,0.12,0.081,0.133,0.117
  	C95.928,13.253,95.936,13.324,95.877,13.387z"/>
</svg>
