<?xml version="1.0" encoding="utf-8"?>
<svg version="1.1" xmlns="http://www.w3.org/2000/svg" xmlns:xlink="http://www.w3.org/1999/xlink" x="0px" y="0px" width="30px" height="30px" viewBox="0 0 30 30" xml:space="preserve">
  <g>
   <path fill="#fff" d="M26.838,13.142c0.786-0.21,1.35-0.899,1.35-1.737c0-0.989-0.848-1.799-1.886-1.799h-1.254l-0.629-1.798
    c-0.942-2.698-3.768-2.698-3.768-2.698h-1.883h-7.537H9.348c0,0-2.827,0-3.767,2.698L4.952,9.605H3.695
    c-1.035,0-1.883,0.81-1.883,1.799c0,0.809,0.564,1.498,1.35,1.737c-0.816,0.659-1.35,1.648-1.35,2.757v3.598
    c0,0.509,0.346,0.929,0.941,1.289v3.207c0,0.508,0.408,0.898,0.941,0.898h2.825c0.535,0,0.943-0.391,0.943-0.898v-2.099
    c2.699,0.27,5.746,0.299,7.536,0.299s4.835,0,7.536-0.299v2.099c0,0.508,0.407,0.898,0.94,0.898h2.825
    c0.536,0,0.943-0.391,0.943-0.898v-3.207c0.598-0.33,0.942-0.751,0.942-1.289v-3.598C28.188,14.79,27.654,13.801,26.838,13.142z
    M26.302,10.504c0.536,0,0.943,0.391,0.943,0.9c0,0.509-0.407,0.897-0.943,0.897H25.99l-0.628-1.798H26.302z M6.459,8.077
    c0.283-0.84,0.848-1.468,1.695-1.829c0.313-0.119,0.816-0.27,1.161-0.27H20.62c0.346,0,0.848,0.12,1.162,0.27
    c0.847,0.36,1.411,0.989,1.694,1.829l1.507,4.225h-0.564l0,0l0,0h-0.942H6.521H5.581l0,0l0,0H5.015L6.459,8.077z M2.754,11.404
    c0-0.51,0.408-0.9,0.941-0.9h0.942L4.01,12.302H3.695C3.162,12.302,2.754,11.913,2.754,11.404z M6.521,23.992H3.695v-2.817
    c0.786,0.271,1.76,0.479,2.825,0.598V23.992z M26.302,23.992h-2.825v-2.189c1.069-0.148,2.043-0.33,2.825-0.598V23.992z
    M27.245,19.496c0,0.029,0,0.059,0,0.059c-0.157,0.45-1.442,0.84-1.853,0.959c-1.414,0.36-3.044,0.542-4.52,0.629
    c-1.981,0.121-3.926,0.151-5.873,0.151s-3.895-0.03-5.842-0.151c-1.475-0.087-3.107-0.238-4.521-0.629
    c-0.409-0.119-1.727-0.509-1.852-0.959c0-0.029,0-0.059,0-0.059v-3.598c0-1.499,1.255-2.696,2.825-2.696h0.941h16.955h0.942
    c1.568,0,2.825,1.197,2.825,2.696v3.598H27.245z M24.419,15c-1.035,0-1.883,0.81-1.883,1.799c0,0.988,0.848,1.798,1.883,1.798
    c1.036,0,1.883-0.81,1.883-1.798C26.302,15.81,25.455,15,24.419,15z M24.419,17.696c-0.532,0-0.942-0.389-0.942-0.897
    c0-0.51,0.41-0.9,0.942-0.9c0.533,0,0.943,0.391,0.943,0.9C25.362,17.308,24.952,17.696,24.419,17.696z M5.581,15
    c-1.037,0-1.886,0.81-1.886,1.799c0,0.988,0.849,1.798,1.886,1.798c1.035,0,1.883-0.81,1.883-1.798C7.464,15.81,6.616,15,5.581,15z
    M5.581,17.696c-0.534,0-0.943-0.389-0.943-0.897c0-0.51,0.409-0.9,0.943-0.9c0.533,0,0.939,0.391,0.939,0.9
    C6.521,17.308,6.114,17.696,5.581,17.696z M19.239,17.696h-8.479c-0.251,0-0.472,0.213-0.472,0.451s0.221,0.449,0.472,0.449h8.479
    c0.25,0,0.469-0.211,0.469-0.449S19.489,17.696,19.239,17.696z M20.18,15.898H9.817c-0.249,0-0.47,0.212-0.47,0.45
    s0.221,0.45,0.47,0.45H20.18c0.25,0,0.472-0.212,0.472-0.45S20.43,15.898,20.18,15.898z"/>
  </g>
</svg>
