<?xml version="1.0" encoding="utf-8"?>
<svg version="1.1" xmlns="http://www.w3.org/2000/svg" xmlns:xlink="http://www.w3.org/1999/xlink" x="0px" y="0px" width="30px" height="30px" viewBox="0 0 30 30" xml:space="preserve">
  <g>
   <g>
    <path fill="#00ADEF" d="M25.655,16.191c-0.006-0.021-0.015-0.042-0.023-0.062l-3.027-5.781c0.008-0.027,0.013-0.059,0.013-0.092
     V6.992c0-0.195-0.16-0.354-0.354-0.354h-1.94C19.697,4.646,16.779,3.895,15,3.895s-4.697,0.751-5.322,2.743H7.736
     c-0.195,0-0.354,0.16-0.354,0.354v3.264c0,0.033,0.006,0.064,0.014,0.092l-3.023,5.78c-0.012,0.02-0.021,0.042-0.025,0.063
     c-1.059,0.45-1.802,1.5-1.802,2.72v2.853c0,0.196,0.16,0.356,0.354,0.356h2.612v1.95c0,0.539,0.439,0.979,0.979,0.979h0.352
     c0.539,0,0.979-0.439,0.979-0.979v-1.95h14.356v1.95c0,0.539,0.438,0.979,0.979,0.979h0.352c0.54,0,0.98-0.439,0.98-0.979v-1.95
     H27.1c0.195,0,0.355-0.16,0.355-0.356v-2.853C27.455,17.691,26.711,16.642,25.655,16.191z M24.742,15.967
     c-0.08-0.007-0.162-0.011-0.242-0.011h-1.355c-0.633-2.37-1.546-4.683-3.443-4.359c-0.24,0.04-0.486,0.112-0.749,0.189
     c-0.175,0.05-0.356,0.101-0.549,0.149c0.089-0.196,0.141-0.415,0.141-0.643v-0.659h3.407L24.742,15.967z M12.791,12.814
     c0.065,0.007,0.132,0.013,0.202,0.013h4.014c0.089,0,0.173-0.008,0.257-0.022c0.761-0.015,1.381-0.192,1.885-0.338
     c0.254-0.071,0.473-0.134,0.672-0.17c1.053-0.178,1.833,0.921,2.586,3.66H7.461c0.973-3.166,1.685-3.678,1.882-3.761
     c0.309-0.128,1.119,0.093,1.769,0.271C11.692,12.625,12.291,12.79,12.791,12.814z M12.166,11.292V9.857
     c0-0.812,0.659-1.469,1.469-1.469h2.729c0.81,0,1.47,0.658,1.47,1.469v1.435c0,0.393-0.275,0.719-0.645,0.802
     c-0.012,0-0.021,0.002-0.031,0.002c-0.039,0-0.076,0.005-0.11,0.018c-0.015,0-0.026,0.002-0.041,0.002h-4.021
     c-0.03-0.008-0.055-0.011-0.087-0.011h-0.042C12.465,12.04,12.166,11.699,12.166,11.292z M8.093,7.349h1.862
     c0.171,0,0.316-0.122,0.349-0.288C10.625,5.367,13.242,4.605,15,4.605c1.757,0,4.374,0.762,4.696,2.456
     c0.032,0.167,0.177,0.288,0.349,0.288h1.862v2.553h-3.363V9.857c0-1.203-0.979-2.182-2.18-2.182h-2.729
     c-1.201,0-2.18,0.979-2.18,2.182v0.044H8.093V7.349z M8.047,10.633h3.408v0.659c0,0.196,0.038,0.387,0.108,0.562
     c-0.088-0.023-0.176-0.048-0.265-0.072c-0.87-0.238-1.692-0.464-2.229-0.244c-0.775,0.323-1.566,1.809-2.351,4.418H5.5
     c-0.081,0-0.163,0.004-0.242,0.011L8.047,10.633z M7.111,24.07c0,0.148-0.121,0.27-0.269,0.27H6.491
     c-0.148,0-0.269-0.121-0.269-0.27v-1.858h0.889V24.07z M23.776,24.07c0,0.148-0.119,0.27-0.269,0.27h-0.352
     c-0.147,0-0.269-0.121-0.269-0.27v-1.858h0.889V24.07z M26.744,21.409H3.255v-2.498c0-1.237,1.008-2.244,2.245-2.244h19
     c1.237,0,2.244,1.007,2.244,2.244V21.409z"/>
   </g>
 </g>
</svg>
