<?xml version="1.0" encoding="utf-8"?>
<svg version="1.1" xmlns="http://www.w3.org/2000/svg" xmlns:xlink="http://www.w3.org/1999/xlink" x="0px" y="0px" width="30px" height="30px" viewBox="0 0 30 30" xml:space="preserve">
  <g>
   <path fill="#fff" d="M24.842,7.564h-6.397V6.212c0-0.349-0.145-0.676-0.406-0.924c-0.263-0.245-0.61-0.379-0.981-0.379h-4.174
    c-0.368,0-0.716,0.133-0.978,0.379c-0.02,0.016-0.036,0.035-0.052,0.053c-0.23,0.241-0.356,0.547-0.356,0.871v1.353H5.099
    c-1.056,0-1.914,0.808-1.914,1.8v13.929c0,0.992,0.858,1.799,1.914,1.799h19.743c1.058,0,1.914-0.807,1.914-1.799V9.364
    C26.756,8.373,25.899,7.564,24.842,7.564z M12.493,6.212c0-0.097,0.041-0.188,0.116-0.26c0.01-0.008,0.017-0.015,0.025-0.025
    c0.07-0.054,0.157-0.082,0.248-0.082h4.174c0.106,0,0.204,0.038,0.278,0.106c0.072,0.068,0.114,0.162,0.114,0.261v1.353h-4.956
    V6.212z M7.201,24.156H5.099c-0.506,0-0.919-0.387-0.919-0.863V9.364C4.18,8.888,4.593,8.5,5.099,8.5h2.103V24.156z M21.743,24.156
    H8.197V8.5h13.546V24.156z M25.762,23.293c0,0.467-0.421,0.863-0.92,0.863H22.74V8.5h2.102c0.507,0,0.92,0.387,0.92,0.864V23.293z"
    />
  </g>
</svg>
