<?xml version="1.0" encoding="utf-8"?>
<svg version="1.1" xmlns="http://www.w3.org/2000/svg" xmlns:xlink="http://www.w3.org/1999/xlink" x="0px" y="0px" width="30px" height="30px"
  viewBox="0 0 30 30" enable-background="new 0 0 30 30" xml:space="preserve">
  <g>
   <g>
    <path fill="#0066B2" d="M21.975,2.278H6.758C4.854,2.278,3.3,3.832,3.3,5.736v17.982c0,1.909,1.554,3.46,3.458,3.46h9.146
     c0.522,0,1.021-0.193,1.402-0.545l7.454-6.835c0.428-0.392,0.674-0.948,0.674-1.529V5.736C25.434,3.832,23.883,2.278,21.975,2.278
     z M24.051,18.187h-4.842c-1.908,0-3.459,1.552-3.459,3.458v4.151H6.758c-1.144,0-2.076-0.934-2.076-2.077V5.736
     c0-1.144,0.933-2.074,2.076-2.074h15.217c1.145,0,2.076,0.93,2.076,2.074V18.187z M18.518,7.121H7.451v1.384h11.066V7.121z
     M7.451,23.029h5.531v-1.385H7.451V23.029z M7.451,18.187h8.299v-1.385H7.451V18.187z M7.451,13.346h13.833v-1.385H7.451V13.346z"
     />
   </g>
 </g>
</svg>
