<?xml version="1.0" encoding="utf-8"?>
<svg version="1.1" xmlns="http://www.w3.org/2000/svg" xmlns:xlink="http://www.w3.org/1999/xlink" x="0px" y="0px" width="30px" height="30px"
  viewBox="0 0 30 30" enable-background="new 0 0 30 30" xml:space="preserve">
  <g>
   <g>
    <path fill="#00ADEF" d="M20.002,25.893H9.231v-3.521l1.039-0.264c0.436-0.107,0.831-0.245,1.098-0.355v-5.499
     c-0.12-0.218-0.357-0.515-0.76-0.515H9.765v-2.755h8.1v8.712c0.285,0.124,0.701,0.285,1.17,0.434l0.968,0.302V25.893z
     M10.919,24.205h7.396v-0.537c-0.645-0.214-1.412-0.519-1.765-0.758l-0.373-0.252V14.67h-3.948c0.35,0.307,0.603,0.69,0.761,1.064
     l0.066,0.327v6.602l-0.312,0.254c-0.387,0.312-1.26,0.607-1.824,0.765V24.205z M14.083,11.378c-2.087,0-3.784-1.696-3.784-3.781
     c0-2.086,1.697-3.784,3.784-3.784c2.084,0,3.781,1.698,3.781,3.784C17.864,9.682,16.167,11.378,14.083,11.378z M14.083,5.501
     c-1.156,0-2.097,0.939-2.097,2.096c0,1.154,0.94,2.093,2.097,2.093c1.154,0,2.094-0.939,2.094-2.093
     C16.177,6.44,15.237,5.501,14.083,5.501z"/>
   </g>
 </g>
 <circle fill="none" stroke="#00ADEF" stroke-miterlimit="10" cx="14.674" cy="15.177" r="13.656"/>
</svg>
