<?xml version="1.0" encoding="utf-8"?>
<svg version="1.1" xmlns="http://www.w3.org/2000/svg" xmlns:xlink="http://www.w3.org/1999/xlink" x="0px" y="0px" width="30px" height="30px" viewBox="0 0 30 30" xml:space="preserve">
  <g>
   <g>
    <path fill="#fff" d="M22.528,20.178l5.999-4.96l-0.418-0.496l-1.105,0.914c-0.037-0.15-0.1-0.295-0.205-0.424
     c-0.209-0.258-0.521-0.406-0.857-0.406c-0.25,0-0.496,0.086-0.691,0.242l-1.479,1.177c-0.033,0.027-0.062,0.057-0.096,0.092
     l-5.029,4.096l-1.9,0.006v-7.007c0.725-0.098,1.34-0.521,1.693-1.122c0.404,0.679,1.145,1.14,1.996,1.14h0.008
     c0.623-0.002,1.205-0.242,1.645-0.678c0.143-0.142,0.256-0.304,0.354-0.472c0.405,0.678,1.145,1.139,1.995,1.139h0.008
     c1.244-0.004,2.252-0.979,2.309-2.196c0.031-0.082,0.037-0.172-0.002-0.253c-0.81-1.657-2.699-3.324-5.602-4.958
     c-0.045-0.025-0.09-0.052-0.135-0.077c-0.05-0.028-0.095-0.057-0.146-0.084c-1.859-1.022-3.559-1.71-4.121-1.93V2.894h-0.652
     v1.027c-0.562,0.222-2.256,0.922-4.111,1.956C8.928,7.58,6.96,9.315,6.135,11.033c-0.018,0.039-0.021,0.08-0.023,0.121
     c0,0.007-0.008,0.012-0.008,0.019c0,0.005,0.002,0.009,0.002,0.014c0,0.003,0.001,0.007,0.001,0.011
     c0.019,1.253,1.054,2.27,2.323,2.27h0.008c0.856-0.003,1.596-0.47,1.998-1.153c0.406,0.679,1.146,1.142,1.998,1.142
     c0.001,0,0.007,0,0.007,0c0.855-0.004,1.595-0.471,1.997-1.153c0.351,0.586,0.95,1.003,1.658,1.106v7.011L3.611,20.459
     c-0.605,0.004-1.099,0.494-1.097,1.094c0.001,0.15,0.032,0.295,0.089,0.424H1.521v0.645h2.007c0.03,0.004,0.057,0.018,0.088,0.018
     H3.62h0.195v1.93c0,0.176,0.146,0.322,0.326,0.322h22.706c0.133,0,0.254-0.082,0.303-0.205c0.049-0.125,0.016-0.266-0.082-0.355
     L22.528,20.178z M11.504,9.889c0.016-0.025,0.033-0.048,0.049-0.073c0.163-0.253,0.333-0.5,0.507-0.741
     c0.062-0.085,0.124-0.168,0.187-0.251c0.141-0.189,0.283-0.374,0.429-0.553c0.058-0.071,0.114-0.144,0.171-0.213
     c0.191-0.232,0.385-0.457,0.577-0.671c0.058-0.064,0.114-0.123,0.171-0.185c0.144-0.157,0.287-0.311,0.428-0.457
     c0.07-0.073,0.141-0.145,0.209-0.215c0.142-0.143,0.28-0.28,0.415-0.41c0.046-0.045,0.095-0.094,0.141-0.137
     c0.172-0.164,0.336-0.315,0.491-0.457c0.057-0.051,0.109-0.097,0.163-0.145c0.11-0.098,0.216-0.192,0.313-0.276
     c0.024-0.021,0.048-0.041,0.07-0.061l-1.652,5.782l-3.214,0.01c0.019-0.036,0.036-0.072,0.056-0.107
     C11.169,10.442,11.33,10.161,11.504,9.889z M19.102,5.675c0.088,0.043,0.18,0.09,0.271,0.135c0.221,0.11,0.447,0.227,0.678,0.349
     c0.101,0.053,0.201,0.106,0.303,0.161c0.27,0.146,0.541,0.298,0.815,0.458c0.06,0.035,0.118,0.066,0.177,0.101
     c0.33,0.195,0.66,0.4,0.985,0.613c0.079,0.052,0.155,0.106,0.232,0.159c0.245,0.165,0.486,0.335,0.722,0.51
     c0.1,0.074,0.197,0.148,0.295,0.224c0.222,0.172,0.434,0.349,0.641,0.528c0.08,0.07,0.163,0.139,0.24,0.209
     c0.271,0.249,0.527,0.503,0.758,0.765c0.031,0.035,0.055,0.072,0.084,0.107c0.192,0.226,0.365,0.457,0.518,0.69
     c0.023,0.034,0.041,0.069,0.062,0.104l-1.508,0.004l-1.717,0.005c-0.038-0.077-0.084-0.149-0.124-0.225
     c-0.089-0.167-0.179-0.334-0.274-0.498c-0.059-0.099-0.118-0.197-0.178-0.295c-0.106-0.172-0.214-0.34-0.325-0.506
     c-0.054-0.08-0.106-0.16-0.161-0.238c-0.137-0.199-0.277-0.394-0.421-0.584c-0.03-0.04-0.06-0.082-0.09-0.121
     c-0.946-1.239-1.976-2.284-2.812-3.05c0.014,0.006,0.028,0.013,0.041,0.02C18.562,5.414,18.828,5.541,19.102,5.675z
     M14.852,10.822l1.573-5.506l1.602,5.497l-0.481,0.001L14.852,10.822z M18.705,10.811l-0.473-1.62l-1.207-4.145
     c0.066,0.056,0.132,0.11,0.205,0.174c0.008,0.006,0.015,0.012,0.021,0.019c0.341,0.294,0.746,0.661,1.18,1.087
     c0.033,0.031,0.064,0.061,0.096,0.093c0.129,0.126,0.26,0.259,0.391,0.396c0.058,0.059,0.115,0.121,0.173,0.182
     c0.181,0.191,0.364,0.392,0.548,0.6c0.112,0.128,0.225,0.254,0.338,0.388c0.09,0.107,0.18,0.221,0.269,0.332
     c0.114,0.141,0.226,0.284,0.338,0.431c0.079,0.104,0.159,0.209,0.236,0.316c0.165,0.226,0.325,0.457,0.48,0.694
     c0.021,0.033,0.045,0.064,0.066,0.098c0.177,0.276,0.343,0.561,0.502,0.85c0.018,0.032,0.034,0.064,0.051,0.096l-2.347,0.008
     L18.705,10.811z M21.625,12.295c-0.316,0.314-0.736,0.487-1.184,0.489l-0.006,0.322v-0.322c-0.809,0-1.486-0.572-1.641-1.328
     l3.287-0.011C22.02,11.765,21.861,12.06,21.625,12.295z M24.443,12.772l-0.006,0.322l0.002-0.322
     c-0.811,0-1.488-0.573-1.643-1.329l2.982-0.01l0.303-0.001C25.934,12.193,25.256,12.77,24.443,12.772z M14.56,5.293
     c-0.027,0.025-0.058,0.056-0.086,0.082c-0.108,0.101-0.218,0.207-0.332,0.317c-0.06,0.058-0.119,0.116-0.181,0.177
     c-0.115,0.114-0.231,0.232-0.35,0.354c-0.061,0.062-0.119,0.121-0.18,0.185c-0.142,0.149-0.285,0.305-0.43,0.465
     c-0.037,0.042-0.074,0.081-0.112,0.124c-0.185,0.208-0.37,0.423-0.555,0.647c-0.025,0.031-0.05,0.063-0.075,0.095
     c-0.155,0.19-0.31,0.386-0.461,0.587c-0.053,0.068-0.102,0.138-0.152,0.208c-0.126,0.171-0.249,0.343-0.37,0.521
     c-0.056,0.082-0.11,0.165-0.165,0.248c-0.113,0.173-0.224,0.348-0.332,0.526c-0.053,0.087-0.104,0.174-0.155,0.263
     c-0.108,0.187-0.21,0.377-0.31,0.57c-0.031,0.06-0.066,0.117-0.097,0.176l-3.239,0.011C8.463,8.427,12.223,6.385,14.56,5.293z
     M8.437,12.823L8.43,13.145v-0.322c-0.809,0-1.486-0.573-1.641-1.33l1.817-0.006l1.468-0.005
     C9.925,12.243,9.248,12.819,8.437,12.823z M12.438,12.811l-0.005,0.322v-0.322c-0.809,0-1.488-0.574-1.643-1.33l3.002-0.011
     l0.285-0.001C13.928,12.23,13.25,12.807,12.438,12.811z M14.793,11.468l3.285-0.01c-0.148,0.76-0.826,1.336-1.639,1.339
     l-0.004,0.323v-0.323C15.625,12.797,14.947,12.225,14.793,11.468z M3.166,21.551c0-0.244,0.201-0.445,0.448-0.445l15.151-0.049
     c0.076,0,0.148-0.025,0.207-0.072l5.135-4.184c0.012-0.01,0.029-0.027,0.039-0.037c0.012-0.014,0.025-0.027,0.037-0.037
     l1.475-1.177c0.082-0.064,0.18-0.1,0.283-0.1c0.137,0,0.264,0.062,0.35,0.166c0.156,0.191,0.127,0.472-0.066,0.626l-0.707,0.562
     c-0.006,0.004-0.012,0.008-0.016,0.014l-6.297,5.127L9.119,21.977H3.528C3.324,21.936,3.168,21.766,3.166,21.551z M4.468,24.244
     v-1.607l4.806-0.016h10.18c0.076,0,0.15-0.025,0.209-0.074l2.362-1.953l3.989,3.65H4.468z"/>
   </g>
 </g>
</svg>
