<?xml version="1.0" encoding="utf-8"?>
<svg version="1.1" xmlns="http://www.w3.org/2000/svg" xmlns:xlink="http://www.w3.org/1999/xlink" x="0px" y="0px" width="30px" height="30px" viewBox="0 0 30 30" xml:space="preserve">
  <path fill-rule="evenodd" clip-rule="evenodd" fill="#00C3FF" d="M17.727,16.393l-5.322,5.584c-0.358,0.377-0.88,0.471-1.325,0.295
   l2.885-5.879c0.489-0.515,0.489-1.348,0-1.862l-2.885-5.88c0.445-0.176,0.967-0.081,1.325,0.295l5.322,5.585
   C18.216,15.044,18.216,15.877,17.727,16.393z"/>
   <g>
     <path fill="#00C3FF" d="M14.585,3.057c6.677,0,12.108,5.432,12.108,12.107c0,6.675-5.432,12.107-12.108,12.107
      c-6.675,0-12.105-5.432-12.105-12.107C2.479,8.489,7.91,3.057,14.585,3.057z M14.585,26.271c6.125,0,11.108-4.982,11.108-11.107
      c0-6.125-4.983-11.107-11.108-11.107c-6.123,0-11.105,4.982-11.105,11.107C3.479,21.289,8.462,26.271,14.585,26.271z"/>
    </g>
</svg>
