<?xml version="1.0" encoding="utf-8"?>
<svg version="1.1" xmlns="http://www.w3.org/2000/svg" xmlns:xlink="http://www.w3.org/1999/xlink" x="0px" y="0px" width="30px" height="30px" viewBox="0 0 30 30" xml:space="preserve">
  <path fill-rule="evenodd" clip-rule="evenodd" fill="#00C3FF" d="M12.446,13.937l5.322-5.585c0.358-0.376,0.88-0.471,1.325-0.295
   l-2.885,5.88c-0.489,0.515-0.489,1.348,0,1.861l2.885,5.88c-0.445,0.176-0.967,0.081-1.325-0.295l-5.322-5.585
   C11.957,15.284,11.957,14.451,12.446,13.937z"/>
   <g>
     <path fill="#00C3FF" d="M15.587,27.271c-6.676,0-12.108-5.432-12.108-12.107S8.911,3.057,15.587,3.057
      c6.675,0,12.106,5.431,12.106,12.107S22.263,27.271,15.587,27.271z M15.587,4.057c-6.125,0-11.108,4.982-11.108,11.107
      c0,6.125,4.983,11.107,11.108,11.107c6.124,0,11.106-4.982,11.106-11.107C26.693,9.04,21.711,4.057,15.587,4.057z"/>
    </g>
</svg>
