<?xml version="1.0" encoding="utf-8"?>
<!-- Generator: Adobe Illustrator 16.0.4, SVG Export Plug-In . SVG Version: 6.00 Build 0)  -->
<!DOCTYPE svg PUBLIC "-//W3C//DTD SVG 1.0//EN" "http://www.w3.org/TR/2001/REC-SVG-20010904/DTD/svg10.dtd">
<svg version="1.0" id="Layer_1" xmlns="http://www.w3.org/2000/svg" xmlns:xlink="http://www.w3.org/1999/xlink" x="0px" y="0px"
	 width="60px" height="30px" viewBox="0 0 60 30" enable-background="new 0 0 60 30" xml:space="preserve">
<g id="g10_3_" transform="matrix(1.25,0,0,-1.25,0,160.2625)">
	<g id="g12_3_" transform="scale(0.1,0.1)">
		<path id="path14_3_" fill="#09A95A" d="M239.797,1042.155c-79.305,0-158.609,0-237.906-0.055c-1.547,0-1.891,0.391-1.891,2.07
			c0.047,78.617,0.047,157.242,0,235.859c0,1.695,0.344,2.07,1.891,2.07c158.734-0.039,317.484-0.039,476.226,0
			c1.539,0,1.883-0.375,1.883-2.07c-0.047-78.617-0.047-157.242,0-235.859c0-1.68-0.344-2.07-1.883-2.07
			C398.672,1042.155,319.234,1042.155,239.797,1042.155"/>
		<path id="path16_3_" fill="#09A95A" d="M105.906,1207.584c0.008-0.227,0.016-0.453,0.016-0.672
			c-2.797-0.641-5.547-1.484-8.227-2.523c-4.555-1.758-8.906-3.875-12.32-7.523c-3.047-3.273-3.953-7.086-2.922-11.391
			c1.297-5.359,5.031-9,8.938-12.469c4.344-3.875,9.141-7.188,13.656-10.844c8.094-6.562,15.594-13.594,17.875-24.469
			c4.141,5.312,6.875,16.391,0.797,24.578c-2.797,3.773-6.242,6.859-9.797,9.875c-4.016,3.406-8.344,6.469-11.688,10.594
			c-4.562,5.633-4.031,11.062,1.477,15.789c3.266,2.805,7.055,4.68,10.992,6.281c8.078,3.266,16.516,5.195,25.062,6.844
			c-3.531,0.125-7.055,0.195-10.57,0.117c-12.711-0.273-25.461,0.109-38.055-2.062c-8.078-1.398-15.906-3.531-22.664-8.453
			c-9.289-6.766-11.805-17.969-6.32-28.047c3.062-5.609,7.398-10.172,12.164-14.312c6.086-5.297,12.398-10.328,18.469-15.656
			c6.086-5.328,11.805-11.031,15.414-18.469c0.883-1.828,1.609-3.719,2.609-6.062c0.352,0.578,0.523,0.953,0.781,1.266
			c5.797,6.922,6.305,14.828,1.438,22.797c-2.688,4.422-6.234,8.125-9.891,11.734c-4.914,4.859-10.336,9.172-15.391,13.875
			c-3.359,3.125-6.672,6.312-9,10.328c-3.633,6.297-2.688,13.344,2.375,18.469c2.094,2.125,4.547,3.719,7.188,5.039
			C93.875,1204.99,99.844,1206.459,105.906,1207.584"/>
		<path id="path18_3_" fill="#09A95A" d="M198.164,1152.6c0,0.016,0,0.031,0,0.047c1.914,0,3.836-0.141,5.734,0.016
			c6.195,0.531,11.547,2.844,14.43,8.664c3.656,7.383,5.32,15.359,5.062,23.586c-0.195,5.992-4.094,10.5-10,11.688
			c-6.422,1.281-12.938,1.156-19.297-0.578c-4.359-1.195-7.656-3.992-9.578-8.078c-3.25-6.891-4.789-14.289-4.906-21.828
			c-0.125-7.766,5.094-12.922,12.812-13.5C194.328,1152.475,196.25,1152.6,198.164,1152.6"/>
		<path id="path20_3_" fill="#09A95A" d="M282.141,1152.365c2.734,0,5.469-0.031,8.211,0.016c3.43,0.047,4.984,1.359,5.703,4.672
			c0.922,4.281,1.867,8.547,2.766,12.828c0.969,4.609,2.047,9.203,2.789,13.852c1.141,7.086-2.117,11.758-9.156,13.055
			c-6.086,1.109-12.281,0.453-18.43,0.5c-1.25,0.016-1.93-0.891-2.18-2.094c-0.336-1.594-0.562-3.234-1.016-4.805
			c-0.531-1.82,0.188-2.344,1.898-2.32c4.102,0.047,8.211,0.016,12.312,0.008c1.094,0,2.195-0.008,3.195-0.57
			c1.555-0.875,2.109-2.688,1.625-4.883c-0.406-1.836-1.836-1.086-2.828-1.102c-3.633-0.039-7.242-0.094-10.805-0.938
			c-8.578-2.039-13.984-7.766-14.781-15.719c-0.594-5.961,2.062-9.828,7.859-11.438
			C273.516,1152.256,277.836,1152.365,282.141,1152.365"/>
		<path id="path22_3_" fill="#09A95A" d="M400.687,1152.381c2.805,0,5.609-0.062,8.414,0.016c2.945,0.062,4.625,1.312,5.203,3.984
			c1.914,8.734,3.906,17.469,5.586,26.25c1.523,7.953-1.68,12.875-9.125,14.188c-6.031,1.062-12.148,0.422-18.234,0.484
			c-1.125,0-1.898-0.68-2.156-1.844c-0.344-1.531-0.695-3.062-1.031-4.594c-0.531-2.469-0.289-2.781,2.18-2.781
			c4.234-0.016,8.477,0.047,12.719-0.031c3.102-0.062,4.547-1.844,4.18-4.766c-0.164-1.273-0.617-1.875-2.062-1.836
			c-3.211,0.086-6.414,0.07-9.617-0.445c-9.312-1.484-15.305-6.891-16.781-15.25c-1.086-6.188,1.664-10.609,7.695-12.312
			C391.93,1152.24,396.312,1152.365,400.687,1152.381"/>
		<path id="path24_3_" fill="#09A95A" d="M356.016,1161.553c0.781,0.891,1.203,1.391,1.648,1.875
			c6.812,7.297,13.523,14.688,20.484,21.836c2.766,2.836,4.438,5.883,4.805,9.82c0.148,1.688,0.016,2.25-1.852,2.227
			c-9.156-0.094-18.312-0.039-27.476-0.047c-2.961,0-3.25-0.25-3.922-3.242c-0.273-1.203-0.539-2.406-0.789-3.609
			c-0.438-2.109-0.219-2.398,1.938-2.406c4.922-0.016,9.844,0.008,14.766-0.016c0.492,0,1.102,0.281,1.555-0.469
			c-6.414-6.859-12.727-13.875-19.344-20.578c-3.656-3.688-6.148-7.703-6.797-12.922c-0.203-1.641,0.156-1.75,1.531-1.75
			c8.133,0.047,16.273-0.016,24.406,0.031c7.297,0.047,6.047-1.016,7.742,6.109c0.688,2.844,0.414,3.141-2.617,3.141
			C366.906,1161.561,361.719,1161.553,356.016,1161.553"/>
		<path id="path26_3_" fill="#09A95A" d="M165.469,1152.303c4.328,0,7.883-0.047,11.438,0.016c1.781,0.031,2.133,0.688,1.203,2.125
			c-1.328,2.078-2.625,4.172-3.477,6.484c-0.352,0.961-0.961,1-1.742,0.992c-3.078-0.008-6.156-0.047-9.234,0.008
			c-4.742,0.086-6.297,2.078-5.328,6.672c2.898,13.695,5.766,27.398,8.688,41.094c0.336,1.578-0.047,2.344-1.773,2.297
			c-2.258-0.062-4.523-0.102-6.773,0.016c-1.992,0.094-2.93-0.641-3.344-2.672c-1.648-8.094-3.531-16.141-5.172-24.234
			c-1.469-7.297-3.547-14.484-4.344-21.891c-0.633-5.875,2.5-9.703,8.336-10.609
			C158.031,1151.975,162.141,1152.475,165.469,1152.303"/>
		<path id="path28_3_" fill="#09A95A" d="M254.508,1197.272c-2.805,0.008-5.609,0.047-8.406-0.242
			c-7.477-0.773-12.836-4.367-15.461-11.57c-2.102-5.75-3.344-11.719-3.812-17.789c-0.656-8.648,4.688-14.539,13.375-15.102
			c2.727-0.172,5.469-0.156,8.203-0.094c8.164,0.172,6.164-1.531,8.211,6.906c0.414,1.68-0.031,2.422-1.883,2.359
			c-2.938-0.094-5.883-0.031-8.82-0.016c-4.555,0-7.344,2.453-7.164,7.039c0.195,4.977,1.109,9.93,3.188,14.523
			c1.438,3.203,3.953,4.891,7.648,4.75c3.695-0.133,7.391,0.023,11.086-0.047c1.523-0.031,2.258,0.594,2.531,2.039
			c0.336,1.742,0.75,3.477,1.148,5.203c0.328,1.398-0.133,2.07-1.633,2.055C259.977,1197.24,257.242,1197.272,254.508,1197.272"/>
		<path id="path30_3_" fill="#09A95A" d="M321.172,1211.975c-0.961,0-1.914,0-2.875,0c-3.117,0-3.164-0.062-3.852-3.227
			c-2.406-11.07-4.82-22.148-7.227-33.219c-1.383-6.336-2.758-12.68-4.117-19.008c-0.664-3.109,0.141-4.188,3.141-4.219
			c2.117-0.016,4.242,0.094,6.352-0.031c1.367-0.094,1.711,0.484,1.961,1.688c3.672,17.5,7.398,34.992,11.094,52.492
			C326.82,1211.975,326.812,1211.975,321.172,1211.975"/>
		<path id="path32_3_" fill="#09A95A" d="M337.195,1197.256c-1.297,0-2.594,0-3.898,0c-1.352,0.008-2.117-0.625-2.406-1.992
			c-2.922-13.898-5.859-27.805-8.836-41.695c-0.227-1.047,0.039-1.312,1.055-1.281c2.391,0.047,4.789-0.016,7.18,0.031
			c2.305,0.031,3.359,0.891,3.852,3.172c2.852,13.227,5.672,26.453,8.531,39.664c0.312,1.445-0.117,2.102-1.578,2.102
			C339.797,1197.264,338.5,1197.264,337.195,1197.256"/>
		<path id="path34_3_" fill="#09A95A" d="M337.734,1199.975c1.297,0,2.594,0,3.891,0c1.148,0,2.039,0.453,2.305,1.609
			c0.656,2.859,1.242,5.719,1.844,8.586c0.258,1.211-0.219,1.82-1.484,1.805c-2.656-0.008-5.32,0-7.977,0
			c-1.281,0-2.016-0.625-2.273-1.883c-0.297-1.469-0.695-2.914-0.969-4.383C331.898,1199.561,330.711,1199.959,337.734,1199.975"/>
		<path id="path36_3_" fill="#09A95A" d="M186.906,1120.881c-0.641-4.969-3.156-6.938-7.719-6.281
			c-0.266,0.047-0.523,0.141-0.789,0.203c-1.055,0.219-1.023-0.656-1.242-1.25c-0.281-0.781,0.312-0.922,0.852-1.078
			c4.844-1.516,9.844,1.141,11.086,6.047c1.078,4.297,1.914,8.656,2.914,12.984c0.195,0.859,0.031,1.203-0.836,1.438
			c-6.719,1.812-13.539-4.312-12.461-11.203c0.414-2.641,2.383-3.766,4.961-2.938
			C184.875,1119.194,185.703,1120.147,186.906,1120.881"/>
		<path id="path38_3_" fill="#09A95A" d="M151.992,1120.444c-0.508,5.297-0.992,10.609-1.57,15.906
			c-0.094,0.766,0.562,2.094-1.031,2.234c-1.422,0.125-2.5,0-3.266-1.641c-2.57-5.5-5.375-10.875-8.031-16.344
			c-0.234-0.484-1.219-1.188-0.258-1.672c0.633-0.312,1.648-0.375,2.312,0.266c0.32,0.297,0.539,0.797,0.664,1.25
			c0.656,2.453,2.117,3.344,4.734,3.109c3.219-0.281,3.32-0.062,3.516-3.281c0.094-1.422,0.805-1.438,1.859-1.469
			C152.312,1118.756,152.031,1119.631,151.992,1120.444"/>
		<path id="path40_3_" fill="#09A95A" d="M245.445,1121.178c0.367-0.984-0.461-2.328,1.352-2.391
			c1.773-0.062,1.242,1.219,1.445,2.078s0.305,1.75,0.492,2.609c0.953,4.531,1.953,9.062,2.867,13.594
			c0.148,0.766,0.578,1.859-0.945,1.953c-1.195,0.078-1.766-0.297-1.773-1.578c0-0.875-0.32-1.734-0.375-2.609
			c-0.078-1.281-0.633-1.625-1.93-1.688c-5.805-0.328-9.891-5.297-9.359-11.203c0.242-2.672,2.156-3.953,4.742-3.203
			C243.312,1119.131,244.297,1120.069,245.445,1121.178"/>
		<path id="path42_3_" fill="#09A95A" d="M295.758,1121.412c0-0.906-0.008-1.312,0-1.719c0.016-0.906,0.703-0.844,1.312-0.859
			c0.641-0.016,1.164,0.016,1.25,0.922c0.352,3.891,1.445,7.625,2.258,11.438c0.266,1.234-0.078,1.656-1.336,1.844
			c-6.891,1.047-12.438-4.094-11.852-11.078c0.219-2.656,2.164-3.984,4.742-3.219C293.477,1119.131,294.5,1120.022,295.758,1121.412
			"/>
		<path id="path44_3_" fill="#09A95A" d="M285.055,1138.787c-3.07,0.031-4.633-0.391-6.523-1.625
			c-4.008-2.641-6.516-9.109-5.32-13.75c0.633-2.469,2.164-4.047,4.68-4.625c2.055-0.469,4.07-0.188,6.078,0.266
			c1.133,0.266,1.156,0.984,0.844,1.859c-0.359,1.031-1.07,0.5-1.688,0.359c-3.82-0.859-6.258,0.203-6.992,3.031
			c-1.758,6.844,3.398,12.812,10.336,11.797c1.281-0.188,1.359,0.531,1.641,1.234c0.445,1.125-0.578,1.062-1.133,1.203
			C286.195,1138.725,285.359,1138.756,285.055,1138.787"/>
		<path id="path46_3_" fill="#09A95A" d="M171.828,1121.006c0.047-0.484,0.141-0.812,0.109-1.125
			c-0.086-0.969,0.477-1.156,1.266-1.156c0.766,0.016,1.242,0.156,1.305,1.125c0.258,3.844,1.547,7.484,2.148,11.25
			c0.102,0.609,1.148,1.625-0.453,1.859c-1.141,0.172-1.953-0.062-2.125-1.469c-0.172-1.422-0.516-2.828-0.891-4.203
			c-0.539-2.062-1.25-4.062-2.906-5.547c-0.875-0.781-1.93-1.172-3.016-0.562c-1,0.578-0.859,1.625-0.656,2.578
			c0.531,2.547,1.109,5.078,1.609,7.625c0.102,0.547,0.734,1.453-0.484,1.562c-0.812,0.062-1.812,0.375-2.078-0.969
			c-0.609-3.141-1.453-6.266-1.875-9.438c-0.438-3.25,1.805-4.797,4.906-3.656C169.859,1119.319,170.688,1120.24,171.828,1121.006"
			/>
		<path id="path48_3_" fill="#09A95A" d="M202.461,1121.303c0-0.75,0.023-1.141-0.008-1.5c-0.07-1.031,0.633-1.062,1.344-1.062
			c0.656-0.016,1.133,0.094,1.219,0.969c0.391,3.891,1.516,7.625,2.258,11.438c0.102,0.547,0.914,1.547-0.359,1.781
			c-0.969,0.188-2.055,0.312-2.211-1.266c-0.117-1.219-0.469-2.406-0.75-3.594c-0.531-2.203-1.188-4.359-2.812-6.047
			c-0.859-0.906-1.906-1.438-3.125-0.922c-1.352,0.562-1,1.844-0.82,2.859c0.461,2.547,1.086,5.062,1.594,7.609
			c0.094,0.469,0.742,1.312-0.398,1.359c-0.766,0.016-1.852,0.547-2.141-0.859c-0.656-3.203-1.492-6.375-1.969-9.609
			c-0.438-3,1.734-4.609,4.641-3.688C200.25,1119.178,201.281,1120.037,202.461,1121.303"/>
		<path id="path50_3_" fill="#09A95A" d="M322.695,1123.756c-0.055-3.562,1.766-5.344,5.297-5.188
			c4.602,0.188,8.477,5.453,7.742,10.531c-0.414,2.828-2.18,4.219-5.156,4.094C326.25,1132.99,322.773,1128.834,322.695,1123.756"/>
		<path id="path52_3_" fill="#09A95A" d="M215.094,1118.459c1,0.156,2.016,0.328,3.016,0.484c1.016,0.156,1.961,0.375,1.578,1.75
			c-0.406,1.484-1.344,0.391-1.953,0.297c-1.297-0.188-2.555-0.484-3.828,0.047c-1.234,0.531-1.766,1.562-1.656,2.797
			c0.094,1.156,1.234,0.75,1.953,0.906c1.727,0.391,3.477,0.719,5.016,1.672c1.922,1.172,2.812,3.156,2.07,4.828
			c-0.836,1.906-2.57,2.062-4.336,1.875c-3.75-0.391-6.812-3.75-7.461-8.125C208.891,1120.944,210.969,1118.553,215.094,1118.459"/>
		<path id="path54_3_" fill="#09A95A" d="M258.383,1118.569c0.93-0.109,2.055,0.25,3.195,0.469c0.797,0.156,1.383,0.453,1.164,1.5
			c-0.266,1.25-0.984,0.75-1.695,0.578c-1.328-0.328-2.656-0.641-4.023-0.141c-1.289,0.469-1.82,1.516-1.844,2.703
			c-0.023,1.406,1.273,0.875,2.023,1.062c1.859,0.438,3.75,0.781,5.359,1.906c1.539,1.094,2.344,2.594,1.758,4.438
			c-0.609,1.891-2.305,2.172-4.023,2.078c-4.055-0.219-7.555-4.109-7.836-8.641C252.219,1120.506,254.086,1118.537,258.383,1118.569
			"/>
		<path id="path56_3_" fill="#09A95A" d="M340.18,1118.475c1.547,0.047,3.008,0.328,4.32,1.141c1.523,0.938,2.211,2.359,2.211,4.141
			c0,1.719-1.172,2.5-2.523,3.125c-0.5,0.219-0.984,0.469-1.477,0.703c-0.828,0.406-1.258,1.047-1.07,1.984
			c0.172,0.859,0.828,1.203,1.617,1.344c1.164,0.203,2.305,0.141,3.422-0.266c1.039-0.375,1.086,0.531,1.352,1.078
			c0.398,0.797-0.297,0.938-0.789,1.078c-2.242,0.578-4.461,0.656-6.523-0.641c-1.32-0.828-1.961-2.078-1.914-3.625
			c0.055-1.547,0.992-2.469,2.375-3.016c0.508-0.203,1-0.453,1.492-0.672c0.805-0.375,1.367-0.953,1.273-1.906
			c-0.102-0.953-0.656-1.578-1.594-1.922c-1.422-0.516-2.836-0.312-4.227,0.062c-0.844,0.234-1.25,0.016-1.484-0.828
			c-0.242-0.875,0.047-1.266,0.922-1.375S339.305,1118.615,340.18,1118.475"/>
		<path id="path58_3_" fill="#09A95A" d="M158.867,1118.662c0.227,0.031,0.695,0.094,1.164,0.188
			c0.781,0.156,0.617,0.781,0.594,1.297c-0.031,0.406-0.039,0.844-0.664,0.781c-2.211-0.25-1.875,1.062-1.57,2.469
			c1.031,4.656,2.031,9.312,3,13.984c0.141,0.688,0.344,1.594-0.891,1.625c-0.953,0.031-1.75,0.047-1.781-1.297
			c-0.039-1.078-0.305-2.156-0.531-3.219c-0.875-4.062-1.867-8.109-2.641-12.188C155.07,1119.772,156.141,1118.647,158.867,1118.662
			"/>
		<path id="path60_3_" fill="#09A95A" d="M223.312,1122.256c-0.117-2.938,1.641-4.172,4.234-3.5c0.758,0.203,1,0.562,0.93,1.297
			c-0.062,0.641-0.305,0.922-1.039,0.844c-1.344-0.109-1.625,0.688-1.359,1.844c0.148,0.656,0.312,1.312,0.438,1.984
			c0.859,4.266,2.133,8.453,2.703,12.781c0.109,0.812,0.094,1.516-1.047,1.5c-0.859,0-1.5,0.016-1.625-1.219
			c-0.203-1.953-0.672-3.875-1.094-5.812C224.734,1128.584,223.961,1125.209,223.312,1122.256"/>
		<path id="path62_3_" fill="#09A95A" d="M307.57,1130.865c-0.031,0.656-0.031,1.047-0.062,1.422c-0.109,1-0.898,0.609-1.43,0.672
			c-0.547,0.062-1.039,0.078-1.109-0.766c-0.352-4.031-1.492-7.906-2.328-11.844c-0.117-0.547-0.68-1.469,0.586-1.5
			c0.82-0.016,1.773-0.344,1.992,1.047c0.297,1.891,0.727,3.766,1.234,5.609c0.719,2.578,1.641,4.984,5.023,5.016
			c1.156,0,1.07,1.156,1.016,1.891c-0.078,0.953-0.953,0.531-1.469,0.469C309.695,1132.74,308.703,1131.865,307.57,1130.865"/>
		<path id="path64_3_" fill="#09A95A" d="M317.508,1130.834c-0.172,1.078,0.375,2.375-1.281,2.156
			c-0.672-0.094-1.273,0.094-1.336-0.984c-0.219-3.828-1.445-7.469-2.141-11.219c-0.117-0.641-1.047-1.625,0.391-1.938
			c1.266-0.281,2,0.156,2.219,1.594c0.281,1.875,0.727,3.75,1.234,5.578c0.672,2.406,1.758,4.469,4.766,4.484
			c1.25,0,1.133,1.125,1.117,1.812c-0.031,1.109-1.016,0.625-1.578,0.547C319.633,1132.709,318.688,1131.881,317.508,1130.834"/>
		<path id="path66_3_" fill="#B4DD31" d="M105.906,1207.584c-6.062-1.125-12.031-2.594-17.586-5.375
			c-2.648-1.312-5.102-2.906-7.195-5.023c-5.062-5.133-6.008-12.18-2.375-18.477c2.328-4.016,5.641-7.203,9-10.328
			c5.055-4.703,10.469-9.008,15.391-13.875c3.656-3.609,7.203-7.312,9.891-11.734c4.867-7.969,4.359-15.875-1.438-22.797
			c-0.258-0.312-0.43-0.688-0.781-1.266c-1,2.344-1.727,4.234-2.609,6.062c-3.609,7.438-9.328,13.141-15.422,18.469
			c-6.062,5.328-12.375,10.359-18.461,15.656c-4.766,4.141-9.102,8.703-12.164,14.312c-5.484,10.078-2.969,21.281,6.32,28.047
			c6.758,4.922,14.586,7.055,22.664,8.453c12.594,2.18,25.344,1.789,38.055,2.062c3.523,0.078,7.039,0.008,10.57-0.117
			c-8.547-1.648-16.984-3.57-25.062-6.844c-3.938-1.602-7.727-3.477-10.984-6.281c-5.516-4.727-6.047-10.156-1.484-15.789
			c3.344-4.125,7.672-7.188,11.688-10.594c3.555-3.016,7-6.102,9.797-9.875c6.078-8.188,3.344-19.266-0.797-24.578
			c-2.281,10.875-9.781,17.906-17.875,24.469c-4.516,3.656-9.312,6.969-13.656,10.844c-3.906,3.469-7.641,7.109-8.93,12.469
			c-1.039,4.305-0.133,8.117,2.914,11.391c3.414,3.648,7.758,5.766,12.32,7.531c2.68,1.031,5.43,1.875,8.227,2.516
			c2.25,0.438,4.5,0.883,6.75,1.328C110.359,1208.522,108.125,1208.131,105.906,1207.584"/>
		<path id="path68_3_" fill="#FDFEFD" d="M202.688,1187.967c-3.453,0.633-6.391-1.055-8.031-4.703
			c-2.062-4.602-2.906-9.539-3.172-14.523c-0.156-2.875,0.953-5.875,3.969-6.5c6.891-1.422,11.375-1.203,13.906,6.359
			c1.078,3.25,1.656,6.633,2.117,10.016C212.367,1185.1,209.805,1187.967,202.688,1187.967 M198.164,1152.6
			c-1.914,0-3.836-0.125-5.742,0.016c-7.719,0.578-12.938,5.734-12.812,13.5c0.117,7.539,1.656,14.938,4.906,21.828
			c1.922,4.086,5.219,6.883,9.578,8.078c6.359,1.734,12.875,1.859,19.297,0.578c5.906-1.188,9.805-5.695,10-11.688
			c0.258-8.227-1.406-16.203-5.07-23.586c-2.875-5.82-8.227-8.133-14.422-8.664c-1.898-0.156-3.82-0.016-5.734-0.016
			C198.164,1152.631,198.164,1152.615,198.164,1152.6"/>
		<path id="path70_3_" fill="#FCFEFC" d="M281.203,1161.709c1.023,0,2.047,0.031,3.07-0.016c0.703-0.031,1.133,0.125,1.289,0.906
			c0.711,3.469,1.453,6.938,2.195,10.391c0.141,0.672,0,1.016-0.781,1c-2.992-0.031-6.008,0.188-8.906-0.859
			c-2.977-1.086-4.68-3.188-5.016-6.344c-0.258-2.406,0.766-3.914,3.078-4.617C277.781,1161.662,279.492,1161.694,281.203,1161.709
			 M282.141,1152.365c-4.312,0-8.625-0.109-12.836,1.062c-5.797,1.609-8.453,5.477-7.859,11.438
			c0.797,7.953,6.203,13.68,14.781,15.719c3.562,0.844,7.172,0.898,10.805,0.938c0.992,0.016,2.422-0.734,2.828,1.102
			c0.484,2.195-0.07,4.008-1.625,4.883c-1,0.562-2.102,0.578-3.195,0.578c-4.102,0-8.211,0.031-12.312-0.023
			c-1.711-0.023-2.43,0.508-1.898,2.328c0.445,1.57,0.68,3.211,1.016,4.812c0.25,1.195,0.93,2.102,2.18,2.086
			c6.148-0.047,12.344,0.609,18.43-0.5c7.031-1.297,10.289-5.969,9.156-13.055c-0.742-4.648-1.82-9.242-2.789-13.859
			c-0.898-4.273-1.844-8.539-2.766-12.82c-0.719-3.312-2.273-4.625-5.711-4.672C287.609,1152.334,284.875,1152.365,282.141,1152.365
			"/>
		<path id="path72_3_" fill="#FCFEFC" d="M399.789,1161.709c0.953,0,1.906,0.016,2.859-0.016c0.781-0.031,1.219,0.156,1.383,1.047
			c0.633,3.344,1.359,6.672,2.07,10c0.172,0.781,0.188,1.281-0.875,1.258c-2.445-0.062-4.914,0.133-7.328-0.453
			c-3.391-0.82-5.742-2.68-6.375-6.32c-0.43-2.5,0.586-4.297,2.992-5.039C396.234,1161.655,398.016,1161.686,399.789,1161.709
			 M400.687,1152.381c-4.375-0.016-8.758-0.141-13.039,1.062c-6.023,1.703-8.773,6.125-7.688,12.312
			c1.477,8.359,7.469,13.766,16.781,15.25c3.203,0.516,6.406,0.531,9.617,0.445c1.445-0.039,1.898,0.562,2.062,1.844
			c0.367,2.914-1.078,4.695-4.18,4.758c-4.242,0.078-8.484,0.016-12.719,0.031c-2.469,0-2.711,0.312-2.18,2.781
			c0.328,1.531,0.688,3.062,1.031,4.594c0.258,1.164,1.031,1.844,2.156,1.844c6.086-0.055,12.203,0.578,18.234-0.484
			c7.445-1.312,10.648-6.234,9.125-14.188c-1.68-8.781-3.672-17.516-5.586-26.25c-0.586-2.672-2.258-3.922-5.203-3.984
			C406.297,1152.319,403.492,1152.381,400.687,1152.381"/>
		<path id="path74_3_" fill="#FAFDFA" d="M356.016,1161.553c5.703,0,10.891,0.008,16.078,0c3.031,0,3.305-0.297,2.625-3.141
			c-1.703-7.125-0.453-6.062-7.75-6.109c-8.133-0.047-16.273,0.016-24.406-0.031c-1.375-0.016-1.734,0.109-1.531,1.75
			c0.648,5.219,3.141,9.227,6.797,12.922c6.617,6.703,12.93,13.719,19.344,20.578c-0.453,0.75-1.062,0.469-1.555,0.469
			c-4.922,0.016-9.844,0-14.766,0.016c-2.156,0.008-2.367,0.297-1.938,2.406c0.242,1.203,0.516,2.406,0.789,3.609
			c0.672,3,0.961,3.242,3.922,3.242c9.164,0.008,18.32-0.047,27.484,0.047c1.859,0.023,1.992-0.539,1.844-2.227
			c-0.367-3.938-2.039-6.984-4.805-9.82c-6.961-7.148-13.672-14.539-20.484-21.836
			C357.219,1162.944,356.797,1162.444,356.016,1161.553"/>
		<path id="path76_3_" fill="#FCFEFC" d="M165.469,1152.303c-3.328,0.172-7.438-0.328-11.523,0.297
			c-5.836,0.906-8.969,4.734-8.336,10.602c0.797,7.414,2.875,14.602,4.344,21.898c1.641,8.094,3.523,16.141,5.172,24.234
			c0.414,2.031,1.352,2.766,3.344,2.672c2.25-0.117,4.516-0.078,6.773-0.016c1.727,0.047,2.109-0.719,1.773-2.297
			c-2.922-13.695-5.789-27.398-8.688-41.094c-0.969-4.586,0.586-6.586,5.328-6.672c3.078-0.055,6.156-0.016,9.234-0.008
			c0.781,0.008,1.391-0.031,1.742-0.992c0.852-2.312,2.148-4.406,3.477-6.484c0.93-1.438,0.578-2.094-1.203-2.125
			C173.352,1152.256,169.797,1152.303,165.469,1152.303"/>
		<path id="path78_3_" fill="#FCFEFC" d="M254.508,1197.272c2.734,0,5.469-0.031,8.211,0.016c1.5,0.016,1.961-0.656,1.633-2.055
			c-0.398-1.727-0.812-3.461-1.148-5.203c-0.273-1.445-1.008-2.07-2.531-2.039c-3.695,0.07-7.391-0.086-11.086,0.047
			c-3.695,0.141-6.211-1.547-7.648-4.75c-2.078-4.594-3-9.547-3.188-14.523c-0.18-4.586,2.609-7.039,7.164-7.039
			c2.938-0.016,5.883-0.078,8.82,0.016c1.852,0.062,2.297-0.68,1.883-2.359c-2.047-8.438-0.047-6.734-8.211-6.906
			c-2.734-0.062-5.477-0.078-8.203,0.094c-8.688,0.562-14.031,6.453-13.375,15.102c0.469,6.07,1.711,12.039,3.812,17.789
			c2.625,7.203,7.984,10.797,15.461,11.562C248.898,1197.319,251.703,1197.28,254.508,1197.272"/>
		<path id="path80_3_" fill="#FDFEFD" d="M321.172,1211.975c5.641,0,5.648,0,4.477-5.523c-3.703-17.492-7.422-34.992-11.094-52.492
			c-0.25-1.203-0.594-1.781-1.961-1.688c-2.109,0.125-4.234,0.016-6.352,0.031c-3,0.031-3.805,1.109-3.141,4.219
			c1.359,6.336,2.742,12.672,4.117,19.008c2.406,11.07,4.82,22.148,7.227,33.219c0.688,3.172,0.734,3.227,3.852,3.227
			C319.258,1211.975,320.211,1211.975,321.172,1211.975"/>
		<path id="path82_3_" fill="#FCFEFC" d="M337.195,1197.256c1.305,0,2.602,0.008,3.898,0c1.461,0,1.891-0.656,1.578-2.102
			c-2.859-13.211-5.68-26.438-8.531-39.664c-0.492-2.281-1.547-3.141-3.852-3.172c-2.391-0.047-4.789,0.016-7.18-0.031
			c-1.016-0.031-1.281,0.234-1.055,1.281c2.969,13.891,5.914,27.797,8.836,41.695c0.289,1.367,1.055,2,2.406,1.992
			C334.602,1197.256,335.898,1197.256,337.195,1197.256"/>
		<path id="path84_3_" fill="#FAFDFA" d="M337.734,1199.975c-7.023-0.016-5.836-0.414-4.664,5.734
			c0.273,1.469,0.672,2.914,0.969,4.383c0.258,1.258,0.992,1.883,2.273,1.883c2.656,0,5.32-0.008,7.977,0
			c1.266,0.016,1.742-0.594,1.484-1.797c-0.602-2.875-1.188-5.734-1.844-8.594c-0.266-1.156-1.156-1.609-2.305-1.609
			C340.328,1199.975,339.031,1199.975,337.734,1199.975"/>
		<path id="path86_3_" fill="#F5FBF5" d="M181.5,1123.678c-0.016-1.109-0.078-2.297,1.203-2.781
			c1.195-0.453,2.141,0.219,2.922,1.016c2.047,2.094,2.609,4.859,3.312,7.578c0.367,1.406-0.266,1.453-1.312,1.438
			C184.422,1130.897,181.609,1127.584,181.5,1123.678 M186.906,1120.881c-1.211-0.734-2.031-1.688-3.234-2.078
			c-2.578-0.828-4.547,0.297-4.961,2.938c-1.078,6.891,5.742,13.016,12.461,11.203c0.867-0.234,1.031-0.578,0.836-1.438
			c-1-4.328-1.836-8.688-2.914-12.984c-1.242-4.906-6.25-7.562-11.086-6.047c-0.539,0.156-1.133,0.297-0.852,1.078
			c0.219,0.594,0.188,1.469,1.242,1.25c0.266-0.062,0.523-0.156,0.789-0.203C183.75,1113.944,186.266,1115.912,186.906,1120.881"/>
		<path id="path88_3_" fill="#F5FBF5" d="M148.086,1134.584c-0.148,0.031-0.297,0.062-0.445,0.078
			c-1.359-2.828-2.719-5.656-4.211-8.766c1.648,0,2.93,0.016,4.203-0.016c0.789-0.031,1.102,0.25,1.023,1.062
			C148.445,1129.49,148.273,1132.037,148.086,1134.584 M151.992,1120.444c0.039-0.812,0.32-1.688-1.07-1.641
			c-1.055,0.031-1.766,0.062-1.859,1.469c-0.195,3.219-0.297,3-3.516,3.281c-2.617,0.234-4.078-0.641-4.734-3.109
			c-0.125-0.453-0.344-0.938-0.664-1.25c-0.664-0.641-1.68-0.578-2.312-0.266c-0.961,0.484,0.023,1.188,0.258,1.672
			c2.656,5.469,5.461,10.844,8.031,16.344c0.766,1.641,1.844,1.766,3.266,1.641c1.594-0.141,0.938-1.469,1.031-2.234
			C151,1131.053,151.484,1125.74,151.992,1120.444"/>
		<path id="path90_3_" fill="#F4FBF5" d="M239.953,1123.256c0.141-0.688-0.039-1.844,1.156-2.344
			c1.109-0.469,1.984,0.141,2.781,0.797c0.805,0.672,1.352,1.547,1.828,2.453c0.883,1.656,1.203,3.469,1.703,5.25
			c0.344,1.219,0.008,1.547-1.203,1.531C242.922,1130.912,240.102,1127.631,239.953,1123.256 M245.445,1121.178
			c-1.148-1.109-2.133-2.047-3.484-2.438c-2.586-0.75-4.5,0.531-4.742,3.203c-0.531,5.906,3.555,10.875,9.352,11.203
			c1.305,0.062,1.859,0.406,1.938,1.688c0.055,0.875,0.367,1.734,0.375,2.609c0.008,1.281,0.578,1.656,1.773,1.578
			c1.523-0.094,1.094-1.188,0.945-1.953c-0.914-4.531-1.914-9.062-2.867-13.594c-0.188-0.859-0.289-1.75-0.492-2.609
			s0.32-2.125-1.445-2.078C244.984,1118.85,245.812,1120.194,245.445,1121.178"/>
		<path id="path92_3_" fill="#F4FBF4" d="M290.203,1123.303c0.078-0.719-0.109-1.859,1.078-2.375
			c1.102-0.484,2.023,0.078,2.781,0.781c2.461,2.266,3.023,5.391,3.633,8.484c0.188,0.922-0.602,0.688-1.07,0.719
			C293.258,1131.115,290.305,1127.725,290.203,1123.303 M295.758,1121.412c-1.258-1.391-2.281-2.281-3.625-2.672
			c-2.578-0.766-4.523,0.562-4.742,3.219c-0.586,6.969,4.961,12.125,11.852,11.078c1.25-0.188,1.602-0.609,1.336-1.844
			c-0.812-3.812-1.914-7.547-2.258-11.438c-0.086-0.906-0.609-0.938-1.25-0.922c-0.609,0.016-1.297-0.062-1.312,0.859
			C295.75,1120.1,295.758,1120.506,295.758,1121.412"/>
		<path id="path94_3_" fill="#F5FBF5" d="M285.055,1138.787c0.305-0.031,1.141-0.062,1.922-0.25
			c0.555-0.141,1.578-0.078,1.133-1.203c-0.281-0.703-0.359-1.422-1.641-1.234c-6.938,1.016-12.102-4.953-10.336-11.797
			c0.727-2.828,3.172-3.891,6.992-3.031c0.617,0.141,1.328,0.672,1.688-0.359c0.312-0.875,0.289-1.594-0.844-1.859
			c-2.008-0.453-4.023-0.734-6.078-0.266c-2.516,0.578-4.047,2.156-4.68,4.625c-1.195,4.641,1.312,11.109,5.32,13.75
			C280.422,1138.397,281.984,1138.819,285.055,1138.787"/>
		<path id="path96_3_" fill="#F5FBF5" d="M171.828,1121.006c-1.141-0.766-1.969-1.688-3.141-2.125
			c-3.102-1.141-5.352,0.406-4.906,3.656c0.422,3.172,1.266,6.297,1.875,9.438c0.266,1.344,1.266,1.031,2.078,0.953
			c1.219-0.094,0.586-1.016,0.484-1.547c-0.5-2.547-1.078-5.078-1.609-7.625c-0.195-0.953-0.344-2,0.656-2.562
			c1.086-0.625,2.141-0.234,3.016,0.547c1.656,1.484,2.367,3.484,2.906,5.547c0.375,1.375,0.719,2.781,0.891,4.203
			c0.18,1.406,0.984,1.641,2.125,1.469c1.602-0.234,0.555-1.25,0.461-1.859c-0.602-3.766-1.898-7.406-2.148-11.25
			c-0.07-0.969-0.547-1.109-1.312-1.125c-0.789,0-1.352,0.188-1.266,1.156C171.969,1120.194,171.875,1120.522,171.828,1121.006"/>
		<path id="path98_3_" fill="#F4FBF5" d="M202.461,1121.303c-1.18-1.25-2.211-2.125-3.539-2.531
			c-2.906-0.922-5.078,0.688-4.641,3.688c0.477,3.234,1.312,6.406,1.969,9.609c0.281,1.406,1.375,0.875,2.141,0.859
			c1.141-0.031,0.492-0.891,0.398-1.359c-0.508-2.547-1.133-5.062-1.594-7.609c-0.188-1.016-0.531-2.297,0.82-2.859
			c1.219-0.516,2.266,0.016,3.125,0.922c1.625,1.688,2.281,3.844,2.812,6.031c0.281,1.203,0.633,2.391,0.75,3.609
			c0.156,1.578,1.242,1.453,2.211,1.266c1.273-0.234,0.461-1.234,0.359-1.797c-0.742-3.797-1.867-7.531-2.258-11.422
			c-0.086-0.875-0.562-0.984-1.219-0.969c-0.711,0-1.414,0.031-1.344,1.062C202.484,1120.162,202.461,1120.553,202.461,1121.303"/>
		<path id="path100_3_" fill="#F5FBF5" d="M333.023,1127.6c0.062,1.281-0.016,2.594-1.367,3.141c-1.344,0.562-2.68,0.25-3.773-0.781
			c-1.68-1.609-2.289-3.656-2.406-5.891c-0.07-1.234-0.055-2.531,1.336-3.141c1.414-0.609,2.695-0.172,3.758,0.812
			C332.273,1123.303,332.836,1125.381,333.023,1127.6 M322.695,1123.756c0.078,5.078,3.555,9.234,7.883,9.438
			c2.977,0.125,4.742-1.281,5.156-4.094c0.734-5.078-3.141-10.344-7.742-10.531C324.461,1118.412,322.641,1120.194,322.695,1123.756
			"/>
		<path id="path102_3_" fill="#F3FAF4" d="M212.5,1126.49c1.891,0.281,3.484,0.516,4.938,1.281c0.984,0.516,1.766,1.312,1.281,2.438
			c-0.516,1.203-1.711,1.016-2.68,0.656C214.133,1130.147,213.141,1128.631,212.5,1126.49 M215.094,1118.459
			c-4.125,0.094-6.203,2.484-5.602,6.531c0.648,4.375,3.711,7.734,7.461,8.125c1.766,0.188,3.5,0.031,4.336-1.875
			c0.742-1.672-0.148-3.656-2.07-4.828c-1.539-0.953-3.289-1.281-5.016-1.672c-0.719-0.156-1.859,0.25-1.953-0.922
			c-0.109-1.219,0.422-2.25,1.656-2.781c1.281-0.531,2.531-0.234,3.828-0.047c0.609,0.094,1.547,1.188,1.953-0.297
			c0.383-1.375-0.562-1.594-1.578-1.75C217.109,1118.787,216.102,1118.615,215.094,1118.459"/>
		<path id="path104_3_" fill="#F5FBF5" d="M255.43,1126.49c1.992,0.266,3.656,0.516,5.148,1.375
			c0.883,0.516,1.562,1.234,1.117,2.312c-0.461,1.141-1.508,1.031-2.445,0.75C257.164,1130.303,256.172,1128.662,255.43,1126.49
			 M258.383,1118.553c-4.305-0.016-6.164,1.938-5.922,5.969c0.281,4.531,3.781,8.422,7.836,8.641
			c1.719,0.094,3.414-0.188,4.023-2.078c0.586-1.844-0.219-3.344-1.766-4.438c-1.602-1.125-3.492-1.453-5.352-1.906
			c-0.75-0.188-2.055,0.344-2.023-1.062c0.023-1.188,0.555-2.219,1.836-2.703c1.375-0.5,2.703-0.188,4.031,0.141
			c0.711,0.172,1.43,0.672,1.695-0.578c0.219-1.047-0.367-1.344-1.164-1.5C260.438,1118.819,259.312,1118.459,258.383,1118.553"/>
		<path id="path106_3_" fill="#F4FBF5" d="M340.18,1118.475c-0.875,0.141-1.742,0.297-2.625,0.406
			c-0.867,0.094-1.156,0.5-0.914,1.375c0.234,0.844,0.641,1.062,1.484,0.828c1.391-0.375,2.805-0.578,4.227-0.062
			c0.938,0.344,1.492,0.969,1.594,1.938c0.094,0.938-0.469,1.516-1.273,1.891c-0.492,0.219-0.984,0.469-1.492,0.672
			c-1.383,0.547-2.32,1.469-2.375,3.016c-0.047,1.547,0.594,2.797,1.914,3.625c2.062,1.297,4.281,1.219,6.523,0.641
			c0.484-0.141,1.188-0.281,0.789-1.078c-0.266-0.562-0.312-1.453-1.352-1.078c-1.117,0.406-2.258,0.484-3.422,0.266
			c-0.789-0.141-1.445-0.484-1.617-1.344c-0.188-0.953,0.242-1.578,1.07-1.984c0.492-0.234,0.977-0.484,1.477-0.703
			c1.352-0.625,2.523-1.406,2.523-3.141c0-1.766-0.695-3.188-2.211-4.125C343.188,1118.803,341.727,1118.522,340.18,1118.475"/>
		<path id="path108_3_" fill="#F3FAF4" d="M158.867,1118.662c-2.727-0.016-3.797,1.109-3.32,3.641
			c0.773,4.078,1.766,8.125,2.641,12.188c0.227,1.062,0.492,2.141,0.523,3.219c0.039,1.344,0.844,1.328,1.789,1.297
			c1.234-0.031,1.031-0.938,0.891-1.625c-0.969-4.672-1.969-9.328-3-13.984c-0.312-1.406-0.641-2.719,1.57-2.469
			c0.625,0.062,0.633-0.375,0.664-0.781c0.023-0.516,0.188-1.141-0.594-1.297C159.562,1118.756,159.094,1118.694,158.867,1118.662"
			/>
		<path id="path110_3_" fill="#F4FBF4" d="M223.312,1122.256c0.648,2.953,1.422,6.328,2.148,9.719
			c0.414,1.938,0.883,3.859,1.086,5.812c0.125,1.234,0.766,1.219,1.625,1.219c1.141,0.016,1.156-0.688,1.047-1.5
			c-0.57-4.328-1.844-8.516-2.703-12.781c-0.125-0.672-0.281-1.328-0.438-1.984c-0.266-1.156,0.023-1.953,1.359-1.844
			c0.734,0.078,0.977-0.203,1.039-0.844c0.07-0.734-0.172-1.094-0.93-1.297C224.953,1118.084,223.195,1119.319,223.312,1122.256"/>
		<path id="path112_3_" fill="#F5FBF5" d="M307.57,1130.865c1.133,1,2.125,1.875,3.453,2.031c0.516,0.047,1.391,0.469,1.469-0.484
			c0.055-0.75,0.141-1.891-1.016-1.891c-3.383-0.031-4.305-2.438-5.023-5.016c-0.508-1.844-0.938-3.719-1.234-5.609
			c-0.219-1.391-1.172-1.062-1.992-1.047c-1.266,0.031-0.703,0.953-0.586,1.5c0.836,3.938,1.977,7.812,2.328,11.844
			c0.07,0.844,0.562,0.828,1.109,0.766c0.531-0.062,1.32,0.328,1.422-0.672C307.539,1131.912,307.539,1131.522,307.57,1130.865"/>
		<path id="path114_3_" fill="#F5FBF5" d="M317.508,1130.834c1.18,1.047,2.125,1.875,3.391,2.031
			c0.562,0.078,1.547,0.562,1.578-0.547c0.016-0.688,0.133-1.812-1.117-1.812c-3.008-0.016-4.094-2.078-4.766-4.484
			c-0.508-1.828-0.953-3.703-1.234-5.578c-0.219-1.438-0.953-1.875-2.219-1.594c-1.438,0.312-0.508,1.297-0.391,1.938
			c0.695,3.75,1.922,7.391,2.141,11.219c0.062,1.078,0.664,0.891,1.336,0.984C317.883,1133.209,317.336,1131.912,317.508,1130.834"
			/>
		<path id="path116_3_" fill="#4DBE49" d="M105.906,1207.584c2.219,0.547,4.453,0.938,6.766,0.656c-2.25-0.445-4.5-0.891-6.75-1.328
			C105.922,1207.131,105.914,1207.358,105.906,1207.584"/>
	</g>
</g>
</svg>
