<?xml version="1.0" encoding="utf-8"?>
<!-- Generator: Adobe Illustrator 16.0.4, SVG Export Plug-In . SVG Version: 6.00 Build 0)  -->
<!DOCTYPE svg PUBLIC "-//W3C//DTD SVG 1.0//EN" "http://www.w3.org/TR/2001/REC-SVG-20010904/DTD/svg10.dtd">
<svg version="1.0" id="Layer_1" xmlns="http://www.w3.org/2000/svg" xmlns:xlink="http://www.w3.org/1999/xlink" x="0px" y="0px"
	 width="60px" height="30px" viewBox="0 0 60 30" enable-background="new 0 0 60 30" xml:space="preserve">
<g>
	<path fill-rule="evenodd" clip-rule="evenodd" fill="#E84812" d="M2.5,9.174h12.73L2.5,17.748V9.174z M2.5,9.174"/>
	<path fill-rule="evenodd" clip-rule="evenodd" fill="#F28700" d="M15.23,9.314v8.434H9.532L15.23,9.314z M15.23,9.314"/>
	<path fill-rule="evenodd" clip-rule="evenodd" fill="#002C61" d="M56.606,9.498c0.496,0,0.894,0.404,0.894,0.898
		c0,0.496-0.397,0.9-0.894,0.9s-0.899-0.404-0.899-0.9C55.707,9.902,56.11,9.498,56.606,9.498L56.606,9.498z M56.606,9.498
		L56.606,9.498z M56.606,9.639c0.416,0,0.759,0.342,0.759,0.758c0,0.424-0.343,0.76-0.759,0.76c-0.423,0-0.759-0.336-0.759-0.76
		C55.848,9.98,56.184,9.639,56.606,9.639L56.606,9.639z M56.606,9.639L56.606,9.639z M56.239,9.889h0.446
		c0.166,0,0.294,0.135,0.294,0.295c0,0.141-0.098,0.256-0.232,0.287l0.264,0.441H56.79l-0.238-0.436h-0.129v0.436h-0.184V9.889z
		 M56.239,9.889L56.239,9.889z M56.423,10.037v0.293h0.238c0.086,0,0.159-0.066,0.159-0.146s-0.073-0.146-0.159-0.146H56.423z
		 M56.423,10.037L56.423,10.037z M17.361,17.748h3.048c1.683,0,2.932-1.096,2.932-2.43c0-0.924-0.306-1.646-1.279-2.143
		c0.937-0.697,1.059-2.143,0.44-3.041c-0.416-0.6-1.199-0.961-1.982-0.961h-3.158V17.748z M17.361,17.748L17.361,17.748z
		 M18.793,16.469h1.592c0.881,0,1.512-0.574,1.512-1.285c0-0.703-0.649-1.279-1.347-1.279h-1.757V16.469z M18.793,16.469
		L18.793,16.469z M18.793,10.447h1.493c0.606,0,1.145,0.451,1.151,1.119c0.006,0.686-0.429,1.127-1.034,1.127h-1.61V10.447z
		 M18.793,10.447L18.793,10.447z M29.854,11.285v3.549c0,1.617-1.322,2.939-2.944,2.939c-1.616,0-2.938-1.322-2.938-2.939v-3.549
		h1.401v3.457c0,0.969,0.691,1.758,1.536,1.758c0.851,0,1.542-0.789,1.542-1.758v-3.457H29.854z M29.854,11.285L29.854,11.285z
		 M35.582,9.174h1.414v8.465h-1.414V17.08c-0.526,0.436-1.188,0.693-1.909,0.693c-1.727,0-3.128-1.488-3.128-3.324
		c0-1.83,1.401-3.316,3.128-3.316c0.722,0,1.383,0.256,1.909,0.691V9.174z M35.582,9.174L35.582,9.174z M35.582,14.713v-0.521
		c-0.116-0.996-0.881-1.762-1.806-1.762c-1.004,0-1.817,0.906-1.817,2.02c0,1.119,0.813,2.025,1.817,2.025
		C34.701,16.475,35.466,15.711,35.582,14.713L35.582,14.713z M35.582,14.713L35.582,14.713z M40.889,11.133
		c0.722,0,1.383,0.256,1.909,0.691v-0.539h1.414v6.305c0,2.008-1.358,3.236-3.329,3.236c-1.23,0-2.308-0.66-2.883-1.658l1.138-0.795
		c0.355,0.686,1.077,1.156,1.855,1.156c1.138,0,1.805-0.9,1.805-1.939v-0.51c-0.526,0.436-1.188,0.693-1.909,0.693
		c-1.727,0-3.128-1.488-3.128-3.324C37.761,12.619,39.162,11.133,40.889,11.133L40.889,11.133z M40.889,11.133L40.889,11.133z
		 M42.798,14.713v-0.521c-0.109-0.996-0.875-1.762-1.805-1.762c-1.004,0-1.818,0.906-1.818,2.02c0,1.119,0.814,2.025,1.818,2.025
		C41.923,16.475,42.688,15.711,42.798,14.713L42.798,14.713z M42.798,14.713L42.798,14.713z M48.104,12.404
		c0.784,0,1.451,0.607,1.665,1.451H46.44C46.654,12.986,47.321,12.404,48.104,12.404L48.104,12.404z M48.104,12.404L48.104,12.404z
		 M51.171,15.031c0.031-0.191,0.043-0.381,0.043-0.582c0-1.83-1.156-3.316-3.127-3.316c-1.727,0-3.128,1.486-3.128,3.316
		c0,1.836,1.401,3.324,3.128,3.324c1.04,0,2.001-0.516,2.595-1.273l-1.09-0.766c-0.33,0.49-0.918,0.766-1.487,0.766
		c-0.795,0-1.463-0.594-1.671-1.469H51.171z M51.171,15.031L51.171,15.031z M53.338,15.611c0,0.484,0.392,0.877,0.869,0.877h0.514
		v1.242c-0.263,0.035-0.538,0.061-0.813,0.043c-0.38-0.025-0.753-0.123-1.077-0.361c-0.532-0.393-0.888-1.053-0.888-1.764V9.492
		h1.396v1.793h1.365v1.236h-1.365V15.611z M53.338,15.611"/>
</g>
</svg>
