<?xml version="1.0" encoding="utf-8"?>
<!-- Generator: Adobe Illustrator 16.0.4, SVG Export Plug-In . SVG Version: 6.00 Build 0)  -->
<!DOCTYPE svg PUBLIC "-//W3C//DTD SVG 1.0//EN" "http://www.w3.org/TR/2001/REC-SVG-20010904/DTD/svg10.dtd">
<svg version="1.0" id="Layer_1" xmlns="http://www.w3.org/2000/svg" xmlns:xlink="http://www.w3.org/1999/xlink" x="0px" y="0px"
	 width="60px" height="30px" viewBox="0 0 60 30" enable-background="new 0 0 60 30" xml:space="preserve">
<path fill="#D4002A" d="M45.117,12.095c-0.736-0.661-1.41-0.879-2.131-0.879s-1.623,0.246-1.623,1.164
	c0,0.769,0.689,1.029,1.787,1.375c1.572,0.508,3.604,1.164,3.604,3.474c0,2.67-2.146,3.865-4.439,3.865
	c-1.654,0-3.326-0.605-4.342-1.671l1.719-1.763c0.684,0.737,1.705,1.124,2.623,1.124c0.852,0,1.605-0.329,1.605-1.262
	c0-0.885-0.885-1.181-2.408-1.674c-1.475-0.475-2.965-1.21-2.965-3.306c0-2.572,2.326-3.637,4.488-3.637
	c1.311,0,2.785,0.492,3.801,1.424L45.117,12.095z M17.701,16.278h-2.914l1.473-3.981L17.701,16.278z M22.484,20.799L17.74,9.2
	h-2.791l-4.916,11.599h3.098l0.852-2.276h4.49l0.9,2.276H22.484z M32.438,9.2h-3.096l-2.688,8.382L23.92,9.2h-3.145l4.389,11.599
	h2.803L32.438,9.2z M33.559,20.799h2.818V9.2h-2.818V20.799z M47.982,10.188c0,0.549,0.443,0.979,0.988,0.979
	c0.553,0,0.996-0.43,0.996-0.979S49.523,9.2,48.971,9.2C48.426,9.2,47.982,9.639,47.982,10.188z M48.139,10.188
	c0-0.462,0.375-0.836,0.832-0.836c0.465,0,0.84,0.374,0.84,0.836c0,0.456-0.375,0.836-0.84,0.836
	C48.514,11.023,48.139,10.644,48.139,10.188z M48.588,10.74h0.201v-0.466h0.146l0.258,0.466h0.242l-0.301-0.487
	c0.158-0.035,0.258-0.14,0.258-0.301c0-0.239-0.205-0.327-0.418-0.327h-0.387V10.74z M48.789,10.113V9.796h0.18
	c0.105,0,0.225,0.029,0.225,0.151c0,0.135-0.131,0.166-0.248,0.166H48.789z"/>
</svg>
