<?xml version="1.0" encoding="utf-8"?>
<!-- Generator: Adobe Illustrator 16.0.4, SVG Export Plug-In . SVG Version: 6.00 Build 0)  -->
<!DOCTYPE svg PUBLIC "-//W3C//DTD SVG 1.0//EN" "http://www.w3.org/TR/2001/REC-SVG-20010904/DTD/svg10.dtd">
<svg version="1.0" id="Layer_1" xmlns="http://www.w3.org/2000/svg" xmlns:xlink="http://www.w3.org/1999/xlink" x="0px" y="0px"
	 width="60px" height="30px" viewBox="0 0 60 30" enable-background="new 0 0 60 30" xml:space="preserve">
<g>
	<polygon fill-rule="evenodd" clip-rule="evenodd" fill="#318ECB" points="15.246,7.467 15.246,7.5 15.246,7.467 	"/>
	<polygon fill-rule="evenodd" clip-rule="evenodd" fill="#318ECB" points="15.179,18.617 15.212,18.617 15.179,18.617 	"/>
	<path fill-rule="evenodd" clip-rule="evenodd" fill="#929497" d="M37.916,21.244c0.169-0.64,0.337-0.943,0.572-1.482
		c0.371-0.876,1.314-1.179,1.584-1.179c0.741,0,0.977,0.472,0.741,1.213h-0.472c0.101-0.438,0.067-0.809-0.404-0.809
		c-0.304,0-0.708,0.202-1.011,0.876c-0.101,0.201-0.235,0.572-0.303,0.809c-0.068,0.201-0.136,0.438-0.202,0.64
		c-0.169,0.64,0.134,0.809,0.471,0.809c0.54,0,0.843-0.539,1.045-1.078h0.438c-0.235,0.876-0.842,1.448-1.65,1.448
		C38.051,22.524,37.747,22.019,37.916,21.244L37.916,21.244z M43.777,19.796l0.102-0.236h-0.505l-0.978,2.897h0.505l0.641-1.853
		c0.033-0.136,0.101-0.27,0.202-0.371c0.201-0.202,0.472-0.27,0.741-0.236l0.168-0.438c-0.101-0.033-0.27,0-0.37,0.034
		c-0.202,0.033-0.371,0.168-0.506,0.27C43.777,19.863,43.777,19.829,43.777,19.796L43.777,19.796z M42.161,20.537
		c0.033-0.136,0.168-0.371,0.134-0.438c-0.101-0.235-0.37-0.235-0.572-0.202c-0.235,0.067-0.37,0.236-0.438,0.472h-0.438
		c0.067-0.337,0.304-0.606,0.606-0.741c0.337-0.135,0.741-0.135,1.078,0.033c0.067,0,0.102,0.034,0.168,0.102
		c0.034,0.034,0.067,0.169,0.067,0.202c0,0.101,0,0.236-0.033,0.371c-0.202,0.538-0.404,1.111-0.606,1.65
		c0,0.067-0.034,0.169,0.067,0.202c0.034,0.033,0.101,0,0.168,0l-0.101,0.303c-0.067,0.034-0.27,0.034-0.37,0
		c-0.102-0.033-0.169-0.067-0.203-0.168c0-0.034-0.033-0.168-0.067-0.135c-0.168,0.168-0.303,0.27-0.538,0.303
		c-0.169,0.034-0.337,0.034-0.506,0c-0.202-0.033-0.37-0.202-0.37-0.404c0-0.438,0.168-0.809,0.606-1.077
		c0.27-0.136,0.74-0.203,1.044-0.271C41.958,20.705,42.127,20.638,42.161,20.537L42.161,20.537z M42.025,21.009
		c-0.067,0.033-0.303,0.101-0.303,0.101c-0.303,0.067-0.64,0.101-0.843,0.337c-0.134,0.168-0.235,0.371-0.134,0.572
		c0.033,0.102,0.101,0.136,0.168,0.136c0.337,0.033,0.606-0.169,0.774-0.337c0.068-0.067,0.102-0.203,0.136-0.271
		C41.857,21.547,42.025,21.009,42.025,21.009L42.025,21.009z M53.041,22.524l0.135-0.404c-0.135,0-0.505,0.067-0.404-0.236
		l0.64-1.92h0.473l0.135-0.37h-0.472l0.235-0.741h-0.472l-0.27,0.741h-0.404l-0.135,0.37h0.404L52.3,21.851
		c-0.033,0.101-0.101,0.235-0.101,0.37c0.033,0.135,0.101,0.202,0.169,0.27C52.569,22.558,52.806,22.524,53.041,22.524
		L53.041,22.524z M50.649,20.469l-0.64,1.988h-0.506l0.978-2.897h0.471l-0.066,0.236c0,0.033,0,0.033,0.033,0.033
		c0.168-0.169,0.371-0.27,0.606-0.303c0.27-0.067,0.64,0.033,0.741,0.27c0.033,0.101,0.067,0.269,0,0.438l-0.741,2.224H51.02
		l0.775-2.224c0.033-0.169-0.067-0.303-0.235-0.337C50.919,19.829,50.717,20.335,50.649,20.469L50.649,20.469z M48.291,21.042
		c-0.033,0.168-0.101,0.304-0.134,0.472c-0.067,0.37,0,0.641,0.27,0.641c0.336,0,0.605-0.271,0.74-0.675h0.438
		c-0.136,0.606-0.741,1.045-1.28,1.045s-0.809-0.37-0.674-0.978c0-0.067,0.067-0.471,0.337-1.044
		c0.067-0.202,0.472-1.011,1.247-1.011c0.605,0,0.842,0.438,0.707,0.977c0,0.068-0.135,0.573-0.135,0.573H48.291L48.291,21.042z
		 M48.427,20.672h0.977c0,0,0.033-0.034,0.066-0.135c0.102-0.371-0.033-0.674-0.303-0.641c-0.269,0-0.606,0.304-0.74,0.641
		C48.427,20.638,48.427,20.672,48.427,20.672L48.427,20.672z M45.934,20.738l-0.572,1.719h-0.506l1.313-3.84
		c1.146,0,1.415,0,1.517,0.033c0.168,0.034,0.303,0.135,0.404,0.235c0.168,0.337,0.067,0.708-0.067,1.011
		c-0.136,0.304-0.473,0.539-0.741,0.641c0.067,0.033,0.303,0.168,0.303,0.438c-0.034,0.404-0.202,0.741-0.303,1.213
		c-0.034,0.101,0.067,0.201,0.101,0.27c-0.202,0-0.572,0-0.572,0c-0.068,0-0.034-0.236-0.034-0.202
		c0.067-0.438,0.169-0.539,0.27-1.078c0.067-0.235-0.135-0.337-0.135-0.371C46.708,20.705,46.641,20.738,45.934,20.738
		L45.934,20.738z M46.507,19.021l-0.438,1.313c0.707,0,0.909,0.033,1.077-0.067c0.203-0.135,0.371-0.236,0.473-0.674
		c0.135-0.572-0.337-0.572-0.371-0.572C47.18,19.021,46.507,19.021,46.507,19.021L46.507,19.021z M55.298,20.537
		c0.034-0.136,0.135-0.371,0.102-0.438c-0.067-0.235-0.337-0.235-0.573-0.202c-0.202,0.067-0.37,0.236-0.403,0.472h-0.438
		c0.067-0.337,0.304-0.606,0.606-0.741c0.337-0.135,0.707-0.135,1.078,0.033c0.066,0,0.101,0.034,0.135,0.102
		c0.033,0.034,0.101,0.169,0.101,0.202c0,0.101-0.033,0.236-0.067,0.371c-0.202,0.538-0.37,1.111-0.572,1.65
		c-0.034,0.067-0.034,0.169,0.033,0.202s0.135,0,0.202,0c0,0-0.067,0.27-0.101,0.27c-0.102,0.101-0.27,0.067-0.404,0.033
		c-0.102-0.033-0.135-0.102-0.169-0.168c0.034,0.066-0.101-0.135-0.067-0.135c-0.235,0.135-0.336,0.27-0.539,0.303
		c-0.168,0.034-0.336,0.034-0.505,0c-0.202-0.033-0.371-0.202-0.371-0.404c-0.033-0.438,0.169-0.809,0.607-1.077
		c0.235-0.136,0.741-0.203,1.044-0.271C55.097,20.705,55.265,20.638,55.298,20.537L55.298,20.537z M55.13,21.009
		c-0.067,0.033-0.304,0.101-0.27,0.101c-0.304,0.067-0.641,0.101-0.842,0.337c-0.135,0.168-0.236,0.371-0.169,0.572
		c0.034,0.102,0.135,0.136,0.202,0.136c0.304,0.033,0.606-0.169,0.741-0.337c0.067-0.067,0.135-0.203,0.168-0.271L55.13,21.009
		L55.13,21.009z M55.567,22.457l1.28-3.84h0.505l-1.313,3.84H55.567L55.567,22.457z"/>
</g>
<path fill-rule="evenodd" clip-rule="evenodd" fill="#007EC8" d="M31.481,21.817v-0.169h0.102c0.034,0,0.102,0.033,0.102,0.102
	c0,0.067-0.033,0.067-0.102,0.067H31.481L31.481,21.817z M31.481,21.951h0.068l0.135,0.27h0.168l-0.168-0.303
	c0.101,0,0.168-0.034,0.168-0.168c0-0.136-0.101-0.203-0.27-0.203h-0.27v0.674h0.168V21.951L31.481,21.951z M32.189,21.884
	c0-0.404-0.304-0.606-0.606-0.606c-0.336,0-0.64,0.202-0.64,0.606s0.304,0.606,0.64,0.606C31.886,22.49,32.189,22.288,32.189,21.884
	L32.189,21.884z M32.021,21.884c0,0.304-0.202,0.472-0.438,0.472l0,0c-0.27,0-0.438-0.168-0.438-0.472
	c0-0.27,0.168-0.471,0.438-0.471C31.819,21.413,32.021,21.614,32.021,21.884L32.021,21.884z"/>
<polygon fill-rule="evenodd" clip-rule="evenodd" fill="#007EC8" points="27.17,10.161 28.08,7.5 24.644,7.5 24.644,7.467 
	23.734,10.161 27.17,10.161 "/>
<polygon fill-rule="evenodd" clip-rule="evenodd" fill="#007EC8" points="4.365,13.53 7.868,13.53 8.711,11.071 10.227,11.071 
	11.439,7.5 4.23,7.5 3.018,11.071 5.207,11.071 4.365,13.53 "/>
<polygon fill-rule="evenodd" clip-rule="evenodd" fill="#007EC8" points="4.23,13.9 4.23,13.9 2.647,18.617 6.15,18.617 7.768,13.9 
	4.23,13.9 "/>
<polygon fill-rule="evenodd" clip-rule="evenodd" fill="#007EC8" points="9.62,13.9 8.003,18.617 11.473,18.617 13.056,13.9 
	9.62,13.9 "/>
<path fill-rule="evenodd" clip-rule="evenodd" fill="#007EC8" d="M9.755,13.53h7.175l0.606-1.819
	c0.303-0.977-0.337-1.617-1.381-1.617c-0.741,0-1.517,0.202-2.358,1.651L15.246,7.5h-3.47L9.755,13.53L9.755,13.53z"/>
<polygon fill-rule="evenodd" clip-rule="evenodd" fill="#007EC8" points="13.427,13.9 11.844,18.617 15.179,18.617 16.795,13.9 
	13.427,13.9 "/>
<path fill-rule="evenodd" clip-rule="evenodd" fill="#007EC8" d="M22.252,13.53l1.146-3.47c-1.549,0-1.953,0.64-2.594,1.516
	l0.37-1.078h-2.862l-1.045,3.032H22.252L22.252,13.53z"/>
<polygon fill-rule="evenodd" clip-rule="evenodd" fill="#007EC8" points="17.166,13.9 15.549,18.617 18.984,18.617 20.567,13.9 
	17.166,13.9 "/>
<polygon fill-rule="evenodd" clip-rule="evenodd" fill="#007EC8" points="26.024,13.53 27.069,10.498 23.633,10.498 22.589,13.53 
	26.024,13.53 "/>
<polygon fill-rule="evenodd" clip-rule="evenodd" fill="#007EC8" points="24.307,18.617 25.891,13.9 22.488,13.9 20.871,18.617 
	24.307,18.617 "/>
<path fill-rule="evenodd" clip-rule="evenodd" fill="#007EC8" d="M31.011,13.53l1.011-3.032H30.37c-0.067,0-0.303,0.067-0.303-0.101
	c0-0.169,0.067-0.236,0.303-0.236l0,0h2.156L33.402,7.5h-3.437c-1.246,0-1.751,0.775-2.122,1.752l-1.448,4.278H31.011L31.011,13.53z
	"/>
<polygon fill-rule="evenodd" clip-rule="evenodd" fill="#007EC8" points="29.73,13.9 26.261,13.9 24.678,18.617 28.114,18.617 
	29.73,13.9 "/>
<polygon fill-rule="evenodd" clip-rule="evenodd" fill="#007EC8" points="34.009,18.617 35.592,13.9 32.021,13.9 30.438,18.617 
	34.009,18.617 "/>
<polygon fill-rule="evenodd" clip-rule="evenodd" fill="#007EC8" points="38.455,13.53 38.253,10.498 36.568,10.498 37.579,7.5 
	37.613,7.5 34.38,7.5 33.335,10.498 32.392,10.498 31.381,13.53 38.455,13.53 "/>
<polygon fill-rule="evenodd" clip-rule="evenodd" fill="#007EC8" points="35.592,13.9 35.827,17.505 32.561,22.457 36.063,22.457 
	41.857,13.9 35.592,13.9 "/>
<polygon fill-rule="evenodd" clip-rule="evenodd" fill="#007EC8" points="40.477,10.498 38.455,13.53 42.127,13.53 44.148,10.498 
	40.477,10.498 "/>
</svg>
