<?xml version="1.0" encoding="utf-8"?>
<!-- Generator: Adobe Illustrator 16.0.0, SVG Export Plug-In . SVG Version: 6.00 Build 0)  -->
<!DOCTYPE svg PUBLIC "-//W3C//DTD SVG 1.1//EN" "http://www.w3.org/Graphics/SVG/1.1/DTD/svg11.dtd">
<svg version="1.1" id="Layer_1" xmlns="http://www.w3.org/2000/svg" xmlns:xlink="http://www.w3.org/1999/xlink" x="0px" y="0px"
	 width="455.7px" height="187.2px" viewBox="0 0 455.7 187.2" enable-background="new 0 0 455.7 187.2" xml:space="preserve">
<g>
	<path fill-rule="evenodd" clip-rule="evenodd" fill="#FF5A00" d="M93.6,0c17.4,0,33.7,4.8,47.7,13L120,44.6
		c-7.9-4.2-16.8-6.6-26.4-6.6c-30.8,0-55.7,24.9-55.7,55.7c0,30.8,24.9,55.7,55.7,55.7c14.8,0,28.2-5.8,38.2-15.1v-20.6H95.2V75.6
		h69.2v1.7h5.2v69.2h-0.1l0.6,0.9c-16.9,24.1-44.9,39.8-76.6,39.8C41.9,187.2,0,145.3,0,93.6C0,41.9,41.9,0,93.6,0L93.6,0z"/>
	<path fill-rule="evenodd" clip-rule="evenodd" fill="#FF5A00" d="M233.7,0c51.7,0,93.6,41.9,93.6,93.6c0,51.7-41.9,93.6-93.6,93.6
		c-51.7,0-93.6-41.9-93.6-93.6C140.1,41.9,182,0,233.7,0L233.7,0z M233.7,37.9c30.8,0,55.7,24.9,55.7,55.7
		c0,30.8-24.9,55.7-55.7,55.7c-30.8,0-55.7-24.9-55.7-55.7C178,62.9,202.9,37.9,233.7,37.9L233.7,37.9z"/>
	<path fill-rule="evenodd" clip-rule="evenodd" fill="#BABBBB" d="M289.7,0c51.7,0,93.6,41.9,93.6,93.6c0,51.7-41.9,93.6-93.6,93.6
		s-93.6-41.9-93.6-93.6c0-18.8,5.5-36.3,15.1-50.9c6.9-3,14.5-4.7,22.5-4.7c10.2,0,19.8,2.8,28,7.6C245.1,55.1,234,73.1,234,93.6
		c0,30.8,24.9,55.7,55.7,55.7c30.8,0,55.7-24.9,55.7-55.7c0-22.7-13.6-42.3-33.2-50.9c-11.7-18.1-29.5-31.8-50.5-38.4
		C270.5,1.5,279.9,0,289.7,0L289.7,0z"/>
	<polygon fill-rule="evenodd" clip-rule="evenodd" fill="#FF5A00" points="354.2,0 392.1,0 392.1,187.2 354.2,187.2 354.2,0 	"/>
	<polygon fill-rule="evenodd" clip-rule="evenodd" fill="#FF5A00" points="354.2,187.2 354.2,149.3 455.7,149.3 455.7,187.2
		354.2,187.2 	"/>
</g>
</svg>
