<?xml version="1.0" encoding="utf-8"?>
<!-- Generator: Adobe Illustrator 16.0.4, SVG Export Plug-In . SVG Version: 6.00 Build 0)  -->
<!DOCTYPE svg PUBLIC "-//W3C//DTD SVG 1.0//EN" "http://www.w3.org/TR/2001/REC-SVG-20010904/DTD/svg10.dtd">
<svg version="1.0" id="Layer_1" xmlns="http://www.w3.org/2000/svg" xmlns:xlink="http://www.w3.org/1999/xlink" x="0px" y="0px"
	 width="60px" height="30px" viewBox="0 0 60 30" enable-background="new 0 0 60 30" xml:space="preserve">
<g>
	<path fill-rule="evenodd" clip-rule="evenodd" fill="#0060A9" d="M53.818,27.572c1.952,0,3.534-1.582,3.534-3.533V5.961
		c0-1.951-1.582-3.533-3.534-3.533H6.182c-1.952,0-3.534,1.582-3.534,3.533v18.078c0,1.951,1.582,3.533,3.534,3.533H53.818
		L53.818,27.572z"/>
	<path fill-rule="evenodd" clip-rule="evenodd" fill="#FFF100" d="M6.684,26.816c-1.91,0-3.262-1.312-3.262-3.178V6.359
		c0-1.863,1.352-3.176,3.262-3.176h46.633c1.91,0,3.262,1.312,3.262,3.176v17.279c0,1.865-1.352,3.178-3.262,3.178H6.684
		L6.684,26.816z M52.8,26.1c1.866,0,2.99-1.057,2.99-2.836V6.736c0-1.779-1.124-2.836-2.99-2.836H7.199
		C5.334,3.9,4.21,4.957,4.21,6.736v16.527c0,1.779,1.124,2.836,2.989,2.836H52.8L52.8,26.1z"/>
	<path fill-rule="evenodd" clip-rule="evenodd" fill="#FFF100" d="M49.104,20.021c-2.291,0-4.456-1.174-4.456-3.738
		s2.165-3.738,4.456-3.738c2.292,0,4.457,1.174,4.457,3.738S51.396,20.021,49.104,20.021L49.104,20.021z M10.427,17.859h5.324
		l0.97,1.975h3.135l-4.953-9.686h-3.413l-4.713,9.686h2.75L10.427,17.859L10.427,17.859z M22.676,10.248h-2.411v9.586h2.411V10.248
		L22.676,10.248z M31.341,18.447V14.6c-0.468-1.834-2.68-1.957-3.932-1.957c-1.819,0-3.705,0.307-3.973,2.484h2.352
		c0.067-0.414,0.169-1.088,1.338-1.088c0.601,0,1.634,0.041,1.634,0.828c0,0.4-0.451,0.521-0.818,0.561l-2.201,0.254
		c-1.485,0.174-2.587,0.883-2.587,2.27c0,1.471,1.369,2.07,2.704,2.07c1.585,0,2.435-0.588,2.969-1.027
		c0.05,0.4,0.083,0.508,0.217,0.84h2.324L31.341,18.447L31.341,18.447z M44.302,15.068c0-1.562-1.625-2.18-3.333-2.18
		c-1.396,0-2.036,0.787-2.332,1.135c-0.591-0.762-1.166-1.135-2.431-1.135c-1.544,0-1.596,0.662-1.891,1.129h-0.033v-1.041h-2.397
		v6.857h2.496v-4.08c0-0.775,0.345-1.213,1.429-1.193c1.052,0.021,1.085,0.646,1.085,1.246v4.027h2.594V15.82
		c0-0.842,0.215-1.285,1.364-1.26c0.869,0.021,1.213,0.365,1.15,1.207v4.066h2.299V15.068L44.302,15.068z M49.104,14.119
		c-1.729,0-2.051,1.256-2.051,2.164s0.321,2.164,2.051,2.164c1.73,0,2.052-1.256,2.052-2.164S50.835,14.119,49.104,14.119
		L49.104,14.119z M13.039,12.215l1.801,3.791h-3.495L13.039,12.215L13.039,12.215z M28.661,17.285c0,0.867-1.052,1.4-2.086,1.4
		c-0.451,0-1.085-0.199-1.085-0.854c0-0.773,0.718-0.947,1.586-1.068c0.968-0.119,1.352-0.24,1.585-0.387V17.285L28.661,17.285z
		 M54.444,12.266c0,0.635-0.476,1.004-1.006,1.004c-0.533,0-1.008-0.369-1.008-1.004c0-0.633,0.475-1.002,1.008-1.002
		C53.969,11.264,54.444,11.633,54.444,12.266L54.444,12.266z M54.155,12.266c0-0.461-0.329-0.768-0.717-0.768
		c-0.397,0-0.719,0.307-0.719,0.768c0,0.463,0.321,0.771,0.719,0.77v0.002C53.826,13.037,54.155,12.729,54.155,12.266L54.155,12.266
		z M53.902,12.805H53.63l-0.249-0.453h-0.109v0.453h-0.23v-1.08h0.403c0.278,0,0.442,0.08,0.442,0.326
		c0,0.199-0.116,0.271-0.26,0.281L53.902,12.805L53.902,12.805z M53.641,12.027c0-0.111-0.12-0.119-0.207-0.119h-0.162v0.26h0.204
		C53.579,12.168,53.641,12.146,53.641,12.027L53.641,12.027z"/>
</g>
</svg>
