<?xml version="1.0" encoding="utf-8"?>
<!-- Generator: Adobe Illustrator 16.0.4, SVG Export Plug-In . SVG Version: 6.00 Build 0)  -->
<!DOCTYPE svg PUBLIC "-//W3C//DTD SVG 1.0//EN" "http://www.w3.org/TR/2001/REC-SVG-20010904/DTD/svg10.dtd">
<svg version="1.0" id="Layer_1" xmlns="http://www.w3.org/2000/svg" xmlns:xlink="http://www.w3.org/1999/xlink" x="0px" y="0px"
	 width="60px" height="30px" viewBox="0 0 60 30" enable-background="new 0 0 60 30" xml:space="preserve">
<g>
	<rect fill="#F05B22" width="60" height="30"/>
	<g>
		<path fill="#FFFFFF" d="M9.332,12.247h2.173v0.886c0.313-0.369,0.629-0.632,0.948-0.788c0.318-0.157,0.703-0.235,1.153-0.235
			c0.485,0,0.869,0.086,1.151,0.258s0.514,0.427,0.692,0.766c0.366-0.396,0.699-0.666,1-0.809s0.672-0.215,1.113-0.215
			c0.65,0,1.159,0.194,1.524,0.581s0.548,0.992,0.548,1.815v3.813h-2.333V14.86c0-0.274-0.053-0.479-0.159-0.612
			c-0.156-0.209-0.35-0.314-0.581-0.314c-0.273,0-0.494,0.1-0.661,0.298s-0.251,0.517-0.251,0.954v3.134h-2.332v-3.345
			c0-0.267-0.016-0.448-0.047-0.543c-0.049-0.153-0.136-0.275-0.258-0.369s-0.266-0.141-0.43-0.141c-0.269,0-0.488,0.102-0.66,0.304
			s-0.259,0.533-0.259,0.995v3.099H9.332V12.247z"/>
		<path fill="#FFFFFF" d="M20.201,15.301c0-0.927,0.312-1.69,0.938-2.29c0.625-0.601,1.47-0.901,2.533-0.901
			c1.216,0,2.135,0.354,2.756,1.059c0.499,0.567,0.749,1.267,0.749,2.098c0,0.935-0.31,1.699-0.93,2.296
			c-0.619,0.597-1.476,0.896-2.569,0.896c-0.977,0-1.766-0.248-2.367-0.744C20.57,17.1,20.201,16.295,20.201,15.301z M22.534,15.295
			c0,0.541,0.109,0.941,0.328,1.2c0.22,0.26,0.495,0.389,0.826,0.389c0.336,0,0.611-0.127,0.826-0.383
			c0.216-0.255,0.323-0.665,0.323-1.229c0-0.525-0.108-0.917-0.326-1.175c-0.217-0.257-0.485-0.386-0.806-0.386
			c-0.34,0-0.619,0.131-0.841,0.392C22.645,14.363,22.534,14.761,22.534,15.295z"/>
		<path fill="#FFFFFF" d="M26.673,12.247h2.421l1.178,3.848l1.223-3.848h2.349l-2.581,6.072h-2.063L26.673,12.247z"/>
	</g>
	<g>
		<path fill="#333333" d="M43.642,9.937v8.383h-2.178v-0.897c-0.306,0.381-0.584,0.639-0.835,0.771
			c-0.336,0.176-0.709,0.264-1.121,0.264c-0.827,0-1.459-0.315-1.896-0.944s-0.654-1.393-0.654-2.292
			c0-1.007,0.241-1.776,0.724-2.311c0.481-0.533,1.095-0.801,1.838-0.801c0.362,0,0.69,0.062,0.986,0.184
			c0.295,0.122,0.558,0.305,0.786,0.549V9.937H43.642z M41.31,15.266c0-0.476-0.102-0.832-0.304-1.066s-0.457-0.352-0.766-0.352
			c-0.271,0-0.498,0.113-0.681,0.338s-0.274,0.603-0.274,1.132c0,0.496,0.094,0.858,0.283,1.089c0.188,0.231,0.422,0.347,0.7,0.347
			c0.297,0,0.545-0.116,0.743-0.349C41.21,16.171,41.31,15.792,41.31,15.266z"/>
		<path fill="#333333" d="M46.643,14.214l-2.225-0.234c0.084-0.389,0.205-0.694,0.363-0.918c0.158-0.223,0.386-0.416,0.684-0.58
			c0.213-0.118,0.507-0.21,0.881-0.274c0.373-0.064,0.777-0.098,1.212-0.098c0.697,0,1.258,0.04,1.681,0.117
			c0.423,0.078,0.776,0.241,1.058,0.489c0.198,0.172,0.354,0.414,0.47,0.729c0.114,0.314,0.171,0.614,0.171,0.9v2.682
			c0,0.285,0.019,0.51,0.055,0.672s0.115,0.368,0.237,0.62h-2.185c-0.088-0.156-0.145-0.275-0.172-0.357
			c-0.026-0.082-0.053-0.211-0.079-0.386c-0.306,0.293-0.608,0.503-0.909,0.629c-0.412,0.168-0.891,0.252-1.436,0.252
			c-0.725,0-1.274-0.168-1.649-0.504c-0.376-0.335-0.563-0.749-0.563-1.24c0-0.462,0.136-0.841,0.406-1.138
			c0.271-0.298,0.77-0.519,1.498-0.664c0.873-0.175,1.438-0.298,1.698-0.368c0.259-0.07,0.533-0.163,0.823-0.277
			c0-0.286-0.06-0.486-0.178-0.601s-0.325-0.172-0.623-0.172c-0.381,0-0.667,0.062-0.857,0.184
			C46.854,13.771,46.734,13.951,46.643,14.214z M48.661,15.438c-0.32,0.114-0.654,0.216-1.001,0.303
			c-0.473,0.126-0.771,0.25-0.897,0.372c-0.13,0.126-0.194,0.269-0.194,0.429c0,0.183,0.063,0.333,0.191,0.449
			s0.315,0.174,0.563,0.174c0.259,0,0.5-0.062,0.724-0.188c0.223-0.126,0.381-0.279,0.474-0.46c0.094-0.182,0.141-0.417,0.141-0.706
			V15.438z"/>
	</g>
	<circle fill="#FFFFFF" cx="37.245" cy="9.007" r="1.28"/>
	<path fill="#FFFFFF" d="M37.245,11.103l-1.688-0.815c0,0-3.55,4.249,0,10.301l1.688-1.047
		C37.245,19.541,34.219,15.234,37.245,11.103z"/>
</g>
</svg>
