<?xml version="1.0" encoding="utf-8"?>
<!-- Generator: Adobe Illustrator 16.0.4, SVG Export Plug-In . SVG Version: 6.00 Build 0)  -->
<!DOCTYPE svg PUBLIC "-//W3C//DTD SVG 1.0//EN" "http://www.w3.org/TR/2001/REC-SVG-20010904/DTD/svg10.dtd">
<svg version="1.0" id="Layer_1" xmlns="http://www.w3.org/2000/svg" xmlns:xlink="http://www.w3.org/1999/xlink" x="0px" y="0px"
	 width="60px" height="30px" viewBox="0 0 60 30" enable-background="new 0 0 60 30" xml:space="preserve">
<g>
	<path fill-rule="evenodd" clip-rule="evenodd" fill="#FFDC00" d="M2.5,19.768v2.834c5.872-1.017,23.555-2.374,52.897-3.159v-0.519
		C25.324,18.539,9.981,18.837,2.5,19.768L2.5,19.768z"/>
	<polygon fill-rule="evenodd" clip-rule="evenodd" fill="#FFDC00" points="23.782,7.097 24.224,5.594 27.314,5.594 26.872,7.101 
		23.782,7.097 	"/>
</g>
<path fill-rule="evenodd" clip-rule="evenodd" fill="#006DA5" d="M57.335,8.931h-2.859c0.102-1.204-0.275-1.844-1.23-1.846
	c-0.812-0.003-1.394,0.457-1.43,1.194c-0.03,0.626,0.363,0.99,1.194,1.375c1.027,0.476,1.76,0.835,2.376,1.326
	c0.615,0.49,0.982,1.292,0.949,2.157c-0.075,1.973-1.81,3.427-5.551,3.375c-2.262-0.031-3.604-0.933-3.74-2.485
	c-0.036-0.42-0.009-0.783,0.048-1.151h2.932c-0.099,1.108,0.255,1.953,1.502,1.923c1.094-0.027,1.797-0.612,1.821-1.314
	c0.019-0.548-0.269-0.902-0.717-1.151c-0.991-0.552-2.137-1.084-2.957-1.733c-0.604-0.479-0.887-1.155-0.872-1.945
	c0.039-2.103,1.96-3.258,4.905-3.289c1.915-0.02,3.733,0.839,3.792,2.389C57.514,8.188,57.451,8.559,57.335,8.931L57.335,8.931z
	 M38.797,8.377c0.999,0,1.999,0,2.999,0c0.156-0.8,0.695-1.347,1.762-1.354c0.966-0.007,1.424,0.492,1.258,1.354
	c-0.062,0.286-0.156,0.573-0.22,0.859c-5.187-0.189-7.508,1.129-7.768,3.986c-0.177,1.937,0.821,3.143,2.853,3.234
	c1.139,0.052,2.319-0.407,3.387-1.4c-0.039,0.354-0.051,0.726-0.069,1.072h2.792c0.082-0.622,0.155-1.283,0.325-1.932
	c0.436-1.66,1.031-3.328,1.489-4.981c0.699-2.521-0.723-3.904-3.806-3.901C40.913,5.318,39.139,6.403,38.797,8.377L38.797,8.377z
	 M44.043,10.947c-0.612,2.238-1.712,3.622-3.049,3.616c-0.714-0.003-1.216-0.626-1.186-1.387
	C39.875,11.514,41.51,10.864,44.043,10.947L44.043,10.947z M34.743,7.177l1.14-3.811h2.935l-3.709,12.761h-2.723l0.305-1.354
	c-0.959,1.123-2.173,1.679-3.216,1.667c-2.366-0.027-3.464-2.022-3.229-4.142c0.431-3.909,2.722-6.711,5.788-6.729
	C33.287,5.562,34.215,6.097,34.743,7.177L34.743,7.177z M32.511,7.428c0.956,0.051,1.538,0.843,1.506,1.955
	c-0.074,2.592-1.893,5.333-3.533,5.184c-0.92-0.083-1.356-0.693-1.327-1.758C29.23,10.067,31.034,7.35,32.511,7.428L32.511,7.428z
	 M23.201,9.064l3.642-1.86l-2.636,8.921h-3.092L23.201,9.064L23.201,9.064z M13.048,16.14l-3.039-0.012l0.407-1.453
	c-1.431,1.294-2.75,1.871-4.225,1.782c-1.472-0.089-2.479-1.064-2.521-2.265c-0.02-0.579,0.127-1.332,0.53-2.674l1.774-5.899h3.088
	l-1.89,6.153c-0.504,1.641-0.255,2.514,0.877,2.557c1.104,0.042,2.346-0.932,3.082-3.007c0.6-1.689,1.116-3.294,1.803-5.727h3.042
	l-0.411,1.5c1.42-1.327,2.85-1.854,4.206-1.775c1.479,0.087,2.45,1.09,2.506,2.203c0.032,0.65-0.096,1.363-0.499,2.705l-1.774,5.899
	h-3.089l1.891-6.153c0.453-1.478,0.273-2.512-0.858-2.535c-1.141-0.024-2.364,0.91-3.101,2.985
	C14.248,12.114,13.731,13.719,13.048,16.14L13.048,16.14z"/>
<path fill="#006DA5" d="M31.852,26.571L31.852,26.571l1.154-3.74c0.122-0.028,0.257-0.051,0.402-0.064
	c0.148-0.014,0.292-0.02,0.436-0.02c0.192,0,0.361,0.022,0.511,0.067c0.152,0.045,0.271,0.115,0.364,0.208
	c0.078,0.076,0.139,0.167,0.174,0.273c0.038,0.104,0.05,0.223,0.034,0.353c-0.024,0.186-0.087,0.354-0.186,0.504
	c-0.103,0.149-0.225,0.276-0.371,0.378c-0.15,0.101-0.309,0.177-0.474,0.222l-0.008,0.012c0.13,0.048,0.218,0.135,0.271,0.268
	c0.052,0.132,0.072,0.296,0.062,0.493c-0.011,0.265-0.021,0.486-0.021,0.664c-0.004,0.178,0.001,0.308,0.018,0.383h-0.484
	c-0.006-0.027-0.007-0.087-0.008-0.174c0.002-0.091,0.004-0.2,0.007-0.327c0.004-0.13,0.009-0.268,0.019-0.417
	c0.016-0.259-0.019-0.447-0.1-0.566c-0.085-0.115-0.222-0.174-0.411-0.171h-0.417l-0.504,1.655H31.852L31.852,26.571z
	 M33.368,23.158L33.368,23.158l-0.429,1.396h0.416c0.197-0.002,0.374-0.042,0.529-0.118c0.155-0.075,0.28-0.177,0.374-0.304
	s0.152-0.268,0.171-0.423c0.021-0.203-0.032-0.352-0.153-0.447s-0.293-0.144-0.51-0.144c-0.093,0-0.169,0.002-0.235,0.011
	C33.469,23.139,33.414,23.146,33.368,23.158L33.368,23.158z M36.738,26.07L36.738,26.07l0.026,0.35
	c-0.111,0.059-0.246,0.106-0.406,0.149c-0.163,0.042-0.334,0.062-0.521,0.064c-0.239-0.003-0.43-0.054-0.57-0.152
	c-0.144-0.096-0.241-0.229-0.292-0.395c-0.054-0.163-0.068-0.349-0.045-0.552c0.024-0.208,0.085-0.414,0.183-0.619
	c0.095-0.206,0.218-0.395,0.37-0.566c0.152-0.169,0.323-0.305,0.519-0.408c0.192-0.102,0.401-0.155,0.621-0.158
	c0.172,0,0.314,0.034,0.426,0.096c0.114,0.062,0.194,0.144,0.241,0.251c0.05,0.104,0.066,0.226,0.051,0.357
	c-0.03,0.237-0.134,0.42-0.31,0.553c-0.176,0.129-0.403,0.219-0.683,0.27c-0.279,0.048-0.586,0.07-0.926,0.062
	c-0.014,0.042-0.022,0.093-0.026,0.154c-0.008,0.062-0.009,0.124-0.006,0.192c0.004,0.064,0.014,0.121,0.027,0.171
	c0.039,0.124,0.11,0.218,0.208,0.276c0.097,0.06,0.217,0.091,0.357,0.091c0.161-0.004,0.305-0.023,0.43-0.06
	C36.539,26.16,36.647,26.118,36.738,26.07L36.738,26.07z M36.89,24.493L36.89,24.493c0.01-0.11-0.017-0.194-0.086-0.254
	c-0.069-0.059-0.164-0.09-0.291-0.09c-0.149,0.003-0.29,0.045-0.418,0.13c-0.131,0.082-0.244,0.188-0.344,0.318
	c-0.101,0.129-0.179,0.268-0.235,0.414c0.248,0.005,0.472-0.006,0.672-0.034s0.364-0.082,0.486-0.157
	C36.798,24.744,36.87,24.634,36.89,24.493L36.89,24.493z M37.8,26.571L37.8,26.571h-0.462l0.588-1.932
	c0.095-0.305,0.171-0.569,0.223-0.794h0.417l-0.131,0.535h0.012c0.146-0.191,0.313-0.341,0.499-0.442
	c0.187-0.102,0.379-0.155,0.579-0.155c0.112,0,0.217,0.022,0.315,0.07c0.102,0.045,0.18,0.124,0.234,0.237
	c0.055,0.109,0.074,0.259,0.055,0.447c-0.008,0.062-0.021,0.133-0.039,0.211c-0.021,0.076-0.04,0.152-0.063,0.229l-0.491,1.594
	h-0.462l0.483-1.577c0.033-0.109,0.058-0.228,0.075-0.349c0.019-0.139,0.001-0.251-0.054-0.338
	c-0.054-0.088-0.161-0.133-0.319-0.136c-0.112,0-0.239,0.045-0.375,0.13c-0.137,0.084-0.267,0.205-0.39,0.366
	c-0.123,0.16-0.22,0.354-0.291,0.58L37.8,26.571L37.8,26.571z M41.436,23.339L41.436,23.339l0.508-0.147l-0.201,0.654h0.653
	l-0.116,0.366h-0.653l-0.403,1.323c-0.054,0.149-0.088,0.296-0.107,0.434c-0.01,0.082,0.003,0.146,0.039,0.194
	c0.037,0.045,0.099,0.07,0.189,0.07c0.084,0,0.158-0.005,0.222-0.022L41.5,26.577c-0.044,0.018-0.102,0.028-0.164,0.037
	c-0.066,0.008-0.135,0.014-0.202,0.014c-0.135,0-0.245-0.025-0.323-0.076c-0.079-0.048-0.134-0.109-0.163-0.191
	c-0.028-0.079-0.037-0.166-0.026-0.262c0.01-0.079,0.024-0.158,0.046-0.239c0.021-0.082,0.045-0.169,0.076-0.268l0.427-1.38h-0.389
	l0.11-0.366h0.389L41.436,23.339L41.436,23.339z M45.377,26.571L45.377,26.571h-0.439c0.01-0.084,0.027-0.186,0.056-0.307
	c0.025-0.124,0.055-0.254,0.089-0.397H45.07c-0.182,0.282-0.368,0.479-0.562,0.598c-0.197,0.115-0.39,0.172-0.586,0.169
	c-0.163-0.003-0.297-0.042-0.406-0.118c-0.106-0.079-0.184-0.184-0.229-0.318c-0.047-0.136-0.062-0.29-0.042-0.465
	c0.028-0.239,0.099-0.476,0.21-0.707c0.111-0.229,0.26-0.437,0.445-0.625c0.183-0.187,0.397-0.335,0.644-0.445
	c0.247-0.112,0.519-0.169,0.817-0.172c0.135,0,0.267,0.012,0.394,0.028c0.128,0.02,0.237,0.045,0.332,0.073l-0.448,1.425
	c-0.05,0.158-0.091,0.315-0.126,0.471c-0.038,0.155-0.066,0.299-0.09,0.434C45.4,26.35,45.386,26.471,45.377,26.571L45.377,26.571z
	 M45.267,25.017L45.267,25.017l0.254-0.822c-0.057-0.025-0.162-0.036-0.316-0.039c-0.178,0.003-0.352,0.045-0.517,0.127
	c-0.164,0.081-0.315,0.194-0.447,0.335c-0.135,0.141-0.246,0.299-0.335,0.476c-0.089,0.178-0.144,0.363-0.166,0.556
	c-0.013,0.104-0.01,0.199,0.008,0.29c0.018,0.093,0.057,0.166,0.117,0.225c0.061,0.057,0.153,0.085,0.271,0.088
	c0.133-0.003,0.271-0.054,0.415-0.158c0.147-0.104,0.283-0.248,0.412-0.434C45.089,25.476,45.189,25.262,45.267,25.017
	L45.267,25.017z M49.734,26.064L49.734,26.064l0.017,0.384c-0.112,0.051-0.256,0.09-0.426,0.126
	c-0.173,0.034-0.366,0.051-0.581,0.054c-0.32-0.003-0.587-0.064-0.803-0.191c-0.213-0.127-0.366-0.307-0.463-0.541
	c-0.097-0.236-0.126-0.516-0.088-0.839c0.028-0.239,0.087-0.474,0.175-0.695c0.089-0.226,0.206-0.435,0.347-0.626
	c0.144-0.194,0.311-0.363,0.499-0.51c0.437-0.335,0.936-0.504,1.496-0.507c0.211,0.003,0.384,0.022,0.522,0.062
	c0.139,0.04,0.23,0.079,0.279,0.119l-0.196,0.377c-0.065-0.042-0.163-0.079-0.289-0.107c-0.124-0.027-0.273-0.045-0.442-0.045
	c-0.2,0-0.398,0.037-0.594,0.11c-0.197,0.073-0.378,0.177-0.543,0.312c-0.2,0.169-0.366,0.38-0.497,0.631
	c-0.134,0.251-0.216,0.521-0.253,0.812c-0.027,0.23-0.015,0.437,0.039,0.625c0.055,0.186,0.158,0.332,0.314,0.444
	c0.158,0.11,0.374,0.167,0.656,0.17c0.146,0,0.294-0.015,0.441-0.043C49.492,26.157,49.621,26.118,49.734,26.064L49.734,26.064z
	 M52.469,26.571L52.469,26.571h-0.439c0.01-0.084,0.027-0.186,0.056-0.307c0.026-0.124,0.055-0.254,0.089-0.397h-0.011
	c-0.183,0.282-0.369,0.479-0.563,0.598c-0.196,0.115-0.389,0.172-0.586,0.169c-0.163-0.003-0.297-0.042-0.405-0.118
	c-0.106-0.079-0.185-0.184-0.23-0.318c-0.046-0.136-0.062-0.29-0.041-0.465c0.027-0.239,0.098-0.476,0.209-0.707
	c0.111-0.229,0.26-0.437,0.445-0.625c0.183-0.187,0.397-0.335,0.644-0.445c0.247-0.112,0.519-0.169,0.817-0.172
	c0.136,0,0.267,0.012,0.395,0.028c0.127,0.02,0.236,0.045,0.332,0.073l-0.449,1.425c-0.05,0.158-0.091,0.315-0.126,0.471
	c-0.038,0.155-0.065,0.299-0.09,0.434C52.492,26.35,52.478,26.471,52.469,26.571L52.469,26.571z M52.358,25.017L52.358,25.017
	l0.254-0.822c-0.056-0.025-0.162-0.036-0.316-0.039c-0.178,0.003-0.352,0.045-0.516,0.127c-0.165,0.081-0.316,0.194-0.448,0.335
	c-0.135,0.141-0.246,0.299-0.335,0.476c-0.088,0.178-0.144,0.363-0.166,0.556c-0.013,0.104-0.01,0.199,0.008,0.29
	c0.018,0.093,0.057,0.166,0.117,0.225c0.062,0.057,0.153,0.085,0.271,0.088c0.133-0.003,0.271-0.054,0.416-0.158
	c0.147-0.104,0.282-0.248,0.411-0.434C52.181,25.476,52.281,25.262,52.358,25.017L52.358,25.017z M53.629,26.571L53.629,26.571
	h-0.462l0.539-1.757c0.052-0.181,0.101-0.355,0.144-0.524c0.042-0.166,0.076-0.315,0.105-0.444h0.411
	c-0.045,0.188-0.091,0.386-0.143,0.591h0.017c0.073-0.124,0.157-0.236,0.251-0.335c0.096-0.099,0.197-0.175,0.309-0.23
	c0.11-0.057,0.229-0.088,0.351-0.088c0.048,0,0.093,0.006,0.134,0.012l-0.144,0.462c-0.033-0.006-0.078-0.012-0.129-0.012
	c-0.136,0.003-0.271,0.054-0.4,0.149c-0.13,0.099-0.25,0.233-0.357,0.402c-0.106,0.17-0.194,0.361-0.259,0.575L53.629,26.571
	L53.629,26.571z"/>
</svg>
