<?xml version="1.0" encoding="utf-8"?>
<!-- Generator: Adobe Illustrator 16.0.4, SVG Export Plug-In . SVG Version: 6.00 Build 0)  -->
<!DOCTYPE svg PUBLIC "-//W3C//DTD SVG 1.0//EN" "http://www.w3.org/TR/2001/REC-SVG-20010904/DTD/svg10.dtd">
<svg version="1.0" id="Layer_1" xmlns="http://www.w3.org/2000/svg" xmlns:xlink="http://www.w3.org/1999/xlink" x="0px" y="0px"
	 width="60px" height="30px" viewBox="0 0 60 30" enable-background="new 0 0 60 30" xml:space="preserve">
<rect fill="#FFD100" width="60" height="30"/>
<g>
	<path d="M50.782,19.23c-0.373,0.395-0.639,1.295-0.015,1.681c0.892,0.551,2.058-0.568,1.948-1.398
		C52.577,18.47,51.32,18.659,50.782,19.23 M52.894,19.438c0.09,0.7-0.346,1.263-0.788,1.532c-0.371,0.225-0.915,0.312-1.338,0.118
		c-0.557-0.255-0.704-0.999-0.401-1.576c0.312-0.598,1.351-1.304,2.156-0.743C52.709,18.899,52.854,19.121,52.894,19.438"/>
	<path d="M51.406,19.49c-0.019,0.13-0.043,0.254-0.074,0.371C51.771,20.081,52.19,19.362,51.406,19.49 M51.809,20.055
		c0.041,0.173,0.131,0.296,0.193,0.447c-0.075,0.033-0.213,0.004-0.312,0.015c-0.048-0.146-0.142-0.246-0.179-0.402h-0.223
		c-0.028,0.141-0.077,0.261-0.104,0.402h-0.253c0.069-0.437,0.167-0.844,0.253-1.265c0.304,0.032,0.699-0.078,0.893,0.089
		C52.317,19.551,52.07,20.002,51.809,20.055"/>
	<path fill="#131313" d="M50.733,13.272c0,0-4.14,3.914-5.766,5.452h4.595c-0.157,0.771-0.324,1.529-0.49,2.29h-7.926l0.475-2.214
		c0,0,0.503-0.443,0.715-0.656c1.609-1.622,3.42-3.169,5.026-4.758h-4.596c0.15-0.772,0.337-1.509,0.477-2.29
		c2.627,0,7.939-0.003,7.939-0.003L50.733,13.272z"/>
	<path fill="#131313" d="M42.083,11.111c-0.144,0.778-0.325,1.519-0.476,2.29c-0.858-0.035-1.858-0.005-2.691-0.016
		c-0.265,1.044-0.454,2.33-0.744,3.466c-0.126,0.494-0.297,1.252-0.029,1.65c0.368,0.549,1.469,0.496,2.29,0.401
		c-0.133,0.72-0.308,1.398-0.446,2.111c-1.729,0.469-3.557-0.08-4.193-1.294c-0.389-0.741-0.341-1.861-0.164-2.81
		c0.507-2.713,1.206-5.456,1.695-8.104h2.558c-0.176,0.74-0.321,1.512-0.476,2.274c0.848,0.035,1.76,0.005,2.632,0.015
		C42.06,11.095,42.081,11.094,42.083,11.111"/>
	<path fill="#131313" d="M35.719,11.111c-0.143,0.774-0.332,1.502-0.477,2.274c-1.04-0.127-2.105,0.029-2.617,0.729
		c-0.505,0.949-0.714,2.168-0.951,3.347c-0.24,1.191-0.514,2.395-0.743,3.554h-2.543c0.232-1.176,0.522-2.406,0.773-3.644
		c0.248-1.229,0.464-2.459,0.862-3.539c0.382-1.035,1.098-1.854,2.037-2.364c0.885-0.48,2.353-0.762,3.613-0.372
		C35.695,11.095,35.716,11.094,35.719,11.111"/>
	<path fill="#131313" d="M23.079,13.282c-0.573,0.37-0.898,0.871-1.101,1.412c1.26,0.035,2.79,0.005,4.074,0.016
		C26.325,12.958,24.253,12.524,23.079,13.282 M28.075,16.791h-6.647c-0.083,0.462-0.058,1.032,0.104,1.368
		c0.707,1.475,3.534,0.776,4.535,0.03c0.342,0.561,0.672,1.133,1.012,1.695c-0.719,0.535-1.594,0.957-2.647,1.16
		c-1.757,0.337-3.541,0.056-4.476-0.923c-0.874-0.914-1.133-2.551-0.862-4.089c0.395-2.244,1.601-4.042,3.568-4.788
		c1.671-0.635,3.769-0.257,4.788,0.804c0.487,0.505,0.823,1.244,0.893,2.245C28.409,15.252,28.272,16.012,28.075,16.791"/>
	<path fill="#131313" d="M19.242,8.82c-0.885,4.049-1.73,8.134-2.603,12.194h-2.527c0.285-1.42,0.588-2.822,0.892-4.224
		c-1.335-0.023-3.027-0.024-4.461,0c-0.319,1.391-0.593,2.828-0.907,4.224H7.094c0.836-4.091,1.733-8.12,2.572-12.209h2.572
		c-0.406,1.885-0.808,3.773-1.205,5.666c1.453,0.035,2.97,0.005,4.447,0.015c0.422-1.877,0.813-3.786,1.219-5.681
		C17.542,8.816,18.424,8.786,19.242,8.82"/>
</g>
</svg>
