<?xml version="1.0" encoding="utf-8"?>
<!-- Generator: Adobe Illustrator 16.0.4, SVG Export Plug-In . SVG Version: 6.00 Build 0)  -->
<!DOCTYPE svg PUBLIC "-//W3C//DTD SVG 1.0//EN" "http://www.w3.org/TR/2001/REC-SVG-20010904/DTD/svg10.dtd">
<svg version="1.0" id="Layer_1" xmlns="http://www.w3.org/2000/svg" xmlns:xlink="http://www.w3.org/1999/xlink" x="0px" y="0px"
	 width="60px" height="30px" viewBox="0 0 60 30" enable-background="new 0 0 60 30" xml:space="preserve">
<g>
	<polygon fill-rule="evenodd" clip-rule="evenodd" fill="#ED1C2E" points="30.129,9.614 30.129,1.989 22.3,9.614 30.129,9.614 	"/>
	<polygon fill-rule="evenodd" clip-rule="evenodd" fill="#004FA3" points="57.353,18.449 57.353,9.614 2.647,9.614 2.647,18.449 
		57.353,18.449 	"/>
	<path fill-rule="evenodd" clip-rule="evenodd" fill="#FDB827" d="M18.139,17.273c1.892,0,3.424-1.532,3.424-3.424
		c0-1.89-1.532-3.423-3.424-3.423c-1.891,0-3.423,1.533-3.423,3.423C14.716,15.741,16.248,17.273,18.139,17.273L18.139,17.273z"/>
	<path fill-rule="evenodd" clip-rule="evenodd" fill="#FDB827" d="M6.125,11.477H5.49v-0.254h3.145c1.472,0,2.63,1.294,2.63,2.781
		c0,1.911-1.327,2.723-2.435,2.823c-0.279,0.025-0.566,0.043-0.854,0.043H5.49v-0.254h0.635V11.477L6.125,11.477z M7.545,16.616
		h0.803c0.735,0,1.057-0.313,1.2-0.787c0.076-0.244,0.093-0.523,0.093-0.836v-1.987c0-0.667-0.093-0.888-0.16-1.03
		c-0.16-0.355-0.457-0.499-1.133-0.499H7.545V16.616L7.545,16.616z"/>
	<path fill-rule="evenodd" clip-rule="evenodd" fill="#FDB827" d="M25.154,16.87v-0.254h0.575v-5.14h-0.575v-0.254h2.756v0.254
		h-0.761v5.14h0.947c0.955,0,1.311-0.795,1.572-1.598h0.236l-0.084,1.852H25.154L25.154,16.87z"/>
	<path fill-rule="evenodd" clip-rule="evenodd" fill="#FDB827" d="M33.585,16.87v-0.254h0.575v-5.14h-0.575v-0.254h2.756v0.254
		h-0.76v5.14h0.946c0.955,0,1.311-0.795,1.573-1.598h0.236l-0.085,1.852H33.585L33.585,16.87z"/>
	<path fill-rule="evenodd" clip-rule="evenodd" fill="#FDB827" d="M41.096,16.933V16.68c0.203,0,0.575,0.009,0.669-0.245
		l1.994-5.275h0.33l2.097,5.521h0.507v0.253h-2.68V16.68h0.651l-0.457-1.327h-1.732l-0.221,0.608
		c-0.093,0.254-0.169,0.499-0.169,0.575c0,0.211,0.643,0.144,0.761,0.144v0.253H41.096L41.096,16.933z M42.584,15.099h1.521
		l-0.752-2.071L42.584,15.099L42.584,15.099z"/>
	<path fill-rule="evenodd" clip-rule="evenodd" fill="#FDB827" d="M49.434,16.811v-0.253h0.66v-5.141h-0.677v-0.254h3.356
		c0.845,0,1.732,0.381,1.732,1.37c0,0.93-1.175,1.2-1.886,1.276v0.017c1.176,0.22,1.666,0.685,1.666,1.496
		c0,0.702,0.034,1.007,0.152,1.134c0.059,0.059,0.228,0.126,0.65,0.033l0.051,0.178c-0.271,0.144-0.685,0.262-0.989,0.262
		c-1.03,0-1.377-0.465-1.402-1.767c-0.018-1.006-0.195-1.226-0.871-1.226h-0.364v2.621h0.702v0.253H49.434L49.434,16.811z
		 M51.513,13.657h0.355c0.854,0,1.099-0.144,1.099-0.735v-0.82c0-0.405,0.136-0.685-0.845-0.685h-0.609V13.657L51.513,13.657z"/>
	<polygon fill-rule="evenodd" clip-rule="evenodd" fill="#ED1C2E" points="18.139,18.452 18.139,13.834 12.753,19.297 
		12.753,28.011 22.342,18.452 18.139,18.452 	"/>
	<path fill-rule="evenodd" clip-rule="evenodd" fill="#ED1C2E" d="M18.198,23.885h0.962c0.493,0,0.911,0.208,0.911,0.76
		c0,0.332-0.127,0.471-0.424,0.57v0.018c0.041,0.031,0.09,0.066,0.134,0.131l0.477,0.711H19.34l-0.349-0.703h-0.015v0.703h-0.778
		V23.885L18.198,23.885z M18.977,24.854h0.056c0.131,0,0.261-0.021,0.261-0.183c0-0.169-0.118-0.189-0.255-0.189h-0.062V24.854
		L18.977,24.854z"/>
	<polygon fill-rule="evenodd" clip-rule="evenodd" fill="#ED1C2E" points="22.68,23.885 24.152,23.885 24.152,24.482 23.481,24.482 
		23.481,24.691 24.095,24.691 24.095,25.261 23.481,25.261 23.481,25.476 24.176,25.476 24.176,26.074 22.68,26.074 22.68,23.885 	
		"/>
	<path fill-rule="evenodd" clip-rule="evenodd" fill="#ED1C2E" d="M26.786,23.885h0.764l0.715,1.214h0.023
		c-0.032-0.184-0.066-0.372-0.066-0.559v-0.655h0.761v2.189h-0.761l-0.7-1.15h-0.023c0.026,0.151,0.049,0.294,0.049,0.439v0.711
		h-0.761V23.885L26.786,23.885z"/>
	<polygon fill-rule="evenodd" clip-rule="evenodd" fill="#ED1C2E" points="31.474,23.885 33.147,23.885 33.147,24.596 
		32.709,24.575 32.709,26.074 31.912,26.074 31.912,24.575 31.474,24.596 31.474,23.885 	"/>
	<path fill-rule="evenodd" clip-rule="evenodd" fill="#ED1C2E" d="M37.794,26.074h-0.842l0.76-2.189h0.881l0.781,2.189h-0.842
		l-0.073-0.272h-0.602L37.794,26.074L37.794,26.074z M38.319,25.281l-0.093-0.387c-0.023-0.092-0.038-0.188-0.053-0.281h-0.028
		L38,25.281H38.319L38.319,25.281z"/>
	<path fill-rule="evenodd" clip-rule="evenodd" fill="#ED1C2E" d="M44.84,24.773c-0.128-0.119-0.287-0.222-0.468-0.222
		c-0.238,0-0.433,0.189-0.433,0.428c0,0.241,0.206,0.427,0.444,0.427c0.184,0,0.328-0.078,0.456-0.203l-0.023,0.819
		c-0.127,0.061-0.423,0.087-0.565,0.087c-0.625,0-1.113-0.485-1.113-1.11c0-0.639,0.503-1.149,1.145-1.149
		c0.181,0,0.366,0.032,0.534,0.09L44.84,24.773L44.84,24.773z"/>
	<path fill-rule="evenodd" clip-rule="evenodd" fill="#ED1C2E" d="M48.061,26.074h-0.842l0.761-2.189h0.88l0.781,2.189h-0.842
		l-0.073-0.272h-0.601L48.061,26.074L48.061,26.074z M48.587,25.281l-0.093-0.387c-0.023-0.092-0.038-0.188-0.053-0.281h-0.029
		l-0.146,0.668H48.587L48.587,25.281z"/>
	<path fill-rule="evenodd" clip-rule="evenodd" fill="#ED1C2E" d="M52.102,23.885h0.961c0.494,0,0.913,0.208,0.913,0.76
		c0,0.332-0.129,0.471-0.425,0.57v0.018c0.041,0.031,0.09,0.066,0.134,0.131l0.476,0.711h-0.917l-0.349-0.703H52.88v0.703h-0.778
		V23.885L52.102,23.885z M52.88,24.854h0.055c0.131,0,0.262-0.021,0.262-0.183c0-0.169-0.119-0.189-0.256-0.189H52.88V24.854
		L52.88,24.854z"/>
	<path fill-rule="evenodd" clip-rule="evenodd" fill="#FDB827" d="M55.409,17.529c0-0.365,0.296-0.635,0.646-0.635
		c0.347,0,0.644,0.27,0.644,0.635c0,0.368-0.297,0.638-0.644,0.638C55.705,18.167,55.409,17.897,55.409,17.529L55.409,17.529z
		 M56.055,18.062c0.288,0,0.516-0.226,0.516-0.532c0-0.302-0.228-0.528-0.516-0.528c-0.291,0-0.519,0.227-0.519,0.528
		C55.536,17.836,55.764,18.062,56.055,18.062L56.055,18.062z M55.921,17.897H55.81v-0.733h0.279c0.174,0,0.259,0.063,0.259,0.208
		c0,0.132-0.082,0.188-0.19,0.202l0.209,0.323h-0.125l-0.193-0.317h-0.127V17.897L55.921,17.897z M56.053,17.485
		c0.095,0,0.179-0.007,0.179-0.119c0-0.091-0.082-0.108-0.159-0.108h-0.151v0.228H56.053L56.053,17.485z"/>
</g>
</svg>
