<?xml version="1.0" encoding="utf-8"?><!DOCTYPE svg PUBLIC "-//W3C//DTD SVG 1.0//EN" "http://www.w3.org/TR/2001/REC-SVG-20010904/DTD/svg10.dtd"><svg xmlns="http://www.w3.org/2000/svg" xmlns:xlink="http://www.w3.org/1999/xlink"><symbol viewBox="0 0 60 30" id="AL"><g fill-rule="evenodd" clip-rule="evenodd"><path fill="#0060A9" d="M53.818 27.572a3.533 3.533 0 0 0 3.534-3.533V5.961a3.533 3.533 0 0 0-3.534-3.533H6.182a3.533 3.533 0 0 0-3.534 3.533v18.078a3.533 3.533 0 0 0 3.534 3.533h47.636z"/><path fill="#FFF100" d="M6.684 26.816c-1.91 0-3.262-1.312-3.262-3.178V6.359c0-1.863 1.352-3.176 3.262-3.176h46.633c1.91 0 3.262 1.312 3.262 3.176v17.279c0 1.865-1.352 3.178-3.262 3.178H6.684zM52.8 26.1c1.866 0 2.99-1.057 2.99-2.836V6.736c0-1.779-1.124-2.836-2.99-2.836H7.199C5.334 3.9 4.21 4.957 4.21 6.736v16.527c0 1.779 1.124 2.836 2.989 2.836H52.8v.001z"/><path fill="#FFF100" d="M49.104 20.021c-2.291 0-4.456-1.174-4.456-3.738s2.165-3.738 4.456-3.738c2.292 0 4.457 1.174 4.457 3.738s-2.165 3.738-4.457 3.738zm-38.677-2.162h5.324l.97 1.975h3.135l-4.953-9.686H11.49l-4.713 9.686h2.75l.9-1.975zm12.249-7.611h-2.411v9.586h2.411v-9.586zm8.665 8.199V14.6c-.468-1.834-2.68-1.957-3.932-1.957-1.819 0-3.705.307-3.973 2.484h2.352c.067-.414.169-1.088 1.338-1.088.601 0 1.634.041 1.634.828 0 .4-.451.521-.818.561l-2.201.254c-1.485.174-2.587.883-2.587 2.27 0 1.471 1.369 2.07 2.704 2.07 1.585 0 2.435-.588 2.969-1.027.05.4.083.508.217.84h2.324l-.027-1.388zm12.961-3.379c0-1.562-1.625-2.18-3.333-2.18-1.396 0-2.036.787-2.332 1.135-.591-.762-1.166-1.135-2.431-1.135-1.544 0-1.596.662-1.891 1.129h-.033v-1.041h-2.397v6.857h2.496v-4.08c0-.775.345-1.213 1.429-1.193 1.052.021 1.085.646 1.085 1.246v4.027h2.594V15.82c0-.842.215-1.285 1.364-1.26.869.021 1.213.365 1.15 1.207v4.066h2.299v-4.765zm4.802-.949c-1.729 0-2.051 1.256-2.051 2.164s.321 2.164 2.051 2.164c1.73 0 2.052-1.256 2.052-2.164s-.321-2.164-2.052-2.164zm-36.065-1.904l1.801 3.791h-3.495l1.694-3.791zm15.622 5.07c0 .867-1.052 1.4-2.086 1.4-.451 0-1.085-.199-1.085-.854 0-.773.718-.947 1.586-1.068.968-.119 1.352-.24 1.585-.387v.909zm25.783-5.019c0 .635-.476 1.004-1.006 1.004-.533 0-1.008-.369-1.008-1.004 0-.633.475-1.002 1.008-1.002.531 0 1.006.369 1.006 1.002zm-.289 0c0-.461-.329-.768-.717-.768-.397 0-.719.307-.719.768 0 .463.321.771.719.77v.002c.388-.001.717-.309.717-.772zm-.253.539h-.272l-.249-.453h-.109v.453h-.23v-1.08h.403c.278 0 .442.08.442.326 0 .199-.116.271-.26.281l.275.473zm-.261-.778c0-.111-.12-.119-.207-.119h-.162v.26h.204c.103 0 .165-.022.165-.141z"/></g></symbol><symbol viewBox="0 0 60 30" id="LL"><g transform="matrix(.13 0 0 -.13 0 160.262)"><path fill="#09A95A" d="M239.797 1042.155c-79.305 0-158.609 0-237.906-.055-1.547 0-1.891.391-1.891 2.07.047 78.617.047 157.242 0 235.859 0 1.695.344 2.07 1.891 2.07 158.734-.039 317.484-.039 476.226 0 1.539 0 1.883-.375 1.883-2.07-.047-78.617-.047-157.242 0-235.859 0-1.68-.344-2.07-1.883-2.07-79.445.055-158.883.055-238.32.055"/><path fill="#09A95A" d="M105.906 1207.584c.008-.227.016-.453.016-.672a59.582 59.582 0 0 1-8.227-2.523c-4.555-1.758-8.906-3.875-12.32-7.523-3.047-3.273-3.953-7.086-2.922-11.391 1.297-5.359 5.031-9 8.938-12.469 4.344-3.875 9.141-7.188 13.656-10.844 8.094-6.562 15.594-13.594 17.875-24.469 4.141 5.312 6.875 16.391.797 24.578-2.797 3.773-6.242 6.859-9.797 9.875-4.016 3.406-8.344 6.469-11.688 10.594-4.562 5.633-4.031 11.062 1.477 15.789 3.266 2.805 7.055 4.68 10.992 6.281 8.078 3.266 16.516 5.195 25.062 6.844-3.531.125-7.055.195-10.57.117-12.711-.273-25.461.109-38.055-2.062-8.078-1.398-15.906-3.531-22.664-8.453-9.289-6.766-11.805-17.969-6.32-28.047 3.062-5.609 7.398-10.172 12.164-14.312 6.086-5.297 12.398-10.328 18.469-15.656 6.086-5.328 11.805-11.031 15.414-18.469.883-1.828 1.609-3.719 2.609-6.062.352.578.523.953.781 1.266 5.797 6.922 6.305 14.828 1.438 22.797-2.688 4.422-6.234 8.125-9.891 11.734-4.914 4.859-10.336 9.172-15.391 13.875-3.359 3.125-6.672 6.312-9 10.328-3.633 6.297-2.688 13.344 2.375 18.469 2.094 2.125 4.547 3.719 7.188 5.039 5.563 2.772 11.532 4.241 17.594 5.366M198.164 1152.6v.047c1.914 0 3.836-.141 5.734.016 6.195.531 11.547 2.844 14.43 8.664 3.656 7.383 5.32 15.359 5.062 23.586-.195 5.992-4.094 10.5-10 11.688-6.422 1.281-12.938 1.156-19.297-.578-4.359-1.195-7.656-3.992-9.578-8.078-3.25-6.891-4.789-14.289-4.906-21.828-.125-7.766 5.094-12.922 12.812-13.5 1.907-.142 3.829-.017 5.743-.017M282.141 1152.365c2.734 0 5.469-.031 8.211.016 3.43.047 4.984 1.359 5.703 4.672.922 4.281 1.867 8.547 2.766 12.828.969 4.609 2.047 9.203 2.789 13.852 1.141 7.086-2.117 11.758-9.156 13.055-6.086 1.109-12.281.453-18.43.5-1.25.016-1.93-.891-2.18-2.094-.336-1.594-.562-3.234-1.016-4.805-.531-1.82.188-2.344 1.898-2.32 4.102.047 8.211.016 12.312.008 1.094 0 2.195-.008 3.195-.57 1.555-.875 2.109-2.688 1.625-4.883-.406-1.836-1.836-1.086-2.828-1.102-3.633-.039-7.242-.094-10.805-.938-8.578-2.039-13.984-7.766-14.781-15.719-.594-5.961 2.062-9.828 7.859-11.438 4.213-1.171 8.533-1.062 12.838-1.062M400.687 1152.381c2.805 0 5.609-.062 8.414.016 2.945.062 4.625 1.312 5.203 3.984 1.914 8.734 3.906 17.469 5.586 26.25 1.523 7.953-1.68 12.875-9.125 14.188-6.031 1.062-12.148.422-18.234.484-1.125 0-1.898-.68-2.156-1.844-.344-1.531-.695-3.062-1.031-4.594-.531-2.469-.289-2.781 2.18-2.781 4.234-.016 8.477.047 12.719-.031 3.102-.062 4.547-1.844 4.18-4.766-.164-1.273-.617-1.875-2.062-1.836-3.211.086-6.414.07-9.617-.445-9.312-1.484-15.305-6.891-16.781-15.25-1.086-6.188 1.664-10.609 7.695-12.312 4.272-1.204 8.654-1.079 13.029-1.063M356.016 1161.553c.781.891 1.203 1.391 1.648 1.875 6.812 7.297 13.523 14.688 20.484 21.836 2.766 2.836 4.438 5.883 4.805 9.82.148 1.688.016 2.25-1.852 2.227-9.156-.094-18.312-.039-27.476-.047-2.961 0-3.25-.25-3.922-3.242a202.464 202.464 0 0 1-.789-3.609c-.438-2.109-.219-2.398 1.938-2.406 4.922-.016 9.844.008 14.766-.016.492 0 1.102.281 1.555-.469-6.414-6.859-12.727-13.875-19.344-20.578-3.656-3.688-6.148-7.703-6.797-12.922-.203-1.641.156-1.75 1.531-1.75 8.133.047 16.273-.016 24.406.031 7.297.047 6.047-1.016 7.742 6.109.688 2.844.414 3.141-2.617 3.141-5.188.008-10.375 0-16.078 0M165.469 1152.303c4.328 0 7.883-.047 11.438.016 1.781.031 2.133.688 1.203 2.125-1.328 2.078-2.625 4.172-3.477 6.484-.352.961-.961 1-1.742.992-3.078-.008-6.156-.047-9.234.008-4.742.086-6.297 2.078-5.328 6.672 2.898 13.695 5.766 27.398 8.688 41.094.336 1.578-.047 2.344-1.773 2.297-2.258-.062-4.523-.102-6.773.016-1.992.094-2.93-.641-3.344-2.672-1.648-8.094-3.531-16.141-5.172-24.234-1.469-7.297-3.547-14.484-4.344-21.891-.633-5.875 2.5-9.703 8.336-10.609 4.084-.626 8.194-.126 11.522-.298M254.508 1197.272c-2.805.008-5.609.047-8.406-.242-7.477-.773-12.836-4.367-15.461-11.57-2.102-5.75-3.344-11.719-3.812-17.789-.656-8.648 4.688-14.539 13.375-15.102 2.727-.172 5.469-.156 8.203-.094 8.164.172 6.164-1.531 8.211 6.906.414 1.68-.031 2.422-1.883 2.359-2.938-.094-5.883-.031-8.82-.016-4.555 0-7.344 2.453-7.164 7.039.195 4.977 1.109 9.93 3.188 14.523 1.438 3.203 3.953 4.891 7.648 4.75 3.695-.133 7.391.023 11.086-.047 1.523-.031 2.258.594 2.531 2.039.336 1.742.75 3.477 1.148 5.203.328 1.398-.133 2.07-1.633 2.055-2.742-.046-5.477-.014-8.211-.014M321.172 1211.975h-2.875c-3.117 0-3.164-.062-3.852-3.227-2.406-11.07-4.82-22.148-7.227-33.219a5793.63 5793.63 0 0 1-4.117-19.008c-.664-3.109.141-4.188 3.141-4.219 2.117-.016 4.242.094 6.352-.031 1.367-.094 1.711.484 1.961 1.688 3.672 17.5 7.398 34.992 11.094 52.492 1.171 5.524 1.163 5.524-4.477 5.524M337.195 1197.256h-3.898c-1.352.008-2.117-.625-2.406-1.992a10917.368 10917.368 0 0 0-8.836-41.695c-.227-1.047.039-1.312 1.055-1.281 2.391.047 4.789-.016 7.18.031 2.305.031 3.359.891 3.852 3.172 2.852 13.227 5.672 26.453 8.531 39.664.312 1.445-.117 2.102-1.578 2.102-1.298.007-2.595.007-3.9-.001M337.734 1199.975h3.891c1.148 0 2.039.453 2.305 1.609.656 2.859 1.242 5.719 1.844 8.586.258 1.211-.219 1.82-1.484 1.805-2.656-.008-5.32 0-7.977 0-1.281 0-2.016-.625-2.273-1.883-.297-1.469-.695-2.914-.969-4.383-1.173-6.148-2.36-5.75 4.663-5.734M186.906 1120.881c-.641-4.969-3.156-6.938-7.719-6.281-.266.047-.523.141-.789.203-1.055.219-1.023-.656-1.242-1.25-.281-.781.312-.922.852-1.078 4.844-1.516 9.844 1.141 11.086 6.047 1.078 4.297 1.914 8.656 2.914 12.984.195.859.031 1.203-.836 1.438-6.719 1.812-13.539-4.312-12.461-11.203.414-2.641 2.383-3.766 4.961-2.938 1.203.391 2.031 1.344 3.234 2.078M151.992 1120.444c-.508 5.297-.992 10.609-1.57 15.906-.094.766.562 2.094-1.031 2.234-1.422.125-2.5 0-3.266-1.641-2.57-5.5-5.375-10.875-8.031-16.344-.234-.484-1.219-1.188-.258-1.672.633-.312 1.648-.375 2.312.266.32.297.539.797.664 1.25.656 2.453 2.117 3.344 4.734 3.109 3.219-.281 3.32-.062 3.516-3.281.094-1.422.805-1.438 1.859-1.469 1.391-.046 1.11.829 1.071 1.642M245.445 1121.178c.367-.984-.461-2.328 1.352-2.391 1.773-.062 1.242 1.219 1.445 2.078s.305 1.75.492 2.609c.953 4.531 1.953 9.062 2.867 13.594.148.766.578 1.859-.945 1.953-1.195.078-1.766-.297-1.773-1.578 0-.875-.32-1.734-.375-2.609-.078-1.281-.633-1.625-1.93-1.688-5.805-.328-9.891-5.297-9.359-11.203.242-2.672 2.156-3.953 4.742-3.203 1.351.391 2.336 1.329 3.484 2.438M295.758 1121.412c0-.906-.008-1.312 0-1.719.016-.906.703-.844 1.312-.859.641-.016 1.164.016 1.25.922.352 3.891 1.445 7.625 2.258 11.438.266 1.234-.078 1.656-1.336 1.844-6.891 1.047-12.438-4.094-11.852-11.078.219-2.656 2.164-3.984 4.742-3.219 1.345.39 2.368 1.281 3.626 2.671M285.055 1138.787c-3.07.031-4.633-.391-6.523-1.625-4.008-2.641-6.516-9.109-5.32-13.75.633-2.469 2.164-4.047 4.68-4.625 2.055-.469 4.07-.188 6.078.266 1.133.266 1.156.984.844 1.859-.359 1.031-1.07.5-1.688.359-3.82-.859-6.258.203-6.992 3.031-1.758 6.844 3.398 12.812 10.336 11.797 1.281-.188 1.359.531 1.641 1.234.445 1.125-.578 1.062-1.133 1.203-.783.189-1.619.22-1.923.251M171.828 1121.006c.047-.484.141-.812.109-1.125-.086-.969.477-1.156 1.266-1.156.766.016 1.242.156 1.305 1.125.258 3.844 1.547 7.484 2.148 11.25.102.609 1.148 1.625-.453 1.859-1.141.172-1.953-.062-2.125-1.469-.172-1.422-.516-2.828-.891-4.203-.539-2.062-1.25-4.062-2.906-5.547-.875-.781-1.93-1.172-3.016-.562-1 .578-.859 1.625-.656 2.578.531 2.547 1.109 5.078 1.609 7.625.102.547.734 1.453-.484 1.562-.812.062-1.812.375-2.078-.969-.609-3.141-1.453-6.266-1.875-9.438-.438-3.25 1.805-4.797 4.906-3.656 1.172.439 2.001 1.36 3.141 2.126M202.461 1121.303c0-.75.023-1.141-.008-1.5-.07-1.031.633-1.062 1.344-1.062.656-.016 1.133.094 1.219.969.391 3.891 1.516 7.625 2.258 11.438.102.547.914 1.547-.359 1.781-.969.188-2.055.312-2.211-1.266-.117-1.219-.469-2.406-.75-3.594-.531-2.203-1.188-4.359-2.812-6.047-.859-.906-1.906-1.438-3.125-.922-1.352.562-1 1.844-.82 2.859.461 2.547 1.086 5.062 1.594 7.609.094.469.742 1.312-.398 1.359-.766.016-1.852.547-2.141-.859-.656-3.203-1.492-6.375-1.969-9.609-.438-3 1.734-4.609 4.641-3.688 1.326.407 2.357 1.266 3.537 2.532M322.695 1123.756c-.055-3.562 1.766-5.344 5.297-5.188 4.602.188 8.477 5.453 7.742 10.531-.414 2.828-2.18 4.219-5.156 4.094-4.328-.203-7.805-4.359-7.883-9.437M215.094 1118.459c1 .156 2.016.328 3.016.484 1.016.156 1.961.375 1.578 1.75-.406 1.484-1.344.391-1.953.297-1.297-.188-2.555-.484-3.828.047-1.234.531-1.766 1.562-1.656 2.797.094 1.156 1.234.75 1.953.906 1.727.391 3.477.719 5.016 1.672 1.922 1.172 2.812 3.156 2.07 4.828-.836 1.906-2.57 2.062-4.336 1.875-3.75-.391-6.812-3.75-7.461-8.125-.602-4.046 1.476-6.437 5.601-6.531M258.383 1118.569c.93-.109 2.055.25 3.195.469.797.156 1.383.453 1.164 1.5-.266 1.25-.984.75-1.695.578-1.328-.328-2.656-.641-4.023-.141-1.289.469-1.82 1.516-1.844 2.703-.023 1.406 1.273.875 2.023 1.062 1.859.438 3.75.781 5.359 1.906 1.539 1.094 2.344 2.594 1.758 4.438-.609 1.891-2.305 2.172-4.023 2.078-4.055-.219-7.555-4.109-7.836-8.641-.242-4.015 1.625-5.984 5.922-5.952M340.18 1118.475c1.547.047 3.008.328 4.32 1.141 1.523.938 2.211 2.359 2.211 4.141 0 1.719-1.172 2.5-2.523 3.125-.5.219-.984.469-1.477.703-.828.406-1.258 1.047-1.07 1.984.172.859.828 1.203 1.617 1.344 1.164.203 2.305.141 3.422-.266 1.039-.375 1.086.531 1.352 1.078.398.797-.297.938-.789 1.078-2.242.578-4.461.656-6.523-.641-1.32-.828-1.961-2.078-1.914-3.625.055-1.547.992-2.469 2.375-3.016.508-.203 1-.453 1.492-.672.805-.375 1.367-.953 1.273-1.906-.102-.953-.656-1.578-1.594-1.922-1.422-.516-2.836-.312-4.227.062-.844.234-1.25.016-1.484-.828-.242-.875.047-1.266.922-1.375s1.742-.265 2.617-.405M158.867 1118.662c.227.031.695.094 1.164.188.781.156.617.781.594 1.297-.031.406-.039.844-.664.781-2.211-.25-1.875 1.062-1.57 2.469 1.031 4.656 2.031 9.312 3 13.984.141.688.344 1.594-.891 1.625-.953.031-1.75.047-1.781-1.297-.039-1.078-.305-2.156-.531-3.219-.875-4.062-1.867-8.109-2.641-12.188-.477-2.53.594-3.655 3.32-3.64M223.312 1122.256c-.117-2.938 1.641-4.172 4.234-3.5.758.203 1 .562.93 1.297-.062.641-.305.922-1.039.844-1.344-.109-1.625.688-1.359 1.844.148.656.312 1.312.438 1.984.859 4.266 2.133 8.453 2.703 12.781.109.812.094 1.516-1.047 1.5-.859 0-1.5.016-1.625-1.219-.203-1.953-.672-3.875-1.094-5.812-.719-3.391-1.492-6.766-2.141-9.719M307.57 1130.865c-.031.656-.031 1.047-.062 1.422-.109 1-.898.609-1.43.672-.547.062-1.039.078-1.109-.766-.352-4.031-1.492-7.906-2.328-11.844-.117-.547-.68-1.469.586-1.5.82-.016 1.773-.344 1.992 1.047a51.08 51.08 0 0 0 1.234 5.609c.719 2.578 1.641 4.984 5.023 5.016 1.156 0 1.07 1.156 1.016 1.891-.078.953-.953.531-1.469.469-1.328-.141-2.32-1.016-3.453-2.016M317.508 1130.834c-.172 1.078.375 2.375-1.281 2.156-.672-.094-1.273.094-1.336-.984-.219-3.828-1.445-7.469-2.141-11.219-.117-.641-1.047-1.625.391-1.938 1.266-.281 2 .156 2.219 1.594.281 1.875.727 3.75 1.234 5.578.672 2.406 1.758 4.469 4.766 4.484 1.25 0 1.133 1.125 1.117 1.812-.031 1.109-1.016.625-1.578.547-1.266-.155-2.211-.983-3.391-2.03"/><path fill="#B4DD31" d="M105.906 1207.584c-6.062-1.125-12.031-2.594-17.586-5.375-2.648-1.312-5.102-2.906-7.195-5.023-5.062-5.133-6.008-12.18-2.375-18.477 2.328-4.016 5.641-7.203 9-10.328 5.055-4.703 10.469-9.008 15.391-13.875 3.656-3.609 7.203-7.312 9.891-11.734 4.867-7.969 4.359-15.875-1.438-22.797-.258-.312-.43-.688-.781-1.266-1 2.344-1.727 4.234-2.609 6.062-3.609 7.438-9.328 13.141-15.422 18.469-6.062 5.328-12.375 10.359-18.461 15.656-4.766 4.141-9.102 8.703-12.164 14.312-5.484 10.078-2.969 21.281 6.32 28.047 6.758 4.922 14.586 7.055 22.664 8.453 12.594 2.18 25.344 1.789 38.055 2.062 3.523.078 7.039.008 10.57-.117-8.547-1.648-16.984-3.57-25.062-6.844-3.938-1.602-7.727-3.477-10.984-6.281-5.516-4.727-6.047-10.156-1.484-15.789 3.344-4.125 7.672-7.188 11.688-10.594 3.555-3.016 7-6.102 9.797-9.875 6.078-8.188 3.344-19.266-.797-24.578-2.281 10.875-9.781 17.906-17.875 24.469-4.516 3.656-9.312 6.969-13.656 10.844-3.906 3.469-7.641 7.109-8.93 12.469-1.039 4.305-.133 8.117 2.914 11.391 3.414 3.648 7.758 5.766 12.32 7.531a60.669 60.669 0 0 0 8.227 2.516c2.25.438 4.5.883 6.75 1.328-2.315.282-4.549-.109-6.768-.656"/><path fill="#FDFEFD" d="M202.688 1187.967c-3.453.633-6.391-1.055-8.031-4.703-2.062-4.602-2.906-9.539-3.172-14.523-.156-2.875.953-5.875 3.969-6.5 6.891-1.422 11.375-1.203 13.906 6.359 1.078 3.25 1.656 6.633 2.117 10.016.89 6.484-1.672 9.351-8.789 9.351m-4.524-35.367c-1.914 0-3.836-.125-5.742.016-7.719.578-12.938 5.734-12.812 13.5.117 7.539 1.656 14.938 4.906 21.828 1.922 4.086 5.219 6.883 9.578 8.078 6.359 1.734 12.875 1.859 19.297.578 5.906-1.188 9.805-5.695 10-11.688.258-8.227-1.406-16.203-5.07-23.586-2.875-5.82-8.227-8.133-14.422-8.664-1.898-.156-3.82-.016-5.734-.016l-.001-.046"/><path fill="#FCFEFC" d="M281.203 1161.709c1.023 0 2.047.031 3.07-.016.703-.031 1.133.125 1.289.906.711 3.469 1.453 6.938 2.195 10.391.141.672 0 1.016-.781 1-2.992-.031-6.008.188-8.906-.859-2.977-1.086-4.68-3.188-5.016-6.344-.258-2.406.766-3.914 3.078-4.617 1.649-.508 3.36-.476 5.071-.461m.938-9.344c-4.312 0-8.625-.109-12.836 1.062-5.797 1.609-8.453 5.477-7.859 11.438.797 7.953 6.203 13.68 14.781 15.719 3.562.844 7.172.898 10.805.938.992.016 2.422-.734 2.828 1.102.484 2.195-.07 4.008-1.625 4.883-1 .562-2.102.578-3.195.578-4.102 0-8.211.031-12.312-.023-1.711-.023-2.43.508-1.898 2.328.445 1.57.68 3.211 1.016 4.812.25 1.195.93 2.102 2.18 2.086 6.148-.047 12.344.609 18.43-.5 7.031-1.297 10.289-5.969 9.156-13.055-.742-4.648-1.82-9.242-2.789-13.859-.898-4.273-1.844-8.539-2.766-12.82-.719-3.312-2.273-4.625-5.711-4.672-2.737-.048-5.471-.017-8.205-.017M399.789 1161.709c.953 0 1.906.016 2.859-.016.781-.031 1.219.156 1.383 1.047.633 3.344 1.359 6.672 2.07 10 .172.781.188 1.281-.875 1.258-2.445-.062-4.914.133-7.328-.453-3.391-.82-5.742-2.68-6.375-6.32-.43-2.5.586-4.297 2.992-5.039 1.719-.531 3.501-.5 5.274-.477m.898-9.328c-4.375-.016-8.758-.141-13.039 1.062-6.023 1.703-8.773 6.125-7.688 12.312 1.477 8.359 7.469 13.766 16.781 15.25 3.203.516 6.406.531 9.617.445 1.445-.039 1.898.562 2.062 1.844.367 2.914-1.078 4.695-4.18 4.758-4.242.078-8.484.016-12.719.031-2.469 0-2.711.312-2.18 2.781.328 1.531.688 3.062 1.031 4.594.258 1.164 1.031 1.844 2.156 1.844 6.086-.055 12.203.578 18.234-.484 7.445-1.312 10.648-6.234 9.125-14.188-1.68-8.781-3.672-17.516-5.586-26.25-.586-2.672-2.258-3.922-5.203-3.984-2.801-.077-5.606-.015-8.411-.015"/><path fill="#FAFDFA" d="M356.016 1161.553c5.703 0 10.891.008 16.078 0 3.031 0 3.305-.297 2.625-3.141-1.703-7.125-.453-6.062-7.75-6.109-8.133-.047-16.273.016-24.406-.031-1.375-.016-1.734.109-1.531 1.75.648 5.219 3.141 9.227 6.797 12.922 6.617 6.703 12.93 13.719 19.344 20.578-.453.75-1.062.469-1.555.469-4.922.016-9.844 0-14.766.016-2.156.008-2.367.297-1.938 2.406.242 1.203.516 2.406.789 3.609.672 3 .961 3.242 3.922 3.242 9.164.008 18.32-.047 27.484.047 1.859.023 1.992-.539 1.844-2.227-.367-3.938-2.039-6.984-4.805-9.82-6.961-7.148-13.672-14.539-20.484-21.836-.445-.484-.867-.984-1.648-1.875"/><path fill="#FCFEFC" d="M165.469 1152.303c-3.328.172-7.438-.328-11.523.297-5.836.906-8.969 4.734-8.336 10.602.797 7.414 2.875 14.602 4.344 21.898 1.641 8.094 3.523 16.141 5.172 24.234.414 2.031 1.352 2.766 3.344 2.672 2.25-.117 4.516-.078 6.773-.016 1.727.047 2.109-.719 1.773-2.297-2.922-13.695-5.789-27.398-8.688-41.094-.969-4.586.586-6.586 5.328-6.672 3.078-.055 6.156-.016 9.234-.008.781.008 1.391-.031 1.742-.992.852-2.312 2.148-4.406 3.477-6.484.93-1.438.578-2.094-1.203-2.125-3.554-.062-7.109-.015-11.437-.015M254.508 1197.272c2.734 0 5.469-.031 8.211.016 1.5.016 1.961-.656 1.633-2.055-.398-1.727-.812-3.461-1.148-5.203-.273-1.445-1.008-2.07-2.531-2.039-3.695.07-7.391-.086-11.086.047-3.695.141-6.211-1.547-7.648-4.75-2.078-4.594-3-9.547-3.188-14.523-.18-4.586 2.609-7.039 7.164-7.039 2.938-.016 5.883-.078 8.82.016 1.852.062 2.297-.68 1.883-2.359-2.047-8.438-.047-6.734-8.211-6.906-2.734-.062-5.477-.078-8.203.094-8.688.562-14.031 6.453-13.375 15.102.469 6.07 1.711 12.039 3.812 17.789 2.625 7.203 7.984 10.797 15.461 11.562 2.796.295 5.601.256 8.406.248"/><path fill="#FDFEFD" d="M321.172 1211.975c5.641 0 5.648 0 4.477-5.523-3.703-17.492-7.422-34.992-11.094-52.492-.25-1.203-.594-1.781-1.961-1.688-2.109.125-4.234.016-6.352.031-3 .031-3.805 1.109-3.141 4.219 1.359 6.336 2.742 12.672 4.117 19.008 2.406 11.07 4.82 22.148 7.227 33.219.688 3.172.734 3.227 3.852 3.227l2.875-.001"/><path fill="#FCFEFC" d="M337.195 1197.256c1.305 0 2.602.008 3.898 0 1.461 0 1.891-.656 1.578-2.102-2.859-13.211-5.68-26.438-8.531-39.664-.492-2.281-1.547-3.141-3.852-3.172-2.391-.047-4.789.016-7.18-.031-1.016-.031-1.281.234-1.055 1.281 2.969 13.891 5.914 27.797 8.836 41.695.289 1.367 1.055 2 2.406 1.992l3.9.001"/><path fill="#FAFDFA" d="M337.734 1199.975c-7.023-.016-5.836-.414-4.664 5.734.273 1.469.672 2.914.969 4.383.258 1.258.992 1.883 2.273 1.883 2.656 0 5.32-.008 7.977 0 1.266.016 1.742-.594 1.484-1.797-.602-2.875-1.188-5.734-1.844-8.594-.266-1.156-1.156-1.609-2.305-1.609h-3.89"/><path fill="#F5FBF5" d="M181.5 1123.678c-.016-1.109-.078-2.297 1.203-2.781 1.195-.453 2.141.219 2.922 1.016 2.047 2.094 2.609 4.859 3.312 7.578.367 1.406-.266 1.453-1.312 1.438-3.203-.032-6.016-3.345-6.125-7.251m5.406-2.797c-1.211-.734-2.031-1.688-3.234-2.078-2.578-.828-4.547.297-4.961 2.938-1.078 6.891 5.742 13.016 12.461 11.203.867-.234 1.031-.578.836-1.438-1-4.328-1.836-8.688-2.914-12.984-1.242-4.906-6.25-7.562-11.086-6.047-.539.156-1.133.297-.852 1.078.219.594.188 1.469 1.242 1.25.266-.062.523-.156.789-.203 4.563-.656 7.079 1.312 7.719 6.281M148.086 1134.584a4.608 4.608 0 0 1-.445.078c-1.359-2.828-2.719-5.656-4.211-8.766 1.648 0 2.93.016 4.203-.016.789-.031 1.102.25 1.023 1.062-.211 2.548-.383 5.095-.57 7.642m3.906-14.14c.039-.812.32-1.688-1.07-1.641-1.055.031-1.766.062-1.859 1.469-.195 3.219-.297 3-3.516 3.281-2.617.234-4.078-.641-4.734-3.109-.125-.453-.344-.938-.664-1.25-.664-.641-1.68-.578-2.312-.266-.961.484.023 1.188.258 1.672 2.656 5.469 5.461 10.844 8.031 16.344.766 1.641 1.844 1.766 3.266 1.641 1.594-.141.938-1.469 1.031-2.234.577-5.298 1.061-10.611 1.569-15.907"/><path fill="#F4FBF5" d="M239.953 1123.256c.141-.688-.039-1.844 1.156-2.344 1.109-.469 1.984.141 2.781.797.805.672 1.352 1.547 1.828 2.453.883 1.656 1.203 3.469 1.703 5.25.344 1.219.008 1.547-1.203 1.531-3.296-.031-6.116-3.312-6.265-7.687m5.492-2.078c-1.148-1.109-2.133-2.047-3.484-2.438-2.586-.75-4.5.531-4.742 3.203-.531 5.906 3.555 10.875 9.352 11.203 1.305.062 1.859.406 1.938 1.688.055.875.367 1.734.375 2.609.008 1.281.578 1.656 1.773 1.578 1.523-.094 1.094-1.188.945-1.953-.914-4.531-1.914-9.062-2.867-13.594-.188-.859-.289-1.75-.492-2.609s.32-2.125-1.445-2.078c-1.814.063-.986 1.407-1.353 2.391"/><path fill="#F4FBF4" d="M290.203 1123.303c.078-.719-.109-1.859 1.078-2.375 1.102-.484 2.023.078 2.781.781 2.461 2.266 3.023 5.391 3.633 8.484.188.922-.602.688-1.07.719-3.367.203-6.32-3.187-6.422-7.609m5.555-1.891c-1.258-1.391-2.281-2.281-3.625-2.672-2.578-.766-4.523.562-4.742 3.219-.586 6.969 4.961 12.125 11.852 11.078 1.25-.188 1.602-.609 1.336-1.844-.812-3.812-1.914-7.547-2.258-11.438-.086-.906-.609-.938-1.25-.922-.609.016-1.297-.062-1.312.859-.009.408-.001.814-.001 1.72"/><path fill="#F5FBF5" d="M285.055 1138.787c.305-.031 1.141-.062 1.922-.25.555-.141 1.578-.078 1.133-1.203-.281-.703-.359-1.422-1.641-1.234-6.938 1.016-12.102-4.953-10.336-11.797.727-2.828 3.172-3.891 6.992-3.031.617.141 1.328.672 1.688-.359.312-.875.289-1.594-.844-1.859-2.008-.453-4.023-.734-6.078-.266-2.516.578-4.047 2.156-4.68 4.625-1.195 4.641 1.312 11.109 5.32 13.75 1.891 1.234 3.453 1.656 6.524 1.624M171.828 1121.006c-1.141-.766-1.969-1.688-3.141-2.125-3.102-1.141-5.352.406-4.906 3.656.422 3.172 1.266 6.297 1.875 9.438.266 1.344 1.266 1.031 2.078.953 1.219-.094.586-1.016.484-1.547-.5-2.547-1.078-5.078-1.609-7.625-.195-.953-.344-2 .656-2.562 1.086-.625 2.141-.234 3.016.547 1.656 1.484 2.367 3.484 2.906 5.547.375 1.375.719 2.781.891 4.203.18 1.406.984 1.641 2.125 1.469 1.602-.234.555-1.25.461-1.859-.602-3.766-1.898-7.406-2.148-11.25-.07-.969-.547-1.109-1.312-1.125-.789 0-1.352.188-1.266 1.156.031.312-.063.64-.11 1.124"/><path fill="#F4FBF5" d="M202.461 1121.303c-1.18-1.25-2.211-2.125-3.539-2.531-2.906-.922-5.078.688-4.641 3.688.477 3.234 1.312 6.406 1.969 9.609.281 1.406 1.375.875 2.141.859 1.141-.031.492-.891.398-1.359-.508-2.547-1.133-5.062-1.594-7.609-.188-1.016-.531-2.297.82-2.859 1.219-.516 2.266.016 3.125.922 1.625 1.688 2.281 3.844 2.812 6.031.281 1.203.633 2.391.75 3.609.156 1.578 1.242 1.453 2.211 1.266 1.273-.234.461-1.234.359-1.797-.742-3.797-1.867-7.531-2.258-11.422-.086-.875-.562-.984-1.219-.969-.711 0-1.414.031-1.344 1.062.033.359.01.75.01 1.5"/><path fill="#F5FBF5" d="M333.023 1127.6c.062 1.281-.016 2.594-1.367 3.141-1.344.562-2.68.25-3.773-.781-1.68-1.609-2.289-3.656-2.406-5.891-.07-1.234-.055-2.531 1.336-3.141 1.414-.609 2.695-.172 3.758.812 1.702 1.563 2.265 3.641 2.452 5.86m-10.328-3.844c.078 5.078 3.555 9.234 7.883 9.438 2.977.125 4.742-1.281 5.156-4.094.734-5.078-3.141-10.344-7.742-10.531-3.531-.157-5.351 1.625-5.297 5.187"/><path fill="#F3FAF4" d="M212.5 1126.49c1.891.281 3.484.516 4.938 1.281.984.516 1.766 1.312 1.281 2.438-.516 1.203-1.711 1.016-2.68.656-1.906-.718-2.898-2.234-3.539-4.375m2.594-8.031c-4.125.094-6.203 2.484-5.602 6.531.648 4.375 3.711 7.734 7.461 8.125 1.766.188 3.5.031 4.336-1.875.742-1.672-.148-3.656-2.07-4.828-1.539-.953-3.289-1.281-5.016-1.672-.719-.156-1.859.25-1.953-.922-.109-1.219.422-2.25 1.656-2.781 1.281-.531 2.531-.234 3.828-.047.609.094 1.547 1.188 1.953-.297.383-1.375-.562-1.594-1.578-1.75-1-.156-2.007-.328-3.015-.484"/><path fill="#F5FBF5" d="M255.43 1126.49c1.992.266 3.656.516 5.148 1.375.883.516 1.562 1.234 1.117 2.312-.461 1.141-1.508 1.031-2.445.75-2.086-.624-3.078-2.265-3.82-4.437m2.953-7.937c-4.305-.016-6.164 1.938-5.922 5.969.281 4.531 3.781 8.422 7.836 8.641 1.719.094 3.414-.188 4.023-2.078.586-1.844-.219-3.344-1.766-4.438-1.602-1.125-3.492-1.453-5.352-1.906-.75-.188-2.055.344-2.023-1.062.023-1.188.555-2.219 1.836-2.703 1.375-.5 2.703-.188 4.031.141.711.172 1.43.672 1.695-.578.219-1.047-.367-1.344-1.164-1.5-1.139-.22-2.265-.58-3.194-.486"/><path fill="#F4FBF5" d="M340.18 1118.475c-.875.141-1.742.297-2.625.406-.867.094-1.156.5-.914 1.375.234.844.641 1.062 1.484.828 1.391-.375 2.805-.578 4.227-.062.938.344 1.492.969 1.594 1.938.094.938-.469 1.516-1.273 1.891-.492.219-.984.469-1.492.672-1.383.547-2.32 1.469-2.375 3.016-.047 1.547.594 2.797 1.914 3.625 2.062 1.297 4.281 1.219 6.523.641.484-.141 1.188-.281.789-1.078-.266-.562-.312-1.453-1.352-1.078a6.393 6.393 0 0 1-3.422.266c-.789-.141-1.445-.484-1.617-1.344-.188-.953.242-1.578 1.07-1.984.492-.234.977-.484 1.477-.703 1.352-.625 2.523-1.406 2.523-3.141 0-1.766-.695-3.188-2.211-4.125-1.312-.815-2.773-1.096-4.32-1.143"/><path fill="#F3FAF4" d="M158.867 1118.662c-2.727-.016-3.797 1.109-3.32 3.641.773 4.078 1.766 8.125 2.641 12.188.227 1.062.492 2.141.523 3.219.039 1.344.844 1.328 1.789 1.297 1.234-.031 1.031-.938.891-1.625-.969-4.672-1.969-9.328-3-13.984-.312-1.406-.641-2.719 1.57-2.469.625.062.633-.375.664-.781.023-.516.188-1.141-.594-1.297-.469-.095-.937-.157-1.164-.189"/><path fill="#F4FBF4" d="M223.312 1122.256c.648 2.953 1.422 6.328 2.148 9.719.414 1.938.883 3.859 1.086 5.812.125 1.234.766 1.219 1.625 1.219 1.141.016 1.156-.688 1.047-1.5-.57-4.328-1.844-8.516-2.703-12.781a39.665 39.665 0 0 0-.438-1.984c-.266-1.156.023-1.953 1.359-1.844.734.078.977-.203 1.039-.844.07-.734-.172-1.094-.93-1.297-2.592-.672-4.35.563-4.233 3.5"/><path fill="#F5FBF5" d="M307.57 1130.865c1.133 1 2.125 1.875 3.453 2.031.516.047 1.391.469 1.469-.484.055-.75.141-1.891-1.016-1.891-3.383-.031-4.305-2.438-5.023-5.016a50.723 50.723 0 0 1-1.234-5.609c-.219-1.391-1.172-1.062-1.992-1.047-1.266.031-.703.953-.586 1.5.836 3.938 1.977 7.812 2.328 11.844.07.844.562.828 1.109.766.531-.062 1.32.328 1.422-.672.039-.375.039-.765.07-1.422M317.508 1130.834c1.18 1.047 2.125 1.875 3.391 2.031.562.078 1.547.562 1.578-.547.016-.688.133-1.812-1.117-1.812-3.008-.016-4.094-2.078-4.766-4.484-.508-1.828-.953-3.703-1.234-5.578-.219-1.438-.953-1.875-2.219-1.594-1.438.312-.508 1.297-.391 1.938.695 3.75 1.922 7.391 2.141 11.219.062 1.078.664.891 1.336.984 1.656.218 1.109-1.079 1.281-2.157"/><path fill="#4DBE49" d="M105.906 1207.584c2.219.547 4.453.938 6.766.656-2.25-.445-4.5-.891-6.75-1.328 0 .219-.008.446-.016.672"/></g></symbol><symbol viewBox="0 0 60 30" id="MO"><path fill="#F05B22" d="M0 0h60v30H0z"/><g fill="#FFF"><path d="M9.332 12.247h2.173v.886c.313-.369.629-.632.948-.788.318-.157.703-.235 1.153-.235.485 0 .869.086 1.151.258s.514.427.692.766c.366-.396.699-.666 1-.809s.672-.215 1.113-.215c.65 0 1.159.194 1.524.581s.548.992.548 1.815v3.813h-2.333V14.86c0-.274-.053-.479-.159-.612-.156-.209-.35-.314-.581-.314-.273 0-.494.1-.661.298s-.251.517-.251.954v3.134h-2.332v-3.345c0-.267-.016-.448-.047-.543-.049-.153-.136-.275-.258-.369s-.266-.141-.43-.141c-.269 0-.488.102-.66.304s-.259.533-.259.995v3.099H9.332v-6.073zM20.201 15.301c0-.927.312-1.69.938-2.29.625-.601 1.47-.901 2.533-.901 1.216 0 2.135.354 2.756 1.059.499.567.749 1.267.749 2.098 0 .935-.31 1.699-.93 2.296-.619.597-1.476.896-2.569.896-.977 0-1.766-.248-2.367-.744-.741-.615-1.11-1.42-1.11-2.414zm2.333-.006c0 .541.109.941.328 1.2.22.26.495.389.826.389.336 0 .611-.127.826-.383.216-.255.323-.665.323-1.229 0-.525-.108-.917-.326-1.175a1.014 1.014 0 0 0-.806-.386c-.34 0-.619.131-.841.392-.219.26-.33.658-.33 1.192zM26.673 12.247h2.421l1.178 3.848 1.223-3.848h2.349l-2.581 6.072H29.2l-2.527-6.072z"/></g><g fill="#333"><path d="M43.642 9.937v8.383h-2.178v-.897c-.306.381-.584.639-.835.771a2.377 2.377 0 0 1-1.121.264c-.827 0-1.459-.315-1.896-.944s-.654-1.393-.654-2.292c0-1.007.241-1.776.724-2.311.481-.533 1.095-.801 1.838-.801.362 0 .69.062.986.184.295.122.558.305.786.549V9.937h2.35zm-2.332 5.329c0-.476-.102-.832-.304-1.066s-.457-.352-.766-.352c-.271 0-.498.113-.681.338s-.274.603-.274 1.132c0 .496.094.858.283 1.089a.87.87 0 0 0 .7.347.935.935 0 0 0 .743-.349c.199-.234.299-.613.299-1.139zM46.643 14.214l-2.225-.234c.084-.389.205-.694.363-.918.158-.223.386-.416.684-.58.213-.118.507-.21.881-.274a7.169 7.169 0 0 1 1.212-.098c.697 0 1.258.04 1.681.117.423.078.776.241 1.058.489.198.172.354.414.47.729.114.314.171.614.171.9v2.682c0 .285.019.51.055.672s.115.368.237.62h-2.185a2.226 2.226 0 0 1-.172-.357 2.695 2.695 0 0 1-.079-.386c-.306.293-.608.503-.909.629-.412.168-.891.252-1.436.252-.725 0-1.274-.168-1.649-.504a1.596 1.596 0 0 1-.563-1.24c0-.462.136-.841.406-1.138.271-.298.77-.519 1.498-.664a34.311 34.311 0 0 0 1.698-.368c.259-.07.533-.163.823-.277 0-.286-.06-.486-.178-.601s-.325-.172-.623-.172c-.381 0-.667.062-.857.184-.15.094-.27.274-.361.537zm2.018 1.224c-.32.114-.654.216-1.001.303-.473.126-.771.25-.897.372a.582.582 0 0 0-.194.429c0 .183.063.333.191.449s.315.174.563.174c.259 0 .5-.062.724-.188.223-.126.381-.279.474-.46.094-.182.141-.417.141-.706v-.373z"/></g><circle fill="#FFF" cx="37.245" cy="9.007" r="1.28"/><path fill="#FFF" d="M37.245 11.103l-1.688-.815s-3.55 4.249 0 10.301l1.688-1.047c0-.001-3.026-4.308 0-8.439z"/></symbol><symbol viewBox="0 0 60 30" id="UN"><g fill-rule="evenodd" clip-rule="evenodd" fill="#FFDC00"><path d="M2.5 19.768v2.834c5.872-1.017 23.555-2.374 52.897-3.159v-.519c-30.073-.385-45.416-.087-52.897.844zM23.782 7.097l.442-1.503h3.09l-.442 1.507-3.09-.004z"/></g><path fill-rule="evenodd" clip-rule="evenodd" fill="#006DA5" d="M57.335 8.931h-2.859c.102-1.204-.275-1.844-1.23-1.846-.812-.003-1.394.457-1.43 1.194-.03.626.363.99 1.194 1.375 1.027.476 1.76.835 2.376 1.326.615.49.982 1.292.949 2.157-.075 1.973-1.81 3.427-5.551 3.375-2.262-.031-3.604-.933-3.74-2.485a4.666 4.666 0 0 1 .048-1.151h2.932c-.099 1.108.255 1.953 1.502 1.923 1.094-.027 1.797-.612 1.821-1.314.019-.548-.269-.902-.717-1.151-.991-.552-2.137-1.084-2.957-1.733-.604-.479-.887-1.155-.872-1.945.039-2.103 1.96-3.258 4.905-3.289 1.915-.02 3.733.839 3.792 2.389.016.432-.047.803-.163 1.175zm-18.538-.554h2.999c.156-.8.695-1.347 1.762-1.354.966-.007 1.424.492 1.258 1.354-.062.286-.156.573-.22.859-5.187-.189-7.508 1.129-7.768 3.986-.177 1.937.821 3.143 2.853 3.234 1.139.052 2.319-.407 3.387-1.4-.039.354-.051.726-.069 1.072h2.792c.082-.622.155-1.283.325-1.932.436-1.66 1.031-3.328 1.489-4.981.699-2.521-.723-3.904-3.806-3.901-2.886.004-4.66 1.089-5.002 3.063zm5.246 2.57c-.612 2.238-1.712 3.622-3.049 3.616-.714-.003-1.216-.626-1.186-1.387.067-1.662 1.702-2.312 4.235-2.229zm-9.3-3.77l1.14-3.811h2.935l-3.709 12.761h-2.723l.305-1.354c-.959 1.123-2.173 1.679-3.216 1.667-2.366-.027-3.464-2.022-3.229-4.142.431-3.909 2.722-6.711 5.788-6.729 1.253-.007 2.181.528 2.709 1.608zm-2.232.251c.956.051 1.538.843 1.506 1.955-.074 2.592-1.893 5.333-3.533 5.184-.92-.083-1.356-.693-1.327-1.758.073-2.742 1.877-5.459 3.354-5.381zm-9.31 1.636l3.642-1.86-2.636 8.921h-3.092l2.086-7.061zM13.048 16.14l-3.039-.012.407-1.453c-1.431 1.294-2.75 1.871-4.225 1.782-1.472-.089-2.479-1.064-2.521-2.265-.02-.579.127-1.332.53-2.674l1.774-5.899h3.088l-1.89 6.153c-.504 1.641-.255 2.514.877 2.557 1.104.042 2.346-.932 3.082-3.007.6-1.689 1.116-3.294 1.803-5.727h3.042l-.411 1.5c1.42-1.327 2.85-1.854 4.206-1.775 1.479.087 2.45 1.09 2.506 2.203.032.65-.096 1.363-.499 2.705l-1.774 5.899h-3.089l1.891-6.153c.453-1.478.273-2.512-.858-2.535-1.141-.024-2.364.91-3.101 2.985-.599 1.69-1.116 3.295-1.799 5.716z"/><path fill="#006DA5" d="M31.852 26.571l1.154-3.74c.122-.028.257-.051.402-.064.148-.014.292-.02.436-.02.192 0 .361.022.511.067a.837.837 0 0 1 .364.208.677.677 0 0 1 .174.273c.038.104.05.223.034.353a1.177 1.177 0 0 1-.186.504 1.482 1.482 0 0 1-.845.6l-.008.012c.13.048.218.135.271.268.052.132.072.296.062.493-.011.265-.021.486-.021.664-.004.178.001.308.018.383h-.484a1.22 1.22 0 0 1-.008-.174l.007-.327c.004-.13.009-.268.019-.417.016-.259-.019-.447-.1-.566-.085-.115-.222-.174-.411-.171h-.417l-.504 1.655h-.468v-.001zm1.516-3.413l-.429 1.396h.416c.197-.002.374-.042.529-.118.155-.075.28-.177.374-.304s.152-.268.171-.423c.021-.203-.032-.352-.153-.447s-.293-.144-.51-.144c-.093 0-.169.002-.235.011-.062.01-.117.017-.163.029zm3.37 2.912l.026.35a1.95 1.95 0 0 1-.406.149 2.161 2.161 0 0 1-.521.064c-.239-.003-.43-.054-.57-.152a.713.713 0 0 1-.292-.395 1.29 1.29 0 0 1-.045-.552c.024-.208.085-.414.183-.619.095-.206.218-.395.37-.566.152-.169.323-.305.519-.408a1.35 1.35 0 0 1 .621-.158c.172 0 .314.034.426.096a.522.522 0 0 1 .241.251c.05.104.066.226.051.357a.785.785 0 0 1-.31.553 1.636 1.636 0 0 1-.683.27 4.79 4.79 0 0 1-.926.062.623.623 0 0 0-.026.154 1.102 1.102 0 0 0-.006.192.902.902 0 0 0 .027.171c.039.124.11.218.208.276.097.06.217.091.357.091a1.67 1.67 0 0 0 .756-.186zm.152-1.577c.01-.11-.017-.194-.086-.254a.431.431 0 0 0-.291-.09.771.771 0 0 0-.418.13 1.31 1.31 0 0 0-.344.318 1.598 1.598 0 0 0-.235.414c.248.005.472-.006.672-.034s.364-.082.486-.157a.44.44 0 0 0 .216-.327zm.91 2.078h-.462l.588-1.932a11.4 11.4 0 0 0 .223-.794h.417l-.131.535h.012c.146-.191.313-.341.499-.442.187-.102.379-.155.579-.155.112 0 .217.022.315.07.102.045.18.124.234.237.055.109.074.259.055.447a2.21 2.21 0 0 1-.039.211c-.021.076-.04.152-.063.229l-.491 1.594h-.462l.483-1.577c.033-.109.058-.228.075-.349a.492.492 0 0 0-.054-.338c-.054-.088-.161-.133-.319-.136a.732.732 0 0 0-.375.13 1.458 1.458 0 0 0-.39.366c-.123.16-.22.354-.291.58l-.403 1.324zm3.636-3.232l.508-.147-.201.654h.653l-.116.366h-.653l-.403 1.323a2.128 2.128 0 0 0-.107.434c-.01.082.003.146.039.194.037.045.099.07.189.07a.879.879 0 0 0 .222-.022l-.067.366a.738.738 0 0 1-.164.037 1.7 1.7 0 0 1-.202.014.592.592 0 0 1-.323-.076.36.36 0 0 1-.163-.191.578.578 0 0 1-.026-.262c.01-.079.024-.158.046-.239.021-.082.045-.169.076-.268l.427-1.38h-.389l.11-.366h.389l.155-.507zm3.941 3.232h-.439c.01-.084.027-.186.056-.307.025-.124.055-.254.089-.397h-.013c-.182.282-.368.479-.562.598-.197.115-.39.172-.586.169a.714.714 0 0 1-.406-.118.642.642 0 0 1-.229-.318 1.045 1.045 0 0 1-.042-.465 2.23 2.23 0 0 1 .21-.707 2.35 2.35 0 0 1 .445-.625c.183-.187.397-.335.644-.445.247-.112.519-.169.817-.172a2.576 2.576 0 0 1 .726.101l-.448 1.425c-.05.158-.091.315-.126.471a6.78 6.78 0 0 0-.09.434 4.545 4.545 0 0 0-.046.356zm-.11-1.554l.254-.822a1.198 1.198 0 0 0-.833.088 1.56 1.56 0 0 0-.447.335 1.947 1.947 0 0 0-.335.476 1.651 1.651 0 0 0-.166.556.9.9 0 0 0 .008.29.414.414 0 0 0 .117.225c.061.057.153.085.271.088a.74.74 0 0 0 .415-.158c.147-.104.283-.248.412-.434a2.46 2.46 0 0 0 .304-.644zm4.467 1.047l.017.384c-.112.051-.256.09-.426.126a3.264 3.264 0 0 1-.581.054c-.32-.003-.587-.064-.803-.191a1.101 1.101 0 0 1-.463-.541c-.097-.236-.126-.516-.088-.839a2.748 2.748 0 0 1 .522-1.321 2.65 2.65 0 0 1 .499-.51 2.416 2.416 0 0 1 2.018-.445.84.84 0 0 1 .279.119l-.196.377a.914.914 0 0 0-.289-.107 2.09 2.09 0 0 0-.442-.045c-.2 0-.398.037-.594.11a1.889 1.889 0 0 0-.543.312c-.2.169-.366.38-.497.631a2.327 2.327 0 0 0-.253.812c-.027.23-.015.437.039.625a.81.81 0 0 0 .314.444c.158.11.374.167.656.17.146 0 .294-.015.441-.043.148-.029.277-.068.39-.122zm2.735.507h-.439c.01-.084.027-.186.056-.307.026-.124.055-.254.089-.397h-.011c-.183.282-.369.479-.563.598a1.11 1.11 0 0 1-.586.169.708.708 0 0 1-.405-.118.644.644 0 0 1-.23-.318 1.046 1.046 0 0 1-.041-.465c.027-.239.098-.476.209-.707a2.35 2.35 0 0 1 .445-.625c.183-.187.397-.335.644-.445.247-.112.519-.169.817-.172.136 0 .267.012.395.028.127.02.236.045.332.073l-.449 1.425c-.05.158-.091.315-.126.471a7.546 7.546 0 0 0-.09.434 4.155 4.155 0 0 0-.047.356zm-.111-1.554l.254-.822c-.056-.025-.162-.036-.316-.039a1.19 1.19 0 0 0-.516.127 1.55 1.55 0 0 0-.448.335 1.947 1.947 0 0 0-.335.476 1.674 1.674 0 0 0-.166.556.9.9 0 0 0 .008.29.414.414 0 0 0 .117.225c.062.057.153.085.271.088a.745.745 0 0 0 .416-.158c.147-.104.282-.248.411-.434.127-.185.227-.399.304-.644zm1.271 1.554h-.462l.539-1.757c.052-.181.101-.355.144-.524.042-.166.076-.315.105-.444h.411c-.045.188-.091.386-.143.591h.017c.073-.124.157-.236.251-.335a1.11 1.11 0 0 1 .309-.23.76.76 0 0 1 .485-.076l-.144.462a.726.726 0 0 0-.129-.012.7.7 0 0 0-.4.149c-.13.099-.25.233-.357.402a2.4 2.4 0 0 0-.259.575l-.367 1.199z"/></symbol><symbol viewBox="0 0 60 30" id="ZD"><g fill-rule="evenodd" clip-rule="evenodd"><path fill="#E84812" d="M2.5 9.174h12.73L2.5 17.748V9.174zm0 0"/><path fill="#F28700" d="M15.23 9.314v8.434H9.532l5.698-8.434zm0 0"/><path fill="#002C61" d="M56.606 9.498c.496 0 .894.404.894.898a.896.896 0 1 1-1.793 0 .9.9 0 0 1 .899-.898zm0 0zm0 .141a.759.759 0 1 1 0 1.518.759.759 0 0 1 0-1.518zm0 0zm-.367.25h.446a.294.294 0 0 1 .062.582l.264.441h-.221l-.238-.436h-.129v.436h-.184V9.889zm0 0zm.184.148v.293h.238c.086 0 .159-.066.159-.146s-.073-.146-.159-.146h-.238zm0 0zm-39.062 7.711h3.048c1.683 0 2.932-1.096 2.932-2.43 0-.924-.306-1.646-1.279-2.143.937-.697 1.059-2.143.44-3.041-.416-.6-1.199-.961-1.982-.961h-3.158v8.575zm0 0zm1.432-1.279h1.592c.881 0 1.512-.574 1.512-1.285 0-.703-.649-1.279-1.347-1.279h-1.757v2.564zm0 0zm0-6.022h1.493c.606 0 1.145.451 1.151 1.119.006.686-.429 1.127-1.034 1.127h-1.61v-2.246zm0 0zm11.061.838v3.549a2.948 2.948 0 0 1-2.944 2.939 2.947 2.947 0 0 1-2.938-2.939v-3.549h1.401v3.457c0 .969.691 1.758 1.536 1.758.851 0 1.542-.789 1.542-1.758v-3.457h1.403zm0 0zm5.728-2.111h1.414v8.465h-1.414v-.559a2.975 2.975 0 0 1-1.909.693c-1.727 0-3.128-1.488-3.128-3.324 0-1.83 1.401-3.316 3.128-3.316.722 0 1.383.256 1.909.691v-2.65zm0 0zm0 5.539v-.521c-.116-.996-.881-1.762-1.806-1.762-1.004 0-1.817.906-1.817 2.02 0 1.119.813 2.025 1.817 2.025.925 0 1.69-.764 1.806-1.762zm0 0zm5.307-3.58c.722 0 1.383.256 1.909.691v-.539h1.414v6.305c0 2.008-1.358 3.236-3.329 3.236-1.23 0-2.308-.66-2.883-1.658l1.138-.795c.355.686 1.077 1.156 1.855 1.156 1.138 0 1.805-.9 1.805-1.939v-.51a2.975 2.975 0 0 1-1.909.693c-1.727 0-3.128-1.488-3.128-3.324 0-1.83 1.401-3.316 3.128-3.316zm0 0zm1.909 3.58v-.521c-.109-.996-.875-1.762-1.805-1.762-1.004 0-1.818.906-1.818 2.02 0 1.119.814 2.025 1.818 2.025.93 0 1.695-.764 1.805-1.762zm0 0zm5.306-2.309c.784 0 1.451.607 1.665 1.451H46.44c.214-.869.881-1.451 1.664-1.451zm0 0zm3.067 2.627c.031-.191.043-.381.043-.582 0-1.83-1.156-3.316-3.127-3.316-1.727 0-3.128 1.486-3.128 3.316 0 1.836 1.401 3.324 3.128 3.324 1.04 0 2.001-.516 2.595-1.273l-1.09-.766c-.33.49-.918.766-1.487.766-.795 0-1.463-.594-1.671-1.469h4.737zm0 0zm2.167.58c0 .484.392.877.869.877h.514v1.242a4.135 4.135 0 0 1-.813.043c-.38-.025-.753-.123-1.077-.361a2.218 2.218 0 0 1-.888-1.764V9.492h1.396v1.793h1.365v1.236h-1.365v3.09zm0 0"/></g></symbol><symbol viewBox="0 0 60 30" id="ZE"><path fill="#FFD100" d="M0 0h60v30H0z"/><path d="M50.782 19.23c-.373.395-.639 1.295-.015 1.681.892.551 2.058-.568 1.948-1.398-.138-1.043-1.395-.854-1.933-.283m2.112.208c.09.7-.346 1.263-.788 1.532-.371.225-.915.312-1.338.118-.557-.255-.704-.999-.401-1.576.312-.598 1.351-1.304 2.156-.743.186.13.331.352.371.669"/><path d="M51.406 19.49c-.019.13-.043.254-.074.371.439.22.858-.499.074-.371m.403.565c.041.173.131.296.193.447-.075.033-.213.004-.312.015-.048-.146-.142-.246-.179-.402h-.223c-.028.141-.077.261-.104.402h-.253c.069-.437.167-.844.253-1.265.304.032.699-.078.893.089.24.21-.007.661-.268.714"/><path fill="#131313" d="M50.733 13.272l-5.766 5.452h4.595c-.157.771-.324 1.529-.49 2.29h-7.926l.475-2.214s.503-.443.715-.656c1.609-1.622 3.42-3.169 5.026-4.758h-4.596c.15-.772.337-1.509.477-2.29l7.939-.003-.449 2.179zM42.083 11.111c-.144.778-.325 1.519-.476 2.29-.858-.035-1.858-.005-2.691-.016-.265 1.044-.454 2.33-.744 3.466-.126.494-.297 1.252-.029 1.65.368.549 1.469.496 2.29.401-.133.72-.308 1.398-.446 2.111-1.729.469-3.557-.08-4.193-1.294-.389-.741-.341-1.861-.164-2.81.507-2.713 1.206-5.456 1.695-8.104h2.558c-.176.74-.321 1.512-.476 2.274.848.035 1.76.005 2.632.015.021.001.042 0 .044.017M35.719 11.111c-.143.774-.332 1.502-.477 2.274-1.04-.127-2.105.029-2.617.729-.505.949-.714 2.168-.951 3.347-.24 1.191-.514 2.395-.743 3.554h-2.543c.232-1.176.522-2.406.773-3.644.248-1.229.464-2.459.862-3.539a4.388 4.388 0 0 1 2.037-2.364c.885-.48 2.353-.762 3.613-.372.022-.001.043-.002.046.015M23.079 13.282c-.573.37-.898.871-1.101 1.412 1.26.035 2.79.005 4.074.016.273-1.752-1.799-2.186-2.973-1.428m4.996 3.509h-6.647c-.083.462-.058 1.032.104 1.368.707 1.475 3.534.776 4.535.03.342.561.672 1.133 1.012 1.695a6.424 6.424 0 0 1-2.647 1.16c-1.757.337-3.541.056-4.476-.923-.874-.914-1.133-2.551-.862-4.089.395-2.244 1.601-4.042 3.568-4.788 1.671-.635 3.769-.257 4.788.804.487.505.823 1.244.893 2.245.066.959-.071 1.719-.268 2.498M19.242 8.82c-.885 4.049-1.73 8.134-2.603 12.194h-2.527c.285-1.42.588-2.822.892-4.224a141.108 141.108 0 0 0-4.461 0c-.319 1.391-.593 2.828-.907 4.224H7.094c.836-4.091 1.733-8.12 2.572-12.209h2.572c-.406 1.885-.808 3.773-1.205 5.666 1.453.035 2.97.005 4.447.015.422-1.877.813-3.786 1.219-5.681.843.011 1.725-.019 2.543.015"/></symbol><symbol viewBox="0 0 60 30" id="ZI"><path fill="#D4002A" d="M45.117 12.095c-.736-.661-1.41-.879-2.131-.879s-1.623.246-1.623 1.164c0 .769.689 1.029 1.787 1.375 1.572.508 3.604 1.164 3.604 3.474 0 2.67-2.146 3.865-4.439 3.865-1.654 0-3.326-.605-4.342-1.671l1.719-1.763c.684.737 1.705 1.124 2.623 1.124.852 0 1.605-.329 1.605-1.262 0-.885-.885-1.181-2.408-1.674-1.475-.475-2.965-1.21-2.965-3.306 0-2.572 2.326-3.637 4.488-3.637 1.311 0 2.785.492 3.801 1.424l-1.719 1.766zm-27.416 4.183h-2.914l1.473-3.981 1.441 3.981zm4.783 4.521L17.74 9.2h-2.791l-4.916 11.599h3.098l.852-2.276h4.49l.9 2.276h3.111zM32.438 9.2h-3.096l-2.688 8.382L23.92 9.2h-3.145l4.389 11.599h2.803L32.438 9.2zm1.121 11.599h2.818V9.2h-2.818v11.599zm14.423-10.611c0 .549.443.979.988.979.553 0 .996-.43.996-.979s-.443-.988-.995-.988a.987.987 0 0 0-.989.988zm.157 0a.835.835 0 1 1 1.67-.001.835.835 0 0 1-1.67.001zm.449.552h.201v-.466h.146l.258.466h.242l-.301-.487c.158-.035.258-.14.258-.301 0-.239-.205-.327-.418-.327h-.387v1.115zm.201-.627v-.317h.18c.105 0 .225.029.225.151 0 .135-.131.166-.248.166h-.157z"/></symbol><symbol viewBox="0 0 60 30" id="ZR"><g fill-rule="evenodd" clip-rule="evenodd"><path fill="#ED1C2E" d="M30.129 9.614V1.989L22.3 9.614h7.829z"/><path fill="#004FA3" d="M57.353 18.449V9.614H2.647v8.835h54.706z"/><path fill="#FDB827" d="M18.139 17.273a3.423 3.423 0 1 0 0-6.847 3.423 3.423 0 1 0 0 6.847zM6.125 11.477H5.49v-.254h3.145c1.472 0 2.63 1.294 2.63 2.781 0 1.911-1.327 2.723-2.435 2.823a9.592 9.592 0 0 1-.854.043H5.49v-.254h.635v-5.139zm1.42 5.139h.803c.735 0 1.057-.313 1.2-.787.076-.244.093-.523.093-.836v-1.987c0-.667-.093-.888-.16-1.03-.16-.355-.457-.499-1.133-.499h-.803v5.139zM25.154 16.87v-.254h.575v-5.14h-.575v-.254h2.756v.254h-.761v5.14h.947c.955 0 1.311-.795 1.572-1.598h.236l-.084 1.852h-4.666zM33.585 16.87v-.254h.575v-5.14h-.575v-.254h2.756v.254h-.76v5.14h.946c.955 0 1.311-.795 1.573-1.598h.236l-.085 1.852h-4.666zM41.096 16.933v-.253c.203 0 .575.009.669-.245l1.994-5.275h.33l2.097 5.521h.507v.253h-2.68v-.254h.651l-.457-1.327h-1.732l-.221.608c-.093.254-.169.499-.169.575 0 .211.643.144.761.144v.253h-1.75zm1.488-1.834h1.521l-.752-2.071-.769 2.071zM49.434 16.811v-.253h.66v-5.141h-.677v-.254h3.356c.845 0 1.732.381 1.732 1.37 0 .93-1.175 1.2-1.886 1.276v.017c1.176.22 1.666.685 1.666 1.496 0 .702.034 1.007.152 1.134.059.059.228.126.65.033l.051.178c-.271.144-.685.262-.989.262-1.03 0-1.377-.465-1.402-1.767-.018-1.006-.195-1.226-.871-1.226h-.364v2.621h.702v.253h-2.78v.001zm2.079-3.154h.355c.854 0 1.099-.144 1.099-.735v-.82c0-.405.136-.685-.845-.685h-.609v2.24z"/><path fill="#ED1C2E" d="M18.139 18.452v-4.618l-5.386 5.463v8.714l9.589-9.559h-4.203zM18.198 23.885h.962c.493 0 .911.208.911.76 0 .332-.127.471-.424.57v.018c.041.031.09.066.134.131l.477.711h-.918l-.349-.703h-.015v.703h-.778v-2.19zm.779.969h.056c.131 0 .261-.021.261-.183 0-.169-.118-.189-.255-.189h-.062v.372zM22.68 23.885h1.472v.597h-.671v.209h.614v.57h-.614v.215h.695v.598H22.68v-2.189zM26.786 23.885h.764l.715 1.214h.023c-.032-.184-.066-.372-.066-.559v-.655h.761v2.189h-.761l-.7-1.15h-.023c.026.151.049.294.049.439v.711h-.761v-2.189h-.001zM31.474 23.885h1.673v.711l-.438-.021v1.499h-.797v-1.499l-.438.021v-.711zM37.794 26.074h-.842l.76-2.189h.881l.781 2.189h-.842l-.073-.272h-.602l-.063.272zm.525-.793l-.093-.387c-.023-.092-.038-.188-.053-.281h-.028l-.145.668h.319zM44.84 24.773c-.128-.119-.287-.222-.468-.222a.43.43 0 0 0-.433.428c0 .241.206.427.444.427a.632.632 0 0 0 .456-.203l-.023.819c-.127.061-.423.087-.565.087a1.098 1.098 0 0 1-1.113-1.11c0-.639.503-1.149 1.145-1.149.181 0 .366.032.534.09l.023.833zM48.061 26.074h-.842l.761-2.189h.88l.781 2.189h-.842l-.073-.272h-.601l-.064.272zm.526-.793l-.093-.387c-.023-.092-.038-.188-.053-.281h-.029l-.146.668h.321zM52.102 23.885h.961c.494 0 .913.208.913.76 0 .332-.129.471-.425.57v.018c.041.031.09.066.134.131l.476.711h-.917l-.349-.703h-.015v.703h-.778v-2.19zm.778.969h.055c.131 0 .262-.021.262-.183 0-.169-.119-.189-.256-.189h-.061v.372z"/><path fill="#FDB827" d="M55.409 17.529c0-.365.296-.635.646-.635a.636.636 0 1 1 0 1.273.636.636 0 0 1-.646-.638zm.646.533a.515.515 0 0 0 .516-.532.514.514 0 0 0-.516-.528.515.515 0 0 0-.519.528c0 .306.228.532.519.532zm-.134-.165h-.111v-.733h.279c.174 0 .259.063.259.208 0 .132-.082.188-.19.202l.209.323h-.125l-.193-.317h-.127v.317h-.001zm.132-.412c.095 0 .179-.007.179-.119 0-.091-.082-.108-.159-.108h-.151v.228h.131v-.001z"/></g></symbol><symbol viewBox="0 0 60 30" id="ZT"><g fill-rule="evenodd" clip-rule="evenodd"><path fill="#318ECB" d="M15.246 7.467V7.5v-.033zM15.179 18.617h.033-.033z"/><path fill="#929497" d="M37.916 21.244c.169-.64.337-.943.572-1.482.371-.876 1.314-1.179 1.584-1.179.741 0 .977.472.741 1.213h-.472c.101-.438.067-.809-.404-.809-.304 0-.708.202-1.011.876a5.72 5.72 0 0 0-.303.809c-.068.201-.136.438-.202.64-.169.64.134.809.471.809.54 0 .843-.539 1.045-1.078h.438c-.235.876-.842 1.448-1.65 1.448-.674.033-.978-.472-.809-1.247zm5.861-1.448l.102-.236h-.505l-.978 2.897h.505l.641-1.853a.792.792 0 0 1 .202-.371.867.867 0 0 1 .741-.236l.168-.438c-.101-.033-.27 0-.37.034-.202.033-.371.168-.506.27v-.067zm-1.616.741c.033-.136.168-.371.134-.438-.101-.235-.37-.235-.572-.202-.235.067-.37.236-.438.472h-.438c.067-.337.304-.606.606-.741a1.337 1.337 0 0 1 1.078.033c.067 0 .102.034.168.102a.478.478 0 0 1 .067.202c0 .101 0 .236-.033.371-.202.538-.404 1.111-.606 1.65 0 .067-.034.169.067.202.034.033.101 0 .168 0l-.101.303c-.067.034-.27.034-.37 0-.102-.033-.169-.067-.203-.168 0-.034-.033-.168-.067-.135-.168.168-.303.27-.538.303a1.268 1.268 0 0 1-.506 0c-.202-.033-.37-.202-.37-.404 0-.438.168-.809.606-1.077.27-.136.74-.203 1.044-.271.101-.034.27-.101.304-.202zm-.136.472c-.067.033-.303.101-.303.101-.303.067-.64.101-.843.337-.134.168-.235.371-.134.572.033.102.101.136.168.136.337.033.606-.169.774-.337.068-.067.102-.203.136-.271.034 0 .202-.538.202-.538zm11.016 1.515l.135-.404c-.135 0-.505.067-.404-.236l.64-1.92h.473l.135-.37h-.472l.235-.741h-.472l-.27.741h-.404l-.135.37h.404l-.606 1.887c-.033.101-.101.235-.101.37.033.135.101.202.169.27.201.067.438.033.673.033zm-2.392-2.055l-.64 1.988h-.506l.978-2.897h.471l-.066.236c0 .033 0 .033.033.033.168-.169.371-.27.606-.303.27-.067.64.033.741.27a.65.65 0 0 1 0 .438l-.741 2.224h-.505l.775-2.224c.033-.169-.067-.303-.235-.337-.641-.068-.843.438-.911.572zm-2.358.573c-.033.168-.101.304-.134.472-.067.37 0 .641.27.641.336 0 .605-.271.74-.675h.438c-.136.606-.741 1.045-1.28 1.045s-.809-.37-.674-.978c0-.067.067-.471.337-1.044.067-.202.472-1.011 1.247-1.011.605 0 .842.438.707.977 0 .068-.135.573-.135.573h-1.516zm.136-.37h.977s.033-.034.066-.135c.102-.371-.033-.674-.303-.641-.269 0-.606.304-.74.641v.135zm-2.493.066l-.572 1.719h-.506l1.313-3.84c1.146 0 1.415 0 1.517.033a.818.818 0 0 1 .404.235c.168.337.067.708-.067 1.011-.136.304-.473.539-.741.641.067.033.303.168.303.438-.034.404-.202.741-.303 1.213-.034.101.067.201.101.27h-.572c-.068 0-.034-.236-.034-.202.067-.438.169-.539.27-1.078.067-.235-.135-.337-.135-.371-.204-.102-.271-.069-.978-.069zm.573-1.717l-.438 1.313c.707 0 .909.033 1.077-.067.203-.135.371-.236.473-.674.135-.572-.337-.572-.371-.572h-.741zm8.791 1.516c.034-.136.135-.371.102-.438-.067-.235-.337-.235-.573-.202a.583.583 0 0 0-.403.472h-.438c.067-.337.304-.606.606-.741a1.34 1.34 0 0 1 1.078.033c.066 0 .101.034.135.102a.589.589 0 0 1 .101.202c0 .101-.033.236-.067.371-.202.538-.37 1.111-.572 1.65-.034.067-.034.169.033.202s.135 0 .202 0c0 0-.067.27-.101.27-.102.101-.27.067-.404.033-.102-.033-.135-.102-.169-.168.034.066-.101-.135-.067-.135-.235.135-.336.27-.539.303a1.263 1.263 0 0 1-.505 0c-.202-.033-.371-.202-.371-.404-.033-.438.169-.809.607-1.077.235-.136.741-.203 1.044-.271.1-.034.268-.101.301-.202zm-.168.472c-.067.033-.304.101-.27.101-.304.067-.641.101-.842.337-.135.168-.236.371-.169.572.034.102.135.136.202.136.304.033.606-.169.741-.337.067-.067.135-.203.168-.271l.17-.538zm.437 1.448l1.28-3.84h.505l-1.313 3.84h-.472z"/></g><path fill-rule="evenodd" clip-rule="evenodd" fill="#007EC8" d="M31.481 21.817v-.169h.102c.034 0 .102.033.102.102 0 .067-.033.067-.102.067h-.102zm0 .134h.068l.135.27h.168l-.168-.303c.101 0 .168-.034.168-.168 0-.136-.101-.203-.27-.203h-.27v.674h.168v-.27h.001zm.708-.067c0-.404-.304-.606-.606-.606-.336 0-.64.202-.64.606s.304.606.64.606c.303 0 .606-.202.606-.606zm-.168 0c0 .304-.202.472-.438.472-.27 0-.438-.168-.438-.472 0-.27.168-.471.438-.471.236 0 .438.201.438.471zM27.17 10.161l.91-2.661h-3.436v-.033l-.91 2.694h3.436zM4.365 13.53h3.503l.843-2.459h1.516L11.439 7.5H4.23l-1.212 3.571h2.189l-.842 2.459zM4.23 13.9l-1.583 4.717H6.15L7.768 13.9H4.23zM9.62 13.9l-1.617 4.717h3.47l1.583-4.717H9.62zM9.755 13.53h7.175l.606-1.819c.303-.977-.337-1.617-1.381-1.617-.741 0-1.517.202-2.358 1.651L15.246 7.5h-3.47l-2.021 6.03zM13.427 13.9l-1.583 4.717h3.335l1.616-4.717h-3.368zM22.252 13.53l1.146-3.47c-1.549 0-1.953.64-2.594 1.516l.37-1.078h-2.862l-1.045 3.032h4.985zM17.166 13.9l-1.617 4.717h3.435l1.583-4.717h-3.401zM26.024 13.53l1.045-3.032h-3.436l-1.044 3.032h3.435zM24.307 18.617l1.584-4.717h-3.403l-1.617 4.717h3.436zM31.011 13.53l1.011-3.032H30.37c-.067 0-.303.067-.303-.101 0-.169.067-.236.303-.236h2.156l.876-2.661h-3.437c-1.246 0-1.751.775-2.122 1.752l-1.448 4.278h4.616zM29.73 13.9h-3.469l-1.583 4.717h3.436L29.73 13.9zM34.009 18.617l1.583-4.717h-3.571l-1.583 4.717h3.571zM38.455 13.53l-.202-3.032h-1.685L37.579 7.5h.034-3.233l-1.045 2.998h-.943l-1.011 3.032h7.074z"/><path fill-rule="evenodd" clip-rule="evenodd" fill="#007EC8" d="M35.592 13.9l.235 3.605-3.266 4.952h3.502l5.794-8.557h-6.265zM40.477 10.498l-2.022 3.032h3.672l2.021-3.032h-3.671z"/></symbol></svg>