<?xml version="1.0" encoding="utf-8"?>
<!-- Generator: Adobe Illustrator 16.0.0, SVG Export Plug-In . SVG Version: 6.00 Build 0)  -->
<!DOCTYPE svg PUBLIC "-//W3C//DTD SVG 1.1//EN" "http://www.w3.org/Graphics/SVG/1.1/DTD/svg11.dtd">
<svg version="1.1" id="Capa_1" xmlns="http://www.w3.org/2000/svg" xmlns:xlink="http://www.w3.org/1999/xlink" x="0px" y="0px"
	 width="703.9px" height="164.8px" viewBox="0 0 703.9 164.8" enable-background="new 0 0 703.9 164.8" xml:space="preserve">
<g>
	<path fill="#DB0809" d="M574.4,0c0,0,14.4,62.3,56.2,112.1c0,0-48.6-1.5-65.6-34.5C549.4,47.3,560.4,16.3,574.4,0z"/>
	<path fill="#DB0809" d="M646.5,128.9c15.9,15,34.9,27.7,57.4,35.6c0,0-30.3,2.5-48.5-6.3s-37.3-23.5-49-24.5s-18.6-1.7-21.8-4.8
		H646.5z"/>
	<path fill="#DB0809" d="M673.5,130.3c-7.4-17.6-42.9-18.2-42.9-18.2s9.6,10.7,15.8,16.8C646.5,128.9,668.1,128.3,673.5,130.3z"/>
	<path fill="#DB0809" d="M88.2,52h21.7l19.7,51.7l19-51.7h22.3l-34.1,80.7c0,0-3.8,0-7.2,0s-8.3-0.3-13.3-13.7S88.2,52,88.2,52z"/>
	<rect x="177.6" y="52" fill="#DB0809" width="21.3" height="80.7"/>
	<circle fill="#DB0809" cx="188.2" cy="29.3" r="12.3"/>
	<path fill="#DB0809" d="M368.2,132.7h-22v-55c0,0,0-11.7-12.3-9c-10,2.2-17.3,8.3-17.3,8.3v55.7h-22V52c0,0,19.3-6,21,7.7
		c0,0,12.3-10.3,27.7-10.3s25,11,25,22.3V132.7z"/>
	<path fill="#DB0809" d="M279.9,118.8c0,0,0-35.4,0-41.8c0-9.3-3.8-28.2-30-28c-25,0.2-34.3,10.7-34.3,10.7l8.3,13.3
		c0,0,4-6.7,20-6.7s14,14,14,14c-44-0.7-46.3,17.7-46.3,28.7s8.3,24.3,24.7,24.3s24.7-8,24.7-8c0.7,7,8.7,7.3,8.7,7.3h12.7
		C280.2,132.7,279.9,118.8,279.9,118.8z M258.9,112.2c0,0-5.7,4.2-14.7,4.2s-11.7-5.8-11.7-10.3c0-5.2,3-11.3,26.3-10V112.2z"/>
	<path fill="#DB0809" d="M521.4,118.8c0,0,0-35.4,0-41.8c0-9.3-3.8-28.2-30-28c-25,0.2-34.3,10.7-34.3,10.7l8.3,13.3
		c0,0,4-6.7,20-6.7s14,14,14,14c-44-0.7-46.3,17.7-46.3,28.7s8.3,24.3,24.7,24.3c16.3,0,24.7-8,24.7-8c0.7,7,8.7,7.3,8.7,7.3h12.7
		C521.7,132.7,521.4,118.8,521.4,118.8z M500.4,112.2c0,0-5.7,4.2-14.7,4.2s-11.7-5.8-11.7-10.3c0-5.2,3-11.3,26.3-10V112.2z"/>
	<path fill="#DB0809" d="M443.2,73.7c0,0-7.2-7.3-21.3-7.3c-15.7,0-21.7,15.3-21.7,28.3s9.7,22,23.7,22c10.5,0,18.7-6.3,18.7-6.3
		l5.7,15.7c0,0-11.8,8.3-30.7,8.3c-13,0-38.3-8.7-38.3-40s20.7-44.9,40.7-44.7c17.8,0.2,24.8,6.3,24.8,6.3L443.2,73.7z"/>
	<path fill="#DB0809" d="M59,20.7H42.7L0,132.7h22.3l9-28.3H70l11.3,28.3h22.3L59,20.7z M38.8,86.4l12.1-33.7l12.1,33.7H38.8z"/>
</g>
</svg>
