<?xml version="1.0" encoding="utf-8"?>
<!-- Generator: Adobe Illustrator 16.0.0, SVG Export Plug-In . SVG Version: 6.00 Build 0)  -->
<!DOCTYPE svg PUBLIC "-//W3C//DTD SVG 1.1//EN" "http://www.w3.org/Graphics/SVG/1.1/DTD/svg11.dtd">
<svg version="1.1" id="Layer_1" xmlns="http://www.w3.org/2000/svg" xmlns:xlink="http://www.w3.org/1999/xlink" x="0px" y="0px"
	 width="171.8px" height="62.8px" viewBox="0 0 171.8 62.8" enable-background="new 0 0 171.8 62.8" xml:space="preserve">
<path fill-rule="evenodd" clip-rule="evenodd" fill="#0A547E" d="M22.6,0L0,61.1h16.4l3.4-10.5h21.8l3.4,10.5h16.4L38.7,0H22.6
	L22.6,0z M157.3,0h14.5v61.1h-14.5V0L157.3,0z M108.7,17.2h14.5v25.3c0,2.5-0.2,4.7,1.8,6.6c1.8,1.7,4.5,2.2,7,1.6
	c1.6-0.4,3.1-1.3,4.2-2.7c1.1-1.4,1.8-3.3,1.9-5.8v-25h14.5v43.9h-14.2v-5.9c-1.1,2-2.8,3.7-4.9,5c-2.1,1.3-4.5,2.1-7,2.5
	c-2.5,0.4-5.1,0.2-7.5-0.4c-2.4-0.7-4.6-1.9-6.3-3.8c-3.4-3.7-4.1-9.1-4.1-12.2V17.2L108.7,17.2z M62.9,61.1h41.7V50.2H81L103,28
	V17.2H64.4V28h20.7L62.9,50.2V61.1L62.9,61.1z M23.7,38.5l7-21.8l7,21.8H23.7L23.7,38.5z"/>
</svg>
