<?xml version="1.0" encoding="utf-8"?>
<!-- Generator: Adobe Illustrator 16.0.0, SVG Export Plug-In . SVG Version: 6.00 Build 0)  -->
<!DOCTYPE svg PUBLIC "-//W3C//DTD SVG 1.1//EN" "http://www.w3.org/Graphics/SVG/1.1/DTD/svg11.dtd">
<svg version="1.1" id="Layer_1" xmlns="http://www.w3.org/2000/svg" xmlns:xlink="http://www.w3.org/1999/xlink" x="0px" y="0px"
	 width="78.8px" height="61.4px" viewBox="0 0 78.8 61.4" enable-background="new 0 0 78.8 61.4" xml:space="preserve">
<g>
	<polygon fill="#EF4135" points="0,53.8 35.7,0 35.7,37.8 	"/>
	<polygon fill="#EF4135" points="35.7,44.9 35.7,61.4 0.1,61.4 	"/>
	<polygon fill="#AB0634" points="71.3,53.8 35.7,0 35.7,37.8 	"/>
	<polygon fill="#AB0634" points="35.7,44.9 35.7,61.4 71.2,61.4 	"/>
	<path fill-rule="evenodd" clip-rule="evenodd" fill="#AB0634" d="M76.6,53.8c1.2,0,2.1-1,2.1-2.1c0-1.2-1-2.1-2.1-2.1
		c-1.2,0-2.1,1-2.1,2.1C74.5,52.9,75.5,53.8,76.6,53.8L76.6,53.8z M76.6,53.4c-1,0-1.7-0.8-1.7-1.7c0-1,0.8-1.7,1.7-1.7
		c1,0,1.7,0.8,1.7,1.7S77.6,53.4,76.6,53.4L76.6,53.4z M77.1,51.9c0.4,0,0.6-0.2,0.6-0.6c0-0.2-0.1-0.5-0.3-0.6
		c-0.2-0.1-0.4-0.1-0.6-0.1h-1.1v2.3l0.4,0v-1h0.5l0.5,1l0.5,0L77.1,51.9L77.1,51.9z M76.2,51.5v-0.7l0.6,0c0.2,0,0.6,0,0.6,0.3
		c0,0.3-0.2,0.4-0.4,0.3H76.2L76.2,51.5z"/>
</g>
</svg>
